<svg width="24" height="24" viewBox="0 0 24 24" fill="none" xmlns="http://www.w3.org/2000/svg">
<path d="M11.3034 9.40148C11.5053 9.37414 16.394 8.7794 16.1904 4.63217C16.1717 4.25113 16.1195 3.90451 16.0385 3.59029M11.3034 9.40148C13.9829 9.24001 15.3445 8.28275 15.9539 7.1355M11.3034 9.40148C10.9792 9.44538 10.6449 9.44188 10.3141 9.39412M16.0385 3.59029C15.9371 3.1969 15.7905 2.8543 15.6074 2.55856M16.0385 3.59029C16.4036 4.51244 16.5947 5.92903 15.9539 7.1355M15.6074 2.55856C14.1065 0.133973 10.1593 0.858312 8.65628 2.55856C8.0665 3.22629 6.83043 4.91967 7.4328 7.0364C7.8104 8.36328 9.03545 9.20948 10.3141 9.39412M15.6074 2.55856C16.1785 3.29024 17.0071 5.00372 16.2987 6.55765M15.9539 7.1355C16.0956 6.94695 16.2094 6.75356 16.2987 6.55765M10.3141 9.39412C12.005 9.66237 15.569 9.47062 16.2987 6.55765" stroke="#5B5180" stroke-linecap="round"/>
<path d="M20.1817 14.9722L20.5452 15.6354C20.9847 16.437 21.1845 17.367 20.7826 18.1849M20.1817 14.9722C19.394 13.5355 17.7838 12.6279 16.0225 12.6279H7.81996C6.05862 12.6279 4.44845 13.5355 3.66075 14.9722L3.48235 15.2976C2.9308 16.3037 2.79587 17.4915 3.37589 18.4841C5.14616 21.5136 8.207 22.8097 11.3034 22.8874M20.1817 14.9722C20.9901 17.1119 20.3461 21.6903 11.3034 22.8874M20.7826 18.1849C19.3757 21.0485 15.3098 22.9878 11.3034 22.8874M20.7826 18.1849C20.3907 20.0828 17.9461 23.6804 11.3034 22.8874" stroke="#9683D7" stroke-linecap="round"/>
</svg>
