<svg width="24" height="24" viewBox="0 0 24 24" fill="none" xmlns="http://www.w3.org/2000/svg">
<path d="M15.0139 22.9997C11.7113 18.8383 7.99583 17.1951 6.86323 16.3117C5.33904 15.1228 6.22822 14.4009 6.86323 14.1886C7.60423 13.9762 9.04379 14.2523 10.1447 15.3563C11.2456 16.4604 11.8736 16.0286 12.05 15.6748C12.1206 15.4979 12.2194 14.6768 12.05 12.8084C11.8807 10.9401 8.76866 9.83608 8.76866 8.56206C8.76866 7.11832 9.89776 7.25288 10.4623 7.5005C11.5208 7.96059 13.7437 9.26281 14.167 10.7914C14.2681 11.4668 14.6949 13.0287 15.5937 13.8736M16.8134 12.8083C16.5312 11.9945 15.7318 10.4516 14.2922 11.216M18.1897 13.5515C18.1897 12.7731 18.2532 11.2373 16.3902 11.3223M22 17.3733C21.1533 16.4178 20.2006 15.0377 19.9888 13.5515C19.8432 12.5287 18.7539 11.8176 18.0835 11.853" stroke="#5B5180" stroke-linecap="round"/>
<path d="M4.85714 6.50092C4.91901 6.95922 5.78998 8.91057 6.18733 7.81216C6.66165 6.50092 7.11278 5.14286 9.14286 3.85714M11.9931 5.30746C11.9721 4.85557 11.9137 4.44451 11.823 4.07187C11.7093 3.60534 11.545 3.19905 11.3399 2.84832C9.65822 -0.0270361 5.23566 0.83197 3.55158 2.84832C2.89077 3.64019 1.50582 5.6484 2.18074 8.15866C2.60382 9.73223 3.97641 10.7358 5.40909 10.9547C5.77968 11.0114 6.15428 11.0155 6.51751 10.9635" stroke="#9683D7" stroke-linecap="round"/>
</svg>
