<svg width="16" height="16" viewBox="0 0 16 16" fill="none" xmlns="http://www.w3.org/2000/svg">
<path d="M14.2051 7.01938V5.06602C14.2051 4.91102 14.1062 4.77259 13.9575 4.71962L10.0683 3.3335M11.5726 7.01938V4.7135C11.5726 4.55073 11.4637 4.40723 11.3046 4.36046L7.81192 3.3335M8.94013 7.01938V4.72079C8.94013 4.55457 8.82662 4.40892 8.66301 4.36519L4.80338 3.3335M5.93158 7.01938V5.08209C5.93158 4.91932 5.82265 4.77582 5.66358 4.72905L2.65503 3.84443C2.41374 3.77349 2.1709 3.95057 2.1709 4.19748V5.91361" stroke="#5B5180" stroke-width="0.666667" stroke-linecap="round"/>
<path d="M0.666672 6.2821V10.8535C0.666672 11.0183 0.778232 11.163 0.939929 11.2081M0.939929 11.2081L3.94848 12.0461C4.01944 12.0659 4.09028 12.0644 4.15488 12.0461M0.939929 11.2081L3.81478 12.4063M0.666672 5.54492L4.18455 6.8515C4.33069 6.90578 4.42736 7.04299 4.42736 7.19617V11.6916C4.42736 11.8639 4.30886 12.0026 4.15488 12.0461M4.15488 12.0461L14.5812 12.1795M14.5812 12.1795C14.9966 12.1795 15.3333 11.8495 15.3333 11.4423V7.75645C15.3333 7.34932 14.9966 7.01927 14.5812 7.01927H14.2051H11.5727H8.94018H5.93163H5.17949M14.5812 12.1795L4.42736 12.6667L3.81478 12.4063M14.5812 12.1795H3.6M3.81478 12.4063H7.66667" stroke="#9683D7" stroke-width="0.666667" stroke-linecap="round"/>
</svg>
