<svg width="16" height="16" viewBox="0 0 16 16" fill="none" xmlns="http://www.w3.org/2000/svg">
<path d="M7.5356 6.26749C7.67022 6.24926 10.9293 5.85277 10.7936 3.08795C10.7811 2.83392 10.7464 2.60284 10.6924 2.39336M7.5356 6.26749C9.32194 6.15984 10.2297 5.52167 10.6359 4.75684M7.5356 6.26749C7.31947 6.29675 7.09658 6.29442 6.87608 6.26258M10.6924 2.39336C10.6248 2.1311 10.527 1.90271 10.4049 1.70554M10.6924 2.39336C10.9357 3.00813 11.0631 3.95252 10.6359 4.75684M10.4049 1.70554C9.40433 0.0891528 6.77289 0.572045 5.77086 1.70554C5.37767 2.15069 4.55362 3.27962 4.9552 4.69077C5.20693 5.57535 6.02363 6.13949 6.87608 6.26258M10.4049 1.70554C10.7857 2.19333 11.3381 3.33565 10.8658 4.3716M10.6359 4.75684C10.7304 4.63113 10.8063 4.50221 10.8658 4.3716M6.87608 6.26258C8.00331 6.44142 10.3794 6.31358 10.8658 4.3716" stroke="#5B5180" stroke-width="0.666667" stroke-linecap="round"/>
<path d="M13.4545 9.98133L13.6968 10.4234C13.9898 10.9578 14.123 11.5778 13.8551 12.1231M13.4545 9.98133C12.9293 9.0235 11.8559 8.41846 10.6817 8.41846H5.2133C4.03908 8.41846 2.96563 9.0235 2.4405 9.98133L2.32157 10.1983C1.95387 10.8689 1.86392 11.6608 2.25059 12.3225C3.43078 14.3423 5.47133 15.2063 7.5356 15.2581M13.4545 9.98133C13.9934 11.4077 13.5641 14.4601 7.5356 15.2581M13.8551 12.1231C12.9171 14.0321 10.2065 15.3251 7.5356 15.2581M13.8551 12.1231C13.5938 13.3884 11.9641 15.7868 7.5356 15.2581" stroke="#9683D7" stroke-width="0.666667" stroke-linecap="round"/>
</svg>
