<svg width="16" height="16" viewBox="0 0 16 16" fill="none" xmlns="http://www.w3.org/2000/svg">
<path d="M5.33012 2.67665C5.43659 4.97184 2.88044 5.30099 2.77486 5.31612C2.60535 5.34041 2.43054 5.33848 2.2576 5.31205C1.58901 5.20986 0.948469 4.74155 0.751033 4.00721C0.436071 2.83576 1.08238 1.89859 1.39076 1.52905C2.17666 0.58809 4.24052 0.18722 5.0253 1.52905C5.12102 1.69273 5.19771 1.88233 5.25074 2.10004C5.29309 2.27394 5.32034 2.46577 5.33012 2.67665Z" stroke="#5B5180" stroke-width="0.666667" stroke-linecap="round"/>
<path d="M15.3301 12.6767C15.4366 14.9718 12.8804 15.301 12.7749 15.3161C12.6054 15.3404 12.4305 15.3385 12.2576 15.312C11.589 15.2099 10.9485 14.7415 10.751 14.0072C10.4361 12.8358 11.0824 11.8986 11.3908 11.5291C12.1767 10.5881 14.2405 10.1872 15.0253 11.5291C15.121 11.6927 15.1977 11.8823 15.2507 12.1C15.2931 12.2739 15.3203 12.4658 15.3301 12.6767Z" stroke="#5B5180" stroke-width="0.666667" stroke-linecap="round"/>
<path d="M0.666687 15.3332L15.3334 0.666504" stroke="#9683D7" stroke-width="0.666667" stroke-linecap="round"/>
</svg>
