<svg width="16" height="16" viewBox="0 0 16 16" fill="none" xmlns="http://www.w3.org/2000/svg">
<path d="M14.0938 0.994685C11.6202 0.509944 3.89294 0.606942 1.66669 0.994735M15.0214 1.47948C15.1584 5.63175 15.3974 13.0291 15.3171 15.3331M14.6667 15.3332C13.725 14.3875 4.96365 14.151 3.0803 14.151C1.19694 14.151 0.712894 14.4538 0.961525 13.2053C1.16574 12.1799 1.01704 5.52083 0.666687 1.25309" stroke="#D6CBFF" stroke-width="0.666667" stroke-linecap="round"/>
<path d="M12.6666 4.99972C11.9714 3.60889 10.6666 4.6665 10.6666 5.99972V11.3332C10.6666 12.6665 11.6666 12.6665 12 12.6663C13.6666 12.6665 13 5.66655 12.6666 4.99972Z" stroke="#5B5180" stroke-width="0.666667" stroke-linecap="round"/>
<path d="M4.98849 8.36724C4.41311 7.58729 3.33331 8.18037 3.33331 8.92802V11.9189C3.33331 12.6666 4.1609 12.6666 4.43676 12.6665C5.81607 12.6666 5.26435 8.74118 4.98849 8.36724Z" stroke="#5B5180" stroke-width="0.666667" stroke-linecap="round"/>
<path d="M8.87354 3.45379C8.10637 1.78247 6.66665 3.05336 6.66665 4.65546V11.0646C6.66665 12.6668 7.77009 12.6667 8.13791 12.6665C9.97699 12.6667 9.24136 4.25509 8.87354 3.45379Z" stroke="#5B5180" stroke-width="0.666667" stroke-linecap="round"/>
</svg>
