<svg width="16" height="16" viewBox="0 0 16 16" fill="none" xmlns="http://www.w3.org/2000/svg">
<path d="M3.71834 9.15698C3.15615 9.03834 1.39994 9.06208 0.893963 9.157M3.92916 9.27564C3.96029 10.2919 4.01461 12.1025 3.99636 12.6664M3.84855 12.6664C3.63453 12.4349 1.64328 12.3771 1.21524 12.3771C0.787202 12.3771 0.677189 12.4512 0.733696 12.1456C0.78011 11.8946 0.746314 10.2648 0.666687 9.22023M15.0517 9.15698C14.4895 9.03834 12.7333 9.06208 12.2273 9.157M15.2625 9.27564C15.2936 10.2919 15.3479 12.1025 15.3297 12.6664M15.1819 12.6664C14.9679 12.4349 12.9766 12.3771 12.5486 12.3771C12.1205 12.3771 12.0105 12.4512 12.067 12.1456C12.1134 11.8946 12.0796 10.2648 12 9.22023M9.385 9.15698C8.82281 9.03834 7.0666 9.06208 6.56063 9.157M9.59583 9.27564C9.62696 10.2919 9.68128 12.1025 9.66303 12.6664M9.51521 12.6664C9.30119 12.4349 7.30995 12.3771 6.88191 12.3771C6.45387 12.3771 6.34386 12.4512 6.40036 12.1456C6.44678 11.8946 6.41298 10.2648 6.33335 9.22023" stroke="#D6CBFF" stroke-width="0.666667" stroke-linecap="round"/>
<path d="M3.71834 3.41382C3.15615 3.29518 1.39994 3.31892 0.893963 3.41383M3.92916 3.53248C3.96029 4.54877 4.01461 6.3593 3.99636 6.92323M3.84855 6.92324C3.63453 6.69178 1.64328 6.6339 1.21524 6.6339C0.787202 6.6339 0.677189 6.708 0.733696 6.40244C0.78011 6.15146 0.746314 4.52162 0.666687 3.47707M15.0517 3.41382C14.4895 3.29518 12.7333 3.31892 12.2273 3.41383M15.2625 3.53248C15.2936 4.54877 15.3479 6.3593 15.3297 6.92323M15.1819 6.92324C14.9679 6.69178 12.9766 6.6339 12.5486 6.6339C12.1205 6.6339 12.0105 6.708 12.067 6.40244C12.1134 6.15146 12.0796 4.52162 12 3.47707M9.385 3.41382C8.82281 3.29518 7.0666 3.31892 6.56063 3.41383M9.59583 3.53248C9.62696 4.54877 9.68128 6.3593 9.66303 6.92323M9.51521 6.92324C9.30119 6.69178 7.30995 6.6339 6.88191 6.6339C6.45387 6.6339 6.34386 6.708 6.40036 6.40244C6.44678 6.15146 6.41298 4.52162 6.33335 3.47707" stroke="#5B5180" stroke-width="0.666667" stroke-linecap="round"/>
</svg>
