<svg width="16" height="16" viewBox="0 0 16 16" fill="none" xmlns="http://www.w3.org/2000/svg">
<path d="M4.80829 1.95748C4.23292 1.74707 3.02466 1.76811 2.79451 3.53551C2.50683 5.74476 2.79466 11.4256 2.79451 13.0036C2.79442 14.0016 3.08191 14.5817 4.52071 14.8972C5.95915 15.2127 13.279 16.1558 13.1512 13.6348C12.8631 7.95393 14.5896 1.64175 11.1374 1.95735M6.34544 0.960216C7.53836 0.394085 9.98667 0.659727 9.98667 1.64175C9.98667 2.90417 9.98667 3.21983 8.83594 3.21983C7.68521 3.21983 6.53449 3.53543 6.2468 2.90422C5.98265 2.32463 5.96105 1.47887 6.18199 1.10011C6.21901 1.03664 6.27906 0.991718 6.34544 0.960216Z" stroke="#5B5180" stroke-width="0.666667" stroke-linecap="round"/>
<path d="M5.75 9.63345C5.82579 10.1824 6.89273 12.5197 7.37947 11.204C7.96053 9.63345 8.51316 8.0068 11 6.4668" stroke="#5B5180" stroke-width="0.666667" stroke-linecap="round"/>
</svg>
