<svg width="24" height="24" viewBox="0 0 24 24" fill="none" xmlns="http://www.w3.org/2000/svg">
<path d="M6.30494 19.922C6.4701 18.9242 6.66511 17.576 6.66511 16.9102C6.66511 15.8276 15.0801 16.3689 17.0601 16.3689C18.2516 16.3689 18.5842 17.7983 18.6056 19.0442L18.5451 21.0263L18.5001 22.5C18.5001 23.5826 8.64522 22.8647 7.16022 22.8647C6.49396 22.8647 6.2541 22.2229 6.20104 21.5C6.15949 20.9339 6.23248 20.3182 6.30494 19.922ZM6.30494 19.922C6.22815 20.3859 5.87976 20.7386 5.44897 20.7571M18.0501 8.24931C18.3801 6.08409 18.7431 1.6454 17.5551 1.21236C16.0701 0.671052 6.66511 1.21236 6.17011 2.29496C5.77411 3.16105 6.33511 7.34724 6.66511 9.33207M8.50011 20.7571C10.3151 20.5766 13.9911 20.7571 15.5751 20.7571M8.50011 18.5C10.4801 18.1391 14.3871 18.1011 15.5751 18.5341M4.19011 9.33192L3.8665 7.56255C3.76859 7.02717 4.0504 6.49422 4.53473 6.36164C5.06352 6.21689 5.68967 6.08409 6.17011 6.08409M18.3358 5.5C19.1608 5.31957 20.5251 5.21801 20.5251 6.08409V8.24935M7.65511 6.6254C9.80011 6.26453 14.4861 5.65105 16.0701 6.08409M7.65511 3.919C10.1301 3.55813 15.2781 2.94466 16.0701 3.3777" stroke="#5B5180" stroke-linecap="round"/>
<path d="M1.22 9.33188H6.17C8.15 9.33188 15.08 8.24927 18.545 8.24927C22.01 8.24927 23 8.79057 23 10.4145V19.4899M23 19.4899C23 20.1351 22.4871 20.6369 21.9007 20.5657L19.5602 20.2813C19.0047 20.2138 18.616 19.6552 18.6055 19.0442M23 19.4899C23 21.4818 20.03 21.3441 18.545 21.0263L18.6055 19.0442M18.6055 19.0442C18.5841 17.7982 18.2515 16.3688 17.06 16.3688C15.08 16.3688 6.665 15.8275 6.665 16.9101C6.665 17.5759 6.46999 18.9241 6.30483 19.9219M6.30483 19.9219C6.22805 20.3858 5.87965 20.7385 5.44886 20.757C3.86256 20.8252 1.55942 20.56 1.22 19.0754M6.30483 19.9219C6.23237 20.3181 6.15938 20.9339 6.20094 21.5C2.36168 21.5 1.28062 19.8836 1.22 19.0754M1.22 19.0754C0.725 16.9101 1.22 10.9558 1.22 10.4145M20.4295 12.0305C20.4743 12.0235 21.5588 11.8707 21.5136 10.8058C21.5095 10.708 21.4979 10.619 21.4799 10.5383C21.4575 10.4373 21.4249 10.3493 21.3843 10.2734C21.0513 9.65081 20.1757 9.8368 19.8422 10.2734C19.7114 10.4448 19.4372 10.8797 19.5708 11.4232C19.6546 11.7639 19.9263 11.9812 20.21 12.0286C20.2834 12.0409 20.3575 12.0418 20.4295 12.0305Z" stroke="#5B5180" stroke-linecap="round"/>
</svg>
