<svg width="208" height="208" viewBox="0 0 208 208" fill="none" xmlns="http://www.w3.org/2000/svg">
<path d="M29.7329 126.695V48.8778C29.7329 47.9314 29.5476 46.9962 29.4101 46.0602C28.7053 41.2608 31.3826 33.0259 47.0881 29.8387C68.782 25.4361 172.912 21.0335 177.251 38.6438M114.218 136.64C82.0643 137.023 46.9943 138.707 21.0554 139.903C-4.97732 144.305 16.7166 166.319 25.3942 170.721C30.6929 173.41 76.4354 172.815 114.218 171.944" stroke="black" stroke-opacity="0.07" stroke-width="8.65477" stroke-linecap="round"/>
<path d="M158.147 68.6131H169.476M152.482 169.755H175.141M129.822 71.5028C129.822 66.6865 132.654 56.476 143.984 54.1642C158.147 51.2744 194.969 48.3846 197.801 62.8335C200.634 77.2824 197.801 154.55 197.801 156.373C197.801 158.196 197.801 181.314 183.639 181.314H143.984C135.487 181.314 129.822 175.535 129.822 161.086V71.5028Z" stroke="#9683D7" stroke-opacity="0.07" stroke-width="8.65477" stroke-linecap="round"/>
</svg>
