<svg width="191" height="183" viewBox="0 0 191 183" fill="none" xmlns="http://www.w3.org/2000/svg">
<path d="M168.244 11.3786C138.715 5.83434 46.4717 6.94377 19.8958 11.3791M179.317 16.9235C180.953 64.415 183.806 149.022 182.847 175.374M175.083 175.375C163.842 164.559 59.2533 161.854 36.7708 161.854C14.2883 161.854 8.50991 165.317 11.4779 151.038C13.9158 139.31 12.1406 63.1463 7.95831 14.3341" stroke="black" stroke-opacity="0.08" stroke-width="6.91667" stroke-linecap="round"/>
<path d="M89.9562 102.186C91.5632 101.978 130.469 97.4429 128.848 65.8203C128.699 62.9149 128.285 60.2719 127.64 57.8759M89.9562 102.186C111.281 100.955 122.117 93.656 126.966 84.9082M89.9562 102.186C87.3762 102.521 84.7154 102.494 82.0832 102.13M127.64 57.8759C126.833 54.8764 125.666 52.2641 124.209 50.009M127.64 57.8759C130.545 64.9073 132.066 75.7088 126.966 84.9082M124.209 50.009C112.264 31.5215 80.8514 37.0446 68.8896 50.009C64.1959 55.1004 54.3588 68.0125 59.1527 84.1525C62.1577 94.27 71.9071 100.722 82.0832 102.13M124.209 50.009C128.754 55.5881 135.348 68.6533 129.711 80.502M126.966 84.9082C128.094 83.4705 129 81.9959 129.711 80.502M82.0832 102.13C95.5395 104.176 123.904 102.713 129.711 80.502M160.613 144.665L163.506 149.721C166.072 154.207 167.612 159.218 166.986 164.033C166.561 167.298 163.219 169.162 159.786 169.162C163.848 159.929 163.082 150.927 160.613 144.665ZM160.613 144.665C154.344 133.71 141.53 126.79 127.512 126.79H62.2338C48.2165 126.79 35.4022 133.71 29.1335 144.665L27.7137 147.146C25.2878 151.386 23.8746 156.049 23.875 160.65" stroke="#9683D7" stroke-opacity="0.08" stroke-width="6.91667" stroke-linecap="round"/>
</svg>
