<svg width="168" height="168" viewBox="0 0 168 168" fill="none" xmlns="http://www.w3.org/2000/svg">
<path d="M44.1157 160.368H147" stroke="#9683D7" stroke-opacity="0.07" stroke-width="7" stroke-linecap="round"/>
<path d="M21 138.889V159.588C22.3698 162.871 25.5874 159.588 27.4211 158.176L44.116 147.096M59.9547 136.018L24.3966 160.367C22.9749 161.34 21 160.366 21 158.691V113.859M42 94.5L59.9547 59.5M77 56L49 108.5M84 70L66.182 105M58.1068 41.0508L22.2754 110.99C22.1127 111.308 22.4163 111.668 22.7777 111.594C28.1471 110.505 37.3426 111.079 38.085 120.907C38.1094 121.23 38.4882 121.425 38.7766 121.257C43.5046 118.502 51.6034 116.505 51.4279 127.684C51.4223 128.043 51.8642 128.263 52.1633 128.047C56.3466 125.022 63.2488 122.426 63.7856 131.661C63.8113 132.103 64.4737 132.258 64.6771 131.861L100.769 63.167M58.1068 41.0508L62.9519 31.3742M58.1068 41.0508C57.9708 41.3223 58.1848 41.6377 58.499 41.6435C86.3146 42.1643 97.6317 55.5622 99.9086 63.069C100.022 63.4429 100.578 63.5107 100.769 63.167M100.769 63.167L107.472 51.0719M72.3704 13.3178L71.3056 15.3109M72.3704 13.3178C72.5762 12.9412 72.8708 12.525 73.2598 12.0914M72.3704 13.3178C81.7762 13.5833 103.829 17.9527 116.794 33.307M118.981 28.7602C119.014 28.8602 119.004 28.9644 118.956 29.0587L117.514 31.8909M118.981 28.7602C106.67 14.2077 85.7536 9.80496 76.8346 9.42267M118.981 28.7602C118.294 26.7019 117.003 23.9322 115.064 21.0654M64.6971 27.6795L63.7148 29.518C63.5652 29.7979 63.7762 30.1298 64.1042 30.1238C75.9003 29.91 100.009 34.1077 107.523 49.8287C107.676 50.15 108.158 50.1682 108.323 49.8521L109.836 46.9509M64.6971 27.6795C75.3275 26.887 99.2377 29.6317 109.836 46.9509M64.6971 27.6795L66.182 24.9003M109.836 46.9509L110.469 45.737L111.386 43.9355M66.182 24.9003C75.9895 24.3072 98.7608 27.2839 111.386 43.9355M66.182 24.9003L67.9349 21.6196M111.386 43.9355L113.07 40.6248M67.9349 21.6196C76.9201 21.1963 98.5265 24.4047 113.07 40.6248M67.9349 21.6196L69.2676 19.1251M113.07 40.6248L114.508 37.8M69.2676 19.1251C78.7669 18.9334 101.114 22.4 114.508 37.8M69.2676 19.1251L70.2866 17.218M114.508 37.8L115.291 36.2616M71.3056 15.3109C81.1693 15.6227 103.932 19.9417 116.073 34.7232M71.3056 15.3109L70.2866 17.218M116.073 34.7232L115.291 36.2616M116.073 34.7232L116.794 33.307M73.2598 12.0914C83.4329 12.4339 106.526 16.8733 117.514 31.8909M73.2598 12.0914C74.0482 11.2126 75.2242 10.2619 76.8346 9.42267M117.514 31.8909L116.794 33.307M76.8346 9.42267C78.7335 8.43301 81.2362 7.59826 84.4193 7.21888M84.4193 7.21888C87.3635 6.86796 90.8897 6.90664 95.0583 7.57268C104.598 9.09691 111.15 15.2788 115.064 21.0654M84.4193 7.21888C91.0701 8.2259 106.51 12.405 115.064 21.0654M70.2866 17.218C79.3847 16.9864 101.123 20.4708 115.291 36.2616" stroke="black" stroke-opacity="0.07" stroke-width="7" stroke-linecap="round"/>
</svg>
