<svg width="117" height="114" viewBox="0 0 117 114" fill="none" xmlns="http://www.w3.org/2000/svg">
<path d="M112.14 98.2768C112.14 107.717 88.1547 113.652 57.8413 113.652C30.6891 113.652 3.54297 105.983 3.54297 96.5363C3.54297 87.9263 27.528 82.3913 57.8413 82.3913C90.8914 82.3421 112.14 91.4872 112.14 98.2768Z" fill="white"/>
<path d="M60.0231 113.916C45.915 113.972 24.7713 111.905 11.7456 105.921C9.29693 104.903 7.05601 103.444 5.13438 101.616C3.68913 100.122 2.72358 98.4553 2.88963 96.3274C3.07098 94.8615 3.7609 93.5056 4.83918 92.496C16.3458 80.4666 69.1866 77.736 98.147 87.2992C102.624 88.7752 108.793 91.2414 111.603 95.0298C113.387 97.4406 113.319 100.11 111.369 102.465C105.668 109.341 87.7166 112.108 78.8483 113.031C72.5926 113.649 66.3092 113.945 60.0231 113.916ZM54.9432 82.699C44.5989 82.7544 34.2854 83.4124 24.1932 85.528C19.8709 86.3555 15.6545 87.6633 11.6226 89.4271C2.20698 93.7321 2.07783 98.7874 8.72599 102.957C16.2843 107.68 27.791 109.98 36.5855 111.223C49.1198 112.93 61.7986 113.32 74.4141 112.385C83.6391 111.709 96.468 109.925 104.814 105.891C109.918 103.431 114.039 99.8206 110.416 95.3865C108.974 93.7427 107.206 92.4151 105.226 91.4874C92.3722 84.8208 69.1743 82.6129 54.9432 82.699Z" fill="#2B2D3E"/>
<path d="M112.606 97.0963C112.311 97.3915 111.991 97.7113 111.665 97.9819C111.05 98.4555 110.435 98.929 109.777 99.3964C101.333 104.71 86.2284 104.236 84.1005 104.12C83.9523 104.106 83.8098 104.056 83.6862 103.973C83.5626 103.891 83.4618 103.778 83.3932 103.646C82.686 102.17 81.9049 95.442 82.0956 93.6708C82.1509 93.1419 82.2739 92.902 82.8643 92.8467C84.9246 92.656 93.3624 92.287 98.6206 88.6585C98.9775 88.4105 99.3129 88.1327 99.6231 87.8283C101.236 86.456 102.303 84.5511 102.63 82.4593C102.687 82.2596 102.708 82.0514 102.692 81.8443C102.717 81.7083 102.688 81.5677 102.611 81.4527C102.534 81.3378 102.415 81.2575 102.28 81.2293C101.923 81.1678 101.806 81.4692 101.751 81.7644C100.792 84.8394 100.293 85.7926 99.5431 86.6229C99.2841 86.9221 98.9934 87.1922 98.676 87.4285C89.0574 84.2182 80.6073 83.3265 71.8866 82.2318C72.8275 80.5836 74.6602 77.8099 74.7771 77.5701C74.8283 77.5179 74.8677 77.4553 74.8927 77.3866C74.9177 77.3179 74.9276 77.2446 74.9217 77.1717C74.9159 77.0988 74.8945 77.028 74.8589 76.9641C74.8233 76.9002 74.7744 76.8447 74.7156 76.8013C74.4204 76.5676 74.1867 76.746 73.953 76.9797C72.8001 78.6223 71.7545 80.3376 70.8226 82.1149C63.0121 81.5307 63.6763 81.7029 63.7993 81.586C67.4014 75.4542 72.7561 70.5407 79.1743 67.4779C80.9455 66.6538 84.8938 65.842 87.1693 65.6329C88.0488 65.553 87.8766 65.7436 88.3993 66.1618C93.553 70.2085 98.0794 66.9859 99.3156 65.9281C99.4682 65.7784 99.6609 65.676 99.8705 65.6335C100.08 65.5909 100.297 65.61 100.496 65.6883C102.956 66.1618 114.346 71.7153 116.486 82.6869C117.55 88.4248 116.37 93.3633 112.606 97.0963Z" fill="#9683D7"/>
<path d="M98.5054 33.0624C102.755 34.1202 107.46 38.4929 108.241 43.2714C108.708 46.1066 107.398 49.7597 106.058 53.4804C105.043 56.3094 104.114 58.2036 101.808 60.2454C100.719 61.2171 99.0958 61.4262 98.8006 62.4902C98.3885 63.96 99.1511 65.7312 98.9728 65.8542C96.9494 67.238 94.9015 68.1113 92.7797 67.9145C91.5989 67.8099 89.059 66.912 88.4747 66.2048C88.241 65.8542 88.8868 65.0855 89.305 63.548C89.3603 63.2528 85.4182 62.318 84.1082 60.8912C83.0523 59.823 82.2615 58.5222 81.799 57.0932C81.3366 55.6642 81.2154 54.1467 81.4453 52.6625C81.9619 48.7757 83.5363 45.6699 83.8684 38.2592C83.8069 37.1952 86.1685 29.9874 98.5054 33.0624Z" fill="white"/>
<path d="M95.9399 54.3104C95.7378 54.3263 95.5346 54.3022 95.342 54.2393C95.1493 54.1765 94.971 54.0761 94.8173 53.9441C94.6635 53.8121 94.5374 53.651 94.4461 53.47C94.3549 53.2891 94.3003 53.0919 94.2855 52.8898C94.2769 52.4847 94.4261 52.0921 94.7015 51.7949C94.9769 51.4977 95.357 51.3191 95.7615 51.2969C95.9672 51.2706 96.1761 51.2868 96.3752 51.3446C96.5744 51.4024 96.7595 51.5005 96.9191 51.6329C97.0788 51.7652 97.2095 51.929 97.3032 52.1139C97.3969 52.2989 97.4516 52.5012 97.4638 52.7082C97.4761 52.9152 97.4456 53.1225 97.3744 53.3172C97.3032 53.512 97.1927 53.69 97.0498 53.8402C96.9069 53.9905 96.7346 54.1098 96.5437 54.1906C96.3527 54.2715 96.1472 54.3123 95.9399 54.3104Z" fill="white"/>
<path d="M84.5142 49.7658C84.5276 50.1887 84.3748 50.6 84.0886 50.9116C83.8023 51.2232 83.4053 51.4102 82.9828 51.4325C82.6082 51.4583 82.2382 51.3373 81.9512 51.0951C81.6642 50.8529 81.4828 50.5085 81.4453 50.1348C81.4623 49.6962 81.6405 49.2793 81.9458 48.9638C82.251 48.6484 82.6618 48.4566 83.0997 48.4251C83.2837 48.4063 83.4697 48.4275 83.6449 48.4871C83.82 48.5468 83.9802 48.6436 84.1145 48.7709C84.2488 48.8982 84.3541 49.053 84.423 49.2247C84.492 49.3964 84.5231 49.581 84.5142 49.7658Z" fill="white"/>
<path d="M87.3301 55.9035C86.8533 55.3577 86.4746 54.7335 86.2108 54.0585C86.1757 54.0086 86.1509 53.9522 86.1377 53.8926C86.1246 53.833 86.1235 53.7713 86.1343 53.7113C86.1452 53.6512 86.1679 53.5939 86.2011 53.5426C86.2342 53.4914 86.2773 53.4473 86.3276 53.4128C86.4103 53.3385 86.5145 53.2925 86.6251 53.2814C86.7357 53.2704 86.8469 53.2948 86.9426 53.3513C88.3018 54.1754 89.6117 53.7879 90.8971 53.1729C91.1368 53.0747 91.3574 52.9352 91.549 52.7609C91.7827 52.644 92.0225 52.5272 92.2562 52.6994C92.3717 52.7746 92.4617 52.883 92.5144 53.0104C92.5671 53.1377 92.58 53.278 92.5514 53.4128C92.4346 54.6428 91.1923 56.4878 89.8393 56.7768C89.3812 56.8807 88.9032 56.8539 88.4596 56.6995C88.016 56.5452 87.6247 56.2694 87.3301 55.9035ZM91.4629 54.0155C90.2234 54.5703 88.8579 54.7827 87.5084 54.6305C87.6794 54.9657 87.9305 55.2533 88.2396 55.4679C88.5486 55.6825 88.9059 55.8174 89.2796 55.8605C90.2944 55.8174 91.0693 54.7781 91.4813 54.0155H91.4629Z" fill="#2B2D3E"/>
<path d="M90.9465 43.6834C90.9465 46.4017 89.7165 48.1606 87.2873 49.1139C86.9921 49.2307 86.9367 49.3476 87.0536 49.6428C87.1983 50.0479 87.4058 50.4277 87.6686 50.7682C87.8469 51.0019 87.9023 51.2971 87.6071 51.4755C87.5537 51.5163 87.4926 51.5457 87.4274 51.5619C87.3622 51.5782 87.2944 51.5809 87.2282 51.5699C87.1619 51.559 87.0986 51.5346 87.0421 51.4983C86.9857 51.4619 86.9372 51.4144 86.8998 51.3586C86.4191 50.7863 86.1119 50.0886 86.0142 49.3476C85.9836 49.1163 86.0377 48.8818 86.1666 48.6873C86.2955 48.4929 86.4904 48.3517 86.7153 48.2898C91.1741 46.7154 89.7288 42.0291 89.6673 41.74C89.6058 41.451 89.612 41.205 89.9072 41.0881C90.2024 40.9713 90.4361 41.1435 90.5529 41.4448C90.8479 42.1528 90.9823 42.9173 90.9465 43.6834Z" fill="#2B2D3E"/>
<path d="M99.0954 44.2182C99.1537 44.2614 99.202 44.3168 99.237 44.3804C99.272 44.444 99.2928 44.5144 99.298 44.5868C99.3033 44.6592 99.2929 44.7319 99.2674 44.7999C99.242 44.8679 99.2022 44.9296 99.1508 44.9808C98.9171 45.2207 98.6157 45.1038 98.382 44.864C98.042 44.458 97.6029 44.1468 97.1072 43.9604C96.6116 43.774 96.0762 43.7188 95.553 43.8C95.4852 43.8192 95.4141 43.8234 95.3446 43.8124C95.2751 43.8014 95.2087 43.7754 95.1502 43.7362C95.0918 43.697 95.0425 43.6455 95.0058 43.5854C94.9692 43.5253 94.946 43.4579 94.938 43.388C94.9226 43.33 94.9197 43.2695 94.9295 43.2103C94.9392 43.1512 94.9613 43.0947 94.9945 43.0448C95.0276 42.9948 95.0709 42.9524 95.1216 42.9204C95.1723 42.8884 95.2292 42.8675 95.2886 42.8591C95.9864 42.7376 96.7039 42.799 97.371 43.0372C98.0381 43.2754 98.6322 43.6822 99.0954 44.2182Z" fill="#2B2D3E"/>
<path d="M87.5813 42.4473C87.2282 42.3192 86.8529 42.2636 86.4778 42.2836C86.1027 42.3037 85.7355 42.3991 85.398 42.5641C85.109 42.7425 84.783 42.7978 84.6293 42.5026C84.5718 42.3678 84.5644 42.2168 84.6084 42.077C84.6524 41.9372 84.7449 41.8177 84.8691 41.74C85.3259 41.4554 85.8467 41.29 86.3839 41.2588C86.9211 41.2277 87.4576 41.3318 87.9441 41.5617C88.0438 41.6257 88.1202 41.72 88.1623 41.8307C88.2044 41.9414 88.2098 42.0626 88.1779 42.1767C88.129 42.2871 88.0412 42.3758 87.9312 42.4257C87.8211 42.4756 87.6966 42.4833 87.5813 42.4473Z" fill="#2B2D3E"/>
<path d="M85.3996 46.8136C84.9261 46.8136 84.5755 46.4016 84.514 45.8112C84.5071 45.5304 84.6015 45.2566 84.7799 45.0397C84.9583 44.8229 85.2089 44.6776 85.4857 44.6304C86.7526 44.6304 86.5435 46.8136 85.3996 46.8136Z" fill="#2B2D3E"/>
<path d="M96.0818 47.4043C96.3292 47.4276 96.5583 47.5442 96.7228 47.7304C96.8873 47.9166 96.9748 48.1584 96.9674 48.4067C96.9829 48.6997 96.8889 48.9879 96.7036 49.2152C96.5183 49.4426 96.255 49.5929 95.965 49.6367C95.8343 49.6339 95.7058 49.6032 95.5881 49.5467C95.4703 49.4901 95.366 49.409 95.2821 49.3088C95.1982 49.2087 95.1367 49.0917 95.1018 48.9658C95.0668 48.8399 95.0592 48.708 95.0794 48.5789C95.0636 48.2919 95.159 48.0098 95.3456 47.7911C95.5322 47.5724 95.7958 47.4339 96.0818 47.4043Z" fill="#2B2D3E"/>
<path d="M37.9511 65.9958C38.1725 65.9882 38.3903 66.0531 38.5713 66.1808C38.7523 66.3085 38.8866 66.4919 38.9536 66.7031C41.0322 70.8851 46.3336 83.591 47.3914 85.7066C47.4244 85.8027 47.4896 85.8844 47.5758 85.9382C47.662 85.9919 47.7641 86.0144 47.8649 86.0018C52.4098 86.0879 65.6261 86.8259 67.5757 86.9427C68.1046 86.9427 68.4613 87.1211 68.2829 87.3609C67.3973 88.2465 54.9559 93.4064 52.2929 94.4396C51.6753 94.6027 51.0316 94.6424 50.3987 94.5564C45.7985 94.3842 17.3486 93.2465 11.9243 92.9636C11.5621 92.983 11.2045 92.8758 10.9128 92.6603C10.621 92.4449 10.4133 92.1346 10.3253 91.7828C7.31795 83.345 1.18025 66.4079 1.1003 66.3464C0.485302 65.1656 1.04495 64.9995 2.0474 64.9934C4.6058 64.9626 31.9795 65.9343 37.9511 65.9958Z" fill="white"/>
<path d="M2.0664 64.3472C3.2472 64.3472 36.0636 65.1898 38.5974 65.4665C39.071 65.5219 39.2124 65.7679 39.4277 66.1738C40.467 68.5477 45.9036 80.4664 46.6847 82.2314C47.4657 83.9965 48.2775 85.5278 48.5297 85.534C56.4447 85.7123 62.1642 86.2843 68.4803 86.5979C69.8394 86.6656 69.6611 87.4835 69.4274 87.6619C67.8899 88.6028 62.6993 90.7369 59.5874 92.0284C57.9945 92.6803 53.0991 94.8758 52.2689 95.1034C51.5616 95.294 49.1385 95.1034 48.5789 95.1034C47.4596 95.1034 11.5128 93.6335 11.0639 93.5659C10.8621 93.5511 10.6696 93.4756 10.5115 93.3494C10.3535 93.2232 10.2373 93.0521 10.1783 92.8586C9.6186 91.3703 0 65.9339 0 65.1098C0 64.2857 0.70725 64.3472 2.0664 64.3472ZM50.0364 94.0948C50.51 94.1501 50.51 93.9718 50.3316 93.5597C48.5481 89.47 40.59 71.7272 38.3637 66.9979C38.2469 66.758 38.2469 66.5243 37.8902 66.5243C37.2383 66.5243 3.1857 65.4604 1.4145 65.4604C1.06395 65.4604 1.06395 65.5834 1.1808 65.8171C1.4145 66.4321 10.5657 91.2535 10.6826 91.6102C10.7994 91.9669 11.0946 92.4958 11.4513 92.5511C12.7428 92.7479 49.7535 94.0886 50.0487 94.0886L50.0364 94.0948ZM67.0904 87.6619C66.4754 87.6004 50.6268 86.5979 48.9171 86.5979C48.6773 86.5979 48.5543 86.5979 48.6773 86.8931C49.6797 89.224 50.7068 91.5118 51.8076 93.7996C51.9183 94.0333 51.986 94.0333 52.2197 93.9164C53.8863 93.203 66.42 88.1231 67.1027 87.6557L67.0904 87.6619Z" fill="#2B2D3E"/>
<path d="M81.0314 49.1142C80.1685 48.6983 79.4653 48.0116 79.029 47.1589C78.5926 46.3061 78.447 45.3341 78.6145 44.391C78.7678 43.3879 79.2409 42.4611 79.9634 41.7486C80.6859 41.0361 81.6192 40.5759 82.6243 40.4365C83.393 40.4365 81.7387 49.4155 81.0314 49.1142Z" fill="white"/>
<path d="M106.469 49.4091C106.948 48.8249 106.764 48.05 106.647 47.2259C104.907 34.8275 93.7874 32.2814 92.4221 31.7525C91.309 31.3281 90.0605 31.1006 90.0605 30.8054C90.0605 30.5102 92.2499 30.5102 93.0125 30.627C96.9379 31.1746 100.581 32.9758 103.4 35.7623C106.235 38.5974 107.625 41.2973 108.535 45.3809C108.659 46.5576 108.718 47.7401 108.713 48.9233C108.713 49.28 113.018 52.724 109.943 57.1274C108.775 58.7879 106.284 59.5443 104.341 59.4275C103.277 59.366 102.797 59.2553 102.803 58.7202C102.84 56.1987 104.359 52.0475 106.469 49.4091Z" fill="white"/>
<path d="M113.018 41.3831C112.403 33.3881 105.994 31.4693 104.937 31.0511C106.259 30.9618 107.582 31.2271 108.768 31.8199C109.008 31.8814 109.303 31.9367 109.42 31.6415C109.537 31.3463 109.365 31.168 109.125 31.0265C107.726 30.3035 106.143 30.0165 104.58 30.2024C104.285 30.2024 104.051 29.0831 103.873 28.6711C103.756 28.4312 103.639 28.136 103.258 28.2529C102.876 28.3697 103.024 28.6711 103.141 28.9663C103.343 29.3039 103.446 29.692 103.436 30.0856C103.263 29.7783 103.02 29.5153 102.729 29.3168C99.2417 25.6576 93.0487 24.4768 88.5038 26.66C86.4374 27.6071 84.8999 29.12 84.4325 31.4447C83.4774 31.9783 82.6405 32.7001 81.9725 33.5665C80.6933 35.4607 80.6995 38.302 83.0365 39.7165C82.887 39.7198 82.7384 39.7404 82.5937 39.778C81.6221 39.9775 80.7172 40.4209 79.9641 41.0664C79.211 41.7119 78.6345 42.5383 78.2887 43.468C77.9401 44.5453 77.966 45.7089 78.3624 46.7696C78.7588 47.8303 79.5022 48.7257 80.4719 49.3105C80.7109 49.4632 80.997 49.5244 81.2776 49.4827C81.1361 50.1469 81.0008 50.8172 80.884 51.4999C80.3958 54.1215 80.8304 56.8314 82.114 59.1689C82.7213 60.2884 83.5729 61.2567 84.6056 62.0019C85.6384 62.7472 86.8257 63.2503 88.0795 63.4739C88.5469 63.5293 88.6084 63.7076 88.4915 64.0889C88.3499 64.5547 88.1731 65.0091 87.9626 65.4481C87.8753 65.5751 87.8388 65.7303 87.8604 65.8829C87.8821 66.0355 87.9602 66.1744 88.0795 66.2722C91.0868 69.4025 96.7509 69.2857 99.5861 65.977C99.6897 65.8823 99.7577 65.755 99.779 65.6163C99.8002 65.4776 99.7734 65.3357 99.703 65.2144C99.088 64.4456 98.8174 62.3792 99.5861 62.0225C100.871 61.4505 102.042 60.6504 103.042 59.6609C103.649 59.7881 104.27 59.8295 104.887 59.7839C109.137 59.6917 111.142 57.3239 111.437 54.1136C111.542 52.9862 111.284 51.8547 110.699 50.8849C112.476 48.0502 113.289 44.7175 113.018 41.3831ZM80.9147 48.7016C80.558 48.7016 77.6675 46.5184 79.0697 43.1666C79.8385 41.3954 82.4338 40.6267 82.5568 40.805C82.6065 40.9363 82.6255 41.0773 82.6121 41.2171C82.6121 41.3954 82.3169 43.1666 82.2001 43.8124C82.034 44.8087 81.3883 48.7631 80.9147 48.7016ZM102.403 59.089C101.449 60.1328 100.251 60.9232 98.9158 61.3891C97.8518 61.7458 98.2639 64.8146 98.6759 65.3435C98.7295 65.4143 98.7537 65.5032 98.7434 65.5914C98.7331 65.6797 98.6891 65.7605 98.6206 65.8171C97.3713 66.9976 95.7328 67.6796 94.0149 67.734C92.2969 67.7884 90.6186 67.2114 89.2972 66.1123C89.0573 65.8786 89.002 65.7002 89.1188 65.4604C89.2993 65.0713 89.4176 64.6562 89.4694 64.2304C89.4694 63.8737 89.6477 63.8183 90.0044 63.8183C90.8714 63.865 91.741 63.8238 92.5997 63.6953C92.9564 63.64 93.4238 63.64 93.3685 63.0803C93.3131 62.5207 92.8334 62.6129 92.4829 62.6683C89.9429 63.025 87.4645 62.5514 86.3329 61.9057C82.6121 60.0115 81.3145 56.4752 81.7265 52.3424C81.9725 49.2674 83.6392 45.3376 84.0635 40.1777C84.7792 40.4001 85.5222 40.5222 86.2714 40.5406C88.1164 40.6574 92.1139 39.7718 92.1139 39.7718C92.4706 40.7128 94.0019 42.7792 98.4299 42.1888C99.2771 42.0323 100.103 41.7763 100.89 41.4262C100.662 42.1557 100.503 42.9053 100.416 43.6648C100.189 47.0965 101.96 49.9562 104.721 51.1124C103.331 53.9107 102.643 55.7003 102.366 58.8368C102.367 58.9221 102.38 59.0069 102.403 59.089ZM108.122 58.2649C106.768 58.9934 105.208 59.2427 103.694 58.9721C103.344 58.9106 103.221 58.7938 103.282 58.4371C103.628 55.2837 104.787 52.2742 106.646 49.7041C107.029 49.0879 107.176 48.3536 107.058 47.6377C107.003 44.6242 105.828 42.1519 104.229 39.6427C100.687 33.7387 93.307 31.6477 91.4804 31.0327C90.478 30.676 94.783 31.088 96.9109 31.8568C102.87 34.3967 106.751 38.9416 108.061 45.313C108.645 48.4187 107.821 48.8984 108.83 49.741C109.485 50.2713 110.001 50.9539 110.333 51.7294C110.664 52.5049 110.801 53.3496 110.731 54.1901C110.662 55.0305 110.387 55.8411 109.933 56.5514C109.478 57.2616 108.856 57.8498 108.122 58.2649Z" fill="#2B2D3E"/>
<path d="M23.3699 79.212C23.3699 80.276 22.7549 81.1616 21.6602 81.1616C21.1291 81.1716 20.6153 80.9731 20.229 80.6086C19.8426 80.2442 19.6146 79.7428 19.5938 79.212C19.5937 76.6044 23.3699 76.7951 23.3699 79.212Z" fill="#8675C0"/>
<path d="M49.1999 104.771C49.1643 105.133 48.9955 105.468 48.7263 105.712C45.3623 108.664 38.4374 108.043 35.7437 106.069C35.0241 105.546 34.5137 105.066 34.5137 104.119V93.6643C34.5137 90.0235 46.5615 90.0912 48.794 92.8402C49.0914 93.2711 49.2185 93.797 49.1507 94.3162C49.163 96.2104 49.1999 103 49.1999 104.771Z" fill="white"/>
<path d="M49.574 104.772C49.572 104.963 49.5286 105.152 49.4468 105.325C49.3651 105.498 49.247 105.651 49.1005 105.774C47.4228 107.215 45.2967 108.028 43.0858 108.074C40.6258 108.166 36.1178 107.717 34.3466 105.067C34.2031 104.589 34.1428 104.089 34.1683 103.591C34.1683 102.465 34.1683 102.459 33.1105 102.115C29.728 101.02 29.0699 97.8097 31.3393 96.0939C32.0263 95.6117 32.812 95.2882 33.6394 95.1468C34.0514 95.0914 34.2544 94.9131 34.1683 94.501V92.8467C34.1683 91.9057 36.7697 90.073 41.5483 90.2514C48.098 90.4912 49.3649 92.1394 49.3957 94.1443C49.4264 95.7987 49.5433 102.822 49.574 104.772ZM35.2937 93.1419C35.2937 93.2034 35.2322 93.2034 35.2322 93.2587C35.2322 96.9795 35.1769 100.694 35.1769 104.329C35.1732 104.467 35.2031 104.604 35.2642 104.729C35.3253 104.853 35.4156 104.961 35.5274 105.042C36.802 106.059 38.336 106.698 39.9554 106.887C42.8398 107.391 45.6442 107.152 48.098 105.233C48.2521 105.137 48.3782 105.003 48.4636 104.843C48.5489 104.683 48.5904 104.504 48.5839 104.323C48.5839 100.842 48.5224 97.3546 48.5224 93.8676C48.5224 93.3387 48.2887 93.517 47.9935 93.5724C43.9774 94.9541 39.5951 94.8229 35.6689 93.2034C35.6169 93.1618 35.5551 93.1342 35.4894 93.1235C35.4237 93.1127 35.3563 93.119 35.2937 93.1419ZM34.2298 96.3891C34.2298 95.977 32.2741 96.5613 31.6345 97.2747C31.4003 97.4978 31.2322 97.7812 31.1487 98.0937C31.0651 98.4062 31.0694 98.7357 31.1609 99.0459C31.6222 100.817 34.2359 101.346 34.2359 100.934C34.1683 100.227 34.2298 97.1578 34.2298 96.3891Z" fill="#2B2D3E"/>
<path d="M75.1287 94.2055C74.9565 93.5905 72.1828 91.9607 71.943 91.6655C71.7646 91.4872 70.8114 90.3433 72.4165 90.8414C72.8286 90.9706 78.3144 93.0923 80.799 93.6151C82.2135 93.9164 82.2873 94.144 82.152 95.5031C81.8875 98.2214 82.8654 102.41 82.767 102.465C81.0019 103.695 78.4619 104.236 76.334 104.648C70.2578 105.835 65.178 102.594 64.8274 102.41C62.2075 101.038 65.3009 101.45 66.125 101.579C67.1336 101.745 69.6059 102.465 70.2578 102.526C70.4362 102.526 70.7314 101.875 70.3747 101.758C68.013 101.099 65.7651 100.085 63.7081 98.7503C63.0931 98.3506 61.5187 96.4564 64.237 97.7479C66.3896 98.8155 68.6602 99.6267 71.002 100.165C71.1742 100.226 71.6539 99.3284 71.0574 99.1624C70.1226 98.9041 65.2149 97.2128 63.1485 95.2079C61.2051 93.3199 63.5052 94.144 63.7635 94.2608C65.301 95.0296 68.9479 96.8438 71.1435 97.3912C71.9061 97.5818 72.3181 96.3395 71.1435 95.9767C69.2985 95.4047 65.301 93.0185 65.1226 92.8463C63.6774 91.4564 65.3009 91.9054 65.5346 91.9607C71.5309 94.144 75.1287 94.3838 75.1287 94.2055Z" fill="white"/>
<path d="M73.5962 93.7936C73.1227 93.4369 72.7106 93.0863 72.2986 92.7911C71.8963 92.4442 71.5201 92.068 71.1731 91.6657C69.6418 89.4824 72.7106 90.5464 73.1842 90.6632C75.7795 91.4873 78.2518 92.5082 80.8532 93.2585C82.7413 93.8059 82.3292 93.7936 82.3292 95.3864C82.3511 97.5137 82.6089 99.632 83.098 101.702C83.2148 102.231 83.2763 102.643 82.7413 103C78.0242 105.712 73.6639 105.86 68.873 104.845C67.4585 104.544 64.9616 103.615 63.7378 102.428C63.0797 101.813 62.0342 100.516 64.568 100.952C72.0341 102.238 64.8817 101.506 62.3233 98.2954C61.8005 97.6373 61.1302 96.3827 62.7968 96.9362C63.7316 97.2499 67.9874 98.9473 68.9899 99.2425C66.8574 98.3759 64.8526 97.2235 63.0305 95.8169C61.4377 94.6361 60.7243 92.459 63.8608 93.812C66.3208 94.876 68.1043 95.8784 70.5889 96.9362C70.7057 96.9362 71.167 97.1699 71.2039 96.8809C71.2408 96.5918 71.1424 96.5857 70.9702 96.4688C70.5581 96.3458 70.1461 96.1675 69.7402 95.9953C67.8029 95.1958 64.6541 93.5845 63.7808 92.4529C63.6025 92.2192 62.5939 91.0015 64.4266 91.3889C65.0416 91.5181 65.6135 91.7333 66.2716 91.924C68.584 92.5943 70.8164 93.3385 73.178 93.812C73.2454 93.8372 73.3172 93.8486 73.389 93.8454C73.4609 93.8422 73.5313 93.8246 73.5962 93.7936ZM63.2089 98.0986C63.8239 99.0395 68.461 100.989 70.4659 101.524C70.8226 101.579 71.1178 101.819 71.0009 102.41C70.8779 103.474 69.9985 102.976 68.9899 102.76C67.9813 102.545 63.6086 101.303 64.3282 101.875C66.0748 103.271 68.873 103.941 70.4105 104.236C74.1527 105.07 78.0701 104.527 81.4436 102.705C81.622 102.588 82.3846 102.293 82.1509 101.579C81.6158 99.9313 81.5051 97.3913 81.5051 94.9744C81.5051 94.5562 81.1484 94.507 80.7979 94.3594C80.3182 94.1872 77.483 93.32 76.5482 92.9387C69.6848 90.1651 73.5839 92.7173 74.242 93.1786C74.5925 93.4184 75.0169 93.646 75.3674 93.8858C76.9726 94.9867 75.1276 95.1158 73.6577 95.0051C71.0563 94.7837 64.6172 92.1208 64.9186 92.5882C65.2199 93.0556 69.6418 94.9498 71.6467 95.8354C72.1202 96.0076 72.0034 96.7763 71.9419 97.133C71.7635 97.748 71.4745 98.1293 70.8226 98.0186C68.3626 97.5881 61.9604 93.7751 62.8276 94.6546C65.103 96.8259 67.9157 98.3521 70.9763 99.0764C71.4991 99.3286 71.3822 99.55 71.3269 99.962C71.2039 100.909 70.7918 100.86 70.3244 100.731C67.9751 100.103 62.7968 97.4467 63.2089 98.0986Z" fill="#2B2D3E"/>
<path d="M38.3633 19.9014C44.4395 20.0183 50.4603 20.3135 56.5427 20.6087C55.9646 20.375 55.3496 20.0675 54.7715 19.8399C54.7058 19.8227 54.6446 19.7917 54.5918 19.7491C54.539 19.7065 54.4959 19.6531 54.4652 19.5926C54.4345 19.532 54.4171 19.4657 54.414 19.3979C54.4109 19.3301 54.4222 19.2624 54.4471 19.1993C54.4721 19.1362 54.5102 19.0792 54.5589 19.0319C54.6075 18.9846 54.6657 18.9482 54.7295 18.925C54.7932 18.9018 54.8612 18.8925 54.9289 18.8975C54.9965 18.9026 55.0624 18.9219 55.122 18.9543C56.4258 19.4094 59.3717 20.6087 59.55 20.7255C60.0174 21.0269 60.0789 21.4328 59.6669 21.7894C59.4885 21.9063 57.0654 23.1917 56.0691 23.6775C56.01 23.7143 55.9437 23.7381 55.8747 23.7474C55.8057 23.7567 55.7355 23.7512 55.6688 23.7314C55.602 23.7115 55.5403 23.6777 55.4875 23.6322C55.4348 23.5867 55.3924 23.5305 55.363 23.4674C55.3336 23.4042 55.318 23.3356 55.3171 23.2659C55.3163 23.1963 55.3302 23.1273 55.358 23.0634C55.3858 22.9996 55.4268 22.9424 55.4784 22.8956C55.5299 22.8488 55.5908 22.8134 55.6571 22.7919C56.2721 22.4352 56.9547 22.14 57.662 21.7894C56.6595 21.5496 36.8258 20.9039 36.752 21.0207C36.6782 21.1376 36.6597 24.2064 36.629 25.5655C36.629 25.9223 36.5736 26.2175 36.1616 26.2175C35.7495 26.2175 35.688 25.8608 35.688 25.5041C35.688 24.1511 35.8049 21.0822 35.7495 20.9654C35.6942 20.8485 18.6894 21.3159 18.3389 21.3774C17.9883 21.4389 17.7239 21.3159 17.687 20.9654C17.6501 20.6148 17.9207 20.4303 18.302 20.4303C19.1876 20.375 30.1653 19.9014 34.7655 19.9014C35.1222 19.9014 35.0054 19.7846 34.9439 19.7846C32.3486 18.4254 30.8849 16.1807 30.0239 13.4685C29.193 10.6525 28.7949 7.72651 28.8431 4.79085C28.8984 4.0221 29.7779 4.13895 29.784 4.79085C29.7776 7.46046 30.1418 10.118 30.8664 12.6875C31.5122 14.8707 32.4962 16.9125 34.4088 18.2225C34.8495 18.5317 35.3241 18.7897 35.8233 18.9912C35.8848 18.9297 36.0263 13.1487 36.1185 10.3812C36.2046 7.77975 36.18 5.1291 36.18 2.52765C36.18 1.91265 35.2944 3.5916 34.8824 4.29885C34.5257 4.8339 33.8184 4.4157 34.1136 3.8253C34.6581 2.6461 35.3107 1.51992 36.0632 0.46125C36.5183 -0.15375 36.7643 -0.15375 37.1825 0.46125C38.1111 1.88805 38.64 2.92125 39.3657 4.29885C39.3964 4.35329 39.4157 4.41341 39.4224 4.47553C39.4292 4.53766 39.4232 4.60051 39.4049 4.66027C39.3866 4.72002 39.3564 4.77544 39.316 4.82315C39.2757 4.87087 39.226 4.90988 39.1701 4.93783C39.1142 4.96577 39.0533 4.98207 38.9909 4.98573C38.9285 4.98939 38.866 4.98033 38.8072 4.95911C38.7484 4.93789 38.6946 4.90495 38.6489 4.86228C38.6033 4.81961 38.5668 4.76811 38.5416 4.7109C38.1849 3.9483 37.1148 1.5867 37.121 2.52765C37.1825 7.7859 36.8258 18.9974 36.8873 19.1327C36.9426 19.3664 39.0705 18.7821 40.7249 16.1807C42.8589 12.8166 43.5354 8.6838 43.437 4.72935C43.437 3.7884 44.3903 3.90525 44.4395 4.674C44.7716 9.5079 43.8245 13.6469 41.0754 17.423C40.3449 18.421 39.4229 19.2636 38.3633 19.9014Z" fill="#2B2D3E"/>
<path d="M13.6906 43.9234C15.757 43.8004 21.249 43.6835 22.725 43.6835C23.0755 43.6835 23.5491 43.6282 23.5491 44.0956C23.5491 44.563 23.0755 44.4523 22.7803 44.4523C20.5417 44.4523 13.5553 44.686 13.3954 44.809C12.0978 45.5716 9.20727 47.2259 9.14577 47.269C8.85057 47.3858 8.50002 47.7364 8.26632 47.269C8.14332 46.9738 8.56152 46.7954 8.79522 46.6171C10.0929 45.8483 11.7472 44.8459 13.0449 44.1571C13.1002 44.1571 13.0756 40.793 13.1002 34.0034C13.1002 33.7082 12.9834 33.2962 13.4569 33.2408C13.9305 33.1855 13.8136 33.6529 13.8136 33.9481C13.7521 41.3219 13.6353 43.9234 13.6906 43.9234Z" fill="#8675C0"/>
<path d="M8.43826 48.1729C8.23643 48.1682 8.04429 48.0855 7.90211 47.9422C7.75994 47.7988 7.67878 47.606 7.67566 47.4042C7.61416 47.109 7.46656 40.4977 7.43581 37.4289C7.41057 37.1566 7.46375 36.8828 7.58906 36.6398C7.71438 36.3968 7.90661 36.1947 8.14306 36.0574C9.55141 35.1534 10.9352 34.2555 12.2759 33.2838C12.7475 32.9632 13.299 32.7801 13.8687 32.7549C16.7592 32.638 19.6559 32.5827 22.5464 32.7549C23.6103 32.8164 23.9732 33.1054 23.9609 34.1694C23.9301 37.2874 23.9855 40.3624 23.9855 43.5051C24.0069 43.8002 23.9534 44.096 23.8297 44.3648C23.706 44.6337 23.5163 44.8668 23.2782 45.0426C22.2758 45.9282 21.3533 46.8322 20.3877 47.6994C20.011 48.0237 19.5252 48.193 19.0286 48.1729C17.2943 48.2898 10.271 48.2898 8.43826 48.1729ZM8.38291 37.6072C8.41366 40.6146 8.43826 47.2873 8.61661 47.2873C11.6301 47.2873 15.6953 47.3427 18.7088 47.2873C18.9425 47.2873 18.7088 39.1386 18.7088 37.6072C18.6534 37.2874 8.37676 37.2505 8.38291 37.6072ZM19.7112 47.0475C20.0064 46.8691 23.0199 44.3907 22.9584 43.9725C22.8969 41.082 22.9584 34.6491 22.8416 34.5876C21.6841 35.4031 20.5791 36.2904 19.5329 37.2444C19.5636 40.3624 19.5944 46.8691 19.7112 47.0475ZM9.25621 36.3649C9.25621 36.4264 16.1012 36.3096 18.9363 36.4818C20.2304 35.6417 21.4523 34.6955 22.5894 33.6528C19.6989 33.4744 13.4444 33.6528 13.3644 33.7081C12.159 34.4215 10.3878 35.5962 9.26851 36.3649H9.25621Z" fill="#2B2D3E"/>
<path d="M54.4152 42.6808C54.203 42.775 53.974 42.8253 53.7419 42.8288C53.5098 42.8322 53.2794 42.7886 53.0645 42.7007C52.8497 42.6128 52.6548 42.4824 52.4917 42.3173C52.3285 42.1522 52.2004 41.9558 52.1151 41.7399C52.0536 41.5 51.8752 40.8543 51.8199 40.5099C51.7584 40.2762 51.703 39.8088 52.1151 39.7411C52.5271 39.6735 52.644 39.8027 52.644 40.2147C52.644 40.6268 52.8223 41.8075 53.6464 41.8075C54.2614 41.8075 54.409 40.7436 54.4767 40.3931C54.5443 40.0425 54.5935 39.7781 55.0056 39.7781C55.4176 39.7781 55.4791 40.1286 55.4791 40.4238C55.4973 41.6502 55.3985 42.8755 55.1839 44.0831C54.8272 45.2639 54.12 46.0941 52.3488 45.9281C52.233 45.9157 52.1262 45.86 52.0498 45.7722C51.9734 45.6843 51.933 45.5709 51.9367 45.4545C51.9367 45.1593 52.0536 44.9809 52.3488 44.9809C53.2344 44.9809 54.2368 44.9809 54.4152 42.976V42.6808Z" fill="#8675C0"/>
<path d="M42.4957 43.333C42.139 43.8004 41.8807 44.2186 41.5486 44.6307C41.3764 44.8644 41.1366 45.1042 40.7799 44.8643C40.4232 44.6245 40.5462 44.3355 40.7245 44.0403C41.0197 43.6282 41.7823 42.5028 41.7823 42.5028C41.7823 42.5028 41.0751 41.322 40.8414 40.8546C40.663 40.5594 40.4847 40.2026 40.8414 39.9689C41.1981 39.7352 41.4564 40.0243 41.6101 40.3195C41.8391 40.7112 42.0938 41.0871 42.3727 41.445C42.3727 41.445 43.3752 40.2641 43.7319 39.7906C43.9102 39.5507 44.1439 39.317 44.5006 39.5507C44.8573 39.7844 44.7343 40.0858 44.556 40.381C44.1439 40.996 43.1415 42.3244 43.1415 42.3244C43.1415 42.3244 43.9164 43.6836 44.2054 44.1694C44.3838 44.4646 44.4391 44.7844 44.1439 44.9382C43.695 45.1965 43.4367 44.7475 42.4957 43.333Z" fill="#8675C0"/>
<path d="M47.4529 40.498C47.445 40.4391 47.4498 40.3792 47.4669 40.3224C47.4839 40.2655 47.5129 40.2129 47.5519 40.1681C47.5909 40.1233 47.639 40.0873 47.6929 40.0625C47.7469 40.0378 47.8056 40.0248 47.8649 40.0244C48.1601 40.0244 48.2831 40.1413 48.3385 40.4365C48.3835 40.9271 48.402 41.4198 48.3938 41.9125C48.8853 41.9442 49.3783 41.9442 49.8698 41.9125C49.9334 41.9068 49.9975 41.9152 50.0575 41.937C50.1175 41.9588 50.172 41.9935 50.2172 42.0386C50.2624 42.0838 50.2971 42.1383 50.3189 42.1983C50.3407 42.2583 50.349 42.3224 50.3434 42.386C50.3434 42.6812 50.165 42.7981 49.8698 42.7981C49.3974 42.7789 48.9243 42.7995 48.4553 42.8596V44.0527C48.4553 44.3479 48.3938 44.5816 47.9818 44.5816C47.5697 44.5816 47.5082 44.231 47.5082 43.9666V42.8596C47.5082 42.7427 46.3889 42.7981 46.2782 42.7427C45.983 42.6812 45.8047 42.5644 45.8047 42.2692C45.8047 41.974 46.0384 41.9125 46.2782 41.8571C46.3951 41.8571 47.5082 41.9125 47.5082 41.7956C47.4593 41.3649 47.4408 40.9313 47.4529 40.498Z" fill="#2B2D3E"/>
<path d="M60.6705 43.2711C60.9657 43.2711 61.3778 43.3326 61.3778 43.7447C61.3778 44.1567 61.0272 44.1567 60.6705 44.1567C59.7296 44.0952 58.8255 44.0952 57.8969 44.0399C57.6017 44.0399 57.368 43.9784 57.2819 43.6278C57.1958 43.2773 57.5771 43.1543 57.8969 43.1543C58.2167 43.1543 60.0248 43.2096 60.6705 43.2711Z" fill="#2B2D3E"/>
<path d="M57.8964 42.2689C57.6012 42.2689 57.4229 42.2074 57.3675 41.8568C57.3122 41.5063 57.5459 41.3833 57.8411 41.3833C58.8435 41.3218 59.846 41.3218 60.8484 41.3218C60.9066 41.3258 60.9634 41.3413 61.0155 41.3673C61.0677 41.3932 61.1143 41.4292 61.1525 41.4732C61.1908 41.5172 61.22 41.5683 61.2385 41.6235C61.2571 41.6788 61.2645 41.7372 61.2605 41.7953C61.2564 41.8535 61.241 41.9103 61.215 41.9624C61.189 42.0146 61.153 42.0612 61.1091 42.0994C61.0651 42.1377 61.014 42.1669 60.9587 42.1854C60.9035 42.204 60.8451 42.2114 60.7869 42.2074C60.3195 42.2689 58.37 42.2689 57.8964 42.2689Z" fill="#2B2D3E"/>
<path d="M43.4982 20.0183C43.4982 20.3135 43.4367 20.5472 43.0861 20.4919C42.7356 20.4365 42.6618 20.252 42.6679 19.9568C42.6987 18.4255 42.9631 12.3431 42.9631 10.9901C42.9631 10.8671 36.7086 10.7503 36.5302 10.7503C36.4908 10.753 36.4512 10.7472 36.4141 10.7334C36.3771 10.7195 36.3434 10.6979 36.3154 10.6699C36.2875 10.6419 36.2658 10.6083 36.2519 10.5712C36.2381 10.5341 36.2323 10.4945 36.235 10.4551C36.235 10.2829 36.3519 10.2214 36.4749 10.1599C36.5979 10.0984 43.7934 10.1599 43.7934 10.3382C43.8487 10.6949 43.4982 18.1303 43.4982 20.0183Z" fill="#8675C0"/>
</svg>
