<svg width="147" height="115" viewBox="0 0 147 115" fill="none" xmlns="http://www.w3.org/2000/svg">
<path d="M77.8794 105.599C77.8794 105.599 120.759 105.999 122.229 105.599C123.698 105.199 135.309 107.576 135.716 95.7042C136.116 83.9783 135.901 34.428 135.716 32.6121C135.532 30.7963 135.786 20.1168 121.197 20.1553C107.125 20.1553 29.9371 19.9937 21.8737 20.1553C11.3173 20.3554 8.86285 22.9406 8.7936 33.7893C8.72436 44.6381 8.50123 74.0298 8.50123 74.0298C7.46382 74.3843 6.53133 74.9923 5.78833 75.7984C5.04533 76.6046 4.51531 77.5834 4.24636 78.6463C3.75393 80.4852 6.24684 98.8742 8.64742 105.576C9.41683 107.622 13.1023 109.623 19.1115 108.369C29.2293 106.253 41.8862 104.522 41.8862 104.522C42.0323 105.768 43.0249 105.645 44.2713 105.645L77.8794 105.599Z" fill="white"/>
<path d="M136.155 35.2587C136.155 30.2729 136.155 19.7935 121.79 19.7935H21.9432C16.665 19.7935 8.6785 19.7165 8.60156 30.9346V48.2003C8.61574 48.3076 8.66843 48.4061 8.74982 48.4774C8.83121 48.5487 8.93575 48.5881 9.04398 48.5881C9.15221 48.5881 9.25674 48.5487 9.33813 48.4774C9.41952 48.4061 9.47221 48.3076 9.48639 48.2003C9.48639 48.1233 9.3402 43.5069 9.48639 33.9045C14.6184 33.9045 66 33.6122 135.424 33.0967C135.424 33.9046 135.494 90.6412 135.494 93.942C135.494 97.8968 134.609 100.682 132.785 102.406C129.708 105.399 124.429 105.306 118.782 105.268L78.3491 105.137C77.872 105.137 77.6412 106.183 78.3491 106.183L121.744 106.26C126.438 106.26 130.631 105.906 133.401 103.183C135.394 101.221 136.478 98.2046 136.401 94.0959C136.34 90.5181 136.155 44.207 136.155 35.2587ZM9.40945 32.9505V30.8961C9.44792 26.2796 10.8713 23.3328 13.7336 21.8093C16.2265 20.4783 19.3811 20.5629 21.9432 20.5629H121.79C132.931 20.5629 134.909 27.0106 135.278 32.1426C65.9307 32.6966 14.5415 32.912 9.40945 32.9889V32.9505Z" fill="#9683D7"/>
<path d="M112.403 25.441C112.296 25.4268 112.198 25.3741 112.126 25.2927C112.055 25.2113 112.016 25.1068 112.016 24.9986C112.016 24.8904 112.055 24.7858 112.126 24.7044C112.198 24.623 112.296 24.5703 112.403 24.5562C112.48 24.5562 119.143 24.4869 126.622 24.5562C126.685 24.5478 126.749 24.5531 126.81 24.5715C126.871 24.5899 126.927 24.6211 126.975 24.663C127.023 24.7049 127.061 24.7565 127.087 24.8144C127.113 24.8722 127.127 24.935 127.127 24.9986C127.127 25.0621 127.113 25.1249 127.087 25.1828C127.061 25.2407 127.023 25.2923 126.975 25.3342C126.927 25.3761 126.871 25.4073 126.81 25.4257C126.749 25.4441 126.685 25.4493 126.622 25.441C119.143 25.3641 112.403 25.441 112.403 25.441Z" fill="#9683D7"/>
<path d="M112.403 29.4727C112.296 29.4586 112.198 29.4059 112.126 29.3245C112.055 29.2431 112.016 29.1385 112.016 29.0303C112.016 28.9221 112.055 28.8176 112.126 28.7362C112.198 28.6548 112.296 28.6021 112.403 28.5879C112.48 28.5879 119.143 28.5187 126.622 28.5879C126.685 28.5796 126.749 28.5848 126.81 28.6032C126.871 28.6216 126.927 28.6528 126.975 28.6947C127.023 28.7366 127.061 28.7882 127.087 28.8461C127.113 28.904 127.127 28.9668 127.127 29.0303C127.127 29.0939 127.113 29.1567 127.087 29.2145C127.061 29.2724 127.023 29.324 126.975 29.3659C126.927 29.4078 126.871 29.439 126.81 29.4574C126.749 29.4758 126.685 29.4811 126.622 29.4727C119.143 29.3958 112.403 29.4727 112.403 29.4727Z" fill="#9683D7"/>
<path d="M112.403 27.4875C112.287 27.4875 112.176 27.4413 112.093 27.3591C112.011 27.2768 111.965 27.1652 111.965 27.0489C111.965 26.9326 112.011 26.8211 112.093 26.7388C112.176 26.6566 112.287 26.6104 112.403 26.6104C112.48 26.6104 119.143 26.5334 126.622 26.6104C126.737 26.6174 126.845 26.6657 126.927 26.7463C127.009 26.8268 127.059 26.9343 127.068 27.0489C127.061 27.1641 127.011 27.2725 126.929 27.3534C126.847 27.4343 126.738 27.4821 126.622 27.4875C119.143 27.3798 112.403 27.4875 112.403 27.4875Z" fill="#9683D7"/>
<path d="M19.8189 26.7572C19.8111 27.0465 19.6927 27.3219 19.488 27.5266C19.2833 27.7313 19.0079 27.8497 18.7186 27.8574C18.4063 27.8475 18.1099 27.7169 17.8918 27.4931C17.6738 27.2693 17.5509 26.9696 17.5491 26.6572C17.5459 26.5118 17.5722 26.3673 17.6264 26.2324C17.6806 26.0975 17.7615 25.9749 17.8643 25.8721C17.9671 25.7693 18.0897 25.6884 18.2246 25.6342C18.3595 25.5801 18.504 25.5537 18.6493 25.5569C18.958 25.5775 19.2481 25.7115 19.464 25.933C19.6799 26.1546 19.8063 26.4481 19.8189 26.7572Z" fill="#9683D7"/>
<path d="M25.3889 26.7569C25.3811 27.0463 25.2627 27.3216 25.0581 27.5263C24.8534 27.731 24.578 27.8494 24.2887 27.8572C23.9763 27.8472 23.68 27.7166 23.4619 27.4928C23.2438 27.269 23.121 26.9694 23.1191 26.6569C23.1212 26.3739 23.2345 26.103 23.4346 25.9029C23.6347 25.7027 23.9056 25.5894 24.1886 25.5874C24.4977 25.6 24.7912 25.7264 25.0128 25.9423C25.2343 26.1581 25.3683 26.4483 25.3889 26.7569Z" fill="#9683D7"/>
<path d="M30.813 26.7572C30.8052 27.0465 30.6868 27.3219 30.4821 27.5266C30.2775 27.7313 30.0021 27.8497 29.7127 27.8574C29.4004 27.8475 29.1041 27.7169 28.886 27.4931C28.6679 27.2693 28.5451 26.9696 28.5432 26.6572C28.5401 26.5118 28.5664 26.3673 28.6206 26.2324C28.6747 26.0975 28.7557 25.9749 28.8585 25.8721C28.9613 25.7693 29.0838 25.6884 29.2187 25.6342C29.3536 25.5801 29.4981 25.5537 29.6435 25.5569C29.9521 25.5775 30.2423 25.7115 30.4581 25.933C30.674 26.1546 30.8004 26.4481 30.813 26.7572Z" fill="#9683D7"/>
<path d="M52.3187 69.1517C37.8614 68.3131 25.5969 70.1212 12.363 72.7141C7.51564 73.6605 3.99942 74.253 4.1533 81.0854C4.29179 87.1099 6.80778 100.844 7.85419 103.975C9.06217 107.584 10.9318 109.538 16.9256 108.984C23.9734 108.33 43.8551 104.468 44.0167 104.429C44.0715 104.42 44.1239 104.4 44.1706 104.37C44.2173 104.34 44.2574 104.301 44.2883 104.255C44.3193 104.208 44.3406 104.157 44.3507 104.102C44.3609 104.047 44.3598 103.991 44.3476 103.937C44.3252 103.828 44.2611 103.733 44.169 103.671C44.0769 103.609 43.9642 103.586 43.8551 103.606C43.6551 103.645 23.8503 107.499 16.8487 108.146C15.2 108.382 13.5192 108.243 11.9321 107.738C13.2632 105.345 19.7878 93.8192 24.0427 89.3874C27.1203 90.9262 31.8446 92.9805 35.3223 92.7112C41.1391 92.2573 49.318 75.3071 49.6642 74.5838C49.7119 74.4848 49.7185 74.3709 49.6825 74.2671C49.6464 74.1633 49.5707 74.078 49.4719 74.0298C49.4225 74.005 49.3686 73.9903 49.3134 73.9865C49.2583 73.9827 49.2029 73.99 49.1506 74.008C49.0983 74.0259 49.0501 74.0541 49.0088 74.0908C48.9675 74.1276 48.934 74.1723 48.9102 74.2222C48.8256 74.3992 40.5928 91.4571 35.2531 91.8726C28.0513 92.4342 12.94 82.101 5.85371 76.4843C7.01552 74.5684 9.29299 74.1222 12.5168 73.5297C26.8203 70.8829 36.6842 69.0748 52.2725 69.975C52.3271 69.9781 52.3818 69.9704 52.4334 69.9524C52.485 69.9344 52.5325 69.9063 52.5733 69.8698C52.614 69.8334 52.6472 69.7893 52.6708 69.74C52.6945 69.6907 52.7082 69.6372 52.7111 69.5826C52.7142 69.5284 52.7065 69.4742 52.6883 69.423C52.6702 69.3718 52.642 69.3248 52.6055 69.2847C52.5689 69.2446 52.5247 69.2121 52.4755 69.1893C52.4263 69.1665 52.3729 69.1537 52.3187 69.1517ZM23.2656 88.9796C18.8491 93.7038 12.4399 105.076 11.1627 107.376C9.57768 106.476 9.10833 105.068 8.56205 103.437C7.8311 101.267 5.13815 87.5946 4.99196 81.0623C4.90956 79.7754 5.07677 78.4848 5.48439 77.2614C7.0463 78.4924 15.2406 84.817 23.2656 88.9796Z" fill="#9683D7"/>
<path d="M5.0157 73.8222C19.4 69.5544 34.3655 67.5733 49.3648 67.9516C49.962 67.2342 50.5964 66.5484 51.2653 65.8973C51.2653 65.8973 22.5276 47.0081 18.6497 45.3C15.3413 43.8535 13.4177 46.0233 12.4175 47.6083C11.6481 48.7701 1.34559 62.9966 0.537699 66.2281C-0.270187 69.4597 1.34559 71.3986 5.0157 73.8222Z" fill="#9683D7"/>
<path d="M25.2049 69.0822C23.3429 66.774 16.1951 47.9849 15.1563 45.2304C15.1367 45.1783 15.107 45.1306 15.0689 45.09C15.0308 45.0494 14.985 45.0168 14.9343 44.9939C14.8835 44.971 14.8288 44.9584 14.7731 44.9567C14.7175 44.9551 14.6621 44.9644 14.6101 44.9841C14.559 45.0037 14.5122 45.0332 14.4725 45.0709C14.4329 45.1086 14.401 45.1538 14.3789 45.2039C14.3567 45.2539 14.3446 45.3079 14.3434 45.3626C14.3421 45.4173 14.3517 45.4717 14.3715 45.5227C14.5947 46.1229 18.2648 55.8406 21.2347 62.8192C15.2333 63.3963 1.74544 67.8204 0.460513 68.0512C0.391108 68.0437 0.320915 68.0537 0.256418 68.0804C0.19192 68.1072 0.135199 68.1497 0.0914914 68.2042C0.047784 68.2586 0.0185003 68.3232 0.00634528 68.3919C-0.00580973 68.4607 -0.000444092 68.5314 0.0219464 68.5975C0.175829 69.0592 0.2143 69.0361 3.99982 67.9204C8.74712 66.5201 17.48 63.9425 21.6117 63.6271C22.4168 65.7052 23.4082 67.7061 24.574 69.6054C24.6484 69.6698 24.7431 69.7056 24.8415 69.7067C24.9398 69.7077 25.0353 69.6738 25.111 69.611C25.1867 69.5483 25.2377 69.4607 25.2549 69.3638C25.2721 69.267 25.2544 69.1672 25.2049 69.0822Z" fill="white"/>
<path d="M84.7659 50.3628C84.0811 47.7853 79.8571 33.5742 76.3024 27.565C72.7477 21.5559 65.7383 15.7622 60.1369 19.7324C60.0609 19.7798 59.9759 19.8112 59.8872 19.8244C59.7985 19.8377 59.708 19.8325 59.6214 19.8093C58.375 19.44 53.3892 18.409 49.9499 22.0098C41.1324 31.2428 45.3334 47.3005 41.7402 56.8259C41.7134 56.9051 41.7037 56.9892 41.7117 57.0725C41.7197 57.1557 41.7453 57.2364 41.7867 57.3091C41.8282 57.3818 41.8845 57.4448 41.9521 57.4942C42.0197 57.5435 42.0969 57.578 42.1788 57.5953C46.2105 58.7648 68.639 64.6355 84.5505 51.0014C84.6397 50.9235 84.7066 50.8234 84.7444 50.7112C84.7823 50.599 84.7897 50.4788 84.7659 50.3628Z" fill="#2B2D3E"/>
<path d="M116.434 38.6292C116.514 37.5126 116.865 36.4324 117.457 35.4823C118.488 33.7204 120.227 29.2501 120.027 26.7572C119.865 24.7798 123.028 19.3554 121.789 18.9168C120.758 18.5475 117.826 24.849 117.826 24.849L116.872 24.7028C116.872 24.7028 117.757 15.8315 116.365 15.7622C114.972 15.693 114.603 24.5566 114.603 24.5566L113.279 24.7798C113.279 24.7798 111.448 14.7312 110.202 14.662C108.955 14.5927 110.786 25.4338 110.786 25.4338L109.763 25.7261C109.763 25.7261 106.516 16.9933 104.977 17.4242C102.846 18.0628 109.232 30.7812 108.493 31.2044C107.755 31.6276 104.177 27.9113 103.292 29.0039C101.976 30.6273 106.755 33.7512 109.963 36.1209C110.548 36.5518 110.471 37.9522 110.402 38.8293L116.434 38.6292Z" fill="white"/>
<path d="M71.123 96.7661L69.2148 104.976C69.9828 106.576 70.6685 108.214 71.2692 109.885C71.6231 111.062 73.0311 114.786 73.7621 114.647C74.493 114.509 74.5315 113.478 74.5315 113.478C74.5315 113.478 75.8549 114.247 76.5166 112.447C76.5166 112.447 78.2709 113.216 77.9785 109.738C77.9785 109.738 79.7404 109.515 77.8323 104.237C78.0957 104.356 78.3949 104.37 78.6682 104.276C78.9415 104.181 79.1683 103.986 79.3019 103.729C79.7251 102.96 77.7631 99.1821 74.2391 99.1128C73.363 98.1353 72.3045 97.3381 71.123 96.7661Z" fill="white"/>
<path d="M66.5923 62.5269C66.5923 62.5269 74.5788 67.2973 76.1177 59.1569L74.3557 55.1251C74.3557 55.1251 80.8803 49.7392 76.487 40.2446C76.487 40.2446 78.9029 37.9364 77.5872 35.0434C77.1942 34.2245 76.565 33.542 75.7806 33.084C74.9962 32.6259 74.0925 32.4133 73.1862 32.4735C73.1862 32.4735 70.8395 25.8873 61.8219 24.8486C61.8219 24.8486 60.36 34.8972 53.2506 38.7827L54.4971 43.253C54.4971 43.253 50.7577 43.3223 50.3884 46.4C50.0191 49.4776 54.5663 50.3624 56.4745 49.1852C56.4745 49.1852 59.1136 56.3023 65.5613 57.1795C65.5613 57.1025 66.7385 61.3574 66.5923 62.5269Z" fill="white"/>
<path d="M60.2051 47.7598C60.2105 47.9349 60.2644 48.1061 60.3638 48.2634C60.4631 48.4206 60.6059 48.5606 60.7838 48.6752C60.9616 48.7898 61.171 48.8768 61.3995 48.9309C61.628 48.985 61.8711 49.0052 62.1145 48.9904C62.358 48.9755 62.5968 48.9259 62.817 48.8444C63.0372 48.7628 63.2344 48.6511 63.397 48.5157C63.5596 48.3803 63.6843 48.2239 63.7638 48.0558C63.8432 47.8877 63.8759 47.7111 63.8599 47.5366C63.8545 47.3614 63.8006 47.1902 63.7013 47.033C63.6019 46.8758 63.4591 46.7358 63.2812 46.6212C63.1034 46.5065 62.894 46.4196 62.6655 46.3655C62.437 46.3114 62.1939 46.2911 61.9505 46.306C61.7071 46.3209 61.4682 46.3705 61.248 46.452C61.0278 46.5335 60.8306 46.6453 60.668 46.7807C60.5054 46.9161 60.3807 47.0725 60.3013 47.2406C60.2218 47.4087 60.1891 47.5852 60.2051 47.7598Z" fill="#FFE2DE"/>
<path d="M74.3623 43.0684C74.4411 43.2145 74.5582 43.3374 74.7068 43.4298C74.8555 43.5222 75.0326 43.5822 75.2278 43.6065C75.423 43.6307 75.6324 43.6186 75.8437 43.5709C76.0549 43.5232 76.2638 43.4408 76.4581 43.3286C76.6524 43.2164 76.8282 43.0766 76.9751 42.9175C77.122 42.7583 77.2371 42.583 77.3136 42.4018C77.3902 42.2207 77.4266 42.0372 77.4208 41.8623C77.415 41.6875 77.3671 41.5246 77.2799 41.3834C77.1993 41.2399 77.0812 41.1196 76.9323 41.0294C76.7835 40.9393 76.6069 40.8811 76.4128 40.8582C76.2187 40.8353 76.0109 40.8481 75.8014 40.896C75.5918 40.9439 75.3847 41.0258 75.192 41.1371C74.9993 41.2483 74.8248 41.3867 74.6786 41.5442C74.5324 41.7018 74.4174 41.8753 74.3402 42.0549C74.263 42.2345 74.2251 42.4165 74.2288 42.5904C74.2324 42.7644 74.2775 42.9268 74.3615 43.0684" fill="#FFE2DE"/>
<path d="M117.905 38.2674H116.874C117.105 36.9781 117.552 35.7372 118.197 34.5973L118.636 33.6509C119.678 31.2842 120.298 28.753 120.467 26.1722C120.952 24.3487 123.329 19.0628 122.006 18.4011C121.933 18.347 121.848 18.3117 121.758 18.2982C121.668 18.2848 121.576 18.2937 121.49 18.3242C120.467 18.6858 118.343 22.7253 117.605 24.4103L117.243 24.341C117.312 23.5716 117.474 21.9174 117.536 20.3093C117.705 16.0544 117.166 15.3927 116.512 15.3235C116.304 15.3098 116.097 15.3609 115.92 15.4697C114.843 16.3314 114.342 21.9097 114.089 24.1948L113.427 24.2641C113.134 22.1405 112.034 15.4004 110.642 14.3694C110.55 14.2899 110.442 14.2317 110.326 14.1991C110.209 14.1664 110.087 14.1602 109.967 14.1809C109.848 14.2015 109.735 14.2485 109.636 14.3183C109.537 14.3882 109.455 14.4792 109.395 14.5848C108.349 16.039 109.695 23.0484 110.165 25.2182L109.941 25.2874C109.726 24.6334 109.172 23.2408 108.48 21.7712C106.648 17.7394 105.694 17.3009 105.325 17.2239C105.079 17.1222 104.802 17.1222 104.556 17.2239C102.84 18.0626 105.456 23.5101 108.072 30.7195C107.8 30.543 107.542 30.3449 107.302 30.127C105.84 29.0268 103.855 27.4879 102.686 28.8806C102.575 28.9961 102.496 29.1384 102.457 29.2935C102.418 29.4486 102.42 29.6112 102.463 29.7654C102.794 32.1968 109.518 36.1054 109.795 36.6517C110.024 37.2343 110.075 37.8714 109.941 38.4829C109.246 38.4812 108.553 38.5823 107.887 38.783C107.741 39.1446 106.279 62.2347 106.279 62.2347C101.293 58.9416 88.5363 54.1559 82.381 55.6408C80.1851 56.1852 78.1174 57.155 76.2949 58.4954C75.9256 57.6182 75.1946 56.0025 74.7561 55.0561C77.9953 52.5786 79.7803 46.7002 76.8797 40.3218C77.3404 39.8875 77.7083 39.3643 77.9609 38.7836C78.2135 38.203 78.3456 37.5772 78.3492 36.944C78.2723 32.3968 73.5865 32.2583 73.5096 32.2583C70.355 24.9258 61.7837 24.4872 61.7068 24.4872C61.601 24.4786 61.496 24.5115 61.4141 24.579C61.3322 24.6465 61.2799 24.7433 61.2682 24.8488C61.2682 24.9258 60.568 34.4204 53.0585 38.4136C52.9887 38.4633 52.932 38.5291 52.8931 38.6055C52.8543 38.6819 52.8345 38.7665 52.8354 38.8522C53.2047 40.1756 53.7202 42.076 53.9357 42.9609C52.7719 43.0469 51.6675 43.5087 50.7888 44.2766C50.4323 44.6513 50.1726 45.1073 50.0324 45.6051C49.8921 46.1029 49.8754 46.6274 49.9838 47.1331C50.0923 47.6388 50.3225 48.1104 50.6545 48.5069C50.9865 48.9035 51.4103 49.213 51.889 49.4086C53.2263 49.9418 54.7127 49.9665 56.067 49.4778C56.3593 50.1395 59.3601 56.518 65.1538 57.3259C65.2999 58.0953 65.8155 60.1111 66.0309 61.5038C50.935 54.2482 28.9605 99.3744 43.5255 106.807C46.3877 108.269 68.67 106.038 69.4086 105.922C71.1937 109.862 71.9708 114.87 73.7327 114.87C74.2406 114.794 74.5022 114.286 74.6868 113.839C74.8882 113.906 75.1013 113.93 75.3125 113.911C75.5237 113.891 75.7286 113.828 75.9143 113.725C76.1 113.623 76.2625 113.483 76.3915 113.314C76.5206 113.146 76.6134 112.953 76.6642 112.747C76.8347 112.804 77.0165 112.821 77.1945 112.794C77.3725 112.767 77.5415 112.698 77.6875 112.593C78.4569 112.093 78.4569 110.693 78.3492 109.954C79.7419 109.492 79.2341 107.022 78.7878 105.622H102.817C102.047 100.275 93.8145 75.361 93.8145 75.361C93.8145 75.361 108.303 84.8325 117.859 79.6081C126.084 75.1301 120.836 38.3367 117.905 38.2674ZM73.702 32.9893C74.4628 32.9893 75.2066 33.2149 75.8393 33.6376C76.4719 34.0603 76.965 34.6612 77.2562 35.3641C77.5474 36.0671 77.6236 36.8406 77.4751 37.5869C77.3267 38.3331 76.9603 39.0186 76.4223 39.5566C75.8842 40.0946 75.1988 40.461 74.4525 40.6095C73.7062 40.7579 72.9327 40.6817 72.2298 40.3906C71.5268 40.0994 70.926 39.6063 70.5032 38.9736C70.0805 38.341 69.8549 37.5972 69.8549 36.8363C69.8549 35.816 70.2602 34.8375 70.9817 34.116C71.7031 33.3946 72.6817 32.9893 73.702 32.9893ZM66.0078 56.9565C65.9386 56.8104 65.8616 56.6642 65.6462 56.6642C59.6294 55.8947 56.7748 48.97 56.7748 48.8931C56.7435 48.8372 56.7008 48.7887 56.6494 48.7505C56.5981 48.7124 56.5392 48.6855 56.4767 48.6717C56.4142 48.6579 56.3496 48.6575 56.2869 48.6704C56.2242 48.6834 56.165 48.7094 56.1131 48.7469C55.5284 49.1854 53.4817 49.4009 52.0814 48.7469C50.1809 47.8621 50.9811 45.4461 51.4966 45.0075C52.52 43.9073 54.505 43.838 54.5743 43.838C54.8128 43.838 55.059 43.561 54.9436 43.3225C54.8282 43.084 54.0588 40.0986 53.8434 39.0753C55.8151 37.99 57.4597 36.3958 58.606 34.4588C59.7586 34.1202 60.9984 34.2531 62.053 34.8282C62.1006 34.8584 62.1538 34.8787 62.2095 34.8877C62.2652 34.8967 62.3221 34.8943 62.3768 34.8807C62.4315 34.867 62.4829 34.8423 62.5277 34.8082C62.5726 34.774 62.61 34.7311 62.6378 34.682C62.6717 34.6355 62.695 34.5822 62.706 34.5258C62.717 34.4693 62.7155 34.4112 62.7016 34.3554C62.6876 34.2996 62.6616 34.2475 62.6253 34.2029C62.589 34.1583 62.5434 34.1222 62.4916 34.0972C61.5148 33.5412 60.3776 33.3349 59.2677 33.5125C60.6373 30.9914 61.6006 28.2702 62.1223 25.449C65.4919 25.798 68.6199 27.3593 70.9244 29.8423C70.2231 29.9915 69.569 30.3099 69.0192 30.7699C68.4693 31.2299 68.0404 31.8175 67.7698 32.4814C67.7476 32.5296 67.7358 32.5819 67.7352 32.6349C67.7345 32.6879 67.7451 32.7404 67.7662 32.789C67.7872 32.8377 67.8183 32.8814 67.8574 32.9172C67.8964 32.953 67.9426 32.9802 67.9929 32.9969C68.2083 33.0662 68.5007 32.92 68.5007 32.7738C68.5007 32.6276 69.3855 30.5733 71.5091 30.5733C71.8708 31.0888 72.317 31.6736 72.6786 32.266C68.4315 33.2893 69.0162 37.8366 69.1624 38.2751C68.7141 38.3366 68.2715 38.4344 67.839 38.5675C67.4774 37.5442 67.0157 36.3054 66.6003 35.1205C66.568 35.0151 66.4967 34.926 66.4008 34.8716C66.3049 34.8172 66.1918 34.8017 66.0847 34.8282C66.0314 34.8424 65.9815 34.8671 65.9379 34.9008C65.8942 34.9345 65.8577 34.9766 65.8305 35.0246C65.8033 35.0726 65.7859 35.1255 65.7793 35.1803C65.7728 35.2351 65.7772 35.2906 65.7924 35.3437C66.154 36.4439 66.5618 37.6519 67.0388 38.7906C66.3305 39.0798 65.6831 39.5001 65.1307 40.0294C64.7483 39.2028 64.1387 38.502 63.3731 38.0089C62.6074 37.5157 61.7173 37.2505 60.8066 37.2441C59.8783 37.2441 58.9709 37.5194 58.199 38.0351C57.4272 38.5508 56.8256 39.2838 56.4704 40.1415C56.1152 40.9991 56.0222 41.9428 56.2033 42.8532C56.3844 43.7636 56.8314 44.5999 57.4878 45.2563C58.1442 45.9127 58.9805 46.3597 59.8909 46.5408C60.8014 46.7219 61.745 46.629 62.6027 46.2737C63.4603 45.9185 64.1933 45.3169 64.709 44.5451C65.2247 43.7733 65.5 42.8658 65.5 41.9376C65.4849 41.5671 65.4359 41.1988 65.3538 40.8373C65.8818 40.2508 66.5409 39.7973 67.2773 39.5139C67.5584 40.3335 67.9273 41.1203 68.3776 41.8606C68.67 42.153 70.2858 42.153 70.4319 42.153C70.1588 42.7611 69.8399 43.3475 69.4779 43.9073C69.4451 43.9547 69.4229 44.0086 69.4125 44.0654C69.4021 44.1221 69.4039 44.1804 69.4177 44.2364C69.4315 44.2924 69.4571 44.3448 69.4926 44.3902C69.5282 44.4356 69.573 44.4729 69.6241 44.4997C69.7218 44.5547 69.8368 44.5702 69.9455 44.543C70.0543 44.5158 70.1485 44.448 70.2088 44.3535C72.0785 41.2759 71.463 41.4144 69.9164 41.2759C69.5446 41.272 69.1748 41.2203 68.8162 41.122C68.4953 40.5165 68.2375 39.8797 68.0468 39.2215C68.4719 39.0588 68.9226 38.9728 69.3779 38.9676C69.6783 39.5624 70.1022 40.0862 70.6212 40.5042C71.1402 40.9222 71.7424 41.2246 72.3876 41.3914C73.0328 41.5581 73.7061 41.5853 74.3626 41.4712C75.0192 41.3571 75.6438 41.1043 76.1949 40.7296C77.3243 43.268 77.7009 46.0775 77.2797 48.8238C76.2564 54.6098 72.0093 55.4947 71.7861 55.4947C71.6798 55.531 71.5873 55.5993 71.5212 55.6902C71.4551 55.7811 71.4187 55.8901 71.4168 56.0025C71.4388 56.1038 71.4938 56.1951 71.5731 56.2619C71.6525 56.3287 71.7517 56.3673 71.8554 56.3718C72.6248 56.1791 73.3649 55.8841 74.0559 55.4947C74.5714 56.6642 75.4485 58.6416 75.6717 59.1571C75.5341 59.9173 75.2248 60.6361 74.7675 61.2588C74.3102 61.8814 73.7168 62.3915 73.0326 62.7502C70.7628 63.8659 67.7544 62.6733 66.9465 62.3117C66.8849 60.8421 66.0001 57.1027 66.0001 56.9565H66.0078ZM64.7537 42.0453C64.7537 42.8062 64.528 43.5499 64.1053 44.1826C63.6826 44.8152 63.0818 45.3083 62.3788 45.5995C61.6758 45.8907 60.9023 45.9669 60.1561 45.8184C59.4098 45.67 58.7243 45.3036 58.1863 44.7656C57.6483 44.2275 57.2819 43.5421 57.1334 42.7958C56.985 42.0495 57.0612 41.276 57.3523 40.5731C57.6435 39.8701 58.1366 39.2693 58.7693 38.8465C59.4019 38.4238 60.1457 38.1982 60.9066 38.1982C61.9219 38.2141 62.8913 38.6245 63.6093 39.3425C64.3274 40.0606 64.7378 41.0299 64.7537 42.0453ZM45.5183 94.5271C45.459 94.5533 45.3944 94.565 45.3297 94.5612C45.2651 94.5574 45.2022 94.5383 45.1464 94.5054C45.0906 94.4726 45.0434 94.4269 45.0088 94.3721C44.9742 94.3174 44.9531 94.2552 44.9473 94.1907C44.9415 94.1261 44.9511 94.0612 44.9754 94.0011C44.9997 93.9411 45.038 93.8877 45.087 93.8454C45.1361 93.8031 45.1945 93.773 45.2574 93.7578C45.3204 93.7425 45.3861 93.7425 45.449 93.7577C45.7414 93.7577 47.9419 93.5422 51.0888 93.2499C52.7739 86.5021 56.1516 77.5615 56.1516 77.4845C56.1904 77.3825 56.2681 77.3001 56.3676 77.2553C56.4672 77.2106 56.5805 77.2073 56.6825 77.246C56.7845 77.2848 56.867 77.3625 56.9117 77.4621C56.9564 77.5616 56.9598 77.6749 56.921 77.7769C56.921 77.8539 53.6202 86.5021 51.9352 93.1652C58.3829 92.6574 67.7698 92.1419 71.94 93.019C72.0469 93.0568 72.1397 93.1265 72.2057 93.2187C72.2718 93.3109 72.3079 93.4212 72.3093 93.5345C72.3093 93.6038 72.0169 95.1426 71.8631 95.8043C71.8158 95.8812 71.7447 95.9407 71.6606 95.9736C71.5766 96.0065 71.484 96.0111 71.3971 95.9868C71.3101 95.9625 71.2335 95.9105 71.1787 95.8387C71.124 95.7669 71.0941 95.6792 71.0936 95.5889C71.2578 95.0114 71.3787 94.4224 71.4553 93.8269C64.6075 92.5112 45.7337 94.4194 45.5491 94.4886L45.5183 94.5271ZM78.2107 109.338C77.381 106.547 75.9556 103.969 74.0328 101.783C73.9542 101.705 73.8481 101.662 73.7377 101.663C73.6273 101.663 73.5218 101.708 73.4442 101.787C73.3667 101.865 73.3235 101.971 73.3242 102.082C73.3249 102.192 73.3695 102.298 73.4481 102.375C73.4481 102.375 76.7258 105.953 77.4798 109.992C77.8722 112.116 76.9643 112.301 76.8181 112.193C76.0487 108.092 73.0787 103.691 72.971 103.475C72.9095 103.382 72.8153 103.316 72.7071 103.289C72.5988 103.262 72.4844 103.276 72.3863 103.329C72.2971 103.394 72.2336 103.488 72.2069 103.595C72.1802 103.702 72.1919 103.815 72.2401 103.914C72.2401 103.983 75.3177 108.454 76.0871 112.378C76.0102 113.401 75.2023 113.332 74.9869 113.255C74.6176 109.515 72.1247 105.63 72.0554 105.484C71.9893 105.394 71.8938 105.33 71.7856 105.303C71.6774 105.277 71.5632 105.289 71.463 105.337C71.3738 105.402 71.3103 105.496 71.2836 105.603C71.2569 105.71 71.2686 105.823 71.3168 105.922C71.3168 105.999 73.8097 109.885 74.1021 113.478C74.0328 114.647 73.0633 113.77 71.9785 110.469C71.4445 108.564 70.7067 106.723 69.7779 104.976C70.3627 102.406 71.3168 97.5663 71.3168 97.5663C71.463 97.5663 74.2559 98.5588 76.8873 103.437C79.2802 107.938 78.2415 109.3 78.2415 109.3L78.2107 109.338ZM78.8724 103.691C78.6726 103.908 78.3973 104.04 78.103 104.06C77.393 102.349 76.3731 100.784 75.0946 99.4437C78.6108 100.652 79.3418 103.214 78.9032 103.652L78.8724 103.691ZM110.834 38.4521C110.978 37.6631 110.847 36.8486 110.465 36.1439C109.757 35.436 102.624 30.8503 103.286 29.6962C103.948 28.542 105.594 29.9885 106.802 30.7964C107.756 31.5658 108.341 31.9659 108.78 31.6735C109.218 31.3812 109.164 30.858 107.61 26.9109C106.887 25.072 106.071 22.9407 105.556 21.1864C104.717 18.4627 104.679 18.1857 105.04 18.0395C105.925 17.6009 108.456 23.1561 109.441 25.9568C109.485 26.0541 109.558 26.135 109.651 26.1876C109.744 26.2402 109.851 26.2617 109.957 26.2492L110.911 26.026C111.017 25.9972 111.107 25.9276 111.162 25.8325C111.217 25.7373 111.232 25.6243 111.203 25.5182C111.203 25.5182 110.672 23.0253 110.318 20.4555C109.711 15.9852 110.172 15.1773 110.249 15.0696C110.395 15.1388 111.019 15.6543 111.934 19.9784C112.434 22.4021 112.704 24.8181 112.704 24.8873C112.713 24.9942 112.765 25.0929 112.847 25.1621C112.929 25.2312 113.035 25.2652 113.142 25.2566L114.535 25.1104C114.584 25.1126 114.633 25.1046 114.679 25.0868C114.725 25.069 114.766 25.0419 114.801 25.0071C114.836 24.9724 114.863 24.9308 114.88 24.885C114.898 24.8392 114.906 24.7902 114.904 24.7411C115.266 20.1246 115.927 16.8238 116.366 16.2775C116.805 17.047 116.658 21.1095 116.297 24.7411C116.288 24.8469 116.321 24.9519 116.389 25.0338C116.456 25.1157 116.553 25.168 116.658 25.1797L117.689 25.3259C117.776 25.3365 117.863 25.3218 117.941 25.2835C118.019 25.2452 118.084 25.1851 118.128 25.1104C119.621 22.0328 120.913 19.9015 121.498 19.3167C121.498 20.7555 119.69 25.2951 119.521 26.1338C119.044 33.3047 116.297 34.5127 115.927 38.229C114.458 38.2674 112.48 38.3367 110.865 38.4136L110.834 38.4521Z" fill="#9683D7"/>
<path d="M71.8929 38.7828C71.9991 38.7913 72.1054 38.7671 72.1976 38.7134C72.2897 38.6598 72.3632 38.5793 72.4084 38.4827C72.5679 37.7162 72.9797 37.0253 73.5781 36.5204C74.1764 36.0155 74.9268 35.7258 75.7092 35.6974C75.8231 35.6902 75.9305 35.6417 76.0112 35.5609C76.0919 35.4802 76.1405 35.3728 76.1477 35.2589C76.1389 35.1455 76.0899 35.039 76.0095 34.9586C75.929 34.8782 75.8225 34.8291 75.7092 34.8203C72.3391 34.8203 71.6005 38.1903 71.6005 38.2673C71.574 38.3743 71.5896 38.4874 71.644 38.5833C71.6984 38.6792 71.7874 38.7506 71.8929 38.7828Z" fill="#9683D7"/>
<path d="M57.8661 41.6372C57.8156 41.666 57.7712 41.7045 57.7356 41.7504C57.6999 41.7963 57.6737 41.8488 57.6583 41.9049C57.6429 41.961 57.6388 42.0196 57.6461 42.0773C57.6533 42.135 57.6719 42.1907 57.7007 42.2412C57.7295 42.2917 57.7679 42.3361 57.8139 42.3717C57.8598 42.4074 57.9123 42.4336 57.9684 42.449C58.0245 42.4643 58.0831 42.4685 58.1408 42.4612C58.1985 42.454 58.2542 42.4354 58.3047 42.4066C58.8433 42.0505 59.4394 41.7902 60.0666 41.6372C60.6291 41.483 61.2199 41.4626 61.7917 41.5775C62.3635 41.6924 62.9005 41.9394 63.3597 42.2989C63.4367 42.3681 63.5059 42.3681 63.6521 42.3681C63.7098 42.3673 63.7666 42.3538 63.8185 42.3285C63.8703 42.3033 63.916 42.2669 63.9522 42.2219C63.9902 42.1805 64.0187 42.1313 64.0356 42.0777C64.0526 42.024 64.0575 41.9674 64.0502 41.9116C64.0429 41.8559 64.0234 41.8024 63.9932 41.755C63.9629 41.7076 63.9227 41.6674 63.8752 41.6372C61.2362 39.4367 57.8661 41.6372 57.8661 41.6372Z" fill="#9683D7"/>
<path d="M72.1614 45.446C70.1686 45.9922 66.5139 47.0617 66.5139 47.0617C66.1446 47.1387 66.2215 47.5003 66.2215 47.6465C66.499 48.2783 66.9482 48.8195 67.5182 49.2086C68.0881 49.5976 68.7559 49.8188 69.4454 49.847C69.9379 49.8382 70.4224 49.7208 70.8644 49.5031C71.3063 49.2854 71.6947 48.9729 72.0019 48.5878C72.3091 48.2027 72.5275 47.7545 72.6415 47.2752C72.7556 46.796 72.7624 46.2975 72.6615 45.8153C72.6531 45.7581 72.6334 45.7032 72.6036 45.6537C72.5739 45.6042 72.5347 45.561 72.4882 45.5267C72.4417 45.4924 72.3889 45.4676 72.3328 45.4537C72.2768 45.4399 72.2185 45.4372 72.1614 45.446ZM70.3533 48.8237C69.8025 49.0089 69.2051 49.0008 68.6596 48.8008C68.114 48.6008 67.653 48.2208 67.3525 47.7234C68.3066 47.431 70.4302 46.8463 71.969 46.4C71.9832 46.9215 71.8355 47.4345 71.5461 47.8685C71.2568 48.3025 70.84 48.6362 70.3533 48.8237Z" fill="#9683D7"/>
<path d="M54.5664 46.4001C54.014 46.2551 53.4503 46.1573 52.8813 46.1077C52.7743 46.0992 52.6683 46.1332 52.5862 46.2023C52.5041 46.2715 52.4525 46.3702 52.4428 46.4771C52.4341 46.5829 52.467 46.6878 52.5346 46.7697C52.6021 46.8516 52.6989 46.904 52.8044 46.9156C53.3245 46.9704 53.8392 47.0682 54.3432 47.208C54.4202 47.208 54.7895 47.2849 54.8587 46.9156C54.8726 46.8096 54.8515 46.702 54.7988 46.609C54.746 46.516 54.6644 46.4427 54.5664 46.4001Z" fill="#9683D7"/>
<path d="M95.5453 40.9063C95.5201 40.8127 95.4617 40.7314 95.381 40.6777C95.3003 40.6239 95.2029 40.6012 95.1068 40.6139L94.3374 40.7601L94.045 39.1443C94.0435 39.0927 94.0296 39.0422 94.0046 38.9971C93.9796 38.952 93.9442 38.9135 93.9012 38.8848C93.8583 38.8562 93.8091 38.8383 93.7578 38.8326C93.7065 38.8268 93.6546 38.8335 93.6064 38.8519C93.5548 38.8534 93.5044 38.8673 93.4592 38.8923C93.4141 38.9173 93.3756 38.9528 93.347 38.9957C93.3183 39.0386 93.3004 39.0878 93.2947 39.1391C93.2889 39.1904 93.2956 39.2423 93.314 39.2905L93.6064 40.9755C93.2371 41.0525 92.9447 41.1217 92.837 41.1217C92.7428 41.1486 92.6614 41.2084 92.6077 41.2904C92.554 41.3723 92.5316 41.4709 92.5446 41.568C92.5749 41.6435 92.6241 41.71 92.6874 41.7612C92.7507 41.8124 92.826 41.8465 92.9062 41.8603C92.9062 41.8603 93.3448 41.7834 93.6757 41.7142L93.8911 42.8144C93.8993 42.8631 93.9173 42.9096 93.9442 42.9511C93.971 42.9925 94.0061 43.0281 94.0471 43.0555C94.0882 43.0829 94.1345 43.1015 94.1831 43.1104C94.2317 43.1192 94.2816 43.118 94.3297 43.1068C94.5528 43.0299 94.699 42.8837 94.622 42.6605L94.4066 41.491C94.645 41.4187 94.8898 41.3698 95.1376 41.3448C95.197 41.3609 95.2598 41.3604 95.319 41.3434C95.3783 41.3265 95.4317 41.2936 95.4737 41.2485C95.5157 41.2034 95.5445 41.1477 95.5571 41.0874C95.5697 41.027 95.5657 40.9644 95.5453 40.9063Z" fill="#9683D7"/>
<path d="M121.79 5.79024H121.021V4.62073C121.028 4.56829 121.024 4.51482 121.01 4.46396C120.995 4.41309 120.969 4.36602 120.934 4.32594C120.9 4.28586 120.857 4.25372 120.809 4.23168C120.76 4.20965 120.708 4.19824 120.655 4.19824C120.602 4.19824 120.55 4.20965 120.501 4.23168C120.453 4.25372 120.41 4.28586 120.376 4.32594C120.341 4.36602 120.315 4.41309 120.301 4.46396C120.286 4.51482 120.282 4.56829 120.29 4.62073V5.79024H119.774C119.722 5.78261 119.668 5.78636 119.617 5.80123C119.566 5.81609 119.519 5.84173 119.479 5.8764C119.439 5.91107 119.407 5.95396 119.385 6.00215C119.363 6.05035 119.352 6.10272 119.352 6.15571C119.352 6.20871 119.363 6.26108 119.385 6.30927C119.407 6.35747 119.439 6.40036 119.479 6.43503C119.519 6.4697 119.566 6.49533 119.617 6.5102C119.668 6.52507 119.722 6.52882 119.774 6.52119H120.29V7.69839C120.282 7.75083 120.286 7.8043 120.301 7.85517C120.315 7.90603 120.341 7.9531 120.376 7.99318C120.41 8.03326 120.453 8.06541 120.501 8.08744C120.55 8.10947 120.602 8.12088 120.655 8.12088C120.708 8.12088 120.76 8.10947 120.809 8.08744C120.857 8.06541 120.9 8.03326 120.934 7.99318C120.969 7.9531 120.995 7.90603 121.01 7.85517C121.024 7.8043 121.028 7.75083 121.021 7.69839V6.52119H121.79C121.878 6.50841 121.958 6.46445 122.016 6.39734C122.074 6.33022 122.106 6.24445 122.106 6.15571C122.106 6.06698 122.074 5.98121 122.016 5.91409C121.958 5.84698 121.878 5.80302 121.79 5.79024Z" fill="#9683D7"/>
<path d="M132.046 11.7993C132.008 11.8041 131.968 11.8004 131.931 11.7884C131.894 11.7765 131.86 11.7566 131.831 11.7301C131.782 11.7009 131.741 11.6611 131.71 11.6137C131.679 11.5663 131.659 11.5124 131.652 11.4563C131.644 11.4001 131.65 11.3429 131.667 11.2891C131.685 11.2353 131.715 11.1861 131.754 11.1453C133.17 9.13413 134.352 6.96841 135.278 4.68995C135.317 4.59444 135.393 4.51827 135.488 4.47794C135.583 4.43761 135.69 4.43638 135.786 4.47451C135.836 4.49039 135.882 4.51674 135.921 4.55183C135.96 4.58691 135.991 4.62991 136.012 4.67796C136.033 4.72601 136.044 4.77801 136.043 4.83049C136.043 4.88298 136.031 4.93474 136.009 4.98232C134.509 9.32952 132.193 11.7993 132.046 11.7993Z" fill="#9683D7"/>
<path d="M132.047 15.4699C131.608 15.4699 131.539 14.9544 131.831 14.662C131.9 14.662 135.678 12.7154 138.94 7.92193C139.008 7.83419 139.107 7.77678 139.217 7.76235C139.327 7.74793 139.437 7.77765 139.525 7.84499C139.613 7.91233 139.67 8.01177 139.685 8.12143C139.699 8.2311 139.67 8.342 139.602 8.42975C137.694 11.3559 135.1 13.7725 132.047 15.4699Z" fill="#9683D7"/>
<path d="M94.5908 13.123C93.0121 12.658 91.5911 11.7692 90.4822 10.5531C90.4118 10.472 90.373 10.3682 90.373 10.2607C90.373 10.1533 90.4118 10.0495 90.4822 9.96837C90.5646 9.89742 90.6697 9.8584 90.7784 9.8584C90.8871 9.8584 90.9922 9.89742 91.0746 9.96837C92.0818 10.9966 93.3072 11.7854 94.6601 12.2766C94.7166 12.2891 94.77 12.313 94.8169 12.3469C94.8638 12.3808 94.9033 12.424 94.9329 12.4737C94.9624 12.5235 94.9815 12.5788 94.9888 12.6362C94.9962 12.6936 94.9916 12.7519 94.9756 12.8075C94.9728 12.8542 94.9604 12.8997 94.9392 12.9414C94.918 12.983 94.8884 13.0198 94.8523 13.0495C94.8161 13.0791 94.7742 13.1009 94.7292 13.1136C94.6843 13.1262 94.6371 13.1294 94.5908 13.123Z" fill="#9683D7"/>
<path d="M94.3667 14.5156C93.0218 14.4487 91.6918 14.2029 90.4119 13.7846C90.3586 13.7704 90.3086 13.7457 90.265 13.712C90.2213 13.6782 90.1848 13.6361 90.1576 13.5882C90.1304 13.5402 90.113 13.4872 90.1064 13.4325C90.0999 13.3777 90.1043 13.3222 90.1195 13.2691C90.1328 13.2161 90.1567 13.1663 90.1897 13.1227C90.2227 13.0791 90.2641 13.0426 90.3114 13.0153C90.3588 12.9881 90.4112 12.9706 90.4655 12.9639C90.5197 12.9573 90.5747 12.9617 90.6273 12.9767C91.8378 13.3665 93.0959 13.5892 94.3667 13.6384C94.482 13.6439 94.5912 13.6916 94.6735 13.7725C94.7558 13.8534 94.8055 13.9618 94.8129 14.077C94.736 14.2924 94.5898 14.5156 94.3667 14.5156Z" fill="#9683D7"/>
<path d="M104.924 9.01433C104.924 9.01433 102.161 9.01433 101.407 6.70608C101.326 6.49391 101.277 6.27094 101.261 6.04438C100.528 6.08337 99.7982 5.91943 99.152 5.57057C98.5059 5.22171 97.9685 4.70145 97.5988 4.06698C97.2933 3.47412 97.1275 2.8192 97.1142 2.15237C97.1008 1.48554 97.2403 0.824512 97.5219 0.219908C97.6834 -0.257129 98.6221 0.11219 98.2528 0.658475C98.0302 1.14341 97.9215 1.67281 97.9348 2.20622C97.9482 2.73962 98.0832 3.26292 98.3298 3.73614C98.6191 4.22933 99.0383 4.63363 99.5417 4.90498C100.045 5.17632 100.613 5.3043 101.184 5.27497C101.327 4.55555 101.63 3.87728 102.069 3.28988C102.262 3.02251 102.536 2.82428 102.851 2.72442C103.165 2.62456 103.503 2.62835 103.815 2.73524C104.127 2.84213 104.397 3.04646 104.584 3.31809C104.771 3.58973 104.866 3.9143 104.854 4.24395C104.631 5.12108 103.754 6.00591 101.992 6.07516C101.992 7.36778 103.585 8.03717 104.854 8.27569C105.162 8.3911 105.501 9.01433 104.924 9.01433ZM102.877 3.73614C102.539 4.13499 102.311 4.61497 102.215 5.12878C103.531 4.98259 104.116 4.35936 104.193 3.95927C104.208 3.66689 103.608 3.00519 102.877 3.73614Z" fill="#2B2D3E"/>
<path d="M136.078 47.8699C134.783 47.8743 133.532 47.4034 132.561 46.5465C131.524 45.6925 130.824 44.4984 130.584 43.1765C130.584 43.0602 130.63 42.9486 130.712 42.8664C130.795 42.7841 130.906 42.7379 131.023 42.7379C131.139 42.7379 131.25 42.7841 131.333 42.8664C131.415 42.9486 131.461 43.0602 131.461 43.1765C131.703 44.2642 132.295 45.2426 133.146 45.9618C133.667 46.4152 134.284 46.7439 134.95 46.9225C135.617 47.1012 136.316 47.1253 136.993 46.9928C137.447 46.9329 137.876 46.7551 138.24 46.4773C137.78 46.1992 137.385 45.8261 137.081 45.3829C136.777 44.9397 136.571 44.4366 136.478 43.9074C136.393 42.7379 137.247 41.3453 138.894 42.3686C140.009 43.0765 140.14 45.2693 139.486 46.2157C139.555 46.2157 142.364 47.9238 145.857 44.4614C145.939 44.3905 146.044 44.3514 146.153 44.3514C146.262 44.3514 146.367 44.3905 146.449 44.4614C146.52 44.5426 146.558 44.6464 146.558 44.7538C146.558 44.8612 146.52 44.965 146.449 45.0462C143.426 47.9622 140.733 47.5391 139.409 47.0236C139.263 46.9543 139.117 46.9543 138.971 46.8774C138.164 47.5586 137.132 47.9128 136.078 47.8699ZM137.293 43.7612C137.388 44.1851 137.575 44.5828 137.841 44.9259C138.107 45.2691 138.445 45.5493 138.832 45.7463C138.89 45.569 138.962 45.3966 139.048 45.2308C139.602 42.8149 137.178 41.93 137.293 43.7612Z" fill="#2B2D3E"/>
</svg>
