<svg width="136" height="136" viewBox="0 0 136 136" fill="none" xmlns="http://www.w3.org/2000/svg">
<path d="M112.833 129.801C111.609 129.563 98.1235 126.901 98.0542 126.888L97.791 128.565C115.283 132.012 112.158 131.397 112.54 131.474C112.757 131.502 112.977 131.445 113.153 131.315C113.329 131.186 113.449 130.993 113.486 130.777C113.524 130.562 113.477 130.34 113.356 130.158C113.234 129.976 113.047 129.848 112.833 129.801Z" fill="#9683D7"/>
<path d="M109.82 121.642L93.4316 123.081L93.6356 125.428C97.4858 125.088 108.305 124.136 110.077 123.985C111.403 123.868 111.131 121.531 109.82 121.642Z" fill="#9683D7"/>
<path d="M109.939 62.6632L109.651 62.5C108.098 64.8324 103.505 67.1144 106.108 70.0432C106.395 70.3628 106.735 70.63 107.115 70.832L107.071 70.9116C105.527 70.9367 104.004 69.1198 103.666 67.7951C102.902 64.7977 104.916 62.4945 105.175 59.75C104.633 59.5604 104.117 59.3019 103.641 58.981C103.497 57.8841 102.565 57.3326 101.472 56.0726C100.818 55.3178 99.8095 51.3384 97.6111 50.723L97.2391 50.519C96.7663 51.3561 96.3275 52.2121 95.924 53.0847C96.468 53.5342 95.4194 61.6976 94.9162 66.7527C92.949 86.5332 89.9012 91.6726 89.8842 91.7406C87.5226 90.0895 85.0758 88.5637 82.5538 87.1697C80.8246 86.2279 79.2402 85.0243 77.5266 84.058C76.4093 83.4283 75.1785 82.7932 74.0035 83.2291C72.8652 83.652 72.0995 84.7931 71.4521 85.8131C70.9219 86.6705 70.4463 87.5606 70.0282 88.478C69.5651 89.4572 68.2194 91.5441 68.6002 92.694C68.8722 93.51 69.9398 94.122 70.5953 94.6048C72.3266 95.8757 74.1313 97.0562 75.781 98.4461C80.4356 102.372 84.3721 107.145 88.5106 111.036C90.5139 112.92 93.5759 114.799 96.4612 114.039C99.7843 113.164 101.502 109.612 103.613 106.193C105.215 103.597 107.043 100.968 108.101 98.0939C108.815 96.1484 108.774 94.0336 109.609 92.1282C111.838 87.0446 114.765 82.6082 116.006 77.0662C116.959 72.7979 114.355 65.8755 109.939 62.6632Z" fill="#D6CBFF"/>
<path d="M98.0546 126.888L97.7962 128.535L93.9902 127.409L98.0546 126.888Z" fill="white"/>
<path d="M95.9355 57.1889C95.654 60.2856 95.229 63.2055 94.9774 66.1023C94.9583 66.3206 94.9427 66.5341 94.9175 66.7524L94.6401 66.7279C91.9051 67.735 88.7989 65.7855 87.2655 63.7006C86.7053 62.9338 86.2496 62.096 85.9103 61.2091C85.8418 60.9329 85.7435 60.665 85.6172 60.4101L85.7117 59.8545C87.4728 60.2175 89.2944 60.1644 91.0313 59.6992C92.7682 59.2341 94.3726 58.3699 95.7165 57.1753L95.9355 57.1889Z" fill="white"/>
<path d="M85.3198 62.5195C85.3198 62.5875 84.3406 72.6331 85.1654 77.6413C85.2001 77.8494 85.2123 78.2098 85.3891 78.3553C85.519 78.4635 85.7563 78.3989 85.9053 78.3805C86.2623 78.337 87.2204 78.4199 87.2748 77.929C87.2912 77.3329 87.253 76.7365 87.1605 76.1474C87.0565 74.7228 86.8926 73.3036 86.8382 71.879C86.8822 71.913 86.9325 71.938 86.9862 71.9525C87.0399 71.9669 87.0959 71.9706 87.151 71.9633C88.8163 71.7539 88.1608 70.0593 87.95 68.8272C87.3732 66.0802 86.5167 63.3995 85.3939 60.827C85.2579 61.1357 84.9424 61.4798 84.2522 62.9561C83.4206 65.0427 82.7195 67.1791 82.153 69.3528C81.9803 70.0328 81.5771 71.2765 82.5155 71.537C82.8228 71.622 83.6823 71.9599 83.9795 71.7301C84.159 71.5941 84.091 71.1698 84.0937 70.976C84.0979 68.25 84.3772 65.5314 84.9274 62.8615C84.9818 62.2597 85.1029 61.6647 85.2899 61.0901C85.3142 61.0377 85.3497 60.9913 85.3939 60.9541C85.4191 60.9541 85.5238 61.8082 85.5299 61.8626C85.5469 62.0761 85.5598 62.2944 85.5748 62.5086L85.3198 62.5195ZM94.6399 66.7287L94.9173 66.7525C94.1931 75.2437 93.0813 83.3975 90.0941 91.4277L89.8853 91.7404C87.5277 90.0833 85.0805 88.5573 82.5549 87.1695C80.8257 86.2277 79.2399 85.0255 77.5277 84.0578L77.6222 83.8844C76.1192 77.3713 75.8883 70.6291 76.9422 64.0284L77.0782 64.0536C77.0782 64.416 78.0105 64.6064 78.2389 64.6493C80.8909 65.1429 82.9847 63.5796 84.7057 61.5077C84.8023 61.3921 85.4449 60.3959 85.6135 60.4108C85.74 60.6658 85.8379 60.9337 85.9066 61.2098C86.2459 62.0967 86.7017 62.9346 87.2619 63.7013C88.7987 65.7855 91.9049 67.7351 94.6399 66.728V66.7287Z" fill="white"/>
<path d="M93.4327 123.08L93.6313 125.383L89.2793 125.254L93.4327 123.08Z" fill="white"/>
<path d="M103.433 39.0796C103.407 39.0871 103.382 39.0971 103.359 39.1095C102.992 39.2686 101.8 40.0615 101.77 40.0275C101.132 38.7953 102.425 36.295 103.062 35.0499C102.462 34.6558 101.97 34.1191 101.628 33.4877C101.287 32.8563 101.108 32.15 101.107 31.4323C98.1565 30.4712 95.6727 28.4409 94.1442 25.7407C93.9211 25.3279 93.6681 24.5289 93.1663 24.3651C92.5659 24.1713 91.6479 25.3225 91.2623 25.6258C90.02 26.6152 88.49 26.93 87.2673 25.8787C85.5204 24.3827 84.9444 21.6559 84.7908 19.3779C83.1234 20.8059 81.947 23.0397 81.0038 24.9811C78.394 30.362 75.9535 35.9223 77.4801 41.6554C78.2873 44.5425 79.7804 47.1917 81.8321 49.3775C81.9314 49.4815 82.0306 49.5862 82.1299 49.6801C81.9875 50.193 81.8928 50.7179 81.847 51.2482C81.6634 52.092 81.4649 52.9482 81.2167 53.7798L81.1324 53.7546C80.7522 53.9314 80.3436 54.0402 79.926 54.077L79.822 54.0328C79.5979 54.549 79.3862 55.0705 79.1869 55.5968L79.2964 55.641C79.2964 55.6614 79.3841 55.7661 79.4099 55.815C79.7329 56.325 80.1198 56.7922 80.5618 57.2043C84.1883 60.8192 91.0794 61.2979 95.7177 57.175L95.9366 57.1893C96.0244 56.1788 96.0828 54.7808 96.0652 53.6533C95.9768 53.0413 96.0876 53.1637 95.9292 53.0876C96.5956 51.6681 97.3395 50.2863 98.1575 48.9484C98.5867 48.0443 99.1674 47.2202 99.8745 46.512C100.544 45.9856 101.542 46.1346 102.326 45.9462C103.136 45.7323 103.876 45.3106 104.473 44.7231C105.07 44.1355 105.504 43.4023 105.731 42.5958C106.153 41.0046 105.536 38.643 103.433 39.0802V39.0796Z" fill="white"/>
<path d="M91.1653 44.668C91.2517 44.872 90.9327 45.0856 90.7981 45.174C90.2846 45.5064 89.7114 45.7357 89.1103 45.8492C87.5402 46.1572 85.8994 44.4695 84.8379 43.4624C84.9059 43.4624 89.8964 44.2498 89.9644 44.2607C90.252 44.3097 91.0245 44.3294 91.1653 44.6687V44.668Z" fill="white"/>
<path d="M86.8362 71.8762C86.4037 71.5485 86.3779 70.4074 86.3201 70.0205C85.7563 66.254 85.6231 63.0641 85.5258 61.8564C85.5217 61.802 85.417 60.948 85.3898 60.948C85.3456 60.9851 85.3101 61.0316 85.2858 61.084L85.2559 61.069C85.3082 60.9908 85.3538 60.9072 85.3919 60.8208C86.5147 63.3933 87.3712 66.074 87.948 68.821C88.1588 70.0518 88.8143 71.745 87.149 71.9572C87.0381 71.9727 86.9256 71.9436 86.8362 71.8762Z" fill="#9683D7"/>
<path d="M87.1608 76.1472C87.2533 76.7361 87.2914 77.3325 87.275 77.9288C87.2206 78.4198 86.2625 78.3368 85.9055 78.3804C85.7566 78.3987 85.5193 78.4633 85.3894 78.3552C85.2126 78.2097 85.2004 77.8493 85.1657 77.6412C84.6509 74.5132 84.8481 69.1847 85.0467 66.0377C85.3064 61.9169 85.3187 62.9695 85.3187 62.5194L85.5716 62.5044C85.7076 64.4002 85.8525 66.8754 86.3196 70.0232C86.3774 70.4101 86.3992 71.5566 86.8358 71.8789C86.8929 73.3042 87.0568 74.7226 87.1608 76.1472Z" fill="#9683D7"/>
<path d="M55.6228 89.4136C52.0827 95.3806 46.6781 104.971 41.0273 108.243C38.9961 109.419 36.0844 108.471 33.9451 107.587C29.3503 105.691 25.2411 102.669 21.2107 99.8054C18.9327 98.1877 16.5663 96.7175 14.2625 95.1311C13.774 94.7878 13.3546 94.3555 13.0263 93.8567C12.5938 93.0475 13.4431 92.9476 13.5383 92.9047C14.5495 92.3548 15.4895 91.6829 16.3372 90.9042C17.3286 90.029 18.4261 88.0407 19.6923 86.8922C20.1161 86.4572 20.6611 86.1598 21.2563 86.0388C23.2215 85.7668 25.6042 87.715 27.2111 88.6092C32.0663 91.3108 33.1318 91.1129 36.2687 91.6121L36.3278 91.2197C35.8613 90.5649 37.2077 89.0886 37.5688 88.6738C38.6384 87.4905 39.5144 86.1456 40.1644 84.689C40.4364 84.0484 39.3164 86.6249 42.0351 80.3315C65.6732 78.4275 63.9685 78.5867 64.0671 78.52C64.1617 78.7452 64.3154 78.9407 64.5119 79.0858C64.7084 79.2308 64.9405 79.3201 65.1836 79.3442L66.0377 79.3564C66.4457 80.3084 66.9305 85.8878 70.4441 86.9962L70.7025 87.1322C70.4711 87.5799 70.2478 88.0317 70.0327 88.4875C69.5683 89.466 68.2239 91.5536 68.6047 92.7035C68.8767 93.5195 69.9443 94.1315 70.5998 94.6143C72.3311 95.8852 74.1358 97.0657 75.7855 98.4556C79.7615 101.809 83.1009 105.691 86.7437 109.319L86.6839 109.374C78.5055 108.163 70.2523 107.344 62.0141 106.818C62.0672 105.857 58.1035 94.1015 55.7806 89.5122L55.6228 89.4136Z" fill="#D6CBFF"/>
<path d="M85.7112 59.856L85.6167 60.4116C85.448 60.3966 84.8054 61.3921 84.7089 61.5084C82.9851 63.5838 80.89 65.1437 78.2421 64.65C78.0136 64.6072 77.0813 64.4168 77.0813 64.0543L76.9453 64.0292C77.4065 61.1499 78.1583 58.3248 79.1893 55.5972L79.2988 55.6414C79.2988 55.6618 79.3865 55.7665 79.4124 55.8154C79.4899 55.9582 79.5796 56.0956 79.681 56.2234C81.1698 58.1416 83.3195 59.4366 85.7112 59.856Z" fill="white"/>
<path d="M85.2585 61.0752L85.2884 61.0902C85.1014 61.6654 84.9804 62.2598 84.926 62.8616C84.3772 65.5316 84.0979 68.2501 84.0923 70.976C84.0923 71.1698 84.1603 71.5921 83.9781 71.7301C83.6809 71.96 82.8221 71.622 82.514 71.537C81.5756 71.2766 81.9789 70.0356 82.1516 69.3528C82.7181 67.1791 83.4191 65.0428 84.2508 62.9561C84.5524 62.3114 84.8888 61.6835 85.2585 61.0752Z" fill="#9683D7"/>
<path d="M79.8207 54.0327C75.8842 63.1311 75.3844 74.1865 77.6223 83.8847L77.5277 84.0581C76.4132 83.4311 75.1953 82.8076 74.0047 83.2292L73.9795 83.0306C72.8629 79.4674 76.1494 71.8636 74.0638 69.383C73.4042 68.5989 72.5678 67.9937 71.9103 67.207C71.174 66.2033 70.3448 65.2712 69.4337 64.4231L69.4929 64.3551C69.1916 61.7445 69.1386 57.5374 70.0294 55.0098C70.9134 52.4938 74.1379 53.2051 76.2323 51.8682C77.4475 51.093 80.1532 48.6042 81.8308 49.3822C81.9301 49.4862 82.0293 49.5909 82.1286 49.6848C81.9866 50.1977 81.8919 50.7226 81.8457 51.2528C81.6621 52.0967 81.4636 52.9528 81.2154 53.7845L81.1311 53.7593C80.7509 53.9361 80.3423 54.0449 79.9247 54.0816L79.8207 54.0327Z" fill="#D6CBFF"/>
<path d="M87.9207 119.101C84.7988 118.114 75.6725 115.21 72.8587 114.318C72.5945 114.234 72.3163 114.203 72.0401 114.227C71.764 114.252 71.4956 114.332 71.2505 114.461C69.4539 115.419 65.0074 117.776 63.0619 118.813C62.7784 118.962 62.5414 119.186 62.3768 119.461C62.2123 119.736 62.1265 120.051 62.129 120.371V121.969C62.129 122.162 62.1876 122.35 62.2969 122.508C62.4061 122.667 62.561 122.789 62.741 122.858C65.2767 123.84 74.9293 127.582 77.5446 128.595C77.7474 128.673 77.9659 128.703 78.1823 128.681C78.3987 128.66 78.607 128.587 78.7903 128.47L88.4232 122.346C88.563 122.258 88.679 122.137 88.7612 121.993C88.8433 121.85 88.8891 121.688 88.8944 121.523C88.9019 121.405 88.8842 121.766 88.9346 120.55C88.9451 120.231 88.8519 119.918 88.6691 119.657C88.4863 119.395 88.2237 119.201 87.9207 119.101Z" fill="#D6CBFF"/>
<path d="M116.818 48.9171C116.778 46.2515 117.939 43.8355 117.214 41.1447C116.212 37.4564 113.684 36.3847 112.844 36.0984C113.569 33.6028 115.116 31.5003 115.13 28.7436C115.17 22.5501 110.157 16.9796 104.887 14.3956C100.37 12.1767 93.5616 9.43769 88.5045 11.2091C86.202 12.0135 84.7475 14.0433 82.564 15.0402C80.5192 15.9684 78.1222 16.1173 76.291 17.5073C74.9589 18.563 74.0188 20.0344 73.6206 21.6868C73.2224 23.3392 73.389 25.0774 74.0939 26.624C74.5624 27.6497 75.2532 28.5584 76.1162 29.2842C75.8585 30.9216 76.0958 30.3769 71.5317 36.8716C70.1921 38.7756 68.7824 40.8965 69.5712 43.3085C70.003 44.6338 71.512 45.919 71.3236 47.398C71.0203 49.778 68.1956 51.646 69.7004 54.5149L69.7603 54.9066L70.0282 55.0058C70.8299 52.549 74.2014 53.1631 76.2312 51.8643C77.4477 51.0904 80.152 48.6002 81.8296 49.3782C79.7779 47.1924 78.2849 44.5432 77.4776 41.6561C76.0999 36.4813 77.8448 31.7465 80.2772 26.5043C81.4332 23.9985 82.8265 21.0534 84.7883 19.3779C84.942 21.6559 85.5179 24.3854 87.2648 25.8787C88.4732 26.9184 89.9978 26.6267 91.2598 25.6265C91.6468 25.3232 92.5648 24.1713 93.1639 24.3657C93.665 24.5289 93.9187 25.3286 94.1417 25.7407C95.6704 28.4408 98.1541 30.4711 101.104 31.4323C101.131 32.5148 101.371 33.7259 103.06 35.0499C102.401 36.3011 101.117 38.7688 101.768 40.0275C101.768 40.0275 103.258 39.1292 103.43 39.0802C105.53 38.6437 106.15 41.0012 105.723 42.5938C105.496 43.4001 105.063 44.1333 104.466 44.7208C103.869 45.3084 103.129 45.73 102.319 45.9442C101.535 46.1325 100.537 45.9836 99.8673 46.5099C99.1602 47.2182 98.5794 48.0422 98.1503 48.9464C97.8375 49.4625 97.5301 49.9888 97.237 50.5199L97.609 50.7239C99.8075 51.3393 100.815 55.3193 101.47 56.0734C102.562 57.3342 103.495 57.885 103.639 58.9818C104.115 59.3023 104.631 59.5606 105.173 59.7502C104.914 62.4954 102.899 64.7985 103.664 67.796C104.004 69.1206 105.525 70.9376 107.068 70.9124L107.113 70.8328C106.735 70.629 106.394 70.3623 106.106 70.044C103.53 67.0908 108.096 64.8332 109.649 62.5008C110.912 63.3247 112.002 64.3886 112.855 65.6322L112.904 65.5975C112.233 62.8095 113.72 61.1823 114.491 59.4354C115.232 59.4673 116.939 59.3286 118.135 57.1703C119.874 54.0341 116.862 51.9397 116.818 48.9171Z" fill="#2B2D3E"/>
<path d="M63.8202 75.2764L63.4877 75.0928C62.7084 73.9612 62.7675 73.0922 63.368 72.4224L63.0756 72.0402C62.4105 70.7598 62.741 69.8132 63.5319 69.2067C64.7585 68.3881 66.2525 68.0716 67.7057 68.3227C68.2279 68.4111 68.7481 68.5308 69.2643 68.645C68.6475 67.7211 67.7837 66.989 66.7712 66.5321C65.7586 66.0753 64.6381 65.912 63.5373 66.061C62.5479 66.2324 60.699 66.7723 60.1373 65.925C59.6246 65.1484 60.7622 64.3556 61.3239 64.0985C63.0294 63.3949 64.8842 63.1305 66.7183 63.3294C67.7143 63.401 68.6632 63.7813 69.4329 64.4174C70.344 65.2656 71.1732 66.1977 71.9095 67.2014C72.5643 67.9902 73.4055 68.596 74.063 69.3774C76.1486 71.858 72.8621 79.4618 73.9787 83.025L74.0039 83.2235C72.8526 83.6716 72.1237 84.742 71.4525 85.8075C71.1857 86.235 70.9342 86.6719 70.6984 87.1172L70.44 86.9812C66.9332 85.8748 66.4457 80.2954 66.0336 79.3414L65.1795 79.3292C64.9364 79.305 64.7044 79.2157 64.5079 79.0707C64.3113 78.9256 64.1576 78.7302 64.0629 78.505C63.6636 77.7287 63.4759 76.8609 63.5189 75.989C63.5651 75.732 63.668 75.4885 63.8202 75.2764Z" fill="white"/>
<path d="M65.2237 55.9183C66.7655 55.7315 68.2851 55.3924 69.76 54.9058L70.0279 55.005C69.1337 57.3674 69.1983 61.8091 69.4914 64.3503L69.4322 64.4183C68.6625 63.7822 67.7136 63.4019 66.7177 63.3303C66.1295 63.2839 65.5393 63.2705 64.9497 63.2902C64.9497 63.2902 64.7858 60.0146 64.5723 55.9502C64.7899 55.9516 65.0075 55.9407 65.2237 55.9183Z" fill="#D6CBFF"/>
<path d="M69.2652 68.6487C67.7882 68.3223 66.7927 68.0503 65.245 68.4304C65.2376 68.3842 65.245 68.4352 65.1016 66.0776C65.9398 66.1811 66.7457 66.4644 67.4643 66.9082C68.1829 67.3519 68.7972 67.9456 69.2652 68.6487Z" fill="#D6CBFF"/>
<path d="M65.244 68.4306C64.6235 68.5633 64.0393 68.8291 63.5317 69.2099L63.3828 66.0928C63.9499 65.9852 64.5317 65.9803 65.1005 66.0785C65.2413 68.4354 65.2365 68.3844 65.244 68.4306Z" fill="#9683D7"/>
<path d="M64.9515 63.2932C64.3674 63.3157 63.7867 63.3857 63.2141 63.502L63.1597 63.249C63.1597 63.249 62.3757 46.3606 62.0629 46.3606C57.8992 46.9556 58.2617 43.4223 58.2617 43.4223C58.2617 43.4223 14.8355 47.15 14.926 47.3826C16.4471 51.3001 12.1665 51.7645 12.1665 51.7645L14.3901 70.7821L14.0875 70.8501C13.547 70.4304 12.9374 70.1082 12.2862 69.8981C12.3168 69.8063 12.5582 71.477 9.06504 46.5584C9.03769 46.3653 9.04978 46.1687 9.10058 45.9804C9.15139 45.7921 9.23985 45.6161 9.36062 45.463C9.48139 45.3099 9.63196 45.1828 9.80322 45.0896C9.97449 44.9963 10.1629 44.9387 10.357 44.9203C18.2083 44.1852 54.4149 40.8158 62.2533 40.0522C62.4469 40.0341 62.6422 40.0552 62.8275 40.1144C63.0128 40.1735 63.1842 40.2695 63.3315 40.3964C63.4788 40.5234 63.599 40.6789 63.6848 40.8534C63.7706 41.0279 63.8203 41.218 63.8309 41.4122C63.8928 42.4417 64.9515 63.0865 64.9515 63.2932Z" fill="#9683D7"/>
<path d="M64.0624 78.5149C63.9625 78.5829 66.3561 78.3701 14.0675 82.5745C14.0345 82.1176 13.9545 81.6652 13.8288 81.2247L13.9383 81.1948C15.5166 79.0562 14.6863 77.1304 13.1441 75.8228C12.8632 73.7991 12.8802 74.0269 12.9163 73.9419C13.5174 74.2783 14.1845 74.4799 14.8713 74.5328L15.6505 78.1851C15.6505 78.1851 17.8945 77.1481 18.1713 80.6467C66.6349 75.801 63.0336 76.1403 63.5021 76.1587C63.4942 76.978 63.6866 77.7868 64.0624 78.5149Z" fill="#9683D7"/>
<path d="M63.4889 75.0953L63.8214 75.2789C63.6344 75.5373 63.5243 75.8426 63.5039 76.1602C63.0347 76.1452 66.6115 75.8086 18.173 80.6482C17.8956 77.1496 15.6523 78.1866 15.6523 78.1866L14.873 74.5343C15.0423 74.533 15.2096 74.4976 15.3646 74.4303C15.5259 74.3372 15.6533 74.1951 15.7283 74.0246C15.8033 73.8541 15.8219 73.6642 15.7815 73.4824C15.6926 72.952 15.4968 72.4453 15.2058 71.9931C14.9148 71.5409 14.5348 71.1527 14.089 70.8521L14.3916 70.7841L12.168 51.7666C12.168 51.7666 16.4486 51.3021 14.9274 47.3846C14.837 47.1521 58.2631 43.4243 58.2631 43.4243C58.2631 43.4243 57.9007 46.9603 62.0643 46.3626C62.3771 46.3626 63.1612 63.2511 63.1612 63.2511L63.2156 63.504C62.5634 63.6271 61.929 63.8291 61.3252 64.1045C60.7635 64.3615 59.6252 65.1544 60.1386 65.931C60.688 66.7619 62.5009 66.271 63.3842 66.0942L63.5331 69.2113C62.7491 69.8267 62.4118 70.7644 63.0768 72.0448L63.3692 72.427C62.7688 73.0948 62.7096 73.9638 63.4889 75.0953Z" fill="white"/>
<path d="M51.7262 25.3097C52.0934 25.2988 52.6245 25.2417 52.8278 24.882C53.3935 23.8892 51.6915 23.0528 50.9999 22.8569C50.6839 22.7666 50.355 22.7298 50.0269 22.7481C49.9922 22.7481 49.5556 22.8073 49.5658 22.7685C49.7018 22.2245 51.0577 21.5561 51.6153 19.3087C51.6689 19.1077 51.6794 18.8976 51.646 18.6923C51.6126 18.4869 51.5361 18.291 51.4215 18.1173C51.0543 17.7005 50.4838 17.929 50.1214 18.2221C49.2578 18.9265 48.7763 19.9901 47.8488 20.6483C46.3991 21.6683 44.4488 21.1352 42.8556 21.5969C42.8066 21.6649 41.8118 22.1933 41.1835 24.3713C41.0415 24.7201 41.0239 25.1072 41.1338 25.4675C41.3569 25.9537 42.0178 25.9788 42.2701 26.4501C42.6971 27.2661 42.6781 28.114 43.5709 28.6091C44.3703 29.0369 45.2703 29.2408 46.176 29.1993C46.3841 29.3088 46.5038 29.6365 46.6575 29.7997C47.033 30.2337 47.5475 30.5239 48.1131 30.6208C48.6787 30.7176 49.2605 30.6151 49.7589 30.3308C50.0568 30.1132 50.3546 29.5665 49.9874 29.2836L49.9922 29.2047C50.6613 29.2319 51.5439 29.0932 51.6847 28.4404C51.7296 28.2119 51.7391 27.6659 51.3447 27.4578V27.4279C51.7259 27.4403 52.1047 27.3637 52.4511 27.2042C53.1032 26.8961 52.7741 26.1726 52.3273 25.8347C52.0743 25.6356 51.8008 25.4642 51.5113 25.3233V25.3097H51.7262Z" fill="#D6CBFF"/>
<path d="M63.0557 112.54L63.0306 112.545C63.0211 112.5 63.0115 112.455 63.0007 112.416C62.9456 112.224 62.8335 112.054 62.6793 111.929C62.5251 111.803 62.3362 111.727 62.1377 111.711C55.0358 111.126 35.2043 109.488 28.6933 108.952C27.3242 108.838 25.9519 109.131 24.7493 109.796C19.5133 112.674 4.9681 120.676 4.9681 120.676C4.9681 120.676 3.86106 121.743 5.8317 122.531L47.0676 127.162L63.7473 114.165C63.7473 114.165 64.1526 112.887 63.0557 112.54Z" fill="white"/>
<path fill-rule="evenodd" clip-rule="evenodd" d="M64.0718 114.267C64.0506 114.333 64.0104 114.391 63.9562 114.433L47.2764 127.431C47.2064 127.485 47.1178 127.51 47.0296 127.5L5.79441 122.869C5.76405 122.866 5.7343 122.858 5.70601 122.847C5.18241 122.638 4.82541 122.395 4.60305 122.125C4.37321 121.845 4.29977 121.55 4.32221 121.28C4.34397 121.021 4.45073 120.809 4.54117 120.67C4.58741 120.598 4.63229 120.542 4.66697 120.502C4.68397 120.481 4.69893 120.466 4.70981 120.453L4.72409 120.439L4.72885 120.434L4.73089 120.432L4.73157 120.432C4.73157 120.432 4.73225 120.431 4.96821 120.676L5.20417 120.921L5.20485 120.92L5.20553 120.919L5.20213 120.923C5.16852 120.959 5.13804 120.998 5.11101 121.04C5.05072 121.128 5.01269 121.23 5.00017 121.336C4.99201 121.431 5.01173 121.551 5.12801 121.693C5.24837 121.839 5.48161 122.019 5.91681 122.199L46.9684 126.809L63.4462 113.969L63.4584 113.904C63.4761 113.798 63.4883 113.659 63.4747 113.516C63.4651 113.38 63.4212 113.248 63.3469 113.133C63.2755 113.03 63.1599 112.93 62.9532 112.865L63.1585 112.216C63.5006 112.325 63.7447 112.513 63.9065 112.748C64.065 112.977 64.1296 113.229 64.1513 113.449C64.1759 113.716 64.1512 113.986 64.0786 114.244L64.0738 114.259L64.0724 114.265V114.266L64.0718 114.267Z" fill="#2B2D3E"/>
<path d="M40.2376 10.6684C40.3641 11.2804 41.0223 13.2143 40.4164 13.7399C40.0084 14.0929 39.5277 13.8943 39.3794 13.3483C39.1006 12.3283 39.1475 10.9451 38.5403 10.1468C37.8018 9.17577 36.7669 11.0988 35.9005 5.21885C35.8929 5.02285 35.9061 4.82659 35.94 4.63337C37.3591 3.87857 37.3258 6.87057 37.8256 7.89737C38.1493 8.56241 38.8456 8.33869 39.3298 8.66577C39.8758 9.03977 40.0866 9.93737 40.2376 10.6684Z" fill="#D6CBFF"/>
<path d="M37.8843 14.7179C38.2121 15.249 39.4891 16.8483 39.0954 17.5467C38.8288 18.0227 38.3107 17.9934 37.9836 17.527C37.3777 16.6634 36.9507 15.351 36.1075 14.8022C35.1861 14.2052 34.7869 15.9242 32.6585 12.3012C32.2548 11.7635 31.9613 11.1513 31.7949 10.4998C32.8768 9.30372 33.8608 12.1318 34.6781 12.9315C35.2051 13.447 35.7852 12.9995 36.3509 13.1444C36.9915 13.3082 37.4926 14.0828 37.8843 14.7179Z" fill="#D6CBFF"/>
<path d="M35.0204 24.7772C35.2476 25.1607 31.4532 29.4882 29.2336 32.266C28.6088 33.1994 27.8515 34.0368 26.9856 34.7521C26.802 34.8765 25.7548 35.2335 25.8935 34.6229C26.5643 33.5986 27.3074 32.6235 28.1171 31.705C29.9932 29.5861 32.8886 26.6152 34.2017 25.3525C34.3078 25.2518 34.9484 24.6527 35.0204 24.7772Z" fill="#9683D7"/>
<path d="M32.247 25.3286C32.2668 25.4578 32.0988 25.6564 32.0335 25.7502C31.7587 26.1372 31.4618 26.508 31.1441 26.8606C29.9976 28.1526 28.8906 29.5011 27.7148 30.7666C27.457 31.0912 27.1347 31.3589 26.7683 31.5526C26.2671 31.7566 25.87 31.3289 25.8652 30.8427C26.5548 30.1178 27.9297 28.9272 28.6444 28.2274C29.6018 27.2408 30.6337 26.3292 31.7309 25.5006C31.7751 25.4721 32.2219 25.1647 32.247 25.3286Z" fill="#9683D7"/>
<path d="M32.0032 22.9909C31.9563 23.6793 31.6596 24.3269 31.1688 24.812C30.8467 25.0534 30.4437 25.1608 30.0442 25.1117C29.6447 25.0627 29.2796 24.8609 29.0255 24.5488C27.9672 23.3825 27.3112 21.9073 27.1541 20.3403C27.0739 19.5923 27.0181 18.5832 27.5166 18.1643C29.224 16.7342 32.2541 19.5161 32.0032 22.9902V22.9909ZM30.4045 23.6165C30.615 23.2117 30.6732 22.7448 30.5684 22.3007C30.4636 21.3292 30.1286 20.3968 29.5912 19.5807C29.3795 19.2178 29.0504 18.9379 28.6583 18.7872C28.0871 18.6382 28.0619 19.338 28.0674 19.4719C28.1802 22.1851 29.8272 24.3441 30.4045 23.6158V23.6165Z" fill="#9683D7"/>
<path d="M26.8466 22.6844C27.3508 23.7769 27.5281 24.992 27.3573 26.183C27.2471 26.9038 26.8065 27.9796 25.8933 27.8606C25.5962 27.7859 25.3184 27.6491 25.0781 27.4592C24.8378 27.2694 24.6405 27.0307 24.4993 26.759C23.8278 25.5145 23.4652 24.1269 23.4419 22.713C23.4262 22.2105 23.4527 21.7079 23.5214 21.2095C23.535 21.1204 23.6799 20.7083 24.2259 20.9117C24.3225 21.2401 24.3687 21.5815 24.3619 21.9242C24.4931 23.5235 24.4829 24.4041 25.0813 25.5717C25.8293 26.7277 26.7378 24.2953 25.7566 22.8272C25.5689 22.5464 25.1201 22.22 25.1262 21.8548C25.1337 21.438 25.7219 21.3686 26 21.5373C26.3919 21.8251 26.6871 22.2251 26.8466 22.6844Z" fill="#9683D7"/>
<path d="M24.0722 30.8045C24.1225 31.0126 24.4449 32.0666 24.0675 32.1788C23.7193 32.2829 23.1345 30.9875 23.0005 30.6502C21.6059 27.1502 21.8867 26.747 21.2631 25.3598C21.119 25.1265 20.9299 25.2401 20.7919 25.4149C20.4764 25.8133 19.6413 27.3053 19.4319 26.8143C19.3556 26.4437 19.4034 26.0582 19.5679 25.7175C19.8399 24.8634 20.1969 24.0392 20.6341 23.2566C20.7185 23.1076 21.1156 22.2841 21.4236 22.2046C21.7374 22.6821 21.9735 23.2063 22.1233 23.7577C22.3756 24.6471 22.6544 25.5257 22.8822 26.4233C23.2562 27.8894 23.7173 29.3317 24.0722 30.8045Z" fill="#9683D7"/>
<path d="M19.3444 86.5095C19.1023 84.1614 18.3611 83.7779 17.9946 82.2615L14.0689 82.5743C14.0374 82.1172 13.9573 81.6647 13.8302 81.2245L13.9397 81.1946C15.4996 79.0798 14.7027 77.1737 13.1978 75.8695C13.1536 75.5682 13.0149 74.6366 12.9177 73.9437C13.5152 74.2884 14.1842 74.4906 14.8727 74.5347C15.0079 74.5461 15.1439 74.5255 15.2696 74.4744C15.3954 74.4234 15.5073 74.3434 15.5962 74.2409C15.6849 74.1382 15.7479 74.0159 15.78 73.8841C15.8122 73.7523 15.8126 73.6147 15.7812 73.4827C15.6663 72.6828 15.2852 71.9449 14.6993 71.3883C13.0918 69.8352 10.9246 69.1314 8.96212 70.1228C7.70888 70.7743 7.57424 72.8666 7.80612 74.1913C6.71812 74.5374 6.68888 75.8232 6.52228 76.8623C6.35246 77.8962 5.97968 78.8863 5.42544 79.7754C4.90932 80.654 3.03864 83.0394 3.465 84.1954C3.86212 85.2834 5.165 85.8233 5.9266 86.6869C6.76028 87.6301 7.2866 88.9602 8.21004 89.7884C9.92704 91.3368 13.1972 91.57 15.3861 91.5503L15.4602 91.64C15.7628 91.4014 16.0559 91.1586 16.3388 90.905C17.3363 90.0366 18.4284 88.0415 19.6939 86.893L19.3444 86.5095Z" fill="white"/>
<path d="M89.1763 121.055C88.6995 120.415 88.0055 119.972 87.2247 119.807C86.7391 119.666 86.2261 119.648 85.7321 119.756C85.6313 119.762 85.5333 119.791 85.445 119.84C85.3568 119.889 85.2806 119.957 85.2221 120.039C85.1952 120.091 85.1826 120.15 85.1855 120.209C85.1883 120.268 85.2066 120.325 85.2384 120.375C85.2702 120.425 85.3145 120.466 85.3669 120.493C85.4193 120.52 85.4779 120.533 85.5369 120.531C85.6158 120.529 85.6914 120.499 85.7504 120.447C86.1623 120.335 86.5966 120.335 87.0084 120.447L85.7164 121.209C85.0835 120.934 84.3834 120.851 83.7036 120.97C83.4996 121.011 83.1488 121.078 83.078 121.387C83.0656 121.443 83.0675 121.501 83.0835 121.556C83.0995 121.611 83.1292 121.661 83.1697 121.702C83.2102 121.742 83.2603 121.772 83.3154 121.788C83.3704 121.804 83.4287 121.806 83.4847 121.794C83.5598 121.777 83.6269 121.735 83.6751 121.675C84.088 121.564 84.5227 121.563 84.9365 121.67L83.2671 122.659C82.4191 122.312 80.9007 122.154 80.5539 123.006C80.5204 123.09 80.5212 123.183 80.5562 123.266C80.5912 123.349 80.6576 123.415 80.7409 123.45C80.7822 123.467 80.8266 123.475 80.8713 123.475C80.916 123.475 80.9602 123.466 81.0014 123.448C81.0426 123.431 81.08 123.406 81.1114 123.374C81.1427 123.342 81.1675 123.304 81.1842 123.263C81.2692 123.05 81.9363 123.016 82.4762 123.127L81.0176 123.988C79.8745 123.432 78.7573 123.821 78.5819 124.178C78.5581 124.235 78.5459 124.296 78.5459 124.358C78.5459 124.42 78.5581 124.481 78.5819 124.538C78.6043 124.58 78.6352 124.617 78.6728 124.646C78.7103 124.676 78.7536 124.697 78.7998 124.709C78.846 124.72 78.8942 124.722 78.9412 124.714C78.9883 124.706 79.0331 124.688 79.0728 124.662C79.1259 124.626 79.1678 124.576 79.1939 124.518C79.5298 124.382 79.9004 124.355 80.2526 124.441L78.2806 125.606L63.715 120.704C63.6728 120.69 63.628 120.684 63.5834 120.687C63.5387 120.69 63.4952 120.702 63.4553 120.722C63.415 120.742 63.3791 120.769 63.3497 120.803C63.3202 120.836 63.2979 120.876 63.2839 120.918C63.2694 120.96 63.2634 121.005 63.2663 121.05C63.2692 121.094 63.281 121.138 63.3008 121.178C63.3207 121.218 63.3483 121.254 63.382 121.283C63.4158 121.313 63.455 121.335 63.4974 121.349L77.974 126.222L77.9359 127.628C77.9345 127.672 77.9421 127.717 77.9581 127.758C77.9741 127.8 77.9982 127.838 78.029 127.87C78.0596 127.903 78.0963 127.929 78.1371 127.948C78.1779 127.966 78.2219 127.976 78.2666 127.977C78.3113 127.979 78.3558 127.971 78.3975 127.955C78.4393 127.939 78.4774 127.915 78.5098 127.884C78.575 127.822 78.6131 127.737 78.6159 127.647L78.656 126.176L81.0183 124.78C81.3392 125.031 81.5953 125.355 81.7654 125.724C81.9354 126.094 82.0143 126.499 81.9955 126.906C81.9997 127.14 81.9336 127.37 81.8057 127.566C81.6778 127.762 81.494 127.916 81.2781 128.006C81.1353 128.067 80.9816 128.099 80.8259 128.099C80.5278 128.118 80.2289 128.085 79.9419 128.002C79.8565 127.978 79.7652 127.989 79.6875 128.032C79.6098 128.074 79.552 128.146 79.5264 128.231C79.5005 128.315 79.5087 128.407 79.5492 128.486C79.5898 128.564 79.6594 128.624 79.7433 128.652C80.0903 128.755 80.4522 128.798 80.8136 128.779C81.2422 128.779 81.6575 128.631 81.9896 128.36C82.3218 128.089 82.5505 127.712 82.6374 127.292C82.8632 127.334 83.0957 127.325 83.3174 127.266C83.7965 127.211 84.2445 127.001 84.5929 126.668C84.9413 126.334 85.1709 125.896 85.2465 125.42C85.2928 125.463 85.3485 125.496 85.4091 125.515C85.4701 125.533 85.5345 125.538 85.5974 125.528C86.0403 125.557 86.4796 125.431 86.8396 125.172C87.1996 124.912 87.4577 124.535 87.5694 124.105C87.6228 124.125 87.6804 124.131 87.7367 124.122C87.9941 124.103 88.2451 124.034 88.4752 123.917C88.7053 123.8 88.9097 123.638 89.0767 123.442C89.2436 123.245 89.3697 123.017 89.4475 122.771C89.5253 122.525 89.5533 122.266 89.5299 122.009C89.4987 121.665 89.3767 121.336 89.1763 121.055ZM83.1923 126.599C83.0223 126.646 82.8434 126.648 82.6728 126.606C82.6247 125.769 82.2525 124.983 81.6351 124.415L83.3072 123.429C83.8577 123.698 84.2899 124.16 84.5217 124.727C84.5794 124.939 84.5895 125.161 84.5513 125.377C84.513 125.593 84.4274 125.798 84.3006 125.977C84.1737 126.156 84.0088 126.304 83.8176 126.412C83.6265 126.52 83.4138 126.584 83.195 126.599H83.1923ZM85.509 124.846C85.4628 124.843 85.4165 124.851 85.3734 124.868C85.3303 124.885 85.2912 124.911 85.2588 124.944C85.1878 124.554 85.0375 124.183 84.8172 123.855C84.5969 123.526 84.3114 123.245 83.9784 123.031L85.7463 121.984C86.2604 122.251 86.6541 122.704 86.8486 123.25C87.1696 124.192 86.5086 124.889 85.5117 124.849L85.509 124.846ZM88.7608 122.67C88.6487 122.879 88.4884 123.059 88.293 123.195C88.0977 123.33 87.873 123.417 87.6374 123.449C87.6238 123.449 87.6102 123.454 87.5966 123.458C87.5326 123.084 87.3946 122.726 87.1909 122.406C86.9872 122.085 86.7217 121.809 86.41 121.592L87.8271 120.757C88.5656 121.156 89.1389 121.919 88.7635 122.673L88.7608 122.67Z" fill="#2B2D3E"/>
<path d="M76.0834 123.217C76.0231 123.258 75.9775 123.317 75.9532 123.385C75.9289 123.454 75.9271 123.528 75.9483 123.598C75.9694 123.668 76.0123 123.729 76.0706 123.772C76.129 123.816 76.1997 123.839 76.2725 123.84C76.4193 123.84 76.0515 124.091 82.5353 119.615C82.6665 119.554 82.8855 119.451 82.8753 119.2C82.8727 119.146 82.8578 119.093 82.8316 119.046C82.8054 118.999 82.7687 118.958 82.7242 118.927C82.6797 118.896 82.6288 118.876 82.5753 118.868C82.5217 118.86 82.4671 118.865 82.4156 118.881C82.3468 118.903 82.2863 118.945 82.2422 119.002C82.0599 119.086 77.6433 122.172 76.0834 123.217Z" fill="#2B2D3E"/>
<path d="M79.8919 118.524C79.6695 118.472 79.4689 118.629 79.2527 118.802C78.9195 119.027 74.3621 122.254 73.6502 122.75C73.6133 122.775 73.5819 122.808 73.5577 122.846C73.5335 122.883 73.517 122.925 73.5091 122.969C73.5013 123.014 73.5023 123.059 73.512 123.102C73.5218 123.146 73.5401 123.187 73.5659 123.224C73.5912 123.261 73.6236 123.292 73.6612 123.317C73.6988 123.341 73.7408 123.357 73.7849 123.365C73.8289 123.373 73.8741 123.372 73.9177 123.362C73.9614 123.353 74.0027 123.334 74.0392 123.308C74.7538 122.81 79.8191 119.22 79.8633 119.192C79.9417 119.18 80.0136 119.142 80.0668 119.083C80.12 119.024 80.1512 118.949 80.1551 118.87C80.1581 118.791 80.1336 118.713 80.0856 118.65C80.0376 118.587 79.9691 118.542 79.8919 118.524Z" fill="#2B2D3E"/>
<path d="M77.5508 117.288C77.4658 117.373 77.5984 117.291 77.1557 117.623C76.6233 118.021 72.6106 120.982 71.1493 121.896C71.0868 121.935 71.0387 121.993 71.0124 122.062C70.9862 122.131 70.9831 122.206 71.0038 122.277C71.0242 122.348 71.067 122.41 71.1255 122.455C71.1801 122.496 71.2463 122.52 71.3149 122.523C71.3836 122.526 71.4516 122.508 71.5097 122.472C72.6181 121.779 73.6857 120.999 74.722 120.243C78.0826 117.789 78.1125 117.821 78.1309 117.556C78.1364 117.486 78.1206 117.417 78.0854 117.357C78.0503 117.296 77.9976 117.248 77.9343 117.219C77.871 117.19 77.8003 117.181 77.7317 117.193C77.6631 117.205 77.5999 117.239 77.5508 117.288Z" fill="#2B2D3E"/>
<path d="M74.4506 116.983C73.7026 117.294 70.1102 119.947 68.2667 120.927C68.2272 120.948 68.1923 120.976 68.1638 121.011C68.1354 121.045 68.114 121.085 68.1009 121.128C68.0878 121.171 68.0832 121.215 68.0875 121.26C68.0917 121.304 68.1047 121.348 68.1256 121.387C68.1466 121.427 68.1751 121.461 68.2095 121.49C68.244 121.518 68.2837 121.54 68.3264 121.553C68.3691 121.566 68.414 121.571 68.4585 121.566C68.503 121.562 68.5462 121.549 68.5856 121.528C70.0633 120.743 71.428 119.735 72.8288 118.808C72.9866 118.703 74.5186 117.699 74.7036 117.62C74.8539 117.556 75.1055 117.447 75.0545 117.168C75.0417 117.105 75.012 117.046 74.9686 116.998C74.9251 116.95 74.8695 116.915 74.8077 116.896C74.7458 116.877 74.68 116.875 74.6171 116.89C74.5543 116.906 74.4968 116.938 74.4506 116.983Z" fill="#2B2D3E"/>
<path d="M66.1109 119.952C66.0343 120.004 65.9813 120.083 65.9633 120.173C65.9545 120.218 65.955 120.264 65.9645 120.309C65.9741 120.354 65.9927 120.396 66.019 120.433C66.0454 120.471 66.0791 120.502 66.118 120.526C66.1569 120.55 66.2003 120.566 66.2455 120.573C66.2906 120.58 66.3368 120.578 66.3811 120.567C66.4254 120.555 66.467 120.535 66.5032 120.507C67.921 119.505 70.2983 117.947 72.6117 116.418L72.2798 115.824C71.7793 116.106 66.5774 119.625 66.1109 119.952Z" fill="#2B2D3E"/>
<path d="M132.723 120.897C122.15 116.764 111.232 113.576 100.095 111.372C100.025 111.353 99.9504 111.355 99.8805 111.376C99.8106 111.397 99.748 111.437 99.6997 111.492C98.8589 112.566 97.6962 113.343 96.382 113.708C93.1425 114.56 89.954 111.923 88.7436 110.788C86.998 109.143 85.147 107.21 83.511 105.497C78.1696 99.907 76.4723 98.2526 70.4176 94.0624C69.8348 93.6585 69.1093 93.156 68.9216 92.5855C68.5945 91.6035 69.8994 89.5411 70.3366 88.6231C70.7493 87.7189 71.218 86.8413 71.7402 85.9956C73.6578 82.9444 74.8002 82.9179 77.3597 84.3534C79.0713 85.321 80.6359 86.5294 82.3917 87.4664C85.9365 89.4337 88.0228 90.897 90.2185 92.3747C93.7613 94.7601 98.0528 95.7066 100.644 99.1026C100.685 99.1558 100.741 99.1958 100.804 99.2178C100.868 99.2397 100.937 99.2427 101.002 99.2263C101.045 99.2156 101.086 99.1961 101.122 99.1691C101.158 99.1421 101.188 99.1082 101.21 99.0693C101.255 98.9909 101.268 98.8979 101.246 98.8102C101.235 98.7668 101.215 98.7261 101.188 98.6905C100.522 97.8297 99.7359 97.0686 98.8545 96.4302C100.109 96.3031 101.376 96.3634 102.614 96.609C102.7 96.6231 102.788 96.6034 102.861 96.5539C102.933 96.5045 102.983 96.4292 103.002 96.3436C103.02 96.2579 103.004 96.1686 102.958 96.0941C102.912 96.0196 102.84 95.9656 102.755 95.9433C101.212 95.6164 99.6203 95.5977 98.0704 95.8882C97.8116 95.7204 97.5488 95.5588 97.2823 95.4034C101.926 92.8194 104.369 88.2137 103.702 83.2429C103.628 82.119 103.365 81.0156 102.924 79.9789C102.893 79.9183 102.845 79.8683 102.785 79.8357C102.726 79.803 102.657 79.7892 102.59 79.796C102.545 79.7999 102.501 79.8131 102.462 79.8348C102.402 79.8663 102.352 79.9153 102.32 79.9754C102.289 80.0355 102.276 80.1038 102.284 80.1714C102.289 80.2163 102.303 80.2598 102.325 80.2992C102.724 81.2661 102.962 82.2925 103.027 83.3368C103.682 88.2239 101.283 92.5773 96.5799 95.0103C94.3413 93.7931 92.5679 93.1424 90.3579 91.6484C90.3835 91.6187 90.4035 91.5846 90.417 91.5478C93.4811 83.313 94.5712 75.0047 95.3035 66.3341C95.4966 64.0438 96.8063 53.6901 96.3657 52.9564C96.673 52.3057 97.0083 51.6515 97.3857 50.9715C97.4257 51.0096 97.4745 51.0372 97.5278 51.0517C99.5114 51.6073 100.542 55.5139 101.224 56.2966C102.303 57.5437 103.187 58.0748 103.309 59.0057C103.349 59.6049 103.244 60.205 103.002 60.7547C102.092 62.979 101.481 65.3144 101.186 67.6995C100.954 70.1523 101.195 72.9008 100.423 75.2067C99.9187 76.7081 97.2592 76.6313 96.8662 78.3299C96.5024 79.8939 98.7178 81.5259 98.7579 82.9539C98.8518 86.2479 94.8602 89.9464 92.5828 92.2699C92.5497 92.3014 92.5233 92.3393 92.505 92.3812C92.4868 92.4231 92.4771 92.4682 92.4766 92.5139C92.4761 92.5596 92.4848 92.605 92.5021 92.6473C92.5194 92.6896 92.545 92.728 92.5774 92.7602C92.6102 92.7921 92.6491 92.8171 92.6917 92.8338C92.7343 92.8505 92.7798 92.8585 92.8256 92.8575C92.8715 92.8566 92.9166 92.8462 92.9583 92.827C93 92.8078 93.0372 92.7802 93.0677 92.7459C95.5232 90.2415 99.5399 86.5117 99.4379 82.9349C99.391 81.3029 97.2619 79.6321 97.5285 78.485C97.8141 77.2528 100.461 77.2317 101.069 75.425C101.88 72.9987 101.632 70.2175 101.862 67.7757C102.151 65.4564 102.745 63.1857 103.63 61.0226C103.836 60.5534 103.958 60.0515 103.99 59.5402C104.248 59.7251 104.524 59.8849 104.813 60.0162C104.45 62.5866 102.578 64.8714 103.347 67.8851C103.724 69.3648 105.37 71.2573 107.087 71.2573C107.16 71.2538 107.23 71.2316 107.291 71.1929C107.353 71.1542 107.403 71.1003 107.437 71.0364C107.471 70.9725 107.488 70.9008 107.487 70.8283C107.485 70.7558 107.464 70.685 107.427 70.6228C107.034 70.4183 106.678 70.1488 106.374 69.8259C103.776 66.8461 109.424 64.6538 110.382 61.8148C110.937 60.0706 110.215 58.2108 109.592 56.4911C108.99 54.8604 108.649 53.145 108.582 51.4081C108.547 48.8105 108.242 45.9048 109.766 42.8911C109.786 42.8513 109.798 42.808 109.801 42.7636C109.805 42.7192 109.799 42.6746 109.785 42.6324C109.771 42.5902 109.749 42.5512 109.719 42.5177C109.69 42.4841 109.655 42.4566 109.615 42.4368C109.535 42.3964 109.442 42.3893 109.356 42.4171C109.271 42.4448 109.2 42.5052 109.159 42.5851C107.573 45.7273 107.863 48.754 107.903 51.4251C107.969 53.2327 108.32 55.0185 108.943 56.7168C109.499 58.2516 110.215 60.0645 109.726 61.5979C108.873 64.1315 102.949 66.6149 105.707 70.0938C104.896 69.5045 104.296 68.6701 103.995 67.7138C103.259 64.8251 105.246 62.6213 105.514 59.7836C105.786 56.742 103.84 54.2233 104.319 51.0919C104.567 49.6736 104.938 48.2799 105.43 46.9269C105.46 46.8421 105.456 46.7489 105.419 46.6671C105.38 46.5857 105.311 46.5225 105.227 46.491C105.185 46.4757 105.14 46.4688 105.096 46.4708C105.051 46.4727 105.007 46.4834 104.967 46.5023C104.926 46.5212 104.89 46.5479 104.86 46.5808C104.83 46.6138 104.806 46.6523 104.791 46.6943C104.285 48.0872 103.903 49.5219 103.648 50.9817C103.165 54.1389 104.894 56.5672 104.858 59.2838C104.528 59.0968 104.215 58.8826 103.92 58.6433C103.648 57.6008 102.738 57.0174 101.73 55.8553C101.135 55.1685 100.076 51.0647 97.7012 50.4003C98.2554 49.415 98.3132 49.3667 98.7389 48.616C99.9561 46.4706 100.318 46.508 101.509 46.4019C101.811 46.3829 102.112 46.3407 102.409 46.2775C103.276 46.0463 104.067 45.5938 104.706 44.9643C105.345 44.3349 105.81 43.5502 106.054 42.6871C106.222 42.1159 106.251 41.5131 106.14 40.9283C106.029 40.3436 105.781 39.7936 105.415 39.3238C105.153 39.0505 104.821 38.8535 104.455 38.7539C104.09 38.6543 103.704 38.6557 103.339 38.758C102.909 38.6723 102.474 38.586 102.047 38.486C102.239 37.4413 102.597 36.4339 103.107 35.5022C104.778 36.6251 106.803 37.0995 108.799 36.8363C108.866 36.8271 108.928 36.7986 108.978 36.7543C109.028 36.71 109.065 36.6519 109.082 36.5873C109.1 36.5226 109.098 36.4542 109.076 36.3907C109.055 36.3271 109.016 36.2712 108.963 36.2298C108.892 36.1749 108.801 36.1505 108.712 36.1618C105.601 36.5637 102.592 35.0826 101.572 32.5755C101.501 32.3542 101.452 32.1264 101.427 31.8955C102.918 32.3669 104.472 32.6105 106.037 32.6183C106.104 32.6182 106.169 32.5984 106.225 32.5613C106.281 32.5243 106.324 32.4716 106.35 32.4099C106.377 32.3482 106.384 32.2802 106.372 32.2144C106.359 32.1485 106.328 32.0878 106.281 32.0396C106.218 31.9754 106.132 31.939 106.041 31.9383C100.44 31.8975 95.9522 28.8395 94.2951 25.2838C94.0741 24.8078 93.7994 24.2142 93.2649 24.0394C92.6141 23.8354 91.8967 24.5331 91.3745 25.0472C90.2409 26.1631 88.6858 26.6567 87.4808 25.6184C84.7717 23.3023 84.8927 16.8321 85.2456 16.5594C85.3209 16.5104 85.3736 16.4335 85.3924 16.3457C85.4112 16.2579 85.3945 16.1662 85.3459 16.0907C85.2973 16.0151 85.2208 15.9619 85.1331 15.9426C85.0454 15.9233 84.9536 15.9394 84.8778 15.9875C84.3909 16.3003 84.3338 17.2306 84.4018 18.5314C84.4181 18.8653 84.4099 18.832 84.4344 19.2298C82.8554 20.6374 81.7029 22.7495 80.6944 24.8296C80.1565 25.9393 79.6744 26.9627 79.178 28.1194C78.3969 28.4261 77.7554 29.0084 77.3746 29.7562C77.342 29.7365 77.1917 29.6406 77.1917 29.6406C75.6957 28.7154 74.5865 27.2786 74.0701 25.5972C73.5536 23.9158 73.6652 22.104 74.384 20.4987C74.8603 19.4348 75.586 18.5013 76.4995 17.7773C77.6214 17.0286 78.8735 16.4966 80.1912 16.2085C82.1602 15.785 83.9828 14.8501 85.4755 13.4981C86.403 12.6659 87.4662 11.9989 88.6191 11.5261C92.4149 10.1967 97.6883 11.233 104.739 14.6962C109.609 17.0857 114.832 22.4985 114.792 28.7369C114.776 31.6609 112.956 33.843 112.332 36.7541C111.963 38.5357 112.692 40.1935 112.658 41.8541C112.61 44.4265 109.054 47.4511 111.026 50.3017C111.558 50.9661 112.19 51.5441 112.899 52.0153C114.628 53.3522 114.954 56.1415 114.511 58.308C114.023 60.5207 111.745 62.2105 112.578 65.6724C112.588 65.716 112.607 65.7571 112.633 65.7933C112.659 65.8295 112.692 65.8602 112.731 65.8835C112.769 65.9069 112.811 65.9224 112.855 65.9292C112.9 65.9361 112.945 65.9341 112.988 65.9233C113.076 65.9016 113.151 65.8463 113.198 65.7694C113.245 65.6926 113.26 65.6003 113.239 65.5126C112.471 62.3268 114.647 60.8478 115.177 58.4495C115.663 56.0695 115.276 52.9931 113.295 51.4631C112.644 51.0315 112.062 50.5029 111.57 49.8957C110.587 48.4677 111.366 46.8969 112.199 45.2316C113.453 42.7115 113.523 42.1682 113.118 39.7175C112.826 38.5957 112.834 37.4169 113.141 36.2991C113.846 33.7723 115.457 31.6214 115.472 28.7409C115.514 22.2089 110.093 16.5689 105.038 14.0863C97.8154 10.5387 92.3707 9.49082 88.3947 10.8841C85.9352 11.7423 84.6425 13.7143 82.425 14.7268C80.4095 15.6414 77.9832 15.7931 76.0826 17.236C75.1524 17.9687 74.3981 18.9006 73.8752 19.9631C73.3523 21.0256 73.0741 22.1917 73.0611 23.3758C73.048 24.56 73.3005 25.732 73.7998 26.8057C74.2992 27.8795 75.0327 28.8277 75.9466 29.5807C76.3155 29.8832 76.7078 30.1561 77.1197 30.3967C76.8122 31.4779 76.8613 32.6294 77.2597 33.6805C75.742 39.3054 77.2448 44.4245 80.9582 48.89C79.6152 48.973 78.0886 50.097 76.9075 50.9667C75.7753 51.8004 75.5142 52.0119 73.5 52.4627C71.9693 52.8027 70.4971 53.1427 69.8341 54.5707C69.7747 54.5579 69.713 54.5612 69.6553 54.5803C68.1119 55.0928 66.5171 55.4348 64.8994 55.6003C64.6437 50.4948 64.3227 44.2157 64.1758 41.3883C64.1623 41.1485 64.1005 40.9139 63.9941 40.6986C63.8878 40.4833 63.7391 40.2917 63.557 40.1352C63.3748 39.9787 63.1629 39.8605 62.9341 39.7878C62.7052 39.7151 62.464 39.6894 62.2249 39.7121C54.3839 40.4465 10.2464 44.5897 10.2464 44.5897C10.0144 44.622 9.79098 44.6998 9.58904 44.8185C9.3871 44.9373 9.21058 45.0947 9.06959 45.2818C8.9286 45.4689 8.82591 45.682 8.76741 45.9089C8.7089 46.1357 8.69573 46.3719 8.72865 46.6039C9.40865 51.4659 11.5296 66.6788 11.9138 69.4376C10.8644 69.2003 9.76522 69.3349 8.80413 69.8184C7.87729 70.3005 7.41829 71.2933 7.44005 72.7648C7.49239 73.1124 7.50767 73.4646 7.48561 73.8154C7.46111 73.8621 7.4474 73.9137 7.44549 73.9664C6.50641 74.4233 6.35069 75.5821 6.23645 76.4321C6.10856 77.5575 5.73029 78.64 5.12941 79.6002C4.52829 80.6202 2.64809 82.9655 3.14245 84.3065C3.58377 85.5128 4.92677 86.0677 5.66933 86.9061C6.50369 87.8506 6.99737 89.1501 7.98133 90.0341C9.26653 91.1901 11.4806 91.8116 14.5678 91.8783C14.2006 92.1509 13.8089 92.3889 13.3982 92.5889C13.2024 92.6684 12.6067 92.7439 12.5686 93.3994C12.5156 94.3249 14.0558 95.3959 14.0707 95.4061C15.0799 96.1024 19.7385 99.1712 21.0149 100.078C23.773 102.039 26.5487 104.052 29.4564 105.727C21.9832 105.95 12.011 106.984 4.92405 108.81L4.81593 108.832C3.46613 109.097 3.11593 109.258 3.09553 109.611C3.09118 109.686 3.1118 109.76 3.15414 109.822C3.19648 109.884 3.25814 109.93 3.32945 109.953C3.40054 109.976 3.47741 109.975 3.54803 109.951C3.61865 109.926 3.67905 109.878 3.71977 109.815C4.11734 109.67 4.52854 109.564 4.94717 109.501C13.3391 107.549 21.9164 106.504 30.5315 106.383C30.557 106.382 30.5823 106.379 30.607 106.372C32.8557 107.58 36.2095 109.122 38.7493 109.122C39.6026 109.143 40.4468 108.941 41.1973 108.534C42.2135 107.936 43.1616 107.229 44.0247 106.426C58.2812 106.607 72.5114 107.7 86.6281 109.7C86.707 109.711 86.5179 109.627 88.2764 111.284C90.449 113.324 93.6756 115.123 96.554 114.365C97.9456 113.982 99.1854 113.18 100.105 112.068C111.152 114.264 121.983 117.431 132.473 121.532C132.536 121.556 132.604 121.56 132.669 121.546C132.735 121.531 132.794 121.497 132.841 121.449C132.887 121.401 132.918 121.34 132.93 121.274C132.942 121.208 132.935 121.14 132.908 121.078C132.891 121.037 132.865 121 132.833 120.969C132.8 120.938 132.762 120.914 132.721 120.898L132.723 120.897ZM89.7914 91.2622C87.5055 89.6838 85.144 88.2178 82.7154 86.8694C81.7926 86.3771 80.895 85.7882 80.0266 85.219C77.6324 83.6482 78.0023 84.0222 77.9527 83.8073C76.4988 77.5321 76.2391 71.0393 77.187 64.6681C77.5018 64.8211 77.837 64.9265 78.1825 64.9829C79.4824 65.2121 80.8216 64.9866 81.9748 64.3444C82.6752 63.9269 83.328 63.4332 83.9196 62.8715C83.08 65.0277 82.3637 67.2299 81.7743 69.4675C81.5927 70.191 81.25 71.5361 82.4243 71.8652C82.9452 72.0093 83.7401 72.3412 84.1876 72.0012C84.296 71.884 84.3751 71.7428 84.4184 71.5891C84.4617 71.4355 84.4678 71.2737 84.4364 71.1172C84.4283 69.7001 84.4996 68.2837 84.65 66.8747C84.4731 69.7474 84.4522 72.6275 84.5874 75.5025C84.6554 76.7217 84.8098 77.5425 84.8451 77.8145C84.8478 78.1137 84.9634 78.4007 85.1688 78.6183C85.4496 78.8563 85.7808 78.7237 86.1738 78.7087C86.6498 78.6917 87.5339 78.6597 87.6141 77.941C87.6309 77.3335 87.5925 76.7258 87.4992 76.1254C87.4067 74.8585 87.2646 73.5747 87.1972 72.3031C87.4151 72.2916 87.628 72.2337 87.8216 72.1332C88.0153 72.0327 88.1852 71.8919 88.3199 71.7203C88.8755 70.9458 88.4444 69.6987 88.2846 68.7739C87.9663 67.0645 87.4985 65.3864 86.8865 63.7589C88.543 66.1212 91.7675 67.9967 94.544 67.1222C93.8728 74.8585 92.8127 83.1226 89.7914 91.2622ZM85.9834 70.0747C86.0433 70.4691 86.0514 71.5313 86.5023 72.0318C86.5608 73.3918 86.7117 74.7395 86.8219 76.1995C86.9096 76.7585 86.9477 77.3242 86.9361 77.89C86.8321 78.0335 86.0766 78.0069 85.7692 78.0566C85.7127 78.0626 85.657 78.0751 85.6033 78.094C85.5549 77.9767 85.5261 77.8521 85.5183 77.7254C85.4585 77.2773 85.3313 76.615 85.2647 75.461C85.113 72.0592 85.1682 68.6514 85.4299 65.2563C85.5714 66.8672 85.7563 68.4822 85.9855 70.0747H85.9834ZM85.9583 63.2067C86.7613 65.2233 87.3538 67.3175 87.7263 69.4559C87.8738 70.1482 88.0411 70.9329 87.765 71.3185C87.6788 71.4169 87.572 71.4953 87.4521 71.5479C87.3323 71.6006 87.2023 71.6262 87.0714 71.6231C87.0614 71.6204 87.0521 71.6155 87.0443 71.6088C86.7648 71.398 86.7362 70.5025 86.6553 69.9727C86.2915 67.4248 86.1059 65.3719 85.9603 63.2088L85.9583 63.2067ZM84.5847 61.0919C83.787 62.1659 82.7838 63.0705 81.6335 63.7535C80.6206 64.3152 79.4457 64.5125 78.3049 64.3124C77.9892 64.278 77.6853 64.1732 77.4155 64.0057C77.4059 63.9319 77.3719 63.8635 77.3189 63.8113C77.7467 61.2444 78.4068 58.7216 79.2909 56.2741C79.5969 56.693 79.9396 57.0833 80.315 57.4424C81.7028 58.8179 83.4654 59.7536 85.3823 60.1325C85.0661 60.4072 84.7975 60.7322 84.5867 61.094L84.5847 61.0919ZM83.7551 71.1396C83.7592 71.2267 83.768 71.4313 83.7775 71.4531C83.596 71.5415 82.7902 71.2579 82.6045 71.2069C82.155 71.0811 82.1965 70.5562 82.4311 69.6314C83.0017 67.4655 83.6925 65.3331 84.5004 63.2441C83.9958 65.8461 83.7469 68.4912 83.7571 71.1417L83.7551 71.1396ZM95.1315 61.4455C94.4712 67.0215 94.701 66.3415 94.5195 66.4095C92.0497 67.3201 87.9738 65.5793 86.2371 61.1273C86.1603 60.8215 86.0501 60.5251 85.9086 60.2433C87.5974 60.5465 89.3316 60.4825 90.9934 60.0557C92.6553 59.629 94.2057 58.8495 95.5395 57.7701C95.4205 59.0003 95.2736 60.2413 95.1315 61.4455ZM84.5085 20.1049C84.7989 22.9181 85.6496 24.9459 87.0422 26.1365C88.5382 27.4224 90.4551 26.9111 91.8566 25.5341C92.1388 25.2553 92.8086 24.6038 93.0595 24.6881C93.3104 24.7725 93.526 25.2321 93.6831 25.5721C94.9826 28.3778 97.8018 30.5994 100.731 31.6609C100.756 32.0582 100.828 32.4512 100.947 32.8311C101.314 33.6893 101.866 34.4557 102.565 35.0751C102.001 36.0918 101.602 37.1911 101.383 38.3323C101.336 38.3228 101.291 38.3094 101.247 38.2922L101.232 38.28C102.218 35.9081 101.345 33.656 98.5505 32.5272C96.1059 31.5378 92.5794 31.6785 90.9556 33.2147C90.9278 32.7377 90.7495 32.2819 90.4462 31.9127C90.1429 31.5436 89.7303 31.2802 89.2678 31.1604C88.6612 31.0095 88.0199 31.0935 87.4726 31.3957C86.7491 28.9769 82.7997 27.3007 80.0328 27.8644C81.1684 25.2995 82.6963 21.9532 84.5085 20.1049ZM100.876 37.1111C100.278 40.2935 96.8016 41.7949 93.7545 39.8787C92.7703 39.2959 91.9897 38.4239 91.5191 37.3814C91.0484 36.3389 90.9105 35.1767 91.1242 34.0531C92.2007 32.5285 95.6578 32.0913 98.2955 33.1589C99.4468 33.6247 101.313 34.7583 100.876 37.1111ZM79.686 28.6607C82.202 27.8195 86.3391 29.4964 86.8538 31.7125C86.063 36.3365 79.7247 37.6007 77.9744 33.6342C78.4135 31.934 78.9858 30.271 79.686 28.6607ZM78.7449 29.1449C78.6163 29.4624 78.4919 29.7807 78.3729 30.1009C78.2301 30.0329 78.1594 30.1009 77.9792 30.071C78.1628 29.7099 78.4239 29.3937 78.7435 29.1449H78.7449ZM77.7344 30.715C77.8649 30.751 78.0002 30.766 78.1356 30.7599C77.954 31.2835 77.7847 31.8105 77.6269 32.3409C77.5644 31.7969 77.6004 31.2461 77.7344 30.715ZM77.8085 41.5759C77.2311 39.2874 77.2061 36.8944 77.7357 34.5944C80.196 38.2399 86.2405 36.8737 87.4135 32.3402C87.6174 32.1033 87.8841 31.9289 88.1828 31.837C88.4816 31.7452 88.8002 31.7398 89.1019 31.8213C89.9424 32.0335 90.3524 32.7659 90.3191 33.9973C90.3164 34.0825 90.3463 34.1654 90.4028 34.2292C89.614 39.3564 95.6605 43.38 99.6372 40.3825C100.169 39.9841 100.609 39.4766 100.929 38.894C101.03 38.9416 101.137 38.977 101.246 38.9987C101.195 39.4321 101.288 39.8702 101.51 40.2459C101.714 40.4852 101.841 40.4063 102.552 39.9684C102.875 39.7685 103.32 39.4924 103.504 39.4115C103.752 39.3395 104.015 39.3362 104.264 39.4018C104.514 39.4674 104.741 39.5996 104.922 39.7841C105.207 40.1687 105.399 40.6143 105.482 41.0857C105.564 41.5571 105.536 42.0414 105.399 42.5001C105.187 43.2472 104.785 43.9265 104.232 44.4718C103.679 45.0171 102.994 45.4096 102.244 45.6111C101.479 45.7953 100.425 45.6403 99.6596 46.2407C98.9173 46.9718 98.3088 47.8273 97.8617 48.7683C96.8 50.4958 95.8681 52.2999 95.0737 54.1655C95.0442 54.2377 95.0404 54.3178 95.0629 54.3925C95.0853 54.4672 95.1327 54.532 95.1971 54.576C95.2615 54.6201 95.339 54.6407 95.4168 54.6346C95.4945 54.6284 95.5678 54.5958 95.6245 54.5422C95.6563 54.5109 95.6817 54.4737 95.6993 54.4327L95.7299 54.3647C95.7188 55.1933 95.6837 56.0215 95.6245 56.8481C95.5757 56.8619 95.5308 56.8868 95.4932 56.9208C91.0161 60.9002 83.6381 60.7621 79.9484 56.0144C79.8356 55.8618 79.7316 55.7029 79.637 55.5384C79.6289 55.5118 79.6172 55.4864 79.6023 55.4629C79.7383 55.1093 79.8818 54.7577 80.0321 54.4075C80.2623 54.3823 80.4899 54.3368 80.7121 54.2715C80.5761 54.6938 80.4149 55.1107 80.2361 55.5159C80.2181 55.5569 80.2084 55.6009 80.2075 55.6456C80.2066 55.6903 80.2146 55.7347 80.2309 55.7763C80.2473 55.8179 80.2718 55.8559 80.3029 55.888C80.334 55.9201 80.3711 55.9457 80.4122 55.9634C80.4531 55.9814 80.4971 55.9912 80.5418 55.9921C80.5864 55.993 80.6309 55.9851 80.6724 55.9688C80.714 55.9525 80.752 55.9281 80.7841 55.8971C80.8162 55.866 80.8419 55.8289 80.8596 55.7879C81.4486 54.3303 81.8932 52.8185 82.187 51.2741C82.2149 50.9627 82.2605 50.6526 82.323 50.3459C83.312 51.2831 84.5225 51.9543 85.8413 52.2968C86.4384 52.4369 87.0504 52.5029 87.6631 52.4947C91.9994 52.4947 95.855 49.2667 97.4414 47.7347C97.4735 47.7037 97.4992 47.6666 97.517 47.6257C97.5348 47.5847 97.5443 47.5406 97.5451 47.496C97.5458 47.4514 97.5378 47.407 97.5214 47.3655C97.505 47.3239 97.4806 47.286 97.4496 47.2539C97.4186 47.2218 97.3815 47.1962 97.3406 47.1784C97.2996 47.1606 97.2556 47.151 97.2109 47.1503C97.1663 47.1495 97.1219 47.1576 97.0804 47.174C97.0388 47.1903 97.0009 47.2147 96.9688 47.2458C92.5393 51.5298 86.7056 53.8805 82.4916 49.5625C82.4766 49.5053 82.4468 49.453 82.4053 49.4107C82.3638 49.3685 82.312 49.3379 82.255 49.3218C80.1586 47.1446 78.6314 44.4842 77.8085 41.5759ZM9.40185 46.5121C9.38107 46.3643 9.3905 46.2138 9.42957 46.0697C9.46865 45.9256 9.53656 45.791 9.62919 45.674C9.72182 45.5569 9.83724 45.4599 9.96846 45.3888C10.0997 45.3177 10.244 45.2739 10.3926 45.2602C18.2235 44.3524 54.4471 41.1258 62.2909 40.3921C62.4387 40.3787 62.5877 40.3952 62.729 40.4406C62.8702 40.486 63.001 40.5593 63.1133 40.6562C63.2257 40.7532 63.3174 40.8717 63.383 41.0049C63.4486 41.138 63.4867 41.2829 63.4952 41.4311C63.4952 41.4991 64.5927 63.1823 64.6158 63.3142C64.8395 63.2985 65.0646 63.289 65.2904 63.2849C65.3033 63.0993 64.9361 56.3585 64.932 56.2864C66.5026 56.131 68.0525 55.8108 69.556 55.331C68.7985 57.7491 68.8604 61.8535 69.1535 64.3913C69.1603 64.4591 69.1871 64.5233 69.2306 64.5757C69.2741 64.6282 69.3322 64.6665 69.3976 64.6857C69.452 64.7016 69.5096 64.7037 69.565 64.6916C69.6204 64.6795 69.672 64.6537 69.7149 64.6165C69.7577 64.5794 69.7906 64.5321 69.8105 64.479C69.8304 64.4259 69.8367 64.3686 69.8287 64.3124C69.5268 61.7026 69.4581 57.645 70.3503 55.1127C71.1438 52.8585 74.2228 53.5528 76.4131 52.152C77.5773 51.4108 80.1592 49.0736 81.6301 49.6632C81.6695 49.7053 81.709 49.7461 81.747 49.7849C81.6304 50.2419 81.5515 50.7077 81.5111 51.1775C81.3491 51.9452 81.1625 52.7074 80.9514 53.463C80.7576 53.5507 80.5557 53.6194 80.3483 53.667C80.5265 53.2672 80.7202 52.8551 80.9372 52.4179C80.9767 52.3367 80.9826 52.2432 80.9537 52.1577C80.9248 52.0722 80.8634 52.0015 80.7828 51.9609C80.7016 51.921 80.6079 51.9149 80.5222 51.9438C80.4364 51.9727 80.3656 52.0343 80.3252 52.1153C76.1438 60.5473 74.6506 72.0474 77.1781 83.4843C76.1092 82.9227 75.0212 82.5058 73.876 82.9125C72.652 83.3885 71.868 84.5091 71.1608 85.6325C70.9568 85.9527 70.7589 86.2948 70.5529 86.6701L70.5386 86.6647C66.9985 85.5481 66.7592 79.5125 66.2478 79.0875C66.5654 78.6475 66.8299 78.1722 67.0373 77.671C66.9917 77.875 66.9176 78.1688 66.9047 78.315C66.6969 79.6248 67.0167 80.9635 67.7941 82.038C67.8203 82.0742 67.8535 82.1049 67.8917 82.1283C67.9298 82.1516 67.9723 82.1672 68.0165 82.174C68.1056 82.187 68.1962 82.1651 68.2694 82.1128C68.3056 82.0865 68.3362 82.0532 68.3592 82.0149C68.3832 81.9771 68.3991 81.9348 68.4062 81.8906C68.4132 81.8464 68.4111 81.8012 68.4 81.7578C68.3898 81.7143 68.3708 81.6734 68.3443 81.6375C67.9669 81.1143 67.7101 80.5141 67.5925 79.8798C67.4749 79.2456 67.4994 78.5932 67.6643 77.9695C67.8003 77.3963 67.9492 76.7455 67.6731 76.3498C67.6358 76.3004 67.587 76.261 67.5309 76.2349C67.4748 76.2088 67.4132 76.1969 67.3514 76.2002C66.9638 76.2301 66.4926 77.2202 66.3274 77.5779C65.8235 78.6604 65.5664 78.9521 65.2054 78.9984C65.0189 78.9798 64.8412 78.9101 64.6918 78.7969C64.5424 78.6838 64.4272 78.5316 64.3588 78.3571C64.0077 77.6753 63.8282 76.9181 63.8358 76.1512C63.8556 75.9078 63.9426 75.6745 64.0875 75.4773C64.6396 74.7225 65.9187 74.3798 67.2195 74.1214C67.6751 74.0317 68.1375 73.9582 68.6366 73.897C68.8964 73.8623 69.4452 74.0153 69.605 73.6543C69.6289 73.5819 69.6334 73.5045 69.6179 73.4299C69.6023 73.3553 69.5674 73.2861 69.5166 73.2293C69.4546 73.1653 69.3697 73.1286 69.2806 73.1273C69.1916 73.125 69.1053 73.158 69.0406 73.2191C68.8782 73.2102 68.7154 73.2102 68.553 73.2191C68.0403 73.2816 67.5616 73.3551 67.089 73.4516C65.7738 73.7121 64.4689 74.0636 63.7291 74.8477C62.9301 73.657 63.2803 73.0225 63.5931 72.6717C64.2314 72.084 65.0115 71.6723 65.8568 71.4769C66.8358 71.162 67.8608 71.0139 68.8889 71.039C68.9513 71.055 69.017 71.0531 69.0783 71.0334C69.1396 71.0137 69.1941 70.9771 69.2355 70.9277C69.2769 70.8784 69.3035 70.8183 69.3122 70.7545C69.3209 70.6907 69.3114 70.6257 69.2847 70.5671C69.2099 70.4045 69.1487 70.2509 67.8397 70.3773C67.1077 70.454 66.385 70.6025 65.6821 70.8207C64.8441 71.0165 64.0621 71.4015 63.3959 71.9461C63.3897 71.9245 63.3815 71.9036 63.3714 71.8835C62.8512 70.8826 62.9743 70.072 63.7298 69.4777C64.2017 69.1263 64.7437 68.8805 65.3189 68.7569C66.9292 68.3625 68.009 68.7141 69.8817 69.1316C69.9487 69.1493 70.0195 69.1461 70.0846 69.1224C70.1498 69.0987 70.2061 69.0557 70.246 68.999C70.2859 68.9424 70.3075 68.8748 70.3079 68.8055C70.3083 68.7362 70.2875 68.6685 70.2482 68.6114C70.2222 68.5737 70.189 68.5416 70.1505 68.5168C70.112 68.4921 70.0689 68.4752 70.0238 68.4672C68.2334 68.0776 67.1175 67.7267 65.5508 68.013L65.4386 66.1348C65.2117 66.089 64.9824 66.0556 64.7518 66.0349L64.879 68.1667C64.3146 68.3251 63.7842 68.5869 63.315 68.9391C62.2882 69.7449 62.091 70.9016 62.7662 72.197C62.8094 72.2777 62.8827 72.3381 62.9702 72.365C62.5214 72.9681 62.2671 73.929 63.2014 75.2849C63.2374 75.3367 63.2871 75.3774 63.3449 75.4025C63.2334 75.637 63.1694 75.8912 63.1565 76.1505C63.1498 76.8703 63.2874 77.584 63.5611 78.2497L14.374 82.2121C14.34 81.9319 14.2911 81.6545 14.2265 81.3797C15.6599 79.4207 15.3825 77.3419 13.4635 75.6535L13.3017 74.4866C13.7913 74.7314 14.3285 74.8647 14.8745 74.8769C15.0576 74.8867 15.2405 74.8546 15.4093 74.783C15.578 74.7113 15.7282 74.602 15.8482 74.4635C15.9681 74.3247 16.0546 74.1603 16.1009 73.9828C16.1472 73.8054 16.1522 73.6197 16.1155 73.4401C15.9904 72.5664 15.5754 71.76 14.937 71.1505C14.2852 70.4924 13.4979 69.9843 12.6298 69.6613C12.4129 68.0946 10.1152 51.6121 9.40185 46.5121ZM9.11149 70.4256C9.88898 70.0723 10.7517 69.95 11.5967 70.0734C12.4418 70.1967 13.2335 70.5604 13.8776 71.1213C14.2915 71.3981 14.6439 71.7571 14.913 72.1761C15.1821 72.595 15.362 73.0648 15.4416 73.5563C15.4635 73.6376 15.4649 73.7231 15.4458 73.8051C15.4266 73.8871 15.3874 73.9631 15.3317 74.0263C15.276 74.0894 15.2056 74.1378 15.1266 74.1671C15.0476 74.1964 14.9627 74.2057 14.8793 74.1942C13.5281 74.1758 12.9385 73.317 10.6272 72.7743C10.5405 72.7566 10.4503 72.7733 10.3758 72.8209C10.3012 72.8686 10.2482 72.9434 10.2279 73.0295C10.2077 73.1156 10.2218 73.2063 10.2672 73.2822C10.3127 73.3581 10.386 73.4132 10.4715 73.436C11.1914 73.6038 11.8922 73.8446 12.5632 74.1547L12.689 75.0619C12.1509 74.6979 11.5704 74.401 10.9604 74.1779C10.088 73.7889 9.12566 73.6461 8.17785 73.7651C8.17785 73.4285 8.15677 73.0926 8.11393 72.7587C8.10169 71.5476 8.43149 70.7826 9.11149 70.4256ZM8.43149 89.5336C7.55633 88.7475 7.03273 87.4256 6.17661 86.4593C5.40549 85.5889 4.12845 85.0313 3.77893 84.0793C3.42941 83.1273 5.26337 80.7161 5.71149 79.9545C6.36118 78.9142 6.77116 77.7423 6.91169 76.5239C7.02525 75.6718 7.14085 74.7443 7.93169 74.5077C8.87503 74.3041 9.85901 74.4134 10.7347 74.8191C13.2541 75.7378 15.4403 78.0362 13.9551 80.561C13.1929 78.8059 11.6377 78.0049 10.4871 76.6333C10.4282 76.5679 10.3459 76.5281 10.258 76.5225C10.1701 76.5159 10.0831 76.5439 10.0156 76.6006C9.94814 76.6572 9.90552 76.7381 9.89689 76.8258C9.88765 76.9134 9.91276 77.0011 9.96693 77.0706C11.2474 78.5958 12.9073 79.3826 13.5125 81.3308C13.6287 81.7497 13.7035 82.1787 13.7355 82.6119C13.7999 83.2166 13.6882 83.827 13.4139 84.3697C13.1813 84.7593 12.028 84.2446 11.8975 83.8148C11.889 83.7873 11.8768 83.761 11.8614 83.7366C11.242 82.2317 10.2744 80.8951 9.03805 79.8368C8.97334 79.7742 8.88672 79.7393 8.79665 79.7396C8.74638 79.7398 8.69679 79.7512 8.65149 79.773C8.60619 79.7948 8.56632 79.8264 8.53479 79.8656C8.50326 79.9047 8.48086 79.9504 8.46923 79.9993C8.45759 80.0482 8.45701 80.0991 8.46753 80.1483C8.481 80.2141 8.51365 80.2744 8.56137 80.3217C9.87853 81.6137 10.9944 82.7907 11.4174 84.6512C11.6894 85.8167 11.5534 86.2009 11.4806 86.3125C11.4692 86.3329 11.4531 86.3504 11.4337 86.3635C11.4145 86.377 11.3923 86.3859 11.3691 86.3893C10.3226 86.5974 8.94693 84.25 8.16085 83.5075C8.0952 83.4455 8.00764 83.4122 7.91741 83.4148C7.82719 83.4174 7.7417 83.4557 7.67975 83.5214C7.6178 83.587 7.58447 83.6746 7.58708 83.7648C7.5897 83.8551 7.62804 83.9405 7.69369 84.0025C8.51581 84.7777 9.93293 87.3712 11.5017 87.0564C12.1953 86.9204 12.3055 86.1574 12.2443 85.4597C13.3724 85.2605 15.2634 86.1506 15.7156 86.5899C15.7476 86.6213 15.7855 86.6461 15.8271 86.6629C15.8687 86.6796 15.9132 86.6879 15.958 86.6874C16.0028 86.6868 16.0471 86.6773 16.0882 86.6596C16.1294 86.6418 16.1666 86.616 16.1978 86.5838C16.2291 86.5518 16.2539 86.5139 16.2705 86.4723C16.2872 86.4307 16.2955 86.3862 16.295 86.3414C16.2944 86.2966 16.285 86.2524 16.2672 86.2112C16.2495 86.1701 16.2238 86.1329 16.1917 86.1017C15.489 85.5529 14.6806 85.1552 13.8171 84.9334C14.2535 84.3434 14.472 83.6203 14.4352 82.8873L17.7142 82.6235C17.6885 82.7077 17.6966 82.7986 17.7366 82.8771C17.7978 82.9988 17.8679 83.1151 17.9481 83.2246C18.0861 83.466 18.2065 83.7176 18.3065 83.9773C18.682 84.788 18.9201 85.6555 19.0109 86.5443C19.0174 86.6122 19.0444 86.6765 19.0882 86.7287C19.132 86.7809 19.1907 86.8186 19.2564 86.8367C18.6484 87.4765 18.0888 88.1607 17.5823 88.8835C17.0081 89.7746 16.2871 90.5618 15.4498 91.2119C15.1431 91.1588 10.5728 91.4601 8.43149 89.5316V89.5336ZM44.7231 105.759C50.7071 99.8234 55.3535 89.688 59.9177 83.3327C59.9572 83.2781 59.9795 83.2129 59.9817 83.1455C59.9838 83.0782 59.9658 83.0117 59.9299 82.9546C59.8941 82.8979 59.8424 82.8529 59.7812 82.8252C59.7201 82.7975 59.6521 82.7884 59.5858 82.7989C59.4969 82.8136 59.4174 82.863 59.3648 82.9363C57.6795 85.3136 56.1193 87.7772 54.6905 90.317C51.2674 96.1017 46.2735 104.758 40.8573 107.946C36.374 110.5 25.5294 102.459 21.4093 99.5276C19.1218 97.901 16.7254 96.4152 14.4576 94.8499C13.9633 94.5099 13.2296 93.7748 13.2479 93.4423C13.2568 93.294 13.5274 93.2838 13.6859 93.209C14.3919 92.8455 15.0573 92.4078 15.6708 91.9034C16.6379 91.1839 17.4693 90.2981 18.1262 89.2875C18.6615 88.5117 19.2678 87.7873 19.9371 87.1237C20.3077 86.7422 20.7835 86.4797 21.3039 86.3696C22.7054 86.1771 24.4468 87.2801 25.8463 88.1682C27.9815 89.5227 30.7423 90.9739 33.1991 91.4777C36.2115 92.0897 38.8635 91.7865 40.8913 94.2304C40.9505 94.2945 41.032 94.3335 41.119 94.3392C41.2061 94.345 41.2921 94.3172 41.3592 94.2615C41.4263 94.2058 41.4695 94.1264 41.4799 94.0398C41.4903 93.9531 41.467 93.8658 41.4149 93.7959C39.1899 91.116 36.2686 91.4091 33.3358 90.8113C30.968 90.3258 28.2603 88.8937 26.2108 87.5936C24.0103 86.1969 21.6452 84.7532 19.6828 86.4376C19.5838 85.4961 19.3311 84.5772 18.9348 83.7176C18.7767 83.3196 18.5799 82.9381 18.3472 82.5786L63.8971 78.9141C64.0393 79.1325 64.2297 79.3155 64.4537 79.4489C64.6777 79.5823 64.9292 79.6627 65.189 79.6838C65.3856 79.6845 65.5787 79.6349 65.75 79.5397C66.1499 80.5481 66.6429 86.0473 70.2449 87.2869C69.7213 88.3137 69.8994 88.0417 69.3955 88.9869C67.5344 92.4814 67.926 93.1635 70.0395 94.6275C70.0701 94.6486 71.2594 95.504 72.019 96.0426C73.2096 96.8858 74.4405 97.7575 75.5706 98.7109C79.278 101.839 82.4604 105.462 85.8604 108.905C72.2256 107.012 58.4871 105.961 44.7231 105.759Z" fill="#2B2D3E"/>
<path d="M34.5149 115.46C32.5361 115.46 31.0469 116.253 31.0469 117.304C31.0469 118.355 32.5429 119.148 34.5149 119.148C36.4869 119.148 37.9917 118.355 37.9917 117.304C37.9917 116.253 36.4971 115.46 34.5149 115.46ZM34.5149 118.468C32.9176 118.468 31.7269 117.856 31.7269 117.304C31.7269 116.752 32.921 116.14 34.5149 116.14C36.1088 116.14 37.3117 116.752 37.3117 117.304C37.3117 117.855 36.1156 118.468 34.5149 118.468Z" fill="#2B2D3E"/>
<path d="M47.1233 126.135C47.1139 126.091 47.096 126.05 47.0705 126.013C47.045 125.976 47.0125 125.945 46.9748 125.921C46.9371 125.897 46.895 125.88 46.8509 125.872C46.8068 125.865 46.7617 125.866 46.718 125.875C46.63 125.895 46.5535 125.949 46.5049 126.025C46.4564 126.101 46.4398 126.193 46.4589 126.281L46.6629 127.209C46.6827 127.297 46.7364 127.373 46.8123 127.422C46.8882 127.47 46.9801 127.487 47.0682 127.468C47.1118 127.459 47.1532 127.441 47.1898 127.415C47.2265 127.39 47.2578 127.357 47.2819 127.32C47.306 127.282 47.3224 127.24 47.3302 127.196C47.3379 127.152 47.337 127.107 47.3272 127.063L47.1233 126.135Z" fill="#2B2D3E"/>
<path d="M62.1666 111.371L28.7235 108.613C27.2871 108.49 25.8468 108.798 24.5857 109.497C19.3497 112.375 4.80314 120.377 4.80314 120.377C4.73987 120.411 4.68933 120.465 4.65881 120.531C4.6283 120.596 4.61941 120.67 4.63342 120.74C4.64743 120.811 4.68362 120.876 4.73675 120.925C4.78988 120.974 4.85719 121.004 4.92894 121.012L46.8169 125.766C47.0209 125.793 45.9377 126.499 62.8561 113.745C63.067 113.582 63.2239 113.359 63.3064 113.106C63.389 112.852 63.3934 112.58 63.319 112.324C63.2446 112.068 63.095 111.84 62.8894 111.67C62.6839 111.5 62.432 111.396 62.1666 111.371ZM62.4454 113.207L46.7571 125.079L6.06725 120.461C9.36457 118.647 20.4785 112.531 24.9135 110.092C26.0569 109.457 27.3639 109.178 28.6671 109.291L62.1094 112.049C62.2374 112.059 62.3594 112.107 62.4598 112.187C62.5601 112.267 62.6342 112.375 62.6725 112.497L62.6963 112.595C62.7134 112.71 62.6991 112.827 62.6549 112.935C62.6107 113.042 62.5384 113.136 62.4454 113.206V113.207Z" fill="#2B2D3E"/>
<path d="M110.109 124.322C110.367 124.299 110.612 124.199 110.813 124.035C111.014 123.871 111.161 123.651 111.235 123.403C111.285 123.238 111.302 123.065 111.285 122.894C111.302 122.656 111.265 122.417 111.176 122.195C111.088 121.973 110.951 121.774 110.775 121.612C110.639 121.498 110.483 121.412 110.314 121.359C110.146 121.305 109.968 121.286 109.792 121.301L93.4142 122.74C93.3102 122.746 93.6862 122.561 89.122 124.952C89.0553 124.987 89.002 125.043 88.9706 125.112C88.9391 125.18 88.9312 125.257 88.9482 125.33C88.9651 125.404 89.006 125.469 89.0643 125.517C89.1226 125.565 89.195 125.592 89.2703 125.594L93.4591 125.717C93.6012 125.804 92.5989 125.857 110.109 124.322ZM109.85 121.98C109.938 121.972 110.027 121.982 110.111 122.009C110.195 122.037 110.274 122.08 110.341 122.138C110.595 122.346 110.581 122.62 110.613 122.98C110.626 123.142 110.575 123.303 110.47 123.427C110.365 123.552 110.216 123.63 110.054 123.645C110.054 123.645 108.547 123.777 108.041 123.819L107.966 122.627C107.958 122.538 107.916 122.455 107.848 122.396C107.781 122.337 107.694 122.306 107.604 122.309C107.515 122.316 107.431 122.357 107.371 122.424C107.341 122.457 107.318 122.496 107.304 122.539C107.289 122.581 107.284 122.626 107.287 122.67L107.364 123.878C102.861 124.276 95.5936 124.915 93.9494 125.059L93.8052 123.39C102.761 122.604 106.903 122.235 109.85 121.98ZM93.1395 123.618L93.2619 125.032L90.5895 124.953L93.1395 123.618Z" fill="#2B2D3E"/>
<path d="M112.898 129.467C97.1292 126.339 98.0954 126.543 98.0111 126.55L93.9461 127.071C93.8686 127.081 93.7969 127.117 93.743 127.174C93.6891 127.231 93.6561 127.304 93.6496 127.382C93.6431 127.46 93.6638 127.537 93.7082 127.602C93.7526 127.666 93.8179 127.713 93.8931 127.735L97.565 128.823C97.6094 128.862 97.6637 128.889 97.7221 128.9C97.7221 128.9 111.95 131.704 112.473 131.808C112.706 131.854 112.947 131.827 113.164 131.733C113.382 131.638 113.565 131.48 113.691 131.279C113.815 131.08 113.878 130.848 113.872 130.614C113.866 130.379 113.791 130.152 113.657 129.96C113.478 129.703 113.205 129.526 112.898 129.467ZM97.648 127.282L97.5195 128.098L95.6332 127.54L97.648 127.282ZM98.3348 127.289C99.9056 127.599 106.447 128.891 110.439 129.676C110.401 129.701 110.368 129.734 110.343 129.772C110.318 129.81 110.301 129.853 110.293 129.898L110.153 130.657L98.1798 128.294L98.3348 127.289ZM113.185 130.748C113.167 130.844 113.121 130.932 113.052 131.002C112.984 131.072 112.896 131.119 112.8 131.138C112.736 131.151 112.671 131.152 112.607 131.139C112.154 131.049 111.539 130.929 110.818 130.787C110.968 129.971 111.009 129.92 110.906 129.767L112.766 130.133C112.903 130.16 113.023 130.24 113.102 130.355C113.18 130.47 113.21 130.611 113.185 130.748Z" fill="#2B2D3E"/>
<path d="M61.4998 44.7658C61.5653 44.8202 61.6488 44.8481 61.7339 44.8439C61.8189 44.8397 61.8993 44.8038 61.9591 44.7432C62.0189 44.6826 62.0538 44.6018 62.0569 44.5167C62.06 44.4316 62.0311 44.3485 61.9758 44.2837L60.2078 42.5266C60.1424 42.4713 60.0585 42.4427 59.973 42.4466C59.8874 42.4505 59.8065 42.4866 59.7463 42.5476C59.6862 42.6086 59.6513 42.69 59.6486 42.7756C59.6459 42.8612 59.6756 42.9447 59.7318 43.0094L61.4998 44.7658Z" fill="#2B2D3E"/>
<path d="M13.7455 47.657C13.7737 47.6224 13.7949 47.5826 13.8078 47.5398C13.8207 47.497 13.825 47.4521 13.8205 47.4076C13.816 47.3632 13.8028 47.3201 13.7817 47.2807C13.7605 47.2414 13.7318 47.2065 13.6972 47.1783C13.6626 47.15 13.6228 47.1288 13.58 47.116C13.5372 47.1031 13.4923 47.0988 13.4478 47.1033C13.4034 47.1078 13.3603 47.121 13.3209 47.1421C13.2815 47.1633 13.2467 47.192 13.2185 47.2266L11.2784 49.5998C11.227 49.6701 11.2046 49.7574 11.2157 49.8438C11.2268 49.9301 11.2706 50.009 11.3381 50.064C11.4055 50.119 11.4916 50.146 11.5784 50.1395C11.6652 50.133 11.7463 50.0934 11.8048 50.0288L13.7455 47.657Z" fill="#2B2D3E"/>
<path d="M23.5865 67.2023C23.6545 67.2023 23.0595 67.2533 56.408 64.1137C56.4525 64.1096 56.4958 64.0968 56.5353 64.0759C56.5749 64.0551 56.6099 64.0266 56.6384 63.9922C56.6669 63.9577 56.6883 63.918 56.7014 63.8753C56.7145 63.8325 56.719 63.7876 56.7147 63.7431C56.7112 63.6984 56.6987 63.6549 56.678 63.6151C56.6573 63.5754 56.6288 63.5402 56.5942 63.5116C56.5596 63.4831 56.5197 63.4618 56.4767 63.449C56.4338 63.4362 56.3887 63.4322 56.3441 63.4371L23.5552 66.5243C23.465 66.5285 23.3802 66.5683 23.3194 66.635C23.2585 66.7017 23.2267 66.7898 23.2308 66.88C23.235 66.9701 23.2748 67.055 23.3415 67.1158C23.4082 67.1766 23.4963 67.2085 23.5865 67.2043V67.2023Z" fill="#2B2D3E"/>
<path d="M52.6909 66.9208L29.9191 69.0649C29.8743 69.0689 29.8308 69.0817 29.7911 69.1026C29.7514 69.1235 29.7162 69.1521 29.6875 69.1866C29.6589 69.2212 29.6374 69.2611 29.6242 69.3041C29.6111 69.347 29.6066 69.3921 29.611 69.4368C29.6152 69.4815 29.6281 69.5249 29.6491 69.5645C29.67 69.6042 29.6986 69.6393 29.7332 69.6679C29.7677 69.6965 29.8075 69.7181 29.8504 69.7313C29.8933 69.7445 29.9383 69.7491 29.983 69.7449L52.7521 67.6008C52.8418 67.5924 52.9245 67.5487 52.982 67.4793C53.0395 67.41 53.0671 67.3206 53.0588 67.2309C53.0559 67.1861 53.044 67.1422 53.0238 67.1021C53.0035 67.062 52.9754 67.0263 52.941 66.9974C52.9066 66.9684 52.8667 66.9467 52.8238 66.9335C52.7808 66.9204 52.7356 66.9161 52.6909 66.9208Z" fill="#2B2D3E"/>
<path d="M44.1112 90.2272C42.6552 90.0625 41.1841 90.0853 39.734 90.2952C39.1839 90.3632 38.763 90.4312 38.3699 90.5135C37.4648 90.7039 37.4648 90.8671 37.4648 91.0398C37.4648 91.13 37.5007 91.2165 37.5644 91.2802C37.6282 91.344 37.7147 91.3798 37.8048 91.3798C38.4617 91.1724 39.1376 91.0351 39.8238 90.9718C41.2188 90.769 42.6341 90.7462 44.035 90.9038C44.1246 90.9131 44.2143 90.8873 44.2852 90.8317C44.3376 90.7895 44.3764 90.7329 44.3968 90.6688C44.4172 90.6047 44.4184 90.5361 44.4002 90.4713C44.3818 90.4066 44.3445 90.3487 44.293 90.3054C44.2414 90.262 44.1781 90.235 44.1112 90.2279V90.2272Z" fill="#2B2D3E"/>
<path d="M28.1194 55.0576C29.8303 55.0576 31.1726 54.2511 32.6326 53.3576C33.8641 52.6055 36.0952 51.236 37.3348 51.9677C38.3589 52.5667 37.6415 53.7615 36.8738 53.9356C36.697 53.9738 36.5127 53.953 36.3489 53.8765C36.1851 53.8 36.0508 53.672 35.9666 53.5119C35.9415 53.4751 35.9093 53.4435 35.8719 53.4191C35.8345 53.3946 35.7927 53.3778 35.7488 53.3695C35.7049 53.3613 35.6598 53.3617 35.6161 53.3709C35.5724 53.38 35.5309 53.3977 35.494 53.4229C35.4572 53.4481 35.4256 53.4802 35.4012 53.5176C35.3767 53.555 35.3599 53.5968 35.3516 53.6407C35.3433 53.6846 35.3438 53.7297 35.3529 53.7734C35.3621 53.8171 35.3798 53.8586 35.405 53.8955C35.5665 54.1682 35.8099 54.383 36.1006 54.5092C36.3914 54.6355 36.7145 54.6667 37.024 54.5986C37.3986 54.4995 37.7372 54.2957 38.0002 54.0111C38.2633 53.7266 38.4398 53.373 38.5092 52.9917C38.5576 52.6701 38.5035 52.3414 38.3546 52.0523C38.2057 51.7631 37.9695 51.5282 37.6796 51.3808C36.1244 50.4649 33.809 51.8432 32.2783 52.7775C30.9224 53.6058 29.6698 54.3803 28.1242 54.3762C27.8922 54.4096 27.6555 54.3708 27.4462 54.2651C27.237 54.1594 27.0654 53.9919 26.9546 53.7853C26.8808 53.573 26.8681 53.3442 26.918 53.125C26.9678 52.9058 27.0783 52.7051 27.2368 52.5457C27.3805 52.3955 27.5678 52.2943 27.7721 52.2562C27.9765 52.2181 28.1876 52.2452 28.3758 52.3335C28.4174 52.3498 28.4618 52.3577 28.5065 52.3567C28.5511 52.3558 28.5952 52.3461 28.6361 52.3282C28.677 52.3103 28.714 52.2845 28.745 52.2522C28.7759 52.22 28.8002 52.182 28.8164 52.1404C28.8327 52.0988 28.8406 52.0544 28.8397 52.0097C28.8388 51.965 28.8291 51.921 28.8111 51.8801C28.7932 51.8392 28.7674 51.8022 28.7352 51.7712C28.7029 51.7403 28.6649 51.716 28.6233 51.6997C28.2974 51.5757 27.9423 51.5496 27.6017 51.6245C27.2611 51.6994 26.9497 51.8721 26.7059 52.1215C26.4621 52.3708 26.2963 52.6859 26.229 53.0281C26.1617 53.3703 26.1957 53.7247 26.327 54.0478C26.4818 54.3831 26.7383 54.6611 27.06 54.8423C27.3818 55.0236 27.7525 55.0989 28.1194 55.0576Z" fill="#2B2D3E"/>
<path d="M41.5061 54.3998C41.8356 54.4241 42.1644 54.3441 42.4459 54.171C42.7274 53.9979 42.9472 53.7406 43.0741 53.4355C43.109 53.355 43.1114 53.264 43.0808 53.1818C43.0502 53.0995 42.9889 53.0323 42.9098 52.9941C42.8308 52.956 42.74 52.9499 42.6566 52.9772C42.5731 53.0045 42.5034 53.063 42.4621 53.1404C42.3944 53.3223 42.2693 53.4773 42.1058 53.5819C41.9423 53.6865 41.7492 53.7352 41.5557 53.7205C41.3004 53.6937 41.0573 53.597 40.8534 53.441C40.6495 53.285 40.4925 53.0759 40.3997 52.8364C40.3478 52.6565 40.3558 52.4645 40.4225 52.2895C40.4892 52.1144 40.6111 51.9658 40.7696 51.8661C41.9331 50.9291 44.4743 51.8919 45.873 52.4223C47.4255 53.0105 49.0303 53.6178 50.7738 53.3111C51.1917 53.3004 51.5924 53.1425 51.9053 52.8653C52.2181 52.588 52.4231 52.2093 52.4841 51.7957C52.5451 51.3821 52.4581 50.9603 52.2385 50.6046C52.0189 50.2489 51.6808 49.9821 51.2838 49.8513C51.0211 49.764 50.7416 49.7394 50.4676 49.7794C50.1937 49.8194 49.9329 49.923 49.7062 50.0818C49.6648 50.1026 49.628 50.1316 49.5982 50.1671C49.5685 50.2026 49.5463 50.2439 49.533 50.2883C49.5197 50.3327 49.5157 50.3793 49.5211 50.4253C49.5265 50.4714 49.5413 50.5158 49.5645 50.5559C49.5877 50.596 49.6189 50.631 49.6561 50.6586C49.6933 50.6862 49.7357 50.706 49.7809 50.7166C49.826 50.7272 49.8728 50.7285 49.9184 50.7203C49.964 50.7122 50.0075 50.6948 50.0462 50.6693C50.2337 50.5431 50.4558 50.4785 50.6817 50.4843C50.9077 50.4902 51.1262 50.5662 51.3069 50.7019C51.4845 50.8282 51.6228 51.002 51.7059 51.2034C51.789 51.4047 51.8136 51.6255 51.7768 51.8403C51.6802 52.2483 51.2817 52.5318 50.6548 52.6413C49.0955 52.9133 47.6465 52.3693 46.1131 51.7859C44.3947 51.1351 41.7774 50.1811 40.3412 51.3371C40.077 51.5228 39.8777 51.7867 39.7714 52.0917C39.6652 52.3967 39.6573 52.7274 39.7489 53.0371C39.882 53.4077 40.118 53.7327 40.4292 53.9741C40.7404 54.2154 41.1139 54.3631 41.5061 54.3998Z" fill="#2B2D3E"/>
<path d="M90.0776 86.1574C87.4011 85.6637 84.7646 84.9735 82.1895 84.0922C81.4653 83.7474 80.6867 83.5306 79.8884 83.4517C79.7984 83.4508 79.7117 83.4854 79.647 83.548C79.5823 83.6106 79.545 83.6962 79.543 83.7862C79.542 83.8764 79.5764 83.9633 79.6389 84.0283C79.702 84.0924 79.7876 84.1295 79.8776 84.1317C81.2376 84.1528 82.2365 85.3475 89.9484 86.8252C90.0148 86.8385 90.0837 86.8317 90.1462 86.8057C90.2088 86.7797 90.2622 86.7357 90.2997 86.6793C90.3372 86.6228 90.357 86.5565 90.3567 86.4888C90.3564 86.421 90.3359 86.3549 90.2979 86.2988C90.2722 86.2617 90.2393 86.2301 90.2013 86.2058C90.1632 86.1815 90.1207 86.1651 90.0762 86.1574H90.0776Z" fill="#2B2D3E"/>
<path d="M81.7717 26.8761C82.0852 26.8013 82.4034 26.7469 82.7237 26.7136C83.9246 26.6031 85.1351 26.7574 86.2699 27.1658C86.3123 27.1831 86.3578 27.1917 86.4036 27.191C86.4494 27.1903 86.4946 27.1803 86.5364 27.1616C86.5782 27.1429 86.6158 27.1159 86.6469 27.0823C86.678 27.0486 86.702 27.009 86.7173 26.9659C86.733 26.923 86.7398 26.8773 86.7372 26.8317C86.7347 26.7861 86.7228 26.7415 86.7024 26.7007C86.6821 26.6596 86.6537 26.623 86.6191 26.5931C86.5844 26.5632 86.544 26.5406 86.5004 26.5266C85.2733 26.0853 83.9646 25.9178 82.6659 26.0356C81.2012 26.1512 81.2012 26.4613 81.2012 26.6279C81.2055 26.6752 81.2194 26.7212 81.2419 26.763C81.2644 26.8049 81.2951 26.8418 81.3321 26.8716C81.3692 26.9013 81.4118 26.9233 81.4576 26.9362C81.5033 26.9492 81.5511 26.9528 81.5983 26.9468C81.6614 26.9392 81.7212 26.9147 81.7717 26.8761Z" fill="#2B2D3E"/>
<path d="M94.814 30.2145C95.2043 30.2213 95.5878 30.3192 95.9339 30.5001C97.1055 30.8766 98.1712 31.5253 99.0436 32.3932C99.1078 32.455 99.1937 32.4892 99.2829 32.4883C99.372 32.4874 99.4572 32.4515 99.5202 32.3884C99.5831 32.3253 99.6188 32.2399 99.6194 32.1508C99.6201 32.0616 99.5857 31.9758 99.5237 31.9118C98.5896 30.9791 97.4477 30.2811 96.1917 29.8752C95.7666 29.6561 95.2962 29.5396 94.8181 29.5352C94.7296 29.5397 94.6459 29.5765 94.5827 29.6385C94.5194 29.7005 94.481 29.7834 94.4747 29.8718C94.4739 29.9166 94.4823 29.9611 94.4993 30.0025C94.5162 30.044 94.5414 30.0817 94.5733 30.1132C94.6046 30.1453 94.642 30.1708 94.6834 30.1882C94.7247 30.2056 94.7691 30.2145 94.814 30.2145Z" fill="#2B2D3E"/>
<path d="M96.8247 34.6188C96.7392 34.5607 96.639 34.5279 96.5356 34.5243C96.4322 34.5206 96.33 34.5464 96.2406 34.5984C96.1351 34.673 96.0468 34.7691 95.9815 34.8805C95.9162 34.9919 95.8754 35.116 95.8618 35.2444C95.6388 36.6133 95.8781 36.9131 96.1338 37.0226C96.1881 37.0478 96.2471 37.0611 96.3069 37.0617C96.3667 37.0623 96.4259 37.0501 96.4806 37.026C96.5888 36.9784 96.7485 36.8689 96.8832 36.4643C96.9355 36.3236 97.3755 35.0724 96.8247 34.6195V34.6188Z" fill="#2B2D3E"/>
<path d="M84.2895 33.4725C84.3434 33.4951 84.4015 33.5062 84.46 33.5053C84.5185 33.5044 84.5762 33.4913 84.6295 33.467C84.7362 33.4194 84.8933 33.3072 85.0272 32.9047C85.0796 32.7639 85.5209 31.5127 84.9688 31.0598C84.8831 31.0018 84.7827 30.9691 84.6792 30.9656C84.5757 30.9622 84.4734 30.988 84.384 31.0401C84.2787 31.1145 84.1904 31.2104 84.1251 31.3216C84.0598 31.4327 84.0189 31.5566 84.0052 31.6847C83.7842 33.0481 84.0215 33.3528 84.2895 33.4731V33.4725Z" fill="#2B2D3E"/>
<path d="M89.2848 46.9986C88.7017 47.0258 88.1186 46.9447 87.5651 46.7592C87.519 46.7291 87.4665 46.71 87.4118 46.7036C87.3571 46.6972 87.3017 46.7035 87.2499 46.7222C87.198 46.7409 87.1512 46.7713 87.1132 46.8111C87.0751 46.8509 87.0469 46.899 87.0306 46.9517C86.9449 47.2713 87.2448 47.3719 87.4835 47.4515C88.0775 47.6263 88.696 47.7028 89.3147 47.6779C89.4049 47.6739 89.4898 47.6343 89.5507 47.5677C89.6117 47.5012 89.6437 47.4131 89.6397 47.3229C89.6358 47.2328 89.5962 47.1479 89.5296 47.0869C89.463 47.026 89.375 46.9939 89.2848 46.9979V46.9986Z" fill="#2B2D3E"/>
<path d="M109.048 27.128C108.973 27.0504 108.693 26.8526 108.599 26.7465C108.57 26.6688 108.513 26.6045 108.44 26.5659C108.366 26.5272 108.281 26.5169 108.2 26.5367C108.12 26.5565 108.049 26.6052 108.002 26.6735C107.954 26.7419 107.934 26.8252 107.944 26.9076C107.979 27.2 108.374 27.4374 108.556 27.5992C108.954 28.0407 109.32 28.5097 109.652 29.0027C110.776 30.5844 111.604 32.3572 112.094 34.2346C112.103 34.2797 112.121 34.3226 112.147 34.3605C112.173 34.3984 112.207 34.4307 112.246 34.4553C112.285 34.4799 112.328 34.4965 112.373 34.5039C112.419 34.5113 112.465 34.5095 112.51 34.4985C112.555 34.4871 112.596 34.4669 112.633 34.4391C112.669 34.4113 112.7 34.3764 112.723 34.3366C112.746 34.2966 112.76 34.2521 112.765 34.2061C112.771 34.1604 112.766 34.1141 112.753 34.0701C112.243 32.1131 111.382 30.2651 110.212 28.6158C109.864 28.0896 109.475 27.5921 109.048 27.128Z" fill="#2B2D3E"/>
<path d="M112.001 28.9207C112.495 30.1892 112.786 31.5282 112.86 32.8878C112.864 32.9752 112.902 33.0577 112.965 33.1182C113.029 33.1787 113.113 33.2126 113.2 33.2128H113.215C113.305 33.2086 113.39 33.169 113.451 33.1026C113.511 33.0363 113.544 32.9485 113.54 32.8586C113.462 31.4275 113.157 30.0179 112.638 28.682C112.486 28.274 112.345 27.866 112.177 27.4682C112.177 27.46 111.952 27.0174 111.921 26.9412C111.905 26.8816 111.874 26.8274 111.829 26.7844C111.785 26.7414 111.73 26.7111 111.67 26.6968C111.61 26.6825 111.548 26.6847 111.489 26.7032C111.43 26.7217 111.377 26.7558 111.336 26.8018C111.282 26.8639 111.252 26.9437 111.252 27.0262C111.252 27.1336 111.276 27.1846 111.547 27.7252C111.712 28.1149 111.848 28.5134 112.001 28.9207Z" fill="#2B2D3E"/>
<path d="M107.191 34.3297C107.172 34.3701 107.161 34.4139 107.159 34.4585C107.156 34.5032 107.163 34.5479 107.178 34.59C107.193 34.6321 107.217 34.6708 107.247 34.7039C107.277 34.7369 107.313 34.7637 107.354 34.7826C108.23 35.111 109.161 35.2708 110.097 35.2545L110.537 35.2763C110.627 35.2785 110.714 35.2449 110.78 35.183C110.845 35.1211 110.884 35.0358 110.886 34.9458C110.888 34.9011 110.88 34.8565 110.865 34.8147C110.849 34.7729 110.825 34.7346 110.794 34.7021C110.763 34.6696 110.726 34.6436 110.686 34.6254C110.645 34.6072 110.601 34.5973 110.556 34.5963C109.568 34.6214 108.583 34.4761 107.644 34.1665C107.604 34.1473 107.56 34.1364 107.515 34.1342C107.471 34.132 107.426 34.1387 107.384 34.1539C107.342 34.1691 107.303 34.1924 107.27 34.2226C107.237 34.2527 107.21 34.2891 107.191 34.3297Z" fill="#2B2D3E"/>
<path d="M100.678 44.0648C100.935 43.9798 101.732 43.888 102.008 43.516C102.178 43.2712 102.297 42.9931 102.356 42.7C102.696 42.9285 102.973 43.2386 103.162 43.601C103.204 43.6809 103.275 43.7409 103.361 43.7678C103.448 43.7947 103.541 43.7863 103.621 43.7445C103.701 43.7026 103.761 43.6308 103.787 43.5447C103.814 43.4586 103.806 43.3654 103.764 43.2855C103.479 42.738 103.036 42.2881 102.494 41.9935C102.51 41.7419 102.618 41.5049 102.797 41.3271C103.107 41.1231 103.829 41.3516 104.17 41.5433C104.249 41.585 104.34 41.5944 104.426 41.5694C104.511 41.5444 104.583 41.4869 104.626 41.4094C104.67 41.3319 104.681 41.2405 104.658 41.1547C104.635 41.0689 104.579 40.9955 104.503 40.9504C104.198 40.7524 103.85 40.6313 103.489 40.5973C103.128 40.5633 102.763 40.6175 102.427 40.7552C102.229 40.926 102.069 41.1365 101.957 41.3731C101.845 41.6097 101.784 41.8671 101.777 42.1288C101.744 42.4725 101.638 42.8052 101.466 43.1046C101.24 43.2211 100.998 43.3028 100.748 43.3467C100.425 43.4228 100.264 43.4609 100.176 43.6357C100.143 43.7035 100.132 43.7808 100.147 43.8551C100.162 43.9294 100.202 43.9966 100.26 44.0459C100.317 44.0953 100.39 44.1239 100.465 44.1273C100.541 44.1307 100.616 44.1087 100.678 44.0648Z" fill="#2B2D3E"/>
<path d="M83.0282 39.5938C83.9537 40.4336 85.7754 39.778 86.5758 39.9399C87.4394 40.116 88.133 41.3434 89.4998 40.3044C89.5356 40.2778 89.5657 40.2443 89.5882 40.2058C89.6115 40.1674 89.6268 40.1248 89.6331 40.0803C89.6394 40.0359 89.6366 39.9907 89.6249 39.9474C89.6109 39.8933 89.5839 39.8435 89.5461 39.8024C89.5083 39.7612 89.461 39.7301 89.4083 39.7116C89.3556 39.6931 89.2991 39.6879 89.2439 39.6964C89.1887 39.7049 89.1365 39.7269 89.0918 39.7604C88.4941 40.2132 88.216 40.0405 87.7134 39.7264C86.8335 39.1824 86.5459 39.1824 85.4259 39.2871C84.6929 39.3551 83.8619 39.4312 83.4838 39.0885C83.3933 38.991 83.3244 38.8755 83.2815 38.7495C83.2386 38.6236 83.2228 38.49 83.235 38.3575C83.235 36.9866 85.1736 37.3783 86.3711 36.6929C86.6612 36.4604 86.9012 36.1715 87.0765 35.8437C87.2518 35.5158 87.3589 35.1559 87.3911 34.7855C87.4231 34.7464 87.4471 34.7014 87.4616 34.653C87.4762 34.6046 87.481 34.5538 87.4758 34.5036C87.4706 34.4533 87.4555 34.4046 87.4314 34.3602C87.4073 34.3158 87.3747 34.2766 87.3354 34.2449C87.2833 34.2022 87.2209 34.174 87.1545 34.1633C86.5058 34.117 86.9063 35.4512 86.0039 36.1224C84.9982 36.6922 82.5495 36.3264 82.5556 38.3602C82.5419 38.5877 82.577 38.8154 82.6585 39.0281C82.74 39.2409 82.8661 39.4337 83.0282 39.5938Z" fill="#2B2D3E"/>
<path d="M85.2619 43.1803C85.1247 43.1431 84.9832 43.1243 84.841 43.1245C84.7727 43.1241 84.7058 43.1441 84.6489 43.1821C84.5921 43.22 84.5479 43.2741 84.5221 43.3374C84.497 43.4008 84.4914 43.4702 84.5059 43.5368C84.5205 43.6034 84.5545 43.6642 84.6037 43.7114C85.7012 44.7565 87.1761 46.2314 88.719 46.2314C89.5308 46.175 90.3138 45.9081 90.9909 45.4569C91.1589 45.3454 91.6709 45.0061 91.4785 44.5376C91.2833 44.0799 90.6319 44.0031 90.2008 43.9521C90.1579 43.9446 86.3125 43.351 85.2619 43.1803ZM90.7924 44.7592C90.2756 45.1441 89.6772 45.4039 89.0434 45.5188C87.988 45.7357 86.7994 44.8211 85.8658 43.9684C88.1057 44.3274 90.6197 44.6763 90.7924 44.7565V44.7592Z" fill="#2B2D3E"/>
<path d="M41.5366 26.2706C41.9344 26.4936 41.9589 26.4855 42.254 27.3069C42.3292 27.6382 42.4703 27.9509 42.6689 28.2265C42.8675 28.5021 43.1195 28.7349 43.41 28.911C44.1294 29.3143 44.9413 29.523 45.7655 29.5162C45.8482 29.5055 45.9316 29.5005 46.0151 29.5013C46.0885 29.5727 46.1511 29.6549 46.1993 29.7454C46.4644 30.1284 46.8169 30.4428 47.2275 30.6626C47.6382 30.8824 48.0953 31.0013 48.561 31.0095C49.0554 31.0072 49.5392 30.8658 49.957 30.6015C50.1265 30.4802 50.2636 30.3192 50.3563 30.1326C50.449 29.946 50.4945 29.7395 50.4888 29.5312C51.3469 29.453 51.8882 29.0905 52.0154 28.5017C52.0655 28.2364 52.0482 27.9629 51.9651 27.7061C52.1854 27.6653 52.3996 27.5966 52.6029 27.5021C53.3176 27.1621 53.3917 26.2182 52.4954 25.5301C52.7586 25.4553 52.983 25.2812 53.1231 25.0459C53.8711 23.7301 51.7441 22.4211 50.2426 22.3987C51.0679 21.5664 51.655 20.528 51.9426 19.3917C52.0091 19.1367 52.0196 18.8703 51.9736 18.6108C51.9276 18.3513 51.8261 18.1048 51.6761 17.8882C51.4326 17.6628 51.1095 17.5433 50.778 17.5561C50.4464 17.5689 50.1335 17.7128 49.908 17.9562C49.5011 18.312 49.1348 18.7118 48.816 19.1483C47.6688 20.6035 47.1983 20.9163 44.823 21.0183C44.1287 21.0191 43.437 21.1029 42.7626 21.2678C42.001 21.4895 41.1027 23.4275 40.8702 24.2408C40.6953 24.6768 40.6796 25.1605 40.826 25.6069C40.9836 25.9001 41.2333 26.1333 41.5366 26.2706ZM51.349 28.3691C51.2524 28.8151 50.4602 28.8852 49.9978 28.8655C49.2901 28.8543 48.6051 28.6146 48.0449 28.1821C47.9397 28.1164 47.8517 28.0266 47.7881 27.9202C47.7245 27.8138 47.6871 27.6938 47.679 27.5701C47.6974 27.413 47.8613 27.3049 47.9952 27.2416C48.0669 27.2079 48.1246 27.1501 48.1582 27.0783C48.1919 27.0066 48.1994 26.9253 48.1795 26.8486L48.1985 26.8649C49.0844 27.4562 50.1255 27.772 51.1905 27.7727C51.2864 27.7707 51.4081 28.0637 51.349 28.3691ZM52.473 26.6976C52.473 26.7343 52.4642 26.8227 52.3119 26.8948C51.3476 27.3518 49.3355 26.9587 48.5079 26.2366C48.4161 26.1545 48.352 26.046 48.3244 25.9259C48.2968 25.8059 48.3071 25.6803 48.3539 25.5664C48.4006 25.4524 48.4815 25.3558 48.5855 25.2897C48.6894 25.2237 48.8113 25.1915 48.9343 25.1975C48.9626 25.1987 48.9909 25.1964 49.0186 25.1907C49.7719 25.5124 50.5851 25.6698 51.4041 25.6525C51.7685 25.834 52.5125 26.2692 52.473 26.6976ZM41.5067 24.4659C41.6937 23.8199 42.4553 22.0349 43.1387 21.8744C43.7021 21.7633 44.2746 21.705 44.8489 21.7003C47.4376 21.5929 48.085 21.1747 49.3477 19.5719C49.6359 19.1741 49.967 18.8092 50.3351 18.4839C50.3922 18.4383 50.9022 18.0405 51.1375 18.3023C51.2257 18.437 51.2843 18.5887 51.3096 18.7477C51.3349 18.9066 51.3263 19.0691 51.2844 19.2244C50.7404 21.4242 49.4117 21.9737 49.2355 22.6836C49.2223 22.7375 49.2222 22.7938 49.2353 22.8477C49.2483 22.9017 49.274 22.9517 49.3103 22.9937C49.5728 23.2949 49.9903 22.9202 50.9063 23.182C51.5749 23.3486 52.1633 23.746 52.5675 24.304C52.5961 24.3695 52.608 24.441 52.6022 24.5122C52.5964 24.5834 52.573 24.6521 52.5342 24.712C52.4465 24.8677 52.1725 24.9534 51.7291 24.9657H51.4965C50.5853 25.0024 48.5902 24.5753 48.6609 23.981C48.6725 23.8845 48.7969 23.7899 48.9948 23.7294C49.081 23.7029 49.1532 23.6432 49.1954 23.5635C49.2376 23.4838 49.2464 23.3906 49.2199 23.3044C49.1934 23.2182 49.1337 23.1461 49.054 23.1039C48.9743 23.0616 48.8811 23.0528 48.7949 23.0793C48.6199 23.1026 48.455 23.1747 48.3191 23.2874C48.1831 23.4001 48.0818 23.5488 48.0265 23.7165C47.9713 23.8841 47.9645 24.064 48.0068 24.2354C48.0491 24.4068 48.1389 24.5628 48.2658 24.6855C48.0753 24.7958 47.9167 24.9538 47.8055 25.1438C47.8018 25.0714 47.7751 25.002 47.7292 24.9459C47.6832 24.8897 47.6206 24.8497 47.5503 24.8317C47.4801 24.8137 47.4059 24.8186 47.3386 24.8458C47.2714 24.873 47.2145 24.9209 47.1765 24.9827C46.8725 25.3578 46.4831 25.6547 46.0409 25.8487C45.5987 26.0427 45.1166 26.1282 44.6347 26.0979C44.59 26.0949 44.5452 26.1008 44.5028 26.1152C44.4605 26.1295 44.4213 26.1521 44.3877 26.1816C44.354 26.2111 44.3265 26.2469 44.3067 26.287C44.2869 26.3271 44.2752 26.3708 44.2722 26.4154C44.2693 26.4601 44.2751 26.5049 44.2895 26.5472C44.3039 26.5896 44.3264 26.6288 44.3559 26.6624C44.3854 26.6961 44.4212 26.7236 44.4614 26.7434C44.5015 26.7632 44.5451 26.7749 44.5898 26.7779C45.1704 26.8088 45.7504 26.7062 46.2851 26.4779C46.8199 26.2495 47.2951 25.9015 47.6743 25.4607C47.6222 25.6559 47.6173 25.8607 47.66 26.0581C47.7026 26.2556 47.7917 26.44 47.9197 26.5963C47.8483 26.5815 47.774 26.5906 47.7082 26.6221C46.7522 27.0709 46.8005 28.0631 47.6273 28.7138C48.2404 29.19 48.9808 29.4739 49.7551 29.5298C49.7965 29.5672 49.8183 29.5706 49.8176 29.6291C49.7912 29.7899 49.7062 29.9353 49.5789 30.0371C49.1146 30.2973 48.5696 30.3741 48.0514 30.2524C47.5332 30.1307 47.0793 29.8193 46.7794 29.3795C46.6994 29.1703 46.544 28.9985 46.3439 28.8978C46.1437 28.7972 45.9132 28.775 45.6975 28.8355C45.0122 28.8248 44.3403 28.6444 43.7418 28.3106C42.9884 27.8951 43.0203 27.1437 42.5695 26.2842C42.2778 25.7402 41.5849 25.6191 41.4584 25.3635C41.3708 25.0676 41.3879 24.7506 41.5067 24.4659Z" fill="#2B2D3E"/>
</svg>
