<svg width="16" height="16" viewBox="0 0 16 16" fill="none" xmlns="http://www.w3.org/2000/svg">
<path d="M5.52702 3.8009C7.91574 3.46438 13.2212 3.09421 15.3333 4.30568M5.52702 7.9709C7.91574 7.63438 13.2212 7.26421 15.3333 8.47568M5.52702 12.1409C7.91574 11.8044 13.2212 11.4342 15.3333 12.6457" stroke="#5B5180" stroke-linecap="round"/>
<path d="M1.02353 4.8167C1.96088 4.98136 3.29831 4.88313 3.29831 4.30527V3.05417C3.29831 2.98012 3.28854 2.91245 3.26711 2.85511M1.02353 4.8167C0.79461 4.77649 0.66327 4.55765 0.677939 4.34018C0.701033 3.99782 0.686918 3.566 0.667333 3.22287C0.650971 2.93622 0.940849 2.68391 1.24754 2.69318C1.79562 2.70976 2.51826 2.68809 2.95797 2.66708C3.12477 2.65911 3.2219 2.73413 3.26711 2.85511M1.02353 4.8167C1.71547 5.04579 3.17692 5.26423 3.48718 4.30527C3.51675 3.88476 3.51413 3.00599 3.26711 2.85511M1.02353 8.98671C1.96088 9.15137 3.29831 9.05314 3.29831 8.47528V7.22418C3.29831 7.15012 3.28854 7.08245 3.26711 7.02511M1.02353 8.98671C0.79461 8.94649 0.66327 8.72765 0.677939 8.51019C0.701033 8.16783 0.686918 7.73601 0.667333 7.39288C0.650971 7.10622 0.940849 6.85391 1.24754 6.86319C1.79562 6.87976 2.51826 6.85809 2.95797 6.83709C3.12477 6.82912 3.2219 6.90413 3.26711 7.02511M1.02353 8.98671C1.66846 9.22707 3.05001 9.53176 3.41667 8.82763C3.46974 8.50611 3.51413 7.69549 3.26711 7.02511M1.02353 13.1567C1.96088 13.3214 3.29831 13.2231 3.29831 12.6453V11.3942C3.29831 11.3201 3.28854 11.2525 3.26711 11.1951M1.02353 13.1567C0.79461 13.1165 0.66327 12.8977 0.677939 12.6802C0.701033 12.3378 0.686918 11.906 0.667333 11.5629C0.650971 11.2762 0.940849 11.0239 1.24754 11.0332C1.79562 11.0498 2.51826 11.0281 2.95797 11.0071C3.12477 10.9991 3.2219 11.0741 3.26711 11.1951M1.02353 13.1567C1.66846 13.3273 3.41667 13.5756 3.41667 12.7884C3.41667 11.9082 3.26711 11.1951 3.26711 11.1951" stroke="#5B5180" stroke-linecap="round"/>
</svg>
