<svg width="16" height="16" viewBox="0 0 16 16" fill="none" xmlns="http://www.w3.org/2000/svg">
<path d="M0.978642 1.47948C0.955399 2.18395 0.929221 2.98181 0.902165 3.83237C0.769744 7.99517 0.616281 13.42 0.68297 15.3331M1.90625 0.994685C3.10828 0.759129 5.55089 0.660945 8 0.666746C8.90903 0.668899 9.81895 0.685378 10.6667 0.714475C12.235 0.768308 13.5904 0.865331 14.3333 0.994735M1.33333 15.3332C1.87977 14.7844 5.05926 14.4745 8 14.3109C8.94537 14.2584 9.86606 14.2209 10.6667 14.1956C11.6674 14.1639 12.4806 14.151 12.9197 14.151C14.8031 14.151 15.2871 14.4538 15.0385 13.2053C14.9603 12.8127 14.9338 11.594 14.9506 9.99984C14.9696 8.20553 15.0433 5.93555 15.1597 3.83237C15.2099 2.92427 15.2681 2.04728 15.3333 1.25309M8.66667 6.22221H2.66667M8.66667 9.1111H2.66667M8.66667 12H2.66667" stroke="#5B5180" stroke-linecap="round"/>
<path d="M10.5953 3.83252C10.5089 8.19739 10.4558 13.687 10.6667 14.1957M10.5953 3.83252H15.1597M10.5953 3.83252H0.902176" stroke="#5B5180" stroke-linecap="round"/>
</svg>
