<svg width="16" height="16" viewBox="0 0 16 16" fill="none" xmlns="http://www.w3.org/2000/svg">
<path d="M14.0938 0.994685C11.6201 0.509944 3.89292 0.606942 1.66667 0.994735M15.0214 1.47948C15.1584 5.63175 15.3973 13.0291 15.317 15.3331M14.6667 15.3332C13.725 14.3875 4.96364 14.151 3.08028 14.151C1.19693 14.151 0.712879 14.4538 0.96151 13.2053C1.16573 12.1799 1.01702 5.52083 0.666672 1.25309" stroke="#5B5180" stroke-linecap="round"/>
<path d="M6.00001 4.34081C7.78633 4.0494 11.7539 3.72884 13.3333 4.77794M6.00001 7.95193C7.78633 7.66051 11.7539 7.33995 13.3333 8.38905M6.00001 11.563C7.78633 11.2716 11.7539 10.9511 13.3333 12.0002M3.26901 4.77266C3.29917 4.76798 4.0295 4.6661 3.99908 3.95568C3.9641 3.13875 3.14736 3.24532 2.87355 3.60048C2.78544 3.71486 2.60078 4.00493 2.69077 4.36753C2.76177 4.65361 3.03334 4.80925 3.26901 4.77266ZM3.26901 8.38377C3.29917 8.37909 4.0295 8.27721 3.99908 7.5668C3.9641 6.74986 3.14736 6.85643 2.87355 7.21159C2.78544 7.32597 2.60078 7.61604 2.69077 7.97864C2.76177 8.26472 3.03334 8.42036 3.26901 8.38377ZM3.26901 11.9949C3.29917 11.9902 4.0295 11.8883 3.99908 11.1779C3.9641 10.361 3.14736 10.4675 2.87355 10.8227C2.78544 10.9371 2.60078 11.2272 2.69077 11.5897C2.76177 11.8758 3.03334 12.0315 3.26901 11.9949Z" stroke="#5B5180" stroke-linecap="round"/>
</svg>
