<svg width="16" height="16" viewBox="0 0 16 16" fill="none" xmlns="http://www.w3.org/2000/svg">
<path d="M7.66666 1.3335H12.6667C14.1394 1.3335 15.3333 2.45993 15.3333 3.84945V9.51036C15.3333 10.8999 14.1394 12.0263 12.6667 12.0263H8.52096C7.76499 12.0263 7.04455 12.329 6.53884 12.8592L4.91442 14.5621C4.71006 14.7763 4.33332 14.6399 4.33332 14.3517V12.6553C4.33332 12.3079 4.03485 12.0263 3.66666 12.0263H3.33332C1.86056 12.0263 0.666656 10.8999 0.666656 9.51036V3.84945C0.666656 2.45993 1.86056 1.3335 3.33332 1.3335H3.99999M5.33332 1.3335H6.33332" stroke="#5B5180" stroke-linecap="round"/>
<path d="M8 8.6665V4.6665M8 4.6665H6M8 4.6665H10" stroke="#5B5180" stroke-linecap="round"/>
</svg>
