<svg width="16" height="16" viewBox="0 0 16 16" fill="none" xmlns="http://www.w3.org/2000/svg">
<path d="M10.7711 10.7136C10.6169 9.47681 10.6477 5.61315 10.7711 4.50001M10.9254 11.1774C12.2465 11.2459 14.6002 11.3654 15.3333 11.3253M15.3334 11.0001C15.0325 10.5292 14.9572 6.14851 14.9572 5.20682C14.9572 4.26513 15.0535 4.0231 14.6563 4.14742C14.33 4.24953 12.2112 4.17518 10.8533 4" stroke="#5B5180" stroke-linecap="round"/>
<path d="M7.38032 2.77093C6.1435 2.61669 2.27983 2.64755 1.16669 2.77094M7.84413 2.92518C7.91262 4.24636 8.03212 6.60004 7.99196 7.33315M7.66678 7.33317C7.19593 7.03228 2.8152 6.95703 1.87351 6.95703C0.931819 6.95703 0.689791 7.05336 0.814108 6.65613C0.916219 6.32986 0.841866 4.21106 0.666687 2.85315M7.49299 10.0744C6.48104 9.96426 3.31987 9.9863 2.40912 10.0744M7.87247 10.1846C7.92851 11.1283 8.02628 12.8095 7.99343 13.3332M7.72737 13.3332C7.34213 13.1182 3.75789 13.0645 2.98742 13.0645C2.21695 13.0645 2.01892 13.1333 2.12064 12.8496C2.20418 12.6165 2.14335 11.1031 2.00002 10.1332" stroke="#5B5180" stroke-linecap="round"/>
</svg>
