<svg width="16" height="16" viewBox="0 0 16 16" fill="none" xmlns="http://www.w3.org/2000/svg">
<path d="M9.33332 10.0002H7.99999M9.33332 10.0002C9.33332 9.89992 9.3112 9.80484 9.27157 9.71955M9.33332 10.0002C9.33332 10.0863 9.31701 10.1685 9.28729 10.2441M8.66666 10.6668V9.3335M8.66666 10.6668C8.75054 10.6668 8.83081 10.6513 8.90476 10.6231M8.66666 10.6668C8.585 10.6668 8.50678 10.6521 8.43447 10.6253M7.99999 10.0002C7.99999 10.0978 8.02098 10.1905 8.05868 10.2741M7.99999 10.0002C7.99999 9.89992 8.02212 9.80484 8.06175 9.71955M8.66666 9.3335C8.585 9.3335 8.50678 9.34818 8.43447 9.37504M8.66666 9.3335C8.74831 9.3335 8.82654 9.34818 8.89884 9.37504M3.99999 9.3335H2.66666M3.99999 9.3335C3.99999 9.41932 3.98377 9.50135 3.95424 9.5767M3.99999 9.3335C3.99999 9.24768 3.98377 9.16564 3.95424 9.0903M3.33332 10.0002V8.66683M3.33332 10.0002C3.24615 10.0002 3.16289 9.98343 3.08657 9.95301M3.33332 10.0002C3.43206 10.0002 3.52579 9.9787 3.61009 9.94018M2.66666 9.3335C2.66666 9.23806 2.68671 9.14731 2.72283 9.06523M2.66666 9.3335C2.66666 9.41932 2.68287 9.50135 2.71241 9.5767M3.33332 8.66683C3.43206 8.66683 3.52579 8.68829 3.61009 8.72681M3.33332 8.66683C3.25321 8.66683 3.17639 8.68096 3.10523 8.70687M6.66666 4.66683V3.3335M6.66666 4.66683C6.49773 4.66683 6.34347 4.604 6.22599 4.50043M6.66666 4.66683C6.75903 4.66683 6.84701 4.64804 6.92699 4.61408M5.99999 4.00016L7.33322 4.01221M5.99999 4.00016C5.99999 3.91073 6.0176 3.82542 6.04954 3.74749M5.99999 4.00016C5.99999 4.10338 6.02344 4.20111 6.06532 4.28833M6.66666 3.3335C6.78809 3.3335 6.90193 3.36596 6.99999 3.42268M6.66666 3.3335C6.5921 3.3335 6.52041 3.34573 6.45347 3.36831M8.21156 10.4873L9.13093 9.52173M8.21156 10.4873C8.27541 10.547 8.35099 10.5943 8.43447 10.6253M8.21156 10.4873C8.14748 10.4275 8.09523 10.3551 8.05868 10.2741M9.13093 9.52173C9.0652 9.45793 8.98636 9.40756 8.89884 9.37504M9.13093 9.52173C9.18909 9.57818 9.23699 9.64514 9.27157 9.71955M9.13093 10.4786L8.21156 9.51299M9.13093 10.4786C9.06668 10.541 8.98991 10.5905 8.90476 10.6231M9.13093 10.4786C9.1985 10.413 9.25223 10.3332 9.28729 10.2441M8.21156 9.51299C8.27541 9.45332 8.35099 9.40606 8.43447 9.37504M8.21156 9.51299C8.14925 9.57122 8.09813 9.64126 8.06175 9.71955M8.43447 9.37504L8.90476 10.6231M8.43447 10.6253L8.89884 9.37504M9.27157 9.71955L8.05868 10.2741M8.06175 9.71955L9.28729 10.2441M7.33322 4.01221C7.33329 4.0082 7.33332 4.00419 7.33332 4.00016C7.33332 3.90649 7.31401 3.81734 7.27914 3.73646M7.33322 4.01221C7.33163 4.10148 7.31251 4.18646 7.27914 4.26387M7.17373 3.56734L6.22599 4.50043M7.17373 3.56734C7.1246 3.50983 7.06586 3.46079 6.99999 3.42268M7.17373 3.56734C7.21682 3.61777 7.25251 3.6747 7.27914 3.73646M6.22599 4.50043C6.15919 4.44154 6.10428 4.36949 6.06532 4.28833M6.22599 3.4999L7.12783 4.48158M6.22599 3.4999C6.1496 3.56723 6.08876 3.65179 6.04954 3.74749M6.22599 3.4999C6.29162 3.44204 6.36873 3.39689 6.45347 3.36831M7.12783 4.48158C7.19179 4.42029 7.24356 4.34639 7.27914 4.26387M7.12783 4.48158C7.0699 4.53709 7.00196 4.58225 6.92699 4.61408M7.27914 4.26387L6.04954 3.74749M6.06532 4.28833L6.99999 3.42268M6.45347 3.36831L6.92699 4.61408M6.45347 4.61408L7.27914 3.73646M3.83409 8.89339L2.85925 9.80221M3.83409 8.89339C3.77237 8.82322 3.69614 8.76613 3.61009 8.72681M3.83409 8.89339C3.88481 8.95106 3.92573 9.01756 3.95424 9.0903M2.85925 9.80221C2.92329 9.86699 3.00051 9.9187 3.08657 9.95301M2.85925 9.80221C2.7961 9.73835 2.74576 9.66178 2.71241 9.5767M2.89141 8.83433L3.8074 9.80221M2.89141 8.83433C2.95345 8.77936 3.02582 8.73578 3.10523 8.70687M2.89141 8.83433C2.81978 8.8978 2.7619 8.97644 2.72283 9.06523M3.8074 9.80221C3.75089 9.85936 3.68412 9.90635 3.61009 9.94018M3.8074 9.80221C3.87055 9.73835 3.92089 9.66178 3.95424 9.5767M3.61009 8.72681L3.08657 9.95301M3.61009 9.94018L3.10523 8.70687M2.72283 9.06523L3.95424 9.5767M3.95424 9.0903L2.71241 9.5767M12.6667 8.66683C12.6667 9.03502 12.3682 9.3335 12 9.3335C11.6318 9.3335 11.3333 9.03502 11.3333 8.66683C11.3333 8.29864 11.6318 8.00016 12 8.00016C12.3682 8.00016 12.6667 8.29864 12.6667 8.66683ZM6.66666 7.3335C6.66666 7.70169 6.36818 8.00016 5.99999 8.00016C5.6318 8.00016 5.33332 7.70169 5.33332 7.3335C5.33332 6.96531 5.6318 6.66683 5.99999 6.66683C6.36818 6.66683 6.66666 6.96531 6.66666 7.3335ZM7.33332 12.6668C7.33332 13.035 7.03485 13.3335 6.66666 13.3335C6.29847 13.3335 5.99999 13.035 5.99999 12.6668C5.99999 12.2986 6.29847 12.0002 6.66666 12.0002C7.03485 12.0002 7.33332 12.2986 7.33332 12.6668Z" stroke="#5B5180" stroke-linecap="round"/>
<path d="M9.7513 6.20731C10.223 4.55519 9.62585 1.86877 6.41426 1.86877C3.00606 1.86877 2.3331 4.9245 2.50684 6.6522C2.53002 6.88269 2.37602 7.1012 2.15399 7.18784C1.38908 7.48632 0.432525 8.27854 0.718438 9.87708C1.04737 11.7162 3.13957 11.8589 4.22714 11.6582M9.7513 6.20731L4.33289 11.4936C4.27601 11.5491 4.23587 11.6185 4.22096 11.6953C4.00618 12.8018 4.15334 14.9442 6.10582 15.2804C7.81029 15.5738 8.6492 14.5834 8.96037 13.8011C9.04698 13.5833 9.27519 13.433 9.5152 13.4565C11.3439 13.6358 14.5875 12.952 14.5875 9.47351C14.5875 6.19848 11.6764 5.62361 9.9268 6.1052C9.85986 6.12363 9.8003 6.15951 9.7513 6.20731ZM10.3616 5.2348C10.9809 4.75893 12.1337 3.17907 11.7907 0.666504M10.8588 5.95612C11.3249 5.35717 12.8723 4.24219 15.3333 4.57392" stroke="#5B5180" stroke-linecap="round"/>
</svg>
