<svg width="16" height="16" viewBox="0 0 16 16" fill="none" xmlns="http://www.w3.org/2000/svg">
<path d="M2.51393 14.1029C7.36612 15.1319 14.2893 14.518 14.2893 10.907V3.08901C14.2893 2.62625 14.2387 2.2034 14.1278 1.84509M2.51393 14.1029C1.32896 13.8516 0.649077 12.4841 0.725011 11.1252C0.844556 8.98581 0.771491 6.28741 0.67011 4.14322C0.585414 2.35191 2.08596 0.77528 3.67355 0.833227C6.51065 0.936782 10.2514 0.801366 12.5275 0.670115C13.391 0.620326 13.8937 1.08907 14.1278 1.84509M2.51393 14.1029C3.04393 14.3147 3.66114 14.5251 4.33335 14.7104M14.1278 1.84509C15.4065 2.78795 15.42 8.27925 15.267 10.907C13.8986 16.0128 8.20409 15.7773 4.33335 14.7104M14.1278 1.84509C14.5075 3.00778 15.1469 6.44795 14.6667 10.907C14.1865 15.3661 7.57771 15.3006 4.33335 14.7104" stroke="#5B5180" stroke-linecap="round"/>
<path d="M5.7403 9.4667L3.64156 8.28218C3.21771 8.04296 3.23426 7.44932 3.67084 7.2322L6.41657 5.8667M9.59299 5.8667L11.6917 7.05122C12.1156 7.29044 12.099 7.88408 11.6625 8.1012L8.91672 9.4667" stroke="#5B5180" stroke-linecap="round"/>
</svg>
