<svg width="16" height="16" viewBox="0 0 16 16" fill="none" xmlns="http://www.w3.org/2000/svg">
<path d="M11.9589 5.66679C13.1767 4.55568 15.5459 2.73346 15.2802 4.33346C14.9481 6.33346 15.2802 10.0002 15.2802 10.3335C15.2802 10.6668 15.6123 11.3335 14.6159 10.6668C13.6196 10.0002 12.6232 9.3335 12.291 9.00016" stroke="#5B5180" stroke-linecap="round"/>
<path d="M3.60357 3.35422C1.05424 3.35422 0.589968 4.60415 0.676137 5.28409C0.681224 5.32422 0.685411 5.3633 0.685411 5.40376V10.9821C0.685411 12.574 1.90116 12.7508 2.50903 12.6403C3.72493 12.5297 6.6674 12.375 8.71011 12.6403C11.2635 12.9719 10.534 7.00232 10.534 5.01245C10.534 3.02258 6.88649 3.35422 3.60357 3.35422Z" stroke="#5B5180" stroke-linecap="round"/>
</svg>
