<svg width="16" height="16" viewBox="0 0 16 16" fill="none" xmlns="http://www.w3.org/2000/svg">
<path d="M0.811595 3.96134C0.811595 3.31466 0.877208 2.02147 2.45193 2.02147C2.91241 2.02164 5.60913 1.81696 5.73251 2.66809C6.06058 4.93116 10.6535 3.63803 12.6219 3.63803C14.5903 3.63803 15.2465 4.28465 15.2465 5.90121C15.2465 6.07311 15.2539 6.29254 15.2644 6.54783C15.3527 8.6933 15.6585 13.3717 13.6063 13.6606C11.3098 13.9839 1.13965 14.6306 0.811595 12.3674C0.62465 11.0777 0.648551 8.39904 0.717297 6.22452C0.74506 5.34634 0.780137 4.55038 0.811595 3.96134Z" stroke="#5B5180" stroke-linecap="round"/>
<path d="M0.717285 6.22461C5.46294 6.22461 15.0163 6.28927 15.2644 6.54792" stroke="#5B5180" stroke-linecap="round"/>
</svg>
