<svg width="16" height="16" viewBox="0 0 16 16" fill="none" xmlns="http://www.w3.org/2000/svg">
<path d="M15.0051 14.0941C15.4898 11.6205 15.3928 3.89324 15.005 1.66699M14.5203 15.0217C10.368 15.1587 2.97068 15.3977 0.666616 15.3174M0.666565 14.667C1.61224 13.7253 1.84873 4.96396 1.84873 3.0806C1.84873 1.19725 1.54598 0.713199 2.7944 0.96183C3.81983 1.16605 10.4789 1.01734 14.7466 0.666992" stroke="#5B5180" stroke-linecap="round"/>
<path d="M11 12.6668C12.3909 11.9716 11.3333 10.6668 10 10.6668L4.66654 10.6668C3.33321 10.6668 3.33325 11.6668 3.33346 12.0002C3.33325 13.6668 10.3332 13.0002 11 12.6668Z" stroke="#5B5180" stroke-linecap="round"/>
<path d="M7.63252 4.98867C8.41247 4.41329 7.81939 3.3335 7.07174 3.3335L4.08082 3.3335C3.33312 3.3335 3.33314 4.16108 3.33325 4.43694C3.33314 5.81625 7.25858 5.26453 7.63252 4.98867Z" stroke="#5B5180" stroke-linecap="round"/>
<path d="M12.546 8.87373C14.2173 8.10655 12.9464 6.66683 11.3443 6.66683L4.93519 6.66683C3.33296 6.66683 3.33301 7.77028 3.33326 8.13809C3.33301 9.97717 11.7447 9.24154 12.546 8.87373Z" stroke="#5B5180" stroke-linecap="round"/>
</svg>
