<svg width="16" height="16" viewBox="0 0 16 16" fill="none" xmlns="http://www.w3.org/2000/svg">
<path d="M5.52704 3.8009C7.91576 3.46438 13.2212 3.09421 15.3334 4.30568M5.52704 7.9709C7.91576 7.63438 13.2212 7.26421 15.3334 8.47568M5.52704 12.1409C7.91576 11.8044 13.2212 11.4342 15.3334 12.6457" stroke="#5B5180" stroke-linecap="round"/>
<path d="M1.02354 4.8167C1.9609 4.98136 3.29833 4.88313 3.29833 4.30527V3.05417C3.29833 2.98012 3.28856 2.91245 3.26713 2.85511M1.02354 4.8167C0.794625 4.77649 0.663285 4.55765 0.677954 4.34018C0.701048 3.99782 0.686933 3.566 0.667348 3.22287C0.650987 2.93622 0.940865 2.68391 1.24756 2.69318C1.79563 2.70976 2.51828 2.68809 2.95798 2.66708C3.12479 2.65911 3.22191 2.73413 3.26713 2.85511M1.02354 4.8167C1.71548 5.04579 3.17693 5.26423 3.48719 4.30527C3.51676 3.88476 3.51415 3.00599 3.26713 2.85511M1.02354 8.98671C1.9609 9.15137 3.29833 9.05314 3.29833 8.47528V7.22418C3.29833 7.15012 3.28856 7.08245 3.26713 7.02511M1.02354 8.98671C0.794625 8.94649 0.663285 8.72765 0.677954 8.51019C0.701048 8.16783 0.686933 7.73601 0.667348 7.39288C0.650987 7.10622 0.940865 6.85391 1.24756 6.86319C1.79563 6.87976 2.51828 6.85809 2.95798 6.83709C3.12479 6.82912 3.22191 6.90413 3.26713 7.02511M1.02354 8.98671C1.66848 9.22707 3.05002 9.53176 3.41669 8.82763C3.46976 8.50611 3.51415 7.69549 3.26713 7.02511M1.02354 13.1567C1.9609 13.3214 3.29833 13.2231 3.29833 12.6453V11.3942C3.29833 11.3201 3.28856 11.2525 3.26713 11.1951M1.02354 13.1567C0.794625 13.1165 0.663285 12.8977 0.677954 12.6802C0.701048 12.3378 0.686933 11.906 0.667348 11.5629C0.650987 11.2762 0.940865 11.0239 1.24756 11.0332C1.79563 11.0498 2.51828 11.0281 2.95798 11.0071C3.12479 10.9991 3.22191 11.0741 3.26713 11.1951M1.02354 13.1567C1.66848 13.3273 3.41669 13.5756 3.41669 12.7884C3.41669 11.9082 3.26713 11.1951 3.26713 11.1951" stroke="#5B5180" stroke-linecap="round"/>
</svg>
