<svg width="16" height="16" viewBox="0 0 16 16" fill="none" xmlns="http://www.w3.org/2000/svg">
<path d="M14.2047 7.01938V5.06602C14.2047 4.91102 14.1058 4.77259 13.9572 4.71962L10.068 3.3335M11.5722 7.01938V4.7135C11.5722 4.55073 11.4633 4.40723 11.3042 4.36046L7.81156 3.3335M8.93976 7.01938V4.72079C8.93976 4.55457 8.82626 4.40892 8.66264 4.36519L4.80301 3.3335M5.93122 7.01938V5.08209C5.93122 4.91932 5.82228 4.77582 5.66321 4.72905L2.65466 3.84443C2.41337 3.77349 2.17053 3.95057 2.17053 4.19748V5.91361" stroke="#5B5180" stroke-width="0.666667" stroke-linecap="round"/>
<path d="M0.666626 6.2821V10.8535C0.666626 11.0183 0.778186 11.163 0.939883 11.2081M0.939883 11.2081L3.94843 12.0461C4.01939 12.0659 4.09023 12.0644 4.15483 12.0461M0.939883 11.2081L3.81473 12.4063M0.666626 5.54492L4.1845 6.8515C4.33065 6.90578 4.42731 7.04299 4.42731 7.19617V11.6916C4.42731 11.8639 4.30882 12.0026 4.15483 12.0461M4.15483 12.0461L14.5812 12.1795M14.5812 12.1795C14.9965 12.1795 15.3333 11.8495 15.3333 11.4423V7.75645C15.3333 7.34932 14.9965 7.01927 14.5812 7.01927H14.2051H11.5726H8.94013H5.93158H5.17945M14.5812 12.1795L4.42731 12.6667L3.81473 12.4063M14.5812 12.1795H3.59996M3.81473 12.4063H7.66663" stroke="#5B5180" stroke-width="0.666667" stroke-linecap="round"/>
</svg>
