<svg width="16" height="16" viewBox="0 0 16 16" fill="none" xmlns="http://www.w3.org/2000/svg">
<path d="M4.66763 15.3332C3.81956 11.9032 2.53238 5.03875 4.00368 4.41443C4.07054 4.38614 4.14341 4.36766 4.21096 4.34049L9.80354 2.08575M11.2593 2.8209L11.6269 4.46506L12.6667 8.6665M4.56631 5.05917C3.93398 6.20967 4.91666 11.0605 5.70995 14.2493C5.88249 14.9444 6.6657 15.3088 7.34614 15.023L8.66671 14.482M5.6806 5.1285C5.93711 4.82691 6.2022 3.76209 5.60672 3.2177C5.50415 3.12283 5.37488 3.04397 5.21492 2.98758C4.1351 2.6061 3.44626 3.90215 4.09574 4.34814M5.59004 3.1703C5.68206 2.58589 6.46718 1.97553 7.41367 2.48231C8.43068 3.17689 7.91974 4.1983 7.45602 4.55465M7.45658 2.43211C7.64951 1.9714 8.37707 1.08301 9.33694 1.44819C10.6261 2.12769 9.88394 3.46629 9.34443 3.63763M9.326 1.3846C9.6191 0.87287 10.3504 0.378269 11.0645 0.867475C11.7787 1.35679 11.5522 2.65344 10.8264 3.06852M5.94462 7.48669C7.03108 7.18123 9.4082 6.38702 10.225 5.65391M6.431 9.08449C7.44501 8.93208 9.82403 8.00998 10.76 7.67467" stroke="#5B5180" stroke-width="0.666667" stroke-linecap="round"/>
<path d="M9.33337 11.7005C9.67584 11.3069 10.4428 10.3128 10.887 9.36238C10.9054 9.32304 10.9863 9.32423 11.0035 9.36386C11.2655 9.96647 12.0703 11.0911 12.6667 11.7005M10.9815 9.60016C11.0338 11.0528 11 14.1335 10.4445 15.3335" stroke="#5B5180" stroke-width="0.666667" stroke-linecap="round"/>
</svg>
