<svg width="16" height="16" viewBox="0 0 16 16" fill="none" xmlns="http://www.w3.org/2000/svg">
<path d="M9.59081 7.34722C9.6304 7.50989 9.64032 7.67798 9.61771 7.83933C9.60714 7.91475 9.37726 9.74057 7.77427 9.66452C7.67328 9.65973 7.57854 9.64907 7.48981 9.63309M9.59081 7.34722C9.53523 7.95904 9.03722 9.27276 7.48981 9.63309M9.59081 7.34722C9.56446 7.23896 9.52498 7.13311 9.4732 7.03322M7.48981 9.63309C7.40654 9.61809 7.32857 9.59841 7.25567 9.5745M9.4732 7.03322C9.31867 6.73515 9.05465 6.49028 8.70356 6.39374C7.8854 6.16877 7.23087 6.63042 6.97278 6.85069C6.25651 7.46252 5.98833 9.15869 7.25567 9.5745M9.4732 7.03322C9.43653 7.57176 8.9417 8.83397 7.25567 9.5745" stroke="#5B5180" stroke-linecap="round"/>
<path d="M3.88714 7.34722C3.92673 7.5099 3.93665 7.67798 3.91404 7.83933C3.90347 7.91475 3.67359 9.74057 2.0706 9.66452C1.96961 9.65973 1.87487 9.64907 1.78613 9.63309M3.88714 7.34722C3.86395 7.25197 3.8306 7.15858 3.78765 7.06948M3.88714 7.34722C3.84449 7.9232 3.5414 8.94508 2.70372 9.40175M1.78613 9.63309C2.1463 9.62681 2.44961 9.54029 2.70372 9.40175M1.78613 9.63309C1.6754 9.61315 1.57402 9.58492 1.4815 9.54946M15.3214 7.48991C15.3372 7.60688 15.3375 7.7248 15.3214 7.83933C15.3109 7.91475 15.081 9.74057 13.478 9.66452C13.377 9.65973 13.2823 9.64907 13.1935 9.63309M15.3214 7.48991C15.2569 8.19306 14.7409 9.6061 13.1935 9.63309M15.3214 7.48991C15.3003 7.33242 15.2513 7.17666 15.1769 7.03322M13.1935 9.63309C11.6627 9.3574 11.919 7.49771 12.6765 6.85069C12.9346 6.63042 13.5891 6.16877 14.4073 6.39374C14.7584 6.49028 15.0224 6.73515 15.1769 7.03322M13.1935 9.63309C14.7409 8.93943 15.1606 7.61082 15.1769 7.03322M3.78765 7.06948C3.63612 6.75511 3.36511 6.49417 2.99988 6.39374C2.18172 6.16877 1.52719 6.63042 1.2691 6.85069C0.566429 7.45091 0.294995 9.09471 1.4815 9.54946M3.78765 7.06948C3.63739 7.65152 3.21022 8.93282 2.70372 9.40175M1.4815 9.54946C1.91133 9.55535 2.839 9.42039 3.11113 8.8335" stroke="#5B5180" stroke-linecap="round"/>
</svg>
