<svg width="16" height="16" viewBox="0 0 16 16" fill="none" xmlns="http://www.w3.org/2000/svg">
<path d="M6.76993 0.815677C5.64554 0.59534 2.13312 0.63943 1.12118 0.8157M7.19157 1.03604C7.25384 2.92343 7.36248 6.28585 7.32597 7.33315M7.03034 7.33317C6.6023 6.90332 2.61982 6.79582 1.76374 6.79582C0.907655 6.79582 0.68763 6.93344 0.800645 6.36597C0.893473 5.89987 0.825879 2.87302 0.666626 0.933135M14.7699 8.81568C13.6455 8.59534 10.1331 8.63943 9.12118 8.8157M15.1916 9.03604C15.2538 10.9234 15.3625 14.2858 15.326 15.3331M15.0303 15.3332C14.6023 14.9033 10.6198 14.7958 9.76374 14.7958C8.90766 14.7958 8.68763 14.9334 8.80065 14.366C8.84999 14.1182 8.854 13.1469 8.82302 11.9998C8.79571 10.9891 8.74123 9.84184 8.66663 8.93314" stroke="#5B5180" stroke-width="0.666667" stroke-linecap="round"/>
<path d="M8.82312 11.9997C8.04535 12.1108 6.33339 12.2664 5.00006 11.9997C3.66673 11.7331 3.55562 8.40663 3.66673 6.85107" stroke="#5B5180" stroke-width="0.666667" stroke-linecap="round"/>
</svg>
