<svg width="16" height="16" viewBox="0 0 16 16" fill="none" xmlns="http://www.w3.org/2000/svg">
<path d="M3.71834 9.15747C3.15615 9.03883 1.39994 9.06257 0.893963 9.15749M3.92916 9.27613C3.9603 10.2924 4.01461 12.1029 3.99636 12.6669M3.84855 12.6669C3.63453 12.4354 1.64328 12.3776 1.21524 12.3776C0.787202 12.3776 0.677189 12.4517 0.733697 12.1461C0.78011 11.8951 0.746314 10.2653 0.666687 9.22072M15.0517 9.15747C14.4895 9.03883 12.7333 9.06257 12.2273 9.15749M15.2625 9.27613C15.2936 10.2924 15.348 12.1029 15.3297 12.6669M15.1819 12.6669C14.9679 12.4354 12.9766 12.3776 12.5486 12.3776C12.1205 12.3776 12.0105 12.4517 12.067 12.1461C12.1134 11.8951 12.0797 10.2653 12 9.22072M9.38501 9.15747C8.82281 9.03883 7.0666 9.06257 6.56063 9.15749M9.59583 9.27613C9.62696 10.2924 9.68128 12.1029 9.66303 12.6669M9.51522 12.6669C9.30119 12.4354 7.30995 12.3776 6.88191 12.3776C6.45387 12.3776 6.34386 12.4517 6.40036 12.1461C6.44678 11.8951 6.41298 10.2653 6.33336 9.22072" stroke="#5B5180" stroke-linecap="round"/>
<path d="M3.71834 3.41382C3.15615 3.29518 1.39994 3.31892 0.893963 3.41383M3.92916 3.53248C3.9603 4.54877 4.01461 6.3593 3.99636 6.92323M3.84855 6.92324C3.63453 6.69178 1.64328 6.6339 1.21524 6.6339C0.787202 6.6339 0.677189 6.708 0.733697 6.40244C0.78011 6.15146 0.746314 4.52162 0.666687 3.47707M15.0517 3.41382C14.4895 3.29518 12.7333 3.31892 12.2273 3.41383M15.2625 3.53248C15.2936 4.54877 15.348 6.3593 15.3297 6.92323M15.1819 6.92324C14.9679 6.69178 12.9766 6.6339 12.5486 6.6339C12.1205 6.6339 12.0105 6.708 12.067 6.40244C12.1134 6.15146 12.0797 4.52162 12 3.47707M9.38501 3.41382C8.82281 3.29518 7.0666 3.31892 6.56063 3.41383M9.59583 3.53248C9.62696 4.54877 9.68128 6.3593 9.66303 6.92323M9.51522 6.92324C9.30119 6.69178 7.30995 6.6339 6.88191 6.6339C6.45387 6.6339 6.34386 6.708 6.40036 6.40244C6.44678 6.15146 6.41298 4.52162 6.33336 3.47707" stroke="#5B5180" stroke-linecap="round"/>
</svg>
