<svg width="16" height="16" viewBox="0 0 16 16" fill="none" xmlns="http://www.w3.org/2000/svg">
<path d="M5.27795 7.48659C6.36441 7.18112 8.74154 6.38692 9.55834 5.65381M5.76434 9.08439C6.77834 8.93198 9.15736 8.00987 10.0934 7.67456M6.05621 10.8232C7.20065 10.6552 9.63948 10.1098 10.2393 9.27237M6.59126 12.609C7.16394 12.5346 9.85748 11.6481 10.5926 11.0826" stroke="#5B5180" stroke-width="0.666667" stroke-linecap="round"/>
<path d="M4.00088 15.3332C3.15281 11.9032 1.86563 5.03875 3.33693 4.41443C3.40379 4.38614 3.47666 4.36766 3.54421 4.34049L9.1368 2.08575M10.5926 2.8209L10.9602 4.46506M3.89956 5.05917C3.26723 6.20967 4.24992 11.0605 5.0432 14.2493C5.21574 14.9444 5.99895 15.3088 6.6794 15.023L11.9361 12.8148C12.4734 12.589 12.7669 12.0266 12.6354 11.4775L11.2547 5.75393M5.01386 5.1285C5.27036 4.82691 5.53546 3.76209 4.93998 3.2177C4.8374 3.12283 4.70813 3.04397 4.54818 2.98758C3.46835 2.6061 2.77951 3.90215 3.42899 4.34814M4.92329 3.1703C5.01531 2.58589 5.80043 1.97553 6.74693 2.48231C7.76394 3.17689 7.25299 4.1983 6.78927 4.55465M6.78983 2.43211C6.98276 1.9714 7.71033 1.08301 8.67019 1.44819C9.95931 2.12769 9.2172 3.46629 8.67769 3.63763M8.65925 1.3846C8.95235 0.87287 9.68362 0.378269 10.3978 0.867475C11.112 1.35679 10.8854 2.65344 10.1597 3.06852" stroke="#5B5180" stroke-width="0.666667" stroke-linecap="round"/>
</svg>
