<svg width="16" height="16" viewBox="0 0 16 16" fill="none" xmlns="http://www.w3.org/2000/svg">
<path d="M4.20148 15.2729H14" stroke="#5B5180" stroke-width="0.666667" stroke-linecap="round"/>
<path d="M2 13.2274V15.1987C2.13046 15.5114 2.4369 15.1987 2.61153 15.0643L4.20152 14.009M5.70997 12.954L2.32349 15.2729C2.18808 15.3656 2 15.2728 2 15.1133V10.8435M4 8.99984L5.70997 5.6665M7.33333 5.33317L4.66667 10.3332M8 6.6665L6.30305 9.99984M5.53398 3.90943L2.12147 10.5703C2.10597 10.6006 2.13489 10.6349 2.1693 10.6279C2.68068 10.5241 3.55643 10.5788 3.62714 11.5148C3.62946 11.5455 3.66555 11.5641 3.69301 11.5481C4.1433 11.2857 4.91461 11.0955 4.8979 12.1602C4.89736 12.1944 4.93945 12.2154 4.96793 12.1948C5.36634 11.9067 6.0237 11.6594 6.07482 12.539C6.07726 12.581 6.14036 12.5958 6.15972 12.558L9.59703 6.01574M5.53398 3.90943L5.99542 2.98785M5.53398 3.90943C5.52103 3.9353 5.54141 3.96533 5.57133 3.96589C8.22043 4.01549 9.29826 5.29147 9.51511 6.00641C9.5259 6.04201 9.57888 6.04848 9.59703 6.01574M9.59703 6.01574L10.2354 4.86383M6.89242 1.2682L6.79101 1.45801M6.89242 1.2682C6.91202 1.23233 6.94008 1.1927 6.97713 1.1514M6.89242 1.2682C7.78821 1.29348 9.88848 1.70962 11.1232 3.17194M11.3315 2.73891C11.3347 2.74843 11.3337 2.75835 11.3291 2.76734L11.1919 3.03707M11.3315 2.73891C10.159 1.35295 8.16701 0.933643 7.31758 0.897234M11.3315 2.73891C11.2661 2.54288 11.1431 2.2791 10.9585 2.00607M6.16163 2.63598L6.06808 2.81107C6.05383 2.83774 6.07392 2.86934 6.10516 2.86877C7.2286 2.8484 9.52469 3.24819 10.2403 4.74543C10.2549 4.77602 10.3007 4.77776 10.3164 4.74766L10.4605 4.47136M6.16163 2.63598C7.17405 2.5605 9.45121 2.8219 10.4605 4.47136M6.16163 2.63598L6.30305 2.37129M10.4605 4.47136L10.5209 4.35574L10.6082 4.18417M6.30305 2.37129C7.2371 2.31481 9.40579 2.5983 10.6082 4.18417M6.30305 2.37129L6.46999 2.05885M10.6082 4.18417L10.7686 3.86887M6.46999 2.05885C7.32572 2.01853 9.38347 2.3241 10.7686 3.86887M6.46999 2.05885L6.59692 1.82128M10.7686 3.86887L10.9055 3.59984M6.59692 1.82128C7.50161 1.80302 9.62989 2.13317 10.9055 3.59984M6.59692 1.82128L6.69396 1.63965M10.9055 3.59984L10.98 3.45332M6.79101 1.45801C7.73041 1.48771 9.89829 1.89904 11.0546 3.3068M6.79101 1.45801L6.69396 1.63965M11.0546 3.3068L10.98 3.45332M11.0546 3.3068L11.1232 3.17194M6.97713 1.1514C7.94599 1.18402 10.1453 1.60682 11.1919 3.03707M6.97713 1.1514C7.05221 1.0677 7.16421 0.977163 7.31758 0.897234M11.1919 3.03707L11.1232 3.17194M7.31758 0.897234C7.49842 0.802981 7.73678 0.723481 8.03993 0.68735M8.03993 0.68735C8.32033 0.653929 8.65616 0.657612 9.05317 0.721045C9.96174 0.86621 10.5857 1.45497 10.9585 2.00607M8.03993 0.68735C8.67335 0.783256 10.1438 1.18127 10.9585 2.00607M6.69396 1.63965C7.56045 1.61759 9.63075 1.94944 10.98 3.45332" stroke="#5B5180" stroke-width="0.666667" stroke-linecap="round"/>
</svg>
