<svg width="16" height="16" viewBox="0 0 16 16" fill="none" xmlns="http://www.w3.org/2000/svg">
<path d="M4.80822 1.95748C4.23286 1.74707 3.0246 1.76811 2.79445 3.53551C2.50677 5.74476 2.79459 11.4256 2.79445 13.0036C2.79436 14.0016 3.08185 14.5817 4.52065 14.8972C5.95908 15.2127 13.2789 16.1558 13.1511 13.6348C12.863 7.95393 14.5895 1.64175 11.1373 1.95735M6.34538 0.960216C7.5383 0.394085 9.9866 0.659727 9.9866 1.64175C9.9866 2.90417 9.9866 3.21983 8.83588 3.21983C7.68515 3.21983 6.53442 3.53543 6.24674 2.90422C5.98259 2.32463 5.96099 1.47887 6.18193 1.10011C6.21895 1.03664 6.279 0.991718 6.34538 0.960216Z" stroke="#5B5180" stroke-width="0.666667" stroke-linecap="round"/>
<path d="M6.74996 6.66285C7.86641 6.47109 10.3461 6.26015 11.3333 6.95049M4.66663 6.58634C4.67866 6.68798 4.84801 7.12076 4.92527 6.87715C5.0175 6.58634 5.10522 6.28515 5.49996 6M6.74996 9.03909C7.86641 8.84733 10.3461 8.63639 11.3333 9.32673M4.66663 8.96258C4.67866 9.06422 4.84801 9.497 4.92527 9.25339C5.0175 8.96258 5.10522 8.66139 5.49996 8.37624M6.74996 11.4153C7.86641 11.2236 10.3461 11.0126 11.3333 11.703M5.04309 11.9963C5.06194 11.993 5.51839 11.9218 5.49938 11.4251C5.47752 10.8539 4.96706 10.9285 4.79592 11.1768C4.74086 11.2567 4.62544 11.4595 4.68169 11.7131C4.72606 11.9131 4.89579 12.0219 5.04309 11.9963Z" stroke="#5B5180" stroke-width="0.666667" stroke-linecap="round"/>
</svg>
