<svg width="16" height="16" viewBox="0 0 16 16" fill="none" xmlns="http://www.w3.org/2000/svg">
<path d="M11.0268 6.05622C10.6587 5.18063 10.2538 3.50938 11.5789 3.82916C13.2353 4.22889 13.3457 7.8836 15.3333 11.938M4.00001 9.18237C2.99933 9.33345 1.81104 9.03136 1.24815 8.57805C-0.207953 7.4054 1.39599 7.14158 2.51044 7.18978M5.25409 11.093C5.91001 11.224 7.06227 11.2616 6.53047 10.6438C5.77586 9.76706 3.1906 9.61037 3.33952 10.4753C3.44588 11.093 4.72227 11.9916 6.21139 11.9355M5.88731 13.1293C6.61307 13.2332 8.05137 13.3038 7.99859 12.7553C7.93261 12.0697 4.43581 11.4464 4.03995 12.506C3.64408 13.5656 6.28318 14.1266 7.86664 13.9397M7.43402 14.5876C8.07074 14.3324 9.13189 14.8683 8.44215 15.1999C7.381 15.7102 5.94838 14.6386 6.00144 13.9752M11.3333 14.6543C11.9474 14.0971 13.207 12.7738 13.3333 11.938" stroke="#5B5180" stroke-width="0.666667" stroke-linecap="round"/>
<path d="M10.7437 8.66001L10.6668 8.54254L11.8001 7.86346L11.8891 7.968M10.7437 8.66001L11.8891 7.968M10.7437 8.66001L10.8054 8.75436M11.8891 7.968L11.9872 8.08327M11.9872 8.08327L10.8054 8.75436M11.9872 8.08327L12.0624 8.17169M10.8054 8.75436L10.8779 8.86512M10.8779 8.86512L12.0624 8.17169M10.8779 8.86512L10.9303 8.94511M12.0624 8.17169L12.1593 8.28561M12.1593 8.28561L10.9303 8.94511M12.1593 8.28561L12.2229 8.36039M10.9303 8.94511L10.9943 9.04287M10.9943 9.04287L12.2229 8.36039M10.9943 9.04287L11.0475 9.12423M12.2229 8.36039L12.3025 8.45389M12.3025 8.45389L11.0475 9.12423M12.3025 8.45389L12.3779 8.54254M11.0475 9.12423L11.1112 9.22161M11.1112 9.22161L12.3779 8.54254M11.1112 9.22161L11.1661 9.3054M12.3779 8.54254L12.439 8.61439M12.439 8.61439L11.1661 9.3054M12.439 8.61439L12.5062 8.69334M11.1661 9.3054L11.2189 9.38608M11.2189 9.38608L12.5062 8.69334M11.2189 9.38608L11.2762 9.47361M12.5062 8.69334L12.5865 8.78771M12.5865 8.78771L12.6668 8.88208L11.3335 9.56115L11.2762 9.47361M12.5865 8.78771L11.2762 9.47361M5.6668 5.14702C5.6668 5.33454 5.51756 5.48655 5.33347 5.48655M5.6668 5.14702C5.6668 4.95949 5.51756 4.80748 5.33347 4.80748M5.6668 5.14702H5.00014M5.33347 5.48655C5.14937 5.48655 5.00014 5.33454 5.00014 5.14702M5.33347 5.48655V4.80748M5.00014 5.14702C5.00014 4.95949 5.14937 4.80748 5.33347 4.80748M7.8388 13.975L12.8085 9.96942C13.0981 9.736 13.1462 9.30726 12.9158 9.01327L6.57561 0.921982C6.3466 0.629737 5.92875 0.581053 5.64088 0.813079L1.19181 4.39908C0.902218 4.63249 0.854074 5.06123 1.08445 5.35523L4.36848 9.54625M10.7908 6.50517L10.3341 7.03214C10.1365 7.26001 10.1117 7.59383 10.2734 7.84937L12.0001 10.5796M6.43903 6.25726C6.37407 6.31922 6.33347 6.40737 6.33347 6.50517C6.33347 6.59489 6.36763 6.67648 6.42343 6.73718M6.43903 6.25726C6.49863 6.20043 6.57872 6.16563 6.6668 6.16563C6.76282 6.16563 6.84935 6.20698 6.91018 6.27316M6.43903 6.25726L6.91018 6.73718M6.91018 6.73718C6.96598 6.67648 7.00014 6.59489 7.00014 6.50517C7.00014 6.41545 6.96598 6.33386 6.91018 6.27316M6.91018 6.73718C6.84935 6.80336 6.76282 6.84471 6.6668 6.84471C6.57079 6.84471 6.48425 6.80336 6.42343 6.73718M6.91018 6.27316L6.42343 6.73718M3.09917 5.60097L5.58915 8.70856C5.8178 8.99392 6.22809 9.04158 6.51394 8.81598L8.79293 7.01741C9.08922 6.78358 9.1381 6.34699 8.9011 6.05121L6.41112 2.94363C6.18247 2.65827 5.77218 2.61061 5.48633 2.8362L3.20734 4.63478C2.91105 4.86861 2.86217 5.3052 3.09917 5.60097Z" stroke="#5B5180" stroke-width="0.666667" stroke-linecap="round"/>
</svg>
