<svg width="16" height="16" viewBox="0 0 16 16" fill="none" xmlns="http://www.w3.org/2000/svg">
<path d="M14.6667 3.89943C14.4835 1.55216 12.6405 0.701902 11.4658 0.667547C11.4185 0.666162 11.3738 0.6866 11.3422 0.721857L3.07258 9.94458C3.05689 9.96207 3.04508 9.98268 3.03792 10.0051L1.73514 14.0773M14.5888 3.9783L6.43217 13.641C6.4122 13.6647 6.38602 13.6823 6.35658 13.6919L2.86877 14.8315M6.32359 13.6772C6.11556 12.7046 5.20078 10.7912 3.20467 10.2865M1.87959 15.1547L1.64319 15.2319C1.51396 15.2741 1.39127 15.1522 1.43269 15.0227L1.48148 14.8702M1.87959 15.1547C1.91971 15.15 1.89627 15.0865 1.48148 14.8702M1.87959 15.1547L2.28498 15.0222M1.48148 14.8702L1.56799 14.5998M2.28498 15.0222C2.12419 14.8814 1.75568 14.5998 1.56799 14.5998M2.28498 15.0222L2.64326 14.9052M1.56799 14.5998L1.6636 14.3009M2.64326 14.9052C2.42679 14.7263 1.92779 14.3552 1.6636 14.3009M2.64326 14.9052L2.86877 14.8315M1.6636 14.3009L1.73514 14.0773M2.86877 14.8315C2.74828 14.6504 2.35286 14.246 1.73514 14.0773" stroke="#5B5180" stroke-width="0.666667" stroke-linecap="round"/>
</svg>
