<svg width="16" height="16" viewBox="0 0 16 16" fill="none" xmlns="http://www.w3.org/2000/svg">
<path d="M14.0939 0.80076C11.6203 0.602456 3.89298 0.642138 1.6667 0.80078M15.0216 0.999086C15.1586 2.69774 15.3976 5.72391 15.3172 6.66648M14.6669 6.6665C13.7252 6.27964 4.96371 6.18289 3.08033 6.18289C1.19695 6.18289 0.712895 6.30674 0.961529 5.79602C1.16575 5.37653 1.01704 2.65236 0.666687 0.906472" stroke="#5B5180" stroke-width="0.666667" stroke-linecap="round"/>
<path d="M14.0939 9.46775C11.6203 9.26945 3.89298 9.30913 1.6667 9.46777M15.0216 9.66608C15.1586 11.3647 15.3976 14.3909 15.3172 15.3335M14.6669 15.3335C13.7252 14.9466 4.96371 14.8499 3.08033 14.8499C1.19695 14.8499 0.712895 14.9737 0.961529 14.463C1.16575 14.0435 1.01704 11.3194 0.666687 9.57346" stroke="#5B5180" stroke-width="0.666667" stroke-linecap="round"/>
</svg>
