<svg width="16" height="16" viewBox="0 0 16 16" fill="none" xmlns="http://www.w3.org/2000/svg">
<path d="M2.45192 2.02147C0.877193 2.02147 0.811579 3.31466 0.811579 3.96134C0.780122 4.55038 0.745045 5.34634 0.717282 6.22452C0.648536 8.39904 0.624635 11.0777 0.811579 12.3674C1.13963 14.6306 11.3098 13.9839 13.6062 13.6606C15.6585 13.3717 15.3526 8.6933 15.2644 6.54783C15.2539 6.29254 15.2465 6.07311 15.2465 5.90121C15.2465 4.28465 14.5903 3.63803 12.6219 3.63803C10.6535 3.63803 6.06057 4.93116 5.7325 2.66809C5.60911 1.81696 2.91239 2.02164 2.45192 2.02147Z" stroke="#5B5180" stroke-width="0.666667" stroke-linecap="round"/>
<path d="M6 10.6665L8 8.6665M8 8.6665L10 6.6665M8 8.6665L10 10.6665M8 8.6665L6 6.6665" stroke="#5B5180" stroke-width="0.666667" stroke-linecap="round"/>
</svg>
