<svg width="16" height="16" viewBox="0 0 16 16" fill="none" xmlns="http://www.w3.org/2000/svg">
<path d="M5.79531 7.33317L0.666656 0.666504M9.84439 7.33317C11.644 5.01433 12.7237 4.10336 15.3333 0.790727M12 11.3332C12 13.5423 10.2091 15.3332 7.99999 15.3332C5.79085 15.3332 3.99999 13.5423 3.99999 11.3332C3.99999 9.12403 5.79085 7.33317 7.99999 7.33317C10.2091 7.33317 12 9.12403 12 11.3332Z" stroke="#5B5180" stroke-width="0.666667" stroke-linecap="round"/>
<path d="M9.66666 10.4452L8.76736 10.6267C8.71898 10.6365 8.67282 10.6026 8.66764 10.5536C8.59934 9.90709 8.43759 8.82182 8.26459 9.02494C8.08983 9.23013 7.81178 10.3439 7.681 10.9346C7.67252 10.9729 7.63869 11 7.59948 11H5.66666M10.3333 10.3333L8.99616 11.4375C8.97258 11.457 8.96156 11.4878 8.96746 11.5178L9.28326 13.125C9.30018 13.2112 9.18956 13.2616 9.13569 13.1922L8.18305 11.9664C8.15149 11.9258 8.09103 11.9232 8.05609 11.9609L6.72924 13.3944C6.66883 13.4596 6.5619 13.3976 6.5886 13.3127L7.06799 11.7898C7.08109 11.7482 7.05988 11.7036 7.01936 11.6874L5.66666 11.1481" stroke="#5B5180" stroke-width="0.666667" stroke-linecap="round"/>
</svg>
