<svg width="16" height="16" viewBox="0 0 16 16" fill="none" xmlns="http://www.w3.org/2000/svg">
<path d="M10.0091 15.3336C7.80744 12.5594 5.33045 11.4639 4.57539 10.8749C3.55926 10.0823 4.15204 9.60108 4.57539 9.45952C5.06939 9.31797 6.02909 9.50201 6.76302 10.238C7.49694 10.9741 7.91563 10.6862 8.03322 10.4503C8.08032 10.3324 8.14615 9.78505 8.03322 8.53944C7.92037 7.29391 5.84567 6.55788 5.84567 5.70853C5.84567 4.74604 6.59841 4.83574 6.97473 5.00082C7.68045 5.30755 9.16236 6.1757 9.44457 7.19476C9.51195 7.645 9.79651 8.68629 10.3957 9.24954M11.2089 8.53935C11.0207 7.99681 10.4878 6.96822 9.52805 7.47779M12.1263 9.03481C12.1263 8.51588 12.1687 7.49201 10.9267 7.54866M14.6666 11.5827C14.1021 10.9457 13.4669 10.0256 13.3258 9.0348C13.2287 8.35293 12.5025 7.87889 12.0556 7.9025" stroke="#5B5180" stroke-width="0.666667" stroke-linecap="round"/>
<path d="M3.23807 4.33378C3.27932 4.63932 3.85997 5.94022 4.12486 5.20794C4.44108 4.33378 4.74183 3.42841 6.09522 2.57127M7.99536 3.53814C7.98138 3.23689 7.94246 2.96284 7.88196 2.71442C7.80621 2.4034 7.69665 2.13254 7.5599 1.89872C6.43879 -0.0181868 3.49042 0.554484 2.3677 1.89872C1.92716 2.42663 1.00386 3.76544 1.45381 5.43895C1.73586 6.48799 2.65092 7.15701 3.60604 7.30299C3.8531 7.34075 4.10283 7.34352 4.34499 7.30881" stroke="#5B5180" stroke-width="0.666667" stroke-linecap="round"/>
</svg>
