<svg width="16" height="16" viewBox="0 0 16 16" fill="none" xmlns="http://www.w3.org/2000/svg">
<path d="M6.93718 15.3332C5.25804 14.26 -0.800638 10.6811 0.996259 7.65896C3.24238 3.88132 6.39794 -0.398039 8.90134 0.905527C11.4047 2.20909 16.6192 6.20477 15.0414 8.34447C13.7792 10.0562 11.2206 13.6894 9.77436 14.9754" stroke="#5B5180" stroke-width="0.666667" stroke-linecap="round"/>
<path d="M7.55694 11.7705C7.75079 12.0051 8.06991 12.0726 8.33287 11.9133C8.59073 11.7572 8.71338 11.4322 8.65034 11.1287M7.55694 11.7705C7.5222 11.7284 7.49148 11.681 7.46583 11.6286C7.29706 11.2835 7.41163 10.8516 7.72172 10.6638C8.0318 10.476 8.41999 10.6035 8.58876 10.9485C8.61718 11.0066 8.63757 11.0672 8.65034 11.1287M7.55694 11.7705C7.83945 11.8838 8.45364 11.914 8.65034 11.1287M7.81202 9.30231C7.39298 7.28821 6.94218 4 7.91257 4C8.88296 4 8.43215 7.28821 8.01312 9.30231C7.98533 9.43587 7.83981 9.43587 7.81202 9.30231Z" stroke="#5B5180" stroke-width="0.666667" stroke-linecap="round"/>
</svg>
