<svg width="164" height="164" viewBox="0 0 164 164" fill="none" xmlns="http://www.w3.org/2000/svg">
<path d="M52.491 32.702C53.5324 34.301 54.6558 35.4162 55.4512 34.6946C56.2466 33.973 54.5738 32.2346 53.6144 31.5786C53.0568 31.226 51.4906 31.062 52.491 32.702Z" fill="#9683D7"/>
<path d="M32.4912 31.5453C26.907 35.7355 27.5712 38.4333 33.5326 32.6687C34.5576 31.6847 33.7786 30.5859 32.4912 31.5453Z" fill="#9683D7"/>
<path d="M37.6981 30.988C38.5755 31.6276 38.5181 32.8248 38.5755 34.6616H47.2101C47.2921 32.8248 47.1363 31.5456 48.0957 30.988C50.0925 29.8615 51.6464 28.0888 52.5016 25.9616C53.3569 23.8343 53.4624 21.4794 52.801 19.2841C52.1396 17.0889 50.7506 15.1843 48.8625 13.8836C46.9745 12.583 44.6999 11.9638 42.4131 12.128C32.5239 12.6774 28.5305 24.4444 37.6981 30.988Z" fill="#9683D7"/>
<path d="M34.6559 80.0236C41.2979 79.0642 52.5729 82.0982 57.2141 77.1454C59.5347 74.7428 58.9771 63.8614 58.8951 59.3842C58.7311 47.3056 54.7295 49.7 45.6931 48.9866C44.7337 48.9046 44.5779 46.9038 44.4959 44.821C44.3319 42.2626 40.8141 43.304 40.6501 45.8624C40.0925 54.0624 47.7759 52.98 52.8107 53.062C55.2707 53.144 54.9755 57.3014 55.0575 59.3022C55.4511 70.4214 55.2953 73.6194 52.0973 75.2184C48.2515 77.1454 38.6575 74.8986 33.0569 76.3418C24.2583 78.5804 25.8573 91.7004 26.0131 98.982C26.2017 116.407 42.2901 101.024 42.8969 115.858C42.9707 118.096 40.3303 140.499 44.5369 140.261C44.8005 140.253 45.0599 140.192 45.2997 140.082C45.5395 139.973 45.755 139.816 45.9334 139.622C46.1117 139.428 46.2497 139.2 46.3394 138.952C46.429 138.704 46.4686 138.441 46.4557 138.178C46.0199 131.276 46.072 124.351 46.6115 117.457C47.4315 108.182 43.8891 104.738 32.8519 104.501C29.0143 104.419 29.9737 96.0218 29.8179 91.5446C29.6621 87.0674 29.7769 80.7452 34.6559 80.0236Z" fill="#9683D7"/>
<path d="M43.2903 8.34678C43.3723 7.52678 43.5363 4.18938 42.4129 4.02538C40.8959 3.70558 41.4535 6.48538 41.8553 8.02698C42.0931 8.82238 43.2165 9.14218 43.2903 8.34678Z" fill="#9683D7"/>
<path d="M55.2133 9.74144C54.7131 8.92144 53.7619 9.39704 52.7533 10.0612C51.7447 10.7254 50.9739 11.5044 51.2281 12.2178C51.5889 13.2346 55.6725 10.4384 55.2133 9.74144Z" fill="#9683D7"/>
<path d="M31.1382 9.22413C29.777 9.62593 31.1382 11.2249 32.4174 12.0285C33.6966 12.8321 34.3198 12.3565 33.7786 11.4627C33.2374 10.5689 32.1714 8.82233 31.1382 9.22413Z" fill="#9683D7"/>
<path d="M58.1733 26.4284C56.7301 26.1086 55.1311 25.223 54.8113 25.9446C54.4915 27.068 56.4513 27.5846 57.2139 27.7076C59.2147 28.1832 59.6165 26.7482 58.1733 26.4284Z" fill="#9683D7"/>
<path d="M28.8176 19.4668C30.5724 19.6226 29.777 18.4254 28.8914 18.0236C28.0058 17.6218 23.9714 15.867 23.5368 16.9822C22.9792 18.5074 27.0546 19.3028 28.8176 19.4668Z" fill="#9683D7"/>
<path d="M28.6535 26.9045C29.6949 26.3469 29.8589 24.9857 28.2517 25.3875C26.6445 25.7893 25.5375 26.2075 25.2915 26.6667C24.5781 27.8639 27.6121 27.4621 28.6535 26.9045Z" fill="#9683D7"/>
<path d="M60.3302 16.4246C58.2392 17.1134 55.4676 17.9416 55.771 18.8846C56.1974 20.2376 60.0924 18.5648 61.6914 18.163C63.2904 17.7612 62.4048 15.7522 60.3302 16.4246Z" fill="#9683D7"/>
<path d="M32.4916 110.74C29.0558 110.822 22.4958 112.101 22.094 108.1C21.8562 105.541 22.0202 100.179 21.8562 97.2184C21.6922 95.2176 20.0932 96.1032 20.0194 97.3004C19.8086 100.98 19.8881 104.671 20.2572 108.338C21.7742 114.422 27.6372 112.438 32.6556 112.577C37.059 112.741 36.4112 118.096 36.1734 121.302C36.0176 123.458 35.4518 124.656 33.3772 124.82C30.9746 124.975 20.495 125.64 13.853 124.975C7.34216 124.385 7.87516 120.096 8.11296 85.5416C22.5368 85.1726 22.4958 87.7392 21.7906 73.0612C32.1144 72.1018 46.5874 74.7012 50.2692 71.2982C51.7124 69.9452 52.27 66.3782 51.2286 58.58C50.9908 56.981 49.3672 57.3828 49.3918 58.5062C49.4328 60.6628 50.3512 68.8218 48.99 69.8632C45.3902 72.5036 30.5154 69.8632 21.8726 71.1424C21.8961 69.1143 21.8167 67.0863 21.6348 65.0662C21.4708 63.4262 19.9948 63.4262 19.9948 64.7464C19.7898 73.3072 21.274 81.3843 19.593 83.057C18.2318 84.0984 14.3122 83.5408 8.23596 83.7048C8.07196 72.5036 8.07196 60.425 7.67016 51.5444C7.51436 47.223 9.59717 44.9024 14.3942 44.8204C24.472 44.7466 34.8942 43.4674 34.9516 46.5014C35.3124 55.8002 35.2468 55.5214 32.631 55.8658C28.6294 56.3414 27.4322 56.1037 22.3154 56.2594C19.9948 56.3414 19.511 57.7846 21.6758 58.0224C25.5134 58.5062 32.631 57.7846 32.8688 57.7846C37.838 57.6616 37.0344 52.6596 37.0344 48.822C37.0344 44.5826 35.6732 42.8278 32.2292 42.6638C29.433 42.4998 21.192 42.5818 14.3122 42.9016C6.93217 43.3034 5.59556 47.8216 5.75136 51.6264C6.23516 61.7042 5.83336 75.8656 6.07116 88.4198C6.47296 115.726 3.89816 126.23 13.6726 127.14C20.2621 127.498 26.8672 127.451 33.451 127.001C37.0508 126.681 38.084 124.442 38.166 122.286C38.371 117.062 38.8138 110.658 32.4916 110.74Z" fill="#001434"/>
<path d="M58.6572 86.3371C62.093 86.5011 68.4152 86.9029 68.4972 83.7787C68.5792 79.0637 68.2594 76.1855 67.0622 76.7431C65.6846 77.4319 67.1114 80.8431 66.3406 83.3851C65.5206 86.4191 53.4584 81.1383 53.0648 88.5839C52.9192 90.7047 53.1074 92.8353 53.6224 94.8979C53.8602 96.2591 55.779 96.5379 55.3854 94.4223C54.4834 89.9697 54.0898 86.1567 58.6572 86.3371Z" fill="#001434"/>
<path d="M38.5756 26.1413C41.544 26.3791 43.0283 19.5813 43.5367 21.5821C44.3567 23.7387 45.7752 24.7965 46.7346 24.6981C48.7354 24.4931 49.6948 20.5981 48.8912 19.9749C48.5714 19.6551 47.9318 19.9749 47.858 20.3767C45.2094 27.7567 45.2258 15.7191 41.8556 20.1389C40.8142 21.5821 38.9774 27.5189 37.7556 22.8613C37.5998 22.4595 37.362 22.2955 36.9356 22.5415C36.173 22.9023 37.1324 25.9445 38.5756 26.1413Z" fill="#001434"/>
<path d="M53.1307 44.583C56.3369 44.501 59.2151 44.3452 62.8969 44.2632C63.4545 48.9864 62.0769 57.621 62.6509 63.9432C63.0527 68.8222 64.4139 72.0202 69.3749 72.34C71.2117 72.504 79.1329 73.16 82.2489 72.34C83.8889 71.9382 83.3641 70.2326 81.5355 70.5032C77.7307 70.8886 73.8955 70.8607 70.0965 70.4212C61.8965 69.6504 65.0945 60.0072 64.8895 44.1812C93.7781 43.5826 90.3751 45.5834 91.4493 56.8256C87.1385 57.1864 82.8048 57.1864 78.4933 56.8256C76.6483 56.6616 76.4925 56.6616 76.4105 54.587C76.3285 51.5448 76.4925 49.1422 75.5331 48.9864C74.0899 48.8224 74.4917 51.3808 74.4917 54.7264C74.4917 57.5308 75.1313 58.4082 78.3293 58.646C82.7226 59.0068 87.138 59.0068 91.5313 58.646C92.4087 64.8042 90.6539 68.0514 92.8105 68.0842C95.1311 68.1252 93.6305 54.2508 93.4501 51.2086C93.2943 45.9278 90.6539 42.9676 84.1677 42.4838C79.1329 42.246 58.5755 41.2866 52.4173 42.7298C50.7363 43.148 51.1299 44.665 53.1307 44.583Z" fill="#001434"/>
<path d="M52.1721 105.14C50.7453 95.7515 36.5183 104.132 35.4523 97.4571C34.8947 93.8573 35.2145 91.8647 35.2145 88.4371C35.1325 82.8365 42.7339 85.3949 44.7347 84.8373C45.9319 84.5175 45.7761 83.3203 44.4149 83.1973C42.2101 82.9342 39.9835 82.9068 37.7729 83.1153C33.2957 83.2793 33.0579 87.6007 33.2957 92.0779C33.5335 96.3173 32.8939 102.475 38.5765 102.32C48.2525 102 50.5731 101.196 50.6551 111.84C50.6551 112.315 51.2127 112.479 51.7785 112.479C52.8117 112.422 52.5739 108.019 52.1721 105.14Z" fill="#001434"/>
<path d="M47.2106 34.6617H38.576C37.756 34.8257 38.2562 40.0245 40.257 39.5817C41.2984 39.5817 40.175 41.0167 42.8974 41.0167C45.9314 41.0167 44.7342 39.6555 45.6116 39.4997C47.6944 39.7867 48.0142 34.4239 47.2106 34.6617Z" fill="#001434"/>
<path d="M127.931 110.257C128.489 110.356 129.128 110.102 129.128 109.544C129.128 107.543 123.692 107.543 121.289 110.02C119.608 111.783 119.649 115.489 121.133 115.94C121.255 115.979 121.386 115.984 121.511 115.954C121.636 115.924 121.75 115.86 121.84 115.77C121.931 115.679 121.995 115.565 122.025 115.44C122.055 115.315 122.05 115.185 122.011 115.063C121.289 111.463 125.037 109.782 127.931 110.257Z" fill="#001434"/>
<path d="M142.011 115.218C145.684 114.898 149.128 114.176 150.965 112.659C156.41 108.182 152.884 96.9807 144.405 96.1771C128.251 94.6601 125.931 116.497 142.011 115.218ZM145.848 98.4239C151.531 99.3013 153.228 108.338 149.768 111.142C146.726 113.602 137.771 114.176 135.008 111.782C138.247 108.141 143.331 102.098 145.848 98.4239Z" fill="#001434"/>
<path d="M157.927 100.983C152.187 84.5012 132.007 94.8988 130.49 82.9842C130.088 79.942 128.85 78.0642 127.046 81.541C117.69 99.458 94.4182 84.7062 92.811 105.378C92.2862 112.168 86.169 114.021 88.4896 123.14C86.593 122.465 84.5584 122.274 82.5692 122.582C80.6504 117.777 78.7316 114.177 76.7308 111.701C79.773 109.544 79.691 105.46 76.0912 103.943C70.8924 101.861 68.6538 96.26 75.1318 94.3412C82.8152 92.1026 78.01 89.864 79.1334 85.5426C80.2568 82.4184 94.0082 83.7632 90.5724 79.1466C90.1624 78.589 89.0554 77.3836 89.531 76.1044C89.8508 75.2188 91.171 73.751 96.4108 72.8244C104.365 71.414 107.53 66.4202 116.812 65.7806C135.221 64.3538 132.532 71.3402 140.592 70.5858C155.984 69.118 155.877 75.7928 157.55 73.7018C157.87 69.3066 145.611 67.6092 140.273 68.7818C139.231 69.0032 137.632 68.8638 136.993 68.3062C128.194 61.5822 112.278 63.1812 103.717 68.3062C98.1984 71.824 82.5938 71.4222 89.1538 80.3848C82.438 82.2216 74.5988 81.8198 77.7968 90.7004C75.796 93.5048 70.4168 92.4634 69.4 97.1784C67.637 105.378 81.7984 105.264 75.5582 110.298C70.1872 103.853 55.8782 108.503 63.7994 124.944C54.1972 128.142 46.1202 143.418 56.9196 150.536C58.0348 153.496 58.5596 154.775 59.56 157.342C60.5604 159.908 63.0778 161.097 61.8806 157.981C78.0346 161.015 95.0742 151.815 97.8786 141.417C99.7154 145.017 101.478 149.74 102.913 152.135C103.955 153.98 106.439 155.177 105.078 152.299C103.717 149.421 101.314 143.976 97.8786 136.858C103.955 140.376 114.279 142.779 125.472 143.098C122.831 150.298 111.392 152.118 107.079 145.263C105.554 142.861 104.037 143.098 104.512 144.222C107.874 154.136 122.192 153.34 126.193 145.583C132.196 154.382 148.276 153.422 150.793 143.943C151.515 141.147 149.678 140.425 149.432 141.631C147.193 151.946 131.917 151.708 127.358 143.705C127.445 143.483 127.552 143.269 127.677 143.066C143.118 143.303 152.015 138.966 156.156 133.07C159.026 128.97 156.32 129.15 156.074 129.626C150.613 139.982 137.755 141.106 128.793 141.229C116.558 141.385 101.273 138.588 95.681 133.029C90.474 124.009 87.194 119.023 92.7208 111.75C95.8368 107.428 93.4342 100.631 98.5592 97.3506C98.6411 97.489 98.7544 97.6062 98.8901 97.6925C99.0257 97.7788 99.1798 97.832 99.3399 97.8475C99.4998 97.862 99.6609 97.8386 99.8102 97.7794C99.9595 97.7201 100.093 97.6266 100.199 97.5064C102.807 94.4888 108.079 93.4064 113.073 96.0714C115.156 97.1866 114.918 94.2264 113.073 93.8246C119.715 92.8652 124.037 89.7246 128.514 82.8694C128.76 86.9694 131.318 89.7492 136.115 91.0694C134.918 91.709 132.196 92.4306 133.073 94.1034C133.236 94.2988 133.468 94.4245 133.721 94.4549C133.974 94.4854 134.229 94.4183 134.434 94.2674C141.076 88.9866 146.111 95.1448 147.079 92.9062C151.876 94.5462 154.352 98.351 155.631 100.286C156.968 102.582 158.247 102.262 157.927 100.983ZM53.533 140.122C54.0168 133.562 59.4534 129.003 64.5702 126.682C69.5312 133.726 76.411 141.245 68.6702 147.084C67.5101 145.034 66.1148 143.127 64.5128 141.401C63.3894 140.36 62.6678 140.999 63.0696 141.885C63.7912 143.525 65.8658 146.042 67.0712 148.199C60.4128 152.815 52.7376 147.854 53.533 140.122ZM96.255 139.007C91.9336 154.521 74.5742 157.867 60.8146 156.046C60.3308 154.841 59.6912 153.16 59.1336 151.725C65.2918 153.242 73.131 148.043 74.0904 142.205C75.5336 133.324 60.3308 123.566 63.4304 113.808C63.7371 112.665 64.3818 111.64 65.2801 110.869C66.1784 110.098 67.2885 109.616 68.4652 109.487C72.9588 109.003 77.6656 115.645 80.388 123.164C68.3914 126.206 75.8288 139.884 86.3084 136.686C87.5876 136.522 88.711 134.283 87.5056 134.685C82.4708 136.046 79.4286 135.087 77.9116 133.48C70.7858 126.206 85.4638 121.705 89.5884 126.6C90.9332 128.15 93.6146 133.562 96.255 138.982V139.007Z" fill="#001434"/>
<path d="M118.247 110.257C120.887 98.6621 107.21 92.8237 99.2148 99.4575C95.0492 102.983 95.2132 110.659 98.3292 113.537C102.495 117.219 116.41 118.416 118.247 110.257ZM114.09 113.217C110.252 115.456 101.052 114.176 99.3296 111.577C102.929 108.617 109.006 103.656 112.687 100.097C117.607 101.86 118.247 110.741 114.09 113.217Z" fill="#001434"/>
<path d="M126.488 132.898C135.049 132.898 144.25 126.42 137.968 119.942C133.409 115.301 129.17 123.624 120.929 121.459C117.173 120.499 115.189 123.099 114.935 125.698C114.492 129.142 117.452 132.898 126.488 132.898ZM119.371 125.862C118.657 125.608 117.534 125.296 116.648 124.903C118.092 121.377 119.773 123.697 125.209 123.697C130.646 123.697 132.811 118.9 136.246 121.057C135.535 121.868 134.759 122.619 133.926 123.304C133.806 123.399 133.723 123.533 133.688 123.682C133.654 123.831 133.67 123.987 133.736 124.126C133.801 124.264 133.911 124.377 134.049 124.445C134.186 124.513 134.342 124.533 134.492 124.501C135.369 124.419 135.853 123.943 137.452 122.656C140.65 131.381 118.592 134.136 116.566 126.977C117.854 127.379 118.731 127.699 119.453 127.223C119.773 127.002 120.019 126.092 119.371 125.862Z" fill="#001434"/>
</svg>
