<svg width="164" height="164" viewBox="0 0 164 164" fill="none" xmlns="http://www.w3.org/2000/svg">
<path d="M142.569 88.345C151.821 88.9289 153.427 88.1056 153.427 87.4266C153.427 87.1626 153.755 86.436 144.95 86.4918C140.731 86.5238 136.761 86.4598 136.75 87.498C136.745 89.1601 139.557 88.1499 142.569 88.345Z" fill="#9683D7"/>
<path d="M153.451 133.375C155.097 129.037 100.128 127.175 98.2654 134.206C97.4905 137.13 117.64 146.159 117.417 149.323C117.193 152.486 105.009 154.708 106.04 157.392C107.071 160.077 145.868 159.989 145.437 157.392C145.005 154.796 129.807 150.552 129.258 148.404C128.71 146.255 151.214 139.224 153.451 133.375Z" fill="#9683D7"/>
<path d="M154.178 47.2785C154.481 38.9612 155.312 18.8745 152.651 17.2288C149.52 15.287 137.128 14.9434 124.632 15.1353C112.999 15.319 101.286 15.8946 96.4241 18.0873C95.905 18.3185 94.9776 19.0943 94.4504 26.1405C93.7001 36.1519 94.1953 56.31 97.2712 59.2177C103.011 63.389 141.852 61.7244 146.784 59.1701C147.024 59.0454 147.206 58.8317 147.29 58.5747C147.375 58.3176 147.356 58.0376 147.237 57.7945C147.118 57.5514 146.909 57.3645 146.654 57.2737C146.399 57.183 146.118 57.1955 145.873 57.3087C140.008 60.1845 101.657 60.5207 98.7012 57.7236C95.8312 55.0045 95.3999 21.6436 97.6303 19.7888C100.834 17.1443 148.197 16.1373 151.242 18.7745C152.832 20.1488 152.56 34.5381 152.105 47.2096C152.095 47.4839 152.195 47.7509 152.382 47.9516C152.569 48.1524 152.829 48.2705 153.103 48.2801C153.377 48.2897 153.644 48.1899 153.845 48.0026C154.046 47.8154 154.164 47.5561 154.173 47.2818L154.178 47.2785Z" fill="#9683D7"/>
<path d="M138.43 38.7447C138.548 38.8128 138.679 38.8568 138.814 38.874C138.95 38.8912 139.087 38.8813 139.219 38.8449C139.35 38.8085 139.473 38.7463 139.581 38.662C139.688 38.5776 139.777 38.4728 139.844 38.3536C142.23 33.9256 143.616 31.3787 143.104 30.1806C142.481 28.7342 139.988 29.4426 135.913 27.4082C135.79 27.3509 135.656 27.3184 135.521 27.3127C135.385 27.3069 135.249 27.328 135.122 27.3747C134.994 27.4214 134.877 27.4928 134.777 27.5848C134.677 27.6768 134.596 27.7876 134.539 27.9109C134.06 29.9322 137.727 30.0921 138.821 30.7555C131.799 32.9367 125.159 58.2197 119.623 42.4044C118.208 39.0645 116.626 35.286 112.99 35.4696C106.911 35.3655 106.088 47.3022 100.726 47.6056C100.456 47.6007 100.195 47.7016 99.9978 47.8869C99.8009 48.0722 99.6843 48.3271 99.6728 48.5972C99.6614 48.8674 99.756 49.1312 99.9365 49.3325C100.117 49.5338 100.369 49.6565 100.639 49.6745C107.144 50.0779 107.846 38.3692 113.095 37.5303C115.124 37.427 116.234 39.7041 117.705 43.2031C125.031 61.9712 132.518 35.7337 140.436 32.2413C140.428 33.7911 136.968 37.0112 138.43 38.7447Z" fill="#9683D7"/>
<path d="M61.0978 112.538L68.1211 105.443C68.1211 105.443 63.3191 99.0034 62.8001 97.8931C62.281 96.7828 67.4577 92.8599 67.4577 92.8599L62.8001 87.4348H58.9248L53.7391 92.8673C53.7391 92.8673 57.6948 95.552 57.9818 96.9739C58.2688 98.3958 53.0527 104.928 53.0527 104.928L61.0978 112.538Z" fill="#9683D7"/>
<path d="M54.9294 5.80358C37.9611 5.96266 31.8783 6.58914 30.6008 8.06432C26.8673 12.3759 27.1896 30.6676 29.5946 31.0243C29.743 31.0313 29.8911 31.0051 30.028 30.9474C30.165 30.8898 30.2873 30.8023 30.386 30.6913C30.4848 30.5803 30.5574 30.4486 30.5987 30.3059C30.64 30.1632 30.6488 30.013 30.6246 29.8665C30.0653 25.2564 29.2666 12.6079 32.1006 9.49194C33.3896 8.52762 44.3792 7.97986 55.0097 7.88064C68.8956 7.7519 89.5014 5.18858 103.771 6.5465C108.812 6.97782 115.723 7.56166 129.146 7.633C129.415 7.62656 129.672 7.51529 129.86 7.32286C130.049 7.13043 130.155 6.87202 130.156 6.60255C130.157 6.33309 130.053 6.07384 129.866 5.87992C129.679 5.68601 129.423 5.57271 129.154 5.56414C115.811 5.49198 108.948 4.90814 103.938 4.47764C89.6449 3.09512 68.9038 5.6732 54.9294 5.80358Z" fill="#9683D7"/>
<path d="M127.78 79.1887C128.518 79.3724 148.608 80.9624 148.353 78.1424C148.337 78.0068 148.294 77.8758 148.227 77.7568C148.16 77.6379 148.07 77.5335 147.962 77.4495C147.855 77.3656 147.731 77.304 147.6 77.2681C147.468 77.2322 147.33 77.2228 147.195 77.2404C143.095 77.7677 130 77.2404 128.1 77.0764C127.843 77.0806 127.597 77.1755 127.404 77.3441C127.212 77.5127 127.085 77.7441 127.046 77.9973C127.008 78.2506 127.061 78.5092 127.195 78.7273C127.329 78.9454 127.536 79.1089 127.78 79.1887Z" fill="#9683D7"/>
<path d="M151.446 69.7299C151.885 69.6257 152.125 67.7003 150.431 67.661C146.061 67.5404 146.228 68.317 133.932 68.0915C129.203 68.0046 124.242 67.6446 124.249 69.3461C124.249 69.4826 124.275 69.6179 124.327 69.7441C124.38 69.8703 124.456 69.9849 124.553 70.0815C124.649 70.178 124.764 70.2545 124.89 70.3066C125.016 70.3587 125.151 70.3854 125.288 70.385C130.992 70.3448 145.989 70.9845 151.446 69.7299Z" fill="#9683D7"/>
<path d="M119.974 97.2378C119.837 97.24 119.702 97.2698 119.577 97.3253C119.453 97.3808 119.34 97.461 119.247 97.5609C119.154 97.6609 119.081 97.7786 119.035 97.9071C118.988 98.0356 118.968 98.1722 118.975 98.3087C118.979 98.4447 119.01 98.5786 119.066 98.7026C119.123 98.8266 119.203 98.9382 119.302 99.031C119.402 99.1238 119.519 99.196 119.647 99.2433C119.774 99.2906 119.91 99.3121 120.046 99.3066C160.106 97.2058 159.643 98.9393 159.276 96.6941C158.908 94.4489 130.922 97.2009 119.974 97.2378Z" fill="#9683D7"/>
<path d="M10.8832 108.471C3.54831 116.835 12.5929 131.809 23.5793 127.176C21.6293 131.13 17.9861 137.21 13.9279 147.749C13.8501 147.899 13.8134 148.067 13.8215 148.235C13.8295 148.404 13.882 148.567 13.9736 148.709C14.0653 148.85 14.1928 148.965 14.3432 149.041C14.4935 149.118 14.6615 149.153 14.8299 149.143C25.1364 149.487 47.2035 159.042 49.0017 154.001C51.8381 146.059 52.7483 143.407 53.7577 143.535C54.836 143.662 55.2518 147.545 55.0361 153.713C55.031 154.063 55.1503 154.402 55.3728 154.672C55.5953 154.941 55.9065 155.123 56.2505 155.183C62.2669 156.054 73.0605 147.601 84.9177 148.113C85.7377 148.081 87.0423 148.16 86.7307 146.818C85.3966 145.14 85.9928 128.953 83.5836 129.92C78.1019 131.758 65.774 133.156 59.1271 131.622C58.1333 131.414 57.2169 130.935 56.4802 130.236C55.7435 129.538 55.2157 128.648 54.9557 127.667C54.6769 126.948 54.1169 126.988 53.5257 127.483C51.7922 129.023 49.6984 130.1 47.438 130.615C40.714 131.918 34.4541 129.265 25.1627 124.966C24.8593 124.823 24.3427 124.455 23.8761 124.638C22.2222 125.301 16.9061 127.458 13.9451 123.839C14.9996 123.288 18.0041 123.272 17.485 121.53C17.441 121.399 17.3704 121.278 17.2778 121.175C17.1852 121.072 17.0725 120.989 16.9466 120.931C16.8207 120.874 16.6844 120.843 16.546 120.84C16.4076 120.837 16.27 120.862 16.1419 120.915C14.9037 121.394 13.2981 121.873 12.4109 122.137C11.6626 121.078 11.1033 119.896 10.7578 118.646C14.4879 117.615 15.2235 117.639 14.9758 116.448C14.7438 115.306 13.554 115.673 10.3838 116.608C10.1264 114.333 10.7558 112.047 12.1411 110.224C13.9869 112.949 18.9004 120.115 22.815 116.305C23.758 115.394 25.4595 105.838 25.685 99.6227C25.7252 98.3927 26.988 98.5682 26.997 99.494C27.0216 102.02 25.8146 117.016 23.7375 121.162C23.6688 121.351 23.6381 121.551 23.6472 121.751C23.6562 121.951 23.7049 122.147 23.7903 122.329C23.8757 122.51 23.9961 122.672 24.1447 122.807C24.2933 122.941 24.4671 123.045 24.6559 123.112C37.7111 129.59 50.7664 133.219 55.9603 119.869C56.6392 118.127 57.8134 118.949 57.2222 120.819C56.721 122.119 56.4376 123.493 56.3834 124.885C56.3752 126.556 57.5978 129.16 59.3313 129.855C62.1512 130.998 79.2417 130.55 84.8743 127.674C85.9452 127.123 86.7201 126.716 86.5143 125.924C85.4122 121.698 84.821 117.591 85.404 116.089C85.4268 116.014 85.4722 115.949 85.5339 115.901C85.5956 115.853 85.6706 115.825 85.7486 115.822C85.8266 115.818 85.9038 115.839 85.9695 115.881C86.0353 115.923 86.0863 115.985 86.1157 116.057C90.3797 127.627 107.464 115.689 107.436 106.637C117.308 101.307 121.835 89.8377 114.139 82.1567C119.445 70.1798 103.807 65.2983 97.1931 76.6627C95.6395 77.0028 94.1859 77.6985 92.9465 78.6952C91.7071 79.6919 90.7157 80.9623 90.0501 82.4068C87.9199 80.0104 85.2761 78.126 82.3159 76.894C83.0658 74.1915 83.4686 71.4046 83.5147 68.6005C86.9743 64.6538 90.274 56.8318 85.6959 50.9918C90.0107 42.0751 83.6984 32.6476 75.3811 34.4926C70.8703 25.6267 58.59 25.4201 52.9254 33.7357C46.0219 27.2962 31.2774 35.502 30.9691 44.5302C23.0356 46.3514 22.961 53.3591 26.3911 58.2562C20.8306 62.0191 22.8355 72.8858 30.1704 74.5233C30.6882 75.9804 31.4266 77.3493 32.3598 78.5823C12.219 85.9886 -0.573009 90.7347 10.8832 108.471ZM97.0201 78.7496C98.8897 78.3667 101.63 78.0551 103.692 80.1321C105.578 82.0419 103.947 85.0521 99.4653 85.094C99.269 85.116 99.0831 85.194 98.9299 85.3187C98.7766 85.4434 98.6625 85.6095 98.6009 85.7973C98.5394 85.9851 98.5332 86.1865 98.5829 86.3777C98.6327 86.569 98.7363 86.7418 98.8815 86.8758C102.533 91.6056 108.813 88.825 112.928 83.8312C114.071 85.0628 114.935 86.5264 115.46 88.1222C114.103 89.3988 112.582 90.4894 110.938 91.3653C110.74 91.4784 110.584 91.6532 110.495 91.863C110.406 92.0728 110.388 92.306 110.444 92.5271C110.499 92.7482 110.626 92.9449 110.804 93.0872C110.982 93.2296 111.202 93.3097 111.43 93.3153C112.285 93.1636 113.707 92.205 115.92 90.5273C115.983 94.3424 114.529 98.0265 111.878 100.771C109.329 103.51 106.757 105.988 102.139 105.7C87.4327 104.796 86.9292 80.8275 97.0201 78.7496ZM62.0971 109.694C57.5592 111.956 52.8533 102.591 49.2978 98.7059L59.369 88.4494C60.344 88.4896 61.3263 88.4576 62.2849 88.4174C66.9507 93.8827 69.2844 96.5994 70.5382 97.9573C67.4583 103.182 64.3989 107.656 62.0971 109.694ZM48.0833 96.984C45.2232 92.8618 42.5705 88.515 40.3975 84.7602C45.5938 86.7154 51.0439 87.9147 56.581 88.3215L48.0833 96.984ZM64.8376 88.2272C70.694 87.6204 75.4402 85.7262 78.5316 82.802C76.3884 87.305 74.0832 91.7291 71.6206 96.0656C69.9995 94.2337 67.1705 90.9422 64.8376 88.2255V88.2272ZM83.6213 83.3539C82.9653 81.2449 84.5643 81.1727 85.3154 82.5864C86.3814 84.6241 87.5926 88.8905 86.6742 90.6322C85.8829 92.1263 83.5418 92.6535 81.7599 93.1742C81.2802 93.3103 81.2482 93.5744 81.4483 94.0295C84.3183 100.43 79.9305 103.329 73.5468 106.357C72.6276 106.797 71.8682 105.232 72.7711 104.728C75.664 103.098 79.131 100.357 80.042 99.1832C80.6332 98.4239 79.9387 95.5629 78.8997 93.3825C77.933 91.3366 84.7636 91.0865 84.8997 89.5949C85.0038 88.4338 84.3167 85.5892 83.6213 83.3523V83.3539ZM29.5792 72.1601C24.8232 70.1544 23.2652 61.7461 28.4607 59.5764C28.6403 59.5201 28.8014 59.4166 28.9272 59.2766C29.0529 59.1367 29.1387 58.9654 29.1754 58.7809C29.2121 58.5964 29.1985 58.4053 29.136 58.2279C29.0734 58.0504 28.9642 57.8931 28.8199 57.7724C24.8019 54.353 25.6883 46.6671 32.136 46.467C32.4065 46.44 32.6555 46.3074 32.829 46.0981C33.0024 45.8887 33.0864 45.6194 33.0626 45.3485C32.3123 37.6225 46.8771 29.2249 52.2506 36.0325C52.355 36.1571 52.487 36.2555 52.6362 36.32C52.7854 36.3845 52.9476 36.4132 53.1098 36.4039C53.2721 36.3946 53.4299 36.3475 53.5707 36.2663C53.7116 36.1852 53.8315 36.0723 53.9209 35.9366C58.7228 27.6989 69.5723 28.0023 73.8871 36.1998C75.0531 38.4212 78.5832 34.2277 82.5233 38.6286C84.6807 41.0386 86.3109 45.5642 83.5467 50.6138C83.4436 50.8032 83.4013 51.0198 83.4255 51.2341C83.4497 51.4484 83.5393 51.6501 83.682 51.8118C87.2695 55.8298 85.8714 61.2795 83.5467 65.0507C84.0387 56.9097 80.9415 46.7065 75.9477 44.7573C74.7013 44.2653 72.6407 47.2173 69.0852 46.1948C67.3033 45.6839 67.0639 43.1034 65.8494 42.9279C64.0274 42.6557 62.7335 46.0677 56.9566 45.7159C54.3842 45.5642 53.3855 40.8779 51.1485 43.0312C46.8845 47.1378 44.1785 48.8073 41.0576 46.3112C40.882 46.1681 40.6646 46.0861 40.4382 46.0775C40.2119 46.069 39.9889 46.1343 39.803 46.2637C37.721 47.7897 34.573 51.1451 34.573 60.0782C34.573 60.717 34.0458 60.9966 33.5497 61.4041C29.963 64.3766 29.0118 68.0675 29.5792 72.1601ZM31.5472 69.8641C31.5316 64.1347 36.4672 63.1401 36.4607 61.2541C36.409 53.7183 38.7673 49.9307 40.4377 48.4211C44.6082 51.1935 48.2588 48.2571 52.0866 44.9615C55.3945 49.1164 60.6195 48.5088 65.1172 45.5125C67.259 49.1796 72.0921 49.228 75.5837 46.927C77.869 48.3333 79.9461 52.1283 80.6734 56.3308C78.6112 55.0153 76.1119 54.5701 73.7223 55.0926C68.7604 56.0594 67.1787 59.1754 67.9536 62.6505C68.9204 67.0047 74.2094 70.9998 81.4885 66.3496C83.6205 87.5876 61.4264 89.8319 41.4725 82.9685C33.8219 80.1485 31.325 73.4532 31.5448 69.8641H31.5472ZM79.2302 65.4451C75.0826 67.5869 71.7034 65.7813 70.2332 63.2803C69.8963 62.7107 69.7078 62.0658 69.6849 61.4044C69.662 60.7431 69.8054 60.0866 70.102 59.4951C70.3986 58.9036 70.8389 58.396 71.3826 58.0188C71.9263 57.6416 72.5559 57.4069 73.2139 57.3361C74.539 60.2939 76.6382 63.5698 79.2277 65.4468L79.2302 65.4451ZM32.6239 86.7471C33.1905 86.8192 33.1749 87.3391 33.0388 87.8951C32.891 89.2106 32.843 90.5354 32.8953 91.8581C32.9109 92.8085 39.6783 93.4719 38.1277 95.4128C35.1405 99.152 41.2847 101.933 43.8726 103.627C45.1592 104.457 44.536 105.504 43.5856 105.304C40.5261 104.355 37.83 102.492 35.8588 99.9671C35.3514 99.3288 35.0641 98.5435 35.0397 97.7284C35.0153 96.9134 35.2552 96.1123 35.7235 95.4448C33.6858 94.8216 31.1208 93.8147 30.8855 92.3534C30.8174 91.9811 30.3148 86.4683 32.6239 86.7471Z" fill="#1E2837"/>
<path d="M92.6013 158.67C94.2413 157.776 93.8395 155.65 92.6415 154.476C87.8396 149.769 87.4156 149.69 82.0233 150.201C70.877 151.256 66.3236 156.273 56.6722 157.247C48.9937 161.954 92.753 159.038 92.6013 158.67Z" fill="#1E2837"/>
<path d="M67.4182 54.5014C68.1562 54.5014 69.0237 53.4223 71.0688 53.8618C72.3808 54.1414 73.0426 52.3997 71.4928 51.8323C69.879 51.2419 67.1058 52.0086 66.4752 53.0467C66.4096 53.2043 66.3834 53.3755 66.3988 53.5455C66.4142 53.7155 66.4708 53.8791 66.5637 54.0224C66.6565 54.1656 66.7828 54.284 66.9317 54.3675C67.0806 54.451 67.2476 54.4969 67.4182 54.5014Z" fill="#1E2837"/>
<path d="M49.2173 68.3312C55.9921 68.1312 58.5251 59.5982 53.7716 56.7061C46.6441 52.3757 39.3101 58.0181 40.2129 62.834C40.7885 65.854 43.7881 68.4911 49.2173 68.3312ZM42.7934 60.1493C43.1404 59.5018 43.6478 58.9542 44.2671 58.5589C44.8863 58.1637 45.5967 57.934 46.3301 57.8918C47.4015 60.8425 49.0413 63.5543 51.1566 65.8737C47.2198 67.3399 40.4843 64.9512 42.7934 60.1493Z" fill="#1E2837"/>
<path d="M59.0529 66.2938C62.5682 67.892 66.9708 66.3816 66.0917 61.109C66.0309 60.8463 65.8701 60.6177 65.6434 60.4717C65.4167 60.3258 65.142 60.274 64.8777 60.3274C64.6134 60.3808 64.3804 60.5351 64.2281 60.7577C64.0758 60.9802 64.0163 61.2533 64.0622 61.519C64.3263 62.831 64.0786 63.7723 63.3111 64.3324C62.8285 64.6366 62.2753 64.8104 61.7055 64.837C61.1356 64.8636 60.5686 64.742 60.0598 64.4841C59.8215 64.3693 59.5483 64.3498 59.2961 64.4298C59.0439 64.5098 58.8318 64.6831 58.7031 64.9142C58.5745 65.1454 58.5391 65.417 58.6041 65.6735C58.6691 65.9299 58.8296 66.1519 59.0529 66.2938Z" fill="#1E2837"/>
<path d="M49.1688 53.8547C50.9909 54.1179 53.3156 53.0634 54.8014 53.9498C55.2893 54.2458 56.0478 54.6534 56.5677 53.6382C57.582 51.6891 53.8354 50.7305 49.9445 51.5931C48.0905 52.0089 48.1783 53.7104 49.1688 53.8547Z" fill="#1E2837"/>
<path d="M58.3413 70.8395C60.2823 70.6001 62.4872 71.3988 64.4093 72.0539C64.6434 72.0483 64.8687 71.964 65.0489 71.8145C65.2292 71.6651 65.3538 71.4593 65.4027 71.2304C65.4516 71.0014 65.4219 70.7627 65.3184 70.5526C65.215 70.3426 65.0438 70.1736 64.8324 70.0728C62.7718 69.4332 57.6419 67.9318 57.2745 69.7128C57.245 69.8619 57.2516 70.0158 57.2937 70.1618C57.3359 70.3077 57.4124 70.4415 57.5168 70.5518C57.6213 70.6621 57.7507 70.7458 57.8941 70.7959C58.0376 70.8459 58.1909 70.8609 58.3413 70.8395Z" fill="#1E2837"/>
<path d="M157.916 106.498C153.562 102.726 133.46 103.318 130.2 105.643C128.051 107.465 124.607 118.107 123.476 125.482C119.345 126.209 106.57 124.563 105.026 127.272C103.621 129.748 104.739 134.39 107.472 134.406C111.499 134.421 127.709 134.221 132.823 134.086C137.361 133.479 151.437 135.108 152.868 132.056C154.809 128.997 160.138 109.726 157.916 106.498ZM107.478 132.337C106.815 132.361 104.881 128.43 108.476 127.909C111.009 127.541 120.029 127.677 123.209 127.573C123.057 129.049 123.002 131.057 123.465 132.16C117.521 132.225 108.158 132.313 107.478 132.337ZM154.968 118.818C153.259 125.913 152.108 129.996 150.495 130.971C148.026 132.465 143.443 131.754 136.227 131.969C124.465 132.329 125.097 131.09 125.193 128.894C125.512 121.974 129.882 108.631 131.544 107.217C133.79 105.315 154.642 105.611 156.208 107.665C156.631 108.232 156.678 111.715 154.968 118.818Z" fill="#1E2837"/>
<path d="M60.1553 82.2091C58.3777 82.3882 56.5837 82.3184 54.8253 82.0016C54.5607 81.95 54.2863 82.0035 54.0604 82.1509C53.8346 82.2982 53.6751 82.5278 53.6157 82.7909C53.5564 83.0539 53.6019 83.3297 53.7426 83.5598C53.8834 83.7898 54.1082 83.9559 54.3694 84.0229C56.4113 84.5081 58.5395 84.5 60.5776 83.9991C61.218 83.7909 61.4575 82.1369 60.1553 82.2091Z" fill="#1E2837"/>
<path d="M62.48 73.7C57.5419 72.5898 52.7564 70.0412 51.3821 72.8538C47.9865 79.5491 58.4849 82.0821 63.2631 79.8525C66.1232 78.5184 67.4811 74.8193 62.48 73.7ZM63.1835 77.2638C60.8055 79.9804 50.9426 78.0387 53.0442 74.028C53.3001 73.536 53.6592 73.2613 54.1791 73.4606C57.4066 74.6906 60.5308 75.2343 62.9753 75.9616C63.5107 76.1133 63.5501 76.8398 63.1835 77.2638Z" fill="#1E2837"/>
<path d="M5.7611 158.67C8.53352 159.964 45.5729 159.421 48.0264 159.588C48.7373 159.644 48.5856 156.992 47.9304 157C33.236 157.186 22.699 150.96 14.5097 150.96C12.1317 150.96 8.85168 153.154 6.28016 154.668C4.69592 155.601 3.84312 157.776 5.7611 158.67Z" fill="#1E2837"/>
</svg>
