<svg width="164" height="164" viewBox="0 0 164 164" fill="none" xmlns="http://www.w3.org/2000/svg">
<path d="M101.804 141.86C101.64 142.893 101.402 145.345 102.681 145.214C103.64 145.115 103.558 143.057 103.403 142.098C103.247 141.138 101.959 140.818 101.804 141.86Z" fill="#9683D7"/>
<path d="M82.2221 115.005C80.9429 115.243 81.7793 117.236 81.7383 119.72C81.7383 120.918 82.5583 121.155 82.9355 121.073C84.8543 120.68 83.4193 114.841 82.2221 115.005Z" fill="#9683D7"/>
<path d="M105.395 141.458C104.518 141.54 104.878 142.893 104.837 144.574C104.837 145.296 105.239 145.69 105.797 145.616C107.076 145.452 106.92 141.221 105.395 141.458Z" fill="#9683D7"/>
<path d="M144 128.912C144.82 128.83 145.206 127.871 144.886 125.952C144.722 124.755 143.246 124.673 143.041 125.632C142.836 126.592 142.549 129.068 144 128.912Z" fill="#9683D7"/>
<path d="M98.6871 142.098C98.5231 143.213 98.4411 144.73 99.3267 144.894C100.606 145.132 100.36 143.213 100.36 142.098C100.359 141.933 100.31 141.771 100.218 141.634C100.126 141.497 99.9957 141.39 99.843 141.327C99.6904 141.264 99.5225 141.247 99.3604 141.279C99.1984 141.311 99.0494 141.39 98.9323 141.507C98.8545 141.584 98.7928 141.676 98.7507 141.778C98.7086 141.879 98.687 141.988 98.6871 142.098Z" fill="#9683D7"/>
<path d="M95.7273 142.098C95.2517 142.918 95.1697 145.214 96.1291 145.214C97.4083 145.296 97.3919 143.574 97.3263 142.754C97.2197 141.458 96.2029 141.294 95.7273 142.098Z" fill="#9683D7"/>
<path d="M153.357 135.145C153.275 134.021 153.275 132.988 152.48 133.226C151.307 133.455 151.25 137.326 152.48 137.326C153.357 137.301 153.431 136.211 153.357 135.145Z" fill="#9683D7"/>
<path d="M87.2565 133.701C86.8547 134.66 87.3385 136.579 88.0765 136.743C88.9621 136.825 88.8965 134.504 88.7161 133.545C88.6095 133.061 87.6583 132.742 87.2565 133.701Z" fill="#9683D7"/>
<path d="M110.996 149.847C110.176 150.011 110.356 151.052 110.176 152.405C110.102 153.127 110.651 153.512 111.299 153.127C112.422 152.463 112.209 149.527 110.996 149.847Z" fill="#9683D7"/>
<path d="M108.273 141.86C107.724 142.032 107.88 142.68 107.798 143.697C107.716 144.714 108.118 145.05 108.519 145.132C109.339 145.214 109.479 144.574 109.479 143.533C109.479 142.492 109.003 141.631 108.273 141.86Z" fill="#9683D7"/>
<path d="M155.513 137.137C156.555 136.981 156.555 134.103 155.349 134.021C154.792 133.947 154.636 134.185 154.529 135.464C154.554 136.579 154.71 137.219 155.513 137.137Z" fill="#9683D7"/>
<path d="M147.92 128.429C148.15 125.559 147.518 125.149 146.961 125.231C145.919 125.313 146.083 126.592 146.083 128.667C146.083 129.79 147.797 129.954 147.92 128.429Z" fill="#9683D7"/>
<path d="M92.6111 142.5C92.2913 143.533 92.3733 145.312 93.3327 145.132C94.4561 144.919 94.2921 142.819 94.2101 142.418C94.1604 142.238 94.0509 142.08 93.8995 141.971C93.7482 141.862 93.5641 141.807 93.3777 141.817C93.1913 141.827 93.0138 141.899 92.8744 142.024C92.735 142.148 92.6421 142.316 92.6111 142.5Z" fill="#9683D7"/>
<path d="M127.855 134.341C133.456 134.906 132.652 151.766 125.395 151.126C123.878 150.97 123.96 152.323 125.879 152.487C134.03 152.963 135.629 134.267 128.118 132.742C122.197 131.626 119.803 141.057 120.278 144.492C120.442 145.771 121.722 144.812 121.722 143.853C121.705 139.695 123.14 133.865 127.855 134.341Z" fill="#9683D7"/>
<path d="M89.8149 142.336C89.5689 143.533 89.7329 145.452 90.7743 145.214C91.4877 145.05 91.3319 143.697 91.4139 142.754C91.4877 141.541 90.0691 141.131 89.8149 142.336Z" fill="#9683D7"/>
<path d="M131.537 126.272C131.373 127.232 131.373 128.511 132.25 128.667C133.128 128.823 133.07 127.47 133.07 126.272C133.07 125.075 131.692 125.313 131.537 126.272Z" fill="#9683D7"/>
<path d="M125.936 150.65C126.576 150.486 126.822 150.65 126.978 149.289C130.414 148.65 130.979 143.853 127.617 142.254C127.617 141.056 127.699 139.695 127.781 138.498C128.659 138.736 128.815 139.441 129.421 139.318C130.241 139.138 129.823 137.399 127.781 136.915C127.781 135.48 127.626 135.169 126.961 135.398C126.486 135.571 126.141 135.562 126.141 136.997C122.788 137.719 122.632 142.516 125.904 143.393C125.928 144.917 125.821 146.439 125.584 147.944C125.393 147.925 125.209 147.865 125.044 147.769C124.878 147.673 124.735 147.543 124.624 147.387C123.747 146.345 122.788 149.388 125.264 149.543C125.223 150.568 125.461 150.568 125.936 150.65ZM127.576 144.017C128.618 144.656 128.536 146.731 127.257 147.452C127.465 146.318 127.585 145.169 127.617 144.017H127.576ZM125.936 141.458C124.403 140.433 125.166 139.047 126.1 138.58C126.1 139.49 126.1 140.499 126.018 141.458H125.936Z" fill="#9683D7"/>
<path d="M149.929 129.306C151.364 129.47 151.299 124.87 149.683 125.55C148.863 125.887 149.126 127.313 149.29 128.429C149.271 128.628 149.325 128.827 149.443 128.989C149.561 129.15 149.734 129.263 149.929 129.306Z" fill="#9683D7"/>
<path d="M87.0924 142.655C86.8546 143.935 87.2564 144.73 88.0518 144.812C89.0932 144.894 88.7734 143.377 88.6914 142.573C88.6094 141.458 87.2564 141.696 87.0924 142.655Z" fill="#9683D7"/>
<path d="M124.738 156.325C131.454 157.842 138.17 155.448 139.843 148.65C141.368 143.139 141.844 134.661 136.973 131.307C135.333 130.183 132.733 129.667 131.052 129.388C115.333 126.206 112.889 153.43 124.738 156.325ZM135.989 132.504C134.865 133.463 136.382 134.267 137.506 134.144C137.662 134.382 137.744 134.628 137.908 134.964C135.989 134.964 135.669 136.481 138.539 136.604C138.621 136.842 138.703 137.162 138.785 137.424C136.145 137.186 137.022 139.261 139.105 139.023C139.173 139.366 139.201 139.716 139.187 140.064C137.826 140.064 137.662 141.499 139.261 141.663C139.195 142.031 139.168 142.405 139.179 142.779C136.227 142.057 136.145 144.542 139.023 144.378C139.023 144.697 138.941 145.017 138.941 145.255C136.227 144.435 135.825 146.936 138.621 146.895C138.539 147.215 138.465 147.453 138.383 147.715C136.227 146.829 135.267 149.15 137.826 149.314C137.744 149.552 137.588 149.872 137.506 150.134C136.948 150.134 136.464 150.052 135.989 150.052C134.226 150.216 135.169 151.692 136.628 151.692C136.458 151.978 136.269 152.252 136.063 152.512C135.103 152.75 133.504 152.028 133.266 153.152C133.111 153.709 133.668 154.111 134.226 154.111C133.062 154.718 131.781 155.071 130.47 155.144C137.104 150.036 138.621 137.481 132.93 131.487C133.986 131.706 135.012 132.047 135.989 132.504ZM127.674 130.749C139.105 130.905 135.989 156.645 125.034 154.808C115.226 153.127 117.383 130.585 127.699 130.749H127.674Z" fill="#9683D7"/>
<path d="M155.595 129.068C156.793 128.749 156.415 125.264 155.276 125.395C154.398 125.493 154.554 126.428 154.636 128.347C154.554 129.068 154.956 129.232 155.595 129.068Z" fill="#9683D7"/>
<path d="M152.791 129.068C153.677 129.068 153.751 128.108 153.751 127.067C153.751 126.026 153.595 125.074 152.635 124.91C151.815 124.828 151.996 125.73 151.996 126.427C151.996 127.789 151.914 129.068 152.791 129.068Z" fill="#9683D7"/>
<path d="M134.808 125.55C133.849 125.714 134.095 127.149 134.169 128.347C134.242 129.544 135.809 129.552 135.809 127.707C135.85 125.714 135.612 125.394 134.808 125.55Z" fill="#9683D7"/>
<path d="M90.5284 133.062C89.651 133.144 89.4706 134.825 89.651 135.866C89.8642 137.063 91.168 137.137 91.291 136.424C91.332 135.464 91.6518 132.824 90.5284 133.062Z" fill="#9683D7"/>
<path d="M137.449 125.468C136.58 125.845 136.465 129.781 137.933 129.232C138.408 129.15 138.753 128.412 138.753 126.993C138.753 125.575 138.253 125.075 137.449 125.468Z" fill="#9683D7"/>
<path d="M110.832 142.18C110.192 142.254 110.356 143.295 110.356 144.173C110.356 145.05 110.832 145.28 111.389 145.132C112.423 144.87 112.111 141.95 110.832 142.18Z" fill="#9683D7"/>
<path d="M96.9243 106.288C96.3667 105.009 94.3659 102.295 93.8083 103.328C93.4065 104.148 94.6283 105.649 95.4893 106.846C96.2027 107.731 97.4491 107.51 96.9243 106.288Z" fill="#9683D7"/>
<path d="M149.994 149.371C149.117 149.527 149.355 150.486 149.281 151.528C149.207 152.569 149.437 152.963 150.158 152.963C151.47 152.963 151.298 149.224 149.994 149.371Z" fill="#9683D7"/>
<path d="M143.927 142.016C143.866 141.872 143.77 141.746 143.647 141.65C143.525 141.554 143.38 141.491 143.226 141.466C143.072 141.442 142.914 141.457 142.768 141.511C142.622 141.564 142.491 141.654 142.389 141.771C142.252 141.928 142.173 142.127 142.164 142.336C141.614 146.87 145.009 145.517 143.927 142.016Z" fill="#9683D7"/>
<path d="M98.4418 109.724C98.1876 108.904 97.4824 108.125 97.0068 108.371C96.1868 108.765 97.1626 110.282 97.4824 110.922C98.0482 112.045 98.8928 111.094 98.4418 109.724Z" fill="#9683D7"/>
<path d="M86.2158 115.645C85.3958 116.12 86.6176 118.105 86.9374 118.834C87.577 120.196 88.9382 119.654 88.5774 118.441C88.2166 116.842 87.0932 115.079 86.2158 115.645Z" fill="#9683D7"/>
<path d="M147.043 153.045C148.396 153.045 148.322 148.945 147.117 149.134C146.084 149.289 146.297 150.413 146.297 151.052C146.404 151.848 146.158 153.045 147.043 153.045Z" fill="#9683D7"/>
<path d="M92.447 95.0954C91.2498 95.981 95.2515 97.498 96.6865 98.5394C97.9657 99.4168 99.0809 98.3754 97.6459 96.8994C96.5225 95.817 93.349 94.5378 92.447 95.0954Z" fill="#9683D7"/>
<path d="M82.9354 123.156C81.8202 123.312 81.3446 127.256 82.6156 127.633C83.2552 127.871 83.7964 127.313 83.821 126.19C83.862 124.271 83.657 123.09 82.9354 123.156Z" fill="#9683D7"/>
<path d="M144.247 153.602C145.362 153.684 145.444 149.289 144.247 149.289C143.288 149.289 143.526 150.109 143.526 151.126C143.37 152.323 143.124 153.528 144.247 153.602Z" fill="#9683D7"/>
<path d="M85.2562 102.853C85.74 102.377 85.576 101.738 84.141 101.098C83.5014 100.696 82.6322 100.458 82.501 101.016C82.3698 101.574 82.3288 101.91 83.321 102.533C84.3132 103.156 84.8544 103.255 85.2562 102.853Z" fill="#9683D7"/>
<path d="M142.328 137.137C143.525 137.064 143.525 133.226 142.164 133.464C141.689 133.546 141.344 133.948 141.443 134.743C141.541 135.538 141.369 137.137 142.328 137.137Z" fill="#9683D7"/>
<path d="M155.669 149.929C154.956 149.675 154.792 150.413 154.792 151.29C154.874 152.004 154.792 153.144 155.514 153.209C156.629 153.308 156.719 150.306 155.669 149.929Z" fill="#9683D7"/>
<path d="M100.04 123.911C97.8018 123.673 93.0868 126.953 88.8556 130.553C85.1738 131.266 83.8208 132.389 83.9766 135.473C84.0586 137.072 84.6982 138.589 86.0594 139.228C82.9352 141.065 83.6568 145.944 85.8954 147.428C82.6974 149.068 83.9766 154.808 86.535 155.743C87.355 156.063 90.0528 156.063 96.4488 156.137C106.994 156.301 110.676 156.957 113.669 155.103C115.514 153.98 115.432 148.306 113.513 147.428C114.71 146.707 115.432 145.509 115.432 143.189C115.432 140.868 114.874 139.671 113.595 139.089C114.874 138.531 115.194 137.014 115.194 135.415C115.194 132.455 114.071 130.618 111.356 130.495C108.437 126.912 101.803 124.034 100.04 123.911ZM112.431 153.964C110.618 155.12 101.402 154.685 96.6046 154.447C90.9302 154.21 86.3792 155.489 86.0594 151.569C85.6576 146.649 89.651 148.289 95.0794 148.051C100.728 147.841 106.384 147.948 112.021 148.371C114.194 148.511 113.89 152.996 112.431 153.923V153.964ZM111.233 146.37C111.151 146.37 88.1914 146.657 87.0926 146.215C85.5756 145.575 85.3378 141.418 87.0188 140.54C91.168 139.499 109.872 140.056 112.349 140.376C114.751 140.417 114.431 146.256 111.233 146.329V146.37ZM113.472 135.186C113.628 140.056 108.355 138.539 100.524 138.384C88.8556 138.302 85.6576 139.737 85.6576 134.628C85.6576 131.553 89.2902 131.733 96.6046 131.988C111.283 132.545 113.324 130.331 113.472 135.145V135.186Z" fill="#9683D7"/>
<path d="M153.914 151.847C153.914 150.97 153.914 149.133 153.037 149.207C152.159 149.281 152.159 150.027 152.159 151.126C152.159 152.225 152.159 153.364 153.037 153.282C153.914 153.2 153.914 152.487 153.914 151.847Z" fill="#9683D7"/>
<path d="M96.3671 133.062C95.5471 133.226 95.4077 134.185 95.4897 135.3C95.5717 136.416 95.8095 137.219 96.3671 137.219C97.3265 137.219 97.2445 136.022 97.2445 134.981C97.2445 133.939 97.0887 132.931 96.3671 133.062Z" fill="#9683D7"/>
<path d="M145.92 137.703C147.363 137.941 147.437 133.948 145.92 133.948C144.961 133.948 145.1 135.145 145.206 135.702C145.313 136.26 144.887 137.539 145.92 137.703Z" fill="#9683D7"/>
<path d="M102.526 133.546C101.484 133.464 101.566 134.825 101.64 135.62C101.714 136.416 101.722 137.383 102.526 137.301C103.641 137.219 103.641 133.701 102.526 133.546Z" fill="#9683D7"/>
<path d="M150.241 135.464C150.159 134.505 150.159 133.144 149.281 133.226C148.798 133.308 148.461 133.628 148.461 134.825C148.461 136.022 148.379 136.899 149.101 137.219C149.823 137.539 150.315 136.981 150.241 135.464Z" fill="#9683D7"/>
<path d="M142.008 150.33C142.008 149.371 140.483 148.969 140.409 150.166C140.335 151.364 139.77 153.446 141.049 153.446C142.328 153.446 142.008 151.208 142.008 150.33Z" fill="#9683D7"/>
<path d="M99.3271 132.742C98.3677 133.307 98.5071 134.98 98.6875 136.341C98.8679 137.703 99.9667 137.465 100.204 135.784C100.442 134.103 100.286 132.266 99.3271 132.742Z" fill="#9683D7"/>
<path d="M92.6112 134.103C92.3734 135.144 92.5292 136.825 93.2508 136.981C94.53 137.383 94.612 134.906 94.2102 133.381C93.9724 132.422 92.767 132.824 92.6112 134.103Z" fill="#9683D7"/>
<path d="M155.669 145.132C156.711 144.894 156.793 143.139 156.489 142.336C156.186 141.532 155.046 141.86 154.972 142.893C154.898 143.927 154.472 145.37 155.669 145.132Z" fill="#9683D7"/>
<path d="M146.723 145.296C148.24 145.296 147.756 141.294 146.723 141.138C145.837 141.056 145.526 141.958 145.763 142.893C146.001 143.828 145.681 145.296 146.723 145.296Z" fill="#9683D7"/>
<path d="M110.996 136.743C112.111 136.342 112.111 133.226 110.996 133.381C110.274 133.463 110.176 134.021 110.176 134.907C110.176 135.792 110.274 136.981 110.996 136.743Z" fill="#9683D7"/>
<path d="M107.56 135.39C107.56 137.719 109.315 137.916 109.315 135.71C109.315 134.988 109.479 133.553 108.437 133.635C107.634 133.701 107.56 134.34 107.56 135.39Z" fill="#9683D7"/>
<path d="M150.799 143.59C150.717 142.229 150.881 141.434 149.921 141.516C148.593 141.63 148.486 145.091 149.757 145.345C150.397 145.452 150.881 144.976 150.799 143.59Z" fill="#9683D7"/>
<path d="M153.595 144.098C153.751 143.139 153.595 141.294 152.636 141.294C151.676 141.294 151.52 143.697 151.996 144.73C152.472 145.763 153.513 145.23 153.595 144.098Z" fill="#9683D7"/>
<path d="M105.559 132.988C104.739 132.906 104.739 133.947 104.739 134.825C104.739 135.702 104.821 136.662 105.461 136.662C106.1 136.662 106.584 136.022 106.584 134.981C106.601 133.701 106.281 133.062 105.559 132.988Z" fill="#9683D7"/>
<path d="M141.926 127.231C141.926 125.591 141.606 124.927 140.803 124.993C139.606 125.091 139.983 127.453 140.163 128.191C140.327 129.232 141.967 128.986 141.926 127.231Z" fill="#9683D7"/>
<path d="M155.276 120.918C156.555 120.918 156.711 117.318 155.276 117.318C154.317 117.318 154.899 119.245 154.554 120.36C154.407 120.836 154.792 120.918 155.276 120.918Z" fill="#9683D7"/>
<path d="M89.4135 106.846C90.2335 106.272 89.4135 105.091 88.5361 104.451C87.1749 103.574 86.2975 104.369 87.0191 105.271C87.6095 105.968 88.3557 107.625 89.4135 106.846Z" fill="#9683D7"/>
<path d="M152.874 120.999C153.751 120.999 153.833 119.359 153.694 118.277C153.554 117.195 153.447 116.998 152.652 116.842C152.094 116.76 151.775 117.4 151.931 118.835C152.086 120.27 151.996 120.999 152.874 120.999Z" fill="#9683D7"/>
<path d="M89.8151 98.6951C88.7737 98.1375 87.1584 98.8017 88.372 99.8185C93.251 103.878 93.9889 100.901 89.8151 98.6951Z" fill="#9683D7"/>
<path d="M149.109 120.36C148.953 121.557 150.388 121.237 150.552 120.999C151.11 120.179 151.028 116.998 149.912 116.76C148.641 116.53 149.281 119.154 149.109 120.36Z" fill="#9683D7"/>
<path d="M133.931 84.5501C135.801 84.9027 132.652 80.8519 139.925 80.1549C140.327 80.1549 140.803 79.7531 140.745 79.3349C140.499 78.3017 136.424 78.6215 134.267 80.8519C133.373 81.8277 132.808 84.3369 133.931 84.5501Z" fill="#9683D7"/>
<path d="M90.2093 125.075C90.2093 123.796 89.6517 120.753 88.3725 121.557C87.7329 121.959 88.1347 124.017 88.4545 125.395C88.6923 126.37 90.2093 126.674 90.2093 125.075Z" fill="#9683D7"/>
<path d="M144.64 117.957C144.566 116.842 143.287 116.678 143 117.481C142 120.827 145.132 122.877 144.64 117.957Z" fill="#9683D7"/>
<path d="M59.8439 150.011C59.6799 148.97 58.3843 148.97 58.3187 149.691C57.9005 154.382 60.4753 154.111 59.8439 150.011Z" fill="#9683D7"/>
<path d="M146.961 120.999C148.24 121.237 147.92 118.441 147.92 117.719C147.92 116.998 146.477 116.44 146.165 117.555C145.919 118.359 145.682 120.917 146.961 120.999Z" fill="#9683D7"/>
<path d="M56.1612 153.283C57.1206 153.283 57.0386 151.208 57.0386 149.929C57.0386 148.65 55.6036 148.568 55.3986 150.011C55.1936 151.454 55.2838 153.283 56.1612 153.283Z" fill="#9683D7"/>
<path d="M62.2373 153.127C63.1967 153.209 63.4345 151.29 63.2787 150.249C63.1229 149.207 61.5977 149.051 61.6387 150.249C61.6797 151.446 61.2779 153.045 62.2373 153.127Z" fill="#9683D7"/>
<path d="M142.549 80.6305C143.509 81.4505 145.19 80.6305 143.984 79.5973C142.968 78.5559 141.205 79.5153 142.549 80.6305Z" fill="#9683D7"/>
<path d="M140.967 121.393C142.402 121.557 141.787 118.933 141.688 118.039C141.655 117.884 141.582 117.74 141.476 117.623C141.369 117.505 141.234 117.418 141.082 117.37C140.931 117.323 140.77 117.316 140.615 117.351C140.461 117.386 140.318 117.461 140.202 117.569C140.047 117.715 139.949 117.91 139.925 118.121C139.843 119.236 139.523 121.237 140.967 121.393Z" fill="#9683D7"/>
<path d="M137.629 121.074C138.663 121.156 138.507 119.639 138.343 118.122C138.269 117.302 136.908 116.843 136.744 118.04C136.58 119.237 136.572 121 137.629 121.074Z" fill="#9683D7"/>
<path d="M106.355 100.13C107.634 101.327 108.339 99.4989 107.396 98.4903C106.174 97.2275 104.682 96.7273 104.116 97.0471C103.189 97.5801 105.321 99.1791 106.355 100.13Z" fill="#9683D7"/>
<path d="M65.1987 152.61C66.3139 152.692 66.3139 150.618 66.0761 149.658C65.8383 148.699 64.4361 149.019 64.4361 149.814C64.4361 150.61 64.0753 152.61 65.1987 152.61Z" fill="#9683D7"/>
<path d="M83.5098 92.4633C83.5098 93.1849 84.8628 93.1849 87.741 94.3001C88.7004 94.7019 89.258 94.0623 89.258 93.6605C89.2498 92.1845 83.5098 90.9873 83.5098 92.4633Z" fill="#9683D7"/>
<path d="M109.954 122.197C109.849 122.227 109.751 122.278 109.666 122.347C109.581 122.415 109.511 122.5 109.459 122.596C109.407 122.693 109.375 122.798 109.364 122.907C109.353 123.016 109.364 123.125 109.396 123.23C109.716 124.911 109.232 126.428 110.274 126.428C111.791 126.428 111.069 122.115 109.954 122.197Z" fill="#9683D7"/>
<path d="M88.9378 88.4617C87.5766 88.4617 87.2978 89.8229 88.372 89.9869C89.7332 90.0607 91.652 90.9463 92.3736 90.8643C94.9238 90.5937 93.1198 88.4617 88.9378 88.4617Z" fill="#9683D7"/>
<path d="M44.5746 149.527C43.7546 149.691 43.5332 152.889 44.8124 152.643C45.534 152.487 45.534 151.29 45.534 150.183C45.6078 149.773 45.452 149.371 44.5746 149.527Z" fill="#9683D7"/>
<path d="M143.927 84.5501C142.217 85.6268 140.198 86.1056 138.187 85.9113C136.424 85.7801 135.547 85.2717 135.227 85.9851C134.505 87.6251 137.785 87.6251 139.065 87.6251C142.582 87.8629 147.265 85.7883 146.018 81.7867C145.941 81.5872 145.789 81.4259 145.594 81.337C145.4 81.2482 145.178 81.2389 144.977 81.3111C143.681 81.9097 145.206 83.5087 143.927 84.5501Z" fill="#9683D7"/>
<path d="M109.552 120.434C110.593 120.598 110.511 117.801 109.634 115.956C109.076 114.841 107.879 115.481 108.199 116.842C108.519 118.441 108.675 120.36 109.552 120.434Z" fill="#9683D7"/>
<path d="M83.337 97.7362C84.2882 98.0724 85.8954 98.6956 86.3792 98.4578C87.1992 98.056 86.3792 96.3586 83.501 95.9978C82.4596 95.842 82.0496 97.2852 83.337 97.7362Z" fill="#9683D7"/>
<path d="M82.0574 111.962C83.1562 110.905 80.9422 106.772 79.9008 107.649C79.0808 108.289 80.1386 110.281 80.9422 111.807C80.9971 111.9 81.0724 111.979 81.1624 112.039C81.2525 112.099 81.3549 112.138 81.4621 112.153C81.5692 112.167 81.6783 112.158 81.7813 112.125C81.8843 112.092 81.9787 112.036 82.0574 111.962Z" fill="#9683D7"/>
<path d="M82.8615 89.6671C83.6815 89.8885 85.8955 89.9049 85.4199 88.7077C84.6983 86.9447 80.7131 89.0603 82.8615 89.6671Z" fill="#9683D7"/>
<path d="M68.6345 150.651C68.3885 149.691 67.3553 149.773 67.2733 150.167C65.9859 154.472 69.5693 154.3 68.6345 150.651Z" fill="#9683D7"/>
<path d="M103.321 119.154C103.403 120.114 103.239 122.115 104.518 122.352C105.797 122.59 105.395 120.04 104.92 118.835C104.444 117.629 103.239 118.17 103.321 119.154Z" fill="#9683D7"/>
<path d="M99.8027 100.532C99.5649 101.016 100.287 101.812 101.164 102.771C102.041 103.73 102.599 104.411 103.165 104.214C103.731 104.017 103.558 102.574 102.681 101.574C101.804 100.573 100.205 99.737 99.8027 100.532Z" fill="#9683D7"/>
<path d="M96.6868 92.701C98.6876 93.5784 100.287 95.0462 101.566 94.9396C103.206 94.8084 100.041 91.5858 97.0886 91.4218C96.1292 91.3398 95.4896 92.2254 96.6868 92.701Z" fill="#9683D7"/>
<path d="M93.3494 71.7579C98.0644 70.0031 98.704 62.2459 93.989 60.7289C95.1888 59.54 95.9695 57.9933 96.2136 56.3219C96.4576 54.6506 96.1517 52.9452 95.342 51.4629C95.342 51.4629 98.8598 41.7049 91.4306 31.4795C95.9078 40.9915 91.3486 60.7289 85.6906 65.4439C85.6578 65.4439 91.1682 66.5099 93.3494 71.7579Z" fill="#9683D7"/>
<path d="M102.443 149.527C101.566 149.527 101.886 150.569 101.804 151.766C101.722 152.963 101.886 153.685 102.681 153.529C103.476 153.373 103.64 152.406 103.558 150.971C103.64 149.847 103.239 149.527 102.443 149.527Z" fill="#9683D7"/>
<path d="M93.3493 149.454C92.3899 149.692 92.4637 150.413 92.4637 151.373C92.4637 152.332 92.4637 153.127 93.3493 153.283C94.3825 153.447 94.2267 152.57 94.3087 151.643C94.4481 150.011 93.9725 149.331 93.3493 149.454Z" fill="#9683D7"/>
<path d="M90.3732 149.847C89.5532 150.167 89.7336 150.888 89.7336 151.61C89.7336 152.889 90.2912 153.045 90.5536 153.045C92.251 153.045 91.5868 149.396 90.3732 149.847Z" fill="#9683D7"/>
<path d="M88.1342 149.692C86.937 149.61 86.937 152.488 87.9784 152.808C89.192 153.177 88.8722 149.872 88.1342 149.692Z" fill="#9683D7"/>
<path d="M96.629 149.527C95.358 149.633 95.3498 153.045 96.547 153.209C97.7442 153.373 97.5064 151.929 97.4326 151.052C97.3588 150.175 97.449 149.461 96.629 149.527Z" fill="#9683D7"/>
<path d="M116.31 128.83C115.752 128.986 116.047 130.191 116.154 131.389C116.277 132.906 116.228 134.103 117.187 134.021C118.573 133.898 118.015 128.305 116.31 128.83Z" fill="#9683D7"/>
<path d="M98.7613 150.011C98.3431 151.118 98.6055 153.127 99.6469 153.127C100.688 153.127 100.541 150.667 100.36 149.847C100.221 149.207 99.0893 149.207 98.7613 150.011Z" fill="#9683D7"/>
<path d="M107.478 150.486C107.158 151.528 107.56 153.283 108.437 153.127C109.479 152.963 109.257 150.888 108.995 150.167C108.732 149.445 107.634 149.929 107.478 150.486Z" fill="#9683D7"/>
<path d="M115.391 116.359C115.071 114.366 113.554 111.242 112.668 111.562C111.471 112.045 113.16 114.136 113.792 116.916C114.153 118.532 115.629 117.802 115.391 116.359Z" fill="#9683D7"/>
<path d="M105.477 150.011C104.6 150.331 104.756 151.93 104.838 152.725C104.92 153.209 105.158 153.767 105.797 153.545C106.625 153.357 106.863 149.486 105.477 150.011Z" fill="#9683D7"/>
<path d="M134.973 121.319C135.932 121.639 135.932 119.556 135.695 118.359C135.457 117.162 134.169 117.637 134.055 118.835C133.94 120.032 134.096 121.073 134.973 121.319Z" fill="#9683D7"/>
<path d="M47.4293 149.527C45.9779 149.371 46.0927 153.283 47.3473 153.127C47.9869 153.045 48.0689 152.405 47.9869 151.29C47.9049 150.175 48.0935 149.609 47.4293 149.527Z" fill="#9683D7"/>
<path d="M38.2613 59.6145C36.1785 56.9741 34.3417 51.7835 35.8587 48.4215C36.9001 46.1829 38.1793 47.6015 41.1395 47.5441C44.0997 47.4867 46.3301 44.0263 44.3375 39.5491C50.1677 38.0321 47.6175 27.0851 57.5231 25.7239C42.0989 25.4041 34.4237 29.2417 33.3823 44.4281C32.1851 47.6261 26.2729 46.0681 26.6665 54.0139C26.7485 55.0553 25.7071 56.0967 24.7559 55.7769C19.1553 54.2599 14.4403 57.4169 17.2365 64.9691C26.0269 57.3759 30.6681 60.0901 38.2613 59.6145Z" fill="#9683D7"/>
<path d="M52.3497 149.929C52.1939 151.052 52.0299 153.045 53.0713 153.209C54.1127 153.373 53.9487 151.208 53.8913 150.093C53.8339 148.978 52.4891 148.732 52.3497 149.929Z" fill="#9683D7"/>
<path d="M50.0124 149.33C48.889 149.65 48.971 153.086 50.1682 153.168C51.3654 153.25 51.0456 150.929 50.8898 150.29C50.8898 149.609 50.652 149.133 50.0124 149.33Z" fill="#9683D7"/>
<path d="M44.6564 146.648C40.1792 146.812 39.8594 154.406 43.0164 155.668C43.8364 155.988 44.9352 155.906 53.2418 155.988C69.3876 156.07 71.5442 157.185 71.7082 151.191C71.864 148.395 71.1506 147.034 68.1904 146.632C66.1158 144.32 62.1142 140.802 58.8424 139.76C54.972 141.081 53.5288 139.211 44.6564 146.648ZM68.789 148.329C71.1096 148.887 70.7898 154.168 67.7476 154.324C66.4684 154.406 45.0336 154.57 44.0168 154.168C42.5736 153.602 42.1718 149.133 43.9348 148.493C47.7724 147.05 68.3134 148.247 68.789 148.329Z" fill="#9683D7"/>
<path d="M132.251 120.835C133.374 120.999 133.071 118.76 133.071 117.801C133.092 117.584 133.026 117.367 132.888 117.198C132.749 117.029 132.55 116.921 132.333 116.899C132.115 116.878 131.898 116.943 131.729 117.081C131.56 117.22 131.453 117.42 131.431 117.637C131.299 118.441 131.135 120.679 132.251 120.835Z" fill="#9683D7"/>
<path d="M130.175 123.23C128.535 124.116 128.191 126.969 129.216 127.707C129.268 127.747 129.327 127.774 129.391 127.789C129.454 127.803 129.52 127.803 129.584 127.789C129.647 127.775 129.707 127.748 129.759 127.709C129.811 127.67 129.854 127.62 129.884 127.563C129.926 127.487 129.944 127.4 129.938 127.314C130.02 125.952 130.495 124.673 131.217 124.509C134.972 123.55 143.681 124.034 148.076 124.271C153.357 124.509 157.916 122.435 157.99 127.469C158.031 130.028 157.276 130.208 156.391 130.348C153.045 130.889 142.721 130.512 141.049 130.667C139.376 130.823 139.523 132.184 141.049 132.266C156.743 132.635 157.588 131.446 157.588 135.546C157.481 139.179 156.366 138.507 147.838 138.736C142.164 138.818 142.098 138.9 141.926 139.376C141.762 140.097 143.041 140.417 144.64 140.335C147.436 140.179 154.636 140.015 156.473 140.655C157.99 141.139 158.113 145.214 156.555 146.329C155.735 146.895 150.561 146.649 145.764 146.731C142.967 146.731 141.049 146.731 141.122 147.773C141.196 148.814 142.402 148.412 143.927 148.494C146.477 148.568 154.792 148.174 156.629 148.732C158.154 149.208 158.392 153.529 156.711 154.406C154.48 155.522 143.435 154.365 138.671 154.882C137.031 155.046 136.432 156.325 138.113 156.325C143.468 156.407 153.939 157.367 157.457 155.768C160.655 154.242 160.335 148.65 157.932 147.289C160.253 145.534 159.933 140.819 157.859 139.302C159.769 138.416 159.933 132.266 157.859 131.463C160.491 130.749 160.171 123.952 157.859 123.263C160.491 121.508 159.769 114.718 155.62 114.636C152.578 111.356 145.944 106.92 143.787 106.961C140.909 107.019 136.514 110.159 132.439 114.718C128.101 114.841 127.379 120.918 130.175 123.23ZM131.455 116.44C134.972 115.563 143.205 115.883 147.518 116.039C152.873 116.276 157.752 115.079 157.752 119.401C157.752 123.427 155.292 122.402 139.286 122.599C133.611 122.672 130.266 123.952 130.266 119.081C130.339 117.802 130.815 116.596 131.455 116.44Z" fill="#9683D7"/>
<path d="M115.309 126.272C115.347 126.462 115.452 126.633 115.604 126.754C115.756 126.874 115.946 126.936 116.14 126.93C116.268 126.926 116.394 126.892 116.507 126.83C117.868 126.01 116.507 121 115.154 121C113.628 121 114.99 124.271 115.309 126.272Z" fill="#9683D7"/>
<path d="M76.4653 91.6596C75.5059 92.2254 75.5797 95.8744 76.7031 95.4972C77.9741 95.0708 77.5067 91.184 76.4653 91.6596Z" fill="#001434"/>
<path d="M111.389 102.295C105.395 103.115 99.1629 107.806 99.0891 114.759C97.7361 111.168 83.7469 104.452 86.1413 110.848C89.3065 119.22 95.2843 118.54 99.4909 120.516C99.8926 123.558 98.2937 126.354 100.048 126.51C101.803 126.666 101.41 120.77 100.934 118.515C105.329 115.079 112.119 111.807 113.234 105.329C113.472 103.812 113.308 101.976 111.389 102.295ZM87.6091 110.282C86.3381 108.167 98.4576 112.365 99.2776 118.482C95.2186 116.137 91.9059 118.548 87.6091 110.282ZM111.635 105.051C110.43 110.569 104.919 113.521 100.762 116.531C99.6466 110.856 105.395 104.616 111.233 103.657C111.635 103.493 111.873 103.812 111.635 105.051Z" fill="#001434"/>
<path d="M77.6622 102.213C78.9332 101.787 78.064 97.8178 77.1046 98.3754C76.1452 98.933 76.5388 102.59 77.6622 102.213Z" fill="#001434"/>
<path d="M154.956 89.9053C151.275 90.4629 146.24 92.4637 144.485 95.8995C144.237 95.0859 143.944 94.2866 143.608 93.5051C144.253 93.1135 144.798 92.5768 145.199 91.9377C145.601 91.2986 145.847 90.5746 145.92 89.8233C150.397 90.7827 153.677 85.5921 150.077 82.3121C152.398 79.1141 150.717 74.5549 146.322 75.4405C145.838 72.4803 141.402 71.0453 139.204 73.2019C136.014 70.0859 129.7 73.2019 131.775 78.0727C126.256 77.7529 125.699 84.5507 129.774 86.3875C127.937 91.1025 132.89 94.1447 136.974 91.9799C137.493 92.8221 138.273 93.4726 139.194 93.8334C140.115 94.1943 141.129 94.246 142.082 93.9807C143.01 95.7193 143.401 97.6942 143.206 99.6551C139.844 95.3419 135.006 96.5391 130.176 95.5551C129.356 95.3911 128.979 95.6371 128.979 96.3751C129.381 103.091 136.359 105.969 142.402 103.575C142.246 106.453 142.968 111.644 144.961 111.242C145.068 111.232 145.17 111.195 145.259 111.135C145.348 111.074 145.42 110.992 145.469 110.896C145.517 110.8 145.54 110.694 145.536 110.586C145.532 110.479 145.5 110.374 145.444 110.282C144.165 107.822 143.681 103.255 144.624 100.615C151.578 100.615 155.817 96.6211 155.817 90.7007C155.828 90.5879 155.812 90.4743 155.771 90.3686C155.73 90.2629 155.666 90.168 155.583 90.0912C155.499 90.0143 155.4 89.9576 155.291 89.9254C155.183 89.8932 155.068 89.8863 154.956 89.9053ZM130.414 97.0147C135.055 98.1381 139.926 96.6211 142.566 101.935C136.211 104.51 131.07 101.082 130.414 97.0147ZM141.369 92.6195C140.692 92.7588 139.988 92.6389 139.396 92.2835C138.804 91.9281 138.367 91.3632 138.171 90.7007C137.687 88.6261 134.735 92.7015 131.857 90.3071C129.536 88.3883 133.046 85.4773 130.98 85.1083C127.7 84.5343 127.618 78.9091 132.415 79.8357C133.694 80.0735 134.014 78.8763 133.694 78.4745C131.939 76.0145 133.374 73.5545 136.154 73.5545C136.61 73.5894 137.053 73.7217 137.453 73.9423C137.853 74.163 138.202 74.467 138.474 74.8337C139.614 76.0145 140.549 73.2429 143.025 73.8743C145.649 74.5795 144.198 77.5643 145.904 77.0723C147.027 76.7525 148.364 76.6787 149.02 77.7119C150.799 80.1719 146.748 81.7627 148.38 83.0665C151.816 85.2969 148.872 89.5281 145.264 88.0275C145.132 87.9484 144.976 87.9205 144.824 87.9493C144.673 87.978 144.538 88.0613 144.444 88.1833C144.19 88.9459 144.493 92.2013 141.369 92.6195ZM154.489 91.5043C154.169 93.2591 152.57 98.8843 145.059 99.0155C145.781 93.8249 150.176 92.9393 154.489 91.4223V91.5043Z" fill="#001434"/>
<path d="M71.3478 42.5089C73.1108 41.3117 74.226 41.3855 74.9476 41.5495C76.5876 41.9513 76.2268 44.1899 77.6618 43.7881C79.4986 43.3043 77.8996 39.8685 75.3412 39.3109C74.3475 39.1518 73.3302 39.2301 72.3725 39.5394C71.4148 39.8486 70.5438 40.3801 69.8308 41.0903C68.9534 42.1071 70.3064 43.2305 71.3478 42.5089Z" fill="#001434"/>
<path d="M58.6381 118.359C57.1211 118.835 54.0871 124.755 51.8485 132.348C51.2909 134.185 53.4147 133.373 53.8411 132.102C55.0752 128.124 56.7931 124.312 58.9579 120.754C59.2039 120.434 59.5975 120.68 59.8435 121C61.2533 122.952 62.5589 124.977 63.7549 127.068C64.1567 127.888 65.7557 127.633 65.5179 126.912C64.2387 123.476 60.6389 117.802 58.6381 118.359Z" fill="#001434"/>
<path d="M74.9484 45.7811C72.9698 45.1657 70.833 45.3089 68.9542 46.1829C67.8308 46.8225 68.4704 48.5035 69.6676 48.0197C70.7191 47.6342 71.8557 47.5428 72.9553 47.7552C74.0548 47.9676 75.0756 48.4758 75.9078 49.2251C76.0339 49.3139 76.1789 49.3724 76.3313 49.3958C76.4838 49.4192 76.6396 49.407 76.7866 49.3602C76.9335 49.3133 77.0676 49.233 77.1784 49.1257C77.2891 49.0183 77.3735 48.8867 77.4248 48.7413C77.6626 47.6999 76.6376 46.3141 74.9484 45.7811Z" fill="#001434"/>
<path d="M82.8617 147.371C79.5817 147.371 76.6297 147.33 75.0225 147.289C73.8417 147.289 73.4809 146.05 73.1119 144.73C76.9413 143.09 79.3439 142.336 81.7383 141.45C83.3373 140.811 82.2959 139.531 80.7051 139.933C78.3025 140.573 74.3091 142.172 72.5051 142.811C70.3403 135.431 69.2251 134.898 68.4051 135.374C67.5851 135.85 68.9709 138.728 69.1267 139.294C71.5293 145.927 71.8491 149.199 74.3255 149.199C75.6785 149.199 78.9585 149.281 81.5989 149.281C83.8949 149.33 84.1409 147.371 82.8617 147.371Z" fill="#001434"/>
<path d="M78.2198 51.7505C76.6208 52.7837 73.8246 53.0215 73.185 50.7091C73.1515 50.469 73.0434 50.2454 72.8759 50.0701C72.7084 49.8948 72.4901 49.7766 72.2518 49.7322C72.0134 49.6878 71.7671 49.7194 71.5478 49.8226C71.3284 49.9258 71.147 50.0953 71.0292 50.3073C68.7906 52.9477 64.9776 51.2749 64.6332 49.0281C64.4446 47.7571 62.7964 48.2081 63.1162 50.1515C63.7558 53.5873 69.0284 54.7845 71.6688 52.8657C73.5056 55.6619 77.4088 54.8665 78.9422 53.5053C80.3034 52.4967 79.7458 50.8239 78.2206 51.7505H78.2198Z" fill="#001434"/>
<path d="M43.4527 140.819C34.5311 137.777 22.2721 134.743 16.3927 134.103C15.8351 129.068 18.7871 116.44 19.1069 110.684C27.3069 114.989 42.5343 128.478 46.9213 114.685C53.8749 110.364 67.8641 102.213 69.7009 101.738C71.4639 103.255 74.8997 106.772 77.6139 106.608C80.9759 106.371 81.4515 100.778 81.0579 95.3416C80.2379 83.3368 75.5147 80.1388 69.4631 91.504C66.6538 91.3228 63.8689 90.8669 61.1483 90.1428C61.7038 89.7491 62.1199 89.1891 62.3366 88.5436C62.5532 87.898 62.5592 87.2004 62.3537 86.5512C61.4681 84.1486 57.6387 82.6316 57.3189 84.1486C57.302 84.2801 57.3113 84.4137 57.3463 84.5416C57.3814 84.6694 57.4414 84.7891 57.523 84.8936C57.6046 84.9981 57.7062 85.0853 57.8218 85.1503C57.9373 85.2153 58.0647 85.2566 58.1963 85.272C64.1905 87.2646 58.1143 91.6598 52.4563 86.4692C52.442 85.3889 52.6798 84.3202 53.151 83.3479C53.6222 82.3757 54.3137 81.5267 55.1705 80.8686C55.6543 80.557 55.8921 79.7534 55.4165 79.5156C53.7765 78.5562 51.0213 80.7948 50.6195 84.7882C46.8639 81.6722 46.4621 77.195 50.4555 75.1942C50.5612 75.1428 50.6546 75.0692 50.7293 74.9785C50.804 74.8879 50.8584 74.7822 50.8887 74.6686C50.9191 74.5551 50.9246 74.4364 50.9051 74.3205C50.8855 74.2046 50.8413 74.0943 50.7753 73.997C49.8405 72.8654 47.2575 73.997 46.3801 76.7194C45.7487 70.7252 52.3497 68.4538 51.1771 67.0434C50.2997 65.8462 47.8971 68.3226 46.9377 69.282C45.0271 67.642 45.2977 66.084 46.9377 65.0508C50.2177 63.0664 55.4821 66.4038 56.5317 66.4038C62.5259 67.1254 65.0844 68.8064 68.6021 74.8006C69.7993 76.7932 71.2425 75.0384 70.4389 73.4394C69.3237 71.3648 66.8473 68.3226 66.2815 68.1668C79.5491 66.6416 87.7081 76.4734 87.7081 85.9854C87.7081 87.3466 89.5449 87.4286 89.5449 85.272C89.6131 81.627 88.6025 78.0432 86.6403 74.9707C84.678 71.8982 81.8515 69.4741 78.5159 68.0028C80.5887 67.7685 82.6258 67.2867 84.5839 66.5678C92.1033 66.9614 97.2775 79.3844 92.3411 86.3872C92.005 86.8628 92.1033 87.4942 92.5789 87.5844C94.9078 88.019 97.9335 79.9174 95.4572 74.6366C101.451 73.1196 103.288 64.1652 98.9749 59.688C101.935 56.4982 100.73 51.6192 97.3349 48.905C97.3349 48.0194 97.417 47.224 97.417 46.3466C108.823 41.9186 114.637 15.1866 74.1618 13.5466C67.6837 2.88663 40.1891 7.07683 36.4417 18.2616C16.3025 24.8954 15.4169 36.81 27.0855 43.3618C23.7317 44.7968 22.1655 47.9948 22.1655 51.7586C14.2525 51.1928 9.38174 59.9586 14.4903 66.863C12.1779 70.5366 12.2517 74.776 14.6543 78.8514C1.86234 96.0714 -1.57346 97.3916 17.2947 109.298C17.2127 115.3 13.6129 129.281 14.6543 134.8C12.0139 135.915 9.06194 138.154 7.78274 140.474C6.50354 142.795 7.46294 145.591 11.2185 145.985C13.7769 146.231 36.5565 146.387 40.5499 146.387C42.5507 146.387 42.3867 144.632 39.7299 144.632C29.0699 144.632 12.5551 144.148 11.4399 143.992C6.19194 143.238 11.6777 137.317 16.2369 135.997C21.9769 136.555 35.4167 139.277 44.0513 142.557C45.1337 143.057 45.6831 141.573 43.4527 140.819ZM76.7857 86.3872C77.1413 86.77 77.3901 87.2394 77.5073 87.7484C76.466 88.3388 77.0318 92.5536 78.3848 90.8644C78.6646 92.1005 78.851 93.356 78.9424 94.62C77.5155 94.3002 77.7205 99.5974 79.1801 98.1378C79.1801 99.499 79.3441 102.533 78.3601 103.878C78.0403 104.435 77.3187 104.353 76.9169 103.796C73.8912 99.4498 75.5393 86.3872 76.7857 86.3872ZM56.5645 90.6266C60.0175 91.91 63.6136 92.7691 67.2737 93.185C64.5595 93.3408 58.2537 93.021 56.0069 92.4634C56.2447 91.7418 56.4005 91.1842 56.5645 90.6266ZM65.1991 95.2104C71.1934 95.5302 70.7915 92.0124 73.9075 88.3388C72.9509 93.3033 73.1699 98.4228 74.5471 103.287C72.8661 102.246 71.2671 99.3678 69.4303 99.6876C67.4295 100.007 54.8015 107.445 48.2497 111.438C50.4063 106.239 53.9241 98.1706 55.4411 94.333C57.6059 94.8578 61.8371 95.0218 65.1991 95.2104ZM45.8553 70.6104C42.8951 75.4074 44.8139 81.4016 48.5695 85.2392C45.1337 87.076 38.1801 89.1506 29.6275 82.4348C36.1055 79.8026 41.7799 74.5218 39.3773 66.535C40.8343 66.2866 42.3248 66.3117 43.7725 66.6088C43.7801 67.3927 43.9726 68.1638 44.3346 68.8591C44.6965 69.5545 45.2176 70.1546 45.8553 70.6104ZM22.4361 77.0064C23.2111 78.6213 24.2349 80.1045 25.4701 81.4016C16.5977 83.5582 11.6449 72.4472 16.7617 66.8548C20.9191 61.574 29.5455 59.1796 34.1867 60.6146C36.8189 61.4346 43.0591 60.2948 41.4601 64.3784C40.4633 64.3447 39.4666 64.4523 38.4999 64.6982C38.0243 63.8782 37.3847 62.2382 36.2613 62.9352C36.1535 63.0066 36.0614 63.0993 35.9905 63.2075C35.9197 63.3157 35.8717 63.4372 35.8495 63.5647C35.8272 63.6921 35.8312 63.8227 35.8611 63.9485C35.891 64.0743 35.9463 64.1927 36.0235 64.2964C37.43 66.0833 38.118 68.3312 37.9527 70.5992C37.7873 72.8671 36.7805 74.9915 35.1297 76.5554C33.618 75.1136 32.2755 73.5042 31.1281 71.7584C30.9624 71.588 30.7417 71.4815 30.5051 71.4579C30.2685 71.4343 30.0312 71.495 29.835 71.6294C29.6388 71.7638 29.4964 71.9632 29.433 72.1923C29.3695 72.4215 29.389 72.6657 29.4881 72.8818C30.6715 74.7152 32.0639 76.4048 33.6373 77.9166C31.9122 79.3012 29.931 80.3322 27.8071 80.9506C26.3386 79.6231 25.1436 78.0215 24.2893 76.2356C24.1828 75.9899 23.983 75.7965 23.7338 75.6981C23.4847 75.5997 23.2067 75.6043 22.9609 75.7108C22.7152 75.8174 22.5218 76.0172 22.4234 76.2663C22.325 76.5155 22.3296 76.7935 22.4361 77.0392V77.0064ZM84.9365 63.8864C81.8205 65.8052 72.9482 66.9204 61.9191 65.3296C56.6465 64.9278 47.9299 59.1714 44.1743 64.608C43.9682 64.5407 43.7512 64.5129 43.5347 64.526C44.0185 61.7298 43.2149 60.0488 39.3773 59.0894C37.2207 57.7364 34.7443 50.9386 36.9173 48.4294C37.3191 47.9456 37.7947 48.0276 38.8361 48.1916C43.2313 49.8316 47.3067 43.7964 45.6257 40.1146C48.0857 38.9994 48.9057 36.9166 49.9471 33.3988C53.7847 20.9348 83.7557 27.011 88.1509 31.0044C87.1096 30.8404 83.2309 30.1844 83.5918 31.8244C83.9526 33.4644 86.6093 31.8244 90.2255 33.8252C90.3895 34.227 90.6273 34.7026 90.7914 35.1044C81.8698 31.2504 76.4085 40.0572 81.0498 45.625C82.8046 47.7816 88.4297 48.741 91.9967 48.905C91.0127 55.3748 87.8968 62.4104 84.9365 63.9274V63.8864ZM91.5703 37.4332C90.3731 38.9502 86.9373 43.3454 85.2563 45.502C82.9357 44.4688 81.1563 43.493 81.7385 39.6718C82.534 34.8994 89.4137 36.113 91.5703 37.4742V37.4332ZM98.8438 54.8582C99.0078 57.6708 96.0721 58.7204 97.4825 60.3686C100.287 64.4686 100.287 70.922 95.0225 72.521C94.333 70.7451 93.2595 69.1434 91.8788 67.8307C90.4981 66.5181 88.8443 65.5268 87.0357 64.9278C93.1857 59.811 96.6215 43.6652 92.9479 34.8748C95.9819 37.9908 96.1542 44.149 95.7441 48.7C95.7093 49.0511 95.7665 49.4051 95.9103 49.7273C96.0542 50.0494 96.2795 50.3284 96.5641 50.5368C97.2601 51.0338 97.8292 51.6877 98.2252 52.4456C98.6213 53.2036 98.8332 54.0441 98.8438 54.8992V54.8582ZM71.587 13.2514C60.6311 13.2202 49.7196 14.6458 39.1395 17.4908C46.4621 6.91283 66.1339 7.79843 71.587 13.2514ZM21.6325 33.5546C20.9191 14.9324 91.7344 7.89683 101.402 25.3546C106.437 33.3496 103.239 40.2212 97.4088 44.0588C97.6465 26.314 77.5811 23.7556 62.3209 23.7556C40.0989 23.8376 31.0707 33.1856 28.9059 42.14C25.0683 40.3524 21.8785 38.2696 21.6325 33.5546ZM15.4005 56.9738C16.8437 54.5138 19.3939 53.62 22.9117 53.8578C25.7899 54.0956 21.6325 45.461 30.1113 44.6656C31.9481 38.8272 34.5065 28.8396 53.6863 26.2812C46.9705 29.799 48.7663 36.0474 44.4121 38.6714C44.1371 38.8317 43.9292 39.0858 43.8268 39.3872C43.7243 39.6886 43.7342 40.0168 43.8545 40.3114C44.4121 42.0662 44.5761 44.4114 42.2145 45.9858C39.9759 47.5028 37.6635 44.8624 35.5069 47.183C32.9485 50.0612 34.4655 55.9734 36.6221 59.1714C30.3901 57.3346 21.2799 58.8516 15.6793 65.3296C14.8223 64.1161 14.3392 62.6783 14.2896 61.1935C14.2401 59.7086 14.6263 58.2418 15.4005 56.9738ZM10.7675 102.771C0.853743 96.137 9.32434 89.3474 15.8023 80.557C18.2623 83.427 23.3955 84.0666 27.2823 83.1072C34.3999 89.0276 42.3129 91.0202 49.9881 86.707C51.3661 88.0554 52.9597 89.164 54.7031 89.987C53.1041 95.8992 46.6261 109.806 44.3875 115.325C42.1489 120.844 35.4413 118.605 27.9219 114.12C20.6731 109.806 15.4497 105.969 10.7675 102.771Z" fill="#001434"/>
<path d="M67.9952 128.347C62.1568 128.429 57.3352 132.028 56.3266 136.022C51.6116 132.988 39.615 134.98 44.8958 138.58C52.2758 144.476 66.4536 141.204 68.9546 129.388C69.0185 129.181 68.9978 128.958 68.8972 128.766C68.7965 128.575 68.624 128.431 68.4175 128.366C68.2809 128.323 68.1353 128.316 67.9952 128.347ZM55.7608 139.695C52.3939 140.185 48.963 139.449 46.093 137.621C45.273 137.137 45.3714 136.801 45.6912 136.661C47.8478 136.022 52.489 135.382 56.0068 137.621C55.8485 138.301 55.7665 138.998 55.7608 139.695ZM67.2408 130.183C66.0436 133.144 63.1408 138.096 57.327 139.458C57.573 134.423 60.771 131.069 66.5192 129.946C67.3556 129.708 67.3556 130.028 67.2736 130.183H67.2408Z" fill="#001434"/>
<path d="M56.9648 29.8811C60.061 29.1799 63.2882 29.3187 66.3128 30.2829C66.4386 30.3276 66.5722 30.3464 66.7055 30.3383C66.8388 30.3301 66.9691 30.2951 67.0885 30.2354C67.208 30.1756 67.3141 30.0924 67.4006 29.9907C67.4871 29.889 67.5522 29.7708 67.592 29.6433C68.1496 27.0849 59.8676 27.2407 56.399 28.3641C54.8082 28.8725 55.1198 30.2009 56.9648 29.8811Z" fill="#001434"/>
<path d="M74.9475 56.9743C72.9467 58.6143 69.0271 57.7943 67.8299 56.0149C67.5101 55.5393 66.7967 55.3753 66.4769 55.7771C65.5913 57.0563 67.1903 59.1309 71.1099 59.7705C75.0295 60.4101 77.1041 58.4175 76.3825 57.0563C76.1851 56.8879 75.9379 56.7887 75.6788 56.7739C75.4197 56.7591 75.1629 56.8295 74.9475 56.9743Z" fill="#001434"/>
<path d="M69.1927 38.0322C70.0127 33.1122 66.3965 30.9146 60.0005 31.0786C54.2605 31.2344 50.7263 32.7596 50.1605 36.8186C49.2831 43.1326 53.5963 44.9694 59.3527 45.0186C64.7975 45.1416 68.3153 43.3048 69.1927 38.0322ZM56.1629 42.8292C51.3659 42.985 50.6525 35.9576 54.0883 34.0388C57.3683 32.1938 63.1985 32.6776 65.6749 33.8748C62.3125 36.6492 59.1351 39.6403 56.1629 42.8292Z" fill="#001434"/>
</svg>
