<svg width="28" height="28" viewBox="0 0 28 28" fill="none" xmlns="http://www.w3.org/2000/svg">
<path d="M8.34615 7H19.6538M5.83333 11.6667H22.1667" stroke="#8675C0" stroke-linecap="round"/>
<path d="M26.3162 16.636V23.7498C26.3162 24.3941 25.7939 24.9165 25.1495 24.9165H1.76547M26.3162 16.636L26.8094 25.0374C26.8188 25.1967 26.6657 25.3086 26.5223 25.2651M26.3162 16.636L26.4567 24.1566M26.3162 16.636L22.9451 3.21593C22.8148 2.69719 22.3484 2.3335 21.8136 2.3335H5.68047C5.14046 2.3335 4.67102 2.70409 4.54567 3.22936L1.19854 17.2553C1.17737 17.344 1.16667 17.4349 1.16667 17.5261V24.3177C1.16667 24.6484 1.43476 24.9165 1.76547 24.9165M1.76547 24.9165L26.0741 25.2404M1.76547 24.9165C10.8607 25.3966 28.4383 26.1323 26.5223 25.2651M26.4771 25.2457L26.0741 25.2404M26.4771 25.2457L26.4567 24.1566M26.4771 25.2457C26.4932 25.2523 26.5083 25.2587 26.5223 25.2651M26.4771 25.2457C26.4919 25.254 26.5071 25.2604 26.5223 25.2651M26.0741 25.2404L26.4567 24.1566M4.08334 16.0854H7.29105C7.73336 16.0854 8.13763 16.3356 8.33505 16.7314L9.46719 19.0012C9.66461 19.397 10.0689 19.6471 10.5112 19.6471H16.9556C17.4062 19.6471 17.8166 19.3875 18.0097 18.9803L19.0664 16.7522C19.2595 16.345 19.6698 16.0854 20.1205 16.0854H23.3333" stroke="#5B5180" stroke-linecap="round"/>
</svg>
