<svg width="28" height="28" viewBox="0 0 28 28" fill="none" xmlns="http://www.w3.org/2000/svg">
<path d="M4.18818 15.1665H23.5259C27.1518 15.1665 27.1205 18.0741 26.5475 20.0665C25.9435 22.1665 24.5331 22.1665 23.5259 22.1665H3.58388C1.6501 22.1665 1.16666 20.7665 1.16666 20.0665V17.2665C1.16666 15.5865 3.181 15.1665 4.18818 15.1665Z" stroke="#5B5180" stroke-linecap="round"/>
<path d="M23.3317 18.5049C23.3849 19.6525 22.1069 19.8171 22.0541 19.8246C21.9693 19.8368 21.8819 19.8358 21.7954 19.8226C21.4612 19.7715 21.1409 19.5374 21.0422 19.1702C20.8847 18.5845 21.2078 18.1159 21.362 17.9311C21.755 17.4606 22.7869 17.2602 23.1793 17.9311C23.2272 18.0129 23.2655 18.1077 23.292 18.2166C23.3132 18.3036 23.3268 18.3995 23.3317 18.5049Z" stroke="#5B5180" stroke-linecap="round"/>
<path d="M4.18818 5.8335H23.5259C27.1518 5.8335 27.1205 8.74114 26.5475 10.7335C25.9435 12.8335 24.5331 12.8335 23.5259 12.8335H3.58388C1.6501 12.8335 1.16666 11.4335 1.16666 10.7335V7.9335C1.16666 6.2535 3.181 5.8335 4.18818 5.8335Z" stroke="#8675C0" stroke-linecap="round"/>
<path d="M23.3317 9.1719C23.3849 10.3195 22.1069 10.4841 22.0541 10.4916C21.9693 10.5038 21.8819 10.5028 21.7954 10.4896C21.4612 10.4385 21.1409 10.2044 21.0422 9.83718C20.8847 9.25146 21.2078 8.78287 21.362 8.5981C21.755 8.12762 22.7869 7.92719 23.1793 8.5981C23.2272 8.67994 23.2655 8.77474 23.292 8.8836C23.3132 8.97055 23.3268 9.06646 23.3317 9.1719Z" stroke="#8675C0" stroke-linecap="round"/>
</svg>
