<svg width="28" height="28" viewBox="0 0 28 28" fill="none" xmlns="http://www.w3.org/2000/svg">
<path d="M4.00785 17.1199V6.60477C4.00785 6.47688 3.98286 6.35052 3.96433 6.22403C3.86933 5.57551 4.23022 4.46278 6.34733 4.03209C9.27167 3.43719 23.3085 2.8423 23.8934 5.22189M15.3965 18.4637C11.0621 18.5154 6.33469 18.7429 2.83811 18.9046C-0.671102 19.4994 2.25324 22.474 3.42298 23.0689C4.13725 23.4322 10.3034 23.3518 15.3965 23.2342" stroke="#5B5180" stroke-linecap="round"/>
<path d="M21.3182 9.27124H22.8455M20.5545 22.9381H23.6091M17.5 9.66172C17.5 9.01092 17.8818 7.63121 19.4091 7.31883C21.3182 6.92835 26.2818 6.53786 26.6636 8.49027C27.0455 10.4427 26.6636 20.8835 26.6636 21.1298C26.6636 21.3761 26.6636 24.5 24.7545 24.5H19.4091C18.2636 24.5 17.5 23.719 17.5 21.7666V9.66172Z" stroke="#9683D7" stroke-linecap="round"/>
</svg>
