<svg width="28" height="28" viewBox="0 0 28 28" fill="none" xmlns="http://www.w3.org/2000/svg">
<path d="M13.4166 2.3335H22.1666C24.744 2.3335 26.8333 4.30475 26.8333 6.73642V16.643C26.8333 19.0747 24.744 21.0459 22.1666 21.0459H14.9116C13.5887 21.0459 12.3279 21.5757 11.4429 22.5035L8.60021 25.4835C8.24257 25.8585 7.58329 25.6198 7.58329 25.1154V22.1467C7.58329 21.5387 7.06096 21.0459 6.41663 21.0459H5.83329C3.25596 21.0459 1.16663 19.0747 1.16663 16.643V6.73642C1.16663 4.30475 3.25596 2.3335 5.83329 2.3335H6.99996M9.33329 2.3335H11.0833" stroke="#5B5180" stroke-linecap="round"/>
<path d="M14 15.1665V8.1665M14 8.1665H10.5M14 8.1665H17.5" stroke="#9683D7" stroke-linecap="round"/>
</svg>
