<svg width="350" height="251" viewBox="0 0 350 251" fill="none" xmlns="http://www.w3.org/2000/svg">
<path d="M64.4662 80.8516C60.3159 78.9655 51.0813 84.724 50.3433 88.5076C56.2743 91.4154 61.9923 94.7388 67.4548 98.4529C75.7417 94.3709 71.3021 83.9814 64.4662 80.8516Z" fill="#8675C0"/>
<path d="M23.0296 92.3006C12.8884 98.6035 13.9613 113.442 28.6013 113.075C34.5693 112.925 37.8563 100.67 36.8336 98.0728C35.8108 95.476 27.337 90.7493 23.0296 92.3006Z" fill="#8675C0"/>
<path d="M242.283 109.347C242.262 117.226 257.242 117.049 258.684 110.459C260.125 103.869 242.315 101.359 242.283 109.347Z" fill="#8675C0"/>
<path d="M117.2 86.3978C119.53 85.5094 123.013 78.7395 120.906 76.2976C119.152 74.2794 112.184 70.5505 109.696 71.7282C107.209 72.9058 105.213 80.3841 106.036 81.8033C107.919 85.0014 114.298 87.5094 117.2 86.3978Z" fill="#8675C0"/>
<path d="M192.614 109.37C194.28 100.942 177.168 102.536 177.968 109.598C178.587 115.229 191.15 116.782 192.614 109.37Z" fill="#8675C0"/>
<path d="M224.174 109.633C214.675 114.76 195.543 102.863 201.167 120.929C205.096 133.557 222.939 136.088 231.308 126.655C236.003 121.355 234.271 104.177 224.174 109.633ZM226.748 124.104C218.447 130.095 207.283 127.143 205.463 117.999C204.397 112.339 214.347 120.441 226.593 114.56C229.855 113.41 229.477 122.134 226.748 124.109V124.104Z" fill="#001434"/>
<path d="M212.322 102.934C215.251 104.909 218.27 100.139 215.229 98.253C215.185 98.2302 211.723 95.9432 211.923 93.1255C212.078 90.9273 215.873 89.1073 217.338 87.9751C219.889 86.0002 217.693 82.0071 213.964 83.6699C208.238 86.2462 200.648 95.0548 212.322 102.934Z" fill="#001434"/>
<path d="M49.7283 105.286C39.5848 111.591 40.66 126.427 55.3 126.06C61.2681 125.912 64.555 113.652 63.5345 111.055C62.5141 108.459 54.0335 103.732 49.7283 105.286Z" fill="#001434"/>
<path d="M196.899 57.793C192.575 56.2668 187.901 56.0348 183.448 57.1256C180.386 57.8591 181.429 62.4308 184.978 62.4308C188.321 62.2394 191.672 62.5917 194.901 63.4741C195.633 63.661 196.409 63.567 197.075 63.2105C197.741 62.854 198.25 62.2609 198.5 61.548C198.751 60.8352 198.726 60.0543 198.429 59.3593C198.133 58.6642 197.587 58.1054 196.899 57.793Z" fill="#001434"/>
<path d="M244.902 67.0347C242.112 67.1162 239.369 67.7711 236.843 68.9586C234.317 70.1461 232.063 71.8408 230.22 73.9372C228.378 76.0335 226.987 78.4867 226.133 81.144C225.28 83.8013 224.982 86.6058 225.26 89.383C225.859 94.2873 229.321 100.126 233.449 101C238.378 102.044 241.749 100.157 245.79 99.7133C250.843 98.9896 255.998 99.5933 260.747 101.465C271.068 105.565 271.202 80.8045 264.587 73.9253C262.038 71.3664 258.943 69.4174 255.534 68.2241C252.125 67.0308 248.49 66.6242 244.902 67.0347ZM262.587 95.6746C258.178 94.6526 253.673 94.1028 249.148 94.0345C247.8 86.7871 246.044 79.6216 243.888 72.5722C258.64 70.4196 266.407 82.8911 262.587 95.6746Z" fill="#001434"/>
<path d="M330.469 107.906C329.959 101.803 325.141 97.0312 322.724 91.6827C334.599 90.3501 347.849 78.3433 341.567 67.578C335.797 59.4551 327.964 63.0746 320.706 59.5895C339.157 44.4529 328.223 23.7902 300.066 31.0042C291.522 33.2024 284.397 29.7377 278.094 26.166C284.996 22.0385 284.472 10.6968 277.162 7.71508C267.486 3.76522 260.34 10.5556 251.151 10.7333C239.809 9.80163 227.158 -5.29167 214.73 1.96796C208.982 5.31874 209.358 11.5351 210.914 15.9269C184.213 33.1728 170.787 12.7971 154.031 23.6079C142.999 32.6625 147.129 48.175 160.067 53.0793C149.614 59.8924 136.054 48.7308 130.794 62.8013C123.313 56.676 112.038 50.3503 102.851 52.6374C100.031 33.8151 81.3888 37.4119 64.1451 45.8037C57.4299 35.1454 44.4915 42.2069 32.9768 48.5599C22.4985 54.7512 14.601 64.9835 25.9859 76.5005C9.76278 73.0381 -1.33509 104.291 0.12959 112.856C3.01112 119.867 24.3208 130.817 43.7375 138.979C42.4277 164.634 107.241 215.336 143.281 219.563C161.473 221.698 185.739 211.573 189.488 208.156C193.971 210.796 202.982 213.149 204.582 216.812C208.818 226.354 217.363 246.796 225.222 249.925C227.463 250.811 230.06 247.217 228.194 245.597C221.493 239.427 213.679 223.224 209.73 214.86C204.203 203.185 183.741 204.914 179.256 189.935C175.484 177.306 179.39 163.479 181.411 157.575C183.185 152.382 178.015 151.805 176.062 155.555C170.978 165.35 167.805 197.124 184.163 204.914C155.133 224.29 115.96 209.841 88.4912 187.447C113.092 186.605 133.256 156.976 131.088 134.049C150.286 148.254 153.682 151.249 156.256 148.211C158.609 145.391 153.327 143.682 144.582 136.669C151.734 128.837 160.208 122.323 169.616 117.427C177.097 152.117 224.37 159.773 249.315 150.94C250.558 157.09 249.559 158.931 240.372 162.126C221.839 168.541 215.402 177.174 220.417 201.008C224.192 218.964 237.93 231.88 262.255 230.329C287.201 230.839 323 215.502 343.348 199.479C346.41 197.058 345.323 192.021 340.307 194.885C333.872 198.545 325.526 204.094 320.112 207.29C327.036 187.605 307.239 152.293 301.601 142.598C307.107 138.204 312.522 135.609 312.699 132.803C312.854 130.405 310.014 129.96 308.816 130.894C299.759 136.197 295.476 145.277 278.747 139.55C289.957 132.803 295.328 123.992 297.237 114.737C304.672 122.682 322.715 126.234 329.219 113.45C333.278 115.514 341.002 119.908 344.975 125.612C345.405 126.196 346.045 126.589 346.76 126.707C347.475 126.826 348.208 126.662 348.804 126.248C349.399 125.835 349.81 125.206 349.949 124.494C350.087 123.783 349.943 123.045 349.546 122.439C344.264 115.118 334.433 109.815 330.469 107.906ZM155.329 42.8903C151.577 38.1409 152.664 31.9564 157.591 27.822C169.598 20.8517 179.675 33.3687 196.629 27.6216C208.616 24.8471 215.584 16.813 228.944 17.9656C229.306 18.0019 229.671 17.9655 230.019 17.8586C230.367 17.7517 230.69 17.5764 230.969 17.343C231.249 17.1097 231.478 16.8229 231.645 16.4995C231.812 16.1761 231.913 15.8227 231.941 15.4599C230.654 9.20254 219.579 13.4098 216.094 13.9292C215.986 13.042 216.059 12.1422 216.306 11.2835C216.554 10.4248 216.971 9.62471 217.535 8.93091C218.098 8.23711 218.795 7.66381 219.585 7.24516C220.374 6.82652 221.24 6.5711 222.13 6.49413C230.032 5.76293 244.748 17.1478 251.449 16.1934C256.333 16.5715 262.946 12.5488 268.939 12.2207C272.868 11.993 277.861 13.1524 277.239 18.7469C276.663 23.7583 269.558 21.8084 265.322 20.1455C261.814 19.4781 260.105 23.2958 263.324 24.8721C266.743 26.3067 270.078 27.9365 273.31 29.7537C285.611 37.5668 293.419 37.7445 301.556 35.724C310.301 33.5281 320.665 33.5486 323.795 41.56C325.77 46.5987 321.642 54.1886 312.476 57.733C291.171 66.0336 274.725 48.4346 273.991 47.6579C271.328 44.8834 267.511 48.3686 270.752 51.9859C276.109 57.497 282.798 61.5328 290.171 63.7033C275.324 72.4482 249.092 58.4437 246.051 43.396C248.784 40.5554 244.073 36.5395 241.811 39.8447C234.486 50.8765 224.433 56.2683 216.732 52.3617C207.898 47.8561 221.458 40.7445 219.151 35.5053C218.723 34.9755 218.115 34.6217 217.443 34.5112C216.771 34.4007 216.081 34.5413 215.506 34.9063C193.878 48.7604 166.689 57.3252 155.329 42.8903ZM104.703 58.7011C113.047 54.9745 127.074 65.004 130.605 70.619C132.669 73.906 119.817 99.3842 115.09 104.598C113.662 102.774 111.803 101.333 109.68 100.403C107.558 99.4738 105.238 99.0853 102.928 99.2726C101.997 86.6667 105.835 72.0176 104.703 58.7011ZM92.6575 45.5417C102.89 52.9973 96.3431 78.2317 97.3636 100.514C95.2815 101.236 93.3812 102.402 91.7942 103.931C90.6825 101.197 89.375 97.9833 87.9081 94.4321C92.1928 94.2749 92.0607 90.1269 91.9491 86.2863C91.7942 80.1611 89.7281 74.8969 80.2521 76.6326C79.5869 75.1452 78.899 73.6577 78.2316 72.1703C91.3044 69.84 92.0607 70.3297 87.7327 55.815C86.6894 52.2638 72.3501 53.0405 71.0198 57.3685C69.8071 55.0352 68.5341 52.7338 67.202 50.4665C77.8512 45.1681 87.2589 43.2775 92.6575 45.5417ZM86.9035 88.8399C86.5302 89.0243 86.1503 89.1953 85.7646 89.3524C84.7102 86.8585 83.6373 84.3725 82.5459 81.8946C83.484 81.7606 84.4382 81.7906 85.3659 81.9834C86.4848 84.0894 87.0159 86.4578 86.9035 88.8399ZM25.4711 64.9858C25.159 56.4414 53.2135 42.97 57.4527 46.3071C68.3273 59.3343 76.4958 82.3274 87.9901 109.27C87.8352 109.582 87.6803 109.869 87.5345 110.225C77.325 102.412 52.9994 84.7465 34.5143 78.562C30.2661 73.1862 25.7148 66.6031 25.4711 64.9858ZM38.4551 130.612C-1.49454 111.525 -1.2941 113.391 18.3914 83.3387C34.5485 76.8582 62.6235 99.7623 85.8602 115.897C85.6324 117.14 85.4616 118.516 85.35 119.958C76.4503 112.988 67.6166 125.106 69.8786 132.867C71.4982 137.017 82.1974 142.366 86.5459 136.284C88.5459 154.051 58.4504 138.732 38.4551 130.61V130.612ZM84.817 126.086C84.4519 128.788 83.3634 131.341 81.6667 133.475C80.4103 133.55 79.1534 133.337 77.9917 132.852C76.83 132.368 75.7941 131.625 74.9628 130.68C75.2714 127.967 76.4381 125.424 78.2931 123.421C80.6681 123.703 82.9224 124.623 84.817 126.083V126.086ZM91.8967 182.058C86.5937 183.368 80.7783 183.611 68.5483 170.318C58.2294 159.088 48.84 147.17 49.6623 141.389C74.9628 152.862 94.1381 153.883 92.2588 136.814C91.2383 127.703 90.2611 121.013 91.4821 115.733C92.3477 108.364 100.94 102.692 107.484 105.455C114.698 108.503 115.742 123.544 124.908 129.27C127.874 142.507 124.122 174.065 91.8967 182.056V182.058ZM140.013 133.521C126.209 124.464 122.657 120.669 118.441 109.507C122.835 103.004 131.653 89.2658 134.953 78.767C137.738 82.0206 141.396 84.408 145.495 85.6463C136.286 96.5665 148.912 112.812 161.741 115.455C153.732 120.49 146.426 126.564 140.013 133.518V133.521ZM168.179 110.903C153.862 112.147 138.837 91.0175 153.174 86.4025C155.639 85.6258 160.678 84.0495 160.277 81.4527C160.049 79.9447 158.101 79.3433 156.705 79.8991C145.315 84.849 131.448 70.7876 136.685 63.0541C141.145 56.5075 155.438 65.9835 166.912 55.0633C168.205 55.2891 169.509 55.4412 170.819 55.5189C165.952 73.5728 165.051 92.4663 168.179 110.901V110.903ZM296.793 145.213C301.674 155.179 329.506 199.322 308.488 212.727C284.474 223.714 249.119 234.012 231.319 211.773C235.802 212.928 245.524 213.636 245.59 209.399C245.585 209.032 245.504 208.67 245.352 208.336C245.2 208.001 244.981 207.702 244.708 207.456C244.436 207.21 244.115 207.023 243.767 206.907C243.418 206.79 243.05 206.747 242.684 206.78C237.599 207.149 232.489 206.615 227.591 205.204C225.894 201.058 224.788 196.695 224.306 192.242C230.187 193.951 240.479 194.705 240.752 190.823C240.757 190.463 240.689 190.105 240.552 189.771C240.414 189.437 240.211 189.135 239.954 188.882C239.697 188.629 239.391 188.431 239.056 188.299C238.72 188.167 238.361 188.104 238 188.115C233.342 188.38 228.674 187.808 224.217 186.427C224.306 164.056 257.219 169.404 255.556 154.136C249.718 122.931 284.517 154.962 296.793 145.213ZM272.419 136.785C263.536 131.881 251.18 133.899 249.606 145.063C230.472 153.851 171.415 149.68 172.304 100.232C177.807 98.2567 185.743 98.8102 192.7 101.318C193.921 101.774 196.008 102.229 197.005 101.407C204.153 95.5255 203.308 79.6805 197.183 73.3092C192.5 68.4277 184.689 65.3366 173.949 65.963C174.585 62.4453 175.461 58.9749 176.568 55.5758C185.245 55.0656 195.987 52.1134 208.948 45.1681C206.506 64.6327 233.007 61.2136 242.016 48.5645C243.309 51.5828 245.061 54.3828 247.21 56.8651C240.331 57.3207 239.153 61.0815 241.397 62.856C243.349 64.4095 245.59 61.5257 252.914 62.3229C260.993 68.7147 272.645 72.9766 283.141 71.6623C294.305 96.0539 301.084 122.421 272.422 136.78L272.419 136.785ZM183.691 72.3958C195.477 73.5712 199.96 87.6576 194.233 96.366C191.696 95.0288 188.949 94.1351 186.11 93.7237C185.689 86.4458 184.623 78.4094 183.691 72.3958ZM323.071 112.655C314.87 121.644 299.278 110.548 298.1 107.972C298.699 93.7236 292.752 79.3411 288.67 70.4208C291.881 69.3513 294.805 67.5589 297.214 65.1817C303.316 65.8964 309.498 65.0003 315.146 62.5826C322.713 69.5735 345.13 64.0701 335.588 78.5278C331.658 84.4754 321.692 88.7601 310.531 85.1201C310.185 85.0071 309.821 84.9634 309.459 84.9915C309.097 85.0196 308.744 85.1189 308.42 85.2838C308.096 85.4486 307.808 85.6758 307.572 85.9522C307.336 86.2286 307.157 86.5488 307.046 86.8945C306.134 91.7988 313.948 91.3114 316.877 91.9059C318.786 98.5847 328.307 106.885 323.071 112.655Z" fill="#001434"/>
<path d="M59.5827 69.5083C60.3595 66.8227 55.4552 56.1485 50.9267 56.7522C44.2457 57.6178 38.2298 62.3011 38.0977 66.0915C38.0088 68.0437 40.9382 73.5265 43.9108 76.4103C48.9746 80.0299 58.7832 72.0824 59.5827 69.5083ZM43.7377 66.0254C44.2913 64.4491 48.6876 61.7202 50.7491 62.317C51.6575 62.9678 52.4193 63.802 52.9851 64.7657C53.5509 65.7294 53.9082 66.8011 54.0338 67.9115C53.9472 70.0414 48.8402 72.7498 47.0224 71.8386C45.6238 71.1507 43.1591 67.5334 43.7377 66.0254Z" fill="#001434"/>
</svg>
