<svg width="485" height="485" viewBox="0 0 485 485" fill="none" xmlns="http://www.w3.org/2000/svg">
<path d="M126.86 88.859C124.103 89.538 121.627 93.9515 123.465 94.5917C124.765 95.0476 124.631 92.7148 127.466 91.6138C129.11 90.9736 128.628 88.4249 126.86 88.859Z" fill="#191919"/>
<path d="M130.023 99.425C130.969 98.3798 129.931 94.5289 128.164 95.7026C126.878 96.6969 128.396 101.232 130.023 99.425Z" fill="#191919"/>
<path d="M98.3849 116.885C98.7389 122.463 98.7389 128.059 98.3849 133.637C98.3849 135.051 100.245 135.092 100.567 133.637C101.253 128.187 101.477 122.69 101.237 117.203C105.425 116.308 108.793 111.625 110.115 108.732C110.794 109.666 111.807 110.303 112.943 110.511C114.079 110.719 115.252 110.483 116.218 109.85C117.465 108.696 116.517 107.134 114.952 107.692C113.74 108.121 112.77 107.391 112.125 106.295C111.271 104.859 110.26 99.4007 112.384 98.3847C114.385 97.4292 117.433 99.8397 117.894 97.7711C119.186 93.7191 119.468 89.4124 118.714 85.2266C125.88 85.2266 142.161 82.9374 143.449 68.7172C144.933 52.3194 93.4767 64.7038 85.268 75.8831C77.6705 86.2257 91.8883 112.889 98.3849 116.885Z" fill="#191919"/>
<path d="M135.458 107.211C137.823 107.044 138.126 104.995 137.823 102.892C136.905 97.0295 135.228 91.311 132.834 85.8809C132.727 85.646 132.534 85.4613 132.295 85.3652C132.055 85.2691 131.788 85.2689 131.548 85.3647C131.308 85.4605 131.115 85.6449 131.008 85.8797C130.9 86.1144 130.888 86.3815 130.972 86.6254C132.752 92.3888 134.231 98.241 135.402 104.158C135.492 104.607 135.533 104.568 135.068 104.624C133.167 104.852 130.262 103.758 130.46 107.621C130.431 108.53 130.487 109.439 130.628 110.337C128.692 110.693 126.693 110.286 125.05 109.202C123.661 108.273 122.722 109.445 123.076 111.065C123.449 112.764 124.36 114.299 125.675 115.439C126.99 116.579 128.638 117.263 130.373 117.391C130.373 119.644 130.261 122.176 127.706 122.845C124.706 123.216 121.666 123.109 118.699 122.53C117.661 122.338 116.941 123.864 117.991 124.39C118.946 124.861 119.97 125.176 121.025 125.321C121.265 128.512 121.757 131.679 122.494 134.793C122.518 134.947 122.574 135.093 122.657 135.224C122.741 135.355 122.851 135.467 122.98 135.553C123.11 135.639 123.256 135.697 123.409 135.723C123.562 135.75 123.719 135.744 123.869 135.707C124.02 135.669 124.161 135.601 124.284 135.505C124.407 135.41 124.508 135.291 124.582 135.154C124.656 135.017 124.701 134.867 124.713 134.712C124.726 134.557 124.706 134.402 124.655 134.255C124.206 131.464 123.649 128.503 123.37 125.564C125.241 125.789 127.139 125.63 128.947 125.098C132.67 123.682 132.929 120.146 132.67 116.722C132.67 115.902 132.67 114.748 131.181 114.991C131.181 114.991 128.387 115.774 125.93 112.032C127.38 112.658 128.97 112.889 130.538 112.701C134.057 112.272 132.975 111.132 132.975 107.415C133.79 107.234 134.625 107.165 135.458 107.211Z" fill="#191919"/>
<path d="M38.5581 148.493C38.7652 148.847 39.1043 149.104 39.5009 149.207C39.8974 149.311 40.319 149.253 40.6727 149.046C41.0264 148.839 41.2834 148.5 41.3871 148.103C41.4908 147.706 41.4327 147.285 41.2256 146.931C39.0431 143.56 36.201 142.35 33.7808 140.342C31.7856 138.315 30.1241 135.984 28.8581 133.436C27.5753 131.576 25.9651 132.061 26.8478 134.554C29.2073 141.172 32.2749 141.919 38.5581 148.493Z" fill="#191919"/>
<path d="M44.8745 130.254C44.2564 124.378 44.4695 118.444 45.5074 112.627C45.8809 110.474 44.792 110.093 43.645 112.108C41.7729 115.394 41.3922 126.704 42.6217 130.57C43.0242 131.838 44.9303 131.239 44.8745 130.254Z" fill="#191919"/>
<path d="M39.6825 137.047C36.8719 126.68 37.6746 122.547 38.6203 112.627C38.7319 111.455 37.1047 111.497 36.7603 112.404C34.0007 119.642 34.7306 130.55 37.3181 137.755C37.4692 137.988 37.692 138.166 37.9531 138.263C38.2142 138.359 38.4994 138.368 38.766 138.288C39.0325 138.208 39.2659 138.044 39.4312 137.82C39.5965 137.596 39.6846 137.325 39.6825 137.047Z" fill="#191919"/>
<path d="M51.3328 129.192C51.3413 124.881 51.7398 120.579 52.5234 116.339C52.9551 114.104 51.6504 112.767 50.4573 115.612C49.1169 119.923 48.581 124.444 48.8762 128.949C49.0605 131.92 51.3037 132.264 51.3328 129.192Z" fill="#191919"/>
<path d="M60.0797 146.613C60.589 139.076 56.3476 134.44 57.9409 122.419C58.1252 121.022 56.7284 119.929 55.95 122.419C53.4595 130.397 57.0048 139.809 57.8099 146.427C58.0597 148.49 59.8978 149.237 60.0797 146.613Z" fill="#191919"/>
<path d="M248.954 252.685C243.635 251.052 238.789 248.16 234.828 244.254C229.626 238.3 227.044 249.193 248.304 254.681C248.568 254.767 248.856 254.745 249.104 254.619C249.352 254.492 249.54 254.273 249.626 254.008C249.713 253.743 249.69 253.455 249.564 253.207C249.438 252.959 249.218 252.771 248.954 252.685Z" fill="#191919"/>
<path d="M244.506 256.703C239.719 255.188 235.123 253.127 230.807 250.561C230.08 250.122 228.065 250.803 229.728 252.607C233.87 255.861 238.792 257.972 244.004 258.73C246.664 258.772 246.759 257.292 244.506 256.703Z" fill="#191919"/>
<path d="M222.116 240.678C221.575 241.775 223.164 243.103 223.978 241.998C228.511 235.86 237.602 240.138 243.24 235.969C243.572 235.766 243.811 235.44 243.903 235.062C243.995 234.684 243.933 234.285 243.731 233.952C243.529 233.619 243.203 233.38 242.825 233.288C242.447 233.195 242.048 233.256 241.715 233.457C235.793 236.818 225.596 233.605 222.116 240.678Z" fill="#191919"/>
<path d="M230.006 234.517C231.478 234.35 232.155 233.518 231.606 232.657C230.811 231.401 227.659 232.104 226.029 232.359C222.823 232.844 219.785 232.635 219.683 234.09C219.501 236.581 226.562 234.91 230.006 234.517Z" fill="#191919"/>
<path d="M231.925 263.013C224.716 260.309 217.68 257.164 210.857 253.595C209.948 253.124 208.189 253.743 209.906 255.455C212.664 258.19 227.16 264.148 231.246 264.762C232.168 264.762 232.946 263.389 231.925 263.013Z" fill="#191919"/>
<path d="M241.397 260.724C235.819 259.194 233.152 259.041 227.574 255.847C226.345 255.142 225.077 256.839 226.289 257.707C230.644 260.815 235.83 262.545 241.179 262.676C241.393 262.633 241.589 262.523 241.737 262.362C241.884 262.201 241.977 261.997 242.002 261.78C242.026 261.562 241.98 261.343 241.872 261.153C241.763 260.963 241.597 260.813 241.397 260.724Z" fill="#191919"/>
<path d="M369.968 114.359C369.968 121.99 373.671 124.888 377.284 130.776C378.543 132.827 380.415 131.746 380.112 130.327C379.268 126.379 373.523 124.539 372.053 114.247C372.028 113.979 371.899 113.731 371.695 113.555C371.491 113.379 371.226 113.289 370.957 113.303C370.688 113.318 370.435 113.435 370.251 113.632C370.066 113.829 369.965 114.089 369.968 114.359Z" fill="#191919"/>
<path d="M387.075 110.766C387.838 104.34 384.88 93.6337 381.788 88.2284C381.649 87.9746 381.417 87.7847 381.141 87.6987C380.865 87.6128 380.566 87.6376 380.307 87.7679C380.049 87.8982 379.851 88.1237 379.756 88.397C379.661 88.6702 379.676 88.9697 379.797 89.2323C382.698 95.9897 384.198 103.265 384.208 110.618C384.162 112.908 386.788 113.22 387.075 110.766Z" fill="#191919"/>
<path d="M399.641 130.011C397.8 120.105 399.454 102.088 396.663 93.2534C396.275 92.0239 393.995 91.391 394.468 93.719C396.992 105.844 394.834 118.379 396.83 130.254C397.123 132.022 399.975 131.835 399.641 130.011Z" fill="#191919"/>
<path d="M392.452 111.659C393.754 107.825 391.353 94.2958 390.124 90.8329C388.895 87.37 386.552 87.1954 387.762 91.9508C389.343 98.3293 390.099 104.884 390.012 111.455C390.074 111.72 390.218 111.96 390.423 112.138C390.629 112.316 390.886 112.424 391.158 112.447C391.429 112.47 391.701 112.406 391.933 112.264C392.166 112.122 392.348 111.91 392.452 111.659Z" fill="#191919"/>
<path d="M374.342 93.1784C377.938 100.794 379.203 109.302 377.98 117.634C377.705 119.494 380.487 120.013 380.751 118.212C382.098 109.267 380.522 100.127 376.258 92.1502C376.121 91.8961 375.89 91.7066 375.614 91.6234C375.338 91.5402 375.04 91.57 374.786 91.7064C374.532 91.8427 374.342 92.0744 374.259 92.3505C374.176 92.6265 374.206 92.9243 374.342 93.1784Z" fill="#191919"/>
<path d="M358.299 86.7759C353.226 77.2602 340.354 76.0817 331.071 79.1444C322.121 82.0932 318.672 92.6589 318.042 101.311C317.46 109.28 317.901 121.788 320.275 128.299C321.113 131.108 322.761 133.607 325.012 135.485C327.263 137.362 330.018 138.533 332.931 138.853V145.4C332.969 145.672 333.104 145.921 333.311 146.101C333.518 146.281 333.783 146.38 334.058 146.38C334.332 146.38 334.597 146.281 334.804 146.101C335.011 145.921 335.146 145.672 335.184 145.4C335.427 143.218 335.463 141.009 335.594 138.812C340.022 138.327 346.407 134.735 347.561 130.065C347.646 129.82 347.632 129.551 347.523 129.316C347.413 129.082 347.216 128.899 346.974 128.807C346.732 128.714 346.463 128.72 346.225 128.823C345.987 128.926 345.798 129.117 345.699 129.356C341.754 137.844 325.542 140.356 321.672 123.309C319.732 110.791 318.534 90.7966 328.78 83.4052C334.231 79.4742 351.022 78.3126 356.01 88.226C358.181 93.6919 358.234 99.7711 356.158 105.274C354.871 104.889 353.486 104.996 352.273 105.573C351.06 106.15 350.103 107.156 349.589 108.397C348.934 109.549 350.503 110.708 351.286 109.627C356.757 102.027 359.665 118.114 353.983 118.243C353.297 118.26 350.765 117.202 350.765 119.213C350.765 120.255 351.844 120.944 352.792 121.187C352.597 128.062 353.477 134.926 355.399 141.53C355.487 141.817 355.683 142.058 355.947 142.2C356.211 142.343 356.52 142.377 356.808 142.294C357.096 142.211 357.34 142.018 357.487 141.756C357.634 141.495 357.672 141.186 357.594 140.897C356.226 134.398 355.38 127.801 355.064 121.167C361.001 119.79 360.499 110.633 358.433 107.284C359.919 105.591 362.606 94.8487 358.299 86.7759Z" fill="#191919"/>
<path d="M339.985 117.127C339.58 115.265 337.922 115.1 337.175 116.327C336.268 117.672 335.014 118.747 333.547 119.438C332.079 120.129 330.452 120.411 328.838 120.253C327.887 120.253 327.504 121.107 327.887 122.115C331.255 130.95 342.342 127.994 339.985 117.127ZM337.919 119.341C338.106 125.372 333.229 126.953 330.567 122.709C331.954 122.662 333.317 122.341 334.579 121.763C335.841 121.186 336.977 120.365 337.919 119.346V119.341Z" fill="#191919"/>
<path d="M334.029 110.859C335.889 110.731 335.726 105.352 333.527 105.91C331.754 106.361 331.851 111.009 334.029 110.859Z" fill="#191919"/>
<path d="M323.681 105.973C321.821 106.334 321.429 110.789 323.681 110.682C325.689 110.58 325.374 105.635 323.681 105.973Z" fill="#191919"/>
<path d="M337.318 98.855C332.71 97.5503 331.158 101.685 334.304 101.367C334.99 101.201 335.707 101.207 336.392 101.382C337.076 101.557 337.707 101.898 338.23 102.374C341.062 104.959 342.554 100.342 337.318 98.855Z" fill="#191919"/>
<path d="M324.89 98.9668C324.264 98.9687 323.648 99.116 323.09 99.3972C322.531 99.6783 322.046 100.086 321.672 100.587C320.629 101.758 321.672 103.099 322.508 102.316C322.837 101.935 323.257 101.645 323.73 101.472C324.202 101.3 324.711 101.251 325.207 101.331C326.733 101.46 327.404 98.962 324.89 98.9668Z" fill="#191919"/>
<path d="M331.815 117.263C332.858 116.936 333.154 115.255 331.815 115.27C330.496 115.295 329.178 115.17 327.887 114.899C328.445 111.715 329.66 107.445 328.838 107.025C327.337 106.264 325.612 113.466 325.43 114.732C324.861 118.694 331.202 117.452 331.815 117.263Z" fill="#191919"/>
<path d="M322.079 342.931C328.949 345.574 339.52 346.932 350.723 347.473C348.056 333.893 344.872 318.31 344.712 304.664C344.697 303.382 346.557 302.991 346.705 304.33C348.405 318.913 351.065 333.368 354.669 347.601C366.974 347.991 379.292 347.656 391.558 346.598C392.564 334.909 393.903 295.658 394.647 265.021C373.065 273.843 333.229 273.472 309.944 266.883C312.942 293.163 317.632 322.607 322.079 342.931Z" fill="#191919"/>
<path d="M108.323 308.778C105.986 309.104 103.618 309.155 101.269 308.928C109.136 325.05 115.893 341.69 121.493 358.733C129.738 386.016 137.091 438.932 137.557 447.847C140.2 449.26 165.25 448.555 171.412 447.847C171.412 441.854 175.076 374.279 173.272 349.634C172.302 336.495 166.967 296.386 162.793 266.345C134.746 274.777 97.6531 275.15 70.0882 263.944C72.227 298.098 75.9373 330.28 69.0818 349.113C59.1772 373.699 47.4437 397.508 33.9799 420.34C35.3961 422.11 53.5594 433.369 63.965 439.4C94.1151 396.963 111.495 371.726 117.177 356.371C112.276 339.95 106.007 323.97 98.434 308.598C95.3671 308.09 92.3566 307.286 89.4445 306.198C88.346 305.785 88.4066 303.743 90.1502 304.335C96.0482 306.241 102.233 307.104 108.427 306.886C109.664 306.855 109.907 308.55 108.323 308.778Z" fill="#191919"/>
<path d="M59.6555 439.41C59.4651 439.092 59.1564 438.863 58.7974 438.774C58.4384 438.684 58.0583 438.74 57.7409 438.931C57.4235 439.121 57.1948 439.43 57.105 439.789C57.0151 440.148 57.0716 440.528 57.262 440.845C57.4099 441.088 73.09 466.165 71.6423 467.736C69.7653 469.771 31.2806 445.171 27.9583 439.817C25.8437 436.407 31.8529 432.392 35.8687 427.088C36.8241 425.827 35.1945 423.822 33.8971 424.947C31.0024 427.563 28.4056 430.491 26.1541 433.677C21.0107 440.656 28.5573 445.142 33.4679 448.826C42.7782 455.748 52.561 462.011 62.7449 467.569C68.4364 470.707 78.5074 474.133 73.4149 463.25C69.4641 454.953 64.8632 446.981 59.6555 439.41Z" fill="#191919"/>
<path d="M195.613 462.69C187.475 458.015 178.994 453.962 170.245 450.565C170.044 450.48 169.827 450.437 169.609 450.437C169.391 450.436 169.174 450.48 168.973 450.564C168.772 450.649 168.589 450.772 168.436 450.928C168.283 451.084 168.163 451.269 168.082 451.472C168.001 451.675 167.962 451.892 167.966 452.11C167.971 452.329 168.018 452.544 168.107 452.744C168.195 452.943 168.323 453.123 168.482 453.273C168.641 453.423 168.828 453.539 169.032 453.616C175.654 456.229 182.156 459.136 188.52 462.326C191.393 463.762 201.547 468.357 192.669 468.581L142.175 469.81C136.331 469.939 136.355 469.027 137.502 463.537C138.358 459.744 139.605 456.051 141.225 452.517C141.855 451.091 139.59 449.736 138.788 451.142C136.837 454.621 135.445 458.386 134.665 462.297C132.24 473.998 137.253 472.943 146.446 472.756L194.184 471.694C201.716 471.503 201.639 466.837 195.613 462.69Z" fill="#191919"/>
<path d="M265.351 417.064C314.875 424.642 379.084 429.744 429.378 433.236C431.408 433.377 431.406 430.222 429.378 430.084C374.6 426.529 314.475 420.384 265.594 414.542C264.253 414.389 263.918 416.843 265.351 417.064Z" fill="#191919"/>
<path d="M455.399 70.0828C455.125 57.2594 453.975 34.3553 438.293 31.4453C437.007 31.2028 436.435 33.2931 437.643 33.6593C451.329 37.8158 451.657 58.3385 452.401 70.4199C452.411 70.4622 452.411 70.5061 452.401 70.5484C453.648 200.218 457.828 299.847 456.868 426.856C456.754 441.746 450.02 455.762 439.112 459.278C438.031 459.625 438.22 461.64 439.578 461.437C453.885 459.288 460.591 439.716 460.571 426.892C460.392 307.49 458.098 196.808 455.399 70.0828Z" fill="#191919"/>
<path d="M335.555 43.2234C328.593 44.5232 329.978 56.8034 336.45 56.1026C343.541 55.3266 343.354 41.7684 335.555 43.2234ZM335.89 46.2207C338.756 45.5344 339.731 51.4078 336.3 52.7343C333.625 53.7697 333.397 46.8173 335.89 46.2207Z" fill="#191919"/>
<path d="M261.851 75.8511C313.535 70.0311 367.926 62.1353 420.221 55.3768C422.415 55.0931 422.403 51.652 420.221 51.9333C367.669 58.7476 309.061 65.9813 261.442 72.8538C259.749 73.0987 260.159 76.0402 261.851 75.8511Z" fill="#191919"/>
<path d="M438.032 69.0569C437.824 42.0327 438.981 17.3292 403.134 22.8267C363.713 28.8698 323.007 36.6492 283.684 41.6059C249.753 45.8739 251.61 68.9284 251.783 98.4091C251.998 135.223 252.268 171.135 252.731 210.379C252.748 211.737 255.156 211.625 255.132 210.379C254.506 169.934 254.957 130.354 254.928 91.1487C254.908 64.9902 255.595 48.7427 284.297 44.6202C324.397 38.8584 364.421 32.0611 404.492 26.0083C430.847 22.0265 434.705 37.4179 434.904 61.1466C435.932 182.591 438.365 304.015 439.8 425.457C440.115 452.202 434.346 463.98 405.797 460.037C365.353 454.46 321.116 452.837 281.916 446.004C257.721 441.787 257.688 423.669 257.719 404.09C257.794 358.844 256.705 309.323 255.859 263.181C255.832 261.692 253.604 261.915 253.606 263.328C253.698 308.984 254.006 359.235 254.501 405.729C254.719 426.342 256.361 445.07 281.637 449.113C322.583 455.66 364.274 458.422 406.335 463.258C433.713 466.41 443.68 455.422 443.438 427.077C442.38 307.624 438.949 188.34 438.032 69.0569Z" fill="#191919"/>
<path d="M401.386 133.101C396.454 132.859 382.942 135.577 378.232 136.62C377.46 152.524 379.022 168.456 382.866 183.907C383.206 185.059 381.244 185.379 380.856 184.317C377.012 173.793 375.422 157.979 374.864 146.645C370.655 144.059 366.014 142.252 361.165 141.31C356.587 143.691 343.242 157.278 337.827 159.158C334.531 156.793 332.249 154.206 329.097 145.757C307.973 151.861 291.706 183.539 284.652 193.069C277.597 202.599 264.383 213.681 243.911 229.529C248.782 236.245 252.552 243.694 255.079 251.596C272.972 244.739 289.606 234.965 304.306 222.673C305.187 207.443 307.224 192.301 310.4 177.379C310.725 175.888 312.583 176.189 312.263 177.658C307.032 210.415 306.12 230.329 309.595 263.181C332.247 269.898 373.858 270.213 394.819 261.039C395.098 248.16 395.265 237.216 395.229 231.074C384.77 227.053 372.873 205.196 368.018 195.712C367.494 194.689 368.915 193.716 369.543 194.689C374.789 202.781 387.69 225.532 396.774 228.079C404.497 230.242 413.092 224.468 414.733 213.747C416.513 202.228 406.559 142.222 401.386 133.101Z" fill="#9683D7"/>
<path d="M179.345 197.637C173.525 187.845 153.771 140.739 126.655 136.627C115.5 141.913 100.729 142.621 95.6296 135.715C76.7946 139.765 66.8085 160.384 62.8072 177.415C62.4702 178.848 60.5544 178.606 60.9448 177.156C62.0551 171.364 63.771 165.706 66.064 160.273C65.4675 158.17 64.7036 155.304 63.5881 150.745C59.7081 149.683 44.3797 151.099 38.5548 152.326C36.0886 193.272 45.9899 219.68 51.9651 227.63C54.4871 230.986 61.2722 232.749 66.6121 232.237C66.854 209.364 69.9239 186.609 75.7519 164.49C75.8062 164.268 75.9465 164.077 76.1418 163.958C76.3371 163.84 76.5715 163.804 76.7934 163.858C77.0153 163.913 77.2065 164.053 77.325 164.248C77.4434 164.443 77.4795 164.678 77.4251 164.9C69.7355 196.381 68.1204 227.95 69.9804 260.127C89.4507 269.657 129.781 272.839 162.426 262.676C160.845 251.324 159.487 241.738 158.704 236.081C139.883 221.531 134.573 217.112 123.825 192.38C123.284 191.133 124.812 190.314 125.445 191.541C131.022 202.359 136.576 213.637 145.919 221.582C163.458 237.259 184.062 249.124 206.425 256.424C208.525 247.23 212.816 238.68 218.934 231.502C214.559 228.524 183.293 204.289 179.345 197.637Z" fill="#9683D7"/>
<path d="M293.565 353.744C267.043 353.744 271.234 405.528 295.02 407.067C322.081 408.821 317.687 353.744 293.565 353.744ZM290.236 367.295C291.642 363.296 296.34 363.255 297.681 367.741C298.425 370.234 298.76 379.728 297.475 382.277C297.097 382.843 296.579 383.302 295.972 383.61C295.364 383.917 294.687 384.062 294.007 384.03C293.327 383.998 292.667 383.791 292.091 383.429C291.514 383.066 291.042 382.561 290.719 381.961C289.247 379.316 289.145 370.387 290.236 367.295ZM295.185 391.676C295.297 393.834 295.185 395.9 295.484 398.17C295.782 400.44 292.916 400.2 292.574 398.451C292.287 396.143 292.194 393.814 292.295 391.489C284.365 389.908 283.48 380.092 284.217 374.366C284.348 373.343 286.283 373.195 286.339 374.366C286.615 380.186 285.985 387.396 293.597 388.431C301.209 389.467 301.442 378.998 301.34 373.896C301.301 371.924 303.663 372.036 303.765 373.896C304.095 380.64 304.175 390.968 295.185 391.676Z" fill="#9683D7"/>
<path d="M340.69 356.444C312.771 357.326 316.055 407.531 339.91 410.308C370.031 413.812 367.547 355.597 340.69 356.444ZM341.12 391.975C339.388 393.241 329.506 391.526 328.408 390.207C326.752 388.214 326.732 377.791 328.129 376.545C329.526 375.298 341.302 377.216 342.068 378.853C342.691 380.18 342.553 390.978 341.083 392.048L341.12 391.975ZM351.523 395.881C349.457 395.881 344.452 386.708 344.432 385.403C344.413 384.098 350.909 376.246 352.677 376.823C353.999 377.345 353.106 395.901 351.487 395.957L351.523 395.881Z" fill="#9683D7"/>
<path d="M389.084 359.514C362.057 358.364 361.293 413.443 390.18 413.834C417.41 414.19 418.434 360.765 389.084 359.514ZM404.475 386.613C404.866 387.879 404.604 392.385 402.986 393.556C399.895 394.628 396.511 394.475 393.529 393.129C392.714 392.416 393.044 388.551 393.1 387.935C393.422 384.925 382.864 385.18 383.181 387.692C383.499 390.205 383.327 392.12 382.604 392.608C381.559 393.311 376.088 393.612 374.655 392.067C373.738 389.915 373.562 387.519 374.153 385.255C379.178 376.062 401.849 377.679 404.509 386.613H404.475Z" fill="#9683D7"/>
<path d="M217.574 24.4922C216.405 23.6871 214.972 25.438 215.993 26.3546C218.519 28.6244 231.44 40.0147 234.604 41.2441C234.831 41.302 235.069 41.2932 235.291 41.2187C235.513 41.1442 235.708 41.0072 235.854 40.8242C235.999 40.6413 236.089 40.4201 236.111 40.1874C236.134 39.9547 236.089 39.7204 235.982 39.5127C234.195 36.7652 220.319 26.3886 217.574 24.4922Z" fill="#9683D7"/>
<path d="M253.897 28.6152C254.089 26.7576 249.974 15.0909 249.207 12.8333C249.078 12.5843 248.872 12.384 248.619 12.2625C248.366 12.141 248.08 12.1049 247.805 12.1596C247.53 12.2143 247.28 12.3569 247.093 12.5658C246.906 12.7748 246.792 13.0388 246.768 13.3183C246.79 16.2404 249.746 27.4633 251.831 29.3233C251.991 29.4855 252.194 29.5991 252.416 29.6512C252.638 29.7033 252.871 29.6917 253.086 29.6178C253.302 29.5438 253.493 29.4105 253.636 29.2332C253.78 29.0558 253.87 28.8416 253.897 28.6152Z" fill="#9683D7"/>
<path d="M227.159 61.4636C225.559 60.5882 211.824 62.0214 209.59 62.6179C209.324 62.707 209.094 62.881 208.936 63.1132C208.777 63.3453 208.7 63.623 208.714 63.9035C208.729 64.1841 208.835 64.4522 209.016 64.6667C209.198 64.8812 209.444 65.0304 209.719 65.0914C211.283 65.2612 225.595 64.9241 227.251 63.6582C227.436 63.5362 227.585 63.3687 227.686 63.1719C227.786 62.9751 227.834 62.7557 227.825 62.5349C227.816 62.3142 227.749 62.0995 227.633 61.9119C227.516 61.7242 227.353 61.5698 227.159 61.4636Z" fill="#9683D7"/>
</svg>
