<svg width="230" height="209" viewBox="0 0 230 209" fill="none" xmlns="http://www.w3.org/2000/svg">
<path d="M217.731 87.7685C204.116 85.8365 161.183 79.5943 160.344 79.5943C156.257 79.1861 152.578 82.2106 152.17 86.2988C150.863 99.5411 148.246 125.208 148.083 127.334L107.291 148.915L107.21 152.512L185.195 179.816L216.014 150.55L216.045 146.439C216.494 143.692 222.104 111.506 224.189 96.4349C224.824 91.8441 221.503 88.2239 217.731 87.7697V87.7685Z" fill="#FFE2DE"/>
<path d="M214.298 89.3221L162.881 81.9644C158.793 81.5562 155.118 84.5807 154.706 88.6689L150.946 125.781L213.237 143.356C213.237 143.356 217.897 112.481 220.594 97.9057C221.38 93.6622 218.314 89.804 214.301 89.3221H214.298Z" fill="white"/>
<path d="M203.261 146.708C203.135 146.668 196.145 143.511 150.781 131.095C150.131 130.917 149.474 131.013 148.901 131.258C147.838 131.831 132.626 139.824 131.57 140.333C130.546 140.826 130.638 142.303 131.734 142.703C132.875 143.12 186.585 161.096 187.893 161.586C188.547 161.831 189.365 161.668 189.855 161.178C191.364 159.921 201.387 150.779 203.67 148.915C204.451 148.278 204.234 147.013 203.261 146.708Z" fill="white"/>
<path d="M159.691 156.599C155.935 155.361 149.302 153.109 146.694 152.267C146.344 152.147 145.971 152.107 145.603 152.149C145.236 152.192 144.882 152.316 144.568 152.512C139.171 155.817 139.543 155.268 138.928 156.191C138.683 156.846 139.009 157.583 139.664 157.827C143.421 159.225 150.454 161.669 152.907 162.568C153.188 162.691 153.497 162.733 153.8 162.69C154.104 162.647 154.389 162.52 154.624 162.323C155.85 161.587 158.043 160.092 159.855 158.972C160.649 158.481 160.834 156.978 159.692 156.602L159.691 156.599Z" fill="white"/>
<path d="M216.339 146.056C216.231 145.948 216.085 145.888 215.933 145.888C215.78 145.888 215.634 145.948 215.526 146.056L184.484 175.314L108.722 148.646L148.352 127.679C148.487 127.608 148.588 127.486 148.633 127.34C148.678 127.194 148.663 127.036 148.592 126.901C148.52 126.767 148.398 126.666 148.253 126.621C148.107 126.576 147.949 126.591 147.814 126.662L107.023 148.243C106.924 148.295 106.842 148.375 106.788 148.473C106.734 148.571 106.709 148.683 106.718 148.794C106.726 148.906 106.767 149.013 106.835 149.101C106.903 149.19 106.995 149.257 107.101 149.294L184.143 176.414L184.295 179.598C184.33 180.341 185.479 180.313 185.443 179.544L185.281 176.143L216.338 146.87C216.446 146.762 216.507 146.616 216.507 146.464C216.507 146.311 216.446 146.165 216.338 146.057L216.339 146.056Z" fill="#5B5180"/>
<path d="M159.87 156.052C155.531 154.633 151.199 153.189 146.876 151.72C146.448 151.569 145.99 151.518 145.538 151.57C145.087 151.622 144.653 151.776 144.269 152.02C142.585 153.033 140.916 154.073 139.265 155.138C137.809 156.108 138.241 157.955 139.547 158.444C142.815 159.651 152.831 163.199 152.831 163.199C153.577 163.412 154.4 163.297 155.025 162.88C156.334 162.007 158.488 160.712 160.195 159.564C161.64 158.842 161.455 156.579 159.87 156.051V156.052ZM159.618 158.573C158.153 159.549 155.419 161.236 154.387 161.925C154.209 162.037 154.011 162.11 153.803 162.142C153.596 162.173 153.384 162.161 153.182 162.107C153.182 162.107 143.206 158.573 139.949 157.369C139.863 157.335 139.784 157.285 139.717 157.22C139.651 157.156 139.598 157.079 139.561 156.994C139.525 156.909 139.506 156.817 139.505 156.725C139.504 156.632 139.522 156.54 139.557 156.454C139.633 156.229 139.817 156.099 144.871 153.002C145.189 152.807 145.526 152.702 145.871 152.702C146.543 152.702 146.051 152.756 159.511 157.144C160.077 157.333 160.275 158.236 159.62 158.573H159.618Z" fill="#5B5180"/>
<path d="M131.477 140.226C129.902 141.013 130.221 143.096 131.704 143.653C132.851 144.062 187.397 162.288 187.855 162.451C188.786 162.779 189.695 162.538 190.387 161.946C191.04 161.402 202.402 151.329 204.241 149.567C205.27 148.58 204.909 146.732 203.425 146.238L150.983 130.72C150.601 130.575 150.191 130.517 149.784 130.551C149.376 130.584 148.981 130.709 148.628 130.915C146.849 131.871 132.58 139.632 131.477 140.226ZM156.339 138.974L150.607 142.886L143.545 140.599L149.795 136.947L156.339 138.974ZM163.362 135.66C163.436 135.61 163.372 135.622 170.062 137.591L165.855 140.829L158.956 138.598L163.362 135.661V135.66ZM182.143 147.152L177.448 151.308L169.874 148.914L174.759 144.833L182.143 147.152ZM194.544 156.712L187.975 154.634L192.684 150.462L199.275 152.532C197.712 153.941 196.135 155.334 194.544 156.712ZM186.698 154.23L178.727 151.712L183.423 147.553L191.404 150.059L186.698 154.23ZM168.573 148.502L160.949 146.093L166.096 142.113L173.453 144.423L168.572 148.502H168.573ZM164.749 141.679L159.576 145.661L151.979 143.312L157.737 139.41L164.749 141.678V141.679ZM154.059 149.973C151.402 149.091 148.748 148.199 146.098 147.298L150.758 144.14L158.43 146.554L154.059 149.973ZM142.049 140.116L137.01 138.537C139.003 137.323 141.228 136.109 143.397 134.952C143.515 135.014 143.573 135.017 148.251 136.467L142.048 140.116H142.049ZM132.006 141.246C133.229 140.579 134.468 139.944 135.724 139.342L140.713 140.902C135.949 143.704 135.866 143.727 135.749 143.84C134.529 143.428 133.313 143.005 132.1 142.57C131.552 142.365 131.343 141.577 132.007 141.245L132.006 141.246ZM137.186 144.314L142.215 141.376L149.396 143.701C144.836 146.765 144.855 146.731 144.767 146.846C144.767 146.846 138.626 144.784 137.186 144.314ZM155.368 150.409L159.798 146.983L167.479 149.399L163.063 153C161.774 152.569 156.61 150.824 155.37 150.409H155.368ZM164.35 153.433L168.791 149.812L176.424 152.213L172.128 156.017C170.884 155.595 165.674 153.882 164.349 153.433H164.35ZM173.385 156.439L177.705 152.616L185.698 155.131C181.216 159.194 181.445 159.037 181.33 159.08C179.783 158.539 174.335 156.755 173.387 156.439H173.385ZM189.645 161.065C189.226 161.424 188.71 161.532 188.24 161.365C187.76 161.195 184.028 159.985 182.584 159.507L186.97 155.531L193.548 157.6C191.667 159.313 190.42 160.42 189.646 161.065H189.645ZM203.081 147.333C203.457 147.458 203.629 147.824 203.676 147.944C203.802 148.694 203.481 148.634 200.211 151.67C200.079 151.553 200.586 151.736 193.705 149.557L197.926 145.815C199.367 146.229 203.081 147.333 203.081 147.333ZM196.621 145.434L192.427 149.152L184.466 146.63L188.501 143.058C190.631 143.699 195.937 145.235 196.622 145.435L196.621 145.434ZM187.208 142.665L183.186 146.226L175.849 143.942L180.08 140.518C181.989 141.069 187.208 142.666 187.208 142.666V142.665ZM178.731 140.128L174.529 143.53L167.208 141.25L171.427 137.985C172.708 138.353 177.593 139.798 178.731 140.127V140.128ZM161.98 135.197L157.557 138.145L151.126 136.152L155.797 133.362C157.415 133.858 161.979 135.197 161.979 135.197H161.98ZM150.007 131.69C150.314 131.69 150.082 131.645 154.298 132.91L149.594 135.677L144.816 134.196C145.767 133.695 148.725 132.166 149.187 131.918C149.449 131.769 149.724 131.691 150.007 131.691V131.69Z" fill="#5B5180"/>
<path d="M122.66 131.421C122.787 131.421 125.524 132.89 81.8685 109.84L77.7814 68.5588C77.2087 64.4717 73.3677 61.6163 69.2794 62.1821L12.0577 70.3563C7.97063 71.0106 5.18303 74.8539 5.84543 78.9399C11.0538 111.086 14.1013 129.213 14.1013 129.213V133.055L44.919 162.321L122.905 135.017C122.657 131.539 122.66 131.674 122.66 131.42V131.421Z" fill="#8675C0"/>
<path d="M98.3002 123.164C97.2284 122.608 82.0254 114.676 80.9697 114.091C80.6873 113.928 80.3726 113.829 80.0477 113.8C79.7228 113.772 79.3958 113.815 79.0895 113.927L26.6909 129.378C25.5903 129.723 25.3741 131.089 26.1182 131.748C27.1141 132.631 38.8763 143.267 39.8515 144.092C40.4276 144.578 41.1544 144.734 41.8134 144.5C43.0312 144.069 96.8282 125.944 97.9725 125.535C98.2991 125.454 98.5452 125.209 98.7085 124.881C99.1984 124.227 98.9488 123.501 98.3002 123.164Z" fill="white"/>
<path d="M90.4525 138.207L85.3844 135.1C85.0724 134.9 84.7186 134.774 84.3502 134.732C83.9819 134.689 83.6087 134.732 83.2592 134.856C80.6395 135.742 74.0178 137.949 70.2619 139.188C69.0142 139.599 69.1303 141.197 70.017 141.641C71.7339 142.785 74.0224 144.175 75.2483 144.992C75.7382 145.318 76.3903 145.394 77.0469 145.155C91.0148 140.058 90.4387 140.599 90.9435 139.842C91.2701 139.352 91.0252 138.534 90.4525 138.207Z" fill="white"/>
<path d="M75.2478 70.9294C74.6751 66.8423 70.8341 63.988 66.7459 64.5527L15.4903 71.9104C14.5188 72.0659 13.5875 72.4113 12.7495 72.927C11.9116 73.4426 11.1835 74.1183 10.6068 74.9154C10.03 75.7125 9.61607 76.6155 9.38848 77.5727C9.16089 78.5299 9.12414 79.5226 9.28035 80.494L16.6381 125.944L78.929 108.369C78.8163 107.253 75.249 71.9759 75.249 70.9294H75.2478Z" fill="white"/>
<path d="M122.93 130.913L82.1384 109.332C82.0717 109.297 81.9986 109.275 81.9234 109.268C81.8482 109.261 81.7723 109.268 81.7002 109.291C81.628 109.313 81.5609 109.349 81.5027 109.397C81.4445 109.445 81.3963 109.504 81.361 109.571C81.3257 109.638 81.3038 109.711 81.2967 109.786C81.2896 109.861 81.2974 109.937 81.3196 110.009C81.3418 110.082 81.378 110.149 81.4262 110.207C81.4743 110.265 81.5334 110.313 81.6002 110.349L121.229 131.314L45.4672 157.902L14.4264 128.724C14.3184 128.617 14.1723 128.557 14.0199 128.557C13.8675 128.557 13.7213 128.617 13.6134 128.724C13.5058 128.833 13.4454 128.979 13.4454 129.132C13.4454 129.284 13.5058 129.43 13.6134 129.539L44.6749 158.734L44.5092 162.21C44.4724 162.99 45.6224 163.016 45.6581 162.265L45.8134 158.998L122.851 131.962C122.956 131.925 123.049 131.858 123.117 131.769C123.185 131.68 123.226 131.573 123.234 131.462C123.242 131.35 123.218 131.239 123.164 131.141C123.109 131.043 123.028 130.963 122.929 130.911L122.93 130.913Z" fill="#5B5180"/>
<path d="M95.2529 121.115C95.2078 120.97 95.1068 120.848 94.972 120.777C94.8373 120.706 94.6798 120.691 94.5341 120.736L87.9504 122.811L81.638 119.145L86.4623 117.58C86.5348 117.557 86.6022 117.521 86.6604 117.472C86.7186 117.423 86.7665 117.363 86.8014 117.295C86.8363 117.228 86.8575 117.154 86.8636 117.078C86.8698 117.002 86.8609 116.926 86.8374 116.854C86.8139 116.781 86.7763 116.714 86.7267 116.657C86.6772 116.599 86.6167 116.552 86.5488 116.518C86.4809 116.483 86.4068 116.463 86.331 116.458C86.2551 116.452 86.179 116.462 86.1069 116.486L80.3063 118.368L74.6449 114.987C74.5139 114.909 74.3572 114.886 74.2092 114.923C74.0613 114.96 73.9342 115.055 73.856 115.186C73.7777 115.317 73.7547 115.474 73.7921 115.622C73.8294 115.769 73.9239 115.897 74.0549 115.975L78.8332 118.828L72.3863 120.822L67.2297 117.373C67.1669 117.329 67.0959 117.297 67.0207 117.281C66.9456 117.264 66.8679 117.263 66.7923 117.277C66.7166 117.291 66.6446 117.32 66.5804 117.362C66.5162 117.405 66.4611 117.459 66.4185 117.524C66.3758 117.588 66.3465 117.659 66.3322 117.735C66.3178 117.811 66.3188 117.888 66.335 117.964C66.3513 118.039 66.3824 118.11 66.4267 118.173C66.4709 118.236 66.5273 118.289 66.5926 118.33L70.989 121.27L64.0844 123.504L59.2521 119.766C59.1312 119.68 58.9813 119.643 58.834 119.665C58.6868 119.686 58.5535 119.764 58.4624 119.881C58.3713 119.999 58.3293 120.147 58.3453 120.295C58.3613 120.443 58.4341 120.579 58.5483 120.675L62.7642 123.92L55.4387 126.22L50.6007 122.228C50.5423 122.181 50.4751 122.145 50.4028 122.123C50.3305 122.101 50.2546 122.093 50.1794 122.1C50.1043 122.108 50.0313 122.13 49.9646 122.165C49.898 122.201 49.839 122.249 49.7911 122.308C49.7431 122.366 49.7071 122.433 49.6852 122.506C49.6632 122.578 49.6557 122.654 49.6631 122.729C49.6704 122.804 49.6925 122.877 49.7281 122.944C49.7637 123.01 49.8121 123.069 49.8704 123.117L54.13 126.632L46.8724 128.91L42.1114 124.772C42.0548 124.72 41.9883 124.68 41.9158 124.654C41.8434 124.628 41.7664 124.616 41.6895 124.621C41.6126 124.625 41.5374 124.645 41.4683 124.678C41.3991 124.712 41.3375 124.76 41.287 124.818C41.2366 124.876 41.1983 124.944 41.1745 125.017C41.1507 125.09 41.1419 125.168 41.1485 125.244C41.1551 125.321 41.1771 125.396 41.2131 125.464C41.2491 125.532 41.2984 125.592 41.3581 125.64L45.5867 129.314L37.5482 131.838L32.7205 127.477C32.6067 127.379 32.4591 127.329 32.3092 127.339C32.1593 127.348 32.019 127.416 31.9183 127.527C31.8177 127.639 31.7646 127.785 31.7705 127.935C31.7765 128.085 31.8409 128.227 31.95 128.33L36.2751 132.237L29.9547 134.222C29.8092 134.268 29.6879 134.369 29.6174 134.504C29.5468 134.64 29.5329 134.797 29.5787 134.943C29.6244 135.088 29.7261 135.21 29.8613 135.28C29.9965 135.351 30.1542 135.365 30.2997 135.319L37.2699 133.13L41.9998 137.3L35.431 139.372C35.359 139.394 35.2921 139.431 35.2343 139.479C35.1764 139.528 35.1287 139.588 35.0938 139.655C35.059 139.722 35.0376 139.795 35.0311 139.87C35.0245 139.945 35.0328 140.021 35.0555 140.093C35.0783 140.165 35.115 140.232 35.1635 140.29C35.2121 140.348 35.2716 140.395 35.3386 140.43C35.4056 140.465 35.4788 140.487 35.5541 140.493C35.6293 140.5 35.7051 140.491 35.7772 140.469L42.9888 138.172L47.9097 142.51C48.1454 143.031 49.0137 142.88 49.0137 142.209C49.0137 141.853 49.231 142.14 44.2665 137.765L52.2302 135.228L57.0487 139.532C57.1628 139.634 57.3124 139.686 57.4647 139.676C57.6169 139.667 57.7594 139.598 57.8606 139.484C57.9619 139.37 58.0137 139.221 58.0046 139.068C57.9956 138.916 57.9264 138.774 57.8123 138.672L53.5033 134.823L61.122 132.397L66.2188 136.601C66.2769 136.649 66.3439 136.686 66.416 136.708C66.4881 136.73 66.5639 136.738 66.6391 136.731C66.7143 136.725 66.7874 136.703 66.8542 136.668C66.921 136.632 66.9802 136.584 67.0284 136.526C67.0767 136.468 67.113 136.401 67.1354 136.329C67.1577 136.257 67.1657 136.181 67.1587 136.106C67.1518 136.031 67.1301 135.958 67.0949 135.891C67.0597 135.824 67.0117 135.765 66.9537 135.717L62.4342 131.989L70.1484 129.603L75.1428 133.507C75.2023 133.553 75.2704 133.587 75.3432 133.608C75.4159 133.628 75.492 133.633 75.5669 133.624C75.6419 133.615 75.7143 133.591 75.7801 133.554C75.8458 133.517 75.9036 133.467 75.9501 133.408C75.9966 133.348 76.031 133.28 76.0512 133.207C76.0714 133.134 76.077 133.058 76.0679 132.983C76.0587 132.909 76.0348 132.836 75.9977 132.77C75.9605 132.705 75.9107 132.647 75.8512 132.6L71.4467 129.194L79.1644 126.739L84.4095 130.339C84.4716 130.384 84.5422 130.417 84.6169 130.434C84.6917 130.451 84.7692 130.454 84.8448 130.441C84.9205 130.428 84.9927 130.4 85.0574 130.358C85.122 130.317 85.1777 130.263 85.2212 130.2C85.2646 130.136 85.295 130.065 85.3104 129.99C85.3259 129.915 85.3261 129.837 85.3112 129.762C85.2962 129.686 85.2663 129.615 85.2232 129.551C85.1801 129.488 85.1248 129.434 85.0604 129.392L80.5593 126.302L87.7894 124.044L93.6003 127.421C93.6656 127.459 93.7378 127.483 93.8127 127.494C93.8875 127.504 93.9637 127.499 94.0367 127.48C94.1098 127.46 94.1783 127.427 94.2384 127.381C94.2985 127.335 94.3489 127.278 94.3869 127.213C94.4249 127.147 94.4496 127.075 94.4597 127C94.4698 126.925 94.4651 126.849 94.4457 126.776C94.4264 126.703 94.3929 126.635 94.3471 126.574C94.3013 126.514 94.2441 126.464 94.1788 126.426L89.2786 123.58L94.8768 121.832C95.0224 121.787 95.1442 121.686 95.2153 121.551C95.2865 121.416 95.3012 121.259 95.2563 121.113L95.2529 121.115ZM43.2775 136.9L38.5487 132.731L46.5975 130.204L51.2723 134.379L43.2786 136.9H43.2775ZM52.5465 133.977L47.8729 129.803L55.1857 127.507L60.1296 131.585L52.5465 133.977ZM56.4944 127.096L63.874 124.779L69.0593 128.771L61.4383 131.174L56.4956 127.098L56.4944 127.096ZM65.1838 124.358L72.2046 122.087L77.9879 125.956L70.3588 128.361L65.1838 124.359V124.358ZM79.3932 125.512L73.6145 121.647L80.1626 119.621L86.4646 123.282L79.3932 125.512Z" fill="#5B5180"/>
<path d="M118.447 94.8422C120.737 81.9369 104.02 85.0867 99.0358 86.3793C97.0015 86.9072 94.9131 87.5224 92.9512 88.3389C92.0519 91.5267 90.044 97.9874 88.572 101.339C94.8038 104.465 100.466 104.72 104.022 109.269C105.821 111.557 107.373 114.01 109.499 116.053C109.99 116.625 111.134 117.77 112.033 117.361C113.854 116.505 111.134 111.024 111.134 110.576C112.846 113.389 113.844 115.052 116.202 117.28C116.61 117.606 117.346 118.261 117.919 118.016C118.41 117.771 118.41 116.953 118.41 116.462C118.41 114.909 118.083 113.438 117.511 112.048C117.402 111.723 117.215 110.925 117.053 110.28C117.329 110.636 117.649 111.151 117.756 111.312C118.736 112.62 119.823 113.825 120.862 115.073C122.703 117.284 123.578 116.558 123.15 114.419C122.824 112.538 122.333 110.74 121.597 109.024C121.597 108.942 120.697 106.98 120.779 106.98C120.942 106.899 122.086 108.616 122.168 108.697C123.102 110.212 124.14 111.66 125.274 113.031C126.337 114.093 126.991 113.603 126.991 112.213C127.092 105.772 122.467 99.5388 118.444 94.8433L118.447 94.8422Z" fill="#FFE2DE"/>
<path d="M92.7869 85.8548C93.2469 85.9629 93.5195 86.4367 93.3861 86.8852C92.588 89.5739 90.4041 97.2168 88.7711 100.935C88.5262 101.751 88.0006 102.483 87.4279 103.055C74.8389 110.985 39.0348 106.653 39.0348 106.653C39.0348 106.653 40.271 68.7831 41.651 69.4581C58.2835 77.584 87.4429 84.6036 92.7869 85.8548Z" fill="#D6CBFF"/>
<path d="M119.157 94.789C119.774 91.4482 119.101 88.7193 117.163 86.9368C112.668 82.8002 102.576 84.5011 99.0643 85.4119C97.0472 85.9351 95.0566 86.5492 93.0096 87.4014C92.8687 87.4601 92.7568 87.5724 92.6987 87.7135C92.6406 87.8547 92.6409 88.0131 92.6996 88.1541C92.7584 88.295 92.8706 88.4068 93.0118 88.4649C93.153 88.523 93.3114 88.5227 93.4523 88.464C95.4418 87.6348 97.375 87.038 99.353 86.5251C102.487 85.712 112.295 84.0215 116.384 87.7832C117.855 89.1367 118.446 91.0975 118.149 93.6206C117.459 92.8348 116.714 92.0988 115.92 91.4183C115.862 91.3696 115.795 91.3326 115.723 91.3096C115.652 91.2866 115.576 91.278 115.5 91.2843C115.425 91.2906 115.352 91.3117 115.285 91.3463C115.218 91.381 115.158 91.4285 115.109 91.4862C115.06 91.5439 115.023 91.6106 115 91.6826C114.977 91.7545 114.969 91.8303 114.975 91.9056C114.981 91.9809 115.003 92.0542 115.037 92.1213C115.072 92.1885 115.119 92.2482 115.177 92.2969C116.809 93.6781 119.631 97.0763 120.251 97.9423C122.136 100.273 126.509 106.329 126.417 112.213C126.417 112.778 126.293 113.006 126.278 113.03C126.278 113.03 126.082 113.025 125.719 112.665C122.306 108.52 121.572 105.939 120.522 106.466C120.43 106.512 120.352 106.581 120.296 106.666C120.098 106.966 120.136 107.054 120.763 108.507C122.27 112.01 122.893 115.411 122.63 115.84C122.506 115.845 122.022 115.566 121.296 114.695C120.282 113.478 119.184 112.259 118.234 110.992C118.034 110.684 117.385 109.547 116.876 109.377C116.644 109.3 116.326 109.377 116.176 109.57C115.897 109.93 116.134 110.299 116.325 110.595C116.525 110.905 116.398 110.653 116.725 111.549C117.306 113.148 117.835 114.415 117.835 116.461C117.835 117.29 117.727 117.467 117.692 117.485C117.552 117.546 117.21 117.345 116.662 116.91C114.826 115.456 112.831 112.256 111.626 110.276C111.324 109.782 110.56 109.997 110.56 110.575C110.56 110.673 110.56 110.774 110.846 111.442C111.22 112.376 112.711 116.407 111.796 116.837C110.529 117.419 105.757 110.544 104.476 108.913C100.831 104.249 95.1026 103.92 88.9915 100.904C88.8547 100.836 88.6967 100.826 88.5522 100.874C88.4077 100.923 88.2885 101.028 88.221 101.165C88.1534 101.301 88.143 101.459 88.1919 101.604C88.2409 101.748 88.3452 101.868 88.482 101.935C94.5506 104.929 100.191 105.3 103.571 109.623C105.348 111.884 106.952 114.401 109.064 116.427C109.735 117.212 111.046 118.44 112.279 117.881C113.362 117.372 113.358 115.982 113.075 114.646C114.097 116.018 115.474 117.429 115.938 117.805C116.613 118.351 117.376 118.876 118.177 118.53C118.986 118.126 118.986 117.044 118.986 116.462C118.986 115.373 118.831 114.281 118.527 113.217C119.154 113.978 119.807 114.704 120.414 115.431C121.447 116.671 122.3 117.19 123.027 116.918C123.774 116.638 124.007 115.759 123.719 114.319C123.518 113.137 123.237 111.969 122.88 110.823C123.486 111.689 124.149 112.56 124.871 113.435C126.227 114.792 127.569 114.229 127.569 112.22C127.669 105.804 123.304 99.6397 119.159 94.789H119.157Z" fill="#5B5180"/>
<path d="M110.89 105.916C112.356 104.521 114.569 105.017 113.669 107.96C112.852 110.167 111.626 112.292 110.154 114.172C109.663 114.908 108.691 116.2 107.784 115.726C106.974 115.303 107.054 113.847 107.211 113.028C107.725 110.335 108.921 107.788 110.89 105.916Z" fill="white"/>
<path d="M106.966 103.955C108.432 102.56 110.646 103.055 109.745 105.998C108.929 108.205 107.702 110.33 106.23 112.21C104.333 115.054 102.876 113.872 103.368 111.066C103.84 108.379 104.997 105.827 106.966 103.955Z" fill="white"/>
<path d="M103.205 101.584C104.666 100.264 106.884 100.848 105.903 103.79C105.003 105.997 103.783 108.046 102.224 109.839C101.653 110.495 100.761 111.785 99.8536 111.311C99.044 110.888 99.2085 109.433 99.3626 108.613C99.8847 105.839 101.229 103.367 103.205 101.583V101.584Z" fill="white"/>
<path d="M99.3633 99.2134C100.904 98.053 103.124 98.9684 101.898 101.748C100.826 103.798 99.4482 105.673 97.8108 107.307C97.2381 107.961 96.1824 109.015 95.3579 108.451C94.0124 107.532 95.3533 102.233 99.3633 99.2145V99.2134Z" fill="white"/>
<path d="M94.9474 108.921C93.8583 108.196 94.2286 106.348 94.3862 105.558C95.2268 102.654 97.0933 100.104 99.0402 98.7382C101.182 97.2352 103.838 98.8026 102.337 101.993C101.17 104.239 99.7728 106.065 98.0478 107.801C97.1485 108.706 96.0249 109.675 94.9485 108.92L94.9474 108.921ZM99.7015 99.6789C95.6328 102.818 94.8531 107.476 95.596 107.972C95.803 108.116 96.1813 108.045 97.3233 106.899C98.609 105.609 102.735 100.7 101.372 99.5409C101.001 99.2258 100.286 99.2856 99.7015 99.6789Z" fill="#5B5180"/>
<path d="M99.497 111.734C98.2619 111.048 98.631 108.852 98.7184 108.419C99.344 105.558 100.748 103.031 102.82 101.156C104.808 99.359 107.694 100.579 106.356 103.922C105.237 106.668 103.941 108.507 102.354 110.401C101.553 111.354 100.608 112.34 99.497 111.734ZM103.591 102.01C101.695 103.723 100.417 106.037 99.8431 108.654C99.6534 109.604 99.7477 110.558 100.051 110.727C100.401 110.917 100.933 110.286 101.71 109.379C103.21 107.621 104.419 105.633 105.288 103.491C105.652 102.584 105.646 101.882 105.272 101.62C104.931 101.381 104.204 101.455 103.591 102.011V102.01Z" fill="#5B5180"/>
<path d="M103.622 114.369C102.569 113.786 102.603 112.22 102.716 111.091C103.155 108.099 104.603 105.426 106.572 103.536C108.54 101.647 111.348 102.752 110.211 106.257C109.229 108.909 108.038 110.716 106.522 112.754C105.767 113.77 104.793 114.901 103.622 114.369ZM107.367 104.367C103.616 108.002 103.425 112.946 104.139 113.342C104.426 113.47 104.887 112.997 105.688 111.946C107.146 110.04 108.353 107.961 109.125 105.879C109.439 104.908 109.394 104.138 108.999 103.889C108.673 103.682 107.982 103.77 107.366 104.365L107.367 104.367Z" fill="#5B5180"/>
<path d="M107.545 116.331C106.493 115.748 106.526 114.181 106.639 113.052C107.078 110.061 108.527 107.388 110.495 105.498C112.45 103.62 115.261 104.704 114.221 108.205C113.345 110.662 111.892 113.07 110.355 114.909C109.59 115.824 108.649 116.832 107.546 116.331H107.545ZM111.291 106.328C107.535 109.969 107.351 114.907 108.063 115.304C108.389 115.449 108.979 114.787 109.721 113.874C111.194 112.076 112.347 110.037 113.127 107.847C113.418 106.864 113.352 106.107 112.936 105.852C112.594 105.641 111.908 105.728 111.29 106.328H111.291Z" fill="#5B5180"/>
<path d="M105.984 70.3599C105.851 70.3598 105.722 70.3135 105.62 70.229C105.517 70.1445 105.447 70.0269 105.421 69.8964C103.736 61.3669 100.352 46.6296 97.9355 40.9912C97.9016 40.9212 97.8823 40.8452 97.8787 40.7676C97.8751 40.6899 97.8872 40.6124 97.9144 40.5396C97.9416 40.4668 97.9832 40.4003 98.0368 40.3441C98.0904 40.2878 98.1549 40.243 98.2263 40.2124C98.2977 40.1817 98.3745 40.1659 98.4522 40.1658C98.5299 40.1657 98.6068 40.1813 98.6783 40.2117C98.7498 40.2422 98.8144 40.2868 98.8682 40.3429C98.9219 40.399 98.9638 40.4654 98.9912 40.5381C101.443 46.2582 104.853 61.0955 106.548 69.6733C106.564 69.7567 106.562 69.8428 106.541 69.9252C106.521 70.0077 106.482 70.0845 106.428 70.1501C106.374 70.2158 106.306 70.2687 106.229 70.3049C106.152 70.3412 106.068 70.36 105.983 70.3599H105.984Z" fill="#8675C0"/>
<path d="M115.876 64.0659C115.796 64.0659 115.717 64.0492 115.643 64.0167C115.57 63.9842 115.504 63.9367 115.45 63.8772C115.396 63.8177 115.355 63.7476 115.33 63.6714C115.305 63.5951 115.296 63.5144 115.304 63.4345C115.759 58.7736 117.966 35.2722 116.628 30.3709C116.609 30.298 116.603 30.2219 116.613 30.147C116.622 30.0721 116.647 29.9998 116.684 29.9342C116.722 29.8687 116.772 29.8111 116.831 29.7649C116.891 29.7186 116.959 29.6846 117.032 29.6648C117.105 29.6449 117.181 29.6396 117.256 29.6491C117.331 29.6587 117.403 29.6829 117.469 29.7204C117.534 29.7578 117.592 29.8079 117.638 29.8676C117.684 29.9273 117.718 29.9956 117.738 30.0684C119.093 35.0364 117.093 56.9485 116.448 63.5461C116.434 63.688 116.368 63.8197 116.262 63.9155C116.156 64.0114 116.019 64.0645 115.876 64.0647V64.0659Z" fill="#8675C0"/>
<path d="M122.17 73.3844C122.07 73.3843 121.972 73.3584 121.885 73.309C121.799 73.2597 121.726 73.1887 121.675 73.103C121.625 73.0173 121.597 72.9198 121.595 72.8202C121.593 72.7205 121.617 72.6221 121.665 72.5345C129.88 57.4419 131.003 53.1041 132.302 48.0809L132.65 46.7492C132.669 46.6763 132.702 46.6078 132.748 46.5478C132.794 46.4879 132.851 46.4375 132.916 46.3996C132.982 46.3616 133.054 46.337 133.128 46.3269C133.203 46.3168 133.279 46.3216 133.352 46.341C133.425 46.3603 133.494 46.3938 133.554 46.4396C133.614 46.4853 133.664 46.5425 133.702 46.6077C133.74 46.673 133.764 46.745 133.775 46.8198C133.785 46.8946 133.78 46.9707 133.76 47.0436C131.531 55.5329 130 59.6258 122.674 73.0854C122.625 73.1763 122.552 73.2522 122.463 73.305C122.374 73.3579 122.272 73.3857 122.168 73.3855L122.17 73.3844Z" fill="#8675C0"/>
<path d="M131.817 93.9818C130.51 92.3477 128.138 91.2839 126.994 90.6307C122.58 88.4239 116.448 87.1152 112.116 90.1397C110.644 91.039 109.79 92.5949 109.663 94.3084C109.602 95.1272 110.072 95.9426 110.808 96.352C112.115 96.7602 113.494 95.1031 114.487 94.635C115.522 94.1536 116.668 93.9578 117.804 94.0681C118.392 94.73 118.967 95.4024 119.53 96.0852C125.987 103.941 126.145 107.321 126.986 110.357C127.779 110.632 130.155 110.726 131.999 110.43L131.817 93.9795V93.9818Z" fill="white"/>
<path d="M187.168 93.1342C187.092 93.0579 186.999 92.9994 186.897 92.9628C186.795 92.9262 186.686 92.9125 186.579 92.9226C166.689 96.0621 132.46 92.8697 132.117 92.8363C132.038 92.829 131.959 92.838 131.883 92.8627C131.808 92.8875 131.739 92.9274 131.68 92.9801C130.542 91.8784 129.033 91.0711 127.978 90.5099C122.982 87.8419 116.477 86.3929 111.818 89.6474C107.455 92.3143 108.55 99.7513 113.866 95.7505C114.193 95.5044 114.5 95.2663 114.723 95.1605C115.599 94.7546 116.562 94.5709 117.526 94.6257C117.741 94.8649 118.325 95.5205 119.09 96.4508C124.634 103.197 125.461 106.58 126.126 109.299C126.228 109.714 126.327 110.115 126.436 110.511C126.461 110.6 126.507 110.683 126.571 110.75C126.634 110.818 126.714 110.87 126.802 110.901C127.965 111.303 130.595 111.223 131.98 111.017C132.036 111.238 132.226 111.767 132.361 111.925C141.947 123.396 176.202 129.994 177.654 130.269C177.795 130.296 177.941 130.269 178.064 130.193C178.186 130.118 178.275 130 178.315 129.862C184.997 106.391 187.978 94.0346 187.173 93.133H187.168V93.1342ZM127.455 109.886C126.187 105.038 125.409 102.11 119.335 94.9558C119.908 94.8465 119.97 94.0507 119.427 93.8518C117.831 93.2641 115.928 93.3205 114.23 94.1221C113.888 94.2831 113.542 94.5544 113.173 94.8327C109.181 97.8388 109.553 92.3821 112.446 90.6111C117.568 87.0369 124.68 90.1155 126.709 91.1286C127.894 91.8071 130.297 92.8927 131.474 94.4785C131.393 97.526 131.284 106.138 131.812 109.881C130.218 110.121 128.313 110.056 127.457 109.887L127.455 109.886Z" fill="#5B5180"/>
</svg>
