<svg width="181" height="181" viewBox="0 0 181 181" fill="none" xmlns="http://www.w3.org/2000/svg">
<path d="M132.553 77.5582C134.282 77.5003 136.039 73.1347 137.768 73.0759C138.806 73.0407 140.23 74.5149 137.768 77.3267C135.307 80.1385 130.122 90.4199 130.034 90.5538C129.946 90.6876 121.217 86.4631 119.516 85.7604C117.377 84.8813 113.48 81.8632 118.579 81.1307C118.579 81.1307 114.799 77.645 120.043 77.674C120.043 77.674 116.154 73.8402 121.537 74.2752C121.537 74.2752 118.783 70.4378 122.943 71.4335C124.606 71.8333 131.212 77.6043 132.553 77.5582Z" fill="#FFE2DE"/>
<path d="M139.767 74.0714C139.693 73.7561 139.548 73.4621 139.342 73.2123C139.136 72.9624 138.875 72.7634 138.58 72.6307C136.094 71.388 134.617 76.3388 132.647 77.0063C131.947 77.2396 129.616 75.438 127.91 74.1248C124.859 71.7824 122.105 69.7031 120.585 71.1258C119.6 72.0492 120.425 73.4248 120.722 73.8064C119.674 73.6256 118.614 73.7214 118.158 74.6014C117.671 75.5339 118.264 76.5088 119.027 77.293C118.609 77.2191 118.179 77.2724 117.792 77.4461C117.405 77.6198 117.079 77.9058 116.857 78.267C116.667 78.6984 116.629 79.1811 116.748 79.637C116.867 80.0928 117.137 80.4951 117.513 80.7786C117.132 80.8319 115.676 81.2199 115.607 82.601C115.521 84.2959 118.488 85.9392 120.247 86.7333C115.267 88.969 101.32 100.773 109.846 127.804H129.711C129.711 127.804 122.312 106.196 130.856 90.0289C130.889 89.9656 134.352 83.0252 136.132 80.7894C136.132 80.7903 140.148 75.8423 139.767 74.0714ZM112.26 114.209L110.618 112.335C110.55 112.255 110.506 112.158 110.493 112.054C110.48 111.95 110.497 111.844 110.544 111.751C110.59 111.657 110.663 111.578 110.753 111.526C110.844 111.473 110.947 111.448 111.052 111.454C111.121 111.458 111.188 111.477 111.25 111.508C111.312 111.539 111.367 111.582 111.412 111.635L113.065 113.51C113.157 113.617 113.203 113.756 113.193 113.897C113.183 114.038 113.118 114.169 113.012 114.262C112.959 114.308 112.898 114.343 112.831 114.365C112.765 114.387 112.695 114.396 112.625 114.391C112.555 114.386 112.487 114.368 112.425 114.337C112.362 114.305 112.306 114.262 112.26 114.209ZM119.405 91.6614L121.666 90.6023C121.791 90.5498 121.932 90.5476 122.059 90.5963C122.186 90.645 122.289 90.7408 122.346 90.8637C122.404 90.9863 122.413 91.1264 122.37 91.2551C122.328 91.3839 122.238 91.4914 122.118 91.5556L119.857 92.6255C119.73 92.6797 119.588 92.6826 119.458 92.6336C119.329 92.5847 119.224 92.4876 119.165 92.3628C119.106 92.2381 119.098 92.0953 119.142 91.9646C119.186 91.8338 119.279 91.7251 119.402 91.6614H119.405ZM114.15 101.7C114.235 101.589 114.361 101.516 114.501 101.498C114.57 101.489 114.64 101.494 114.707 101.513C114.774 101.531 114.836 101.563 114.891 101.605L116.862 103.143C116.95 103.21 117.015 103.303 117.047 103.409C117.079 103.515 117.077 103.629 117.04 103.734C117.003 103.838 116.935 103.928 116.844 103.992C116.753 104.055 116.644 104.088 116.534 104.086C116.269 104.086 116.336 104.113 114.235 102.444C114.18 102.401 114.133 102.347 114.099 102.286C114.065 102.225 114.043 102.158 114.035 102.088C114.026 102.019 114.032 101.948 114.051 101.881C114.07 101.814 114.102 101.751 114.146 101.696L114.15 101.7ZM119.739 121.568L117.228 121.462C117.124 121.459 117.022 121.426 116.937 121.366C116.851 121.306 116.785 121.222 116.747 121.124C116.709 121.027 116.7 120.92 116.722 120.818C116.744 120.716 116.796 120.622 116.871 120.549C116.973 120.452 117.109 120.399 117.249 120.402L119.771 120.508C119.872 120.515 119.969 120.552 120.051 120.613C120.132 120.675 120.194 120.758 120.229 120.854C120.264 120.95 120.27 121.053 120.248 121.153C120.225 121.252 120.174 121.343 120.102 121.414C120.005 121.51 119.875 121.565 119.739 121.568ZM121.556 110.896L120.592 113.196C120.55 113.291 120.483 113.373 120.396 113.431C120.31 113.489 120.208 113.521 120.104 113.524C120.017 113.524 119.932 113.502 119.856 113.461C119.74 113.399 119.651 113.296 119.607 113.173C119.562 113.049 119.566 112.913 119.617 112.792L120.581 110.482C120.609 110.418 120.649 110.361 120.7 110.313C120.75 110.264 120.81 110.227 120.875 110.201C120.94 110.176 121.009 110.164 121.079 110.166C121.148 110.167 121.217 110.183 121.281 110.211C121.408 110.265 121.507 110.367 121.558 110.496C121.583 110.559 121.596 110.627 121.595 110.695C121.594 110.763 121.58 110.83 121.553 110.893L121.556 110.896ZM124.036 98.1596L123.072 100.459C123.03 100.553 122.962 100.634 122.875 100.69C122.789 100.747 122.688 100.777 122.584 100.777C122.496 100.78 122.409 100.76 122.331 100.72C122.252 100.68 122.186 100.62 122.137 100.546C122.089 100.473 122.059 100.389 122.052 100.301C122.045 100.213 122.06 100.125 122.097 100.045L123.061 97.7463C123.122 97.6285 123.226 97.5381 123.351 97.4934C123.476 97.4486 123.613 97.4527 123.736 97.5048C123.857 97.557 123.955 97.6528 124.01 97.7734C124.065 97.8941 124.073 98.0308 124.032 98.1569L124.036 98.1596ZM135.306 80.131C133.452 82.4518 130.05 89.2656 129.902 89.5614C127.058 88.6668 124.293 87.5363 121.637 86.1816C119.157 85.1867 116.487 83.5524 116.658 82.7276C116.923 81.4388 118.935 81.816 119.371 81.9326C119.502 81.9695 119.643 81.9546 119.763 81.8909C119.884 81.8272 119.975 81.7197 120.019 81.5905C120.062 81.4613 120.054 81.3202 119.997 81.1966C119.94 81.0729 119.837 80.9761 119.71 80.926C119.286 80.7451 117.292 79.7213 117.803 78.7554C118.264 77.8808 120.102 78.4488 120.96 78.7771C121.083 78.8226 121.218 78.8211 121.339 78.7728C121.461 78.7245 121.56 78.6329 121.618 78.5157C121.676 78.3984 121.689 78.2639 121.653 78.138C121.618 78.012 121.537 77.9037 121.427 77.8338C120.432 77.2297 118.724 75.8097 119.095 75.0998C119.434 74.4432 121.49 74.9623 122.836 75.5872C122.959 75.6466 123.1 75.6558 123.23 75.6128C123.36 75.5698 123.467 75.4781 123.531 75.357C123.594 75.2359 123.608 75.0949 123.569 74.9639C123.53 74.8328 123.442 74.722 123.323 74.6548C122.571 74.2026 120.417 72.893 121.384 71.8258C122.115 71.019 125.209 73.394 127.263 74.9731C132.466 78.9698 133.021 79.0647 135.74 75.4254C136.735 74.1004 138.126 72.8451 138.724 74.2912C139.228 75.4959 135.306 80.131 135.306 80.131Z" fill="#5B5180"/>
<path d="M138.014 127.804H91.0745C86.2296 127.804 83.8627 130.499 82.2664 136.612C82.2664 136.612 76.84 156.154 75.401 163.175C74.4297 167.922 78.079 171.984 82.924 171.984H129.946C134.791 171.984 137.313 167.8 138.755 163.175C141.49 154.442 143.781 145.577 145.62 136.612C145.824 135.514 145.779 134.383 145.487 133.304C145.195 132.226 144.664 131.227 143.933 130.381C143.203 129.535 142.292 128.864 141.267 128.418C140.242 127.972 139.13 127.762 138.014 127.804Z" fill="#9683D7"/>
<path d="M113.496 152.404C113.962 152.411 114.425 152.326 114.858 152.153C115.291 151.979 115.686 151.722 116.018 151.394C116.35 151.067 116.614 150.677 116.795 150.247C116.975 149.817 117.068 149.355 117.068 148.889C117.068 148.422 116.975 147.961 116.795 147.53C116.614 147.1 116.35 146.71 116.018 146.383C115.686 146.056 115.291 145.798 114.858 145.625C114.425 145.452 113.962 145.366 113.496 145.374C112.573 145.389 111.694 145.765 111.047 146.423C110.399 147.081 110.037 147.966 110.037 148.889C110.037 149.811 110.399 150.697 111.047 151.355C111.694 152.012 112.573 152.389 113.496 152.404Z" fill="white"/>
<path d="M74.2931 166.976C74.4377 168.024 74.8581 169.016 75.5114 169.849C75.6436 170.002 75.7296 170.19 75.7593 170.39C75.789 170.59 75.7612 170.795 75.6791 170.98C75.597 171.165 75.464 171.322 75.2957 171.435C75.1273 171.547 74.9304 171.609 74.7281 171.614C69.0963 171.672 58.2678 171.602 55.209 171.58C54.9519 171.579 54.7041 171.483 54.513 171.311C54.3219 171.139 54.2008 170.902 54.1726 170.647C54.0476 169.442 54.0798 168.226 54.2684 167.029C54.319 166.797 54.4475 166.589 54.6326 166.44C54.8176 166.29 55.0482 166.209 55.2859 166.209C58.0679 166.179 69.875 166.058 73.2557 166.072C73.5083 166.073 73.752 166.165 73.9424 166.331C74.1328 166.497 74.2573 166.726 74.2931 166.976Z" fill="#9683D7"/>
<path d="M62.6567 166.648C57.5676 166.648 57.6155 166.723 57.3867 166.48C57.3378 166.427 57.3 166.365 57.2756 166.297C57.2512 166.228 57.2407 166.156 57.2447 166.084C57.2518 165.302 57.5561 164.553 58.0958 163.987C58.6355 163.422 59.3702 163.083 60.1506 163.04C60.9502 163.06 61.7114 163.386 62.2765 163.952C62.8417 164.518 63.1673 165.28 63.1858 166.08C63.191 166.152 63.1812 166.225 63.157 166.294C63.1328 166.363 63.0947 166.426 63.045 166.479C62.9954 166.532 62.9353 166.575 62.8685 166.604C62.8017 166.633 62.7296 166.648 62.6567 166.648ZM58.406 165.588H62.0182C61.9574 165.275 61.8163 164.984 61.6087 164.741C61.4011 164.499 61.1342 164.315 60.8341 164.207C60.534 164.1 60.2111 164.072 59.8969 164.126C59.5827 164.181 59.288 164.316 59.0418 164.519C58.7121 164.791 58.4873 165.169 58.406 165.588Z" fill="#5B5180"/>
<path d="M65.147 166.569C65.0382 166.567 64.9324 166.533 64.8434 166.47C64.7544 166.408 64.6866 166.32 64.6487 166.218C64.6241 166.15 64.6136 166.077 64.618 166.005C64.6023 165.408 64.7669 164.82 65.0904 164.318C65.4138 163.816 65.881 163.424 66.4311 163.191C66.9811 162.959 67.5885 162.898 68.1739 163.016C68.7592 163.134 69.2955 163.425 69.7125 163.853C69.9895 164.136 70.207 164.472 70.3522 164.841C70.4974 165.209 70.5674 165.603 70.5582 166C70.5639 166.072 70.5545 166.146 70.5306 166.214C70.5066 166.283 70.4686 166.347 70.4189 166.4C70.3693 166.453 70.3091 166.496 70.2421 166.525C70.1752 166.554 70.103 166.569 70.03 166.569H65.147ZM67.5962 164.018C67.1661 164.011 66.7474 164.157 66.4147 164.43C66.0821 164.703 65.8569 165.085 65.7792 165.508H69.3969C69.3163 165.089 69.0925 164.711 68.764 164.44C68.4354 164.168 68.0226 164.019 67.5962 164.018Z" fill="#5B5180"/>
<path d="M136.63 116.323C136.64 117.159 137.706 117.753 138.258 117.127C139.814 115.366 141.43 113.305 145.473 112.225C159.075 108.591 164.208 107.645 167.503 102.534C170.723 97.5416 169.174 85.8783 156.517 87.1092C144.465 88.2804 136.477 102.791 136.63 116.323Z" fill="#FFE2DE"/>
<path d="M153.643 98.9619C153.629 98.9684 153.613 98.97 153.598 98.9664C153.583 98.9625 153.569 98.9536 153.56 98.9411C153.55 98.9292 153.544 98.9142 153.544 98.8986C153.544 98.8823 153.55 98.8679 153.56 98.8552C154.326 97.9454 156.876 94.7247 155.068 94.2725C153.928 93.9876 148.409 99.6538 146.125 104.459C146.12 104.471 146.118 104.485 146.119 104.498C146.121 104.512 146.126 104.524 146.135 104.535C146.144 104.545 146.155 104.552 146.168 104.556C146.181 104.56 146.195 104.561 146.208 104.558C147.715 104.131 160.158 100.532 159.815 98.2266C159.547 96.4323 154.863 98.4138 153.643 98.9619Z" fill="#9683D7"/>
<path d="M97.8944 85.1766C98.0695 85.2331 98.2574 85.2368 98.4347 85.1874C98.6119 85.138 98.7708 85.0376 98.8914 84.8986C99.0121 84.7596 99.0892 84.5883 99.1133 84.4058C99.1373 84.2234 99.1072 84.0379 99.0267 83.8724C97.5796 80.8879 94.7606 76.8261 93.3542 67.2158C91.1547 52.1853 90.6943 46.0923 89.6036 41.5512C88.1122 35.3406 79.8124 17.8112 62.1817 24.0906C45.072 30.1845 51.9863 51.0557 55.2675 55.8491C60.9201 64.1055 69.3818 75.909 97.8944 85.1766Z" fill="#FFE2DE"/>
<path d="M79.6321 46.8151C79.6321 46.8151 83.7671 39.9904 81.4337 38.9014C79.4557 37.9789 78.8299 41.735 78.8299 41.735C78.8299 41.735 76.2921 38.3742 74.7103 39.6042C73.1285 40.8342 78.8407 46.8196 79.6321 46.8151Z" fill="#9683D7"/>
<path d="M65.9897 52.8647C65.9897 52.8647 57.7396 50.5874 58.3872 47.2211C58.8267 44.9357 63.1335 48.1436 63.1335 48.1436C63.1335 48.1436 62.562 44.2764 64.4079 44.2764C66.2538 44.2764 66.3415 50.667 65.9897 52.8647Z" fill="#9683D7"/>
<path d="M83.1101 59.8632C82.723 61.9506 79.3052 65.6858 74.3264 62.798C74.3264 62.798 72.0536 61.6666 69.5158 57.4158C69.4771 57.3486 69.4544 57.2733 69.4494 57.1959C69.4444 57.1185 69.4573 57.041 69.487 56.9693C69.5167 56.8976 69.5625 56.8338 69.6208 56.7826C69.6791 56.7314 69.7484 56.6943 69.8233 56.6742C71.8365 56.0908 78.342 54.1201 81.1394 51.9803C81.2012 51.9335 81.2729 51.9015 81.3491 51.8868C81.4252 51.8722 81.5037 51.8752 81.5785 51.8956C81.6533 51.9161 81.7224 51.9534 81.7805 52.0048C81.8386 52.0562 81.8841 52.1202 81.9135 52.1919C82.5168 53.5802 83.6401 57.0106 83.1101 59.8632Z" fill="#5B5180"/>
<path d="M73.5785 62.2967C73.5785 62.2967 75.9209 57.2845 83.1743 59.4542C83.0749 60.4638 82.6605 61.4167 81.9899 62.1781C81.3193 62.9394 80.4264 63.4707 79.4373 63.6968C78.4209 63.9632 77.3545 63.9748 76.3325 63.7306C75.3106 63.4864 74.3646 62.9939 73.5785 62.2967Z" fill="#9683D7"/>
<path d="M133.651 62.8361C133.725 62.9981 133.843 63.1359 133.992 63.2338C134.141 63.3317 134.314 63.3857 134.492 63.3896C134.67 63.3943 134.846 63.3493 134.999 63.2594C135.153 63.1696 135.278 63.0387 135.361 62.8813C137.012 59.6761 141.24 52.9581 148.69 50.4429C158.458 47.1436 165.571 43.6905 169.703 38.756C175.316 32.0507 178.667 18.4655 167.505 11.9618C157.711 6.25497 143.74 9.64743 135.864 21.2773C129.408 30.8108 127.845 50.1462 133.651 62.8361Z" fill="#FFE2DE"/>
<path d="M156.982 31.9528C157.742 31.9528 158.47 31.6509 159.008 31.1136C159.545 30.5763 159.847 29.8475 159.847 29.0876C159.847 28.3277 159.545 27.5989 159.008 27.0616C158.47 26.5243 157.742 26.2224 156.982 26.2224C156.222 26.2224 155.493 26.5243 154.956 27.0616C154.418 27.5989 154.116 28.3277 154.116 29.0876C154.116 29.8475 154.418 30.5763 154.956 31.1136C155.493 31.6509 156.222 31.9528 156.982 31.9528Z" fill="#9683D7"/>
<path d="M145.857 35.0007C146.783 35.7912 149.3 37.8867 152.411 40.0655C152.505 40.1328 152.621 40.161 152.735 40.1441C152.85 40.1273 152.953 40.0666 153.023 39.975C153.872 38.8237 156.393 35.046 154.433 33.2082C151.296 30.2679 147.137 33.2715 145.862 34.3333C145.813 34.3737 145.773 34.4244 145.746 34.4819C145.718 34.5393 145.704 34.6021 145.703 34.6657C145.703 34.7294 145.716 34.7924 145.743 34.8503C145.769 34.9081 145.808 34.9595 145.857 35.0007Z" fill="#9683D7"/>
<path d="M146.448 27.0744C145.784 26.6469 145.106 26.2424 144.414 25.8616C144.721 25.3009 145.07 24.6904 145.461 24.0456C145.501 23.9861 145.528 23.9192 145.541 23.849C145.555 23.7788 145.554 23.7066 145.539 23.6368C145.515 23.5317 145.461 23.4363 145.382 23.3631C145.303 23.29 145.203 23.2425 145.097 23.2271C144.99 23.2117 144.881 23.2291 144.785 23.2769C144.689 23.3247 144.609 23.4007 144.557 23.4948C144.184 24.11 143.824 24.7332 143.479 25.3642C142.817 25.0212 142.139 24.7091 141.448 24.429C141.318 24.3835 141.175 24.3905 141.05 24.4485C140.925 24.5065 140.828 24.611 140.778 24.7398C140.729 24.8685 140.732 25.0114 140.786 25.1381C140.84 25.2648 140.942 25.3654 141.069 25.4185C141.082 25.4185 141.83 25.7169 142.978 26.2994C142.603 27.0086 142.252 27.7301 141.926 28.4627C141.888 28.5581 141.878 28.6626 141.898 28.7634C141.919 28.8642 141.968 28.9568 142.04 29.03C142.112 29.1031 142.204 29.1536 142.305 29.1753C142.405 29.1969 142.51 29.1888 142.606 29.1519C142.734 29.1036 142.839 29.0073 142.898 28.8833C142.903 28.8706 143.26 28.0485 143.915 26.7959C145.872 27.873 145.848 28.0485 146.163 28.0485C146.277 28.0472 146.387 28.0094 146.478 27.9407C146.569 27.872 146.635 27.776 146.668 27.6668C146.699 27.5575 146.694 27.4412 146.655 27.3347C146.615 27.2282 146.543 27.137 146.448 27.0744Z" fill="#5B5180"/>
<path d="M118.008 38.756C117.93 38.756 117.853 38.739 117.783 38.7061C117.712 38.6732 117.65 38.6253 117.6 38.5657C117.55 38.5061 117.514 38.4363 117.494 38.3612C117.474 38.2861 117.471 38.2075 117.485 38.131C117.501 38.0406 119.118 28.84 115.85 20.3638C115.799 20.2326 115.803 20.0867 115.86 19.9582C115.917 19.8297 116.023 19.7292 116.154 19.6787C116.285 19.6282 116.431 19.6319 116.56 19.689C116.688 19.746 116.789 19.8518 116.839 19.983C120.217 28.7441 118.598 37.9338 118.528 38.3209C118.506 38.4429 118.442 38.5534 118.347 38.6329C118.252 38.7124 118.132 38.756 118.008 38.756Z" fill="#9683D7"/>
<path d="M111.743 31.2717C111.61 31.2718 111.481 31.2213 111.383 31.1303C111.285 31.0394 111.226 30.9147 111.216 30.7815C110.374 23.3179 107.917 16.1271 104.016 9.70858C103.977 9.64975 103.95 9.5836 103.937 9.51412C103.924 9.44464 103.925 9.37327 103.941 9.30431C103.957 9.23569 103.986 9.17084 104.026 9.11346C104.067 9.05608 104.119 9.00731 104.178 8.96993C104.238 8.93255 104.305 8.90729 104.374 8.89561C104.443 8.88393 104.514 8.88605 104.583 8.90185C104.652 8.91843 104.716 8.94858 104.773 8.99052C104.83 9.03245 104.878 9.08533 104.914 9.14604C108.903 15.7121 111.414 23.0681 112.273 30.7028C112.279 30.7757 112.269 30.849 112.245 30.918C112.221 30.987 112.182 31.0501 112.132 31.1034C112.082 31.1568 112.022 31.1993 111.955 31.2283C111.888 31.2572 111.816 31.272 111.743 31.2717Z" fill="#9683D7"/>
<path d="M109.072 40.5728C108.968 40.5725 108.865 40.5412 108.778 40.483C108.691 40.4247 108.623 40.3421 108.583 40.2454C108.531 40.1179 103.21 27.4506 94.4643 21.8351C94.4058 21.7975 94.3552 21.7486 94.3155 21.6914C94.2759 21.6343 94.2478 21.5698 94.233 21.5018C94.2183 21.4338 94.217 21.3635 94.2294 21.295C94.2418 21.2265 94.2675 21.1611 94.3052 21.1025C94.3428 21.044 94.3916 20.9934 94.4488 20.9537C94.506 20.914 94.5705 20.886 94.6385 20.8712C94.7065 20.8564 94.7768 20.8552 94.8453 20.8676C94.9138 20.88 94.9792 20.9057 95.0377 20.9434C104.065 26.7407 109.342 39.3084 109.563 39.8402C109.595 39.921 109.607 40.0084 109.599 40.095C109.59 40.1816 109.561 40.2648 109.513 40.3376C109.464 40.4097 109.399 40.4688 109.322 40.5098C109.245 40.5508 109.159 40.5724 109.072 40.5728Z" fill="#9683D7"/>
<path d="M158.092 61.1754C157.986 61.1749 157.884 61.143 157.796 61.0838C157.709 61.0245 157.642 60.9407 157.602 60.8429C157.563 60.7451 157.553 60.6378 157.575 60.5347C157.597 60.4316 157.649 60.3373 157.725 60.2638C160.208 58.128 163.089 56.5028 166.201 55.481C169.313 54.4593 172.596 54.0611 175.863 54.3091C175.967 54.3166 176.067 54.3548 176.15 54.4188C176.233 54.4829 176.295 54.57 176.329 54.6692C176.363 54.7685 176.367 54.8755 176.34 54.9768C176.313 55.0781 176.257 55.1693 176.178 55.2389C176.126 55.2848 176.064 55.3197 175.998 55.3416C175.932 55.3635 175.862 55.3719 175.792 55.3664C169.499 54.9363 163.285 56.9661 158.459 61.028C158.36 61.1226 158.229 61.1754 158.092 61.1754Z" fill="#9683D7"/>
<path d="M84.1409 103.536C83.4237 102.115 83.6887 99.7948 84.7198 98.0656C81.4295 96.9532 79.523 98.5965 78.5462 101.081C78.5239 101.15 78.4876 101.213 78.4397 101.268C78.3918 101.322 78.3332 101.366 78.2677 101.397C78.2021 101.428 78.1309 101.445 78.0585 101.448C77.986 101.45 77.9139 101.437 77.8464 101.411C77.779 101.384 77.7178 101.344 77.6664 101.293C77.6151 101.242 77.5748 101.181 77.548 101.113C77.5212 101.046 77.5085 100.974 77.5106 100.901C77.5127 100.829 77.5297 100.758 77.5604 100.692C79.0762 96.8428 82.106 95.8082 85.3556 97.1838C86.7592 95.412 88.711 94.1559 90.9051 93.6122C97.0759 92.4266 98.6595 96.9206 98.674 96.9658C98.6963 97.0317 98.7053 97.1014 98.7007 97.1708C98.696 97.2402 98.6778 97.3081 98.6469 97.3704C98.616 97.4328 98.5732 97.4884 98.5208 97.5342C98.4684 97.58 98.4075 97.6151 98.3416 97.6373C98.2757 97.6596 98.206 97.6687 98.1366 97.664C98.0672 97.6594 97.9994 97.6411 97.937 97.6102C97.8747 97.5794 97.819 97.5365 97.7732 97.4842C97.7274 97.4318 97.6924 97.3709 97.6701 97.305C96.5007 93.9116 90.2892 92.9909 86.326 97.6667C88.3157 98.7973 89.8822 100.613 90.1028 102.026C90.3669 103.725 89.5195 105.491 88.0444 105.813C86.2057 106.211 85.0336 105.308 84.1409 103.536ZM85.6884 98.516C83.3053 102.432 86.1469 105.274 87.7206 104.801C89.3956 104.298 89.78 100.381 85.6884 98.516Z" fill="#D6CBFF"/>
<path d="M19.3629 64.1691C19.5827 61.6648 32.9843 57.7478 36.942 57.6067C36.942 57.6067 47.445 76.9141 48.4697 88.5449C48.4697 88.5449 34.7298 95.4185 31.8285 94.8143C30.0576 94.449 19.2173 65.8197 19.3629 64.1691Z" fill="white"/>
<path d="M39.7947 75.0664C39.7947 75.0664 33.2287 73.8608 33.2911 73.0767C33.3535 72.2926 38.8505 71.4949 43.3979 71.8756C47.9453 72.2564 50.9281 74.4243 49.2287 76.8852C49.2287 76.8852 52.2503 78.1948 49.9025 80.7823C49.9025 80.7823 52.8871 82.1986 50.4587 85.2257C50.8012 85.4563 51.0893 85.7588 51.3029 86.1122C51.5165 86.4655 51.6505 86.8612 51.6955 87.2716C51.7405 87.6821 51.6955 88.0974 51.5636 88.4886C51.4317 88.8799 51.2161 89.2377 50.9317 89.537C50.9317 89.537 50.957 92.2331 51.7357 93.2578C49.5001 94.5832 46.8319 94.9732 44.3105 94.3431C43.4495 93.4945 42.8633 92.4067 42.6282 91.2209C42.3931 90.035 42.5198 88.8059 42.9918 87.6929C42.9918 87.6929 36.197 87.4831 36.1183 85.7295C36.0595 84.3638 41.6407 83.9134 41.6407 83.9134C41.6407 83.9134 34.0815 82.7123 34.1403 81.4226C34.2 80.1004 39.6482 79.4013 39.6482 79.4013C39.6482 79.4013 32.0602 78.3295 32.0602 77.4116C32.0629 76.0052 39.7947 75.0664 39.7947 75.0664Z" fill="#FFE2DE"/>
<path d="M43.3514 94.7592C47.008 94.7929 50.6335 94.0852 54.0091 92.6791C54.2543 92.5659 54.5335 92.5511 54.7893 92.6378C55.0451 92.7245 55.2579 92.9059 55.3838 93.1448C57.52 97.3241 66.0649 115.314 61.9471 128.266C58.239 139.933 49.7203 149.278 39.5176 150.818C39.3482 150.842 39.1754 150.825 39.0141 150.768C38.8528 150.71 38.7078 150.615 38.5915 150.489C33.5627 144.917 30.4925 137.855 29.8485 130.377C29.8341 130.177 29.8776 129.976 29.9738 129.8C30.07 129.623 30.2149 129.478 30.3912 129.382C32.3881 128.297 38.9189 124.219 41.2007 116.317C43.3985 108.704 42.665 99.2171 42.3105 95.9187C42.2938 95.7724 42.3084 95.6242 42.3532 95.484C42.398 95.3437 42.4721 95.2146 42.5704 95.105C42.6688 94.9955 42.7892 94.908 42.9239 94.8484C43.0585 94.7888 43.2042 94.7584 43.3514 94.7592Z" fill="#D6CBFF"/>
<path d="M31.1699 69.1696C30.4463 68.6215 28.2161 63.9077 28.9088 62.4172C29.5202 61.0941 35.0516 59.4489 36.2834 60.1879C37.3615 60.8381 38.9913 65.0717 38.9895 66.4003C39.0068 66.559 38.981 66.7195 38.9147 66.8648C38.8485 67.0101 38.7444 67.1349 38.6132 67.226C38.1284 67.5145 32.0888 69.8579 31.1699 69.1696ZM31.7632 68.2751C32.626 68.3412 37.0359 66.8199 37.9322 66.3867C37.9792 65.4145 36.3612 61.4757 35.7299 61.0941C34.9738 60.7061 30.2582 62.1242 29.8657 62.8622C29.484 63.7033 31.1409 67.5778 31.7632 68.2751Z" fill="#9683D7"/>
<path d="M55.4202 113.16C55.3296 113.159 55.2406 113.135 55.1616 113.091C55.0827 113.046 55.0165 112.982 54.9693 112.905C54.9221 112.827 54.8954 112.739 54.8919 112.649C54.8883 112.558 54.908 112.468 54.949 112.387L56.0949 110.17C56.1258 110.106 56.1691 110.05 56.2222 110.003C56.2753 109.957 56.3372 109.922 56.4041 109.9C56.4711 109.878 56.5417 109.87 56.612 109.875C56.6822 109.881 56.7506 109.901 56.813 109.934C56.8755 109.966 56.9309 110.01 56.9761 110.064C57.0212 110.118 57.0552 110.181 57.0759 110.248C57.0967 110.315 57.1039 110.386 57.0972 110.456C57.0904 110.526 57.0697 110.594 57.0364 110.656L55.8932 112.871C55.849 112.958 55.7813 113.032 55.6977 113.083C55.6142 113.134 55.5181 113.16 55.4202 113.16Z" fill="#5B5180"/>
<path d="M48.524 116.308C48.2391 116.308 48.3277 116.321 46.3271 114.479C46.2759 114.432 46.2344 114.375 46.2051 114.312C46.1758 114.249 46.1592 114.181 46.1563 114.111C46.1534 114.041 46.1643 113.972 46.1882 113.907C46.2122 113.841 46.2488 113.781 46.2959 113.73C46.3431 113.679 46.3999 113.637 46.463 113.608C46.5262 113.579 46.5945 113.562 46.6641 113.559C46.7337 113.556 46.8032 113.567 46.8686 113.591C46.934 113.615 46.994 113.651 47.0452 113.699L48.883 115.388C48.9615 115.46 49.0163 115.555 49.0403 115.659C49.0643 115.762 49.0564 115.871 49.0176 115.971C48.9788 116.07 48.911 116.155 48.8229 116.216C48.7348 116.276 48.6306 116.308 48.524 116.308Z" fill="#5B5180"/>
<path d="M54.5546 125.598C54.4376 125.596 54.3245 125.556 54.2327 125.483C54.141 125.411 54.0758 125.31 54.0472 125.196C54.0186 125.083 54.0283 124.963 54.0748 124.856C54.1212 124.749 54.2018 124.66 54.3041 124.603L56.5054 123.422C56.6285 123.36 56.7705 123.35 56.9014 123.392C57.0322 123.433 57.1416 123.525 57.2063 123.646C57.2712 123.767 57.2867 123.909 57.2494 124.041C57.2121 124.173 57.1251 124.286 57.0065 124.355C54.627 125.623 54.7382 125.598 54.5546 125.598Z" fill="#5B5180"/>
<path d="M44.7071 128.263C44.5959 128.263 44.4875 128.228 44.3972 128.164C44.3069 128.099 44.2394 128.007 44.2043 127.901L43.4165 125.532C43.3919 125.465 43.3809 125.394 43.3843 125.323C43.3876 125.252 43.4053 125.182 43.4361 125.118C43.467 125.054 43.5104 124.997 43.5638 124.95C43.6173 124.903 43.6796 124.867 43.7471 124.845C43.8147 124.823 43.886 124.814 43.9569 124.82C44.0278 124.826 44.0968 124.846 44.1598 124.879C44.2228 124.912 44.2785 124.957 44.3236 125.012C44.3687 125.067 44.4022 125.131 44.4222 125.199L45.21 127.569C45.2357 127.648 45.2424 127.732 45.2293 127.815C45.2163 127.898 45.184 127.976 45.135 128.044C45.086 128.111 45.0217 128.166 44.9473 128.205C44.873 128.243 44.7907 128.263 44.7071 128.263Z" fill="#5B5180"/>
<path d="M52.7354 135.3L50.203 135.073C50.0631 135.06 49.9341 134.992 49.8441 134.884C49.7541 134.776 49.7104 134.637 49.7227 134.497C49.7404 134.36 49.8094 134.233 49.9161 134.144C50.0228 134.055 50.1592 134.01 50.298 134.017L52.7842 134.243C52.8846 134.254 52.98 134.293 53.0591 134.355C53.1382 134.418 53.1978 134.502 53.2308 134.598C53.2638 134.693 53.269 134.796 53.2456 134.894C53.2223 134.992 53.1714 135.082 53.0989 135.152C53.0013 135.246 52.8711 135.3 52.7354 135.3Z" fill="#5B5180"/>
<path d="M39.9535 133.993C39.8631 133.993 39.845 133.982 37.4004 133.524C37.2627 133.497 37.1411 133.418 37.0619 133.302C36.9827 133.186 36.9522 133.044 36.9771 132.906C36.9895 132.838 37.0154 132.772 37.0532 132.714C37.091 132.655 37.1401 132.605 37.1976 132.566C37.255 132.526 37.3197 132.499 37.3879 132.484C37.4561 132.47 37.5264 132.47 37.5948 132.483L40.0494 132.943C40.1766 132.97 40.2894 133.043 40.3665 133.148C40.4436 133.252 40.4797 133.381 40.4679 133.511C40.4561 133.64 40.3972 133.761 40.3024 133.85C40.2076 133.939 40.0835 133.99 39.9535 133.993Z" fill="#5B5180"/>
<path d="M52.1325 106.151C52.0629 106.151 51.5546 106.07 49.5839 105.755C49.4806 105.738 49.3845 105.691 49.3076 105.62C49.2307 105.549 49.1765 105.457 49.1516 105.355C49.135 105.287 49.132 105.217 49.1428 105.148C49.1536 105.079 49.1778 105.013 49.2142 104.954C49.2506 104.895 49.2984 104.843 49.3549 104.802C49.4114 104.761 49.4754 104.732 49.5432 104.716C49.6107 104.7 49.6808 104.697 49.7494 104.708L52.2139 105.098C52.3449 105.12 52.463 105.189 52.5448 105.294C52.6267 105.398 52.6661 105.53 52.6553 105.662C52.6449 105.794 52.5855 105.917 52.4888 106.008C52.3921 106.098 52.265 106.149 52.1325 106.151Z" fill="#5B5180"/>
<path d="M45.3014 145.373C45.0383 145.373 45.1368 145.409 43.082 143.583C43.0038 143.513 42.948 143.422 42.9216 143.321C42.8952 143.219 42.8993 143.112 42.9336 143.013C42.9678 142.914 43.0305 142.828 43.1139 142.764C43.1973 142.701 43.2976 142.664 43.4022 142.657C43.4717 142.653 43.5414 142.662 43.6072 142.685C43.6731 142.708 43.7337 142.744 43.7856 142.79L45.6533 144.447C45.7336 144.518 45.7903 144.612 45.8159 144.717C45.8415 144.821 45.8348 144.931 45.7966 145.031C45.7585 145.132 45.6907 145.218 45.6022 145.279C45.5138 145.34 45.4089 145.373 45.3014 145.373Z" fill="#5B5180"/>
<path d="M52.9308 99.3601C52.4895 98.0034 51.4449 95.1093 51.1383 94.2591C51.4377 94.1235 51.7216 93.9544 51.983 93.7545C52.0658 93.684 52.1246 93.5897 52.1515 93.4844C52.1784 93.3791 52.172 93.2681 52.1332 93.1666C51.6634 92.0788 51.4639 90.8934 51.5516 89.7117C52.2878 88.536 52.9562 86.9334 51.1464 85.1797C51.7877 84.4562 52.7744 82.5388 50.6038 80.7327C50.8554 80.4459 51.0409 80.1072 51.1469 79.7407C51.2529 79.3742 51.2769 78.9888 51.2171 78.612C51.1574 78.2351 51.0154 77.8761 50.8012 77.5603C50.587 77.2445 50.306 76.9798 49.9779 76.7849C50.3098 76.2161 52.5419 72.2095 43.8496 71.4055C43.8134 71.3015 43.6968 71.0021 43.5231 70.5463C38.8373 58.2815 37.5449 57.1772 36.702 57.1049C34.7946 56.9384 20.6251 60.7695 19.141 63.3453C19.131 63.2549 17.8748 65.809 18.1986 67.4875C18.5278 69.2014 27.9789 94.9637 30.7501 96.0246C32.5254 96.7074 40.7294 93.731 42.5165 92.8338C42.8743 93.5532 43.3524 94.2063 43.9301 94.7647C44.0066 94.8319 44.1008 94.8758 44.2014 94.8913C44.934 95.0026 45.6729 95.0659 46.4136 95.0831C46.5104 95.4864 47.0087 97.572 47.6228 99.7652C47.6489 99.8689 47.7055 99.9624 47.7854 100.033C47.8652 100.105 47.9645 100.15 48.0705 100.164C48.1408 100.173 48.2121 100.167 48.2803 100.148C48.3484 100.128 48.412 100.096 48.4673 100.051C48.5226 100.007 48.5686 99.9524 48.6025 99.8902C48.6364 99.828 48.6575 99.7597 48.6647 99.6893C48.6716 99.6186 48.6642 99.5472 48.643 99.4794C48.1103 97.5802 47.6671 95.7659 47.5007 95.0686C48.3982 95.0355 49.288 94.8909 50.1498 94.6381C50.4627 95.5054 51.491 98.3589 51.9242 99.6893C51.9556 99.7899 52.0166 99.8789 52.0992 99.9445C52.1817 100.01 52.2821 100.049 52.3873 100.057C52.457 100.063 52.5271 100.054 52.5936 100.032C52.66 100.011 52.7215 99.9758 52.7745 99.9302C52.8275 99.8846 52.871 99.8289 52.9025 99.7665C52.934 99.704 52.9528 99.636 52.958 99.5663C52.9629 99.4965 52.954 99.4264 52.9318 99.3601H52.9308ZM20.3158 63.5723C22.774 61.3438 35.4802 58.0075 36.5727 58.1531C36.958 58.3113 42.6323 71.1767 42.6693 71.2798C31.8254 70.5996 32.7678 73.3373 32.9017 73.5498C33.3475 74.2372 35.6041 74.7645 37.9772 75.1371C31.3397 75.6399 31.4474 77.3077 31.4655 77.4732C31.5631 78.6634 34.1082 79.263 37.0638 79.5534C32.3699 80.5383 31.7621 82.4068 38.4846 83.8665C35.5516 84.4915 35.6086 85.4945 35.6755 85.8418C36.0101 87.5728 40.1741 87.9934 42.3682 88.0937C42.0091 88.8851 41.8504 89.7526 41.906 90.6198C39.7155 91.5757 33.9155 93.8974 32.2044 93.6441C30.2508 92.9667 21.3686 71.3232 20.0192 63.9567C20.0174 63.9603 20.0264 63.8337 20.3158 63.5723ZM44.5234 93.8702C43.7104 93.1229 43.1819 92.1166 43.0282 91.023C42.8745 89.9295 43.105 88.8165 43.6805 87.874C43.7288 87.7943 43.7552 87.7032 43.7572 87.61C43.7591 87.5168 43.7365 87.4248 43.6916 87.3431C43.6467 87.2614 43.581 87.193 43.5013 87.1447C43.4216 87.0965 43.3305 87.0701 43.2373 87.0681C40.2726 87.0157 36.8639 86.4179 36.7436 85.5759C37.3233 84.8813 40.6959 84.6054 42.9208 84.6344C43.0551 84.6354 43.1849 84.5853 43.2837 84.4944C43.3826 84.4034 43.4432 84.2782 43.4533 84.1443C43.4634 84.0103 43.4223 83.8775 43.3382 83.7727C43.2541 83.6679 43.1333 83.599 43.0004 83.5798C39.3529 83.0688 35.2332 82.1147 34.6011 81.4553C35.2911 80.844 39.5102 80.1277 43.2174 79.822C43.3536 79.8107 43.4802 79.7472 43.5707 79.6448C43.6613 79.5425 43.7087 79.4091 43.7033 79.2725C43.6978 79.136 43.6397 79.0068 43.5413 78.912C43.4428 78.8172 43.3116 78.7641 43.1749 78.7638C37.9501 78.7538 33.0907 78.1379 32.5544 77.4461C33.3204 76.765 38.4692 76.0334 42.9778 75.7277C43.1105 75.7184 43.2349 75.6595 43.3262 75.5627C43.4176 75.466 43.4692 75.3384 43.4707 75.2053C43.4723 75.0723 43.4238 74.9435 43.3348 74.8445C43.2458 74.7456 43.1229 74.6838 42.9904 74.6713C39.2154 74.3276 34.8887 73.643 33.9372 73.0786C35.9712 71.6171 47.9023 71.9834 49.0464 74.3747C49.2528 74.7091 49.3452 75.1014 49.3096 75.4928C49.2741 75.8842 49.1125 76.2535 48.8492 76.5453C48.7861 76.6041 48.7382 76.6775 48.7097 76.7591C48.6813 76.8406 48.6731 76.9278 48.6859 77.0132C48.6988 77.0986 48.7322 77.1796 48.7833 77.2492C48.8345 77.3188 48.9018 77.3749 48.9795 77.4126C48.9894 77.418 50.0358 77.9326 50.1887 78.7756C50.2059 79.0974 50.147 79.4188 50.0167 79.7136C49.8865 80.0084 49.6885 80.2683 49.4389 80.4722C49.3833 80.5307 49.3418 80.601 49.3175 80.6779C49.2932 80.7548 49.2868 80.8362 49.2986 80.916C49.3105 80.9958 49.3403 81.0718 49.386 81.1383C49.4316 81.2048 49.4917 81.26 49.5619 81.2998C49.5746 81.307 50.838 82.0333 50.9411 83.0598C50.9303 83.4248 50.8323 83.7819 50.6553 84.1013C50.4783 84.4207 50.2275 84.6931 49.9237 84.8957C49.8545 84.9563 49.8022 85.0338 49.7719 85.1207C49.7416 85.2075 49.7343 85.3007 49.7508 85.3912C49.7673 85.4817 49.807 85.5663 49.866 85.6369C49.925 85.7075 50.0012 85.7615 50.0874 85.7938C50.3351 85.8943 50.5602 86.0433 50.7495 86.232C50.9389 86.4207 51.0886 86.6453 51.1898 86.8927C51.5516 87.978 50.5956 89.1537 50.5359 89.3916C50.3598 90.6603 50.5202 91.9531 51.0008 93.1404C50.2854 93.5447 48.2623 94.403 44.5234 93.8675V93.8702Z" fill="#5B5180"/>
<path d="M34.7296 63.4662C34.9083 63.4662 35.0797 63.3952 35.206 63.2689C35.3324 63.1425 35.4034 62.9711 35.4034 62.7924C35.4034 62.6137 35.3324 62.4424 35.206 62.316C35.0797 62.1896 34.9083 62.1187 34.7296 62.1187C34.5509 62.1187 34.3795 62.1896 34.2531 62.316C34.1268 62.4424 34.0558 62.6137 34.0558 62.7924C34.0558 62.9711 34.1268 63.1425 34.2531 63.2689C34.3795 63.3952 34.5509 63.4662 34.7296 63.4662Z" fill="#5B5180"/>
<path d="M31.9386 64.4766C32.1387 64.4766 32.3305 64.3971 32.472 64.2557C32.6134 64.1142 32.6929 63.9223 32.6929 63.7223C32.6929 63.5223 32.6134 63.3304 32.472 63.1889C32.3305 63.0475 32.1387 62.968 31.9386 62.968C31.7386 62.968 31.5467 63.0475 31.4053 63.1889C31.2638 63.3304 31.1843 63.5223 31.1843 63.7223C31.1843 63.9223 31.2638 64.1142 31.4053 64.2557C31.5467 64.3971 31.7386 64.4766 31.9386 64.4766Z" fill="#5B5180"/>
<path d="M33.1347 67.0849C33.3252 67.0849 33.5078 67.0092 33.6425 66.8746C33.7772 66.7399 33.8528 66.5572 33.8528 66.3668C33.8528 66.1763 33.7772 65.9937 33.6425 65.859C33.5078 65.7243 33.3252 65.6487 33.1347 65.6487C32.9443 65.6487 32.7616 65.7243 32.627 65.859C32.4923 65.9937 32.4166 66.1763 32.4166 66.3668C32.4166 66.5572 32.4923 66.7399 32.627 66.8746C32.7616 67.0092 32.9443 67.0849 33.1347 67.0849Z" fill="#5B5180"/>
<path d="M13.0047 70.5994C10.4137 69.9137 7.76433 69.4713 5.09108 69.2781C4.95429 69.2709 4.8256 69.211 4.732 69.1109C4.6384 69.0109 4.58717 68.8785 4.58904 68.7416C4.59091 68.6046 4.64574 68.4737 4.74204 68.3762C4.83834 68.2788 4.96861 68.2225 5.10556 68.219C7.82513 68.3791 10.5203 68.8295 13.144 69.5611C13.2654 69.5969 13.37 69.6749 13.4389 69.7811C13.5077 69.8873 13.5363 70.0146 13.5195 70.14C13.5027 70.2654 13.4415 70.3807 13.3471 70.4649C13.2527 70.5492 13.1312 70.5969 13.0047 70.5994Z" fill="#D6CBFF"/>
<path d="M5.0523 75.3205C4.92758 75.3206 4.80682 75.2767 4.71126 75.1966C4.6157 75.1164 4.55147 75.0051 4.52987 74.8823C4.50826 74.7595 4.53066 74.6329 4.59314 74.525C4.65561 74.4171 4.75415 74.3346 4.87142 74.2921C7.84247 73.4142 10.9453 73.0679 14.0368 73.2693C14.1767 73.2757 14.3084 73.3373 14.403 73.4406C14.4976 73.5439 14.5475 73.6804 14.5418 73.8204C14.536 73.9603 14.4751 74.0923 14.3724 74.1875C14.2696 74.2827 14.1333 74.3333 13.9934 74.3283C10.978 74.1474 7.95457 74.483 5.0523 75.3205Z" fill="#D6CBFF"/>
<path d="M8.21805 84.162C8.10174 84.1615 7.98882 84.1228 7.89663 84.0519C7.80445 83.981 7.7381 83.8817 7.70779 83.7695C7.67749 83.6572 7.68489 83.538 7.72888 83.4304C7.77286 83.3227 7.85099 83.2324 7.95125 83.1735C7.99828 83.1463 12.628 80.4539 15.6116 78.4705C15.7285 78.4005 15.8679 78.3783 16.0008 78.4083C16.1336 78.4384 16.2498 78.5184 16.3253 78.6319C16.4007 78.7454 16.4295 78.8835 16.4057 79.0176C16.382 79.1518 16.3075 79.2716 16.1977 79.3523C13.1878 81.3538 8.53008 84.0616 8.48395 84.0896C8.40313 84.1365 8.31147 84.1615 8.21805 84.162Z" fill="#D6CBFF"/>
</svg>
