<svg width="24" height="24" viewBox="0 0 24 24" fill="none" xmlns="http://www.w3.org/2000/svg">
<path d="M6.30483 19.922C6.46999 18.9242 6.665 17.576 6.665 16.9102C6.665 15.8276 15.08 16.3689 17.06 16.3689C18.2515 16.3689 18.5841 17.7983 18.6055 19.0442L18.545 21.0263L18.5 22.5C18.5 23.5826 8.64512 22.8647 7.16012 22.8647C6.49385 22.8647 6.254 22.2229 6.20093 21.5C6.15938 20.9339 6.23237 20.3182 6.30483 19.922ZM6.30483 19.922C6.22805 20.3859 5.87965 20.7386 5.44886 20.7571M18.05 8.24931C18.38 6.08409 18.743 1.6454 17.555 1.21236C16.07 0.671052 6.665 1.21236 6.17 2.29496C5.774 3.16105 6.335 7.34724 6.665 9.33207M8.5 20.7571C10.315 20.5766 13.991 20.7571 15.575 20.7571M8.5 18.5C10.48 18.1391 14.387 18.1011 15.575 18.5341M4.19 9.33192L3.8664 7.56255C3.76848 7.02717 4.05029 6.49422 4.53463 6.36164C5.06341 6.21689 5.68957 6.08409 6.17 6.08409M18.3357 5.5C19.1607 5.31957 20.525 5.21801 20.525 6.08409V8.24935M7.655 6.6254C9.8 6.26453 14.486 5.65105 16.07 6.08409M7.655 3.919C10.13 3.55813 15.278 2.94466 16.07 3.3777" stroke="#5B5180" stroke-linecap="round"/>
<path d="M1.22 9.33212H6.17C8.15 9.33212 15.08 8.24951 18.545 8.24951C22.01 8.24951 23 8.79082 23 10.4147V19.4901M23 19.4901C23 20.1354 22.4871 20.6372 21.9007 20.5659L19.5602 20.2816C19.0047 20.2141 18.616 19.6555 18.6055 19.0444M23 19.4901C23 21.482 20.03 21.3444 18.545 21.0265L18.6055 19.0444M18.6055 19.0444C18.5841 17.7985 18.2515 16.3691 17.06 16.3691C15.08 16.3691 6.665 15.8278 6.665 16.9104C6.665 17.5762 6.46999 18.9244 6.30483 19.9222M6.30483 19.9222C6.22805 20.3861 5.87965 20.7388 5.44886 20.7573C3.86256 20.8254 1.55942 20.5603 1.22 19.0756M6.30483 19.9222C6.23237 20.3184 6.15938 20.9341 6.20094 21.5002C2.36168 21.5002 1.28062 19.8838 1.22 19.0756M1.22 19.0756C0.725 16.9104 1.22 10.956 1.22 10.4147M20.4295 12.0307C20.4743 12.0237 21.5588 11.871 21.5136 10.8061C21.5095 10.7082 21.4979 10.6192 21.4799 10.5386C21.4575 10.4375 21.4249 10.3496 21.3843 10.2736C21.0513 9.65105 20.1757 9.83704 19.8422 10.2736C19.7114 10.4451 19.4372 10.8799 19.5708 11.4234C19.6546 11.7641 19.9263 11.9814 20.21 12.0288C20.2834 12.0411 20.3575 12.042 20.4295 12.0307Z" stroke="#5B5180" stroke-linecap="round"/>
</svg>
