<svg width="24" height="24" viewBox="0 0 24 24" fill="none" xmlns="http://www.w3.org/2000/svg">
<path d="M8.32396 2.17901C6.9747 1.9146 2.7598 1.96751 1.54546 2.17904M8.82993 2.44344C8.86219 3.42109 8.90481 4.72855 8.93932 6C8.98475 7.67406 9.01611 9.2857 8.99121 9.99997M8.63646 10C8.12281 9.48418 3.34383 9.35518 2.31653 9.35518C1.28923 9.35518 1.0252 9.52032 1.16082 8.83936C1.27222 8.28004 1.1911 4.64781 1 2.31996M19.324 14.179C18.0226 13.924 14.0552 13.9642 12.6857 14.1571C12.5981 14.1695 12.5103 14.1376 12.4529 14.0702M19.8299 14.4434C19.9047 16.7083 20.035 20.7432 19.9912 22M19.6365 22C19.1228 21.4842 14.3438 21.3552 13.3165 21.3552C12.2892 21.3552 12.0252 21.5203 12.1608 20.8394C12.2722 20.28 12.1911 16.6478 12 14.32M22.324 2.17901C20.9747 1.9146 16.7598 1.96751 15.5455 2.17904M22.8299 2.44344C22.9047 4.70832 23.035 8.74321 22.9912 9.99997M22.6365 10C22.1228 9.48418 17.3438 9.35518 16.3165 9.35518C15.2892 9.35518 15.0252 9.52032 15.1608 8.83936C15.22 8.54204 15.2249 7.37643 15.1877 6C15.1549 4.78706 15.0895 3.4104 15 2.31996" stroke="#5B5180" stroke-linecap="round"/>
<path d="M8.93932 6H15.1877M8.99121 9.99997L12.4529 14.0702C12.5102 14.1376 12.5981 14.1695 12.6857 14.1571" stroke="#5B5180" stroke-linecap="round"/>
</svg>
