<svg width="24" height="24" viewBox="0 0 24 24" fill="none" xmlns="http://www.w3.org/2000/svg">
<path d="M21.1406 1.49227C17.4302 0.765159 5.83938 0.910658 2.5 1.49235M22.532 2.21947C22.7375 8.44787 23.096 19.5438 22.9755 22.9999M22 23C20.5875 21.5815 7.44545 21.2267 4.62042 21.2267C1.79539 21.2267 1.06931 21.6809 1.44226 19.8082C1.74859 18.2701 1.52553 8.28149 1 1.87988" stroke="#5B5180" stroke-linecap="round"/>
<path d="M19 7.49983C17.9571 5.41359 16 6.99999 16 8.99983V17.0001C16 19.0001 17.5 19 18 18.9997C20.5 19 19.5 8.50007 19 7.49983Z" stroke="#5B5180" stroke-linecap="round"/>
<path d="M7.48276 12.5511C6.61969 11.3812 5 12.2708 5 13.3923V17.8786C5 19.0002 6.24138 19.0002 6.65517 19C8.72414 19.0002 7.89655 13.112 7.48276 12.5511Z" stroke="#5B5180" stroke-linecap="round"/>
<path d="M13.3103 5.18093C12.1596 2.67395 10 4.58029 10 6.98344V16.5971C10 19.0004 11.6552 19.0004 12.2069 19C14.9655 19.0004 13.8621 6.38289 13.3103 5.18093Z" stroke="#5B5180" stroke-linecap="round"/>
</svg>
