<svg width="347" height="232" viewBox="0 0 347 232" fill="none" xmlns="http://www.w3.org/2000/svg">
<path d="M252.21 94.0328C255.432 89.5342 250.565 89.6044 247.961 91.31C245.358 93.0155 233.726 100.917 236.416 104.048C240.154 108.229 248.949 98.5394 252.21 94.0328Z" fill="white"/>
<path d="M235.21 113.053C238.432 108.555 233.565 108.625 230.961 110.33C228.358 112.036 216.726 119.938 219.416 123.068C223.154 127.25 231.949 117.56 235.21 113.053Z" fill="white"/>
<path d="M272.437 82.9369C277.002 79.813 272.405 78.2125 269.375 78.9237C266.346 79.6349 252.716 83.0775 254.175 86.9406C256.258 92.1496 267.834 86.0554 272.437 82.9369Z" fill="white"/>
<path d="M295.688 77.4582C300.726 75.1753 296.476 72.7999 293.369 72.9737C290.263 73.1475 276.242 74.1684 277.009 78.2264C278.157 83.7185 290.614 79.7291 295.688 77.4582Z" fill="white"/>
<path d="M320.348 77.6738C325.705 76.3014 321.932 73.2232 318.842 72.8543C315.753 72.4855 301.768 71.0536 301.819 75.1832C301.997 80.7915 314.957 79.0281 320.348 77.6738Z" fill="white"/>
<path d="M342.953 86.1625C348.456 86.7071 345.962 82.5225 343.184 81.118C340.407 79.7136 327.755 73.58 326.392 77.478C324.644 82.8091 337.424 85.5893 342.953 86.1625Z" fill="white"/>
<path d="M217.57 115.619C217.57 115.619 173.55 117.857 182.322 173.635C182.812 226.895 120.697 222.125 99.1696 207.809C71.2833 189.265 69.7898 143.663 41.5293 146.178C13.2689 148.693 2.84372 80.6011 45.0264 74.3548C97.5001 66.5848 86.9383 44.1929 98.3891 27.2721C106.608 15.1279 153.656 10.6152 164.711 42.6447C174.014 69.5975 185.513 66.1122 194.594 66.8024C207.692 67.7971 244.324 102.248 217.57 115.619Z" fill="#AA9BDF"/>
<path d="M166.754 79.5492H74.4229C71.7809 79.5492 69.6392 81.6909 69.6392 84.3329V150.375C69.6392 153.017 71.7809 155.159 74.4229 155.159H166.754C169.396 155.159 171.538 153.017 171.538 150.375V84.3329C171.538 81.6909 169.396 79.5492 166.754 79.5492Z" fill="white" stroke="#9683D7" stroke-width="1.06778" stroke-linecap="round" stroke-linejoin="round"/>
<path d="M73.4307 148.122H164.587" stroke="#F2F2F2" stroke-width="1.06778" stroke-linecap="round" stroke-linejoin="round"/>
<path d="M73.4307 136.163H164.587" stroke="#F2F2F2" stroke-width="1.06778" stroke-linecap="round" stroke-linejoin="round"/>
<path d="M73.4307 124.215H164.587" stroke="#F2F2F2" stroke-width="1.06778" stroke-linecap="round" stroke-linejoin="round"/>
<path d="M73.4307 112.255H164.587" stroke="#F2F2F2" stroke-width="1.06778" stroke-linecap="round" stroke-linejoin="round"/>
<path d="M73.4307 100.296H164.587" stroke="#F2F2F2" stroke-width="1.06778" stroke-linecap="round" stroke-linejoin="round"/>
<path d="M73.4307 88.337H164.587" stroke="#F2F2F2" stroke-width="1.06778" stroke-linecap="round" stroke-linejoin="round"/>
<path d="M91.2732 96.1212H85.2722C83.8215 96.1212 82.6455 97.2972 82.6455 98.7479V146.136C82.6455 147.587 83.8215 148.763 85.2722 148.763H91.2732C92.7239 148.763 93.8999 147.587 93.8999 146.136V98.7479C93.8999 97.2972 92.7239 96.1212 91.2732 96.1212Z" fill="#D6CBFF"/>
<path d="M112.821 116.655H106.82C105.369 116.655 104.193 117.831 104.193 119.281V146.136C104.193 147.587 105.369 148.763 106.82 148.763H112.821C114.271 148.763 115.447 147.587 115.447 146.136V119.281C115.447 117.831 114.271 116.655 112.821 116.655Z" fill="#D6CBFF"/>
<path d="M134.358 101.631H128.357C126.906 101.631 125.73 102.807 125.73 104.258V146.125C125.73 147.576 126.906 148.752 128.357 148.752H134.358C135.808 148.752 136.984 147.576 136.984 146.125V104.258C136.984 102.807 135.808 101.631 134.358 101.631Z" fill="#D6CBFF"/>
<path d="M155.895 124.001H149.894C148.443 124.001 147.267 125.177 147.267 126.628V146.125C147.267 147.576 148.443 148.752 149.894 148.752H155.895C157.345 148.752 158.522 147.576 158.522 146.125V126.628C158.522 125.177 157.345 124.001 155.895 124.001Z" fill="#D6CBFF"/>
<path d="M83.1794 119.783L89.4366 119.538L106.959 137.551L123.723 122.282L141.993 128.293L159.622 117.039" stroke="#9683D7" stroke-width="1.17456" stroke-linecap="round" stroke-linejoin="round"/>
<path d="M94.9458 161.213V165.805" stroke="#9683D7" stroke-width="1.06778" stroke-linecap="round" stroke-linejoin="round"/>
<path d="M92.6507 163.509H97.2422" stroke="#9683D7" stroke-width="1.06778" stroke-linecap="round" stroke-linejoin="round"/>
<path d="M177.069 100.787V105.379" stroke="#9683D7" stroke-width="1.06778" stroke-linecap="round" stroke-linejoin="round"/>
<path d="M174.773 103.083H179.364" stroke="#9683D7" stroke-width="1.06778" stroke-linecap="round" stroke-linejoin="round"/>
<path d="M52.5015 95.8435V100.424" stroke="#9683D7" stroke-width="1.06778" stroke-linecap="round" stroke-linejoin="round"/>
<path d="M50.2064 98.1394H54.7979" stroke="#9683D7" stroke-width="1.06778" stroke-linecap="round" stroke-linejoin="round"/>
<path d="M63.7774 141.171C64.3553 141.171 64.8238 140.702 64.8238 140.124C64.8238 139.546 64.3553 139.078 63.7774 139.078C63.1994 139.078 62.7309 139.546 62.7309 140.124C62.7309 140.702 63.1994 141.171 63.7774 141.171Z" fill="#CFCFCF"/>
<path d="M113.878 67.27C114.161 67.2702 114.39 67.4997 114.39 67.7827C114.389 68.0654 114.161 68.2941 113.878 68.2944C113.595 68.2944 113.366 68.0655 113.365 67.7827C113.365 67.4996 113.595 67.27 113.878 67.27Z" fill="#CFCFCF" stroke="#9683D7" stroke-width="1.06778"/>
<path d="M124.631 184C146.244 184 163.765 182.91 163.765 181.565C163.765 180.22 146.244 179.13 124.631 179.13C103.017 179.13 85.4964 180.22 85.4964 181.565C85.4964 182.91 103.017 184 124.631 184Z" fill="#F2F2F2"/>
</svg>
