<svg width="337" height="248" viewBox="0 0 337 248" fill="none" xmlns="http://www.w3.org/2000/svg">
<path d="M18.1974 149.834C23.7113 149.414 20.529 145.726 17.5503 144.826C14.5717 143.926 1.04813 140.085 0.382091 144.16C-0.41523 149.714 12.6533 150.231 18.1974 149.834Z" fill="white"/>
<path d="M42.7279 152.482C48.0851 151.109 44.3115 148.031 41.2219 147.662C38.1323 147.293 24.148 145.861 24.199 149.991C24.3772 155.599 37.3367 153.836 42.7279 152.482Z" fill="white"/>
<path d="M67.4587 150.722C72.4964 148.439 68.2462 146.064 65.1396 146.238C62.033 146.412 48.0127 147.432 48.7793 151.49C49.9276 156.983 62.3843 152.993 67.4587 150.722Z" fill="white"/>
<path d="M92.4587 145.717C97.4964 143.434 93.2462 141.059 90.1396 141.232C87.033 141.406 73.0127 142.427 73.7793 146.485C74.9276 151.977 87.3843 147.988 92.4587 145.717Z" fill="white"/>
<path d="M242.64 51.3914C242.64 51.3914 216.621 84.3492 174.99 64.6908C133.359 45.0325 91.7285 98.2261 127.577 130.606C163.425 162.985 128.345 180.778 152.699 200.622C180.38 223.176 204.478 177.44 226.45 187.848C274.943 210.819 310.868 201.725 302.773 175.128C288.564 128.439 270.394 125.402 284.271 101.117C298.148 76.8325 267.522 26.3386 242.64 51.3914Z" fill="#AA9BDF"/>
<path d="M206.414 175.659C227.973 175.659 245.451 174.57 245.451 173.226C245.451 171.882 227.973 170.792 206.414 170.792C184.855 170.792 167.378 171.882 167.378 173.226C167.378 174.57 184.855 175.659 206.414 175.659Z" fill="#F2F2F2"/>
<path d="M235.075 77.7925C235.327 77.7925 235.531 77.9966 235.531 78.2485C235.531 78.5005 235.327 78.7046 235.075 78.7046C234.823 78.7045 234.619 78.5005 234.619 78.2485C234.619 77.9967 234.823 77.7925 235.075 77.7925Z" fill="#D6CBFF" stroke="#9683D7" stroke-width="1.16981"/>
<path d="M263.876 98.7671V103.353" stroke="#9683D7" stroke-width="1.16981" stroke-linecap="round" stroke-linejoin="round"/>
<path d="M261.594 101.06H266.168" stroke="#9683D7" stroke-width="1.16981" stroke-linecap="round" stroke-linejoin="round"/>
<path d="M250.035 99.939L169.213 92.7827C166.871 92.5752 164.804 94.3061 164.596 96.6486L159.564 153.478C159.357 155.821 161.088 157.888 163.43 158.095L244.252 165.251C246.595 165.459 248.662 163.728 248.869 161.385L253.901 104.556C254.109 102.214 252.378 100.146 250.035 99.939Z" fill="white" stroke="#9683D7" stroke-width="1.16981" stroke-linecap="round" stroke-linejoin="round"/>
<path d="M230.504 120.717L184.803 116.67C183.735 116.576 182.792 117.365 182.697 118.433L182.416 121.614C182.321 122.683 183.11 123.625 184.179 123.72L229.88 127.767C230.948 127.861 231.891 127.072 231.986 126.004L232.267 122.822C232.362 121.754 231.572 120.811 230.504 120.717Z" fill="white" stroke="#9683D7" stroke-width="1.16981" stroke-linecap="round" stroke-linejoin="round"/>
<path d="M229.285 134.454L183.584 130.407C182.516 130.312 181.573 131.102 181.479 132.17L181.197 135.351C181.102 136.42 181.892 137.362 182.96 137.457L228.661 141.503C229.729 141.598 230.672 140.809 230.767 139.74L231.048 136.559C231.143 135.491 230.354 134.548 229.285 134.454Z" fill="white" stroke="#9683D7" stroke-width="1.16981" stroke-linecap="round" stroke-linejoin="round"/>
<path d="M197.383 146.305L212.916 147.68C213.411 147.724 213.778 148.161 213.734 148.657L213.372 152.747C213.328 153.243 212.89 153.608 212.395 153.564L196.862 152.189C196.366 152.145 196.001 151.708 196.044 151.213L196.407 147.122C196.451 146.627 196.888 146.261 197.383 146.305Z" fill="#D6CBFF" stroke="#9683D7" stroke-width="1.16981"/>
<path d="M220.289 95.9949C220.289 98.6741 219.494 101.293 218.006 103.521C216.517 105.749 214.402 107.485 211.926 108.51C209.451 109.535 206.727 109.804 204.1 109.281C201.472 108.758 199.058 107.468 197.164 105.574C195.269 103.679 193.979 101.265 193.456 98.6377C192.934 96.0099 193.202 93.2862 194.227 90.8109C195.252 88.3356 196.989 86.22 199.216 84.7315C201.444 83.243 204.063 82.4485 206.742 82.4485C208.524 82.4392 210.29 82.7832 211.937 83.4607C213.585 84.1382 215.082 85.1356 216.342 86.3954C217.602 87.6552 218.599 89.1522 219.277 90.7999C219.954 92.4477 220.298 94.2134 220.289 95.9949Z" fill="white" stroke="#9683D7" stroke-width="1.16981" stroke-linecap="round" stroke-linejoin="round"/>
<path d="M206.789 95.7875C209.25 95.7875 211.621 96.7226 213.419 98.4037C215.16 100.03 216.235 102.238 216.454 104.605C215.268 105.938 213.82 107.014 212.198 107.76C210.501 108.541 208.656 108.945 206.789 108.945C204.921 108.945 203.076 108.541 201.38 107.76C199.758 107.013 198.309 105.938 197.123 104.605C197.341 102.238 198.418 100.03 200.159 98.4037C201.957 96.7227 204.327 95.7876 206.789 95.7875Z" fill="#D6CBFF" stroke="#9683D7" stroke-width="1.16981"/>
<path d="M206.743 84.8465C208.875 84.8465 210.603 86.5748 210.603 88.7068C210.603 90.8389 208.875 92.5672 206.743 92.5672C204.611 92.5672 202.882 90.8389 202.882 88.7068C202.882 86.5748 204.611 84.8465 206.743 84.8465Z" fill="#D6CBFF" stroke="#9683D7" stroke-width="1.16981"/>
<path d="M195.125 119.719C195.913 119.719 196.553 120.357 196.553 121.145C196.553 121.934 195.914 122.573 195.125 122.573C194.337 122.573 193.699 121.933 193.699 121.145C193.699 120.357 194.337 119.719 195.125 119.719Z" fill="#D6CBFF" stroke="#9683D7" stroke-width="1.16981"/>
<path d="M203.267 120.432C204.055 120.432 204.695 121.071 204.695 121.859C204.695 122.647 204.055 123.287 203.267 123.287C202.479 123.286 201.84 122.647 201.84 121.859C201.841 121.071 202.479 120.432 203.267 120.432Z" fill="#D6CBFF" stroke="#9683D7" stroke-width="1.16981"/>
<path d="M211.409 121.157C212.197 121.157 212.837 121.796 212.837 122.584C212.837 123.372 212.197 124.012 211.409 124.012C210.621 124.012 209.982 123.372 209.982 122.584C209.982 121.796 210.621 121.158 211.409 121.157Z" fill="#D6CBFF" stroke="#9683D7" stroke-width="1.16981"/>
<path d="M219.551 121.871C220.339 121.871 220.978 122.51 220.979 123.298C220.979 124.086 220.339 124.725 219.551 124.725C218.763 124.725 218.124 124.086 218.124 123.298C218.124 122.51 218.763 121.871 219.551 121.871Z" fill="#D6CBFF" stroke="#9683D7" stroke-width="1.16981"/>
<path d="M120.847 136.492C125.447 133.413 120.581 131.494 117.462 132.097C114.342 132.7 100.318 135.669 102.027 139.827C104.453 145.438 116.207 139.563 120.847 136.492Z" fill="white"/>
</svg>
