<svg width="224" height="148" viewBox="0 0 224 148" fill="none" xmlns="http://www.w3.org/2000/svg">
<path d="M201.373 52.6353C205.327 48.7652 200.522 47.9882 197.662 49.2152C194.802 50.4423 181.976 56.202 184.083 59.7527C187.038 64.5204 197.381 56.5066 201.373 52.6353Z" fill="white"/>
<path d="M180.373 65.783C184.327 61.9129 179.522 61.1359 176.662 62.363C173.802 63.59 160.976 69.3497 163.083 72.9004C166.038 77.6682 176.381 69.6543 180.373 65.783Z" fill="white"/>
<path d="M221.208 41.446C225.773 38.322 221.175 36.7215 218.146 37.4327C215.117 38.144 201.486 41.5865 202.945 45.4496C205.029 50.6587 216.604 44.5645 221.208 41.446Z" fill="white"/>
<path d="M117.195 6.18969C117.195 6.18969 93.4985 36.2052 55.5839 18.3018C17.6693 0.398401 -20.2448 48.8433 12.4033 78.3324C45.0515 107.821 13.1028 124.025 35.283 142.098C60.4922 162.639 82.4397 120.986 102.45 130.465C146.614 151.384 179.332 143.103 171.96 118.88C159.019 76.3592 142.471 73.593 155.109 51.4763C167.747 29.3596 139.855 -16.6266 117.195 6.18969Z" fill="#AA9BDF"/>
<path d="M107.413 62.6005C98.3685 62.6005 89.1835 62.2335 80.5813 59.8374C72.1411 57.4845 64.3916 52.9514 57.4839 47.6951C52.9508 44.2629 48.8494 41.543 42.9671 41.9531C37.2297 42.2533 31.7401 44.387 27.3062 48.0405C19.8265 54.5812 20.9598 66.6803 23.9387 75.1854C28.4395 87.9969 42.0928 96.9012 53.7171 102.697C67.133 109.4 81.8657 113.328 96.6524 115.487C109.604 117.462 126.237 118.887 137.461 110.425C147.78 102.654 150.608 84.91 148.082 72.9296C147.468 69.3881 145.579 66.1937 142.772 63.9496C135.529 58.6502 124.725 62.1903 116.587 62.363C113.565 62.471 110.5 62.6005 107.413 62.6005Z" fill="#F2F2F2"/>
<path d="M85.2986 136.534C107.181 136.534 124.92 135.427 124.92 134.062C124.92 132.697 107.181 131.59 85.2986 131.59C63.4161 131.59 45.6768 132.697 45.6768 134.062C45.6768 135.427 63.4161 136.534 85.2986 136.534Z" fill="#F2F2F2"/>
<path d="M141.93 47.3171C142.514 47.3171 142.987 46.8436 142.987 46.2594C142.987 45.6752 142.514 45.2017 141.93 45.2017C141.345 45.2017 140.872 45.6752 140.872 46.2594C140.872 46.8436 141.345 47.3171 141.93 47.3171Z" fill="#D6CBFF"/>
<path d="M96.3179 39.7836C96.9021 39.7836 97.3756 39.31 97.3756 38.7258C97.3756 38.1417 96.9021 37.6681 96.3179 37.6681C95.7337 37.6681 95.2602 38.1417 95.2602 38.7258C95.2602 39.31 95.7337 39.7836 96.3179 39.7836Z" fill="#D6CBFF"/>
<path d="M54.0732 108.364V113.005" stroke="#9683D7" stroke-width="1.07932" stroke-linecap="round" stroke-linejoin="round"/>
<path d="M51.7522 110.684H56.3933" stroke="#9683D7" stroke-width="1.07932" stroke-linecap="round" stroke-linejoin="round"/>
<path d="M37.0528 20.0214V24.6624" stroke="#9683D7" stroke-width="1.07932" stroke-linecap="round" stroke-linejoin="round"/>
<path d="M34.7213 22.3418H39.3732" stroke="#9683D7" stroke-width="1.07932" stroke-linecap="round" stroke-linejoin="round"/>
<path d="M121.185 43.9282V48.5801" stroke="#9683D7" stroke-width="1.07932" stroke-linecap="round" stroke-linejoin="round"/>
<path d="M118.865 46.2594H123.506" stroke="#9683D7" stroke-width="1.07932" stroke-linecap="round" stroke-linejoin="round"/>
<path d="M79.1786 106.076C84.1648 113.047 91.7113 117.756 100.164 119.173C108.617 120.589 117.287 118.596 124.273 113.631C125.136 113.018 125.968 112.363 126.766 111.666L139.642 115.563L134.71 101.154C137.172 95.9998 138.227 90.2861 137.767 84.5927C137.308 78.8992 135.351 73.4285 132.094 68.7358C128.837 64.0432 124.397 60.2955 119.225 57.873C114.052 55.4506 108.33 54.4397 102.64 54.9429C96.9505 55.4461 91.495 57.4454 86.8276 60.7381C82.1601 64.0307 78.4467 68.4995 76.0642 73.6909C73.6817 78.8822 72.7149 84.6115 73.2618 90.2972C73.8088 95.983 75.8501 101.423 79.1786 106.065V106.076Z" fill="white" stroke="#9683D7" stroke-width="1.07932" stroke-linecap="round" stroke-linejoin="round"/>
<path d="M116.706 89.4322C117.886 89.4322 118.843 88.4754 118.843 87.2951C118.843 86.1149 117.886 85.1581 116.706 85.1581C115.526 85.1581 114.569 86.1149 114.569 87.2951C114.569 88.4754 115.526 89.4322 116.706 89.4322Z" fill="#9683D7"/>
<path d="M106.399 89.4322C107.579 89.4322 108.536 88.4754 108.536 87.2951C108.536 86.1149 107.579 85.1581 106.399 85.1581C105.218 85.1581 104.262 86.1149 104.262 87.2951C104.262 88.4754 105.218 89.4322 106.399 89.4322Z" fill="#9683D7"/>
<path d="M96.1018 89.4322C97.2821 89.4322 98.2389 88.4754 98.2389 87.2951C98.2389 86.1149 97.2821 85.1581 96.1018 85.1581C94.9215 85.1581 93.9648 86.1149 93.9648 87.2951C93.9648 88.4754 94.9215 89.4322 96.1018 89.4322Z" fill="#9683D7"/>
<path d="M89.7344 84.0465C84.7483 91.0175 77.2017 95.7273 68.7489 97.1435C60.296 98.5597 51.6265 96.5669 44.6405 91.6018C43.7746 90.9925 42.9423 90.3367 42.1473 89.6374L29.271 93.5553L34.2035 79.1356C31.7413 73.9816 30.6864 68.2679 31.1457 62.5744C31.6051 56.8809 33.5624 51.4103 36.819 46.7176C40.0756 42.0249 44.5156 38.2772 49.6885 35.8548C54.8614 33.4324 60.583 32.4215 66.2728 32.9247C71.9626 33.4278 77.418 35.4272 82.0855 38.7198C86.7529 42.0125 90.4663 46.4812 92.8488 51.6726C95.2313 56.864 96.1982 62.5932 95.6512 68.279C95.1042 73.9647 93.0629 79.4046 89.7344 84.0465Z" fill="white" stroke="#9683D7" stroke-width="1.07932" stroke-linecap="round" stroke-linejoin="round"/>
<path d="M72.8972 71.179C71.9395 72.7968 70.5804 74.14 68.9515 75.0786C67.3225 76.0172 65.4789 76.5195 63.599 76.5369C61.7191 76.5543 59.8665 76.0861 58.2205 75.1777C56.5745 74.2694 55.1909 72.9515 54.2034 71.3517" stroke="#9683D7" stroke-width="1.07932" stroke-linecap="round" stroke-linejoin="round"/>
<path d="M75.6488 62.0499C76.4893 62.0499 77.1707 61.3686 77.1707 60.5281C77.1707 59.6876 76.4893 59.0062 75.6488 59.0062C74.8084 59.0062 74.127 59.6876 74.127 60.5281C74.127 61.3686 74.8084 62.0499 75.6488 62.0499Z" fill="#9683D7"/>
<path d="M51.537 62.0499C52.3775 62.0499 53.0589 61.3686 53.0589 60.5281C53.0589 59.6876 52.3775 59.0062 51.537 59.0062C50.6965 59.0062 50.0152 59.6876 50.0152 60.5281C50.0152 61.3686 50.6965 62.0499 51.537 62.0499Z" fill="#9683D7"/>
</svg>
