<svg width="301" height="243" viewBox="0 0 301 243" fill="none" xmlns="http://www.w3.org/2000/svg">
<path d="M66.1974 117.19C71.7113 116.77 68.529 113.083 65.5503 112.182C62.5717 111.282 49.0481 107.441 48.3821 111.517C47.5848 117.071 60.6533 117.587 66.1974 117.19Z" fill="white"/>
<path d="M19.1185 105.28C24.4757 103.908 20.7021 100.83 17.6125 100.461C14.523 100.092 0.538576 98.6602 0.589632 102.79C0.767842 108.398 13.7273 106.635 19.1185 105.28Z" fill="white"/>
<path d="M41.7235 111.767C47.2265 112.311 44.7321 108.127 41.9549 106.722C39.1777 105.318 26.5258 99.1843 25.1629 103.082C23.4143 108.413 36.1947 111.194 41.7235 111.767Z" fill="white"/>
<path d="M91.1185 118.294C96.4757 116.922 92.7021 113.844 89.6125 113.475C86.523 113.106 72.5386 111.674 72.5896 115.804C72.7678 121.412 85.7273 119.649 91.1185 118.294Z" fill="white"/>
<path d="M100.829 172.706C100.829 172.706 133.609 148.009 97.7376 109.57C69.5672 68.7514 119.959 40.0171 144.032 39.8234C175.215 39.5728 200.163 73.9624 220.645 57.2754C241.127 40.5883 284.7 87.6612 255.428 114.491C219.015 147.865 238.845 159.623 238.843 178.647C238.842 192.302 204.914 220.333 179.674 201.401C158.435 185.469 151.385 194.157 144.021 198.364C133.401 204.432 87.173 196.979 100.829 172.706Z" fill="#AA9BDF"/>
<path d="M191.279 106.414C183.476 106.46 175.552 106.097 168.14 104.039C160.728 101.981 154.172 98.0985 148.213 93.5637C144.311 90.6119 140.763 88.2654 135.698 88.6192C130.745 88.8796 126.008 90.7275 122.187 93.8896C115.743 99.5325 116.721 109.961 119.291 117.299C123.164 128.352 134.953 136.025 144.963 141.025C156.537 146.808 169.248 150.169 181.995 152.097C193.169 153.791 207.518 155.03 217.193 147.729C226.086 141.034 228.525 125.726 226.346 115.39C225.816 112.337 224.191 109.583 221.774 107.643C215.526 103.08 206.215 106.125 199.194 106.283C196.633 106.339 193.942 106.404 191.279 106.414Z" fill="#F2F2F2"/>
<path d="M153.231 70.2753V74.2793" stroke="#9683D7" stroke-width="0.791488" stroke-linecap="round" stroke-linejoin="round"/>
<path d="M151.23 72.2774H155.234" stroke="#9683D7" stroke-width="0.791488" stroke-linecap="round" stroke-linejoin="round"/>
<path d="M229.195 150.085V154.089" stroke="#9683D7" stroke-width="0.791488" stroke-linecap="round" stroke-linejoin="round"/>
<path d="M227.194 152.087H231.198" stroke="#9683D7" stroke-width="0.791488" stroke-linecap="round" stroke-linejoin="round"/>
<path d="M122.978 132.794C123.482 132.794 123.89 132.385 123.89 131.881C123.89 131.377 123.482 130.969 122.978 130.969C122.474 130.969 122.065 131.377 122.065 131.881C122.065 132.385 122.474 132.794 122.978 132.794Z" fill="#9683D7"/>
<path d="M200.674 74.4096C201.178 74.4096 201.587 74.0011 201.587 73.4971C201.587 72.9931 201.178 72.5845 200.674 72.5845C200.17 72.5845 199.762 72.9931 199.762 73.4971C199.762 74.0011 200.17 74.4096 200.674 74.4096Z" fill="#9683D7"/>
<path d="M175.384 170.198C194.258 170.198 209.558 169.248 209.558 168.075C209.558 166.903 194.258 165.952 175.384 165.952C156.511 165.952 141.21 166.903 141.21 168.075C141.21 169.248 156.511 170.198 175.384 170.198Z" fill="#F2F2F2"/>
<path d="M149.06 81.1514H198.691C199.926 81.1514 201.11 81.6419 201.983 82.5151C202.856 83.3882 203.347 84.5724 203.347 85.8072V144.852C203.347 146.087 202.856 147.271 201.983 148.144C201.11 149.018 199.926 149.508 198.691 149.508H142.7C141.465 149.508 140.281 149.018 139.408 148.144C138.535 147.271 138.044 146.087 138.044 144.852V92.2788L149.06 81.1514Z" fill="white" stroke="#9683D7" stroke-width="0.931162" stroke-linecap="round" stroke-linejoin="round"/>
<path d="M203.123 109.924H151.946V150.076H203.123V109.924Z" fill="#D6CBFF"/>
<path d="M138.044 92.2788H147.067C147.596 92.2764 148.103 92.0643 148.477 91.6892C148.85 91.314 149.06 90.8062 149.06 90.2768V81.1514L138.044 92.2788Z" fill="white" stroke="#9683D7" stroke-width="0.931162" stroke-linecap="round" stroke-linejoin="round"/>
<path d="M202.871 97.1021H152.253C150.284 97.1021 148.687 98.6988 148.687 100.668V111.498C148.687 113.468 150.284 115.064 152.253 115.064H202.871C204.841 115.064 206.438 113.468 206.438 111.498V100.668C206.438 98.6988 204.841 97.1021 202.871 97.1021Z" fill="white" stroke="#9683D7" stroke-width="0.931162" stroke-linecap="round" stroke-linejoin="round"/>
<path d="M158.521 109.217C160.238 109.217 161.631 107.824 161.631 106.106C161.631 104.389 160.238 102.996 158.521 102.996C156.803 102.996 155.411 104.389 155.411 106.106C155.411 107.824 156.803 109.217 158.521 109.217Z" fill="#D6CBFF"/>
<path d="M168.298 109.217C170.016 109.217 171.408 107.824 171.408 106.106C171.408 104.389 170.016 102.996 168.298 102.996C166.58 102.996 165.188 104.389 165.188 106.106C165.188 107.824 166.58 109.217 168.298 109.217Z" fill="#D6CBFF"/>
<path d="M178.065 109.217C179.783 109.217 181.175 107.824 181.175 106.106C181.175 104.389 179.783 102.996 178.065 102.996C176.348 102.996 174.955 104.389 174.955 106.106C174.955 107.824 176.348 109.217 178.065 109.217Z" fill="#D6CBFF"/>
<path d="M202.871 117.01H152.253C150.284 117.01 148.687 118.607 148.687 120.577V131.406C148.687 133.376 150.284 134.973 152.253 134.973H202.871C204.841 134.973 206.438 133.376 206.438 131.406V120.577C206.438 118.607 204.841 117.01 202.871 117.01Z" fill="white" stroke="#9683D7" stroke-width="0.931162" stroke-linecap="round" stroke-linejoin="round"/>
<path d="M158.521 129.134C160.238 129.134 161.631 127.742 161.631 126.024C161.631 124.306 160.238 122.914 158.521 122.914C156.803 122.914 155.411 124.306 155.411 126.024C155.411 127.742 156.803 129.134 158.521 129.134Z" fill="#D6CBFF"/>
<path d="M168.298 129.134C170.016 129.134 171.408 127.742 171.408 126.024C171.408 124.306 170.016 122.914 168.298 122.914C166.58 122.914 165.188 124.306 165.188 126.024C165.188 127.742 166.58 129.134 168.298 129.134Z" fill="#D6CBFF"/>
<path d="M178.065 129.134C179.783 129.134 181.175 127.742 181.175 126.024C181.175 124.306 179.783 122.914 178.065 122.914C176.348 122.914 174.955 124.306 174.955 126.024C174.955 127.742 176.348 129.134 178.065 129.134Z" fill="#D6CBFF"/>
<path d="M202.871 136.928H152.253C150.284 136.928 148.687 138.525 148.687 140.494V151.324C148.687 153.293 150.284 154.89 152.253 154.89H202.871C204.841 154.89 206.438 153.293 206.438 151.324V140.494C206.438 138.525 204.841 136.928 202.871 136.928Z" fill="white" stroke="#9683D7" stroke-width="0.931162" stroke-linecap="round" stroke-linejoin="round"/>
<path d="M158.521 149.042C160.238 149.042 161.631 147.65 161.631 145.932C161.631 144.215 160.238 142.822 158.521 142.822C156.803 142.822 155.411 144.215 155.411 145.932C155.411 147.65 156.803 149.042 158.521 149.042Z" fill="#D6CBFF"/>
<path d="M168.298 149.042C170.016 149.042 171.408 147.65 171.408 145.932C171.408 144.215 170.016 142.822 168.298 142.822C166.58 142.822 165.188 144.215 165.188 145.932C165.188 147.65 166.58 149.042 168.298 149.042Z" fill="#D6CBFF"/>
<path d="M178.065 149.042C179.783 149.042 181.175 147.65 181.175 145.932C181.175 144.215 179.783 142.822 178.065 142.822C176.348 142.822 174.955 144.215 174.955 145.932C174.955 147.65 176.348 149.042 178.065 149.042Z" fill="#D6CBFF"/>
<path d="M207.453 119.785C218.113 119.785 226.756 111.143 226.756 100.482C226.756 89.8214 218.113 81.1791 207.453 81.1791C196.792 81.1791 188.15 89.8214 188.15 100.482C188.15 111.143 196.792 119.785 207.453 119.785Z" fill="white" stroke="#9683D7" stroke-width="0.931162" stroke-linecap="round" stroke-linejoin="round"/>
<path d="M221.159 114.487L226.299 119.627" stroke="#9683D7" stroke-width="0.931162" stroke-linecap="round" stroke-linejoin="round"/>
<path d="M225.725 117.132L224.13 118.801C223.412 119.552 223.439 120.742 224.19 121.46L238.055 134.715C238.806 135.433 239.997 135.406 240.715 134.655L242.31 132.986C243.028 132.235 243.001 131.044 242.25 130.327L228.385 117.072C227.634 116.354 226.443 116.381 225.725 117.132Z" fill="white" stroke="#9683D7" stroke-width="0.931162" stroke-linecap="round" stroke-linejoin="round"/>
</svg>
