<svg width="419" height="322" viewBox="0 0 419 322" fill="none" xmlns="http://www.w3.org/2000/svg">
<path d="M47.325 84.5948C51.5145 89.6235 59.9156 99.8577 61.9001 103.06C64.5461 107.361 73.0794 120.012 61.2827 129.873C63.5277 133.559 66.0779 137.092 68.912 140.441C69.1766 140.441 77.4674 126.691 104.192 132.584C104.633 121.328 105.449 103.983 105.405 102.47C105.405 100.506 107.764 61.9657 74.0937 52.8708C40.4234 43.776 19.6743 76.7964 19.6743 76.7964C45.5169 64.5979 53.918 73.0838 47.325 84.5948Z" fill="#D6CBFF"/>
<path d="M17.9323 101.331C17.9323 101.331 36.9614 97.4021 47.369 84.9482C47.369 84.9482 59.2319 98.6986 61.9 103.059C64.568 107.42 73.0793 120.012 61.2826 129.873C63.5276 133.559 66.0778 137.092 68.9119 140.441C68.9119 140.441 78.7021 126.022 104.192 132.799C104.192 132.799 103.111 160.713 106.573 173.52C110.035 186.328 113.188 197.622 126.264 202.415C126.264 202.415 98.4809 217.521 70.6759 208.308C42.8708 199.096 31.6474 185.935 27.7445 177.508C27.7445 177.508 31.1843 154.761 54.4471 150.734C54.4471 150.734 49.3094 138.064 46.2445 135.333C46.2445 135.333 33.0145 137.907 24.9001 125.512C24.9001 125.512 15.8155 127.987 15.2201 122.899C14.4925 116.81 21.6587 117.438 23.6873 117.301C25.7159 117.163 27.7886 116.24 25.8923 112.292C23.6001 108.44 20.9368 104.772 17.9323 101.331Z" fill="white"/>
<path d="M102.912 137.907V139.734C91.2249 141.146 80.1119 145.114 70.565 151.284C70.386 151.383 70.1803 151.437 69.9696 151.441C69.7527 151.441 69.5414 151.38 69.3667 151.265C69.192 151.151 69.0631 150.989 68.999 150.805C68.9348 150.62 68.9388 150.422 69.0103 150.239C69.0818 150.057 69.2171 149.9 69.3963 149.791C79.2879 143.413 90.8062 139.329 102.912 137.907Z" fill="#9683D7"/>
<path d="M63.3995 156.057C52.1484 164.46 42.4721 174.407 34.7345 185.522C34.2935 185.012 33.8525 184.481 33.4336 183.931C41.2411 172.931 50.9187 163.077 62.1206 154.722C62.3235 154.631 62.5548 154.603 62.7775 154.643C63.0002 154.683 63.2014 154.788 63.3488 154.942C63.4962 155.096 63.5814 155.29 63.5906 155.492C63.5998 155.694 63.5325 155.893 63.3995 156.057Z" fill="#9683D7"/>
<path d="M44.5908 197.229L44.9895 197.525C44.8331 197.455 44.6967 197.354 44.5908 197.229Z" fill="#9683D7"/>
<path d="M102.979 154.407C73.675 164.229 50.6327 191.729 46.796 196.503C46.2889 196.129 45.7597 195.756 45.2305 195.344C49.42 190.138 72.9914 162.264 102.891 152.501C102.935 153.13 102.957 153.759 102.979 154.407Z" fill="#9683D7"/>
<path d="M105.492 173.481C90.0924 181.637 77.2524 193.123 68.1612 206.875L66.2649 206.246C66.2561 206.181 66.2561 206.115 66.2649 206.05C75.6425 191.772 88.9738 179.875 104.985 171.497C105.205 172.224 105.337 172.852 105.492 173.481Z" fill="#9683D7"/>
<path d="M111.49 190.57C100.046 196.188 92.2621 206.796 89.7705 210.528H87.4111C89.0869 207.837 97.3998 195.344 110.652 188.92C110.916 189.47 111.203 190.079 111.49 190.57Z" fill="#9683D7"/>
<path d="M47.501 110.662C48.1052 108.897 48.5405 107.09 48.802 105.26C48.4933 105.456 45.5165 107.931 44.392 107.362C44.0833 107.224 43.091 106.89 38.1739 98.6008C38.1116 98.495 38.0734 98.3794 38.0613 98.2604C38.0492 98.1415 38.0635 98.0216 38.1035 97.9076C38.1434 97.7936 38.2081 97.6877 38.294 97.596C38.3798 97.5043 38.4851 97.4285 38.6039 97.3731C38.7226 97.3176 38.8524 97.2835 38.9859 97.2727C39.1194 97.262 39.254 97.2747 39.382 97.3103C39.5099 97.3459 39.6288 97.4036 39.7318 97.4801C39.8347 97.5565 39.9197 97.6503 39.982 97.7561C41.5037 100.467 43.2122 103.091 45.0976 105.613C46.5088 104.926 48.4492 102.706 49.9045 103.158C50.566 103.374 51.9551 103.806 49.5517 111.212C49.4698 111.454 49.2833 111.657 49.0331 111.777C48.7829 111.897 48.4896 111.923 48.2177 111.85C47.9457 111.777 47.7175 111.611 47.5831 111.388C47.4487 111.165 47.4192 110.904 47.501 110.662Z" fill="#5B5180"/>
<path d="M45.6265 120.876C43.0908 120.876 41.3709 118.479 40.3345 116.731C40.2492 116.586 40.21 116.422 40.2211 116.258C40.2321 116.095 40.2931 115.937 40.3973 115.801C40.5016 115.666 40.6453 115.559 40.8129 115.49C40.9805 115.422 41.1658 115.396 41.3488 115.415C44.0025 115.662 46.682 115.576 49.3089 115.16C49.4833 115.124 49.6652 115.128 49.8368 115.174C50.0085 115.219 50.1641 115.303 50.2885 115.418C50.4128 115.532 50.5017 115.674 50.5464 115.828C50.5911 115.983 50.5902 116.145 50.5437 116.299C50.3893 116.751 49.353 120.797 45.6265 120.876ZM43.1128 117.399C44.083 118.676 45.0312 119.363 45.7588 119.363C46.4865 119.363 47.3905 118.342 47.9638 117.399C46.3489 117.504 44.7277 117.504 43.1128 117.399Z" fill="#5B5180"/>
<path d="M125.691 201.217C122.052 200.392 115.217 196.857 110.101 182.32C100.951 156.293 106.441 125.59 106.441 107.676C106.441 79.7822 98.4809 53.6762 67.3463 50.8672C46.8839 48.9028 29.4864 60.6888 18.9906 76.0107C16.6139 77.1584 14.343 78.472 12.1992 79.9393C5.23144 84.7716 -12.4968 104.002 14.4042 120.365C13.9822 121.253 13.8915 122.238 14.1456 123.176C14.3997 124.113 14.9851 124.952 15.8154 125.571C10.9257 132.922 8.87338 141.498 9.97219 149.987C11.648 161.145 21.4382 173.068 26.5758 177.272C41.5257 203.083 69.0662 209.978 80.5763 211.785C94.7104 213.966 112.747 209.448 125.977 204.517C126.354 204.373 126.67 204.128 126.882 203.816C127.095 203.504 127.192 203.14 127.16 202.776C127.128 202.412 126.97 202.066 126.706 201.787C126.443 201.507 126.088 201.308 125.691 201.217ZM67.1479 52.6744C97.0918 55.4048 104.412 80.8626 104.412 107.676C104.412 113.981 103.663 122.487 103.2 131.483C98.7896 130.442 79.9148 126.926 69.0221 139.144C66.547 136.269 64.3838 133.191 62.5614 129.951C65.9173 127.111 67.9419 123.244 68.2283 119.128C68.9118 105.751 56.8284 95.7915 49.2873 84.6341C50.4612 82.3831 50.9552 79.8982 50.7206 77.425C49.8386 67.014 34.6241 69.4498 22.5848 74.4195C28.9572 66.189 44.1056 50.6118 67.1479 52.6744ZM11.3613 94.2397C21.5264 92.845 31.5371 86.7556 38.6592 80.4893C39.2987 79.9 40.335 80.8036 39.6735 81.3733C26.1128 93.4539 12.1772 95.4772 11.5818 95.5558C11.4848 95.5687 11.3859 95.5644 11.2908 95.5433C11.1956 95.5221 11.1061 95.4845 11.0272 95.4325C10.868 95.3275 10.7622 95.1705 10.7329 94.9959C10.7184 94.9095 10.7232 94.8214 10.747 94.7366C10.7707 94.6519 10.813 94.5721 10.8713 94.5019C10.9892 94.36 11.1654 94.2657 11.3613 94.2397ZM17.9763 83.8287C18.3291 83.5537 26.7963 77.5625 33.698 76.7964C33.8851 76.7756 34.0739 76.8218 34.2228 76.9249C34.3716 77.0281 34.4684 77.1797 34.4918 77.3464C34.5152 77.5131 34.4633 77.6813 34.3475 77.8139C34.2317 77.9465 34.0615 78.0327 33.8744 78.0536C27.3696 78.7804 18.9906 84.7519 18.8804 84.8109C18.0866 85.3216 17.1825 84.3394 17.9102 83.8287H17.9763ZM9.77374 108.147C7.93505 106.379 6.44416 104.346 5.36374 102.136C5.36218 102.006 5.40479 101.878 5.48602 101.77C5.56726 101.661 5.68332 101.577 5.81907 101.528C5.95481 101.479 6.10392 101.468 6.24691 101.496C6.3899 101.524 6.52013 101.59 6.62059 101.685C7.61199 103.74 8.98343 105.632 10.6778 107.283C11.4275 107.794 10.4352 108.736 9.77374 108.147ZM23.3786 154.368C19.608 146.334 21.1736 134.509 21.2838 133.998C21.3072 133.831 21.404 133.679 21.5529 133.576C21.7017 133.473 21.8905 133.427 22.0776 133.448C22.2648 133.469 22.435 133.555 22.5507 133.687C22.6665 133.82 22.7184 133.988 22.695 134.155C22.695 134.292 21.1074 146.177 24.7016 153.798C24.7864 153.955 24.798 154.134 24.7339 154.298C24.6698 154.462 24.5353 154.597 24.3598 154.672C24.1844 154.748 23.9824 154.758 23.7984 154.701C23.6144 154.644 23.4634 154.524 23.3786 154.368ZM25.4072 124.176C24.1944 123.921 21.4161 125.492 19.608 125.139C19.0289 125.129 18.4615 124.991 17.9567 124.738C17.4519 124.485 17.0253 124.124 16.7152 123.688C16.405 123.252 16.2209 122.755 16.1793 122.24C16.1378 121.725 16.24 121.209 16.4769 120.739C16.962 119.678 18.4173 117.792 22.7832 118.774C23.5458 118.978 24.3561 118.994 25.128 118.82C25.8999 118.647 26.6048 118.29 27.1677 117.789C27.7306 117.287 28.1307 116.66 28.3254 115.972C28.5201 115.284 28.5023 114.562 28.2737 113.883C27.4358 111.113 19.8506 101.881 19.8506 101.881C19.8506 101.881 40.5996 97.2058 48.0966 86.5002C55.748 97.4612 66.751 106.713 66.1115 119.069C65.6705 127.358 56.6079 131.758 56.5197 131.817C56.3048 131.94 56.1494 132.129 56.0845 132.349C56.0196 132.569 56.0499 132.802 56.1695 133.003C56.2891 133.203 56.4891 133.357 56.7297 133.432C56.9703 133.507 57.2339 133.499 57.4679 133.409C58.6883 132.794 59.8401 132.077 60.9077 131.267C62.9528 134.68 65.3286 137.927 68.0078 140.971C68.1401 146.098 68.9118 153.798 69.2867 157.177C65.6484 155.507 60.2021 153.248 56.5197 151.598C55.9685 150.302 49.9047 136.709 47.6997 134.803C45.4947 132.898 40.335 135.235 33.8523 131.68C27.3696 128.124 26.9286 124.49 25.4072 124.176ZM33.4554 146.55C32.2404 144.057 31.4954 141.402 31.2504 138.693C31.2602 138.537 31.3322 138.391 31.4533 138.279C31.5743 138.167 31.7364 138.098 31.9101 138.083C32.0837 138.069 32.2573 138.111 32.3993 138.201C32.5413 138.291 32.6422 138.424 32.6837 138.575C32.9465 141.093 33.6534 143.559 34.7784 145.882C34.8779 146.038 34.9035 146.223 34.8498 146.397C34.796 146.57 34.6672 146.717 34.4918 146.805C34.3164 146.894 34.1086 146.917 33.9143 146.869C33.7199 146.821 33.5549 146.706 33.4554 146.55ZM80.9291 209.998C69.9041 208.269 43.4441 201.65 28.8029 177.135C29.7951 172.342 34.3815 157.216 53.0579 152.089C56.3874 153.504 65.891 157.55 70.1026 159.554C70.2673 159.628 70.4512 159.661 70.6354 159.651C70.8196 159.64 70.9973 159.586 71.1501 159.494C71.303 159.402 71.4254 159.275 71.5049 159.127C71.5843 158.979 71.6178 158.814 71.602 158.65C71.602 158.65 70.3231 147.552 70.1687 140.971C80.6204 128.301 100.091 132.583 103.244 133.369C102.494 149.084 102.648 166.763 108.315 182.89C111.138 190.885 116.319 200.824 125.139 202.946C116.871 205.951 96.8051 212.473 80.9291 209.998Z" fill="#5B5180"/>
<path d="M29.8938 106.326C29.9965 106.553 30.1379 106.764 30.3099 106.947C30.4819 107.129 30.6811 107.28 30.8962 107.389C31.1114 107.499 31.3381 107.566 31.5636 107.586C31.7891 107.607 32.0089 107.58 32.2105 107.508C32.412 107.436 32.5913 107.319 32.7382 107.165C32.8851 107.012 32.9967 106.824 33.0666 106.612C33.1365 106.4 33.1633 106.168 33.1456 105.931C33.1278 105.693 33.0658 105.453 32.9632 105.226C32.8605 104.999 32.7191 104.788 32.5471 104.605C32.3751 104.423 32.1758 104.272 31.9607 104.163C31.7456 104.053 31.5188 103.986 31.2933 103.966C31.0678 103.945 30.848 103.972 30.6465 104.044C30.445 104.116 30.2656 104.233 30.1187 104.387C29.9718 104.54 29.8602 104.728 29.7904 104.94C29.7205 105.152 29.6936 105.384 29.7114 105.621C29.7291 105.859 29.7911 106.099 29.8938 106.326Z" fill="#5B5180"/>
<path d="M45.8342 97.2377C46.0416 97.6969 46.4022 98.0795 46.8367 98.3011C47.2711 98.5227 47.7439 98.5653 48.1509 98.4194C48.5579 98.2735 48.8659 97.9512 49.007 97.5233C49.1482 97.0953 49.111 96.5969 48.9036 96.1376C48.8009 95.9102 48.6595 95.6992 48.4875 95.5168C48.3155 95.3343 48.1163 95.1839 47.9011 95.0742C47.4667 94.8525 46.994 94.81 46.5869 94.9559C46.1799 95.1017 45.8719 95.4241 45.7308 95.852C45.5896 96.2799 45.6268 96.7784 45.8342 97.2377Z" fill="#5B5180"/>
<path d="M32.419 116.631C32.4871 116.804 32.603 116.96 32.7601 117.09C32.9172 117.221 33.1124 117.322 33.3345 117.39C33.5567 117.458 33.8014 117.49 34.0547 117.485C34.3081 117.48 34.565 117.438 34.811 117.361C35.057 117.284 35.2872 117.174 35.4884 117.037C35.6895 116.899 35.8578 116.738 35.9836 116.561C36.1093 116.384 36.1901 116.196 36.2212 116.007C36.2524 115.818 36.2334 115.631 36.1652 115.458C36.0993 115.284 35.9848 115.125 35.8283 114.993C35.6718 114.861 35.4764 114.757 35.2535 114.688C35.0306 114.619 34.7845 114.586 34.5296 114.59C34.2747 114.595 34.016 114.637 33.7684 114.715C33.5208 114.792 33.2893 114.903 33.0873 115.042C32.8853 115.181 32.7167 115.344 32.5914 115.522C32.4661 115.7 32.3866 115.89 32.3573 116.08C32.3281 116.271 32.3498 116.458 32.4212 116.631" fill="white"/>
<path d="M55.1456 104.767C55.239 105.127 55.5323 105.431 55.961 105.611C56.3896 105.792 56.9186 105.834 57.4315 105.728C57.9443 105.623 58.3991 105.378 58.6957 105.049C58.9924 104.719 59.1065 104.332 59.0131 103.971C58.9669 103.793 58.8711 103.627 58.7312 103.482C58.5913 103.337 58.41 103.216 58.1978 103.127C57.9855 103.038 57.7464 102.981 57.4941 102.961C57.2418 102.941 56.9812 102.958 56.7272 103.01C56.2144 103.116 55.7596 103.36 55.463 103.689C55.1664 104.019 55.0522 104.407 55.1456 104.767Z" fill="white"/>
<path d="M18.9468 121.524C18.9468 121.743 19.0885 121.952 19.3407 122.107C19.593 122.262 19.9351 122.349 20.2918 122.349C20.6486 122.349 20.9907 122.262 21.2429 122.107C21.4952 121.952 21.6369 121.743 21.6369 121.524C21.6369 121.305 21.4952 121.095 21.2429 120.941C20.9907 120.786 20.6486 120.699 20.2918 120.699C19.9351 120.699 19.593 120.786 19.3407 120.941C19.0885 121.095 18.9468 121.305 18.9468 121.524Z" fill="#5B5180"/>
<path d="M257.043 124.058C253.845 127.731 229.458 127.201 204.123 127.299C199.713 127.299 192.767 140.244 190.518 144.664C190.469 144.78 190.381 144.879 190.267 144.95C190.153 145.02 190.017 145.058 189.878 145.058C189.74 145.058 189.604 145.02 189.49 144.95C189.375 144.879 189.288 144.78 189.239 144.664C187.563 139.969 182.381 125.944 180.11 125.944C153.827 125.944 130.961 126.081 127.19 122.919C119.076 116.043 116.54 34.8968 123.309 26.2537C130.079 17.6107 241.63 18.1803 254.882 23.9948C261.056 26.7055 260.901 47.3703 261.497 70.1566C262.136 95.7912 261.651 118.813 257.043 124.058Z" fill="#D6CBFF"/>
<path d="M172.767 32.9331C172.767 32.9331 169.261 51.6728 174.818 58.9998C180.374 66.3268 187.099 66.3268 187.099 66.3268V78.1128L194.574 88.2487L204.806 77.052C203.461 72.9303 202.808 68.6543 202.865 64.3624C207.256 60.4405 210.215 55.4287 211.354 49.9835C211.468 49.4421 211.728 48.9336 212.112 48.5022C212.497 48.0708 212.993 47.7297 213.56 47.5084C214.958 47.1498 216.169 46.3608 216.977 45.2818C217.784 44.2028 218.136 42.9037 217.97 41.6154C217.308 38.2761 212.214 37.8439 210.362 37.6868C207.275 37.2743 201.542 33.2081 200.528 25.999C200.528 25.999 193.913 27.9633 188.952 19.9292C188.952 19.9292 185.468 28.0026 179.029 26.6079C178.809 26.6865 178.213 32.4027 172.767 32.9331Z" fill="white"/>
<path d="M131.137 65.3836C131.137 65.3836 127.587 58.1352 129.637 57.1727C131.688 56.2102 135.304 63.0657 135.304 63.0657C135.304 63.0657 142.25 60.3353 144.124 62.1228C145.998 63.9104 142.338 65.7961 142.338 65.7961C142.338 65.7961 146.439 64.0282 147.718 65.5801C148.997 67.1319 144.874 70.2552 144.874 70.2552C144.874 70.2552 148.468 69.4694 149.571 70.9427C150.938 72.7695 145.447 75.3624 145.447 75.3624C145.447 75.3624 148.468 74.9696 149.284 76.4035C150.298 78.2107 145.602 80.5876 142.537 81.8644C139.472 83.1412 132.636 85.4395 135.304 80.2144C134.705 80.1745 134.125 80.0036 133.617 79.7168C133.109 79.4301 132.689 79.0363 132.392 78.5702C132.096 78.1042 131.933 77.5803 131.918 77.0448C131.902 76.5093 132.036 75.9787 132.305 75.4999C132.305 75.4999 128.844 75.2249 129.924 71.5713C129.88 71.5713 124.764 70.2552 131.137 65.3836Z" fill="white"/>
<path d="M137.818 125.119C137.818 125.119 134.687 103.217 135.767 88.1702C135.767 88.1702 145.072 84.4183 152.569 85.4987L153.914 89.8988C153.914 89.8988 168.181 72.2198 186.681 77.6806L194.575 88.1505L204.806 76.9538C204.806 76.9538 219.8 74.1841 229.325 81.6289C238.851 89.0738 246.238 96.6757 249.325 126.318C249.325 126.318 211.421 128.478 204.034 127.3C204.034 127.3 198.191 128.478 189.812 144.979C189.812 144.979 183.858 129.087 179.978 125.964C180.022 126.003 158.016 126.337 137.818 125.119Z" fill="white"/>
<path d="M186.504 46.821C180.926 42.5191 181.234 42.1066 181.852 41.2422C182.249 40.6726 186.791 40.6726 187.276 40.6137C187.541 39.494 187.849 35.9385 188.026 32.8938C188.026 32.6542 188.133 32.4243 188.323 32.2549C188.513 32.0854 188.771 31.9902 189.04 31.9902C189.309 31.9902 189.567 32.0854 189.757 32.2549C189.948 32.4243 190.054 32.6542 190.054 32.8938C189.591 41.5173 189.04 41.8315 188.533 42.0869C187.145 42.3291 185.736 42.4606 184.321 42.4798C185.203 43.2655 186.526 44.4441 187.827 45.3674C189.128 46.2906 187.431 47.6067 186.504 46.821Z" fill="#5B5180"/>
<path d="M186.438 53.6959C185.597 53.5653 184.799 53.2703 184.101 52.8322C183.404 52.394 182.824 51.8236 182.403 51.1619C182.336 51.0587 182.293 50.9448 182.276 50.8268C182.259 50.7088 182.268 50.5889 182.303 50.4739C182.338 50.359 182.397 50.2514 182.479 50.1571C182.56 50.0628 182.662 49.9837 182.778 49.9243C182.894 49.865 183.021 49.8266 183.154 49.8113C183.286 49.7959 183.421 49.804 183.55 49.835C183.679 49.866 183.8 49.9194 183.906 49.992C184.012 50.0646 184.1 50.1551 184.167 50.2583C184.443 50.7367 184.853 51.1431 185.358 51.4376C185.863 51.7322 186.446 51.9047 187.048 51.9384C187.651 51.9721 188.253 51.8657 188.795 51.6297C189.338 51.3937 189.802 51.0362 190.143 50.5922C191.091 49.8065 192.502 51.1226 191.532 51.9083C190.914 52.5569 190.125 53.0594 189.237 53.3712C188.348 53.6831 187.387 53.7946 186.438 53.6959Z" fill="#5B5180"/>
<path d="M211.972 43.8541C211.764 43.8547 211.561 43.7985 211.39 43.693C211.22 43.5875 211.089 43.4379 211.017 43.2644C210.945 43.0909 210.934 42.9018 210.987 42.7228C211.039 42.5437 211.152 42.3833 211.31 42.2633C211.787 41.9041 212.313 41.6005 212.876 41.3598C213 41.3173 213.133 41.297 213.266 41.3001C213.4 41.3032 213.531 41.3297 213.653 41.378C213.775 41.4264 213.885 41.4956 213.976 41.5818C214.068 41.668 214.14 41.7694 214.188 41.8803C214.236 41.9912 214.258 42.1094 214.255 42.2281C214.251 42.3469 214.222 42.4638 214.167 42.5724C214.113 42.6809 214.035 42.7788 213.939 42.8606C213.842 42.9423 213.728 43.0063 213.603 43.0489C213.257 43.2134 212.932 43.411 212.633 43.638C212.545 43.7117 212.441 43.7687 212.327 43.8058C212.213 43.8429 212.093 43.8593 211.972 43.8541Z" fill="#5B5180"/>
<path d="M150.85 71.768C150.982 71.2376 150.85 68.9394 147.322 69.3519C149.373 67.3875 149.218 66.1107 148.91 65.5214C148.561 64.9193 147.985 64.4458 147.284 64.1837C146.582 63.9215 145.8 63.8874 145.073 64.0875C145.293 63.7339 146.33 60.1588 140.994 60.7874C139.248 61.0021 137.542 61.4249 135.922 62.0445C133.188 57.6248 131.005 55.6408 129.462 56.289C127.257 57.2319 129.351 63.3606 130.189 65.1285C126.639 67.2893 126.639 69.5679 127.146 70.6876C127.494 71.3866 128.135 71.9365 128.932 72.2198C127.786 75.4806 130.344 75.8931 131.27 76.1485C130.994 76.5989 130.85 77.1043 130.852 77.6175C130.854 78.1307 131.001 78.6351 131.281 79.0839C131.56 79.5327 131.962 79.9114 132.45 80.1846C132.938 80.4578 133.495 80.6168 134.07 80.6468C132.306 84.3201 135.547 84.3201 136.518 84.3201C140.619 84.3201 147.543 80.2539 147.543 80.2146C149.748 78.9575 150.828 77.2681 150.299 76.011C150.034 75.402 149.483 74.9306 147.962 74.6949C149.241 74.0093 150.251 72.9866 150.85 71.768ZM130.233 58.0177C131.786 59.4042 133.081 61.0022 134.07 62.7517C133.308 63.1029 132.571 63.4966 131.865 63.9303C130.894 62.0938 130.339 60.1045 130.233 58.0766V58.0177ZM141.788 76.1485C140.817 76.6199 141.435 78.1128 142.515 77.7592L145.227 76.561C149.637 75.0877 148.711 77.6806 146.705 78.761C142.758 80.8629 136.54 83.2986 135.856 82.4343C135.173 81.57 136.848 80.47 136.848 80.47C137.022 80.3493 137.146 80.1817 137.203 79.9925C137.26 79.8032 137.247 79.6026 137.164 79.4208C137.082 79.2391 136.936 79.086 136.748 78.9847C136.56 78.8834 136.339 78.8394 136.121 78.8592C134.577 78.9771 133.541 78.8592 133.188 78.3289C132.835 77.7985 133.188 76.3645 133.563 75.9324C133.638 75.8031 133.678 75.6598 133.679 75.5142C133.68 75.3685 133.643 75.2247 133.57 75.0944C133.497 74.9642 133.39 74.8512 133.259 74.7647C133.127 74.6781 132.974 74.6206 132.813 74.5966C132.465 74.5974 132.122 74.5249 131.812 74.3849C131.501 74.2449 131.232 74.0415 131.027 73.7913C130.878 73.4809 130.801 73.1467 130.801 72.8091C130.801 72.4714 130.878 72.1373 131.027 71.8269C131.085 71.6986 131.111 71.5604 131.102 71.4222C131.094 71.284 131.051 71.1491 130.977 71.0273C130.904 70.9054 130.801 70.7995 130.676 70.717C130.551 70.6345 130.408 70.5776 130.255 70.5501C129.969 70.5501 127.499 70.0197 130.013 67.6036C133.016 64.9274 136.861 63.126 141.038 62.4374C143.022 62.2213 144.676 62.8892 140.376 65.3839C140.376 65.3839 138.656 66.4447 137.774 66.8965C137.54 67.0163 137.37 67.214 137.299 67.4461C137.229 67.6781 137.265 67.9256 137.4 68.134C137.534 68.3424 137.756 68.4946 138.016 68.5573C138.277 68.6199 138.555 68.5877 138.789 68.4679C139.362 68.1733 140.42 67.6036 141.523 66.8965C142.625 66.1893 145.933 64.5392 146.903 66.1107C147.256 66.6804 145.536 68.2911 143.044 70.0394C143.044 70.0394 140.641 71.5519 139.34 72.2198C139.16 72.3269 139.022 72.4815 138.945 72.6621C138.869 72.8426 138.858 73.04 138.914 73.2264C138.97 73.4128 139.09 73.5789 139.257 73.7014C139.425 73.8238 139.631 73.8965 139.847 73.9091C140.024 73.9091 147.19 69.5483 149.064 71.2769C149.946 71.9251 145.382 74.4591 141.788 76.1485Z" fill="#5B5180"/>
<path d="M198.125 47.3901C198.125 47.7964 198.371 48.1862 198.81 48.4735C199.248 48.7608 199.842 48.9223 200.462 48.9223C201.082 48.9223 201.677 48.7608 202.115 48.4735C202.553 48.1862 202.8 47.7964 202.8 47.3901C202.8 46.9837 202.553 46.594 202.115 46.3067C201.677 46.0193 201.082 45.8579 200.462 45.8579C199.842 45.8579 199.248 46.0193 198.81 46.3067C198.371 46.594 198.125 46.9837 198.125 47.3901Z" fill="white"/>
<path d="M176.096 46.2905C176.096 46.676 176.319 47.0458 176.716 47.3184C177.113 47.591 177.652 47.7441 178.213 47.7441C178.774 47.7441 179.313 47.591 179.71 47.3184C180.107 47.0458 180.33 46.676 180.33 46.2905C180.33 45.905 180.107 45.5353 179.71 45.2627C179.313 44.9901 178.774 44.8369 178.213 44.8369C177.652 44.8369 177.113 44.9901 176.716 45.2627C176.319 45.5353 176.096 45.905 176.096 46.2905Z" fill="white"/>
<path d="M262.4 70.1374C261.805 46.3886 262.003 26.156 255.234 23.1898C251.243 21.4416 239.446 20.204 224.849 19.4969C224.941 18.3834 224.737 17.2663 224.254 16.2361C222.049 11.561 214.331 13.4467 214.331 13.4467C214.331 13.4467 215.478 6.80729 211.377 4.33223C207.275 1.85716 202.314 4.17508 200.55 5.90369C199.791 4.09915 198.408 2.55601 196.601 1.49687C194.794 0.437719 192.656 -0.0826958 190.495 0.0106891C188.401 -0.00534947 186.383 0.712655 184.878 2.00984C183.372 3.30702 182.499 5.07943 182.447 6.94479C180.566 5.62482 178.197 4.98131 175.809 5.14133C173.421 5.30135 171.187 6.25325 169.548 7.80909C168.042 8.96352 167.026 10.5427 166.669 12.2834C166.312 14.0241 166.636 15.8213 167.585 17.3754C165.501 17.4931 163.507 18.1788 161.874 19.3397C155.259 19.654 126.197 20.8916 122.427 25.7435C115.481 34.7205 117.863 116.103 126.44 123.508C130.85 127.26 183.329 126.769 179.911 126.769C181.036 127.417 184.057 133.291 188.202 144.861C188.315 145.143 188.519 145.389 188.787 145.569C189.056 145.749 189.378 145.855 189.713 145.874C190.049 145.892 190.383 145.823 190.675 145.675C190.967 145.526 191.203 145.304 191.355 145.037C196.471 134.98 201.586 128.203 204.056 128.203C229.325 128.203 254.22 128.714 257.814 124.628C261.915 119.992 263.348 103.197 262.4 70.1374ZM172.988 44.2475C172.988 44.2475 172.988 45.2493 173.627 34.6223C174.755 34.4253 175.814 33.991 176.715 33.3554C177.617 32.7198 178.335 31.9015 178.809 30.9686C180.555 30.7622 182.332 30.9583 183.968 31.5383C184.21 31.6161 184.476 31.6093 184.713 31.5192C184.949 31.4291 185.138 31.2623 185.242 31.0527C185.345 30.8431 185.356 30.6063 185.271 30.3901C185.186 30.1739 185.012 29.9945 184.784 29.8882C183.141 29.2634 181.366 28.9619 179.581 29.0043C179.696 28.6234 179.785 28.2362 179.845 27.8453C181.818 27.977 183.78 27.4892 185.391 26.4666C187.002 25.4439 188.161 23.951 188.665 22.247C188.665 22.247 192.744 28.69 199.315 27.531C199.58 28.7124 199.986 29.8649 200.528 30.9686C199.079 30.6955 197.594 30.6095 196.118 30.7132C195.849 30.7132 195.591 30.8084 195.401 30.9779C195.211 31.1473 195.104 31.3772 195.104 31.6168C195.104 31.8565 195.211 32.0863 195.401 32.2558C195.591 32.4252 195.849 32.5204 196.118 32.5204C198.039 32.3842 199.97 32.6118 201.785 33.1883C202.609 34.6128 203.772 35.8602 205.193 36.8439C206.613 37.8277 208.257 38.5241 210.01 38.8849C213.934 39.6313 215.787 39.2974 216.316 42.126C216.889 45.3868 212.192 45.7404 210.936 47.0761C210.01 48.0387 208.863 52.9691 207.76 56.446C206.633 58.8842 204.925 61.0756 202.755 62.8694C202.056 63.5032 201.668 64.3578 201.675 65.2462C201.837 69.0668 202.533 72.8544 203.747 76.5215L194.641 86.3432L188.246 77.818V67.3088C190.231 67.5102 192.24 67.4373 194.2 67.0927C194.329 67.0617 194.449 67.0085 194.555 66.936C194.661 66.8634 194.749 66.773 194.816 66.67C194.883 66.5669 194.926 66.4532 194.943 66.3353C194.96 66.2174 194.951 66.0976 194.916 65.9828C194.882 65.8681 194.822 65.7605 194.74 65.6663C194.659 65.5721 194.558 65.4931 194.442 65.4338C194.326 65.3745 194.198 65.3361 194.066 65.3208C193.934 65.3054 193.799 65.3135 193.67 65.3444C190.932 65.7895 188.115 65.6667 185.438 64.9854C182.761 64.304 180.297 63.0826 178.235 61.4158C171.576 56.2692 172.988 44.3653 172.988 44.2475ZM127.895 122.192C120.266 115.749 117.642 35.1723 124.147 26.7649C126.109 24.2506 139.78 22.2273 160.287 21.2255C156.847 29.0828 164.697 30.6739 164.697 30.6739C164.697 30.6739 158.082 41.5367 170.827 46.9779C170.827 51.1227 171.554 58.6461 176.846 62.6926C179.51 64.7851 182.715 66.2564 186.173 66.9748V76.2661C181.056 75.5008 175.806 75.8788 170.893 77.3662C164.483 79.5309 158.905 83.2871 154.818 88.1896C154.818 87.9343 154.444 86.4021 154.444 86.4021C154.31 85.7867 153.94 85.2322 153.396 84.8341C152.853 84.436 152.17 84.2195 151.467 84.2217C146.361 84.4703 141.327 85.4109 136.539 87.011C135.953 87.1894 135.444 87.525 135.08 87.9717C134.717 88.4184 134.518 88.9542 134.51 89.5057C134.268 110.387 135.988 120.778 136.715 124.117C132.129 123.724 128.976 123.096 127.895 122.192ZM138.92 124.294C138.369 121.78 136.407 111.349 136.715 89.5254C136.726 89.351 136.791 89.1828 136.904 89.0402C137.017 88.8977 137.174 88.7867 137.355 88.72C141.942 87.253 146.736 86.3605 151.599 86.0682C151.829 86.0592 152.055 86.1234 152.237 86.2494C152.419 86.3754 152.544 86.5548 152.591 86.7557C152.591 86.7557 159.383 119.756 160.706 124.923C152.15 124.864 144.587 124.707 138.92 124.294ZM190.01 143.564C183.395 124.962 181.19 124.962 180.176 124.962H162.756C161.985 122.251 155.303 90.8415 155.458 90.6451C155.612 90.4486 161.83 82.002 171.62 79.1341C176.208 77.7484 181.11 77.3974 185.887 78.1126L193.494 88.3664L194.354 135.785C193.009 137.848 191.532 140.441 189.9 143.564H190.01ZM234.507 126.219C233.838 119.959 232.785 113.736 231.354 107.578C231.133 106.497 229.149 106.694 229.369 107.912C230.73 113.969 231.731 120.087 232.368 126.239C226.569 126.239 207.386 126.357 204.078 126.376C202.468 126.376 199.977 127.712 196.316 132.78L195.523 88.3271L205.357 77.6215C208.157 77.2287 227.583 75.0679 237.859 91.0183C247.472 105.908 248.288 122.958 248.377 125.512C244.606 125.905 239.777 126.101 234.397 126.219H234.507ZM256.359 123.508C254.646 124.608 252.603 125.223 250.493 125.276C250.493 121.976 249.369 105.004 239.733 90.1147C229.303 73.9482 210.076 75.2447 205.644 75.7751C204.536 72.3675 203.906 68.8507 203.769 65.3052C203.759 65.1093 203.794 64.9136 203.874 64.7308C203.954 64.548 204.076 64.3823 204.232 64.2444C205.942 62.7535 207.424 61.0695 208.642 59.2354C210.426 60.1867 212.445 60.7326 214.522 60.8251C216.598 60.9176 218.668 60.5538 220.549 59.7657C227.164 56.9567 223.835 49.6887 223.835 49.6887C223.835 49.6887 232.104 50.003 232.412 43.7957C232.5 42.9593 232.401 42.1156 232.121 41.3134C231.841 40.5112 231.386 39.7663 230.781 39.1217C230.176 38.4771 229.434 37.9455 228.598 37.5576C227.762 37.1697 226.847 36.9331 225.908 36.8616C226.763 36.7175 227.577 36.4209 228.3 35.9895C229.024 35.5582 229.642 35.0011 230.118 34.3516C230.593 33.7022 230.917 32.9737 231.069 32.2101C231.221 31.4465 231.198 30.6634 231.001 29.9079C229.965 24.0148 222.181 24.6827 222.181 24.6827C223.183 23.6823 223.934 22.504 224.386 21.2255C239.557 21.9719 250.846 23.1898 254.264 24.7417C259.313 26.9614 259.732 44.9154 260.173 63.9105C260.526 73.0053 262.4 116.614 256.248 123.508H256.359Z" fill="#5B5180"/>
<path d="M196.515 37.3527C196.515 37.8372 196.687 38.3019 196.993 38.6445C197.299 38.9871 197.714 39.1795 198.146 39.1795C198.579 39.1795 198.994 38.9871 199.3 38.6445C199.606 38.3019 199.778 37.8372 199.778 37.3527C199.778 36.8682 199.606 36.4035 199.3 36.0609C198.994 35.7184 198.579 35.5259 198.146 35.5259C197.714 35.5259 197.299 35.7184 196.993 36.0609C196.687 36.4035 196.515 36.8682 196.515 37.3527Z" fill="#5B5180"/>
<path d="M179.294 36.0168C179.294 36.4805 179.459 36.9252 179.753 37.253C180.047 37.5809 180.445 37.7651 180.86 37.7651C181.275 37.7651 181.673 37.5809 181.967 37.253C182.261 36.9252 182.426 36.4805 182.426 36.0168C182.426 35.5531 182.261 35.1085 181.967 34.7806C181.673 34.4527 181.275 34.2686 180.86 34.2686C180.445 34.2686 180.047 34.4527 179.753 34.7806C179.459 35.1085 179.294 35.5531 179.294 36.0168Z" fill="#5B5180"/>
<path d="M187.739 96.0862C187.739 96.4247 187.862 96.7494 188.081 96.9888C188.3 97.2282 188.597 97.3627 188.907 97.3627C189.217 97.3627 189.515 97.2282 189.734 96.9888C189.953 96.7494 190.076 96.4247 190.076 96.0862C190.076 95.7476 189.953 95.4229 189.734 95.1835C189.515 94.9441 189.217 94.8096 188.907 94.8096C188.597 94.8096 188.3 94.9441 188.081 95.1835C187.862 95.4229 187.739 95.7476 187.739 96.0862Z" fill="#5B5180"/>
<path d="M187.519 107.145C187.519 107.484 187.642 107.809 187.861 108.048C188.08 108.287 188.377 108.422 188.687 108.422C188.997 108.422 189.294 108.287 189.514 108.048C189.733 107.809 189.856 107.484 189.856 107.145C189.856 106.807 189.733 106.482 189.514 106.243C189.294 106.003 188.997 105.869 188.687 105.869C188.377 105.869 188.08 106.003 187.861 106.243C187.642 106.482 187.519 106.807 187.519 107.145Z" fill="#5B5180"/>
<path d="M187.519 118.224C187.519 118.562 187.642 118.887 187.861 119.127C188.08 119.366 188.377 119.5 188.687 119.5C188.997 119.5 189.294 119.366 189.514 119.127C189.733 118.887 189.856 118.562 189.856 118.224C189.856 117.885 189.733 117.561 189.514 117.321C189.294 117.082 188.997 116.947 188.687 116.947C188.377 116.947 188.08 117.082 187.861 117.321C187.642 117.561 187.519 117.885 187.519 118.224Z" fill="#5B5180"/>
<path d="M293.601 87.6002C293.601 87.6002 315.982 60.2174 352.938 61.121C362.64 61.3764 380.302 58.6656 399.75 77.7786C425.614 103.315 419.308 135.275 410.422 148.023C410.422 148.023 395.737 111.899 366.587 108.619L365.506 111.506C365.506 111.506 355.01 118.362 348.395 107.361C348.395 107.361 324.669 105.024 305.089 132.898C305.089 132.898 297.791 96.9504 295.145 94.0039C295.145 94.0039 293.799 93.8272 292.785 93.7682C293.222 91.7322 293.495 89.671 293.601 87.6002Z" fill="#D6CBFF"/>
<path d="M299.378 159.849C299.378 159.849 310.403 170.495 321.186 173.756C321.186 173.756 324.449 153.74 324.515 152.148C324.515 152.129 307.757 160.399 299.378 159.849Z" fill="#D6CBFF"/>
<path d="M362.639 50.062C362.639 50.062 350.931 62.2802 346.411 73.8304C341.89 85.3807 340.17 90.8612 353.467 97.5596C352.266 101.116 350.562 104.522 348.395 107.696C348.395 107.696 353.577 118.519 365.55 111.624C366.32 108.032 367.471 104.513 368.99 101.115C373.829 98.8727 378.041 95.6908 381.316 91.8041C381.316 91.8041 388.945 94.4363 391.437 91.5291C393.113 89.5648 390.533 86.2058 388.063 84.1039C387.173 83.3721 386.555 82.4159 386.291 81.363C386.027 80.3101 386.13 79.2105 386.586 78.2109C387.424 76.2466 388.548 74.4787 389.408 72.5536C389.758 71.7651 389.764 70.8887 389.425 70.0964C389.086 69.3041 388.428 68.6532 387.578 68.2714C382.705 66.091 373.444 61.7105 369.828 58.4497C366.963 55.999 364.538 53.17 362.639 50.062Z" fill="white"/>
<path d="M284.627 94.6523C284.627 94.6523 290.007 94.2987 292.786 93.7684C292.786 93.7684 294.991 86.1664 292.587 84.3592C290.184 82.552 286.59 83.2395 284.252 83.3574C279.975 83.5735 276.27 76.0894 274.705 73.5357C273.139 70.9821 269.214 67.6427 268.861 72.7893C268.849 76.9848 270.549 81.0411 273.646 84.2021C275.741 85.97 283.569 88.7004 284.627 94.6523Z" fill="white"/>
<path d="M366.19 62.7901C366.049 62.7902 365.909 62.764 365.78 62.7133C365.651 62.6625 365.535 62.5884 365.44 62.4955C364.313 61.4825 362.867 60.7978 361.294 60.5316C361.037 60.4892 360.808 60.3598 360.655 60.1704C360.502 59.981 360.438 59.7463 360.475 59.5154C360.512 59.2845 360.647 59.0753 360.854 58.9316C361.06 58.7879 361.321 58.7208 361.581 58.7444C363.625 59.0833 365.498 59.9829 366.939 61.3172C367.05 61.4495 367.119 61.606 367.14 61.7702C367.16 61.9345 367.13 62.1005 367.053 62.251C366.977 62.4015 366.856 62.5309 366.704 62.6257C366.552 62.7205 366.375 62.7773 366.19 62.7901Z" fill="#5B5180"/>
<path d="M379.265 72.5141C378.516 71.1441 377.295 70.0225 375.781 69.3123C375.533 69.2185 375.336 69.0406 375.235 68.8177C375.134 68.5949 375.136 68.3453 375.241 68.1239C375.347 67.9024 375.546 67.7273 375.796 67.6371C376.047 67.5468 376.327 67.5488 376.575 67.6426C378.546 68.514 380.137 69.9443 381.096 71.7088C381.735 72.7302 379.927 73.5749 379.265 72.5141Z" fill="#5B5180"/>
<path d="M355.583 78.1123C355.436 77.9572 355.333 77.7726 355.283 77.5741C355.233 77.3757 355.238 77.1694 355.297 76.973C356.488 73.339 364.602 67.1513 365.528 66.4245C365.733 66.2682 365.999 66.1908 366.268 66.2092C366.536 66.2276 366.786 66.3404 366.961 66.5228C367.137 66.7051 367.224 66.9421 367.203 67.1815C367.182 67.421 367.056 67.6433 366.851 67.7996C364.646 69.4693 358.957 74.1444 357.502 76.9141C358.585 76.9591 359.671 76.9065 360.743 76.7569C360.874 76.7315 361.01 76.7312 361.141 76.7559C361.272 76.7806 361.396 76.8299 361.505 76.9004C361.613 76.9709 361.703 77.0611 361.769 77.165C361.836 77.2689 361.876 77.3841 361.889 77.5031C361.901 77.6221 361.886 77.7421 361.842 77.8552C361.799 77.9683 361.729 78.0719 361.638 78.1592C361.546 78.2464 361.435 78.3154 361.311 78.3615C361.187 78.4076 361.054 78.4298 360.92 78.4266C359.773 78.5248 356.091 78.682 355.583 78.1123Z" fill="#5B5180"/>
<path d="M351.989 80.4886C351.159 80.0985 350.254 79.8519 349.321 79.7619C349.052 79.7619 348.794 79.6667 348.604 79.4973C348.413 79.3279 348.307 79.0981 348.307 78.8585C348.307 78.6189 348.413 78.3891 348.604 78.2197C348.794 78.0503 349.052 77.9551 349.321 77.9551C350.538 78.0471 351.722 78.3542 352.805 78.8585C353.007 78.9757 353.156 79.1535 353.225 79.3598C353.294 79.5661 353.277 79.7875 353.179 79.984C353.08 80.1805 352.907 80.3393 352.688 80.4318C352.47 80.5243 352.222 80.5445 351.989 80.4886Z" fill="#5B5180"/>
<path d="M360.743 87.0701C359.626 85.4378 358.12 84.0432 356.333 82.9843C356.105 82.8566 355.943 82.6535 355.883 82.4196C355.823 82.1857 355.87 81.9401 356.014 81.7369C356.157 81.5338 356.385 81.3896 356.647 81.3362C356.91 81.2828 357.186 81.3245 357.414 81.4521C359.447 82.6805 361.155 84.2894 362.419 86.1665C362.481 86.3574 362.471 86.5612 362.389 86.7463C362.308 86.9314 362.161 87.0875 361.97 87.1904C361.779 87.2933 361.555 87.3373 361.334 87.3155C361.112 87.2938 360.904 87.2075 360.743 87.0701Z" fill="#5B5180"/>
<path d="M351.262 85.3804C350.824 84.9842 350.495 84.5034 350.3 83.9754C350.105 83.4474 350.049 82.8865 350.137 82.3362C350.172 82.0966 350.313 81.8792 350.528 81.7319C350.743 81.5846 351.015 81.5194 351.284 81.5506C351.553 81.5819 351.797 81.707 351.962 81.8986C352.128 82.0901 352.201 82.3323 352.166 82.5719C352.166 82.9058 352.166 83.6914 352.563 83.9859C352.96 84.2805 353.533 84.202 354.415 83.9859C354.669 83.9078 354.948 83.9229 355.19 84.0279C355.432 84.1328 355.617 84.3191 355.705 84.5457C355.793 84.7723 355.776 85.0206 355.658 85.2361C355.54 85.4515 355.331 85.6165 355.076 85.6946C354.453 85.8915 353.789 85.9654 353.13 85.9112C352.472 85.8569 351.834 85.6758 351.262 85.3804Z" fill="#5B5180"/>
<path d="M373.056 76.8142C373.264 76.8926 373.492 76.9239 373.727 76.9064C373.962 76.8888 374.199 76.8227 374.426 76.7118C374.652 76.6009 374.862 76.4474 375.045 76.26C375.228 76.0727 375.38 75.8552 375.491 75.6199C375.603 75.3847 375.673 75.1363 375.697 74.8889C375.72 74.6415 375.697 74.4001 375.629 74.1782C375.561 73.9564 375.449 73.7586 375.3 73.5961C375.15 73.4336 374.966 73.3096 374.758 73.2312C374.55 73.1528 374.322 73.1215 374.087 73.139C373.852 73.1566 373.615 73.2227 373.388 73.3336C373.162 73.4445 372.952 73.598 372.769 73.7853C372.586 73.9727 372.434 74.1902 372.323 74.4254C372.211 74.6607 372.141 74.9091 372.117 75.1565C372.094 75.4038 372.117 75.6453 372.185 75.8671C372.253 76.0889 372.365 76.2867 372.514 76.4492C372.664 76.6117 372.848 76.7357 373.056 76.8142Z" fill="#5B5180"/>
<path d="M357.804 67.3638C358.004 67.462 358.229 67.5141 358.467 67.5168C358.705 67.5196 358.95 67.4731 359.189 67.38C359.427 67.287 359.654 67.1491 359.856 66.9746C360.058 66.8001 360.232 66.5925 360.366 66.3637C360.501 66.1349 360.593 65.8897 360.639 65.6423C360.685 65.3948 360.682 65.1501 360.632 64.9225C360.582 64.6949 360.485 64.4889 360.347 64.3165C360.209 64.144 360.033 64.0087 359.828 63.9183C359.628 63.8201 359.403 63.768 359.165 63.7653C358.927 63.7625 358.682 63.809 358.444 63.9021C358.205 63.9952 357.978 64.133 357.776 64.3075C357.574 64.482 357.4 64.6896 357.266 64.9184C357.132 65.1472 357.039 65.3924 356.993 65.6398C356.947 65.8873 356.95 66.132 357 66.3596C357.05 66.5872 357.147 66.7932 357.285 66.9657C357.423 67.1381 357.599 67.2734 357.804 67.3638Z" fill="#5B5180"/>
<path d="M384.073 88.0522C384.073 88.3231 384.231 88.5829 384.512 88.7745C384.793 88.9661 385.175 89.0737 385.572 89.0737C385.97 89.0737 386.351 88.9661 386.632 88.7745C386.914 88.5829 387.072 88.3231 387.072 88.0522C387.072 87.7813 386.914 87.5215 386.632 87.3299C386.351 87.1384 385.97 87.0308 385.572 87.0308C385.175 87.0308 384.793 87.1384 384.512 87.3299C384.231 87.5215 384.073 87.7813 384.073 88.0522Z" fill="#5B5180"/>
<path d="M369.175 85.1764C369.487 85.2734 369.812 85.3283 370.133 85.3379C370.453 85.3475 370.761 85.3117 371.039 85.2324C371.317 85.1532 371.56 85.0321 371.752 84.8765C371.944 84.7209 372.082 84.5338 372.157 84.3264C372.233 84.119 372.245 83.8954 372.192 83.6689C372.14 83.4424 372.024 83.2177 371.851 83.0079C371.678 82.7981 371.453 82.6076 371.187 82.4476C370.922 82.2877 370.622 82.1615 370.306 82.0767C369.994 81.9797 369.668 81.9247 369.348 81.9151C369.028 81.9055 368.719 81.9414 368.441 82.0206C368.163 82.0999 367.921 82.2209 367.729 82.3765C367.537 82.5321 367.399 82.7192 367.323 82.9266C367.247 83.1341 367.235 83.3576 367.288 83.5841C367.341 83.8106 367.457 84.0354 367.629 84.2451C367.802 84.4549 368.028 84.6454 368.293 84.8054C368.559 84.9653 368.858 85.0915 369.175 85.1764Z" fill="white"/>
<path d="M350.248 75.2566C350.528 75.3682 350.824 75.4415 351.119 75.4721C351.415 75.5027 351.703 75.4901 351.968 75.4349C352.233 75.3797 352.468 75.2831 352.661 75.1508C352.853 75.0186 352.998 74.8532 353.088 74.6647C353.178 74.4761 353.21 74.2682 353.182 74.0531C353.155 73.838 353.069 73.6201 352.929 73.4123C352.79 73.2045 352.599 73.0111 352.369 72.8434C352.138 72.6756 351.873 72.5371 351.589 72.4359C351.309 72.3243 351.013 72.251 350.717 72.2204C350.422 72.1898 350.133 72.2024 349.868 72.2576C349.604 72.3128 349.368 72.4094 349.176 72.5417C348.983 72.674 348.838 72.8393 348.748 73.0278C348.659 73.2164 348.627 73.4243 348.654 73.6394C348.681 73.8545 348.767 74.0724 348.907 74.2802C349.047 74.488 349.237 74.6814 349.468 74.8491C349.698 75.0169 349.963 75.1554 350.248 75.2566Z" fill="white"/>
<path d="M400.103 76.816C401.905 71.7123 401.997 66.251 400.367 61.1014C398.471 56.112 388.725 49.9439 379.971 46.1331C376.333 44.5617 372.474 39.9455 370.798 39.533C369.122 39.1205 367.491 42.8331 367.491 42.8331C366.785 42.9313 365.286 40.8687 363.874 40.8687C362.463 40.8687 360.699 43.7759 361.228 47.9796C357.809 51.7482 354.886 55.8544 352.519 60.2174C341.311 60.3684 330.282 62.738 320.229 67.1547C310.176 71.5713 301.352 77.9244 294.395 85.7538C294.108 84.4966 292.984 81.9822 287.251 82.4537C286.325 82.6332 285.368 82.6457 284.436 82.4905C283.504 82.3354 282.617 82.0156 281.826 81.5501C277.196 78.2893 275.366 68.1533 269.875 69.2534C265.068 70.2159 269.28 81.9233 273.977 85.3412C277.946 88.2092 282.797 90.036 283.634 94.5933C282.011 94.9647 280.463 95.5613 279.048 96.3612C278.522 96.6897 278.105 97.1386 277.841 97.6607C277.577 98.1827 277.476 98.7585 277.549 99.3273C274.55 147.041 284.847 157.668 295.497 160.398C296.542 160.652 297.614 160.804 298.695 160.85C305.739 167.061 314.035 172.032 323.148 175.504C321.627 179.885 315.717 183.931 315.563 184.756C315.563 185.247 315.96 185.444 316.357 185.483C331.593 187.212 344.713 180.003 345.463 180.022C363.103 180.494 386.917 173.933 399.617 162.618C426.915 138.319 423.784 98.463 400.103 76.816ZM292.058 93.0218C291.771 93.0218 288.508 93.5325 285.707 94.1808C284.583 88.9753 278.894 86.6377 275.277 84.0055C271.661 81.3733 268.155 72.0427 269.897 71.1391C273.183 69.4105 277.835 81.2751 280.592 83.043C284.649 85.6752 289.037 83.3769 291.617 84.8109C293.006 85.5573 292.697 89.8985 292.036 93.0218H292.058ZM319.444 172.067C312.946 169.073 306.931 165.314 301.561 160.89C311.484 160.143 323.082 153.877 323.082 153.877L319.444 172.067ZM305.839 129.46C305.839 129.46 299.091 95.1433 296.6 93.5718C295.83 93.2224 294.971 93.0598 294.108 93.1004C294.263 92.295 294.637 88.8967 294.637 88.602C301.279 80.5658 309.9 73.9931 319.839 69.3891C329.777 64.7851 340.768 62.2724 351.967 62.0442C348.814 66.9747 341.846 78.5447 341.846 84.5359C341.846 92.02 348.02 96.0076 352.871 97.9523C351.551 100.698 350.026 103.362 348.307 105.927C319.51 107.578 305.817 129.46 305.817 129.46H305.839ZM349.696 107.303C351.578 104.527 353.243 101.639 354.68 98.6594C355.828 99.0507 357.007 99.3659 358.208 99.6023C358.459 99.6231 358.71 99.5595 358.912 99.4242C359.113 99.2888 359.251 99.0913 359.298 98.8703C359.345 98.6493 359.297 98.4206 359.165 98.2291C359.033 98.0375 358.825 97.8968 358.582 97.8344C355.958 97.2827 353.444 96.375 351.13 95.1433C348.955 94.1284 347.132 92.6044 345.858 90.7353C344.584 88.8662 343.906 86.7228 343.897 84.5359C343.897 78.2893 352.717 64.5586 354.768 61.3764C356.989 58.1045 359.655 55.0894 362.706 52.3994C367.469 59.7263 385.109 67.1908 387.181 69.4105C389.254 71.6302 384.116 78.4661 383.697 80.234C383.669 81.0506 383.872 81.8604 384.288 82.5884C384.704 83.3164 385.32 83.939 386.079 84.3984C386.079 84.3984 392.694 87.8163 390.82 90.6057C388.747 93.8861 381.514 90.8217 381.294 90.7432C381.247 90.7097 381.189 90.6914 381.129 90.6914C381.068 90.6914 381.01 90.7097 380.963 90.7432C376.553 95.7326 372.805 97.3826 368.615 99.9755C366.941 103.43 365.648 107.022 364.756 110.701C362.838 112.076 353.048 113.569 349.674 107.303H349.696ZM396.332 121.328C389.072 113.719 378.812 108.882 367.667 107.813C368.395 105.476 369.056 103.413 369.453 102.274C372.143 102.411 379.64 101.96 386.828 93.8468C391.238 94.0236 394.348 91.2932 392.429 87.6395C395.31 85.0872 397.616 82.0666 399.221 78.7411C417.831 96.204 421.778 124.196 410.709 145.371C407.926 136.525 403.021 128.321 396.332 121.328Z" fill="#5B5180"/>
<path d="M321.384 155.095C325.066 141.875 327.514 135.707 327.536 135.648C327.631 135.467 327.798 135.324 328.004 135.246C328.211 135.169 328.443 135.162 328.654 135.228C328.866 135.295 329.042 135.428 329.15 135.604C329.257 135.779 329.287 135.984 329.234 136.178C329.234 136.178 326.786 142.346 323.126 155.468C323.047 155.65 322.896 155.799 322.702 155.89C322.509 155.98 322.285 156.005 322.072 155.959C321.859 155.914 321.673 155.801 321.546 155.642C321.42 155.483 321.362 155.289 321.384 155.095Z" fill="white"/>
<path d="M390.29 169.965C390.097 169.967 389.908 169.913 389.752 169.81C389.597 169.707 389.484 169.561 389.431 169.395C387.909 164.779 382.816 141.639 382.573 140.657C382.551 140.555 382.551 140.45 382.575 140.348C382.598 140.247 382.644 140.15 382.71 140.064C382.775 139.978 382.859 139.905 382.957 139.848C383.055 139.791 383.164 139.752 383.279 139.734C383.512 139.693 383.755 139.736 383.953 139.854C384.151 139.972 384.289 140.154 384.337 140.362C384.337 140.598 389.651 164.386 391.15 168.943C391.188 169.062 391.194 169.187 391.168 169.308C391.142 169.43 391.086 169.544 391.003 169.643C390.92 169.741 390.812 169.822 390.689 169.878C390.565 169.933 390.429 169.963 390.29 169.965Z" fill="white"/>
<path d="M306.721 137.22C305.442 131.543 304.935 127.771 304.935 127.712C304.906 127.504 304.971 127.294 305.115 127.128C305.26 126.962 305.473 126.854 305.707 126.828C305.941 126.802 306.177 126.86 306.363 126.989C306.549 127.118 306.67 127.308 306.699 127.516C306.699 127.516 307.228 131.287 308.463 136.905C308.51 137.111 308.463 137.325 308.333 137.5C308.202 137.675 308 137.797 307.769 137.838C307.538 137.88 307.297 137.838 307.101 137.722C306.905 137.606 306.768 137.425 306.721 137.22Z" fill="white"/>
<path d="M138.567 180.847C146.086 180.474 225.621 176.643 280.261 177.704C280.413 177.704 280.559 177.758 280.666 177.854C280.774 177.949 280.834 178.079 280.834 178.215C281.936 275.705 280.503 270.696 280.966 271.226C318.451 312.713 315.938 309.688 316.004 309.982C316.524 312.734 316.79 315.52 316.798 318.311C316.798 318.447 316.737 318.576 316.63 318.672C316.522 318.768 316.376 318.822 316.224 318.822C310.866 318.92 115.79 322.24 114.753 318.488C113.991 315.553 113.541 312.56 113.408 309.55C113.405 309.482 113.417 309.414 113.443 309.35C113.47 309.286 113.51 309.227 113.563 309.177C115.768 306.918 140.684 281.087 147.828 273.308C147.882 273.26 147.922 273.201 147.945 273.136C147.968 273.071 147.973 273.002 147.961 272.935C147.387 268.515 138.567 198.29 137.994 181.377C137.994 181.24 138.054 181.108 138.161 181.009C138.268 180.91 138.413 180.852 138.567 180.847Z" fill="white"/>
<path d="M275.476 182.419C275.465 182.191 275.36 181.974 275.181 181.811C275.002 181.647 274.761 181.549 274.506 181.535C249.589 180.69 145.381 184.52 144.411 184.56C144.273 184.565 144.139 184.594 144.015 184.647C143.891 184.699 143.78 184.774 143.689 184.866C143.599 184.958 143.53 185.065 143.487 185.181C143.444 185.297 143.428 185.42 143.44 185.542C147.564 225.438 151.841 264.724 151.886 265.196C151.91 265.405 152.017 265.6 152.186 265.747C152.355 265.894 152.576 265.984 152.812 266.001C171.664 267.356 256.844 265.235 275.696 264.724C275.936 264.717 276.165 264.634 276.343 264.49C276.521 264.346 276.635 264.151 276.667 263.939C277.637 257.476 275.63 185.483 275.476 182.419ZM274.748 262.956C264.76 263.212 175.17 265.569 153.826 264.272C153.209 258.654 149.416 222.805 145.469 186.347C156.494 185.954 248.509 182.654 273.469 183.342C273.69 191.376 275.432 253.528 274.748 262.937V262.956Z" fill="#5B5180"/>
<path d="M316.997 309.904C316.71 309.059 319.533 312.595 281.871 270.853C282.753 259.676 281.871 186.622 281.871 178.294C281.874 178.109 281.836 177.925 281.758 177.754C281.681 177.582 281.566 177.426 281.42 177.295C281.275 177.163 281.101 177.059 280.91 176.987C280.718 176.916 280.513 176.879 280.306 176.879C225.864 175.818 147.3 179.59 138.524 180.022C138.315 180.03 138.111 180.074 137.921 180.152C137.732 180.23 137.562 180.341 137.42 180.478C137.279 180.615 137.169 180.775 137.098 180.949C137.026 181.124 136.994 181.31 137.003 181.495C137.576 198.33 146.352 268.142 146.947 272.955C139.56 280.969 113.872 307.527 112.814 308.666C112.542 308.943 112.4 309.301 112.417 309.668C112.554 312.738 113.011 315.789 113.784 318.783C113.859 319.054 114.022 319.3 114.254 319.489C114.485 319.678 114.775 319.801 115.085 319.843C135.194 322.79 295.785 320.177 316.269 319.843C316.68 319.843 317.075 319.699 317.368 319.442C317.661 319.185 317.829 318.835 317.835 318.468C317.83 315.598 317.549 312.732 316.997 309.904ZM139.031 181.731C149.571 181.201 226.261 177.586 279.82 178.588C279.82 188.41 280.68 258.694 279.82 270.401C269.986 270.873 191.444 271.815 148.843 272.365C147.983 264.999 139.693 198.742 139.031 181.731ZM148.424 274.055C154.907 274.055 270.361 272.739 280.526 272.09C283.679 275.587 305.839 300.122 313.998 309.04C291.948 309.354 131.733 308.745 115.305 308.686C120.619 303.264 141.655 281.46 148.424 274.094V274.055ZM315.806 317.899C304.12 318.095 137.355 320.904 115.68 317.899C115.057 315.45 114.659 312.96 114.49 310.454C123.199 310.454 311.396 310.866 315.145 310.788C315.551 313.155 315.772 315.544 315.806 317.938V317.899Z" fill="#5B5180"/>
<path d="M253.184 304.011C252.258 303.736 251.993 302.675 251.839 301.693C251.442 299.1 251.707 289.514 253.448 288.414C255.19 287.314 284.429 286.587 285.994 287.412C287.56 288.237 291.705 299.866 291.529 302.381C291.544 302.643 291.475 302.904 291.331 303.134C291.187 303.363 290.972 303.552 290.713 303.677C288.861 304.345 255.499 304.659 253.184 304.011ZM254.066 302.361C257.814 302.97 284.936 302.518 289.522 302.047C288.661 297.532 287.111 293.144 284.914 289.004C274.826 288.693 264.725 288.995 254.683 289.907C253.912 291.361 253.25 300.593 254.066 302.263V302.361Z" fill="#5B5180"/>
<path d="M219.27 214.104C219.217 213.391 218.89 212.717 218.343 212.194C217.797 211.672 217.065 211.333 216.271 211.236C208.133 210.395 199.913 210.395 191.774 211.236C190.937 211.322 190.165 211.676 189.601 212.233C189.037 212.79 188.72 213.511 188.709 214.261C188.709 220.9 189.15 228.777 189.437 232.765C189.495 233.518 189.862 234.226 190.467 234.755C191.073 235.284 191.875 235.596 192.722 235.633C199.05 235.927 210.935 235.436 216.602 235.161C217.482 235.121 218.311 234.784 218.922 234.218C219.532 233.653 219.878 232.901 219.888 232.116C219.976 225.556 219.535 217.954 219.27 214.104Z" fill="#9683D7"/>
<path d="M237.881 212.63C237.881 211.235 235.478 210.666 234.067 211.864C230.332 214.978 226.977 218.435 224.056 222.177C223.678 222.635 223.499 223.2 223.552 223.766C223.604 224.333 223.885 224.864 224.342 225.261C227.848 228.109 232.303 231.488 235.522 233.57C235.808 233.767 236.149 233.891 236.508 233.929C236.867 233.966 237.231 233.915 237.56 233.782C237.889 233.648 238.171 233.437 238.375 233.171C238.58 232.905 238.698 232.595 238.719 232.273C238.697 227.087 238.146 217.246 237.881 212.63Z" fill="#9683D7"/>
<path d="M228.642 303.893H165.028C164.279 303.835 163.583 303.53 163.075 303.037C162.567 302.544 162.286 301.9 162.286 301.231C162.286 300.562 162.567 299.918 163.075 299.425C163.583 298.932 164.279 298.627 165.028 298.569H228.642C229.39 298.627 230.087 298.932 230.594 299.425C231.102 299.918 231.384 300.562 231.384 301.231C231.384 301.9 231.102 302.544 230.594 303.037C230.087 303.53 229.39 303.835 228.642 303.893Z" fill="#5B5180"/>
<path d="M160.97 279.929C160.97 281.029 159.493 282.011 157.662 282.011C155.832 282.011 154.355 281.127 154.355 280.046C154.355 278.966 155.854 278.082 157.662 278.082C159.471 278.082 160.97 278.848 160.97 279.929Z" fill="#9683D7"/>
<path d="M178.324 280.439C178.324 281.578 176.847 282.58 175.016 282.58C173.186 282.58 171.709 281.676 171.709 280.616C171.709 279.555 173.186 278.475 175.016 278.475C176.847 278.475 178.324 279.359 178.324 280.439Z" fill="#9683D7"/>
<path d="M197.883 281.087C197.883 282.285 196.339 283.346 194.421 283.346C192.502 283.346 190.959 282.383 190.959 281.185C190.959 279.987 192.502 278.927 194.421 278.927C196.339 278.927 197.883 279.909 197.883 281.087Z" fill="#9683D7"/>
<path d="M208.113 281.009C208.113 281.535 208.462 282.04 209.082 282.412C209.702 282.784 210.544 282.993 211.421 282.993C212.298 282.993 213.139 282.784 213.76 282.412C214.38 282.04 214.728 281.535 214.728 281.009C214.728 280.483 214.38 279.978 213.76 279.606C213.139 279.234 212.298 279.025 211.421 279.025C210.544 279.025 209.702 279.234 209.082 279.606C208.462 279.978 208.113 280.483 208.113 281.009Z" fill="#9683D7"/>
<path d="M225.401 280.498C225.401 281.039 225.749 281.559 226.37 281.942C226.99 282.325 227.831 282.54 228.708 282.54C229.586 282.54 230.427 282.325 231.047 281.942C231.667 281.559 232.016 281.039 232.016 280.498C232.016 279.956 231.667 279.436 231.047 279.053C230.427 278.67 229.586 278.455 228.708 278.455C227.831 278.455 226.99 278.67 226.37 279.053C225.749 279.436 225.401 279.956 225.401 280.498Z" fill="#9683D7"/>
<path d="M244.032 280.596C244.032 281.169 244.397 281.718 245.046 282.124C245.695 282.529 246.576 282.756 247.494 282.756C248.412 282.756 249.293 282.529 249.942 282.124C250.591 281.718 250.956 281.169 250.956 280.596C250.956 280.023 250.591 279.473 249.942 279.068C249.293 278.663 248.412 278.436 247.494 278.436C246.576 278.436 245.695 278.663 245.046 279.068C244.397 279.473 244.032 280.023 244.032 280.596Z" fill="#9683D7"/>
<path d="M261.694 280.497C261.694 281.07 262.059 281.62 262.708 282.025C263.358 282.43 264.238 282.658 265.156 282.658C266.074 282.658 266.955 282.43 267.604 282.025C268.253 281.62 268.618 281.07 268.618 280.497C268.618 279.924 268.253 279.375 267.604 278.97C266.955 278.565 266.074 278.337 265.156 278.337C264.238 278.337 263.358 278.565 262.708 278.97C262.059 279.375 261.694 279.924 261.694 280.497Z" fill="#9683D7"/>
<path d="M162.47 290.143C162.47 290.669 162.819 291.174 163.439 291.546C164.059 291.918 164.901 292.127 165.778 292.127C166.655 292.127 167.496 291.918 168.116 291.546C168.737 291.174 169.085 290.669 169.085 290.143C169.085 289.617 168.737 289.112 168.116 288.74C167.496 288.368 166.655 288.159 165.778 288.159C164.901 288.159 164.059 288.368 163.439 288.74C162.819 289.112 162.47 289.617 162.47 290.143Z" fill="#9683D7"/>
<path d="M179.735 290.692C179.735 291.234 180.083 291.754 180.704 292.137C181.324 292.52 182.165 292.735 183.042 292.735C183.92 292.735 184.761 292.52 185.381 292.137C186.001 291.754 186.35 291.234 186.35 290.692C186.35 290.151 186.001 289.631 185.381 289.248C184.761 288.865 183.92 288.65 183.042 288.65C182.165 288.65 181.324 288.865 180.704 289.248C180.083 289.631 179.735 290.151 179.735 290.692Z" fill="#9683D7"/>
<path d="M198.985 291.301C198.985 291.874 199.35 292.424 199.999 292.829C200.648 293.234 201.529 293.462 202.447 293.462C203.365 293.462 204.245 293.234 204.895 292.829C205.544 292.424 205.909 291.874 205.909 291.301C205.909 290.729 205.544 290.179 204.895 289.774C204.245 289.369 203.365 289.141 202.447 289.141C201.529 289.141 200.648 289.369 199.999 289.774C199.35 290.179 198.985 290.729 198.985 291.301Z" fill="#9683D7"/>
<path d="M216.139 291.125C216.139 291.651 216.488 292.156 217.108 292.528C217.728 292.9 218.569 293.109 219.447 293.109C220.324 293.109 221.165 292.9 221.785 292.528C222.406 292.156 222.754 291.651 222.754 291.125C222.754 290.599 222.406 290.094 221.785 289.722C221.165 289.35 220.324 289.141 219.447 289.141C218.569 289.141 217.728 289.35 217.108 289.722C216.488 290.094 216.139 290.599 216.139 291.125Z" fill="#9683D7"/>
<path d="M233.427 290.594C233.427 291.136 233.776 291.656 234.396 292.039C235.016 292.422 235.858 292.637 236.735 292.637C237.612 292.637 238.453 292.422 239.074 292.039C239.694 291.656 240.042 291.136 240.042 290.594C240.042 290.053 239.694 289.533 239.074 289.15C238.453 288.767 237.612 288.552 236.735 288.552C235.858 288.552 235.016 288.767 234.396 289.15C233.776 289.533 233.427 290.053 233.427 290.594Z" fill="#9683D7"/>
</svg>
