<svg width="25" height="49" viewBox="0 0 25 49" fill="none" xmlns="http://www.w3.org/2000/svg">
<path d="M15.6202 47.7477C15.9665 48.178 16.596 48.246 17.0263 47.8997L24.0372 42.2564C24.4674 41.9101 24.5355 41.2806 24.1892 40.8504C23.8429 40.4202 23.2134 40.3521 22.7832 40.6984L16.5512 45.7147L11.535 39.4827C11.1887 39.0525 10.5592 38.9845 10.1289 39.3308C9.6987 39.6771 9.63067 40.3066 9.97697 40.7368L15.6202 47.7477ZM0.77029 0.638454L0.000552628 1.27681C4.41706 6.60226 7.84022 10.1296 10.3931 12.8958C12.9634 15.681 14.593 17.6369 15.5955 19.8983C16.5887 22.1385 17.0026 24.7679 16.9291 28.9441C16.8553 33.1336 16.2952 38.7774 15.405 47.0133L16.3992 47.1207L17.3935 47.2282C18.2809 39.0174 18.8531 33.2771 18.9288 28.9793C19.0047 24.6682 18.5851 21.707 17.4239 19.0877C16.2721 16.4897 14.4264 14.3173 11.8629 11.5394C9.28192 8.74276 5.91255 5.2725 1.54003 9.33723e-05L0.77029 0.638454Z" fill="#8675C0"/>
</svg>
