<?xml version="1.0" encoding="utf-8"?><svg viewBox="0 0 18 18" xmlns="http://www.w3.org/2000/svg" xmlns:xlink="http://www.w3.org/1999/xlink"><style>:root>svg{display:none}:root>svg:target{display:block}</style><svg viewBox="0 0 18 18" id="arrow-down" xmlns="http://www.w3.org/2000/svg"><path d="M14.94 6.712l-4.89 4.89a1.49 1.49 0 01-2.1 0l-4.89-4.89" stroke="currentColor" stroke-width="1.5" stroke-miterlimit="10" stroke-linecap="round" stroke-linejoin="round"/></svg><svg viewBox="0 0 16 16" id="phone" xmlns="http://www.w3.org/2000/svg"><g clip-path="url(#bclip0_13_3165)"><path d="M13.864 11.136c-.972-.827-1.959-1.327-2.92-.502l-.573.499c-.42.362-1.2 2.054-4.215-1.395-3.016-3.445-1.221-3.981-.801-4.34l.576-.5c.956-.827.595-1.868-.094-2.94l-.416-.65C4.73.238 3.976-.464 3.018.362L2.5.812C2.077 1.118.894 2.115.607 4.008c-.346 2.271.744 4.873 3.24 7.727 2.494 2.855 4.935 4.29 7.248 4.264 1.922-.02 3.083-1.046 3.446-1.418l.519-.45c.955-.826.362-1.666-.611-2.495l-.585-.5z"/></g><defs><clipPath id="bclip0_13_3165"><path d="M0 0h16v16H0z"/></clipPath></defs></svg></svg>