<?xml version="1.0" encoding="utf-8"?><svg viewBox="0 0 41 28" xmlns="http://www.w3.org/2000/svg" xmlns:xlink="http://www.w3.org/1999/xlink"><style>:root>svg{display:none}:root>svg:target{display:block}</style><svg viewBox="0 0 6 9" id="angle-right" xmlns="http://www.w3.org/2000/svg"><path d="M.369 7.965L4.424 4.18.369.395" stroke="currentColor" stroke-width="1.081"/></svg><svg viewBox="0 0 18 18" id="arrow-down" xmlns="http://www.w3.org/2000/svg"><path d="M14.94 6.712l-4.89 4.89a1.49 1.49 0 01-2.1 0l-4.89-4.89" stroke="currentColor" stroke-width="1.5" stroke-miterlimit="10" stroke-linecap="round" stroke-linejoin="round"/></svg><svg viewBox="0 0 15 15" id="check" xmlns="http://www.w3.org/2000/svg"><path d="M12.5 3.75l-6.875 6.875L2.5 7.5" stroke="currentColor" stroke-width="1.667" stroke-linecap="round" stroke-linejoin="round"/></svg><svg viewBox="0 0 41 28" id="direction-down" xmlns="http://www.w3.org/2000/svg"><path d="M39.28 27.505c-1.094-.964-3.305-3.053-6.886-3.325a.11.11 0 01-.07-.032.105.105 0 01-.03-.071.374.374 0 01.105-.27.392.392 0 01.27-.118c1.744-.055 3.463.499 4.991 1.308-5.73-4.993-11.332-10.39-16.998-15.457.66 3.93 2.084 7.744 2.383 11.74v.016c.004.2-.047.397-.147.572-.1.174-.245.319-.422.42a1.17 1.17 0 01-1.163-.001c-.812-.462-1.45-1.272-2.136-1.823C12.61 14.046 6.191 7.041.035.231A.133.133 0 01.003.113a.133.133 0 01.08-.095.222.222 0 01.242.045c7.004 6.944 13.75 14.159 21.2 20.623-.616-3.808-2.234-8.116-2.942-11.93-.068-.462-.285-1.17.09-1.538 1.595-1.548 4.686 2.125 5.824 2.931 4.826 4.483 9.343 9.306 13.659 14.252-.277-1.598-.157-4.218.683-4.778.257-.172.367.028.365.138-.025 3.9.581 4.527 1.247 6.781.299 1.012-.41 1.63-1.171.963z"/></svg><svg viewBox="0 0 39 28" id="direction-up" xmlns="http://www.w3.org/2000/svg"><path d="M37.3.278c-1.038.964-3.138 3.053-6.538 3.325a.102.102 0 00-.068.033.108.108 0 00-.028.07c-.003.1.034.197.1.27.068.073.16.115.257.118 1.656.055 3.288-.498 4.74-1.307C30.32 7.779 25 13.176 19.62 18.243c.627-3.93 1.978-7.743 2.262-11.74v-.016c.004-.2-.044-.397-.139-.571a1.108 1.108 0 00-.4-.42 1.068 1.068 0 00-1.105 0c-.77.462-1.378 1.272-2.028 1.823C11.974 13.737 5.88 20.742.033 27.553a.135.135 0 00-.03.118.136.136 0 00.075.094.201.201 0 00.23-.045C6.96 20.776 13.366 13.562 20.441 7.097c-.586 3.808-2.122 8.116-2.795 11.93-.064.462-.27 1.171.087 1.539 1.514 1.547 4.45-2.126 5.53-2.932 4.582-4.483 8.872-9.306 12.97-14.252-.263 1.598-.15 4.218.649 4.778.244.172.348-.027.347-.138-.024-3.899.551-4.526 1.184-6.781.284-1.012-.39-1.63-1.112-.963z"/></svg><svg viewBox="0 0 24 25" id="info-circle" xmlns="http://www.w3.org/2000/svg"><path fill-rule="evenodd" clip-rule="evenodd" d="M12 11.008c.309 0 .559.257.559.575v4.594c0 .317-.25.575-.558.575a.566.566 0 01-.559-.575v-4.594c0-.318.25-.575.559-.575z"/><path d="M12 8.52c.411 0 .744.342.744.765a.755.755 0 01-.744.766.755.755 0 01-.744-.766c0-.423.333-.766.744-.766z"/><path fill-rule="evenodd" clip-rule="evenodd" d="M12 5.265a6.701 6.701 0 00-3.441.947.55.55 0 01-.763-.21A.584.584 0 018 5.219a7.794 7.794 0 014-1.102c4.419 0 8 3.686 8 8.232 0 4.547-3.582 8.232-8 8.232s-8-3.685-8-8.232c0-1.498.39-2.905 1.07-4.116a.55.55 0 01.763-.21c.267.16.358.51.204.785a7.204 7.204 0 00-.92 3.541c0 3.912 3.081 7.084 6.883 7.084s6.884-3.172 6.884-7.084c0-3.912-3.082-7.083-6.884-7.083zm0-1.149v.575-.575z"/></svg><svg viewBox="0 0 16 16" id="phone" xmlns="http://www.w3.org/2000/svg"><g clip-path="url(#gclip0_13_3165)"><path d="M13.864 11.136c-.972-.827-1.959-1.327-2.92-.502l-.573.499c-.42.362-1.2 2.054-4.215-1.395-3.016-3.445-1.221-3.981-.801-4.34l.576-.5c.956-.827.595-1.868-.094-2.94l-.416-.65C4.73.238 3.976-.464 3.018.362L2.5.812C2.077 1.118.894 2.115.607 4.008c-.346 2.271.744 4.873 3.24 7.727 2.494 2.855 4.935 4.29 7.248 4.264 1.922-.02 3.083-1.046 3.446-1.418l.519-.45c.955-.826.362-1.666-.611-2.495l-.585-.5z"/></g><defs><clipPath id="gclip0_13_3165"><path d="M0 0h16v16H0z"/></clipPath></defs></svg><svg viewBox="0 0 20 19" id="star" xmlns="http://www.w3.org/2000/svg"><path d="M10.33 7.373l.336 1.037h3.738l-2.142 1.557-.882.64.337 1.037.818 2.52-2.142-1.558-.882-.64-.882.64-2.144 1.557.82-2.52.337-1.036-.882-.64L4.617 8.41h3.738l.337-1.037.819-2.519.818 2.519z" stroke="currentColor" stroke-width="3"/></svg></svg>