<svg width="350" height="298" viewBox="0 0 350 298" fill="none" xmlns="http://www.w3.org/2000/svg">
<path d="M153.966 70.8341C153.248 66.2677 152.732 59.7863 151.094 56.6561C148.995 52.5869 148.553 41.7969 146.269 33.8793C145.588 31.6882 142.292 30.5466 140.064 31.1174C133.657 32.7745 127.93 34.7079 120.086 35.1682C113.628 35.8483 107.24 37.0803 100.992 38.8508C97.9722 39.5137 95.781 41.7416 96.4255 44.7614C97.4664 50.1264 98.7754 55.436 100.347 60.6702C102.686 68.3667 104.271 76.2724 105.08 84.2756C105.282 86.1169 107.216 88.6578 108.965 88.1607C114.802 86.4851 126.641 83.2813 130.692 83.2813C137.763 83.2813 146.693 79.5987 151.646 77.3891C153.911 76.358 154.371 73.2646 153.966 70.8341ZM134.982 54.0599C141.003 57.5215 140.506 70.9814 128.538 74.3142C107.326 80.28 103.956 59.3997 112.242 54.6859C112.496 54.535 112.786 54.4545 113.081 54.453C113.376 54.4515 113.667 54.5289 113.922 54.6772C114.177 54.8255 114.388 55.0394 114.533 55.2967C114.678 55.554 114.752 55.8453 114.746 56.1406C114.77 56.8349 114.932 57.5174 115.225 58.1475C115.517 58.7776 115.934 59.3423 116.449 59.8079C116.965 60.2736 117.569 60.6307 118.225 60.8579C118.882 61.0851 119.577 61.1778 120.27 61.1305C123.953 60.6517 127.525 57.5584 122.627 51.0402C117.729 44.522 124.284 38.7219 131.023 44.4483C131.023 37.6171 141.85 41.9074 134.393 47.6522C141.261 47.689 141.298 54.5386 134.982 54.0599Z" fill="#8675C0"/>
<path d="M220.381 182.509C211.082 177.224 198.672 165.219 196.646 159.53C193.774 151.502 190.312 142.258 190.312 142.258C189.599 142.804 188.75 143.144 187.858 143.241C186.965 143.339 186.063 143.19 185.249 142.811C184.296 142.16 183.278 141.611 182.211 141.172C182.211 141.172 174.477 141.411 163.116 149.126C156.432 153.693 135.11 178.771 135.11 178.771C142.144 191.458 160.004 204.107 181.143 207.827C187.845 200.185 188.858 195.527 199.556 194.938C206.239 194.551 220.565 199.375 236.768 198.27C251.941 197.239 269.304 190.5 267.186 184.185C246.711 189.34 233.675 190.077 220.381 182.509Z" fill="#8675C0"/>
<path d="M309.279 12.1713C314.803 -1.54639 300.404 -1.2702 303.184 9.70393C295.414 -0.699397 282.819 10.1274 290.866 19.4812C293.738 22.8139 292.284 26.5702 287.331 27.0673C283.735 27.3101 280.134 26.6783 276.835 25.226C276.115 29.2616 276.986 33.4191 279.266 36.8262C281.315 36.0276 283.577 35.9576 285.672 36.628C287.767 37.2985 289.569 38.6686 290.774 40.5088C292.928 43.86 296.997 39.2383 302.779 45.1305C305.769 44.4337 308.432 42.7385 310.328 40.3247C319.995 27.4356 306.554 19.3523 306.554 19.3523C306.554 19.3523 312.575 19.9599 314.913 17.3085C317.749 13.9389 314.655 9.72234 309.279 12.1713Z" fill="#8675C0"/>
<path d="M221.081 83.5022C221.365 83.8223 221.751 84.0337 222.174 84.1C222.596 84.1663 223.029 84.0835 223.397 83.8657C223.765 83.6478 224.046 83.3086 224.191 82.9063C224.336 82.504 224.337 82.0637 224.193 81.6609C223.999 81.294 223.907 80.8821 223.925 80.4677C223.943 80.0533 224.071 79.6511 224.296 79.3026C224.521 78.954 224.835 78.6715 225.205 78.4841C225.575 78.2967 225.988 78.2111 226.402 78.2361C227.599 78.365 228.759 79.6907 229.569 81.9187C229.786 82.2991 230.13 82.59 230.541 82.7394C230.953 82.8888 231.404 82.8869 231.814 82.734C232.224 82.5811 232.566 82.2872 232.779 81.905C232.992 81.5228 233.062 81.0772 232.976 80.6482C229.459 69.895 217.104 75.4005 221.081 83.5022Z" fill="#001434"/>
<path d="M208.192 86.2831C223.658 86.2831 226.365 62.1989 209.922 60.5049C190.589 58.4795 191.417 86.2831 208.192 86.2831ZM210.401 64.2796C223.861 67.0784 216.606 86.2647 205.061 82.1954C208.726 78.4944 211.211 69.4168 210.309 64.2796H210.401Z" fill="#001434"/>
<path d="M309.723 276.415C323.017 274.685 328.485 265.257 306.04 265.699C308.286 254.191 296.557 243.732 285.27 248.004C277.684 250.619 270.54 253.528 262.088 256.916C250.801 261.538 257.798 280.853 267.87 282.216C274.001 282.713 282.784 279.251 286.283 278.643C288.469 279.537 290.869 279.773 293.188 279.325C296.557 279.012 295.526 280.779 293.188 281.074C287.204 281.866 285.823 286.432 295.987 286.432C313.147 286.432 310.478 279.693 306.003 279.546C301.529 279.398 302.891 277.318 309.723 276.415ZM269.877 277.244C267.944 280.245 265.605 277.594 263.285 275.311C260.155 271.389 258.535 265.773 261.223 261.906C268.643 260.507 272.289 272.935 269.877 277.244ZM301.879 267.356C300.903 271.039 296.134 271.96 292.985 272.88C286.762 274.721 283.779 275.697 273.412 278.091C275.659 272.236 272.878 262.017 266.342 259.107C274.333 255.922 279.433 253.86 286.43 251.429C296.189 247.728 305.506 258.003 301.879 267.356Z" fill="#001434"/>
<path d="M79.1729 92.8571C80.9038 98.7677 88.3794 95.0114 92.062 93.9435C93.1778 93.6021 94.1313 92.8664 94.7445 91.8737C95.3578 90.881 95.5889 89.6991 95.3948 88.5485C94.2164 81.1833 92.6512 72.3083 91.2887 64.6116C89.1896 56.3442 89.9814 46.1987 86.0962 39.0913C82.4136 37.7103 77.9393 39.6621 74.3671 40.1224C68.2724 42.424 73.336 50.3232 73.3544 54.8528C74.938 66.8949 76.4662 81.1281 79.1729 92.8571ZM76.6135 52.2197C77.4237 52.1092 78.4548 51.9619 79.4307 51.7778C79.9279 53.8401 80.4803 56.3626 80.959 59.143C76.724 59.0509 77.4974 64.2802 81.5114 62.6967C81.9717 65.7532 82.119 69.0492 82.432 72.2714C81.3825 72.2714 80.2777 72.4187 79.2834 72.4371C78.4917 66.5818 77.258 55.7734 76.6135 52.2197ZM79.799 76.1566C80.7012 76.1566 81.7508 76.1566 82.8555 75.9724C83.187 78.495 83.5552 81.0176 83.9235 83.2271C82.8924 83.3929 81.9349 83.5586 81.0511 83.7611C80.3514 79.9496 80.112 78.1636 79.799 76.1382V76.1566ZM83.2054 92.4889C82.0454 91.7155 82.4504 89.5244 81.7323 87.3332C82.6495 87.1132 83.5776 86.9411 84.5127 86.8177C85.3597 90.0399 84.4022 91.2368 86.9616 91.7708C85.7314 92.1091 84.4749 92.3432 83.2054 92.4704V92.4889ZM90.9941 90.4818L87.7534 91.513C89.5947 89.9295 88.4347 89.6717 88.1032 86.2653C89.1812 86.1526 90.2362 85.8795 91.2334 85.4551C91.1966 87.057 92.7801 89.5612 90.9941 90.4634V90.4818ZM90.6995 82.3065C89.6219 82.3176 88.5506 82.4724 87.514 82.7668C87.1458 80.5388 86.7775 77.9979 86.4461 75.5121C89.9998 75.3832 89.4474 70.4854 86.0226 71.8295C85.728 68.6625 85.5622 65.4034 85.1203 62.4205C85.8016 62.4205 86.5013 62.2548 87.1826 62.1443C88.2689 68.6625 89.5763 75.4016 90.6995 82.3065ZM86.667 58.4801C85.9857 58.5906 85.3045 58.6827 84.6048 58.7563C84.1673 56.1412 83.6329 53.5432 83.0028 50.9676C83.9603 50.6915 84.9914 50.3968 85.2308 49.3473C86.2251 55.5156 85.5807 51.4832 86.667 58.4801ZM75.4351 43.6393C78.0497 42.9028 80.959 42.7923 83.9787 42.2031C84.2549 43.8971 84.5679 45.8857 84.9178 47.727C84.2365 46.6958 83.0765 46.8616 82.0269 47.3219C81.1063 42.7186 76.945 43.7682 78.4917 48.132C77.5526 48.2794 76.6504 48.4267 75.8586 48.5187C75.8034 47.0641 74.2751 44.7809 75.4351 43.6393Z" fill="#001434"/>
<path d="M99.0396 122.151C83.407 125.042 91.1405 131.855 97.7876 134.598C98.2166 134.684 98.6622 134.614 99.0444 134.401C99.4266 134.188 99.7204 133.846 99.8733 133.436C100.026 133.026 100.028 132.575 99.8788 132.164C99.7294 131.753 99.4384 131.408 99.0581 131.192C97.018 130.292 95.1491 129.046 93.5342 127.509C94.51 126.257 101.673 126.57 101.12 123.477C100.999 123.038 100.719 122.659 100.335 122.414C99.9505 122.169 99.489 122.075 99.0396 122.151Z" fill="#001434"/>
<path d="M103.532 135.041C98.0081 138.318 105.686 144.468 109.885 144.063C122.056 142.259 113.309 130.29 103.532 135.041ZM111.855 139.736C109.866 141.577 106.331 139.515 105.447 138.171C108.283 137.011 113.125 138.116 111.855 139.736Z" fill="#001434"/>
<path d="M134.338 138.963C131.981 140.927 129.44 142.66 126.751 144.137C124.91 143.145 123.212 141.906 121.706 140.454C120.178 138.613 117.416 141.173 119.018 142.885C119.349 143.272 124.1 147.691 126.659 147.746C127.635 147.746 129.274 147.488 136.584 141.762C136.842 141.435 136.982 141.03 136.98 140.613C136.978 140.197 136.835 139.793 136.575 139.468C136.314 139.143 135.951 138.917 135.544 138.825C135.138 138.733 134.713 138.782 134.338 138.963Z" fill="#001434"/>
<path d="M224.084 89.3767C223.719 89.6045 223.446 89.9529 223.311 90.3613C223.176 90.7698 223.188 91.2126 223.346 91.6129C223.503 92.0132 223.796 92.3457 224.173 92.5527C224.55 92.7598 224.988 92.8283 225.41 92.7463C226.525 92.2968 227.758 92.234 228.913 92.5678C230.068 92.9015 231.078 93.6127 231.781 94.5876C232.082 94.9097 232.488 95.1131 232.926 95.1609C233.365 95.2087 233.806 95.0977 234.169 94.8481C234.532 94.5984 234.794 94.2267 234.906 93.8005C235.019 93.3743 234.975 92.9218 234.782 92.5254C233.614 90.8724 231.922 89.6622 229.981 89.0907C228.039 88.5192 225.961 88.62 224.084 89.3767Z" fill="#001434"/>
<path d="M349.198 281.296C346.142 274.446 307.18 274.041 314.545 286.967C313.79 296.578 321.413 296.486 332.958 297.296C340.765 297.407 348.388 295.234 348.296 287.409C349.192 286.693 349.784 285.664 349.951 284.53C350.119 283.395 349.85 282.239 349.198 281.296ZM343.509 291.054C339.31 295.437 316.773 293.908 318.301 289.213C326.754 291.683 335.723 291.779 344.227 289.489C344.103 290.057 343.858 290.591 343.509 291.054ZM345.865 284.665C338.5 288.624 325.353 288.624 317.546 284.812C314.674 278.81 350.413 278.976 345.865 284.665Z" fill="#001434"/>
<path d="M245.405 94.3668C262.64 98.4545 268.532 68.3493 250.303 66.508C232.645 64.28 228.723 90.6842 245.405 94.3668ZM249.806 70.1169C263.432 71.9582 258.902 93.6303 245.866 90.721C248.646 85.5101 247.946 74.4256 244.742 70.6141C246.362 70.0249 248.103 69.8539 249.806 70.1169Z" fill="#001434"/>
<path d="M337.082 281.258C331.448 281.828 323.769 279.858 323.383 283.78C324.248 287.002 331.503 284.112 337.045 284.903C337.485 284.845 337.889 284.631 338.183 284.299C338.477 283.967 338.641 283.54 338.646 283.096C338.65 282.653 338.495 282.223 338.207 281.885C337.92 281.547 337.52 281.324 337.082 281.258Z" fill="#001434"/>
<path d="M236.585 68.9936C239.089 68.8279 240.709 62.3281 248.701 64.0405C249.14 64.106 249.588 64.0104 249.963 63.7714C250.337 63.5324 250.613 63.166 250.738 62.7399C250.864 62.3138 250.831 61.8566 250.646 61.4527C250.461 61.0487 250.136 60.7253 249.732 60.542C240.728 57.8169 230.766 67.9625 236.585 68.9936Z" fill="#001434"/>
<path d="M138.904 109.926C136.882 109.25 134.696 109.243 132.67 109.906C130.643 110.57 128.885 111.868 127.654 113.609C127.569 114.029 127.634 114.465 127.837 114.843C128.04 115.22 128.368 115.515 128.765 115.676C129.162 115.838 129.603 115.856 130.012 115.727C130.421 115.598 130.772 115.331 131.005 114.971C131.713 114.26 132.577 113.722 133.528 113.401C134.479 113.081 135.492 112.985 136.486 113.123C137.481 113.26 138.43 113.627 139.258 114.194C140.087 114.76 140.772 115.512 141.261 116.389C141.423 116.655 141.65 116.876 141.92 117.03C142.191 117.185 142.496 117.268 142.808 117.273C146.858 116.297 143.747 112.504 138.904 109.926Z" fill="#001434"/>
<path d="M111.358 53.177C100.955 59.6952 107.123 77.9792 121.559 77.1138C133.159 78.1818 145.625 66.2686 138.757 55.1288C139.607 54.7203 140.313 54.0635 140.782 53.2451C141.25 52.4267 141.46 51.4853 141.382 50.5454C141.304 49.6055 140.943 48.7114 140.346 47.9812C139.749 47.2511 138.944 46.7193 138.039 46.4563C141.721 40.5273 133.03 36.2739 129.992 41.4848C122.167 37.4523 115.704 44.5045 121.228 52.109C122.958 54.4107 123.621 56.344 123.069 57.6329C122.79 58.0848 122.416 58.4709 121.974 58.7648C121.531 59.0587 121.031 59.2535 120.506 59.3357C119.981 59.4179 119.445 59.3856 118.934 59.2411C118.423 59.0965 117.949 58.8432 117.545 58.4983C117.212 58.2224 116.943 57.8765 116.758 57.485C116.574 57.0936 116.478 56.6663 116.477 56.2335C116.47 55.6356 116.309 55.0496 116.01 54.5315C115.712 54.0133 115.286 53.5803 114.772 53.2737C114.259 52.9672 113.676 52.7973 113.078 52.7804C112.48 52.7635 111.888 52.9 111.358 53.177ZM126.438 59.0691C129.366 54.2634 120.381 48.3712 123.566 44.7254C124.708 43.6575 127.249 43.5286 129.918 45.9039C130.183 46.1138 130.5 46.2469 130.836 46.2885C131.171 46.3302 131.511 46.2788 131.819 46.14C132.127 46.0012 132.391 45.7804 132.582 45.5016C132.773 45.2229 132.883 44.8971 132.901 44.5597C132.644 43.0499 134.411 42.1845 135.221 43.455C135.442 43.9705 134.982 45.0753 133.38 46.2905C133.096 46.5331 132.893 46.8562 132.797 47.217C132.701 47.5779 132.717 47.9593 132.843 48.3108C132.969 48.6623 133.198 48.9673 133.502 49.1853C133.805 49.4032 134.167 49.5239 134.54 49.5312C136.731 49.5312 138.223 50.1757 137.799 51.5198C137.541 51.9433 136.694 52.3484 135.203 52.2379C134.803 52.2309 134.411 52.3544 134.087 52.5899C133.764 52.8253 133.526 53.1599 133.409 53.5428C133.292 53.9258 133.304 54.3363 133.442 54.7122C133.579 55.088 133.836 55.4088 134.172 55.6259C140.414 60.2476 135.829 71.1664 128.132 72.6027C115.243 77.5742 104.196 65.0533 113.034 56.4545C112.923 63.654 123.934 65.2559 126.438 59.0691Z" fill="#001434"/>
<path d="M140.193 42.0743C142.66 42.9029 142.992 39.6806 143.323 37.9866C143.581 36.6793 144.207 35.4456 142.9 34.5986C140.966 33.6595 140.009 35.151 139.769 37.2869C139.585 38.9993 138.094 41.1536 140.193 42.0743Z" fill="#001434"/>
<path d="M262.99 230.53C261.756 216.739 242.736 220.734 230.012 224.417C230.012 219.114 230.638 213.277 230.565 212.854C260.228 212.596 283.023 200.554 283.207 168.368C295.231 162.365 306.979 151.336 306.979 135.225C306.979 123.017 301.455 118.782 291.291 119.666C291.084 117.609 290.582 115.594 289.799 113.681C316.222 105.175 317.032 69.6008 311.895 41.1712C314.374 38.3479 315.695 34.6918 315.593 30.9357C315.49 27.1796 313.972 23.6009 311.342 20.9169C318.708 20.4934 320.751 9.75869 312.079 9.74028C314.951 -1.08654 303.204 -3.40658 301.215 5.41323C300.117 4.6609 298.871 4.15165 297.56 3.91952C296.249 3.68738 294.904 3.7377 293.614 4.06712C292.324 4.39654 291.12 4.99747 290.081 5.82974C289.042 6.66202 288.193 7.70646 287.59 8.89328C266.82 1.8227 254.888 5.46847 227.766 1.5281C216.184 -0.202722 206.683 2.19096 199.981 7.27294C187.644 16.6267 193.831 31.0993 185.692 43.9884C182.415 27.7297 184.753 -1.60211 160.319 3.84813C135.535 6.81261 104.344 13.7359 80.7014 18.689C49.4914 21.7455 66.0999 59.4737 67.6282 82.4715C66.8572 80.0253 65.4608 77.823 63.5773 76.0822C59.729 73.1545 42.2735 71.884 36.3261 75.3272C32.9381 77.1685 32.9934 82.1768 32.6435 85.749C32.9013 87.443 33.4353 87.5903 36.0683 89.5973C36.1788 94.9554 36.2893 103.333 37.081 110.643C27.8746 112.485 29.2555 122.501 37.081 126.331C36.5839 144.873 38.7382 174.352 38.3515 194.22C28.6295 192.691 20.7487 191.789 16.7531 192.783C8.76188 194.735 5.88945 208.563 9.9219 216.297C9.31427 217.733 10.0508 219.114 6.49708 219.39C-1.38367 219.998 -2.54369 223.312 5.50278 225.172C12.4629 226.755 23.6396 226.829 31.281 223.809C34.0245 222.741 35.1477 220.256 32.8829 219.887C41.0951 218.046 46.3428 218.709 51.6457 214.824C56.8013 209.815 56.562 198.547 48.9206 195.987L41.9421 194.809C42.3103 174.555 40.377 148.408 40.6348 128.633C43.8939 130.732 48.2577 133.531 53.1372 136.624C53.6711 152.404 51.6089 178.035 52.7321 193.041C52.7466 193.283 52.8086 193.52 52.9145 193.738C53.0205 193.955 53.1683 194.15 53.3495 194.311C53.5307 194.472 53.7419 194.595 53.9708 194.674C54.1998 194.753 54.4421 194.787 54.6839 194.772C54.9257 194.758 55.1622 194.696 55.3801 194.59C55.5979 194.484 55.7928 194.336 55.9535 194.155C56.1142 193.973 56.2377 193.762 56.3168 193.533C56.3959 193.304 56.4292 193.062 56.4147 192.82C55.2915 178.753 57.2801 153.822 56.8198 138.944L82.8741 155.516V161.04C77.5896 160.892 66.1736 161.481 65.1793 167.189C64.7558 168.81 65.879 174.26 67.0206 179.839C59.8579 183.651 64.6637 192.728 65.8237 203.573C60.8154 208.766 62.1411 206.612 68.2358 239.516C68.4511 240.677 68.9481 241.768 69.6833 242.693C70.4184 243.617 71.3693 244.347 72.4524 244.818C77.7001 247.231 87.8641 247.783 90.8654 241.431C94.0508 229.738 94.7689 211.289 94.6769 208.748C94.628 207.974 94.3954 207.223 93.9983 206.557C93.6012 205.89 93.0512 205.329 92.3936 204.918C93.7194 192.378 94.9162 187.646 93.2222 183.614C93.7194 173.303 98.5988 163.654 86.5383 161.518V157.836C93.0013 161.923 94.64 163.139 99.4274 166.103C100.569 169.915 93.7562 263.36 102.318 246.789C100.661 229.794 102.926 188.512 103.036 168.184C118.153 177.722 129.956 172.29 145.036 164.888C140.562 169.767 136.585 174.278 135.222 175.936C129.698 178.311 116.699 175.77 115.815 184.424C114.894 195.361 147.725 222.318 164.793 222.281C176.633 221.508 182.046 207.937 187.865 201.511C198.268 208.563 212.538 212.356 226.864 212.78C226.864 213.59 226.293 219.427 226.293 224.362C216.037 219.04 197.403 213.922 192.21 225.301C191.735 226.847 191.878 228.517 192.609 229.96C193.341 231.402 194.604 232.505 196.132 233.034C200.957 235.133 206.48 229.794 203.498 225.54C201.656 223.054 197.348 223.404 196.666 226.608C196.668 227.014 196.803 227.409 197.052 227.73C197.3 228.051 197.648 228.281 198.041 228.384C198.434 228.487 198.85 228.457 199.224 228.299C199.598 228.141 199.909 227.864 200.11 227.51C200.791 227.51 200.828 228.394 200.496 228.836C200.086 229.344 199.507 229.689 198.865 229.808C198.222 229.928 197.559 229.814 196.993 229.488C196.427 229.162 195.996 228.644 195.777 228.029C195.559 227.413 195.567 226.739 195.801 226.129C201.325 218.948 213.569 222.612 223.218 226.811C177.406 244.358 208.672 271.775 212.999 250.747C212.428 241.044 201.491 243.935 204.105 251.245C204.328 251.611 204.672 251.889 205.077 252.029C205.482 252.169 205.924 252.163 206.326 252.013C206.727 251.862 207.064 251.576 207.277 251.204C207.49 250.832 207.567 250.397 207.493 249.974C207.162 248.888 207.217 248.133 208.119 248.133C210.274 249.311 209.5 254.393 206.278 254.522C204.437 254.835 202.945 253.565 202.319 251.042C201.417 239.7 216.718 233.476 227.048 229.223C227.359 229.516 227.763 229.692 228.189 229.72C232.774 232.371 253.507 250.876 240.802 254.78C235.444 254.982 235.794 248.262 240.36 249.44C240.544 249.698 240.581 250.214 240.139 250.214C239.651 250.214 239.183 250.408 238.837 250.753C238.492 251.098 238.298 251.566 238.298 252.055C238.298 252.543 238.492 253.011 238.837 253.357C239.183 253.702 239.651 253.896 240.139 253.896C240.905 253.92 241.661 253.721 242.315 253.322C242.969 252.923 243.493 252.342 243.822 251.65C246.584 243.051 232.13 244.285 233.29 252.589C238.63 267.669 265.199 252.589 231.762 227.731C242.036 225.098 257.54 221.066 259.381 230.125C259.312 230.732 259.015 231.29 258.55 231.686C258.085 232.083 257.487 232.288 256.877 232.261C255.238 232.5 254.299 230.42 255.588 230.42C255.94 230.677 256.372 230.801 256.807 230.77C257.241 230.739 257.651 230.554 257.963 230.249C258.274 229.944 258.468 229.539 258.508 229.105C258.549 228.67 258.434 228.236 258.184 227.879C255.938 225.356 250.819 227.584 251.371 231.119C251.813 237.84 262.566 236.975 262.99 230.53ZM269.49 179.36C240.544 199.615 198.066 176.083 192.302 142.866C193.66 141.945 194.947 140.923 196.151 139.809C205.652 152.146 233.198 181.257 247.854 164.63C252.789 171.48 262.585 173.358 271.534 172.087C271.305 174.617 270.612 177.082 269.49 179.36ZM155.329 130.99C154.151 132.297 150.929 132.407 151.647 134.783C153.156 137.766 156.692 134.58 158.607 132.941C161.079 133.988 163.748 134.491 166.432 134.414C160.061 140.141 131.576 155 122.922 154.264C113.108 153.601 100.827 143.105 91.6203 139.073C83.3529 135.556 76.7242 129.866 85.01 125.668C91.16 122.483 114.471 114.97 126.587 111.398C137.156 106.795 143.158 109.354 151.481 114.068C150.105 116.898 149.727 120.111 150.409 123.184C151.091 126.256 152.793 129.007 155.237 130.99H155.329ZM155.163 125.466C155.163 120.108 164.573 119.758 167.298 119.942C167.767 119.943 168.22 119.764 168.562 119.442C168.904 119.12 169.111 118.68 169.139 118.211C169.36 114.639 158.091 116.149 153.654 120.218C152.365 112.982 164.701 111.73 165.401 112.227C165.881 112.268 166.358 112.12 166.73 111.813C167.102 111.507 167.339 111.067 167.39 110.588C166.948 107.826 165.548 108.581 162.032 108.747C173.079 103.573 194.217 104.107 197.016 104.199C197.2 104.438 197.403 104.659 197.605 104.88C192.929 107.274 192.082 113.037 194.715 117.64C191.548 120.089 190.093 123.164 191.032 126.847C189.465 128.425 187.995 130.098 186.631 131.855C177.646 129.719 160.117 134.267 155.071 125.374L155.163 125.466ZM207.254 60.0261C216.884 59.0318 219.093 52.9923 219.001 51.5377C220.64 51.5686 222.279 51.4577 223.899 51.2063C228.742 56.3803 237.764 57.5587 253.562 55.1466C257.484 58.7003 262.769 63.3588 270.005 63.0826C270.948 72.1546 270.626 81.3136 269.048 90.297C268.44 100.535 261.922 105.027 268.79 112.393C258.184 120.623 242.57 122.317 238.924 122.612C234.994 118.404 230.389 114.881 225.299 112.19C240.452 98.0304 227.729 92.5433 213.459 105.653C209.795 103.901 205.71 103.218 201.675 103.683C186.613 89.6157 191.805 62.6591 204.75 47.1554C207.162 49.5859 210.936 50.838 215.521 51.3904C215.337 51.8323 213.533 55.9936 207.107 56.4908C206.728 56.6173 206.4 56.8636 206.174 57.1924C205.947 57.5212 205.834 57.9148 205.85 58.3138C205.867 58.7128 206.013 59.0956 206.266 59.4044C206.519 59.7133 206.866 59.9315 207.254 60.0261ZM221.248 110.827C218.429 110.388 215.559 110.388 212.741 110.827C219.83 105.119 225.354 100.774 228.539 101.492C228.944 102.56 225.796 107.145 221.248 110.827ZM210.329 108.084C208.488 109.723 206.646 111.306 205.394 112.558C202.774 113.34 200.219 114.325 197.753 115.504C192.892 106.058 205.799 106.243 210.329 108.084ZM192.671 129.885C193.146 130.479 193.663 131.039 194.217 131.56C193.89 133.13 193.992 134.758 194.512 136.274C181.365 148.114 185.416 137.066 192.671 129.958V129.885ZM276.634 122.962C256.877 129.13 238.795 142.516 246.345 161.905C237.967 168.313 229.202 167.429 215.521 154.65C205.799 145.794 195.598 136.606 198.011 131.524C201.693 121.728 215.448 125.539 215.282 121.489C215.669 117.806 200.441 120.531 195.746 127.896C188.381 118.193 213.717 113.019 221.358 114.455C227.858 114.989 242.92 131.726 245.406 135.243C246.75 137.084 249.751 134.893 248.278 133.033C248.039 132.72 245.626 129.59 242.11 125.779C248.757 124.969 262.603 122.336 272.307 114.05C276.831 115.39 281.624 115.548 286.227 114.51C286.995 116.266 287.492 118.129 287.7 120.034C283.946 120.776 280.248 121.779 276.634 123.035V122.962ZM290.462 10.9924C292.524 6.00245 298.601 6.05769 301.731 10.7162C301.992 11.0299 302.351 11.2478 302.75 11.3356C303.149 11.4233 303.565 11.376 303.934 11.2009C304.303 11.0259 304.604 10.7332 304.788 10.3687C304.973 10.0043 305.031 9.58891 304.953 9.18789C303.977 5.5053 305.266 2.57764 307.844 3.664C308.838 4.49259 309.372 6.99674 307.605 11.3422C307.481 11.6779 307.458 12.0424 307.538 12.3911C307.618 12.7398 307.798 13.0576 308.056 13.3056C308.314 13.5537 308.638 13.7212 308.99 13.7878C309.341 13.8544 309.704 13.8172 310.035 13.6806C312.871 12.3365 315.356 13.4597 313.552 15.7981C312.3 17.2159 308.709 17.4369 306.739 17.2344C306.343 17.2232 305.954 17.3401 305.629 17.5679C305.305 17.7956 305.063 18.122 304.939 18.4984C304.814 18.8749 304.815 19.2813 304.94 19.6573C305.066 20.0333 305.309 20.3589 305.634 20.5855C313.755 25.2072 314.988 37.9858 303.259 42.7731C302.093 41.7084 300.712 40.9061 299.21 40.4201C297.708 39.9341 296.118 39.7758 294.55 39.9559C292.819 39.9559 292.616 39.9559 292.303 39.4036C291.004 37.4255 289.124 35.8993 286.921 35.0352C284.718 34.1711 282.301 34.0119 280.004 34.5794C278.874 32.4698 278.309 30.1037 278.365 27.7113C284.772 30.7863 299.484 28.2637 292.193 18.2839C291.264 17.3594 290.61 16.1949 290.304 14.9203C289.999 13.6458 290.053 12.3113 290.462 11.066V10.9924ZM189.577 44.1357C192.416 39.3805 193.965 33.9666 194.07 28.4294C194.807 10.1822 208.801 2.30144 227.214 4.95291C254.078 9.51932 266.046 5.28434 286.466 12.3181C286.38 13.8373 286.599 15.3585 287.111 16.7913C287.624 18.2242 288.419 19.5395 289.449 20.6592C289.851 21.0117 290.147 21.468 290.306 21.9779C290.465 22.4879 290.481 23.0317 290.352 23.55C287.406 28.2269 276.431 22.4268 275.953 23.55C273.08 27.6008 275.345 34.0822 277.794 37.7648C278.031 38.1064 278.376 38.3578 278.774 38.4781C279.172 38.5985 279.599 38.5807 279.985 38.4277C281.624 37.8034 283.425 37.7491 285.099 38.2735C286.772 38.7979 288.221 39.8706 289.21 41.3185C293.187 46.1427 296.759 40.9134 301.436 46.2348C303.701 47.763 306.85 45.1484 308.801 44.1173C314.141 74.2409 310.348 113.479 278.236 111.564C270.723 111.122 267.925 108.397 270.134 102.357C273.448 90.5547 276.118 70.0611 272.786 59.713C269.604 59.7947 266.443 59.1775 263.526 57.9049C260.608 56.6324 258.006 54.7354 255.901 52.3479C255.672 52.0379 255.367 51.7922 255.015 51.6342C254.664 51.4762 254.278 51.4112 253.894 51.4456C234.026 54.5942 228.576 51.3167 226.053 48.1313C225.84 47.8589 225.554 47.6522 225.228 47.535C224.903 47.4177 224.55 47.3947 224.212 47.4684C217.584 48.7021 209.482 47.5789 206.996 43.9147C206.991 43.5565 206.882 43.2074 206.681 42.9104C206.481 42.6133 206.198 42.3812 205.868 42.2424C205.538 42.1036 205.174 42.0643 204.822 42.1291C204.469 42.1939 204.144 42.3601 203.884 42.6074C193.057 54.3917 187.073 72.418 189.448 87.3693C180.573 77.1685 179.745 62.5855 189.577 44.1173V44.1357ZM81.2538 22.2795C100.514 18.7995 126.752 11.2317 147.541 9.39043C158.073 8.50661 171.477 2.15414 176.651 13.8648C141.299 22.39 105.43 26.7538 65.4186 36.5311C66.5234 26.0173 74.2753 23.3843 81.2538 22.2795ZM65.3266 40.3794C77.4607 36.9915 106.921 30.9704 112.335 30.3996C131.853 28.411 161.829 20.1068 177.94 17.3817C180.168 28.0612 180.721 38.8696 182.93 49.678C182.213 51.5581 181.598 53.4759 181.089 55.4228C179.929 51.5009 180.923 48.6837 178.198 46.4189C175.473 44.1541 169.636 47.1922 166.69 47.2291C155.274 47.3579 157.907 52.1085 159.122 61.2045C162.547 82.7845 158.183 82.7292 180.334 77.4079C180.573 78.4574 180.868 79.4517 181.181 80.4092C170.133 83.4473 100.882 102.505 89.5028 105.396C83.9789 106.813 79.9096 106.685 77.3134 104.954C72.6549 101.879 72.526 93.9059 71.8816 87.6455C70.2797 72.51 66.284 55.4965 65.3266 40.3794ZM162.602 54.0971C162.602 55.5333 163.505 58.0191 165.512 57.7797C167.187 57.614 169.894 57.5403 169.673 55.2939C169.36 53.5447 167.648 53.5999 166.23 54.0603C166.23 52.8818 165.861 51.2063 164.388 51.2063C166.953 50.9956 169.496 50.5769 171.993 49.9542C173.576 49.7885 175.031 48.7021 176.228 49.6043C176.504 51.0405 176.928 53.2869 177.388 55.699C172.177 57.5403 167.169 57.5403 162.326 58.2584C161.976 56.0489 161.626 53.5631 161.442 51.9428C161.829 51.5561 163.007 51.5009 163.633 51.3351C162.4 51.685 162.345 53.066 162.602 54.0971ZM169.526 61.7937C168.918 61.9226 167.997 62.2172 167.095 62.4197C167.014 61.9837 166.779 61.5914 166.432 61.315C170.375 61.1338 174.276 60.4279 178.032 59.2159C178.419 61.2781 178.787 63.1563 179.008 64.3347C176.302 64.9239 172.969 65.0896 170.115 65.4579C170.601 65.3797 171.036 65.1118 171.324 64.713C171.612 64.3141 171.73 63.8171 171.652 63.3312C171.574 62.8453 171.306 62.4103 170.907 62.122C170.509 61.8337 170.012 61.7156 169.526 61.7937ZM164.002 61.6096C162.915 63.0826 164.002 66.4706 166.119 66.2312C165.162 66.5074 164.278 66.802 163.486 67.0782C163.228 65.2369 162.989 63.3956 162.786 61.7753L164.002 61.6096ZM166.211 70.0059C165.051 71.037 165.843 72.7862 166.211 73.9278C166.911 76.5977 170.925 75.272 172.067 74.2409C174.166 72.3996 171.183 69.8033 169.268 71.6815C169.268 70.7976 168.734 69.6929 167.74 69.5456C171.256 68.6986 175.473 68.7722 179.229 67.9989C179.208 69.9509 179.331 71.9019 179.598 73.8358C175.326 74.4618 170.612 76.0085 165.18 76.9844C164.757 75.272 164.37 73.0624 164.002 70.7424C164.591 70.5214 165.346 70.2452 166.174 70.0059H166.211ZM61.2573 78.9178L61.3678 79.0651C59.8395 82.0111 40.4322 80.0778 39.2722 77.8682C44.3174 76.3399 57.7588 76.4136 61.2757 78.9178H61.2573ZM36.3814 85.2334C36.4386 83.6793 36.6296 82.1331 36.9522 80.6117C41.9789 84.0366 56.8198 86.4487 63.6326 81.9007C63.9988 83.5414 64.2206 85.2111 64.2954 86.8906C59.0477 90.0208 43.3599 91.0887 36.3814 85.2334ZM39.8062 91.3281C45.8456 93.6297 55.8255 92.9853 61.1836 91.9541C60.9811 98.9326 60.797 105.359 60.0973 114.62C60.062 115.039 59.9031 115.437 59.6408 115.765C59.3785 116.093 59.0247 116.335 58.6242 116.462C35.6448 121.268 40.9294 104.272 39.8062 91.3281ZM13.0153 214.198C10.4006 208.269 12.5181 197.626 17.7474 196.3C25.2783 194.993 29.7527 207.68 25.665 213.019C21.4137 212.801 17.1531 213.198 13.0153 214.198ZM45.8088 199.118C52.6216 199.118 53.174 208.563 49.1416 212.356C43.2678 215.266 37.5598 215.339 27.2117 216.978C32.8645 211.675 31.1705 200.793 26.6041 196.282C32.6251 196.871 40.1192 198.142 45.8088 199.118ZM80.149 191.458C83.5778 191.68 87.0188 191.293 90.313 190.316C89.981 196.992 89.1438 203.634 87.8088 210.184C82.1829 211.145 76.424 211.008 70.8505 209.779C69.4142 203.334 67.8123 194.109 67.1679 188.862C71.2395 190.708 75.6804 191.596 80.149 191.458ZM69.3038 172.198C73.9807 174.352 86.3542 174.573 90.7917 172.087C90.5339 175.77 90.0368 181.588 89.1714 186.818C86.3358 188.217 76.2823 188.07 72.3419 186.818C71.0162 181.073 69.9114 175.696 69.3038 172.198ZM87.4406 240.657C83.9605 244.211 73.0416 243.935 71.8816 238.945C68.8619 225.89 67.5361 216.997 66.9285 212.301C74.6766 215.126 83.1286 215.377 91.0311 213.019C90.7067 222.324 89.5045 231.578 87.4406 240.657ZM90.3498 167.153C90.527 167.316 90.6818 167.501 90.8101 167.705C89.8342 170.964 69.7089 170.964 68.9908 167.558C71.9368 163.617 90.2209 164.538 90.3498 167.153ZM97.0153 160.266C93.4616 157.928 81.0881 150.047 67.978 141.706C56.0096 132.647 23.2345 118.321 38.0201 114.087C40.9294 119.905 52.2349 122.483 59.5817 119.887C60.693 119.554 61.6772 118.892 62.4038 117.988C63.1305 117.083 63.5654 115.98 63.651 114.823C64.4059 104.972 64.5716 98.546 64.7926 90.8862C65.561 90.5668 66.2396 90.0642 66.7691 89.4223C67.2987 88.7804 67.6632 88.0187 67.8307 87.2036C67.8307 87.2036 65.9894 111.766 82.6716 109.888C98.5988 108.176 167.979 86.9642 182.396 83.6867C183.901 87.3695 186.78 90.3217 190.424 91.9173C191.283 94.8287 192.522 97.6145 194.107 100.203C184.643 100.332 160.743 100.203 152.954 111.012C145.589 106.095 137.064 102.836 125.334 107.955C112.998 111.638 89.4476 119.003 83.1872 122.446C70.427 129.517 80.7382 138.447 90.092 142.461C99.7957 146.604 111.893 157.191 122.48 157.909C133.252 158.314 167.169 141.338 170.759 134.543C175.455 134.654 179.763 134.709 184.127 135.022C183.325 136.375 182.747 137.849 182.415 139.386C168.55 142.424 161.332 147.819 152.217 157.504C132.902 165.864 121.21 178.348 97.0705 160.266H97.0153ZM170.152 217.015C156.6 226.406 117.251 191.237 119.461 184.829C119.461 180.87 129.293 180.999 133.786 180.244C141.151 194.33 164.609 206.335 177.756 209.116C175.5 211.986 172.972 214.631 170.207 217.015H170.152ZM210.973 194.441C192.91 192.82 188.436 192.36 180.224 205.894C168.697 204.052 144.65 192.434 137.248 179.011C147.725 168.202 163.357 145.554 182.654 142.94C180.168 145.738 182.139 147.598 184.864 144.781C186.196 145.234 187.652 145.162 188.933 144.578C195.47 176.488 233.014 200.388 263.947 186.376C250.874 198.123 228.171 195.527 211.028 194.441H210.973Z" fill="#001434"/>
<path d="M103.239 84.4963C103.552 87.0005 105.762 90.0202 108.487 90.0202C118.669 87.4424 128.189 84.8646 130.582 85.0671C138.058 85.0671 147.393 81.2741 152.291 79.0093C155.532 77.5178 156.121 73.4854 155.642 70.5209C154.924 60.2281 151.96 55.7905 150.247 45.3136C149.216 38.8322 149.051 27.2689 139.513 29.3495C130.306 34.3579 91.6388 31.9642 94.5297 45.0558C98.7094 63.303 101.25 65.4574 103.239 84.4963ZM120.161 36.9909C128.575 36.5674 134.136 34.3026 141.262 32.7928C146.786 33.0505 145.313 41.6862 146.786 45.9028C147.835 55.8274 150.818 58.2211 151.684 67.6485C151.96 70.1711 153.23 74.4429 150.892 75.7318C138.187 82.7655 124.837 80.8506 108.542 86.4113C108.128 86.1683 107.77 85.8412 107.491 85.451C107.212 85.0609 107.018 84.6164 106.922 84.1465C105.67 69.3057 102.042 60.983 98.2307 44.4113C96.997 39.0163 115.465 37.7827 120.216 36.9909H120.161Z" fill="#001434"/>
<path d="M144.98 72.5838C143.85 72.7341 142.705 72.4512 141.776 71.7921C141.358 71.5308 140.854 71.4461 140.374 71.5566C139.894 71.6671 139.478 71.9638 139.216 72.3813C138.955 72.7988 138.87 73.303 138.981 73.783C139.091 74.263 139.388 74.6794 139.806 74.9407C140.689 75.5541 141.689 75.9814 142.743 76.1966C143.797 76.4119 144.884 76.4106 145.937 76.1928C146.416 76.0658 146.824 75.7539 147.073 75.3257C147.322 74.8976 147.39 74.3881 147.263 73.9096C147.136 73.431 146.824 73.0225 146.396 72.7738C145.968 72.5252 145.458 72.4569 144.98 72.5838Z" fill="#001434"/>
<path d="M105.779 55.3302C106.207 55.3699 106.635 55.259 106.989 55.0166C107.344 54.7742 107.602 54.4155 107.72 54.0027C107.838 53.5898 107.808 53.1487 107.635 52.7557C107.462 52.3626 107.158 52.0423 106.774 51.8502C103.993 51.1505 103.423 49.4197 101.673 51.3899C100.863 54.0413 102.576 54.0781 105.779 55.3302Z" fill="#001434"/>
<path d="M108.947 46.1991C110.59 47.207 112.078 48.4474 113.366 49.8817C113.709 50.2135 114.168 50.399 114.646 50.399C115.123 50.399 115.582 50.2135 115.925 49.8817C116.263 49.5375 116.452 49.0747 116.452 48.5928C116.452 48.1108 116.263 47.648 115.925 47.3039C114.337 45.5701 112.47 44.1139 110.402 42.9952C110.011 42.9455 109.615 43.0221 109.272 43.2139C108.928 43.4056 108.655 43.7023 108.492 44.0606C108.33 44.4188 108.286 44.8197 108.368 45.2046C108.45 45.5894 108.653 45.9379 108.947 46.1991Z" fill="#001434"/>
<path d="M144.207 63.0093C145.269 63.6206 146.211 64.4191 146.988 65.3661C148.534 67.2074 151.296 64.6664 149.694 62.9356C148.584 61.5538 147.182 60.4346 145.588 59.6581C145.166 59.5668 144.725 59.6267 144.343 59.8274C143.961 60.0282 143.661 60.3569 143.496 60.7562C143.332 61.1555 143.313 61.5999 143.443 62.0118C143.573 62.4236 143.843 62.7767 144.207 63.0093Z" fill="#001434"/>
<path d="M153.542 9.66635C153.542 9.66635 149.656 10.9368 149.067 12.06C148.883 13.0083 148.956 13.9887 149.28 14.8989C149.604 15.809 150.167 16.6155 150.909 17.2341C151.203 17.9338 158.605 16.6633 157.869 13.8277C157.206 11.9864 155.751 8.94825 153.542 9.66635Z" fill="#001434"/>
<path d="M104.416 110.459C114.285 109.207 133.766 101.787 141.905 100.719C145.054 99.5038 162.527 96.7787 160.649 92.8567C160.442 92.4242 160.073 92.0897 159.623 91.9247C159.172 91.7596 158.675 91.7769 158.237 91.9729C144.556 97.3311 132.698 98.2333 116.311 104.015C112.318 105.441 108.171 106.393 103.956 106.851C103.534 106.973 103.17 107.242 102.929 107.609C102.689 107.976 102.587 108.417 102.642 108.852C102.698 109.287 102.907 109.689 103.232 109.983C103.558 110.278 103.977 110.447 104.416 110.459Z" fill="#001434"/>
<path d="M299.226 15.6882C302.909 12.3555 297.127 10.1643 295.138 12.1713C293.15 14.1783 295.599 19.021 299.226 15.6882Z" fill="#001434"/>
<path d="M166.045 37.2859C173.742 36.0154 170.759 23.8076 162.989 26.367C154.611 29.129 159.233 38.2434 166.045 37.2859ZM166.837 32.5906C165.99 34.9659 162.197 33.1614 162.123 31.67C162.271 28.908 168.126 29.0185 166.837 32.5906Z" fill="#001434"/>
<path d="M175.62 39.0914C179.745 37.2501 178.271 31.7262 177.461 28.7617C175.62 20.7521 173.908 17.5666 165.622 21.0099C149.05 25.0975 147.908 19.7025 152.733 39.92C155.771 47.322 174.055 39.7542 175.62 39.0914ZM166.69 24.361C168.531 24.0664 171.459 21.8753 172.379 24.2137C172.379 26.4417 176.301 33.6964 174.092 35.7034C170.869 36.9371 163.854 40.4539 156.084 38.7784C154.666 33.6596 154.666 31.6157 153.672 26.8836C161.258 25.2264 161.203 26.3312 166.69 24.4531V24.361Z" fill="#001434"/>
<path d="M112.445 78.4029L110.824 80.4652C110.603 80.8458 110.526 81.2931 110.606 81.726C110.686 82.1589 110.919 82.5488 111.261 82.8249C111.604 83.101 112.035 83.2451 112.475 83.2311C112.915 83.217 113.335 83.0458 113.66 82.7484L115.354 80.6493C115.617 80.2614 115.722 79.7878 115.648 79.3249C115.574 78.8621 115.326 78.445 114.955 78.1586C114.584 77.8721 114.118 77.7379 113.652 77.7833C113.185 77.8287 112.754 78.0503 112.445 78.4029Z" fill="#001434"/>
<path d="M168.328 11.2507C172.471 8.65444 167.684 5.50582 165.161 9.3173C161.736 5.78202 158.422 9.98017 163.044 12.2818C160.3 15.7066 164.738 18.2476 166.137 14.1231C169.672 17.0323 172.987 12.6685 168.328 11.2507Z" fill="#001434"/>
</svg>
