<svg width="16" height="16" viewBox="0 0 16 16" fill="none" xmlns="http://www.w3.org/2000/svg">
<path d="M6.84211 4.49951V2.68514C6.84211 2.58601 6.75693 2.50876 6.65827 2.51832C5.1531 2.66431 2.28148 2.75601 0.935903 2.14488C0.815609 2.09025 0.666672 2.17392 0.666672 2.30604V8.86499C0.666672 8.94349 0.72089 9.01133 0.797802 9.027C1.62204 9.19494 3.23209 9.43888 4.0117 9.24952M4.0117 9.24952V4.74951M4.0117 9.24952V11.42C4.0117 11.4703 4.03386 11.518 4.0742 11.548C4.6359 11.9662 6.0297 12.5768 7.61404 11.9995M8.90059 5.74951V4.91618C8.90059 4.82413 8.82679 4.74957 8.73475 4.74883C7.56469 4.73942 5.37206 4.63066 4.78363 4.24951M7.61404 11.9995V5.95169C7.61404 5.84688 7.70968 5.7682 7.81306 5.7854C8.58578 5.91394 9.30545 5.90878 9.92983 5.83555C10.8968 5.72215 11.6353 5.4455 11.9883 5.24951M7.61404 11.9995V13.1019C7.61404 13.1861 7.67673 13.2573 7.76059 13.2657C8.49802 13.3396 9.86772 13.3731 10.4444 12.9995" stroke="#5B5180" stroke-width="0.666667" stroke-linecap="round"/>
<path d="M9.92969 5.83604V4.91667C9.92969 4.82462 10.0043 4.75 10.0964 4.75H15.3332M15.3332 4.75V12.3788C15.3332 12.4511 15.2866 12.5151 15.2179 12.5373L15.0759 12.5833M15.3332 4.75L15.0759 4.84211M14.8186 4.93421V12.6667M14.8186 4.93421L15.0759 4.84211M14.8186 4.93421L14.6487 4.99503M14.8186 12.6667L15.0759 12.5833M14.8186 12.6667L14.6487 12.7217M15.0759 12.5833V4.84211M14.4788 5.05585V12.7767M14.4788 5.05585L14.6487 4.99503M14.4788 5.05585L14.304 5.11842M14.4788 12.7767L14.6487 12.7217M14.4788 12.7767L14.304 12.8333M14.6487 12.7217V4.99503M14.304 5.11842V12.8333M14.304 5.11842L14.1217 5.18367M14.304 12.8333L14.1217 12.8924M14.1217 12.8924V5.18367M14.1217 12.8924L13.9364 12.9524M14.1217 5.18367L13.9364 5.25M13.9364 5.25V12.9524M13.9364 5.25L13.74 5.3203M13.9364 12.9524L13.74 13.016M13.74 13.016V5.3203M13.74 13.016L13.532 13.0833M13.74 5.3203L13.532 5.39474M13.532 5.39474V13.0833M13.532 5.39474L13.3218 5.46999M13.532 13.0833L13.3218 13.1514M13.3218 13.1514V5.46999M13.3218 13.1514L13.0769 13.2307M13.3218 5.46999L13.0769 5.55766M13.0769 5.55766V13.2307M13.0769 5.55766L12.8334 5.6448M13.0769 13.2307L12.8334 13.3096M12.8334 13.3096V5.6448M12.8334 13.3096L12.6074 13.3828M12.8334 5.6448L12.6074 5.72573M12.6074 5.72573V13.3828M12.6074 5.72573L12.4012 5.79951M12.6074 13.3828L12.4012 13.4496M12.4012 13.4496V5.79951M12.4012 13.4496L12.1664 13.5256M12.4012 5.79951L12.1664 5.88355M12.1664 5.88355V13.5256M12.1664 5.88355L11.9353 5.96628M12.1664 13.5256L11.9353 13.6004M11.9353 13.6004V5.96628M11.9353 13.6004L11.7309 13.6667M11.9353 5.96628L11.7309 6.03947M11.7309 6.03947V13.6667M11.7309 6.03947L11.5368 6.10894M11.7309 13.6667L11.5368 13.7295M11.5368 13.7295V6.10894M11.5368 13.7295L11.2851 13.811M11.5368 6.10894L11.2851 6.19905M11.2851 6.19905V13.811M11.2851 6.19905L11.0848 6.27075M11.2851 13.811L11.1186 13.865M11.1186 13.865L11.0848 6.27075M11.1186 13.865L10.9101 13.9325M11.0848 6.27075L10.8545 6.35315M10.8545 6.35315L10.9101 13.9325M10.8545 6.35315L10.6494 6.42658M10.9101 13.9325L10.8059 13.9662M10.8059 13.9662L10.6494 6.42658M10.8059 13.9662C10.7536 13.9832 10.6997 13.9454 10.6979 13.8905L10.4485 6.62162C10.446 6.54917 10.4906 6.48342 10.5589 6.45899L10.6494 6.42658" stroke="#9683D7" stroke-width="0.666667" stroke-linecap="round"/>
</svg>
