<svg width="16" height="23" viewBox="0 0 16 23" fill="none" xmlns="http://www.w3.org/2000/svg">
<path d="M8.84286 13.0436C8.84286 13.1739 8.73571 13.2795 8.60352 13.2795C8.47133 13.2795 8.36417 13.1739 8.36417 13.0436C8.36417 12.9133 8.47133 12.8077 8.60352 12.8077C8.73571 12.8077 8.84286 12.9133 8.84286 13.0436Z" fill="#5B5180"/>
<path d="M5.46011 13.0436C5.46011 13.1739 5.35295 13.2795 5.22077 13.2795C5.08858 13.2795 4.98142 13.1739 4.98142 13.0436C4.98142 12.9133 5.08858 12.8077 5.22077 12.8077C5.35295 12.8077 5.46011 12.9133 5.46011 13.0436Z" fill="#5B5180"/>
<path d="M13.1634 12.4908C13.1936 12.5906 13.2229 12.6904 13.2511 12.79M13.1634 12.4908L10.7112 13.479M13.1634 12.4908C13.1402 12.3881 13.1154 12.2874 13.089 12.1887M7.60817 7.64117C7.59172 7.64083 7.57656 7.63935 7.56037 7.6365C7.42502 7.61268 7.27887 7.59357 7.12462 7.58074M7.60817 7.64117C7.88746 7.64691 8.22407 7.68609 8.59267 7.77021M7.60817 7.64117L6.74573 8.98084M2.66007 19.5058C2.69231 19.3542 2.72251 19.2094 2.75076 19.071M2.66007 19.5058L5.96232 18.2308M2.66007 19.5058C2.6341 19.6278 2.59578 19.7589 2.55044 19.8958M2.04041 22.0887C2.07762 22.2069 2.21236 22.2505 2.33395 22.2195C2.49252 22.179 2.68215 22.1355 2.88818 22.0931M2.04041 22.0887C2.00207 21.967 1.99303 21.8292 2.00484 21.6806M2.04041 22.0887L5.8052 20.4M6.18864 18.4852C6.18023 18.3611 6.08439 18.2625 5.96232 18.2308M6.18864 18.4852L2.55044 19.8958M6.18864 18.4852C6.19665 18.6033 6.19842 18.7201 6.19462 18.8353M5.96232 18.2308C5.83511 18.1978 5.69206 18.1534 5.54186 18.0961M3.86954 16.3693C3.86621 16.3512 3.86491 16.3332 3.86538 16.3148C3.86775 16.2223 3.86979 16.1232 3.87152 16.0188M3.86954 16.3693L3.10995 16.5625M3.86954 16.3693C3.89745 16.521 3.94203 16.6618 4 16.7924M3.86467 11.908C3.86467 11.8505 3.86992 11.7856 3.88031 11.7147M3.86467 11.908L2.66425 11.4582M3.86467 11.908C3.86467 11.9496 3.86507 12.0174 3.86574 12.107M6.74573 8.98084C6.80947 8.98767 6.8685 9.01849 6.91284 9.0641M6.74573 8.98084C6.67776 8.97355 6.61084 8.96974 6.545 8.96921M6.91284 9.0641L7.20771 9.36736M6.91284 9.0641L8.59267 7.77021M10.5982 12.8545C10.6444 12.9021 10.6728 12.9632 10.6782 13.0288M10.5982 12.8545L12.8906 11.5625M10.5982 12.8545L10.4446 12.6965M10.6782 13.0288C10.6834 13.0915 10.6886 13.1586 10.6939 13.2292M10.6782 13.0288L13.0041 11.8958M12.4815 21.8402C12.1711 21.7676 11.8625 21.713 11.6395 21.6806C11.6035 21.6753 11.5687 21.6638 11.5369 21.6462L11.4972 21.6243C11.4534 21.6001 11.4028 21.5878 11.3526 21.586C11.1815 21.5798 11.0217 21.5533 10.8727 21.5095M12.4815 21.8402C12.7221 21.8965 12.9637 21.9636 13.1672 22.0397C13.3768 22.118 13.6688 22.0085 13.7101 21.7915C13.7252 21.712 13.7401 21.6288 13.7548 21.5419M12.4815 21.8402L13.7548 21.5419M13.7548 21.5419C13.7631 21.4927 13.7713 21.4423 13.7795 21.3907M13.804 21.2292H10.3044M13.804 21.2292C13.7959 21.2842 13.7878 21.338 13.7795 21.3907M13.804 21.2292C13.8229 21.0999 13.841 20.9642 13.8581 20.8226M10.3044 21.2292C10.4733 21.3513 10.6623 21.4476 10.8727 21.5095M10.3044 21.2292C10.1709 21.1327 10.0498 21.0202 9.94041 20.8958M10.8727 21.5095L13.7795 21.3907M13.8581 20.8226L9.94041 20.8958M13.8581 20.8226C13.8727 20.7025 13.8864 20.578 13.8992 20.4496M9.94041 20.8958C9.88172 20.8291 9.82639 20.759 9.77428 20.6862M9.77428 20.6862L13.8992 20.4496M9.77428 20.6862C9.70879 20.5947 9.64841 20.4989 9.59288 20.4M13.8992 20.4496C13.9111 20.3311 13.9221 20.2092 13.9322 20.0841M13.9322 20.0841L9.59288 20.4M13.9322 20.0841C13.9428 19.9524 13.9524 19.8172 13.9609 19.6786M9.59288 20.4C9.53525 20.2975 9.48285 20.1917 9.43541 20.0841M9.43541 20.0841L13.9609 19.6786M9.43541 20.0841C9.3827 19.9646 9.33612 19.8429 9.29528 19.7211M13.9609 19.6786C13.9785 19.3879 13.9909 19.0825 13.9965 18.7644M13.9833 19.2292L9.29528 19.7211M9.29528 19.7211C9.21376 19.4779 9.15516 19.2341 9.11649 19.0058M9.19069 19.3613L13.9965 18.7644M13.9965 18.7644C13.9989 18.6331 14.0001 18.4996 14 18.3641M14 18.3641L9.11649 19.0058M14 18.3641C13.9999 18.2105 13.9982 18.0544 13.9948 17.8958M9.11649 19.0058C9.09857 18.9 9.08493 18.7975 9.07527 18.6999M9.07527 18.6999L13.9948 17.8958M9.07527 18.6999C9.06335 18.5795 9.0575 18.4665 9.05717 18.3641M13.9948 17.8958C13.9928 17.8038 13.9902 17.711 13.987 17.6174M13.987 17.6174L9.05717 18.3641M13.987 17.6174C13.9817 17.4626 13.9746 17.3058 13.9657 17.147M9.05717 18.3641C9.0568 18.2517 9.06308 18.1519 9.07527 18.0689M9.07527 18.0689C9.09379 17.9426 9.12596 17.8549 9.16916 17.8197C9.28847 17.7224 9.41018 17.6165 9.5304 17.5043M9.07527 18.0689L13.9657 17.147M13.9657 17.147C13.958 17.009 13.9489 16.8696 13.9383 16.7289M13.9383 16.7289L9.5304 17.5043M13.9383 16.7289C13.928 16.5911 13.9162 16.4521 13.9029 16.312M9.5304 17.5043C9.65215 17.3908 9.77236 17.2708 9.88699 17.147M9.88699 17.147L13.9029 16.312M9.88699 17.147C10.0323 16.9901 10.1687 16.827 10.2878 16.6629M13.9029 16.312C13.8883 16.1582 13.8719 16.0029 13.8535 15.8465M13.8535 15.8465L10.2878 16.6629M13.8535 15.8465C13.838 15.7142 13.8211 15.581 13.8028 15.447M10.2878 16.6629C10.3729 16.5458 10.4492 16.4282 10.5137 16.312M10.5137 16.312C10.5786 16.195 10.6316 16.0793 10.6696 15.9671C10.6726 15.9584 10.6754 15.9494 10.6782 15.94M10.5137 16.312L13.8028 15.447M13.8028 15.447C13.7897 15.3512 13.7758 15.255 13.7612 15.1585M13.7612 15.1585L10.6782 15.94M13.7612 15.1585C13.7444 15.0474 13.7266 14.9359 13.7077 14.824M10.6782 15.94C10.7012 15.8621 10.7187 15.7595 10.7317 15.6387M10.7317 15.6387L13.7077 14.824M10.7317 15.6387C10.7415 15.5477 10.7487 15.4463 10.7537 15.3374M13.7077 14.824C13.6852 14.6906 13.6613 14.5566 13.6357 14.4221M13.6357 14.4221L10.7537 15.3374M13.6357 14.4221C13.6118 14.2961 13.5866 14.1696 13.5599 14.0427M10.7537 15.3374C10.7585 15.2334 10.7613 15.1225 10.7624 15.007M10.7624 15.007L13.5599 14.0427M10.7624 15.007C10.7632 14.9272 10.7632 14.8452 10.7624 14.7618M13.5599 14.0427C13.5404 13.9505 13.5203 13.858 13.4993 13.7653M13.4993 13.7653L10.7624 14.7618M13.4993 13.7653C13.4743 13.6545 13.4482 13.5434 13.4209 13.4322M10.7624 14.7618C10.7615 14.6504 10.7592 14.5366 10.756 14.4221M10.756 14.4221L13.4209 13.4322M10.756 14.4221C10.7533 14.3242 10.7499 14.2258 10.7459 14.1282M13.4209 13.4322C13.3929 13.318 13.3637 13.2037 13.3333 13.0892M13.3333 13.0892L10.7459 14.1282M13.3333 13.0892C13.3069 12.9896 13.2795 12.8898 13.2511 12.79M10.7459 14.1282C10.7417 14.0266 10.7369 13.9258 10.7317 13.8272M10.7317 13.8272L13.2511 12.79M10.7317 13.8272C10.7254 13.7072 10.7185 13.5904 10.7112 13.479M10.7112 13.479C10.7056 13.392 10.6997 13.3084 10.6939 13.2292M10.6939 13.2292L13.089 12.1887M13.089 12.1887C13.0623 12.0891 13.034 11.9914 13.0041 11.8958M13.0041 11.8958C12.9684 11.7819 12.9306 11.6708 12.8906 11.5625M12.8906 11.5625C12.8573 11.4722 12.8226 11.3839 12.7864 11.2974M12.7864 11.2974L10.4446 12.6965M12.7864 11.2974C12.748 11.2055 12.7081 11.1157 12.6667 11.028M10.4446 12.6965L10.2446 12.4908M10.2446 12.4908L12.6667 11.028M10.2446 12.4908L10.0597 12.3007M12.6667 11.028C12.6217 10.9327 12.5749 10.8399 12.5266 10.7495M12.5266 10.7495L10.0597 12.3007M12.5266 10.7495C12.4818 10.6657 12.4356 10.584 12.3882 10.5043M10.0597 12.3007L9.87144 12.107M9.87144 12.107L12.3882 10.5043M9.87144 12.107L9.6661 11.8958M12.3882 10.5043C12.3318 10.4097 12.2737 10.3181 12.214 10.2292M12.214 10.2292L9.6661 11.8958M12.214 10.2292C12.1533 10.1389 12.091 10.0516 12.0271 9.96704M9.6661 11.8958L9.49003 11.7147M9.49003 11.7147L12.0271 9.96704M9.49003 11.7147L9.24056 11.4582M12.0271 9.96704C11.9653 9.88512 11.902 9.80583 11.8374 9.72912M11.8374 9.72912L9.24056 11.4582M11.8374 9.72912C11.7814 9.66258 11.7245 9.59798 11.6667 9.53526M9.24056 11.4582L9.01791 11.2292M9.01791 11.2292L11.6667 9.53526M9.01791 11.2292L8.82236 11.028M11.6667 9.53526C11.5925 9.45482 11.517 9.37748 11.4403 9.30315M11.4403 9.30315L8.82236 11.028M11.4403 9.30315C11.3542 9.21973 11.2666 9.14009 11.1779 9.0641M8.82236 11.028L8.59267 10.7918M8.59267 10.7918L11.1779 9.0641M8.59267 10.7918L8.36972 10.5625M11.1779 9.0641C11.0884 8.98752 10.9977 8.91466 10.9062 8.84535M10.9062 8.84535L8.36972 10.5625M10.9062 8.84535C10.8175 8.77826 10.7281 8.7145 10.638 8.65396M8.36972 10.5625L8.17636 10.3636M8.17636 10.3636L10.638 8.65396M8.17636 10.3636L7.93997 10.1205M10.638 8.65396C10.5078 8.5664 10.3764 8.48556 10.2446 8.41105M10.2446 8.41105L7.93997 10.1205M10.2446 8.41105C10.1458 8.35517 10.0468 8.30285 9.94797 8.25393M7.93997 10.1205L7.79077 9.96704M7.79077 9.96704L9.94797 8.25393M7.79077 9.96704L7.50257 9.67063M9.94797 8.25393C9.79445 8.17794 9.64136 8.11015 9.49003 8.04997M9.49003 8.04997L7.50257 9.67063M9.49003 8.04997C9.33016 7.98638 9.17226 7.93128 9.01791 7.88393M7.50257 9.67063L7.20771 9.36736M7.20771 9.36736L9.01791 7.88393M9.01791 7.88393C8.87258 7.83935 8.73039 7.80164 8.59267 7.77021M7.12462 7.58074L6.545 8.96921M7.12462 7.58074C6.97849 7.56859 6.82507 7.56207 6.66667 7.56252M6.545 8.96921C6.49758 8.96883 6.45072 8.97015 6.40442 8.97309M6.40442 8.97309L6.66667 7.56252M6.40442 8.97309C6.29812 8.97985 6.19479 8.99516 6.09451 9.01808M6.66667 7.56252C6.48156 7.56305 6.28962 7.5731 6.09451 7.59479M6.09451 7.59479L6.24303 8.96921M6.09451 7.59479C5.9878 7.60665 5.88014 7.62199 5.77213 7.64117M6.09451 9.01808L5.77213 7.64117M6.09451 9.01808C6.01623 9.03597 5.9398 9.0585 5.86526 9.08523M5.77213 7.64117C5.59251 7.67306 5.4119 7.71554 5.23304 7.77021M5.23304 7.77021L5.86526 9.08523M5.23304 7.77021C5.09464 7.81252 4.95729 7.86213 4.82226 7.91978M5.86526 9.08523C5.77539 9.11745 5.68827 9.15577 5.60395 9.1994M5.60395 9.1994L4.82226 7.91978M5.60395 9.1994C5.50823 9.24892 5.41612 9.30529 5.32771 9.36736M4.82226 7.91978C4.68457 7.97856 4.54929 8.04571 4.41777 8.12201M4.41777 8.12201L5.32771 9.36736M4.41777 8.12201C4.31601 8.18104 4.2165 8.24555 4.11986 8.3159M5.32771 9.36736C5.25342 9.41953 5.18173 9.47572 5.1127 9.53526M5.1127 9.53526L4.11986 8.3159M5.1127 9.53526C5.04162 9.59657 4.97335 9.66144 4.90797 9.72912M4.11986 8.3159C4.01635 8.39125 3.91613 8.4733 3.81998 8.5625M3.81998 8.5625L4.90797 9.72912M3.81998 8.5625C3.72637 8.64934 3.63661 8.74295 3.5514 8.84375M4.90797 9.72912C4.83444 9.80522 4.76455 9.88488 4.69838 9.96704M4.69838 9.96704L3.5514 8.84375M4.69838 9.96704C4.62986 10.0521 4.56532 10.1399 4.50486 10.2292M3.5514 8.84375C3.45856 8.95358 3.37112 9.07196 3.29001 9.1994M3.29001 9.1994L4.50486 10.2292M3.29001 9.1994C3.22278 9.30502 3.15989 9.41687 3.10187 9.53526M4.50486 10.2292C4.4538 10.3046 4.40564 10.381 4.36045 10.4579M4.36045 10.4579L3.10187 9.53526M4.36045 10.4579C4.30471 10.5527 4.25348 10.648 4.20685 10.7426M3.10187 9.53526C3.04598 9.6493 2.9946 9.7694 2.94821 9.89583M2.94821 9.89583L4.20685 10.7426M2.94821 9.89583C2.9091 10.0024 2.87353 10.1134 2.84178 10.2292M4.20685 10.7426C4.15193 10.854 4.1034 10.9643 4.06142 11.0715M4.06142 11.0715L2.84178 10.2292M4.06142 11.0715C4.00832 11.207 3.9657 11.3373 3.93389 11.4582M2.84178 10.2292C2.8124 10.3362 2.78628 10.4473 2.76365 10.5625M2.76365 10.5625L3.93389 11.4582M2.76365 10.5625C2.73452 10.7108 2.71117 10.8659 2.69407 11.028M3.93389 11.4582C3.90977 11.5498 3.89186 11.636 3.88031 11.7147M3.88031 11.7147L2.69407 11.028M2.69407 11.028C2.6795 11.1662 2.66946 11.3095 2.66425 11.4582M2.66425 11.4582C2.66147 11.5372 2.66007 11.6178 2.66007 11.6998C2.66007 12.2011 2.67045 12.6321 2.68807 13.0068M3.86574 12.107L2.66667 11.8958L2.66007 12.2292L3.86763 12.3424M3.86574 12.107C3.86623 12.174 3.86688 12.2531 3.86763 12.3424M3.86763 12.3424C3.8682 12.4102 3.86882 12.4838 3.86947 12.5625M3.86947 12.5625H2.66667L2.68807 13.0068M3.86947 12.5625C3.87047 12.6824 3.87155 12.8142 3.87262 12.9549M2.68807 13.0068L3.87262 12.9549M2.68807 13.0068C2.69271 13.1054 2.69785 13.2001 2.70343 13.2912M3.87262 12.9549C3.8733 13.043 3.87397 13.1347 3.87462 13.2292M2.70343 13.2912L3.87462 13.2292M2.70343 13.2912C2.71136 13.4205 2.72018 13.5425 2.72973 13.6578M3.87462 13.2292C3.87524 13.319 3.87583 13.4113 3.8764 13.5056M3.8764 13.5056L2.72973 13.6578M3.8764 13.5056C3.87716 13.6326 3.87785 13.7632 3.87843 13.8958M2.72973 13.6578C2.74172 13.8027 2.75486 13.937 2.76883 14.0625M2.76883 14.0625L3.87843 13.8958M2.76883 14.0625C2.78242 14.1845 2.79679 14.298 2.81164 14.4044M3.87843 13.8958C3.87877 13.9724 3.87907 14.0497 3.87933 14.1274M3.87933 14.1274L2.81164 14.4044M3.87933 14.1274C3.87973 14.2452 3.88002 14.364 3.88018 14.4827M2.81164 14.4044C2.82604 14.5076 2.84089 14.604 2.85592 14.6949M2.85592 14.6949L3.88018 14.4827M2.85592 14.6949C2.88672 14.8812 2.91826 15.0443 2.94821 15.1948M3.88018 14.4827C3.88037 14.6208 3.88038 14.7588 3.88018 14.8952M3.88018 14.8952L2.94821 15.1948M3.88018 14.8952C3.87996 15.0415 3.87949 15.186 3.87871 15.3266M2.94821 15.1948C2.97403 15.3245 2.99867 15.4449 3.0206 15.5625M3.0206 15.5625L3.87871 15.3266M3.0206 15.5625C3.03662 15.6484 3.0512 15.7329 3.06375 15.8186M3.87871 15.3266C3.87797 15.461 3.87695 15.5919 3.87559 15.7175M3.87559 15.7175L3.06375 15.8186M3.87559 15.7175C3.87447 15.8219 3.87313 15.9226 3.87152 16.0188M3.06375 15.8186C3.07986 15.9286 3.09262 16.0406 3.10078 16.16M3.10078 16.16L3.87152 16.0188M3.10078 16.16C3.10926 16.284 3.11278 16.4161 3.10995 16.5625M3.10995 16.5625C3.1077 16.6792 3.10141 16.805 3.09037 16.943M3.09037 16.943L4 16.7924M3.09037 16.943C3.07898 17.0855 3.06253 17.2411 3.04025 17.4131M4 16.7924C4.05675 16.9202 4.12633 17.0382 4.20568 17.147M3.04025 17.4131L4.20568 17.147M3.04025 17.4131C3.02696 17.5157 3.01159 17.6242 2.99399 17.7393M4.20568 17.147C4.24586 17.2021 4.28855 17.2549 4.33333 17.3054M4.33333 17.3054L2.99399 17.7393M4.33333 17.3054C4.42409 17.4077 4.52349 17.5006 4.62822 17.5849M2.99399 17.7393C2.97804 17.8435 2.96025 17.9532 2.9405 18.0689M2.9405 18.0689L4.62822 17.5849M2.9405 18.0689C2.92438 18.1632 2.90697 18.2615 2.88818 18.3641M4.62822 17.5849C4.71725 17.6565 4.81013 17.7219 4.90483 17.7814M4.90483 17.7814L2.88818 18.3641M4.90483 17.7814C4.99832 17.8401 5.09357 17.8931 5.18863 17.9408M2.88818 18.3641C2.86483 18.4916 2.83936 18.6257 2.81164 18.7669M2.81164 18.7669L5.18863 17.9408M2.81164 18.7669C2.79244 18.8648 2.77216 18.9661 2.75076 19.071M5.18863 17.9408C5.30797 18.0007 5.42701 18.0522 5.54186 18.0961M5.54186 18.0961L2.75076 19.071M2.55044 19.8958C2.50203 20.042 2.44563 20.1949 2.38775 20.3503M2.38775 20.3503L6.19462 18.8353M2.38775 20.3503C2.33802 20.4839 2.28719 20.6194 2.23941 20.7542M6.19462 18.8353C6.19021 18.969 6.17829 19.1004 6.1599 19.2292M6.1599 19.2292L2.23941 20.7542M6.1599 19.2292C6.14373 19.3424 6.12257 19.4536 6.09711 19.5625M2.23941 20.7542C2.18249 20.9148 2.12988 21.0746 2.08856 21.2292M2.08856 21.2292L6.09711 19.5625M2.08856 21.2292C2.0465 21.3865 2.01614 21.5385 2.00484 21.6806M6.09711 19.5625C6.0705 19.6763 6.03921 19.7875 6.00404 19.8958M6.00404 19.8958L2.00484 21.6806M6.00404 19.8958C5.94685 20.072 5.87941 20.2406 5.8052 20.4M5.8052 20.4C5.7065 20.6122 5.59583 20.8083 5.4814 20.9851M5.4814 20.9851L2.88818 22.0931M5.4814 20.9851C5.36387 21.1667 5.24239 21.3278 5.12582 21.465M2.88818 22.0931C3.30085 22.0082 3.77931 21.928 4.20568 21.8868M4.20568 21.8868C4.35455 21.8724 4.49707 21.8628 4.62822 21.8593C4.695 21.8576 4.75939 21.8364 4.80912 21.7925C4.9047 21.708 5.01295 21.5977 5.12582 21.465M4.20568 21.8868L5.12582 21.465M6.71023 14.4456C6.90522 14.2534 6.90103 13.4171 6.95158 12.9485M8.60352 13.2795C8.73571 13.2795 8.84286 13.1739 8.84286 13.0436C8.84286 12.9133 8.73571 12.8077 8.60352 12.8077M8.60352 13.2795C8.47133 13.2795 8.36417 13.1739 8.36417 13.0436C8.36417 12.9133 8.47133 12.8077 8.60352 12.8077M8.60352 13.2795V12.8077M5.22077 13.2795C5.35295 13.2795 5.46011 13.1739 5.46011 13.0436C5.46011 12.9133 5.35295 12.8077 5.22077 12.8077M5.22077 13.2795C5.08858 13.2795 4.98142 13.1739 4.98142 13.0436C4.98142 12.9133 5.08858 12.8077 5.22077 12.8077M5.22077 13.2795V12.8077M4.66667 11.7021C4.90508 11.5259 5.2627 11.5063 5.64018 11.7021M8.10154 11.702C8.53863 11.5453 9.09492 11.702 9.33333 12.0543M7.69387 15.8777C7.39902 16.4225 6.71019 16.2357 6.3823 15.9736" stroke="#5B5180" stroke-width="0.666667" stroke-linecap="round"/>
</svg>
