<svg width="24" height="24" viewBox="0 0 24 24" fill="none" xmlns="http://www.w3.org/2000/svg">
<path d="M3.77086 20.7171C11.0491 22.2605 21.4339 21.3398 21.4339 15.9233V4.19625C21.4339 3.50212 21.3581 2.86785 21.1917 2.33037M3.77086 20.7171C1.9934 20.3402 0.973585 18.2889 1.08749 16.2505C1.2668 13.0415 1.15721 8.99385 1.00513 5.77757C0.87809 3.09061 3.12891 0.725664 5.51029 0.812585C9.76594 0.967917 15.377 0.764792 18.7912 0.567917C20.0864 0.493234 20.8406 1.19635 21.1917 2.33037M3.77086 20.7171C4.56586 21.0348 5.49168 21.3504 6.5 21.6283M21.1917 2.33037C23.1097 3.74467 23.13 11.9816 22.9004 15.9233C20.8478 23.5819 12.3061 23.2287 6.5 21.6283M21.1917 2.33037C21.7612 4.07442 22.7203 9.23466 22 15.9233C21.2797 22.6119 11.3665 22.5136 6.5 21.6283" stroke="#5B5180" stroke-linecap="round"/>
<path d="M8.61048 14.2L5.46237 12.4232C4.8266 12.0644 4.85143 11.1739 5.50629 10.8483L9.62488 8.8M14.3895 8.8L17.5376 10.5768C18.1734 10.9356 18.1486 11.8261 17.4937 12.1517L13.3751 14.2M12.4376 7L10.5624 16" stroke="#9683D7" stroke-linecap="round"/>
</svg>
