<svg width="111" height="111" viewBox="0 0 111 111" fill="none" xmlns="http://www.w3.org/2000/svg">
<path d="M83.6303 74.0433L83.5049 71.6202L56.0585 57.1241L53.1758 28.2991C52.8417 26.1268 50.8365 24.6228 48.6642 24.9153L8.05928 30.7222C5.88701 31.0563 4.42459 33.1032 4.7587 35.276L10.4402 70.0745L10.4819 72.7063L31.2022 92.3822L83.6298 74.0433H83.6303Z" fill="#9683D7"/>
<path d="M67.5054 66.2314C67.4494 66.2037 55.5802 59.9671 55.3487 59.8395C55.1967 59.7564 55.029 59.7061 54.8564 59.6918C54.6837 59.6774 54.51 59.6994 54.3464 59.7562C53.9507 59.8961 25.2516 68.2333 19.2943 70.0587C17.7747 70.5243 17.919 71.1737 18.2942 71.5372C18.8308 72.0567 27.42 79.6552 27.9861 80.1425C28.1262 80.2666 28.2967 80.3512 28.4802 80.3879C28.6637 80.4245 28.8536 80.4119 29.0306 80.3512C29.8226 80.0942 66.5464 67.7416 67.3384 67.4841C67.8434 67.3209 68.0371 66.55 67.5054 66.2309V66.2314Z" fill="white"/>
<path d="M62.158 76.3823C60.9426 75.6791 59.1849 74.5974 58.273 74.043C58.1054 73.9414 57.9177 73.8776 57.723 73.8559C57.5282 73.8343 57.3311 73.8553 57.1453 73.9175C47.5099 77.1687 47.733 76.9328 47.4955 77.3014C47.2818 77.6327 47.3706 78.0939 47.7041 78.3037C51.7346 80.8395 51.8861 81.137 52.592 80.9355C54.2215 80.3505 59.4851 78.4708 61.9915 77.5933C62.1586 77.5517 62.284 77.4262 62.3256 77.3008C62.3805 77.2315 62.4201 77.1513 62.4415 77.0656C62.463 76.9798 62.4659 76.8904 62.4501 76.8035C62.4343 76.7165 62.4001 76.6339 62.3499 76.5611C62.2996 76.4884 62.2344 76.4273 62.1586 76.3817L62.158 76.3823Z" fill="white"/>
<path d="M54.0955 56.163C51.447 29.9709 51.4775 30.0252 51.422 29.9697C51.1296 27.7975 49.0844 26.3062 46.9104 26.6275C42.8728 27.2253 10.5058 31.8495 10.3154 31.8495C8.14314 32.1836 6.67294 34.2321 7.01538 36.4027C8.48502 45.724 12.1536 67.9845 12.1536 67.9845L54.096 56.1619L54.0955 56.163Z" fill="white"/>
<path d="M39.5159 60.2568C27.7843 63.5724 21.9219 65.2435 21.9285 65.2696C24.1424 64.6846 32.5812 62.2621 39.5159 60.2568Z" fill="white"/>
<path d="M34.6697 37.239C34.461 37.1136 34.2101 36.7795 34.0015 36.7378C33.7928 36.6962 33.5419 37.1558 33.4165 37.2812C33.2634 37.451 33.0766 37.587 32.868 37.6806C32.6594 37.7741 32.4335 37.8232 32.2049 37.8245C31.8439 37.7884 31.4984 37.6589 31.2026 37.4488C31.1188 37.365 30.9101 37.1147 30.7847 37.1563C30.6176 37.1979 30.4922 37.5742 30.4506 37.6997C30.2512 38.0583 29.9637 38.3603 29.6153 38.5771C29.1557 38.7858 28.6546 38.7442 28.195 38.4933C28.0696 38.4095 27.6939 38.1176 27.5684 38.1592C27.2682 38.2591 27.4802 39.3708 25.7719 39.3708C25.7719 40.5635 26.1732 41.8655 26.5239 43.0055L26.4401 43.0471C25.909 42.7285 25.6148 42.7207 25.3124 42.7962C25.1853 42.5426 24.673 41.3233 24.5603 40.9581C23.0091 35.9192 24.885 35.3798 25.354 34.4413C25.6049 33.9401 25.939 33.4805 26.3147 33.0626C27.0251 32.5193 28.2394 32.1563 29.0719 31.9349C31.5894 31.2639 34.7518 31.3099 36.7587 33.2719C38.5802 35.0523 38.7639 37.4732 38.7639 39.9557C38.1689 39.9557 37.9408 40.4519 37.8032 40.624L37.5945 40.6656C37.4691 39.4956 37.2604 38.3679 36.9263 37.2401C36.3646 37.2401 35.6948 37.7524 34.6702 37.2401L34.6697 37.239Z" fill="#5B5180"/>
<path d="M38.7222 40.0369C38.2227 40.0369 37.8032 40.5136 37.5995 40.7678C37.4551 39.6014 37.2158 38.4488 36.8841 37.3213H36.55C35.965 37.5727 35.2552 37.5727 34.6702 37.2802C34.4615 37.1548 34.2106 36.8206 34.002 36.779C33.7933 36.7374 33.5424 37.1969 33.417 37.3224C33.264 37.4923 33.0772 37.6283 32.8686 37.7219C32.6599 37.8155 32.4341 37.8644 32.2054 37.8657C31.8442 37.8295 31.4986 37.7 31.2025 37.49C30.3662 36.6536 30.9456 37.7864 29.6152 38.6177C29.1557 38.8264 28.6545 38.7842 28.195 38.5345C28.0696 38.4929 27.6938 38.1582 27.5684 38.2004C27.4014 38.242 27.3597 38.5761 27.2759 38.7015C27.0351 39.2638 26.384 39.4119 25.7719 39.4119C25.7719 40.5375 26.1698 41.8928 26.4984 42.9628C25.2319 42.4495 24.5048 43.2681 24.6441 44.1744C24.6441 45.4093 26.5122 46.7696 27.61 45.8039C28.3049 47.1936 29.295 48.2259 30.7363 48.7776C30.8646 49.1233 31.1332 50.2444 31.2775 51.0586C30.9411 51.3494 30.3601 51.8123 29.9405 52.0426C30.7386 52.6515 32.0167 53.8819 35.2968 53.0727C38.4719 52.2369 37.9702 50.5242 38.4719 49.9814C37.9785 50.0224 37.5035 49.8143 36.9263 49.8143C36.7159 48.9036 36.48 47.5249 36.4584 47.1031C37.2942 46.1707 37.7615 44.8826 37.7615 43.6732C40.5365 43.6732 40.4966 40.1656 38.7222 40.038V40.0374V40.0369Z" fill="#FFE2DE"/>
<path d="M35.8814 40.79C36.5086 40.79 36.9676 41.2912 36.9676 41.8762C36.9676 42.4611 36.4664 42.9623 35.8814 42.9623C34.4939 42.9623 34.3696 40.79 35.8814 40.79Z" fill="#FFE2DE"/>
<path d="M28.8634 42.6279C29.4906 42.6279 29.9496 43.1291 29.9496 43.7141C29.9496 44.299 29.4484 44.8002 28.8634 44.8002C28.7205 44.8012 28.5788 44.7738 28.4466 44.7196C28.3143 44.6654 28.1942 44.5854 28.0931 44.4844C27.9921 44.3833 27.9121 44.2632 27.8579 44.1309C27.8037 43.9987 27.7763 43.857 27.7773 43.7141C27.7773 43.1291 28.2785 42.6279 28.8634 42.6279Z" fill="#FFE2DE"/>
<path d="M48.4561 54.5751C48.9755 55.9049 49.5422 57.3324 49.5422 57.374C49.4867 57.374 49.5339 57.3801 21.9287 65.1862C21.8033 62.7214 21.6884 58.0883 22.1796 56.7474C22.6069 55.5808 23.7658 54.8238 24.8114 54.1988C26.5641 53.1515 28.3623 51.6086 29.3235 51.6503C30.3636 51.8584 31.1994 54.0312 35.297 52.9873C38.5188 52.1659 37.9033 50.4648 38.5554 49.8121C39.0993 49.4364 40.0595 49.8121 40.6444 49.9375C42.4826 50.23 44.2369 50.5225 45.9502 51.2324C47.2867 51.9006 47.9316 53.2304 48.4561 54.5746V54.5751Z" fill="#FFE2DE"/>
<path d="M54.371 56.1348L51.7392 30.0686C51.5161 27.7476 49.431 26.0427 47.1183 26.2669L10.4034 31.5327C8.09013 31.8435 6.46564 34.008 6.77922 36.3196C6.77922 36.3196 11.8797 68.1133 12.0462 68.2193C12.2132 68.3253 12.0706 68.302 54.1707 56.43C54.2335 56.4122 54.288 56.3729 54.3246 56.3189C54.3612 56.2649 54.3777 56.1997 54.371 56.1348ZM12.4186 67.6333L7.33144 36.283C7.05616 34.2378 8.46753 32.3536 10.48 32.0827L47.1455 26.8208C49.1829 26.6243 50.9939 28.1062 51.1875 30.123L53.796 55.9588L12.4186 67.6333Z" fill="#5B5180"/>
<path d="M83.6353 71.3746L56.1889 56.8369C56.1238 56.8025 56.0477 56.7953 55.9774 56.817C55.907 56.8386 55.8481 56.8873 55.8137 56.9524C55.7792 57.0174 55.772 57.0935 55.7937 57.1639C55.8153 57.2342 55.8641 57.2931 55.9291 57.3276L82.7983 71.5594L31.5208 89.5581L10.6361 69.8772C10.5831 69.8297 10.514 69.8043 10.4428 69.8063C10.3717 69.8082 10.304 69.8374 10.2537 69.8878C10.2034 69.9381 10.1744 70.0058 10.1725 70.077C10.1707 70.1481 10.1961 70.2173 10.2437 70.2702L31.175 89.9949L31.0091 92.2781C31.0087 92.3486 31.0351 92.4166 31.083 92.4683C31.1308 92.52 31.1965 92.5517 31.2668 92.5568C31.3371 92.562 31.4067 92.5402 31.4616 92.496C31.5164 92.4518 31.5525 92.3884 31.5624 92.3187L31.7256 90.0737L83.5043 71.8974C83.7923 71.8974 83.8889 71.5095 83.6342 71.3746H83.6353Z" fill="#5B5180"/>
<path d="M51.5347 81.0516C50.6606 80.5521 48.7874 79.3194 47.5553 78.5386C46.8133 78.0446 47.0292 76.9973 47.7829 76.7459C47.7829 76.7459 55.8731 74.0592 57.0553 73.6551C57.2792 73.5798 57.5169 73.5542 57.7517 73.5801C57.9865 73.606 58.2129 73.6827 58.415 73.805C59.2831 74.3011 61.0585 75.3739 62.2412 76.1332C62.875 76.3902 62.9433 77.5334 62.088 77.8542C58.9507 78.96 55.8164 80.0744 52.6852 81.1976C52.2967 81.3091 51.8855 81.2525 51.5347 81.0521V81.0516ZM57.2329 74.1813C56.0518 74.5847 47.9588 77.2726 47.9588 77.2726C47.6292 77.3825 47.5215 77.8487 47.8578 78.0735C51.8122 80.5765 51.9609 80.8279 52.5154 80.6692C55.6401 79.5477 58.7681 78.4353 61.8993 77.332C62.1763 77.2276 62.2956 76.8264 61.9665 76.616C60.2149 75.4894 58.1875 74.3156 58.1264 74.2784C57.9934 74.1987 57.8447 74.1487 57.6906 74.132C57.5364 74.1152 57.3805 74.132 57.2334 74.1813H57.2329Z" fill="#5B5180"/>
<path d="M64.9288 64.6851C64.9063 64.6151 64.857 64.5569 64.7917 64.5231C64.7264 64.4893 64.6504 64.4827 64.5803 64.5047L60.0898 65.9216L55.6515 63.3026L59.0653 62.2359C59.1011 62.2259 59.1346 62.2089 59.1638 62.1858C59.1929 62.1627 59.2171 62.1339 59.2349 62.1012C59.2527 62.0686 59.2638 62.0326 59.2674 61.9956C59.2711 61.9586 59.2673 61.9212 59.2562 61.8857C59.2451 61.8502 59.2269 61.8172 59.2029 61.7889C59.1788 61.7605 59.1493 61.7372 59.116 61.7205C59.0828 61.7038 59.0465 61.6939 59.0094 61.6915C58.9722 61.6891 58.935 61.6941 58.8999 61.7064L55.0066 62.923L51.1016 60.6452C51.038 60.6081 50.9623 60.5978 50.8911 60.6166C50.8199 60.6353 50.759 60.6815 50.722 60.7451C50.6849 60.8087 50.6745 60.8844 50.6933 60.9556C50.712 61.0268 50.7583 61.0877 50.8219 61.1248L54.2795 63.1549L49.6763 64.629L46.146 62.2425C46.1159 62.2214 46.0818 62.2065 46.0459 62.1986C46.01 62.1907 45.9728 62.1901 45.9366 62.1967C45.9004 62.2033 45.8659 62.2171 45.8351 62.2372C45.8043 62.2572 45.7777 62.2833 45.757 62.3137C45.7364 62.3441 45.7219 62.3784 45.7146 62.4144C45.7073 62.4505 45.7072 62.4876 45.7144 62.5237C45.7215 62.5598 45.7358 62.5941 45.7564 62.6246C45.7769 62.6552 45.8033 62.6813 45.8341 62.7015L48.9987 64.8405L44.0403 66.3828L40.813 63.8814C40.7548 63.8364 40.681 63.8163 40.608 63.8256C40.535 63.835 40.4687 63.8729 40.4237 63.9311C40.3786 63.9893 40.3585 64.0631 40.3679 64.1361C40.3772 64.2091 40.4151 64.2754 40.4733 64.3204L43.4132 66.5821L38.2317 68.2282L34.9289 65.5159C34.8718 65.4693 34.7986 65.4473 34.7253 65.4547C34.6521 65.4621 34.5847 65.4983 34.5381 65.5553C34.4916 65.6124 34.4695 65.6856 34.4769 65.7588C34.4843 65.8321 34.5205 65.8995 34.5776 65.946L37.6123 68.4252L32.4724 70.058L29.2973 67.2359C29.2422 67.187 29.17 67.162 29.0965 67.1664C29.0231 67.1707 28.9543 67.2041 28.9055 67.2592C28.8566 67.3142 28.8316 67.3864 28.836 67.4599C28.8403 67.5334 28.8737 67.6021 28.9288 67.651L31.8553 70.2523L26.2503 72.0155L22.9048 69.0729C22.8489 69.029 22.7783 69.0081 22.7076 69.0146C22.6368 69.0211 22.5712 69.0544 22.5242 69.1078C22.4772 69.1611 22.4525 69.2305 22.4551 69.3015C22.4576 69.3725 22.4873 69.4399 22.5379 69.4897L25.631 72.2103L21.176 73.6117C21.108 73.6354 21.0519 73.6846 21.0195 73.749C20.9871 73.8133 20.981 73.8877 21.0025 73.9565C21.024 74.0252 21.0713 74.0829 21.1346 74.1174C21.1978 74.1518 21.2719 74.1604 21.3414 74.1412L26.1105 72.6332L29.4344 75.598L24.8517 77.0372C24.817 77.0481 24.7847 77.0658 24.7568 77.0892C24.7288 77.1126 24.7058 77.1413 24.6889 77.1736C24.6721 77.2059 24.6617 77.2412 24.6585 77.2775C24.6553 77.3138 24.6593 77.3504 24.6702 77.3851C24.6812 77.4199 24.6989 77.4522 24.7223 77.4801C24.7457 77.5081 24.7743 77.5311 24.8067 77.548C24.839 77.5648 24.8743 77.5751 24.9106 77.5783C24.9469 77.5815 24.9835 77.5776 25.0182 77.5666L29.9172 76.0282L33.386 79.1267C33.4116 79.1532 33.4422 79.1744 33.476 79.1889C33.5099 79.2035 33.5463 79.2111 33.5832 79.2114C33.62 79.2118 33.6565 79.2047 33.6907 79.1908C33.7248 79.1768 33.7557 79.1562 33.7818 79.1302C33.8079 79.1041 33.8285 79.0731 33.8424 79.039C33.8564 79.0049 33.8634 78.9684 33.8631 78.9315C33.8627 78.8947 33.8551 78.8583 33.8405 78.8244C33.826 78.7906 33.8049 78.7599 33.7784 78.7344L30.5305 75.8345L36.1504 74.0696L39.4543 77.0066C39.5093 77.0556 39.5815 77.0807 39.655 77.0764C39.7285 77.0721 39.7972 77.0389 39.8462 76.9839C39.8951 76.9289 39.9202 76.8567 39.9159 76.7833C39.9117 76.7098 39.8784 76.641 39.8234 76.592L36.7676 73.8759L42.1539 72.1842C45.8413 75.2401 45.5771 75.0714 45.7797 75.0714C45.9329 75.0714 46.0361 74.947 46.0361 74.7939C46.0361 74.6329 46.2287 74.8416 42.7949 71.9806L48.1895 70.2573L51.6249 72.9252C51.6834 72.9657 51.7552 72.9824 51.8255 72.9716C51.8958 72.9609 51.9594 72.9236 52.0031 72.8674C52.0467 72.8112 52.0672 72.7404 52.0602 72.6696C52.0533 72.5988 52.0195 72.5333 51.9657 72.4867L48.8344 70.0553L54.2223 68.3714L57.8232 70.8056C57.8842 70.8453 57.9584 70.8594 58.0297 70.8449C58.1011 70.8304 58.1638 70.7885 58.2045 70.7281C58.2452 70.6678 58.2606 70.5938 58.2473 70.5223C58.234 70.4507 58.1931 70.3872 58.1334 70.3455L54.8972 68.1583L60.0293 66.5299L63.9803 68.8104C64.044 68.8466 64.1195 68.8562 64.1902 68.837C64.2609 68.8178 64.3212 68.7714 64.3578 68.7079C64.3945 68.6445 64.4045 68.5691 64.3858 68.4982C64.3671 68.4274 64.3211 68.3668 64.2578 68.3298L60.7458 66.3023L64.7463 65.0331C64.781 65.022 64.8132 65.0043 64.8411 64.9808C64.8689 64.9573 64.8919 64.9285 64.9086 64.8962C64.9254 64.8638 64.9356 64.8284 64.9387 64.7921C64.9418 64.7558 64.9377 64.7193 64.9266 64.6845L64.9288 64.6851ZM43.9493 66.9933L47.6578 69.846L42.2909 71.5604L38.7362 68.6411L43.9493 66.9928V66.9933ZM30.0504 75.4049L26.7276 72.4384L32.3254 70.6685L35.6692 73.6406L30.0504 75.4049ZM36.2864 73.4469L32.9414 70.4737L38.1168 68.8376L41.6477 71.7635L36.2864 73.4469ZM48.301 69.6412L44.5809 66.7963L49.5886 65.2379L53.6196 67.9629L48.301 69.6412ZM50.2624 65.0236L54.9227 63.5312L59.3772 66.1464L54.2956 67.7498L50.2624 65.0236Z" fill="#5B5180"/>
<path d="M33.7507 44.4092C33.6771 44.4092 33.6065 44.38 33.5544 44.328C33.5024 44.2759 33.4732 44.2053 33.4732 44.1317C33.4754 43.2021 33.4848 43.176 33.4626 43.0878C33.2656 43.07 32.6745 43.282 32.1556 42.6344C31.8515 42.1804 31.7899 41.7769 31.685 41.3579C31.6748 41.3221 31.672 41.2846 31.6767 41.2477C31.6813 41.2108 31.6933 41.1752 31.712 41.1431C31.7307 41.1109 31.7556 41.0828 31.7853 41.0605C31.8151 41.0382 31.849 41.022 31.8851 41.0131C31.9212 41.0041 31.9587 41.0025 31.9954 41.0083C32.0322 41.0141 32.0673 41.0273 32.0989 41.0469C32.1304 41.0666 32.1577 41.0925 32.1791 41.1229C32.2005 41.1533 32.2155 41.1877 32.2233 41.2241C32.3571 41.7597 32.4914 42.5594 33.0819 42.5594C33.1912 42.5594 33.6252 42.4445 33.8628 42.6826C34.0737 42.9579 34.0298 43.2088 34.0276 44.1312C34.0276 44.2048 33.9984 44.2754 33.9463 44.3274C33.8943 44.3795 33.8237 44.4087 33.7501 44.4087H33.7507V44.4092Z" fill="#5B5180"/>
<path d="M33.6331 47.1596C33.0665 47.1596 31.992 46.4603 32.0547 45.897C32.053 45.5018 32.552 45.3775 32.7645 45.3242C33.294 45.0784 33.9156 45.0234 34.3357 45.0234C34.3773 45.0234 34.4184 45.0328 34.4559 45.0508C34.4933 45.0688 34.5263 45.095 34.5523 45.1274C34.5783 45.1599 34.5967 45.1977 34.6061 45.2382C34.6155 45.2788 34.6156 45.3209 34.6066 45.3614C34.4584 46.0208 34.3951 47.1596 33.6331 47.1596ZM34.0005 45.5923C33.6087 45.6239 33.2429 45.7116 32.9466 45.8465C32.7257 45.9064 32.6219 45.9453 32.5919 45.9791C32.6219 46.0147 32.8206 46.245 33.1608 46.4381C33.4383 46.5952 33.6215 46.6174 33.662 46.603C33.8324 46.5081 33.9456 45.9098 34.0005 45.5929V45.5923Z" fill="#5B5180"/>
<path d="M26.9831 40.6493C26.94 40.6493 26.8975 40.6393 26.859 40.6201C26.8204 40.6008 26.7869 40.5728 26.7611 40.5383C26.7352 40.5039 26.7177 40.4639 26.71 40.4215C26.7023 40.3791 26.7046 40.3355 26.7167 40.2941C27.0563 39.1314 28.2784 38.29 29.4006 38.8267C29.4671 38.8585 29.5182 38.9154 29.5427 38.9849C29.5672 39.0544 29.5631 39.1307 29.5313 39.1972C29.4996 39.2636 29.4427 39.3148 29.3732 39.3393C29.3037 39.3638 29.2273 39.3597 29.1609 39.3279C28.3672 38.9477 27.4959 39.6048 27.2495 40.4501C27.2327 40.5077 27.1976 40.5584 27.1496 40.5944C27.1015 40.6304 27.0431 40.6499 26.9831 40.6499V40.6493Z" fill="#5B5180"/>
<path d="M33.0582 38.3239C32.9005 37.8344 34.6971 36.831 35.9419 37.9521C35.9699 37.9762 35.9927 38.0057 36.009 38.0387C36.0254 38.0718 36.035 38.1078 36.0373 38.1446C36.0396 38.1815 36.0346 38.2184 36.0224 38.2532C36.0103 38.2881 35.9913 38.3202 35.9666 38.3476C35.9419 38.375 35.912 38.3972 35.8786 38.413C35.8452 38.4287 35.809 38.4376 35.7722 38.4391C35.7353 38.4407 35.6985 38.4349 35.6639 38.4221C35.6293 38.4092 35.5976 38.3896 35.5707 38.3644C35.3865 38.203 35.1652 38.0897 34.9266 38.0346C34.6879 37.9796 34.4394 37.9846 34.2031 38.0492C33.9251 38.1063 33.7913 38.2179 33.5621 38.3988C33.4272 38.5947 33.127 38.537 33.0576 38.3239H33.0582Z" fill="#5B5180"/>
<path d="M29.8706 41.6002C28.7262 40.7777 27.8843 41.4925 27.8759 41.5003C27.8206 41.5488 27.7482 41.5733 27.6748 41.5685C27.6014 41.5637 27.5329 41.5298 27.4844 41.4745C27.4359 41.4191 27.4113 41.3468 27.4162 41.2734C27.421 41.1999 27.4548 41.1314 27.5102 41.0829C27.9142 40.7294 28.9954 40.2882 30.1942 41.1495C30.4939 41.3654 30.1653 41.8128 29.87 41.6008L29.8706 41.6002Z" fill="#5B5180"/>
<path d="M33.7091 40.8171C33.6581 40.817 33.608 40.8028 33.5645 40.7762C33.521 40.7495 33.4857 40.7114 33.4625 40.6659C33.4393 40.6205 33.429 40.5695 33.4329 40.5187C33.4367 40.4678 33.4545 40.4189 33.4843 40.3775C34.3457 39.1787 35.4984 39.2453 35.9879 39.4473C36.0216 39.4612 36.0523 39.4815 36.0781 39.5072C36.104 39.5329 36.1245 39.5635 36.1385 39.5971C36.1526 39.6307 36.1599 39.6668 36.16 39.7032C36.1601 39.7397 36.153 39.7758 36.1392 39.8095C36.1253 39.8432 36.1049 39.8738 36.0793 39.8997C36.0536 39.9255 36.023 39.9461 35.9894 39.9601C35.9558 39.9741 35.9197 39.9814 35.8833 39.9815C35.8468 39.9816 35.8107 39.9746 35.777 39.9607C35.7293 39.9418 34.7458 39.5733 33.935 40.7011C33.9093 40.7369 33.8755 40.766 33.8363 40.7861C33.7971 40.8062 33.7537 40.8166 33.7096 40.8165H33.7091V40.8171Z" fill="#5B5180"/>
<path d="M40.1215 41.0242C39.8828 39.9109 38.547 39.3048 37.8055 40.0913C37.6793 39.1032 37.4751 38.1267 37.195 37.1709C37.3681 36.96 37.2738 36.7191 37.1073 36.6636C36.9619 36.6153 36.8148 36.6741 36.7665 36.819C36.5972 37.0049 35.5311 37.3979 34.753 37.0171C34.6009 36.9028 34.3184 36.5232 33.9727 36.4655C33.5536 36.3822 33.2795 36.9394 33.1246 37.0982C32.9976 37.2382 32.8429 37.3504 32.6702 37.4276C32.4976 37.5048 32.3108 37.5453 32.1217 37.5466C31.2593 37.5466 31.0678 36.7407 30.6343 36.8861C30.1226 37.0138 30.3169 37.8152 29.4372 38.3153C29.0154 38.4685 28.5692 38.4535 28.2656 38.262C28.0502 38.126 27.735 37.8102 27.4175 37.8896C27.0796 37.9739 27.0191 38.4146 26.9613 38.5056C26.8093 38.7482 26.6289 38.898 26.3997 38.9963C26.2076 39.0923 25.9551 39.0923 25.6882 39.0923C25.5705 39.0923 25.4784 39.0629 25.2958 39.0168C25.2246 38.9995 25.1495 39.0111 25.0868 39.0489C25.0241 39.0868 24.9789 39.148 24.9611 39.219C24.9433 39.2901 24.9543 39.3653 24.9917 39.4283C25.0292 39.4912 25.09 39.5368 25.1609 39.5551C25.2952 39.5884 25.3446 39.6034 25.4146 39.6173C25.3779 39.8482 25.5966 40.951 25.6671 41.2618C25.9923 42.7059 26.1133 42.6199 25.9301 42.5494C24.97 42.1753 24.1331 43.1898 24.2829 44.1311C24.2829 45.3382 26.1433 46.9283 27.4719 46.1724C28.1674 47.4267 29.1397 48.4229 30.4789 48.938C30.6965 49.6029 30.8186 50.2461 30.9385 50.9276C30.5924 51.2233 30.2163 51.4819 29.8163 51.6991C29.7516 51.7343 29.7035 51.7937 29.6826 51.8643C29.6618 51.935 29.6698 52.011 29.705 52.0757C29.7402 52.1404 29.7996 52.1884 29.8702 52.2093C29.9408 52.2302 30.0169 52.2221 30.0815 52.1869C30.4221 52.0017 30.7469 51.789 31.0528 51.5509C31.0783 51.7207 31.0922 51.8711 31.0922 51.9849C31.0922 52.0585 31.1214 52.1291 31.1735 52.1811C31.2255 52.2332 31.2961 52.2624 31.3697 52.2624C31.4433 52.2624 31.5139 52.2332 31.5659 52.1811C31.618 52.1291 31.6472 52.0585 31.6472 51.9849C31.6472 51.5187 31.2015 49.3764 31.1355 49.1322C32.9498 49.5207 34.8201 48.9635 36.1471 47.7386C36.2282 48.287 36.6294 50.3205 36.8353 50.835C36.8638 50.9018 36.9172 50.9548 36.9843 50.9826C37.0513 51.0105 37.1266 51.011 37.194 50.984C37.2614 50.9569 37.3155 50.9046 37.3447 50.8381C37.374 50.7717 37.376 50.6964 37.3504 50.6285C37.2819 50.4389 37.2253 50.2452 37.1811 50.0485C37.7888 50.0996 38.6652 50.457 38.6652 49.9375C38.6652 49.8639 38.6359 49.7933 38.5839 49.7413C38.5319 49.6893 38.4613 49.66 38.3877 49.66C37.9814 49.66 37.5086 49.4891 37.0551 49.488C36.6244 47.5055 36.6527 47.2791 36.6439 47.2214C37.3809 46.3889 37.8993 45.2245 37.9853 43.9563C39.3556 44.0967 40.3973 42.4045 40.1209 41.0237H40.1215V41.0242ZM26.2892 45.7417C24.3456 45.114 24.5993 42.6276 25.7315 43.0677C26.1732 43.2365 26.176 43.2675 26.2398 43.2975C26.342 43.63 26.4247 43.8958 26.494 44.0801C26.201 43.9591 25.9623 43.9147 25.8236 43.8858C25.6155 43.8425 25.4195 43.7998 25.283 43.9358C25.0804 44.1383 25.283 44.4758 25.5527 44.3997C26.3414 44.4969 26.7799 44.8787 26.8476 44.917C26.9608 45.1701 27.0784 45.427 27.2116 45.6823C26.8931 45.8694 26.5434 45.8239 26.2892 45.7417ZM37.442 43.6305C37.442 48.5589 29.9617 51.7379 27.18 44.2843C26.993 43.7848 27.1151 44.2521 26.7466 43.0561C26.4119 41.9716 26.0522 40.775 25.9651 39.6428C26.7771 39.6118 27.341 39.1045 27.5302 38.5739C27.5419 38.5406 27.558 38.4951 27.5741 38.4574C27.8216 38.59 28.4343 39.2743 29.6664 38.8181C30.2875 38.4729 30.5305 38.0683 30.7598 37.495C31.1632 37.879 31.5506 38.101 32.1217 38.101C33.2972 38.101 33.6946 37.1892 33.9049 37.0216C34.0626 37.0898 34.2429 37.3346 34.4622 37.4872C35.096 37.8036 35.8713 37.8258 36.5434 37.5494C36.6511 37.5233 36.6461 37.4878 36.7033 37.4695C37.225 39.2932 37.2771 40.3016 37.3704 41.3334C37.407 41.7435 37.4414 42.1309 37.4431 42.5333C37.4827 42.898 37.4822 43.2659 37.4414 43.6305H37.442ZM38.0175 43.4018C38.0322 43.1703 38.0317 42.9379 38.0158 42.7064C38.0619 42.6509 38.1479 42.2452 39.0914 41.9755C39.1602 41.9536 39.2178 41.9058 39.2519 41.8422C39.286 41.7785 39.294 41.7041 39.2741 41.6347C39.2542 41.5653 39.2081 41.5064 39.1455 41.4704C39.0829 41.4345 39.0088 41.4243 38.9388 41.4421C38.9299 41.4444 38.3855 41.612 37.9748 41.905C37.9537 41.5881 37.9237 41.2973 37.8937 40.9332C38.0436 40.7001 38.2389 40.2839 38.6419 40.2705C40.4101 40.5231 39.5005 43.5878 38.018 43.4018H38.0175Z" fill="#5B5180"/>
<path d="M71.0561 87.8285C69.385 88.7476 65.6254 91.1286 64.163 92.3818C60.4867 90.2095 58.1452 86.6208 54.6381 84.3193C53.0497 83.2764 51.2748 82.6443 49.667 81.7291C49.4555 81.6086 48.2956 81.1041 48.3722 80.7267C48.4648 80.2689 49.9178 80.5586 50.1687 80.6013C51.5895 80.845 53.0092 81.2695 54.3462 81.8129C54.597 81.8967 55.4739 82.4811 55.7664 82.3562C55.9751 82.3146 55.4323 82.1054 55.2653 81.9805C54.9728 81.8134 54.6792 81.607 54.3878 81.4371C53.0447 80.6546 51.6306 79.9753 50.2936 79.2233C50.1681 79.1816 49.0853 78.6422 49.3745 78.388C49.7963 78.0172 51.045 78.388 51.5051 78.4718C53.0508 78.8475 54.5016 79.3742 55.9335 80.0175C56.514 80.2783 57.4792 81.0198 58.1474 81.1036C58.2312 81.1036 58.0219 80.9365 57.9387 80.8949C57.119 80.28 57.9909 80.8178 56.1422 79.6417C52.2949 77.5433 50.8086 77.4389 50.8785 76.8845C50.9618 76.4249 52.256 76.5576 52.5491 76.592C55.7131 76.9616 58.5059 78.8808 60.0272 79.6417C60.111 79.5163 58.941 78.7226 58.8572 78.6394C57.604 77.6787 56.2254 76.885 54.8052 76.2163C54.6797 76.1746 53.0086 75.4642 53.1757 75.2972C53.4682 75.0463 54.3872 75.2556 54.6797 75.3388C56.0823 75.6289 57.4434 76.092 58.7318 76.7174C63.5597 79.044 70.0277 85.517 71.0556 87.8296L71.0561 87.8285Z" fill="white"/>
<path d="M97.104 95.3196C96.7516 94.7907 95.6666 94.9489 95.3175 94.905C89.2147 94.1952 84.4012 93.5009 78.3173 90.8352C76.3587 89.9183 74.1165 87.7422 71.9564 87.2244C71.7977 87.1861 71.3781 87.387 71.2344 87.4641C68.7163 83.7872 63.2624 78.6013 58.9367 76.5495C57.6191 75.9155 56.2294 75.444 54.7981 75.1453C54.3352 75.0865 53.4977 74.8207 53.0864 75.162C53.0447 75.201 53.0125 75.249 52.9923 75.3024C52.9721 75.3558 52.9644 75.4132 52.9699 75.47C53.0509 75.9246 54.7709 76.5489 54.7709 76.5489C55.545 76.9141 56.2986 77.3215 57.028 77.7694C55.64 77.1045 54.1692 76.5756 52.6724 76.3991C52.239 76.348 50.8209 76.1921 50.6866 76.9313C50.595 77.6623 51.7977 77.8154 54.56 79.173C53.5743 78.7922 52.6014 78.4748 51.6379 78.2805C50.9591 78.1434 49.7736 77.7883 49.2614 78.2739C49.2166 78.3162 49.1827 78.3688 49.1626 78.427C49.1425 78.4853 49.1368 78.5476 49.1459 78.6085C49.2181 79.1447 50.2987 79.5321 53.2479 81.1443C52.3466 80.8424 51.3659 80.5988 50.2754 80.4067C48.9661 80.187 48.3223 80.2857 48.1841 80.7492C48.0698 81.262 48.8229 81.6733 49.5378 82.0179C49.8991 82.1922 49.6859 82.1239 51.5091 83.0019C54.5494 84.466 55.4729 84.9855 58.9778 88.4337C60.4402 89.8723 61.9492 91.3569 63.7669 92.4974C63.595 92.6554 63.4545 92.8445 63.3528 93.0546C63.0676 94.0259 71.5968 106.558 75.66 108.424C75.7943 108.486 76.8099 108.5 76.9703 108.5C84.3796 108.5 92.1856 102.993 96.4203 97.0246L96.458 96.9774C96.9509 96.3691 97.371 95.7475 97.1024 95.319L97.104 95.3196ZM54.873 84.1702C52.9432 82.9181 49.1876 81.408 48.763 80.8935C48.8879 80.8541 49.2525 80.7986 50.2038 80.9584C51.77 81.2348 53.1164 81.6244 54.3418 82.16C54.596 82.2438 55.4918 82.8293 55.9169 82.7089C56.0279 82.6811 56.1439 82.5646 56.1584 82.4514C56.1978 82.1456 55.9153 82.11 55.0606 81.5595C53.4666 80.5361 50.3952 79.0919 49.7892 78.6085C50.1483 78.5197 50.8892 78.6862 51.235 78.7634C52.6075 79.0692 53.7225 79.3273 55.8992 80.3518C56.5285 80.6448 57.4443 81.4152 58.2307 81.464C58.2964 81.4626 58.3598 81.4402 58.4118 81.4002C58.4638 81.3601 58.5017 81.3045 58.5199 81.2415C58.5765 81.0006 58.3068 80.8191 58.1874 80.752C56.9587 79.5776 53.6525 78.0974 52.0808 77.4508C51.5008 77.2205 51.3165 77.069 51.2588 77.004C51.4214 76.8997 52.0414 76.8853 52.6069 76.9519C55.6061 77.3037 58.5088 79.2362 59.9868 79.9733C60.0223 79.991 60.0612 80.0008 60.1009 80.0022C60.1405 80.0036 60.18 79.9964 60.2167 79.9812C60.2534 79.966 60.2863 79.9431 60.3134 79.9141C60.3405 79.885 60.361 79.8505 60.3736 79.8129C60.5201 79.3744 59.1043 78.4987 59.1043 78.4987C56.4608 76.56 54.5583 75.8874 53.9234 75.5644C54.9668 75.6842 56.9143 76.1893 58.6969 77.0518C62.8666 79.0292 68.3084 84.1979 70.7532 87.7455C69.0649 88.6957 65.6716 90.833 64.2175 92.1256C60.6866 89.9716 58.3445 86.4446 54.873 84.1713V84.1702Z" fill="#5B5180"/>
<path d="M81.8344 60.8846C81.8344 60.8846 73.0615 58.921 71.1817 58.6291C70.8476 58.5874 69.3852 58.2528 69.1349 58.6707C68.9262 59.0048 69.7631 59.3778 69.9285 59.4643C70.7321 59.8856 71.5558 60.263 72.3905 60.5488C71.75 60.551 71.0285 60.5766 70.6389 60.5505C68.5568 60.3827 66.4614 60.5092 64.4146 60.9262C64.1637 61.01 62.5764 61.3025 62.7019 61.8453C62.8273 62.2627 63.9134 62.3048 64.2475 62.3465C66.8988 62.6251 69.3341 62.6695 70.4719 62.7638C70.4719 62.8054 71.1401 62.8892 71.1401 62.8892C70.973 63.0979 69.636 63.0563 69.4273 63.0979C67.6404 63.2646 65.8675 63.5578 64.1221 63.9754C63.7464 64.0586 62.1169 64.3511 62.0753 64.9361C62.0753 65.354 63.2868 65.3956 63.5371 65.4373C65.1666 65.6043 66.8377 65.6459 68.5083 65.6881C68.6753 65.6881 70.5967 65.7714 70.5967 65.8135C70.4713 66.0644 69.3446 66.0688 69.1349 66.106C67.7618 66.3475 66.3776 66.6072 65.0412 66.9835C64.7487 67.0667 63.955 67.276 63.955 67.6517C63.9134 68.1529 65.4169 68.1112 65.6678 68.1112C67.1718 68.1529 68.7175 68.1112 70.2215 67.9442C70.3886 67.9442 71.4747 67.7355 71.6002 67.9026C71.7101 68.1223 68.2019 68.9648 68.4672 69.8662C68.6759 70.5349 71.0574 70.0332 71.5169 69.95C74.8597 69.4482 79.2797 69.95 82.7129 69.95C82.4621 68.4459 81.9193 63.3077 81.8355 60.8846H81.8344Z" fill="white"/>
<path d="M104.376 55.5059C104.324 55.0486 103.733 55.3477 102.035 55.8572C94.6199 58.0844 93.6248 58.4446 85.3192 58.9813C83.521 59.0973 82.3333 59.1745 81.8349 59.3826C81.6807 59.4603 81.5802 59.5857 81.5602 60.5481C79.6394 60.058 74.2731 58.8725 71.0424 58.3181C70.1344 58.1627 69.2237 58.0511 68.9406 58.5229C68.5643 59.1234 69.6222 59.5735 69.8358 59.7067C71.0485 60.3733 71.417 60.3322 70.7072 60.2734C68.5405 60.0947 66.2938 60.1957 64.2148 60.6996C63.4783 60.8761 62.2512 61.1902 62.4765 61.9245C62.6264 62.4234 63.3568 62.5317 64.0916 62.6049C70.372 63.2282 69.1493 62.5683 64.1027 63.7044C63.3573 63.8725 61.8932 64.1567 61.84 64.9082C61.7778 65.5325 62.7646 65.6319 63.354 65.6907C65.1183 65.8678 66.3244 65.9094 68.2386 65.9571C67.1399 66.1335 66.0552 66.3883 64.9929 66.7197C64.6 66.8318 63.7819 67.0649 63.7197 67.6282C63.6576 68.3686 64.9585 68.3808 65.7011 68.388C68.329 68.4147 69.1299 68.3148 70.2954 68.2199C69.0627 68.6938 68.0332 69.2355 68.243 69.9481C68.4966 70.759 70.3032 70.4293 71.1939 70.2833C74.7931 69.6928 78.8407 70.2489 82.4765 70.2278C82.5098 70.3394 82.562 70.451 82.6347 70.5564C83.5732 71.5565 101.525 74.5108 105.661 74.5108C106.369 74.5108 106.439 74.4131 106.499 74.3293C106.816 73.8853 105.035 61.324 104.377 55.5054L104.376 55.5059ZM71.104 69.7367C69.0328 70.0752 68.7958 69.8577 68.7736 69.7877C68.7553 69.7245 68.7664 69.3709 70.8143 68.6183C71.0679 68.5251 71.7306 68.3025 71.8727 68.0728C71.9027 68.0214 71.9176 67.9626 71.9158 67.9031C71.9139 67.8436 71.8953 67.7859 71.8622 67.7364C71.7006 67.5205 71.3671 67.5228 70.5063 67.6377C68.5449 67.8985 66.5125 67.8347 65.5668 67.8347C64.4529 67.8347 64.2781 67.6599 64.272 67.6826C64.2753 67.6515 64.3336 67.4856 65.165 67.2486C66.4912 66.8361 67.8521 66.5448 69.2309 66.3784C69.5556 66.3151 70.6517 66.3312 70.8765 65.9566C70.9009 65.9157 70.9145 65.8693 70.9158 65.8217C70.9172 65.7742 70.9063 65.727 70.8841 65.6849C70.862 65.6428 70.8294 65.607 70.7895 65.5811C70.7496 65.5552 70.7036 65.54 70.6561 65.537C67.986 65.3677 62.8861 65.2972 62.4005 64.9293C62.4904 64.71 63.1281 64.4941 64.2276 64.2455C66.6019 63.7083 68.9628 63.3825 69.9119 63.3525C70.3936 63.3375 71.4592 63.3658 71.4592 62.8896C71.4592 62.5161 70.7488 62.4834 70.5346 62.4878C70.0035 62.4467 63.1792 62.2136 63.0077 61.7724C63.092 61.5149 64.4196 61.2269 64.5167 61.1969C66.5292 60.7457 68.5899 60.6546 70.6617 60.8267C71.2949 60.8794 71.8699 60.9105 72.4788 60.9915C72.7674 61.0326 73.2946 61.3961 73.5738 61.1364C73.6185 61.0941 73.651 61.0406 73.668 60.9814C73.685 60.9223 73.6858 60.8596 73.6703 60.8001C73.6437 60.5592 73.3817 60.4998 72.8867 60.3888C72.2395 60.2428 69.721 59.1511 69.4401 58.7932C70.1311 58.3841 81.0857 60.9976 81.5641 61.122C81.6607 63.413 82.1247 67.8902 82.3877 69.674C78.8285 69.6862 74.7271 69.14 71.104 69.7361V69.7367Z" fill="#5B5180"/>
<path d="M74.6037 63.7787C74.6037 63.7787 73.8173 62.8147 73.8655 62.3269C73.8983 61.9972 74.259 61.8668 74.4205 62.1098C74.4506 62.1548 74.4668 62.2075 74.4672 62.2616C74.4676 62.3156 74.4522 62.3686 74.4228 62.414C74.4716 62.6438 74.894 63.2737 75.0161 63.408C75.8652 64.4175 77.1195 64.9431 78.3838 64.8282C78.7556 64.801 78.7945 65.3483 78.4343 65.381C76.983 65.5126 75.5538 64.9098 74.6042 63.7793L74.6037 63.7787Z" fill="#5B5180"/>
<path d="M35.8002 21.5716C35.662 21.2952 40.3273 2.89027 40.3751 2.7049C40.3934 2.63351 40.4393 2.57232 40.5028 2.5348C40.5662 2.49728 40.6419 2.4865 40.7133 2.50482C40.7847 2.52315 40.8459 2.56908 40.8834 2.63252C40.9209 2.69596 40.9317 2.7717 40.9134 2.84309C39.7679 7.30085 36.4318 20.8029 36.3258 21.4589C36.3147 21.7442 35.9278 21.8269 35.8002 21.5716Z" fill="#9683D7"/>
<path d="M39.8313 19.5129C40.1804 18.7409 46.3697 6.92053 46.6239 6.44545C46.6411 6.4133 46.6645 6.38487 46.6927 6.36175C46.7209 6.33864 46.7533 6.32131 46.7882 6.31074C46.8231 6.30018 46.8597 6.29659 46.896 6.30018C46.9323 6.30377 46.9675 6.31447 46.9996 6.33167C47.0318 6.34887 47.0602 6.37223 47.0833 6.40043C47.1065 6.42862 47.1238 6.46108 47.1344 6.49598C47.1449 6.53087 47.1485 6.56749 47.1449 6.60377C47.1413 6.64005 47.1306 6.67527 47.1134 6.70741C45.5816 9.57509 41.1588 18.1543 40.3496 19.6916C39.9989 20.3582 39.3917 20.4858 39.8313 19.5135V19.5129Z" fill="#9683D7"/>
<path d="M32.9042 18.7086C32.8775 17.658 33.3421 9.32468 33.5163 7.55145C33.553 7.18404 34.1041 7.24176 34.0686 7.60584C33.841 9.9213 33.4936 17.1185 33.4453 18.6426C33.4364 18.9306 32.9242 19.5306 32.9036 18.7086H32.9042Z" fill="#9683D7"/>
<path d="M90.2725 5.15612C88.0547 3.23915 84.5527 2.15357 81.7921 3.94456C79.7896 5.24326 79.1137 7.66139 78.5337 9.75152C77.6068 13.0915 76.852 16.4942 75.1915 19.5689C74.1253 21.5431 72.861 23.4278 71.4735 25.2088C71.3453 25.3737 70.3874 26.6707 70.1787 26.9216C72.6501 26.9216 76.5329 26.5969 79.9123 26.0025C93.5276 23.6065 97.2572 11.1934 90.2725 5.15668V5.15612Z" fill="#FFE2DE"/>
<path d="M89.4789 15.099C89.4789 16.0303 88.0304 16.1562 87.9332 15.1828C87.9332 14.2359 89.384 14.1505 89.4789 15.099Z" fill="#5B5180"/>
<path d="M85.5104 16.1013C84.3565 16.2067 84.3432 14.5561 85.3849 14.5561C86.3534 14.459 86.5094 16.0102 85.5104 16.1018V16.1013Z" fill="#5B5180"/>
<path d="M82.628 15.3909C82.628 16.3222 81.1795 16.4482 81.0823 15.4747C81.0823 14.5279 82.5331 14.4424 82.628 15.3914V15.3909Z" fill="#5B5180"/>
<path d="M77.406 38.9945C76.765 36.1151 74.6066 33.1919 71.265 33.0205C68.8834 32.8984 66.9265 34.4485 65.2493 35.7777C60.9053 39.2192 57.8056 42.0869 50.3775 44.0494C50.1688 44.091 48.6232 44.5933 48.3307 44.6766C49.4013 45.3187 51.2672 46.9809 56.7273 49.6888C69.1304 55.8404 79.4162 48.0271 77.406 38.9945Z" fill="#FFE2DE"/>
<path d="M71.4322 43.3385C71.4322 44.2698 69.9837 44.3958 69.8865 43.4223C69.8865 42.491 71.3351 42.3651 71.4322 43.3391V43.3385Z" fill="#5B5180"/>
<path d="M68.1739 43.4632C68.1739 44.3944 66.7254 44.5204 66.6282 43.547C66.6282 42.6001 68.079 42.5147 68.1739 43.4637V43.4632Z" fill="#5B5180"/>
<path d="M64.6229 43.6311C64.6229 44.5624 63.1744 44.6884 63.0773 43.7149C63.0773 42.7681 64.528 42.6826 64.6229 43.6317C64.6229 43.6039 64.6229 43.6039 64.6229 43.6317V43.6311Z" fill="#5B5180"/>
<path d="M62.7847 12.7588C60.2289 11.3103 56.5914 10.9107 54.221 13.26C52.5427 14.9233 52.3557 17.4391 52.2158 19.5681C51.8207 25.596 51.8595 29.239 48.3308 36.1526C48.2459 36.3191 47.5372 37.8237 47.4117 38.074C48.4268 37.9048 54.1361 36.2659 56.7696 35.2336C69.6706 30.1747 70.7645 17.2837 62.7852 12.7583L62.7847 12.7588Z" fill="#FFE2DE"/>
<path d="M64.1632 23.4535C64.2049 23.8709 63.9124 24.2882 63.495 24.3304C63.0777 24.3726 62.6597 24.0796 62.6176 23.6622C62.5754 23.2448 62.8684 22.8269 63.2858 22.7853H63.3696C63.7453 22.7431 64.1216 23.0356 64.1632 23.453V23.4535Z" fill="#5B5180"/>
<path d="M60.8632 23.5788C60.8632 24.51 59.4147 24.636 59.3176 23.6626C59.3176 22.7313 60.7661 22.6053 60.8632 23.5793V23.5788Z" fill="#5B5180"/>
<path d="M57.3123 23.7034C57.3123 24.6347 55.8637 24.7607 55.7666 23.7872C55.7662 23.6883 55.7854 23.5904 55.8231 23.499C55.8608 23.4076 55.9161 23.3245 55.9861 23.2546C56.056 23.1847 56.139 23.1293 56.2304 23.0917C56.3218 23.054 56.4198 23.0348 56.5186 23.0352C56.8944 23.0352 57.2707 23.3276 57.3123 23.7034Z" fill="#5B5180"/>
</svg>
