<svg width="147" height="115" viewBox="0 0 147 115" fill="none" xmlns="http://www.w3.org/2000/svg">
<path d="M77.879 105.599C77.879 105.599 120.759 105.999 122.228 105.599C123.698 105.199 135.308 107.577 135.716 95.7047C136.116 83.9788 135.901 34.4285 135.716 32.6126C135.531 30.7968 135.785 20.1173 121.197 20.1558C107.124 20.1558 29.9367 19.9942 21.8733 20.1558C11.3169 20.3558 8.86245 22.9411 8.79321 33.7898C8.72396 44.6386 8.50083 74.0303 8.50083 74.0303C7.46342 74.3848 6.53093 74.9927 5.78793 75.7989C5.04493 76.6051 4.51492 77.5839 4.24596 78.6468C3.75354 80.4857 6.24644 98.8747 8.64702 105.576C9.41643 107.623 13.1019 109.623 19.1111 108.369C29.2289 106.253 41.8858 104.522 41.8858 104.522C42.032 105.769 43.0245 105.646 44.271 105.646L77.879 105.599Z" fill="white"/>
<path d="M136.155 35.2592C136.155 30.2734 136.155 19.794 121.79 19.794H21.9426C16.6645 19.794 8.67792 19.717 8.60098 30.9351V48.2008C8.61516 48.3081 8.66785 48.4066 8.74924 48.4779C8.83063 48.5492 8.93517 48.5886 9.0434 48.5886C9.15163 48.5886 9.25617 48.5492 9.33755 48.4779C9.41894 48.4066 9.47163 48.3081 9.48581 48.2008C9.48581 48.1238 9.33962 43.5073 9.48581 33.905C14.6178 33.905 65.9994 33.6127 135.424 33.0972C135.424 33.905 135.493 90.6417 135.493 93.9425C135.493 97.8973 134.608 100.683 132.785 102.406C129.707 105.399 124.429 105.307 118.781 105.268L78.3485 105.138C77.8715 105.138 77.6406 106.184 78.3485 106.184L121.744 106.261C126.437 106.261 130.63 105.907 133.4 103.183C135.393 101.221 136.478 98.2051 136.401 94.0964C136.339 90.5186 136.155 44.2075 136.155 35.2592ZM9.40887 32.951V30.8966C9.44734 26.2801 10.8708 23.3333 13.733 21.8098C16.2259 20.4787 19.3805 20.5634 21.9426 20.5634H121.79C132.931 20.5634 134.908 27.0111 135.278 32.1431C65.9301 32.6971 14.5409 32.9125 9.40887 32.9894V32.951Z" fill="#8675C0"/>
<path d="M112.403 25.441C112.295 25.4268 112.197 25.3741 112.126 25.2927C112.054 25.2113 112.015 25.1068 112.015 24.9986C112.015 24.8904 112.054 24.7858 112.126 24.7044C112.197 24.623 112.295 24.5703 112.403 24.5562C112.48 24.5562 119.143 24.4869 126.621 24.5562C126.684 24.5478 126.748 24.5531 126.809 24.5715C126.87 24.5899 126.926 24.6211 126.974 24.663C127.022 24.7049 127.06 24.7565 127.086 24.8144C127.113 24.8722 127.126 24.935 127.126 24.9986C127.126 25.0621 127.113 25.1249 127.086 25.1828C127.06 25.2407 127.022 25.2923 126.974 25.3342C126.926 25.3761 126.87 25.4073 126.809 25.4257C126.748 25.4441 126.684 25.4493 126.621 25.441C119.143 25.3641 112.403 25.441 112.403 25.441Z" fill="#8675C0"/>
<path d="M112.403 29.4732C112.295 29.459 112.197 29.4064 112.126 29.325C112.054 29.2436 112.015 29.139 112.015 29.0308C112.015 28.9226 112.054 28.818 112.126 28.7367C112.197 28.6553 112.295 28.6026 112.403 28.5884C112.48 28.5884 119.143 28.5191 126.621 28.5884C126.684 28.5801 126.748 28.5853 126.809 28.6037C126.87 28.6221 126.926 28.6533 126.974 28.6952C127.022 28.7371 127.06 28.7887 127.086 28.8466C127.113 28.9045 127.126 28.9673 127.126 29.0308C127.126 29.0944 127.113 29.1572 127.086 29.215C127.06 29.2729 127.022 29.3245 126.974 29.3664C126.926 29.4083 126.87 29.4395 126.809 29.4579C126.748 29.4763 126.684 29.4815 126.621 29.4732C119.143 29.3963 112.403 29.4732 112.403 29.4732Z" fill="#8675C0"/>
<path d="M112.403 27.4875C112.286 27.4875 112.175 27.4413 112.093 27.3591C112.01 27.2768 111.964 27.1652 111.964 27.0489C111.964 26.9326 112.01 26.8211 112.093 26.7388C112.175 26.6566 112.286 26.6104 112.403 26.6104C112.48 26.6104 119.143 26.5334 126.621 26.6104C126.736 26.6174 126.844 26.6657 126.926 26.7463C127.008 26.8268 127.059 26.9343 127.068 27.0489C127.06 27.1641 127.011 27.2725 126.928 27.3534C126.846 27.4343 126.737 27.4821 126.621 27.4875C119.143 27.3798 112.403 27.4875 112.403 27.4875Z" fill="#8675C0"/>
<path d="M19.8191 26.7572C19.8113 27.0465 19.6929 27.3219 19.4882 27.5266C19.2835 27.7313 19.0082 27.8497 18.7188 27.8574C18.4065 27.8475 18.1101 27.7169 17.8921 27.4931C17.674 27.2693 17.5511 26.9696 17.5493 26.6572C17.5461 26.5118 17.5725 26.3673 17.6266 26.2324C17.6808 26.0975 17.7617 25.9749 17.8645 25.8721C17.9673 25.7693 18.0899 25.6884 18.2248 25.6342C18.3597 25.5801 18.5042 25.5537 18.6496 25.5569C18.9582 25.5775 19.2483 25.7115 19.4642 25.933C19.6801 26.1546 19.8065 26.4481 19.8191 26.7572Z" fill="#8675C0"/>
<path d="M25.3895 26.7564C25.3817 27.0458 25.2633 27.3211 25.0586 27.5258C24.854 27.7305 24.5786 27.8489 24.2892 27.8567C23.9769 27.8467 23.6806 27.7161 23.4625 27.4923C23.2444 27.2685 23.1216 26.9689 23.1197 26.6564C23.1218 26.3734 23.2351 26.1025 23.4352 25.9024C23.6353 25.7023 23.9062 25.5889 24.1892 25.5869C24.4983 25.5995 24.7918 25.7259 25.0134 25.9418C25.2349 26.1576 25.3689 26.4478 25.3895 26.7564Z" fill="#8675C0"/>
<path d="M30.814 26.7572C30.8062 27.0465 30.6878 27.3219 30.4831 27.5266C30.2785 27.7313 30.0031 27.8497 29.7137 27.8574C29.4014 27.8475 29.1051 27.7169 28.887 27.4931C28.6689 27.2693 28.5461 26.9696 28.5442 26.6572C28.5411 26.5118 28.5674 26.3673 28.6216 26.2324C28.6757 26.0975 28.7567 25.9749 28.8595 25.8721C28.9623 25.7693 29.0848 25.6884 29.2197 25.6342C29.3547 25.5801 29.4991 25.5537 29.6445 25.5569C29.9531 25.5775 30.2433 25.7115 30.4592 25.933C30.675 26.1546 30.8014 26.4481 30.814 26.7572Z" fill="#8675C0"/>
<path d="M52.3191 69.1517C37.8618 68.3131 25.5973 70.1212 12.3633 72.7141C7.51602 73.6605 3.9998 74.253 4.15368 81.0854C4.29217 87.1099 6.80816 100.844 7.85457 103.975C9.06255 107.584 10.9322 109.538 16.926 108.984C23.9738 108.33 43.8555 104.468 44.0171 104.429C44.0719 104.42 44.1242 104.4 44.171 104.37C44.2177 104.34 44.2577 104.301 44.2887 104.255C44.3197 104.208 44.3409 104.157 44.3511 104.102C44.3613 104.047 44.3602 103.991 44.3479 103.937C44.3256 103.828 44.2615 103.733 44.1694 103.671C44.0773 103.609 43.9646 103.586 43.8555 103.606C43.6555 103.645 23.8507 107.499 16.849 108.146C15.2004 108.382 13.5196 108.243 11.9325 107.738C13.2636 105.345 19.7882 93.8192 24.0431 89.3874C27.1207 90.9262 31.8449 92.9805 35.3227 92.7112C41.1395 92.2573 49.3184 75.3071 49.6646 74.5838C49.7123 74.4848 49.7189 74.3709 49.6828 74.2671C49.6468 74.1633 49.5711 74.078 49.4722 74.0298C49.4228 74.005 49.369 73.9903 49.3138 73.9865C49.2587 73.9827 49.2033 73.99 49.151 74.008C49.0987 74.0259 49.0505 74.0541 49.0092 74.0908C48.9679 74.1276 48.9344 74.1723 48.9106 74.2222C48.8259 74.3992 40.5932 91.4571 35.2535 91.8726C28.0517 92.4342 12.9404 82.101 5.85409 76.4843C7.01591 74.5684 9.29337 74.1222 12.5172 73.5297C26.8207 70.8829 36.6846 69.0748 52.2729 69.975C52.3275 69.9781 52.3822 69.9704 52.4338 69.9524C52.4854 69.9344 52.5329 69.9063 52.5736 69.8698C52.6144 69.8334 52.6475 69.7893 52.6712 69.74C52.6948 69.6907 52.7085 69.6372 52.7115 69.5826C52.7146 69.5284 52.7069 69.4742 52.6887 69.423C52.6706 69.3718 52.6424 69.3248 52.6059 69.2847C52.5693 69.2446 52.5251 69.2121 52.4759 69.1893C52.4266 69.1665 52.3733 69.1537 52.3191 69.1517ZM23.266 88.9796C18.8495 93.7038 12.4403 105.076 11.1631 107.376C9.57806 106.476 9.10871 105.068 8.56243 103.437C7.83149 101.267 5.13853 87.5946 4.99234 81.0623C4.90994 79.7754 5.07716 78.4848 5.48477 77.2614C7.04668 78.4924 15.241 84.817 23.266 88.9796Z" fill="#8675C0"/>
<path d="M5.01535 73.8227C19.3996 69.5549 34.3652 67.5738 49.3645 67.9521C49.9617 67.2346 50.5961 66.5489 51.2649 65.8978C51.2649 65.8978 22.5272 47.0086 18.6494 45.3005C15.3409 43.854 13.4174 46.0238 12.4171 47.6087C11.6477 48.7706 1.34523 62.9971 0.537348 66.2286C-0.270538 69.4601 1.34523 71.3991 5.01535 73.8227Z" fill="#8675C0"/>
<path d="M25.2049 69.0827C23.3429 66.7745 16.1951 47.9854 15.1563 45.2308C15.1367 45.1788 15.107 45.1311 15.0689 45.0905C15.0308 45.0499 14.985 45.0173 14.9343 44.9944C14.8835 44.9715 14.8288 44.9589 14.7731 44.9572C14.7175 44.9555 14.6621 44.9649 14.6101 44.9846C14.559 45.0042 14.5122 45.0337 14.4725 45.0714C14.4329 45.1091 14.401 45.1543 14.3789 45.2044C14.3567 45.2544 14.3446 45.3083 14.3434 45.3631C14.3421 45.4178 14.3517 45.4722 14.3715 45.5232C14.5947 46.1234 18.2648 55.8411 21.2347 62.8197C15.2333 63.3967 1.74544 67.8209 0.460513 68.0517C0.391108 68.0441 0.320915 68.0542 0.256418 68.0809C0.19192 68.1076 0.135199 68.1502 0.0914914 68.2046C0.047784 68.2591 0.0185003 68.3237 0.00634528 68.3924C-0.00580973 68.4612 -0.000444092 68.5319 0.0219464 68.598C0.175829 69.0596 0.2143 69.0366 3.99982 67.9209C8.74712 66.5206 17.48 63.943 21.6117 63.6276C22.4168 65.7057 23.4082 67.7066 24.574 69.6059C24.6484 69.6703 24.7431 69.7061 24.8415 69.7071C24.9398 69.7082 25.0353 69.6743 25.111 69.6115C25.1867 69.5487 25.2377 69.4612 25.2549 69.3643C25.2721 69.2675 25.2544 69.1677 25.2049 69.0827Z" fill="white"/>
<path d="M84.7653 50.3623C84.0805 47.7848 79.8564 33.5737 76.3017 27.5645C72.747 21.5554 65.7376 15.7617 60.1363 19.7319C60.0602 19.7794 59.9752 19.8107 59.8865 19.8239C59.7979 19.8372 59.7074 19.832 59.6208 19.8088C58.3743 19.4395 53.3885 18.4085 49.9492 22.0094C41.1317 31.2423 45.3327 47.3 41.7396 56.8254C41.7128 56.9047 41.7031 56.9887 41.7111 57.072C41.7191 57.1553 41.7447 57.2359 41.7861 57.3086C41.8275 57.3813 41.8839 57.4444 41.9515 57.4937C42.019 57.543 42.0963 57.5775 42.1781 57.5948C46.2099 58.7643 68.6383 64.635 84.5498 51.0009C84.639 50.923 84.7059 50.8229 84.7438 50.7107C84.7816 50.5985 84.7891 50.4783 84.7653 50.3623Z" fill="#5B5180"/>
<path d="M116.435 38.6287C116.515 37.5121 116.866 36.4319 117.458 35.4818C118.489 33.7199 120.228 29.2496 120.028 26.7567C119.866 24.7793 123.029 19.3549 121.79 18.9163C120.759 18.547 117.827 24.8485 117.827 24.8485L116.873 24.7023C116.873 24.7023 117.758 15.831 116.365 15.7617C114.973 15.6925 114.603 24.5561 114.603 24.5561L113.28 24.7793C113.28 24.7793 111.449 14.7307 110.202 14.6615C108.956 14.5922 110.787 25.4333 110.787 25.4333L109.764 25.7257C109.764 25.7257 106.517 16.9928 104.978 17.4237C102.847 18.0623 109.233 30.7807 108.494 31.2039C107.756 31.6271 104.178 27.9108 103.293 29.0034C101.977 30.6268 106.755 33.7507 109.964 36.1205C110.549 36.5513 110.472 37.9517 110.402 38.8288L116.435 38.6287Z" fill="white"/>
<path d="M71.1237 96.7666L69.2155 104.976C69.9836 106.576 70.6692 108.215 71.2699 109.885C71.6238 111.062 73.0318 114.786 73.7628 114.648C74.4937 114.509 74.5322 113.478 74.5322 113.478C74.5322 113.478 75.8556 114.248 76.5173 112.447C76.5173 112.447 78.2716 113.217 77.9792 109.739C77.9792 109.739 79.7412 109.516 77.833 104.238C78.0964 104.357 78.3956 104.371 78.6689 104.276C78.9422 104.182 79.169 103.986 79.3026 103.73C79.7258 102.96 77.7638 99.1826 74.2398 99.1133C73.3637 98.1358 72.3052 97.3386 71.1237 96.7666Z" fill="white"/>
<path d="M66.5918 62.5269C66.5918 62.5269 74.5784 67.2973 76.1172 59.1569L74.3552 55.1251C74.3552 55.1251 80.8799 49.7392 76.4865 40.2446C76.4865 40.2446 78.9025 37.9364 77.5868 35.0434C77.1938 34.2245 76.5645 33.542 75.7801 33.084C74.9957 32.6259 74.0921 32.4133 73.1857 32.4735C73.1857 32.4735 70.839 25.8873 61.8215 24.8486C61.8215 24.8486 60.3596 34.8972 53.2502 38.7827L54.4966 43.253C54.4966 43.253 50.7573 43.3223 50.388 46.4C50.0186 49.4776 54.5659 50.3624 56.474 49.1852C56.474 49.1852 59.1131 56.3023 65.5608 57.1795C65.5608 57.1025 66.738 61.3574 66.5918 62.5269Z" fill="white"/>
<path d="M60.2057 47.7593C60.211 47.9344 60.2649 48.1057 60.3643 48.2629C60.4637 48.4201 60.6065 48.5601 60.7843 48.6747C60.9622 48.7894 61.1715 48.8763 61.4 48.9304C61.6286 48.9845 61.8717 49.0047 62.1151 48.9899C62.3585 48.975 62.5973 48.9254 62.8176 48.8439C63.0378 48.7623 63.235 48.6506 63.3976 48.5152C63.5601 48.3798 63.6848 48.2234 63.7643 48.0553C63.8438 47.8872 63.8765 47.7107 63.8604 47.5361C63.8551 47.361 63.8012 47.1897 63.7018 47.0325C63.6024 46.8753 63.4596 46.7353 63.2818 46.6207C63.1039 46.506 62.8946 46.4191 62.6661 46.365C62.4376 46.3109 62.1945 46.2907 61.951 46.3055C61.7076 46.3204 61.4688 46.37 61.2485 46.4515C61.0283 46.5331 60.8311 46.6448 60.6686 46.7802C60.506 46.9156 60.3813 47.072 60.3018 47.2401C60.2223 47.4082 60.1896 47.5847 60.2057 47.7593Z" fill="#FCCAC2"/>
<path d="M74.3627 43.0689C74.4414 43.215 74.5586 43.3379 74.7072 43.4303C74.8558 43.5227 75.0329 43.5827 75.2282 43.607C75.4234 43.6312 75.6328 43.6191 75.844 43.5714C76.0553 43.5237 76.2642 43.4413 76.4585 43.3291C76.6528 43.2169 76.8285 43.0771 76.9754 42.918C77.1223 42.7588 77.2374 42.5835 77.314 42.4023C77.3905 42.2211 77.427 42.0377 77.4212 41.8628C77.4154 41.6879 77.3675 41.5251 77.2803 41.3839C77.1997 41.2404 77.0815 41.1201 76.9327 41.0299C76.7839 40.9398 76.6073 40.8816 76.4132 40.8587C76.2191 40.8358 76.0113 40.8486 75.8017 40.8965C75.5922 40.9444 75.3851 41.0263 75.1924 41.1376C74.9997 41.2488 74.8252 41.3872 74.679 41.5447C74.5328 41.7023 74.4178 41.8758 74.3405 42.0554C74.2633 42.2349 74.2255 42.417 74.2291 42.5909C74.2328 42.7649 74.2779 42.9273 74.3619 43.0689" fill="#FCCAC2"/>
<path d="M117.904 38.2674H116.873C117.104 36.9781 117.551 35.7372 118.196 34.5973L118.635 33.6509C119.678 31.2842 120.297 28.753 120.466 26.1722C120.951 24.3487 123.328 19.0628 122.005 18.4011C121.932 18.347 121.847 18.3117 121.757 18.2982C121.667 18.2848 121.575 18.2937 121.49 18.3242C120.466 18.6858 118.343 22.7253 117.604 24.4103L117.242 24.341C117.312 23.5716 117.473 21.9174 117.535 20.3093C117.704 16.0544 117.165 15.3927 116.511 15.3235C116.304 15.3098 116.097 15.3609 115.919 15.4697C114.842 16.3314 114.342 21.9097 114.088 24.1948L113.426 24.2641C113.134 22.1405 112.033 15.4004 110.641 14.3694C110.549 14.2899 110.441 14.2317 110.325 14.1991C110.208 14.1664 110.086 14.1602 109.966 14.1809C109.847 14.2015 109.734 14.2485 109.635 14.3183C109.536 14.3882 109.454 14.4792 109.394 14.5848C108.348 16.039 109.694 23.0484 110.164 25.2182L109.941 25.2874C109.725 24.6334 109.171 23.2408 108.479 21.7712C106.648 17.7394 105.693 17.3009 105.324 17.2239C105.078 17.1222 104.801 17.1222 104.555 17.2239C102.839 18.0626 105.455 23.5101 108.071 30.7195C107.799 30.543 107.542 30.3449 107.302 30.127C105.84 29.0268 103.855 27.4879 102.685 28.8806C102.574 28.9961 102.496 29.1384 102.456 29.2935C102.417 29.4486 102.419 29.6112 102.462 29.7654C102.793 32.1968 109.517 36.1054 109.794 36.6517C110.023 37.2343 110.074 37.8714 109.941 38.4829C109.245 38.4812 108.553 38.5823 107.886 38.783C107.74 39.1446 106.278 62.2347 106.278 62.2347C101.292 58.9416 88.5355 54.1559 82.3801 55.6408C80.1843 56.1852 78.1166 57.155 76.2941 58.4954C75.9248 57.6182 75.1938 56.0025 74.7552 55.0561C77.9945 52.5786 79.7795 46.7002 76.8788 40.3218C77.3396 39.8875 77.7075 39.3643 77.9601 38.7836C78.2127 38.203 78.3448 37.5772 78.3484 36.944C78.2715 32.3968 73.5857 32.2583 73.5088 32.2583C70.3542 24.9258 61.7829 24.4872 61.706 24.4872C61.6002 24.4786 61.4952 24.5115 61.4133 24.579C61.3314 24.6465 61.2791 24.7433 61.2674 24.8488C61.2674 24.9258 60.5672 34.4204 53.0577 38.4136C52.9879 38.4633 52.9311 38.5291 52.8923 38.6055C52.8534 38.6819 52.8336 38.7665 52.8346 38.8522C53.2039 40.1756 53.7194 42.076 53.9349 42.9609C52.7711 43.0469 51.6667 43.5087 50.7879 44.2766C50.4315 44.6513 50.1718 45.1073 50.0315 45.6051C49.8913 46.1029 49.8746 46.6274 49.983 47.1331C50.0914 47.6388 50.3216 48.1104 50.6537 48.5069C50.9857 48.9035 51.4095 49.213 51.8882 49.4086C53.2255 49.9418 54.7119 49.9665 56.0661 49.4778C56.3585 50.1395 59.3592 56.518 65.1529 57.3259C65.2991 58.0953 65.8146 60.1111 66.0301 61.5038C50.9341 54.2482 28.9596 99.3744 43.5247 106.807C46.3869 108.269 68.6692 106.038 69.4078 105.922C71.1928 109.862 71.97 114.87 73.7319 114.87C74.2397 114.794 74.5013 114.286 74.686 113.839C74.8874 113.906 75.1004 113.93 75.3117 113.911C75.5229 113.891 75.7278 113.828 75.9135 113.725C76.0992 113.623 76.2617 113.483 76.3907 113.314C76.5198 113.146 76.6126 112.953 76.6634 112.747C76.8339 112.804 77.0157 112.821 77.1937 112.794C77.3717 112.767 77.5407 112.698 77.6867 112.593C78.4561 112.093 78.4561 110.693 78.3484 109.954C79.741 109.492 79.2332 107.022 78.787 105.622H102.816C102.046 100.275 93.8137 75.361 93.8137 75.361C93.8137 75.361 108.302 84.8325 117.858 79.6081C126.083 75.1301 120.836 38.3367 117.904 38.2674ZM73.7011 32.9893C74.462 32.9893 75.2058 33.2149 75.8385 33.6376C76.4711 34.0603 76.9642 34.6612 77.2554 35.3641C77.5466 36.0671 77.6227 36.8406 77.4743 37.5869C77.3259 38.3331 76.9595 39.0186 76.4214 39.5566C75.8834 40.0946 75.1979 40.461 74.4517 40.6095C73.7054 40.7579 72.9319 40.6817 72.2289 40.3906C71.526 40.0994 70.9251 39.6063 70.5024 38.9736C70.0797 38.341 69.8541 37.5972 69.8541 36.8363C69.8541 35.816 70.2594 34.8375 70.9808 34.116C71.7023 33.3946 72.6808 32.9893 73.7011 32.9893ZM66.007 56.9565C65.9377 56.8104 65.8608 56.6642 65.6454 56.6642C59.6285 55.8947 56.774 48.97 56.774 48.8931C56.7427 48.8372 56.7 48.7887 56.6486 48.7505C56.5972 48.7124 56.5384 48.6855 56.4759 48.6717C56.4134 48.6579 56.3487 48.6575 56.2861 48.6704C56.2234 48.6834 56.1642 48.7094 56.1123 48.7469C55.5275 49.1854 53.4809 49.4009 52.0806 48.7469C50.1801 47.8621 50.9803 45.4461 51.4958 45.0075C52.5191 43.9073 54.5042 43.838 54.5735 43.838C54.812 43.838 55.0582 43.561 54.9428 43.3225C54.8274 43.084 54.058 40.0986 53.8425 39.0753C55.8143 37.99 57.4589 36.3958 58.6052 34.4588C59.7577 34.1202 60.9976 34.2531 62.0522 34.8282C62.0998 34.8584 62.153 34.8787 62.2087 34.8877C62.2643 34.8967 62.3213 34.8943 62.376 34.8807C62.4307 34.867 62.482 34.8423 62.5269 34.8082C62.5718 34.774 62.6092 34.7311 62.6369 34.682C62.6709 34.6355 62.6942 34.5822 62.7052 34.5258C62.7162 34.4693 62.7147 34.4112 62.7007 34.3554C62.6868 34.2996 62.6608 34.2475 62.6245 34.2029C62.5882 34.1583 62.5425 34.1222 62.4908 34.0972C61.514 33.5412 60.3768 33.3349 59.2669 33.5125C60.6365 30.9914 61.5998 28.2702 62.1214 25.449C65.491 25.798 68.6191 27.3593 70.9235 29.8423C70.2223 29.9915 69.5682 30.3099 69.0183 30.7699C68.4685 31.2299 68.0395 31.8175 67.7689 32.4814C67.7468 32.5296 67.735 32.5819 67.7343 32.6349C67.7337 32.6879 67.7443 32.7404 67.7653 32.789C67.7864 32.8377 67.8175 32.8814 67.8565 32.9172C67.8956 32.953 67.9418 32.9802 67.9921 32.9969C68.2075 33.0662 68.4999 32.92 68.4999 32.7738C68.4999 32.6276 69.3847 30.5733 71.5083 30.5733C71.8699 31.0888 72.3162 31.6736 72.6778 32.266C68.4306 33.2893 69.0154 37.8366 69.1616 38.2751C68.7133 38.3366 68.2707 38.4344 67.8382 38.5675C67.4766 37.5442 67.0149 36.3054 66.5994 35.1205C66.5672 35.0151 66.4958 34.926 66.3999 34.8716C66.304 34.8172 66.1909 34.8017 66.0839 34.8282C66.0306 34.8424 65.9807 34.8671 65.937 34.9008C65.8934 34.9345 65.8569 34.9766 65.8297 35.0246C65.8024 35.0726 65.7851 35.1255 65.7785 35.1803C65.772 35.2351 65.7764 35.2906 65.7915 35.3437C66.1532 36.4439 66.561 37.6519 67.038 38.7906C66.3297 39.0798 65.6823 39.5001 65.1299 40.0294C64.7475 39.2028 64.1379 38.502 63.3722 38.0089C62.6066 37.5157 61.7165 37.2505 60.8057 37.2441C59.8775 37.2441 58.97 37.5194 58.1982 38.0351C57.4264 38.5508 56.8248 39.2838 56.4696 40.1415C56.1143 40.9991 56.0214 41.9428 56.2025 42.8532C56.3836 43.7636 56.8306 44.5999 57.487 45.2563C58.1434 45.9127 58.9797 46.3597 59.8901 46.5408C60.8005 46.7219 61.7442 46.629 62.6018 46.2737C63.4594 45.9185 64.1925 45.3169 64.7082 44.5451C65.2239 43.7733 65.4992 42.8658 65.4992 41.9376C65.4841 41.5671 65.4351 41.1988 65.353 40.8373C65.881 40.2508 66.54 39.7973 67.2765 39.5139C67.5576 40.3335 67.9265 41.1203 68.3768 41.8606C68.6692 42.153 70.2849 42.153 70.4311 42.153C70.158 42.7611 69.839 43.3475 69.477 43.9073C69.4443 43.9547 69.422 44.0086 69.4117 44.0654C69.4013 44.1221 69.4031 44.1804 69.4169 44.2364C69.4307 44.2924 69.4563 44.3448 69.4918 44.3902C69.5274 44.4356 69.5722 44.4729 69.6232 44.4997C69.7209 44.5547 69.836 44.5702 69.9447 44.543C70.0535 44.5158 70.1477 44.448 70.208 44.3535C72.0777 41.2759 71.4621 41.4144 69.9156 41.2759C69.5438 41.272 69.174 41.2203 68.8154 41.122C68.4945 40.5165 68.2366 39.8797 68.0459 39.2215C68.4711 39.0588 68.9218 38.9728 69.377 38.9676C69.6775 39.5624 70.1014 40.0862 70.6204 40.5042C71.1394 40.9222 71.7416 41.2246 72.3868 41.3914C73.032 41.5581 73.7053 41.5853 74.3618 41.4712C75.0183 41.3571 75.643 41.1043 76.194 40.7296C77.3235 43.268 77.7001 46.0775 77.2789 48.8238C76.2556 54.6098 72.0084 55.4947 71.7853 55.4947C71.679 55.531 71.5865 55.5993 71.5204 55.6902C71.4543 55.7811 71.4178 55.8901 71.416 56.0025C71.438 56.1038 71.493 56.1951 71.5723 56.2619C71.6517 56.3287 71.7509 56.3673 71.8545 56.3718C72.624 56.1791 73.3641 55.8841 74.0551 55.4947C74.5706 56.6642 75.4477 58.6416 75.6708 59.1571C75.5333 59.9173 75.224 60.6361 74.7667 61.2588C74.3094 61.8814 73.716 62.3915 73.0317 62.7502C70.762 63.8659 67.7536 62.6733 66.9457 62.3117C66.8841 60.8421 65.9993 57.1027 65.9993 56.9565H66.007ZM64.7528 42.0453C64.7528 42.8062 64.5272 43.5499 64.1045 44.1826C63.6818 44.8152 63.0809 45.3083 62.378 45.5995C61.675 45.8907 60.9015 45.9669 60.1552 45.8184C59.409 45.67 58.7235 45.3036 58.1855 44.7656C57.6474 44.2275 57.281 43.5421 57.1326 42.7958C56.9842 42.0495 57.0603 41.276 57.3515 40.5731C57.6427 39.8701 58.1358 39.2693 58.7684 38.8465C59.4011 38.4238 60.1449 38.1982 60.9058 38.1982C61.9211 38.2141 62.8904 38.6245 63.6085 39.3425C64.3266 40.0606 64.737 41.0299 64.7528 42.0453ZM45.5175 94.5271C45.4582 94.5533 45.3936 94.565 45.3289 94.5612C45.2642 94.5574 45.2014 94.5383 45.1456 94.5054C45.0898 94.4726 45.0426 94.4269 45.008 94.3721C44.9734 94.3174 44.9523 94.2552 44.9465 94.1907C44.9407 94.1261 44.9503 94.0612 44.9746 94.0011C44.9989 93.9411 45.0372 93.8877 45.0862 93.8454C45.1352 93.8031 45.1936 93.773 45.2566 93.7578C45.3196 93.7425 45.3852 93.7425 45.4482 93.7577C45.7406 93.7577 47.9411 93.5422 51.088 93.2499C52.773 86.5021 56.1508 77.5615 56.1508 77.4845C56.1895 77.3825 56.2673 77.3001 56.3668 77.2553C56.4664 77.2106 56.5796 77.2073 56.6817 77.246C56.7837 77.2848 56.8661 77.3625 56.9109 77.4621C56.9556 77.5616 56.959 77.6749 56.9202 77.7769C56.9202 77.8539 53.6194 86.5021 51.9344 93.1652C58.3821 92.6574 67.7689 92.1419 71.9392 93.019C72.0461 93.0568 72.1388 93.1265 72.2049 93.2187C72.2709 93.3109 72.3071 93.4212 72.3085 93.5345C72.3085 93.6038 72.0161 95.1426 71.8622 95.8043C71.8149 95.8812 71.7439 95.9407 71.6598 95.9736C71.5757 96.0065 71.4832 96.0111 71.3963 95.9868C71.3093 95.9625 71.2327 95.9105 71.1779 95.8387C71.1232 95.7669 71.0933 95.6792 71.0928 95.5889C71.257 95.0114 71.3778 94.4224 71.4544 93.8269C64.6066 92.5112 45.7329 94.4194 45.5482 94.4886L45.5175 94.5271ZM78.2099 109.338C77.3802 106.547 75.9548 103.969 74.032 101.783C73.9534 101.705 73.8473 101.662 73.7369 101.663C73.6265 101.663 73.5209 101.708 73.4434 101.787C73.3658 101.865 73.3227 101.971 73.3234 102.082C73.3241 102.192 73.3687 102.298 73.4472 102.375C73.4472 102.375 76.7249 105.953 77.479 109.992C77.8714 112.116 76.9635 112.301 76.8173 112.193C76.0479 108.092 73.0779 103.691 72.9702 103.475C72.9086 103.382 72.8145 103.316 72.7062 103.289C72.598 103.262 72.4835 103.276 72.3854 103.329C72.2963 103.394 72.2328 103.488 72.2061 103.595C72.1793 103.702 72.1911 103.815 72.2392 103.914C72.2392 103.983 75.3169 108.454 76.0863 112.378C76.0094 113.401 75.2015 113.332 74.9861 113.255C74.6167 109.515 72.1238 105.63 72.0546 105.484C71.9885 105.394 71.893 105.33 71.7848 105.303C71.6766 105.277 71.5624 105.289 71.4621 105.337C71.373 105.402 71.3095 105.496 71.2828 105.603C71.256 105.71 71.2678 105.823 71.316 105.922C71.316 105.999 73.8089 109.885 74.1012 113.478C74.032 114.647 73.0625 113.77 71.9776 110.469C71.4437 108.564 70.7059 106.723 69.7771 104.976C70.3619 102.406 71.316 97.5663 71.316 97.5663C71.4621 97.5663 74.2551 98.5588 76.8865 103.437C79.2794 107.938 78.2407 109.3 78.2407 109.3L78.2099 109.338ZM78.8716 103.691C78.6717 103.908 78.3964 104.04 78.1022 104.06C77.3922 102.349 76.3723 100.784 75.0938 99.4437C78.61 100.652 79.341 103.214 78.9024 103.652L78.8716 103.691ZM110.833 38.4521C110.977 37.6631 110.847 36.8486 110.464 36.1439C109.756 35.436 102.623 30.8503 103.285 29.6962C103.947 28.542 105.593 29.9885 106.801 30.7964C107.755 31.5658 108.34 31.9659 108.779 31.6735C109.217 31.3812 109.163 30.858 107.609 26.9109C106.886 25.072 106.07 22.9407 105.555 21.1864C104.716 18.4627 104.678 18.1857 105.039 18.0395C105.924 17.6009 108.456 23.1561 109.44 25.9568C109.484 26.0541 109.558 26.135 109.65 26.1876C109.743 26.2402 109.85 26.2617 109.956 26.2492L110.91 26.026C111.016 25.9972 111.106 25.9276 111.161 25.8325C111.216 25.7373 111.231 25.6243 111.202 25.5182C111.202 25.5182 110.672 23.0253 110.318 20.4555C109.71 15.9852 110.171 15.1773 110.248 15.0696C110.395 15.1388 111.018 15.6543 111.933 19.9784C112.434 22.4021 112.703 24.8181 112.703 24.8873C112.713 24.9942 112.764 25.0929 112.846 25.1621C112.928 25.2312 113.034 25.2652 113.141 25.2566L114.534 25.1104C114.583 25.1126 114.632 25.1046 114.678 25.0868C114.724 25.069 114.765 25.0419 114.8 25.0071C114.835 24.9724 114.862 24.9308 114.88 24.885C114.897 24.8392 114.906 24.7902 114.903 24.7411C115.265 20.1246 115.927 16.8238 116.365 16.2775C116.804 17.047 116.658 21.1095 116.296 24.7411C116.287 24.8469 116.32 24.9519 116.388 25.0338C116.455 25.1157 116.552 25.168 116.658 25.1797L117.689 25.3259C117.775 25.3365 117.862 25.3218 117.94 25.2835C118.018 25.2452 118.083 25.1851 118.127 25.1104C119.62 22.0328 120.912 19.9015 121.497 19.3167C121.497 20.7555 119.689 25.2951 119.52 26.1338C119.043 33.3047 116.296 34.5127 115.927 38.229C114.457 38.2674 112.48 38.3367 110.864 38.4136L110.833 38.4521Z" fill="#8675C0"/>
<path d="M71.8931 38.7828C71.9994 38.7913 72.1057 38.7671 72.1978 38.7134C72.29 38.6598 72.3635 38.5793 72.4086 38.4827C72.5682 37.7162 72.98 37.0253 73.5784 36.5204C74.1767 36.0155 74.927 35.7258 75.7094 35.6974C75.8234 35.6902 75.9308 35.6417 76.0115 35.5609C76.0922 35.4802 76.1408 35.3728 76.148 35.2589C76.1392 35.1455 76.0901 35.039 76.0097 34.9586C75.9293 34.8782 75.8228 34.8291 75.7094 34.8203C72.3394 34.8203 71.6008 38.1903 71.6008 38.2673C71.5743 38.3743 71.5899 38.4874 71.6442 38.5833C71.6986 38.6792 71.7877 38.7506 71.8931 38.7828Z" fill="#8675C0"/>
<path d="M57.8665 41.6372C57.816 41.666 57.7716 41.7045 57.736 41.7504C57.7003 41.7963 57.6741 41.8488 57.6587 41.9049C57.6433 41.961 57.6392 42.0196 57.6464 42.0773C57.6537 42.135 57.6723 42.1907 57.7011 42.2412C57.7299 42.2917 57.7683 42.3361 57.8143 42.3717C57.8602 42.4074 57.9127 42.4336 57.9688 42.449C58.0249 42.4643 58.0835 42.4685 58.1412 42.4612C58.1989 42.454 58.2546 42.4354 58.3051 42.4066C58.8437 42.0505 59.4398 41.7902 60.067 41.6372C60.6295 41.483 61.2203 41.4626 61.7921 41.5775C62.3639 41.6924 62.9009 41.9394 63.3601 42.2989C63.4371 42.3681 63.5063 42.3681 63.6525 42.3681C63.7102 42.3673 63.767 42.3538 63.8189 42.3285C63.8707 42.3033 63.9164 42.2669 63.9526 42.2219C63.9906 42.1805 64.0191 42.1313 64.036 42.0777C64.0529 42.024 64.0579 41.9674 64.0506 41.9116C64.0433 41.8559 64.0238 41.8024 63.9936 41.755C63.9633 41.7076 63.9231 41.6674 63.8756 41.6372C61.2365 39.4367 57.8665 41.6372 57.8665 41.6372Z" fill="#8675C0"/>
<path d="M72.1623 45.4464C70.1695 45.9927 66.5148 47.0622 66.5148 47.0622C66.1455 47.1392 66.2224 47.5008 66.2224 47.647C66.4999 48.2788 66.9492 48.82 67.5191 49.2091C68.0891 49.5981 68.7568 49.8193 69.4463 49.8475C69.9388 49.8387 70.4233 49.7213 70.8653 49.5036C71.3072 49.2859 71.6956 48.9734 72.0028 48.5883C72.31 48.2031 72.5284 47.755 72.6425 47.2757C72.7565 46.7965 72.7633 46.298 72.6624 45.8158C72.654 45.7586 72.6343 45.7037 72.6046 45.6542C72.5748 45.6047 72.5356 45.5615 72.4891 45.5272C72.4426 45.4929 72.3898 45.4681 72.3338 45.4542C72.2777 45.4403 72.2194 45.4377 72.1623 45.4464ZM70.3542 48.8242C69.8034 49.0094 69.206 49.0013 68.6605 48.8013C68.115 48.6013 67.6539 48.2212 67.3535 47.7239C68.3075 47.4315 70.4311 46.8468 71.9699 46.4005C71.9841 46.922 71.8364 47.435 71.547 47.869C71.2577 48.303 70.841 48.6367 70.3542 48.8242Z" fill="#8675C0"/>
<path d="M54.5659 46.4001C54.0135 46.2551 53.4498 46.1573 52.8808 46.1077C52.7738 46.0992 52.6678 46.1332 52.5857 46.2023C52.5036 46.2715 52.4521 46.3702 52.4423 46.4771C52.4336 46.5829 52.4666 46.6878 52.5341 46.7697C52.6016 46.8516 52.6984 46.904 52.8039 46.9156C53.324 46.9704 53.8388 47.0682 54.3427 47.208C54.4197 47.208 54.789 47.2849 54.8582 46.9156C54.8721 46.8096 54.851 46.702 54.7983 46.609C54.7455 46.516 54.664 46.4427 54.5659 46.4001Z" fill="#8675C0"/>
<path d="M95.5447 40.9068C95.5195 40.8132 95.4611 40.7319 95.3804 40.6781C95.2997 40.6244 95.2023 40.6017 95.1062 40.6144L94.3367 40.7606L94.0444 39.1448C94.0429 39.0932 94.029 39.0427 94.004 38.9976C93.979 38.9524 93.9435 38.914 93.9006 38.8853C93.8577 38.8567 93.8085 38.8388 93.7572 38.8331C93.7059 38.8273 93.654 38.834 93.6058 38.8524C93.5542 38.8539 93.5037 38.8678 93.4586 38.8928C93.4135 38.9178 93.375 38.9532 93.3463 38.9962C93.3177 39.0391 93.2998 39.0883 93.2941 39.1396C93.2883 39.1909 93.295 39.2428 93.3134 39.291L93.6058 40.976C93.2365 41.0529 92.9441 41.1222 92.8364 41.1222C92.7422 41.1491 92.6608 41.2089 92.6071 41.2909C92.5534 41.3728 92.531 41.4714 92.544 41.5685C92.5743 41.644 92.6235 41.7105 92.6868 41.7617C92.7501 41.8129 92.8254 41.847 92.9056 41.8608C92.9056 41.8608 93.3442 41.7839 93.6751 41.7146L93.8905 42.8149C93.8987 42.8636 93.9167 42.9101 93.9436 42.9516C93.9704 42.993 94.0054 43.0286 94.0465 43.056C94.0876 43.0833 94.1339 43.102 94.1825 43.1109C94.2311 43.1197 94.281 43.1185 94.3291 43.1073C94.5522 43.0303 94.6984 42.8842 94.6214 42.661L94.406 41.4915C94.6443 41.4192 94.8891 41.3703 95.1369 41.3453C95.1964 41.3614 95.2592 41.3609 95.3184 41.3439C95.3776 41.3269 95.4311 41.2941 95.4731 41.249C95.515 41.2039 95.5439 41.1482 95.5565 41.0878C95.5691 41.0275 95.5651 40.9649 95.5447 40.9068Z" fill="#8675C0"/>
<path d="M121.789 5.79024H121.02V4.62073C121.028 4.56829 121.024 4.51482 121.009 4.46396C120.994 4.41309 120.969 4.36602 120.934 4.32594C120.899 4.28586 120.856 4.25372 120.808 4.23168C120.76 4.20965 120.708 4.19824 120.655 4.19824C120.602 4.19824 120.549 4.20965 120.501 4.23168C120.453 4.25372 120.41 4.28586 120.375 4.32594C120.341 4.36602 120.315 4.41309 120.3 4.46396C120.285 4.51482 120.281 4.56829 120.289 4.62073V5.79024H119.774C119.721 5.78261 119.668 5.78636 119.617 5.80123C119.566 5.81609 119.519 5.84173 119.479 5.8764C119.439 5.91107 119.407 5.95396 119.385 6.00215C119.363 6.05035 119.351 6.10272 119.351 6.15571C119.351 6.20871 119.363 6.26108 119.385 6.30927C119.407 6.35747 119.439 6.40036 119.479 6.43503C119.519 6.4697 119.566 6.49533 119.617 6.5102C119.668 6.52507 119.721 6.52882 119.774 6.52119H120.289V7.69839C120.281 7.75083 120.285 7.8043 120.3 7.85517C120.315 7.90603 120.341 7.9531 120.375 7.99318C120.41 8.03326 120.453 8.06541 120.501 8.08744C120.549 8.10947 120.602 8.12088 120.655 8.12088C120.708 8.12088 120.76 8.10947 120.808 8.08744C120.856 8.06541 120.899 8.03326 120.934 7.99318C120.969 7.9531 120.994 7.90603 121.009 7.85517C121.024 7.8043 121.028 7.75083 121.02 7.69839V6.52119H121.789C121.877 6.50841 121.958 6.46445 122.016 6.39734C122.074 6.33022 122.106 6.24445 122.106 6.15571C122.106 6.06698 122.074 5.98121 122.016 5.91409C121.958 5.84698 121.877 5.80302 121.789 5.79024Z" fill="#8675C0"/>
<path d="M132.046 11.7998C132.007 11.8046 131.968 11.8009 131.93 11.7889C131.893 11.777 131.859 11.7571 131.83 11.7306C131.782 11.7014 131.74 11.6616 131.709 11.6142C131.678 11.5667 131.658 11.5129 131.651 11.4567C131.644 11.4006 131.649 11.3434 131.667 11.2896C131.684 11.2358 131.714 11.1866 131.753 11.1458C133.169 9.13461 134.351 6.96889 135.277 4.69043C135.317 4.59493 135.392 4.51876 135.487 4.47843C135.582 4.4381 135.689 4.43687 135.785 4.475C135.835 4.49088 135.881 4.51723 135.92 4.55231C135.959 4.5874 135.99 4.63039 136.011 4.67845C136.033 4.7265 136.043 4.7785 136.043 4.83098C136.042 4.88346 136.03 4.93522 136.008 4.98281C134.508 9.33001 132.192 11.7998 132.046 11.7998Z" fill="#8675C0"/>
<path d="M132.046 15.4699C131.607 15.4699 131.538 14.9544 131.83 14.662C131.9 14.662 135.678 12.7154 138.94 7.92193C139.007 7.83419 139.107 7.77678 139.216 7.76235C139.326 7.74793 139.437 7.77765 139.525 7.84499C139.612 7.91233 139.67 8.01177 139.684 8.12143C139.699 8.2311 139.669 8.342 139.602 8.42975C137.693 11.3559 135.099 13.7725 132.046 15.4699Z" fill="#8675C0"/>
<path d="M94.5907 13.123C93.012 12.658 91.5909 11.7692 90.482 10.5531C90.4117 10.472 90.3729 10.3682 90.3729 10.2607C90.3729 10.1533 90.4117 10.0495 90.482 9.96837C90.5644 9.89742 90.6695 9.8584 90.7783 9.8584C90.887 9.8584 90.9921 9.89742 91.0745 9.96837C92.0817 10.9966 93.307 11.7854 94.66 12.2766C94.7165 12.2891 94.7699 12.313 94.8168 12.3469C94.8637 12.3808 94.9032 12.424 94.9327 12.4737C94.9623 12.5235 94.9813 12.5788 94.9887 12.6362C94.996 12.6936 94.9915 12.7519 94.9754 12.8075C94.9727 12.8542 94.9603 12.8997 94.9391 12.9414C94.9179 12.983 94.8883 13.0198 94.8521 13.0495C94.816 13.0791 94.7741 13.1009 94.7291 13.1136C94.6841 13.1262 94.637 13.1294 94.5907 13.123Z" fill="#8675C0"/>
<path d="M94.3675 14.5156C93.0227 14.4487 91.6927 14.2029 90.4127 13.7846C90.3594 13.7704 90.3095 13.7457 90.2659 13.712C90.2222 13.6782 90.1857 13.6361 90.1585 13.5882C90.1313 13.5402 90.1139 13.4872 90.1073 13.4325C90.1008 13.3777 90.1052 13.3222 90.1204 13.2691C90.1337 13.2161 90.1576 13.1663 90.1906 13.1227C90.2236 13.0791 90.265 13.0426 90.3123 13.0153C90.3597 12.9881 90.4121 12.9706 90.4663 12.9639C90.5206 12.9573 90.5756 12.9617 90.6282 12.9767C91.8387 13.3665 93.0968 13.5892 94.3675 13.6384C94.4828 13.6439 94.5921 13.6916 94.6744 13.7725C94.7567 13.8534 94.8064 13.9618 94.8138 14.077C94.7369 14.2924 94.5907 14.5156 94.3675 14.5156Z" fill="#8675C0"/>
<path d="M104.924 9.01433C104.924 9.01433 102.162 9.01433 101.408 6.70608C101.327 6.49391 101.277 6.27094 101.262 6.04438C100.528 6.08337 99.7985 5.91943 99.1523 5.57057C98.5062 5.22171 97.9688 4.70145 97.5991 4.06698C97.2936 3.47412 97.1278 2.8192 97.1145 2.15237C97.1011 1.48554 97.2406 0.824512 97.5222 0.219908C97.6837 -0.257129 98.6224 0.11219 98.2531 0.658475C98.0305 1.14341 97.9218 1.67281 97.9351 2.20622C97.9485 2.73962 98.0835 3.26292 98.3301 3.73614C98.6194 4.22933 99.0387 4.63363 99.542 4.90498C100.045 5.17632 100.614 5.3043 101.185 5.27497C101.328 4.55555 101.63 3.87728 102.069 3.28988C102.263 3.02251 102.537 2.82428 102.851 2.72442C103.165 2.62456 103.503 2.62835 103.815 2.73524C104.127 2.84213 104.397 3.04646 104.584 3.31809C104.771 3.58973 104.866 3.9143 104.855 4.24395C104.632 5.12108 103.754 6.00591 101.992 6.07516C101.992 7.36778 103.585 8.03717 104.855 8.27569C105.162 8.3911 105.501 9.01433 104.924 9.01433ZM102.877 3.73614C102.54 4.13499 102.311 4.61497 102.216 5.12878C103.531 4.98259 104.116 4.35936 104.193 3.95927C104.208 3.66689 103.608 3.00519 102.877 3.73614Z" fill="#5B5180"/>
<path d="M136.077 47.8699C134.783 47.8743 133.532 47.4034 132.561 46.5465C131.524 45.6925 130.824 44.4984 130.584 43.1765C130.584 43.0602 130.63 42.9486 130.712 42.8664C130.795 42.7841 130.906 42.7379 131.022 42.7379C131.139 42.7379 131.25 42.7841 131.333 42.8664C131.415 42.9486 131.461 43.0602 131.461 43.1765C131.703 44.2642 132.295 45.2426 133.146 45.9618C133.666 46.4152 134.283 46.7439 134.95 46.9225C135.617 47.1012 136.316 47.1253 136.993 46.9928C137.446 46.9329 137.876 46.7551 138.24 46.4773C137.78 46.1992 137.385 45.8261 137.081 45.3829C136.777 44.9397 136.571 44.4366 136.478 43.9074C136.393 42.7379 137.247 41.3453 138.894 42.3686C140.009 43.0765 140.14 45.2693 139.486 46.2157C139.555 46.2157 142.364 47.9238 145.857 44.4614C145.939 44.3905 146.044 44.3514 146.153 44.3514C146.262 44.3514 146.367 44.3905 146.449 44.4614C146.52 44.5426 146.558 44.6464 146.558 44.7538C146.558 44.8612 146.52 44.965 146.449 45.0462C143.425 47.9622 140.732 47.5391 139.409 47.0236C139.263 46.9543 139.117 46.9543 138.97 46.8774C138.164 47.5586 137.132 47.9128 136.077 47.8699ZM137.293 43.7612C137.388 44.1851 137.574 44.5828 137.84 44.9259C138.106 45.2691 138.445 45.5493 138.832 45.7463C138.89 45.569 138.962 45.3966 139.047 45.2308C139.601 42.8149 137.178 41.93 137.293 43.7612Z" fill="#5B5180"/>
</svg>
