<svg width="126" height="119" viewBox="0 0 126 119" fill="none" xmlns="http://www.w3.org/2000/svg">
<path d="M113.808 65.4784L108.181 64.0578C108.471 63.4049 108.545 62.6765 108.392 61.9788C108.097 60.9796 103.33 52.9458 105.044 52.3555C106.188 51.9618 107.845 56.8209 108.761 56.7731C109.661 56.7264 107.748 44.7023 109.38 44.6771C110.716 44.6538 111.181 53.2306 111.912 53.3011C112.643 53.3717 113.298 41.7035 114.97 41.929C116.642 42.1545 114.51 52.9956 114.97 53.24C115.431 53.4845 118.759 44.18 120.262 44.7426C121.428 45.1798 117.22 54.6298 117.561 54.9278C117.903 55.2258 121.763 50.8574 122.513 51.6266C123.561 52.6976 117.88 59.2609 116.491 60.9506C115.44 62.361 114.541 63.8787 113.808 65.4784Z" fill="white"/>
<path d="M64.0198 63.832V24.0664C64.8499 25.1634 65.9478 26.0289 67.2082 26.5801C69.2532 27.4432 72.836 26.805 74.2239 27.8181C75.6118 28.8311 75.7056 30.3847 75.7434 32.412C75.7812 34.4394 75.6685 37.2158 76.456 37.2725C77.2435 37.3292 78.4443 34.515 80.2454 36.1467C82.0466 37.7784 79.8139 41.399 78.7819 41.324C78.0441 41.3131 77.3236 41.0988 76.6998 40.7047C76.6248 40.5359 76.1958 50.6808 71.0166 54.7058L71.0796 62.0012C70.2696 63.0424 69.138 63.7865 67.8611 64.1176C66.5842 64.4488 65.2337 64.3483 64.0198 63.832Z" fill="white"/>
<path d="M64.0198 63.8324C65.2408 64.3027 66.5785 64.3788 67.8451 64.0503C69.1116 63.7217 70.2436 63.0049 71.0821 62.0004L71.1665 59.9497C71.1665 59.9497 84.1842 54.1159 99.6425 78.4768L106.47 63.6825L115.474 65.9146C115.474 65.9146 111.159 98.948 101.667 100.376C96.1233 101.208 91.2383 95.9114 91.2383 95.9114L92.1153 104.873C92.1153 104.873 82.5909 112.962 64.0204 110.941L64.0198 63.8324Z" fill="#9683D7"/>
<path d="M68.3661 37.8082C68.877 35.6599 71.6226 35.7292 72.0831 37.9682C72.0974 38.0387 72.1391 38.1007 72.199 38.1404C72.259 38.1802 72.3323 38.1945 72.4028 38.1802C72.4733 38.1659 72.5353 38.1242 72.575 38.0642C72.6148 38.0043 72.6291 37.931 72.6148 37.8605C72.517 37.2792 72.2242 36.7485 71.7846 36.3559C71.345 35.9632 70.7848 35.732 70.1962 35.7002C69.6366 35.7152 69.0986 35.9196 68.6702 36.28C68.2418 36.6403 67.9482 37.1353 67.8375 37.6841C67.8211 37.7542 67.8331 37.8279 67.871 37.8891C67.909 37.9503 67.9696 37.9939 68.0397 38.0104C68.1098 38.0269 68.1836 38.0148 68.2448 37.9769C68.306 37.939 68.3496 37.8783 68.3661 37.8082Z" fill="#5B5180"/>
<path d="M78.6391 39.2228C78.8022 38.7596 79.1238 38.3689 79.547 38.1197C79.6086 38.0853 79.6544 38.0281 79.6746 37.9603C79.6947 37.8926 79.6875 37.8197 79.6547 37.7572C79.6218 37.6946 79.5658 37.6474 79.4986 37.6256C79.4314 37.6037 79.3583 37.609 79.295 37.6403C78.7448 37.956 78.3275 38.4602 78.12 39.0597C78.1043 39.111 78.104 39.1658 78.1193 39.2172C78.1345 39.2686 78.1646 39.3144 78.2058 39.3489C78.2469 39.3833 78.2973 39.4048 78.3506 39.4108C78.404 39.4167 78.4579 39.4068 78.5056 39.3822C78.5694 39.3489 78.6175 39.2916 78.6391 39.2228Z" fill="#5B5180"/>
<path d="M83.3496 36.4593C84.0066 36.06 84.5591 35.51 84.9614 34.8548C85.3636 34.1995 85.6041 33.4579 85.6629 32.6913C85.6626 32.6389 85.6473 32.5877 85.6187 32.5437C85.59 32.4998 85.5493 32.4651 85.5015 32.4437C85.4536 32.4223 85.4006 32.4151 85.3488 32.4231C85.297 32.431 85.2486 32.4537 85.2093 32.4885C85.1571 32.5358 85.1253 32.6015 85.1205 32.6718C85.0604 33.3451 84.8446 33.9953 84.4903 34.571C84.1359 35.1468 83.6527 35.6323 83.0787 35.9894C83.0163 36.0253 82.9708 36.0845 82.9522 36.154C82.9335 36.2234 82.9432 36.2975 82.9791 36.3598C83.015 36.4221 83.0743 36.4676 83.1437 36.4863C83.2132 36.505 83.2872 36.4953 83.3496 36.4593Z" fill="#5B5180"/>
<path d="M83.566 43.4144C83.5483 43.4825 83.5579 43.5548 83.5928 43.6158C83.6276 43.6769 83.6849 43.722 83.7525 43.7414C83.8198 43.7614 83.8921 43.7545 83.9544 43.7222C84.0167 43.6899 84.064 43.6346 84.0864 43.5681C84.1066 43.502 84.552 41.9301 83.069 40.1359C83.0223 40.083 82.9569 40.0503 82.8866 40.0448C82.8163 40.0392 82.7466 40.0613 82.6923 40.1062C82.6379 40.1511 82.6032 40.2155 82.5954 40.2856C82.5876 40.3557 82.6074 40.426 82.6506 40.4818C83.9377 42.0417 83.583 43.3565 83.566 43.4144Z" fill="#5B5180"/>
<path d="M69.0868 31.4401C69.1032 31.4326 70.7248 30.7471 72.5235 32.4645C72.5628 32.4993 72.6113 32.5219 72.6632 32.5297C72.7151 32.5375 72.7681 32.5301 72.8159 32.5085C72.8637 32.4869 72.9042 32.4519 72.9326 32.4077C72.9609 32.3636 72.976 32.3122 72.9758 32.2598C72.975 32.1893 72.947 32.1218 72.8977 32.0714C70.8382 30.1096 68.9482 30.9078 68.8657 30.9431C68.816 30.9645 68.7739 31.0003 68.7448 31.0459C68.7156 31.0915 68.7008 31.1448 68.7022 31.1989C68.7037 31.253 68.7213 31.3054 68.7527 31.3494C68.7842 31.3934 68.8282 31.427 68.8789 31.4458C68.9122 31.4586 68.9478 31.4647 68.9834 31.4637C69.0191 31.4628 69.0542 31.4547 69.0868 31.4401Z" fill="#5B5180"/>
<path d="M110.721 57.9485C111.335 58.7801 111.684 59.778 111.721 60.8112C111.721 60.8832 111.75 60.9522 111.801 61.003C111.851 61.0539 111.92 61.0825 111.992 61.0825C112.064 61.0825 112.133 61.0539 112.184 61.003C112.235 60.9522 112.264 60.8832 112.264 60.8112C112.229 59.6545 111.838 58.5366 111.145 57.6102C111.11 57.571 111.066 57.5425 111.016 57.5281C110.965 57.5137 110.912 57.5141 110.863 57.5291C110.813 57.5441 110.768 57.5732 110.734 57.6128C110.701 57.6525 110.679 57.701 110.672 57.7526C110.662 57.8217 110.68 57.892 110.721 57.9485Z" fill="#5B5180"/>
<path d="M116.747 61.1209C119.303 58.2411 123.202 52.7645 122.825 51.72C122.1 49.7122 118.512 54.5455 117.693 54.7264C117.823 53.2263 122.04 45.0458 120.284 44.5304C118.604 44.0365 116.764 49.498 115.181 52.7022C115.53 48.965 117.019 41.8384 114.979 41.6381C112.801 41.4245 112.607 51.0881 111.883 52.9838C111.234 51.548 111.19 44.0907 109.263 44.3635C108.175 44.5178 108.298 47.4751 108.592 52.139C108.703 53.8891 108.839 56.0449 108.671 56.5206C108.176 55.9746 107.758 55.3635 107.429 54.7043C106.527 53.1558 105.674 51.6929 104.821 52.156C103.29 52.9857 106.343 59.023 107.423 60.535C107.783 60.9697 108.028 61.4889 108.133 62.044C108.238 62.5991 108.2 63.1718 108.023 63.7083C107.521 63.5888 107.016 63.476 106.511 63.37C106.274 63.3214 106.275 63.3221 105.721 64.538C105.444 65.1472 100.123 77.201 99.6799 78.2121C95.045 70.7151 88.2177 62.2939 79.7643 59.8023C75.3701 58.5064 72.3404 59.3543 71.3689 59.709V54.5298C72.4728 53.6712 73.3866 52.5931 74.0527 51.3634C74.7161 51.7313 77.2437 53.1022 79.6906 49.7254C80.8032 48.2446 81.5012 46.4942 81.7129 44.6541C81.9247 42.8141 81.6424 40.9509 80.8952 39.2561C81.0949 38.7337 81.1635 38.1703 81.0949 37.6153C81.0262 37.0603 80.8224 36.5306 80.5014 36.0727C80.5014 36.0727 84.1838 32.9554 82.9402 25.9026C81.6965 18.8497 74.466 18.175 74.466 18.175C74.466 18.175 72.8469 14.756 69.8141 14.4794C64.2506 13.9754 63.7088 17.3226 63.7088 17.3226V110.968C63.7077 111.037 63.7333 111.104 63.7803 111.155C63.8272 111.205 63.8919 111.235 63.9608 111.239C74.0521 112.436 84.919 110.42 92.256 105.154C92.2949 105.127 92.3258 105.09 92.3454 105.047C92.365 105.003 92.3726 104.956 92.3675 104.908C92.3605 104.826 92.0184 101.245 91.5409 96.5848C96.6931 101.292 100.15 100.8 100.27 100.8C111.252 100.8 115.713 66.5061 115.756 66.1558C115.789 65.878 115.815 65.6588 115.558 65.614C115.117 65.534 114.658 65.4332 114.172 65.3167C114.83 63.8045 115.697 62.3922 116.747 61.1209ZM64.2556 46.3965C65.6787 45.9841 67.0006 45.2807 68.1377 44.3307C68.1903 44.2847 68.2232 44.2202 68.2293 44.1505C68.2355 44.0809 68.2145 44.0116 68.1707 43.9571C68.127 43.9025 68.0638 43.8671 67.9945 43.858C67.9251 43.849 67.855 43.8671 67.7987 43.9086C66.7569 44.777 65.5567 45.4353 64.2644 45.8471V25.3564C65.3865 26.8942 68.3374 28.0389 71.2026 27.8764C73.4007 27.7504 74.8012 28.7061 75.05 30.4928C75.3241 32.4735 74.609 37.4644 76.1803 37.8008C77.8554 38.158 77.7458 36.2302 78.854 36.0248C79.1579 35.9574 79.4759 36.0019 79.7496 36.1502C80.0233 36.2984 80.2343 36.5405 80.3439 36.8318C80.8171 37.8631 80.4661 40.9854 78.0847 40.9646C77.849 40.9428 77.6205 40.8713 77.4142 40.7551C77.2079 40.6388 77.0285 40.4803 76.8877 40.2899C76.8541 40.2474 76.8086 40.216 76.757 40.1996C76.7054 40.1832 76.65 40.1826 76.5981 40.1979C76.5461 40.2132 76.4999 40.2437 76.4654 40.2855C76.431 40.3273 76.4097 40.3784 76.4045 40.4323C75.5855 49.1313 72.9225 52.7614 70.8322 54.2753C70.1908 54.77 69.4571 55.1319 68.6741 55.3397C67.8911 55.5475 67.0746 55.5971 66.2722 55.4855C66.1255 55.4521 65.9415 55.5391 65.9472 55.689C65.9711 56.2919 68.842 56.9673 70.8101 56.0109V61.9537C70.0331 62.8866 68.9786 63.547 67.8001 63.8389C66.6216 64.1308 65.3807 64.0389 64.2581 63.5766L64.2556 46.3965ZM115.223 66.1016C114.587 70.7491 113.699 75.3586 112.565 79.91C110.21 89.3209 107.297 95.7803 104.142 98.5895C102.798 99.7865 98.9692 102.698 91.4647 95.7671C91.4647 95.7671 90.0585 82.5617 89.443 78.3551C89.4381 78.3199 89.4262 78.286 89.4081 78.2553C89.3899 78.2247 89.3659 78.198 89.3374 78.1767C89.3088 78.1555 89.2764 78.1401 89.2418 78.1314C89.2073 78.1228 89.1714 78.1211 89.1362 78.1265C89.101 78.1314 89.067 78.1433 89.0364 78.1614C89.0058 78.1795 88.9791 78.2036 88.9578 78.2321C88.9365 78.2606 88.9211 78.2931 88.9125 78.3276C88.9039 78.3622 88.9022 78.3981 88.9075 78.4333C89.9911 85.8534 91.6449 102.983 91.8194 104.803C83.4341 110.745 73.3824 111.125 64.2468 110.714V64.1505C65.4712 64.5991 66.8048 64.6558 68.0629 64.3129C69.321 63.97 70.4413 63.2444 71.2688 62.2366C71.3589 62.1339 71.3318 62.2586 71.3469 60.2949C71.9189 60.0656 75.0563 58.9669 79.6629 60.3384C88.1988 62.8805 95.1181 71.788 99.4197 78.815C98.0835 81.8498 96.9898 84.3194 96.848 84.5764C96.8129 84.6235 96.7941 84.6808 96.7943 84.7395C96.7946 84.7983 96.814 84.8554 96.8495 84.9022C96.8851 84.949 96.9349 84.983 96.9915 84.999C97.048 85.015 97.1082 85.0122 97.163 84.9909C97.3249 84.9279 106.1 64.9645 106.599 63.9445C108.39 64.3232 114.109 65.8862 115.219 66.1016H115.223ZM113.92 64.6161C113.804 64.858 113.686 65.1056 113.634 65.1831C113.011 65.0243 109.66 64.1121 108.559 63.8399C108.75 63.2269 108.787 62.5762 108.667 61.9455C108.546 61.3148 108.272 60.7235 107.869 60.2237C106.592 58.4333 104.24 53.1419 105.085 52.6348C105.466 52.4061 106.444 54.0838 106.965 54.9796C107.758 56.3423 108.332 57.3276 108.929 57.0359C109.769 56.6271 108.871 51.1858 108.946 47.2155C108.987 45.0546 109.354 44.8889 109.397 44.8927C110.083 44.9557 110.531 47.9898 110.783 49.9157C111.144 52.6543 111.322 53.6144 111.893 53.6428C112.424 53.6692 112.59 52.8597 113.047 49.3884C113.266 47.7245 113.515 45.8383 113.854 44.3956C114.348 42.292 114.814 42.1232 114.933 42.1805C115.841 42.6215 115.26 47.7825 114.905 50.5085C114.54 53.3126 114.689 53.6774 115.057 53.799C115.336 53.891 115.574 53.2238 116.56 51.0094C117.505 48.8863 119.415 44.812 120.048 45.0187C120.086 45.0313 120.386 45.248 119.832 47.1386C118.797 50.6742 116.66 54.6224 117.296 55.1491C117.837 55.597 118.647 54.7831 119.767 53.656C120.586 52.8294 121.823 51.5871 122.294 51.8063C122.347 52.0199 122.047 52.9932 120.52 55.3066C116.787 60.9508 115.983 60.2962 113.917 64.6161H113.92Z" fill="#5B5180"/>
<path d="M29.1864 65.2753C29.1864 65.2753 29.8951 61.2962 33.8383 60.4734C39.5033 59.2915 57.5723 58.9444 61.0801 59.5164V110.936C61.0801 110.936 33.4357 111.295 28.7366 77.1684C28.7366 77.1684 22.5418 82.9014 13.5536 73.8061C5.22181 65.3698 8.60806 57.2289 10.5856 56.4597C14.6082 54.8954 17.6757 60.1174 20.7431 61.8058C22.9903 63.0406 25.7485 62.9398 29.1864 65.2753Z" fill="white"/>
<path d="M61.1022 59.4139C61.1019 59.3449 61.0752 59.2786 61.0277 59.2285C60.9802 59.1784 60.9154 59.1483 60.8465 59.1443C56.5889 58.8973 34.0847 58.4985 31.0386 61.3927C30.0638 62.3604 29.3577 63.5652 28.9899 64.8886C27.5006 63.8561 25.8353 63.1044 24.0759 62.6704C22.0485 62.191 20.1827 61.1873 18.6654 59.7598C15.2924 56.6356 12.4952 54.4256 9.78244 56.6898C6.83971 59.1468 7.19944 69.2375 14.9402 75.5299C20.323 79.8996 25.179 79.7509 28.5117 77.5226C30.5491 93.4358 39.3112 104.55 51.2547 109.683C54.3785 111.07 57.794 111.672 61.2037 111.437C61.4557 111.367 61.5073 111.226 61.5111 111.122C61.525 110.212 61.106 59.7598 61.1022 59.4139ZM34.3348 60.7262C37.9007 60.0725 41.514 59.7107 45.1387 59.6445C47.6845 59.5412 58.9262 59.5853 60.5819 59.6716V63.9776C57.6272 64.3235 53.093 64.4054 46.9739 64.4117C35.6616 64.4243 32.2734 63.2033 32.2501 62.2004C32.2369 61.7953 32.8858 61.4236 34.3348 60.7262ZM26.0623 78.101C23.7155 78.7795 19.9702 78.92 15.2773 75.1053C5.62381 67.265 7.29898 52.368 14.8325 57.3053C16.0596 58.1619 17.2166 59.1147 18.2925 60.1548C21.5918 63.2115 23.873 62.7787 27.1358 64.3758C28.4733 65.0303 32.7781 67.5302 31.0808 73.4579C30.4156 75.7826 27.7979 77.5989 26.0623 78.101ZM29.0119 77.156C30.2176 76.2646 31.1218 75.0259 31.6031 73.6059C32.5223 70.3583 31.6793 67.2952 29.446 65.2716C30.2102 62.276 31.8765 61.4879 32.3068 61.3152C32.1985 61.4015 31.7184 61.7392 31.7033 62.2023C31.6094 65.0959 44.9169 64.985 48.1255 64.9459C48.3221 66.9222 49.8177 85.7359 37.0747 97.922C36.329 96.9418 35.6241 95.9313 34.9616 94.893C31.9969 90.243 29.819 83.7162 29.0119 77.156Z" fill="#5B5180"/>
<path d="M7.37088 56.0648C8.49019 56.0648 9.56366 55.6201 10.3551 54.8286C11.1466 54.0372 11.5913 52.9637 11.5913 51.8444C11.5913 50.7251 11.1466 49.6516 10.3551 48.8601C9.56366 48.0687 8.49019 47.624 7.37088 47.624C6.25157 47.624 5.1781 48.0687 4.38663 48.8601C3.59516 49.6516 3.15051 50.7251 3.15051 51.8444C3.15051 52.9637 3.59516 54.0372 4.38663 54.8286C5.1781 55.6201 6.25157 56.0648 7.37088 56.0648Z" fill="#5B5180"/>
<path d="M61.0471 19.1684V54.6021C61.0471 54.6021 40.3314 55.0242 38.8969 54.9398C37.4624 54.8554 30.6055 54.7898 31.4717 46.4241C32.338 38.0583 41.611 18.4741 61.0471 19.1684Z" fill="white"/>
<path d="M56.7427 44.0996C57.3059 44.7743 58.0151 45.3121 58.8168 45.6723C59.6185 46.0324 60.4916 46.2056 61.37 46.1786V19.1516C61.37 19.0061 61.37 18.8858 61.227 18.8788C56.2385 18.5939 51.2818 19.8381 47.0193 22.4453C40.0792 18.8813 35.1753 24.0719 37.8723 30.9036C36.0848 33.306 34.5797 35.9061 33.3867 38.6526C29.618 47.3359 29.751 54.7491 39.2816 55.216C39.7585 55.2399 60.769 54.848 60.9252 54.8449C60.9988 54.8435 61.0694 54.8154 61.1238 54.7658C61.1782 54.7161 61.2126 54.6484 61.2207 54.5752V46.6895C60.2872 46.7138 59.3608 46.521 58.5145 46.1262C57.6682 45.7315 56.9251 45.1455 56.3439 44.4146C56.3066 44.3614 56.2911 44.296 56.3006 44.2317C56.31 44.1674 56.3436 44.1092 56.3946 44.0689C56.4456 44.0286 56.51 44.0094 56.5748 44.0151C56.6395 44.0208 56.6995 44.051 56.7427 44.0996ZM46.6305 32.0187C44.1937 33.1433 42.562 36.3399 41.9415 37.7952C40.4421 41.3232 37.74 48.7503 43.3306 49.2385C47.8874 49.6354 58.8746 49.3979 60.6676 49.357V54.3056C58.4304 54.3718 42.5381 54.8279 39.3106 54.6704C33.3256 54.3787 31.8407 51.1695 31.6491 48.5273C31.1899 42.2008 36.3741 32.7199 41.4425 27.564C46.7395 22.1756 53.2985 19.1006 60.8931 19.4068V30.2988C59.1732 30.3448 49.5682 30.6617 46.6305 32.0187ZM53.4875 37.9256C52.9658 35.7792 50.2115 35.851 49.7705 38.0869C49.7555 38.1567 49.7136 38.2178 49.6539 38.257C49.6094 38.2862 49.5572 38.3017 49.504 38.3015C49.4507 38.3013 49.3987 38.2854 49.3544 38.2559C49.31 38.2263 49.2754 38.1844 49.2547 38.1353C49.2341 38.0862 49.2283 38.0321 49.2381 37.9798C49.3349 37.3971 49.6278 36.8649 50.0684 36.4714C50.5089 36.0778 51.0706 35.8465 51.6605 35.8157C52.2196 35.8311 52.757 36.0356 53.1848 36.396C53.6125 36.7564 53.9054 37.2512 54.0154 37.7996C54.0321 37.8696 54.0203 37.9434 53.9826 38.0047C53.945 38.066 53.8844 38.1099 53.8144 38.1266C53.7444 38.1433 53.6706 38.1315 53.6093 38.0938C53.548 38.0561 53.5042 37.9956 53.4875 37.9256Z" fill="#5B5180"/>
</svg>
