<svg width="141" height="40" viewBox="0 0 141 40" fill="none" xmlns="http://www.w3.org/2000/svg">
<path d="M9.93829 39.4404H29.8173C34.9939 39.4402 39.1962 35.2169 39.1962 30V0.55957H9.93829C4.76196 0.559745 0.559433 4.78281 0.559433 10V30C0.559433 35.2169 4.76196 39.4403 9.93829 39.4404Z" stroke="#464343" stroke-width="1.11888"/>
<path d="M10.8651 15.7233C10.5399 14.2927 11.9585 13.0269 13.7935 13.0269C15.4464 13.0269 17.1031 13.3998 17.7335 15.7185H19.8524V19.2571C17.2107 17.0722 11.4835 18.4431 10.8651 15.7233ZM32.8504 14.7437H28.0773L23.5366 19.7473V9.75056H19.8524V12.1727C19.7321 12.0166 19.6054 11.8614 19.4634 11.71C18.1237 10.283 16.1935 9.55957 13.7257 9.55957C10.8717 9.55957 9.24908 10.8447 8.39026 11.9226C7.3236 13.2608 6.84737 15.0874 7.17694 16.5756C8.0307 20.4283 11.5838 21.0436 14.194 21.385C16.2547 21.6547 18.2262 22.0311 18.1739 23.8792C18.1193 25.7971 15.9706 26.2687 14.5602 26.2687C10.8869 26.2687 10.7629 23.5368 10.7629 23.5368H6.81236C6.87008 24.5627 7.17821 26.2097 8.43345 27.623C9.80789 29.1716 11.8693 29.9564 14.5602 29.9564C16.6243 29.9564 18.5047 29.2798 19.8524 28.0784V29.7295H23.5366V25.0105L24.8402 23.5759L28.5614 29.7295H32.8491L27.4339 20.7167L32.8504 14.7437Z" fill="#464343"/>
<path d="M49.5301 24.9343V10.5596H54.9206C56.0249 10.5596 56.9514 10.7655 57.7001 11.1773C58.4534 11.589 59.0219 12.1552 59.4056 12.8758C59.794 13.5918 59.9882 14.406 59.9882 15.3184C59.9882 16.2402 59.794 17.0591 59.4056 17.775C59.0173 18.4909 58.4441 19.0548 57.686 19.4666C56.928 19.8737 55.9945 20.0772 54.8855 20.0772H51.3129V17.9364H54.5345C55.1803 17.9364 55.709 17.8241 56.1208 17.5995C56.5326 17.3749 56.8367 17.0661 57.0333 16.6731C57.2345 16.28 57.3351 15.8284 57.3351 15.3184C57.3351 14.8084 57.2345 14.3592 57.0333 13.9708C56.8367 13.5824 56.5302 13.2806 56.1138 13.0654C55.702 12.8454 55.1709 12.7355 54.5205 12.7355H52.1341V24.9343H49.5301ZM66.7562 25.1448C65.6752 25.1448 64.7417 24.9202 63.9556 24.471C63.1742 24.0171 62.5729 23.3761 62.1518 22.5478C61.7306 21.7149 61.5201 20.7346 61.5201 19.6069C61.5201 18.498 61.7306 17.5247 62.1518 16.6871C62.5776 15.8448 63.1719 15.1897 63.9346 14.7218C64.6973 14.2492 65.5934 14.0129 66.6228 14.0129C67.2872 14.0129 67.9143 14.1205 68.5039 14.3358C69.0981 14.5463 69.6222 14.8739 70.0761 15.3184C70.5346 15.7629 70.8949 16.3291 71.157 17.017C71.419 17.7001 71.55 18.5143 71.55 19.4595V20.2386H62.7133V18.526H69.1145C69.1098 18.0394 69.0045 17.6066 68.7986 17.2275C68.5928 16.8438 68.305 16.542 67.9353 16.3221C67.5703 16.1022 67.1445 15.9922 66.6579 15.9922C66.1385 15.9922 65.6823 16.1186 65.2892 16.3712C64.8962 16.6192 64.5897 16.9468 64.3697 17.3539C64.1545 17.7563 64.0445 18.1985 64.0399 18.6805V20.1755C64.0399 20.8025 64.1545 21.3406 64.3838 21.7898C64.6131 22.2343 64.9336 22.5759 65.3454 22.8146C65.7571 23.0485 66.2391 23.1655 66.7912 23.1655C67.1609 23.1655 67.4955 23.114 67.7949 23.0111C68.0944 22.9035 68.3541 22.7467 68.574 22.5408C68.794 22.3349 68.9601 22.0799 69.0724 21.7758L71.4448 22.0425C71.295 22.6695 71.0096 23.217 70.5885 23.6849C70.172 24.1482 69.6386 24.5085 68.9882 24.7658C68.3377 25.0185 67.5937 25.1448 66.7562 25.1448ZM73.103 21.9793H75.6227C75.6461 22.3817 75.8263 22.6929 76.1632 22.9128C76.5001 23.1328 76.9376 23.2427 77.4757 23.2427C78.0232 23.2427 78.4841 23.1234 78.8584 22.8848C79.2375 22.6414 79.427 22.2741 79.427 21.7828C79.427 21.4927 79.3544 21.2377 79.2094 21.0177C79.0643 20.7931 78.8608 20.62 78.5987 20.4983C78.3367 20.3767 78.0279 20.3158 77.6723 20.3158H76.0228V18.512H77.6723C78.201 18.512 78.6011 18.3903 78.8725 18.147C79.1486 17.9037 79.2866 17.5972 79.2866 17.2275C79.2866 16.8298 79.1415 16.5069 78.8514 16.2589C78.566 16.0109 78.1706 15.8869 77.6652 15.8869C77.1599 15.8869 76.7387 16.0016 76.4018 16.2309C76.0696 16.4601 75.8965 16.7549 75.8824 17.1152H73.3767C73.3861 16.4882 73.5732 15.9431 73.9382 15.4798C74.3079 15.0166 74.8039 14.6563 75.4262 14.3989C76.0532 14.1416 76.7598 14.0129 77.5459 14.0129C78.3882 14.0129 79.1158 14.1392 79.7288 14.3919C80.3418 14.6446 80.8144 14.9979 81.1466 15.4518C81.4788 15.901 81.6449 16.4297 81.6449 17.038C81.6449 17.6229 81.4624 18.1072 81.0975 18.4909C80.7325 18.87 80.2412 19.1414 79.6235 19.3051V19.4174C80.0493 19.4408 80.433 19.5625 80.7746 19.7824C81.1162 19.9977 81.3876 20.2901 81.5888 20.6598C81.79 21.0294 81.8906 21.4576 81.8906 21.9442C81.8906 22.604 81.7011 23.1749 81.3221 23.6568C80.943 24.1341 80.4213 24.5014 79.7569 24.7588C79.0971 25.0162 78.3414 25.1448 77.4898 25.1448C76.6615 25.1448 75.9199 25.0208 75.2648 24.7728C74.6144 24.5202 74.0973 24.1575 73.7136 23.6849C73.3299 23.2123 73.1264 22.6438 73.103 21.9793ZM86.3406 21.495L90.6572 14.1533H93.2682V24.9343H90.8116V17.5855L86.509 24.9343H83.891V14.1533H86.3406V21.495ZM94.9229 28.0647V22.8426H95.7792C96.0085 22.6648 96.2003 22.4238 96.3547 22.1197C96.5092 21.8109 96.6355 21.4482 96.7338 21.0318C96.8367 20.6106 96.9209 20.1404 96.9864 19.621C97.0519 19.0969 97.1104 18.5331 97.1619 17.9294L97.4707 14.1533H105.262V22.8426H106.932V28.0647H104.476V24.9343H97.4216V28.0647H94.9229ZM98.3902 22.8426H102.833V16.2028H99.6747L99.5062 17.9294C99.4126 19.0712 99.2886 20.0491 99.1342 20.8633C98.9798 21.6775 98.7318 22.3373 98.3902 22.8426ZM113.602 25.1448C112.521 25.1448 111.588 24.9202 110.802 24.471C110.02 24.0171 109.419 23.3761 108.998 22.5478C108.577 21.7149 108.366 20.7346 108.366 19.6069C108.366 18.498 108.577 17.5247 108.998 16.6871C109.424 15.8448 110.018 15.1897 110.781 14.7218C111.543 14.2492 112.439 14.0129 113.469 14.0129C114.133 14.0129 114.76 14.1205 115.35 14.3358C115.944 14.5463 116.468 14.8739 116.922 15.3184C117.381 15.7629 117.741 16.3291 118.003 17.017C118.265 17.7001 118.396 18.5143 118.396 19.4595V20.2386H109.559V18.526H115.961C115.956 18.0394 115.851 17.6066 115.645 17.2275C115.439 16.8438 115.151 16.542 114.781 16.3221C114.416 16.1022 113.991 15.9922 113.504 15.9922C112.985 15.9922 112.528 16.1186 112.135 16.3712C111.742 16.6192 111.436 16.9468 111.216 17.3539C111 17.7563 110.891 18.1985 110.886 18.6805V20.1755C110.886 20.8025 111 21.3406 111.23 21.7898C111.459 22.2343 111.78 22.5759 112.191 22.8146C112.603 23.0485 113.085 23.1655 113.637 23.1655C114.007 23.1655 114.341 23.114 114.641 23.0111C114.94 22.9035 115.2 22.7467 115.42 22.5408C115.64 22.3349 115.806 22.0799 115.918 21.7758L118.291 22.0425C118.141 22.6695 117.856 23.217 117.434 23.6849C117.018 24.1482 116.485 24.5085 115.834 24.7658C115.184 25.0185 114.44 25.1448 113.602 25.1448ZM127.95 18.4909V20.5755H122.209V18.4909H127.95ZM122.995 14.1533V24.9343H120.546V14.1533H122.995ZM129.614 14.1533V24.9343H127.171V14.1533H129.614ZM130.977 16.2379V14.1533H140.411V16.2379H136.922V24.9343H134.466V16.2379H130.977Z" fill="#464343"/>
</svg>
