<svg width="174" height="39" viewBox="0 0 174 39" fill="none" xmlns="http://www.w3.org/2000/svg">
<mask id="path-1-inside-1_178_641" fill="white">
<path d="M48.4355 24.794V11.342H53.6796C54.8196 11.342 55.7885 11.6207 56.5865 12.178C57.3971 12.7353 57.8026 13.584 57.8026 14.724C57.8026 15.4587 57.5935 16.0793 57.1755 16.586C56.7575 17.0927 56.1875 17.4537 55.4655 17.669V17.707C56.3395 17.821 57.0425 18.1567 57.5745 18.714C58.1065 19.2713 58.3726 19.9933 58.3726 20.88C58.3726 21.5767 58.2268 22.191 57.9355 22.723C57.6568 23.2423 57.2706 23.6477 56.7766 23.939C56.2826 24.2303 55.7441 24.4457 55.1615 24.585C54.5788 24.7243 53.9518 24.794 53.2805 24.794H48.4355ZM50.8295 13.318V16.814H52.9576C53.7556 16.814 54.3635 16.6557 54.7815 16.339C55.1995 16.0223 55.4086 15.5727 55.4086 14.99C55.4086 14.3947 55.1932 13.9703 54.7626 13.717C54.3319 13.451 53.6606 13.318 52.7486 13.318H50.8295ZM50.8295 18.866V22.78H52.9765C54.9778 22.78 55.9785 22.1087 55.9785 20.766C55.9785 20.082 55.7441 19.5943 55.2755 19.303C54.8068 19.0117 54.0721 18.866 53.0715 18.866H50.8295ZM65.3732 15.674H67.5583V16.947H67.6152C67.8812 16.529 68.2802 16.168 68.8122 15.864C69.3569 15.56 70.0092 15.408 70.7692 15.408C72.0612 15.408 73.1189 15.864 73.9422 16.776C74.7782 17.688 75.1963 18.828 75.1963 20.196C75.1963 21.564 74.7846 22.7167 73.9613 23.654C73.1506 24.5913 72.0675 25.06 70.7122 25.06C70.0789 25.06 69.49 24.927 68.9453 24.661C68.4006 24.395 67.9825 24.034 67.6912 23.578H67.6533V29.354H65.3732V15.674ZM72.1752 22.267C72.6439 21.6717 72.8783 20.9813 72.8783 20.196C72.8783 19.4107 72.6439 18.7267 72.1752 18.144C71.7192 17.5613 71.0795 17.27 70.2562 17.27C69.4582 17.27 68.8122 17.574 68.3182 18.182C67.8242 18.79 67.5772 19.474 67.5772 20.234C67.5772 20.994 67.8242 21.6717 68.3182 22.267C68.8122 22.8623 69.4582 23.16 70.2562 23.16C71.0795 23.16 71.7192 22.8623 72.1752 22.267ZM79.1447 19.322H83.8187C83.8187 18.6887 83.635 18.163 83.2677 17.745C82.9003 17.327 82.3683 17.118 81.6717 17.118C81.0003 17.118 80.424 17.327 79.9427 17.745C79.4613 18.163 79.1953 18.6887 79.1447 19.322ZM86.0987 20.348C86.0987 20.614 86.0924 20.8167 86.0798 20.956H79.1447C79.1953 21.5893 79.4741 22.1213 79.9808 22.552C80.4874 22.9827 81.0763 23.198 81.7477 23.198C82.799 23.198 83.6034 22.8053 84.1608 22.02L85.6807 23.236C84.7813 24.452 83.4767 25.06 81.7667 25.06C80.3353 25.06 79.1573 24.6293 78.2327 23.768C77.3207 22.9067 76.8647 21.7477 76.8647 20.291C76.8647 18.8343 77.3207 17.6563 78.2327 16.757C79.1447 15.8577 80.2974 15.408 81.6908 15.408C83.0081 15.408 84.0721 15.8323 84.8828 16.681C85.6934 17.5297 86.0987 18.752 86.0987 20.348ZM90.0548 19.322H94.7288C94.7288 18.6887 94.5447 18.163 94.1777 17.745C93.8107 17.327 93.2785 17.118 92.5818 17.118C91.9105 17.118 91.3342 17.327 90.8529 17.745C90.3716 18.163 90.1055 18.6887 90.0548 19.322ZM97.0088 20.348C97.0088 20.614 97.0027 20.8167 96.9897 20.956H90.0548C90.1055 21.5893 90.3841 22.1213 90.8908 22.552C91.3975 22.9827 91.9866 23.198 92.6579 23.198C93.7088 23.198 94.5137 22.8053 95.0707 22.02L96.5908 23.236C95.6918 24.452 94.3867 25.06 92.6768 25.06C91.2455 25.06 90.0675 24.6293 89.1428 23.768C88.2308 22.9067 87.7748 21.7477 87.7748 20.291C87.7748 18.8343 88.2308 17.6563 89.1428 16.757C90.0548 15.8577 91.2075 15.408 92.6008 15.408C93.9177 15.408 94.9817 15.8323 95.7927 16.681C96.6037 17.5297 97.0088 18.752 97.0088 20.348ZM107.007 16.833L105.449 18.201C105.272 17.9477 105.006 17.7387 104.651 17.574C104.297 17.3967 103.936 17.308 103.568 17.308C102.783 17.308 102.169 17.6057 101.725 18.201C101.282 18.7837 101.06 19.4613 101.06 20.234C101.06 21.0193 101.288 21.7033 101.744 22.286C102.2 22.8687 102.834 23.16 103.644 23.16C104.48 23.16 105.12 22.8877 105.563 22.343L106.988 23.787C106.203 24.6357 105.082 25.06 103.625 25.06C102.232 25.06 101.06 24.623 100.11 23.749C99.1597 22.875 98.6847 21.7033 98.6847 20.234C98.6847 18.79 99.1538 17.6247 100.091 16.738C101.029 15.8513 102.188 15.408 103.568 15.408C104.24 15.408 104.892 15.5347 105.525 15.788C106.159 16.0413 106.653 16.3897 107.007 16.833ZM110.767 24.794V17.498H107.841V15.674H115.954V17.498H113.047V24.794H110.767ZM117.698 15.674H119.883V16.947H119.94C120.206 16.529 120.605 16.168 121.137 15.864C121.681 15.56 122.334 15.408 123.094 15.408C124.386 15.408 125.443 15.864 126.267 16.776C127.103 17.688 127.521 18.828 127.521 20.196C127.521 21.564 127.109 22.7167 126.286 23.654C125.475 24.5913 124.392 25.06 123.037 25.06C122.403 25.06 121.814 24.927 121.27 24.661C120.725 24.395 120.307 24.034 120.016 23.578H119.978V29.354H117.698V15.674ZM124.5 22.267C124.968 21.6717 125.203 20.9813 125.203 20.196C125.203 19.4107 124.968 18.7267 124.5 18.144C124.044 17.5613 123.404 17.27 122.581 17.27C121.783 17.27 121.137 17.574 120.643 18.182C120.149 18.79 119.902 19.474 119.902 20.234C119.902 20.994 120.149 21.6717 120.643 22.267C121.137 22.8623 121.783 23.16 122.581 23.16C123.404 23.16 124.044 22.8623 124.5 22.267ZM131.469 19.322H136.143C136.143 18.6887 135.96 18.163 135.592 17.745C135.225 17.327 134.693 17.118 133.996 17.118C133.325 17.118 132.749 17.327 132.267 17.745C131.786 18.163 131.52 18.6887 131.469 19.322ZM138.423 20.348C138.423 20.614 138.417 20.8167 138.404 20.956H131.469C131.52 21.5893 131.799 22.1213 132.305 22.552C132.812 22.9827 133.401 23.198 134.072 23.198C135.124 23.198 135.928 22.8053 136.485 22.02L138.005 23.236C137.106 24.452 135.801 25.06 134.091 25.06C132.66 25.06 131.482 24.6293 130.557 23.768C129.645 22.9067 129.189 21.7477 129.189 20.291C129.189 18.8343 129.645 17.6563 130.557 16.757C131.469 15.8577 132.622 15.408 134.015 15.408C135.333 15.408 136.397 15.8323 137.207 16.681C138.018 17.5297 138.423 18.752 138.423 20.348ZM145.495 24.794V11.342H156.458V24.794H154.064V13.432H147.889V24.794H145.495ZM158.784 18.03C158.784 15.902 159.455 14.1983 160.798 12.919C162.153 11.6397 163.882 11 165.985 11C168.113 11 169.855 11.6397 171.21 12.919C172.565 14.1983 173.243 15.902 173.243 18.03C173.243 20.12 172.559 21.83 171.191 23.16C169.836 24.4773 168.1 25.136 165.985 25.136C163.895 25.136 162.172 24.4773 160.817 23.16C159.462 21.83 158.784 20.12 158.784 18.03ZM161.387 18.03C161.387 19.474 161.818 20.6647 162.679 21.602C163.54 22.5267 164.649 22.989 166.004 22.989C167.372 22.989 168.487 22.5267 169.348 21.602C170.209 20.6647 170.64 19.474 170.64 18.03C170.64 16.624 170.209 15.4523 169.348 14.515C168.499 13.5777 167.385 13.109 166.004 13.109C164.636 13.109 163.521 13.5777 162.66 14.515C161.811 15.4523 161.387 16.624 161.387 18.03Z"/>
</mask>
<path d="M48.4355 24.794V11.342H53.6796C54.8196 11.342 55.7885 11.6207 56.5865 12.178C57.3971 12.7353 57.8026 13.584 57.8026 14.724C57.8026 15.4587 57.5935 16.0793 57.1755 16.586C56.7575 17.0927 56.1875 17.4537 55.4655 17.669V17.707C56.3395 17.821 57.0425 18.1567 57.5745 18.714C58.1065 19.2713 58.3726 19.9933 58.3726 20.88C58.3726 21.5767 58.2268 22.191 57.9355 22.723C57.6568 23.2423 57.2706 23.6477 56.7766 23.939C56.2826 24.2303 55.7441 24.4457 55.1615 24.585C54.5788 24.7243 53.9518 24.794 53.2805 24.794H48.4355ZM50.8295 13.318V16.814H52.9576C53.7556 16.814 54.3635 16.6557 54.7815 16.339C55.1995 16.0223 55.4086 15.5727 55.4086 14.99C55.4086 14.3947 55.1932 13.9703 54.7626 13.717C54.3319 13.451 53.6606 13.318 52.7486 13.318H50.8295ZM50.8295 18.866V22.78H52.9765C54.9778 22.78 55.9785 22.1087 55.9785 20.766C55.9785 20.082 55.7441 19.5943 55.2755 19.303C54.8068 19.0117 54.0721 18.866 53.0715 18.866H50.8295ZM65.3732 15.674H67.5583V16.947H67.6152C67.8812 16.529 68.2802 16.168 68.8122 15.864C69.3569 15.56 70.0092 15.408 70.7692 15.408C72.0612 15.408 73.1189 15.864 73.9422 16.776C74.7782 17.688 75.1963 18.828 75.1963 20.196C75.1963 21.564 74.7846 22.7167 73.9613 23.654C73.1506 24.5913 72.0675 25.06 70.7122 25.06C70.0789 25.06 69.49 24.927 68.9453 24.661C68.4006 24.395 67.9825 24.034 67.6912 23.578H67.6533V29.354H65.3732V15.674ZM72.1752 22.267C72.6439 21.6717 72.8783 20.9813 72.8783 20.196C72.8783 19.4107 72.6439 18.7267 72.1752 18.144C71.7192 17.5613 71.0795 17.27 70.2562 17.27C69.4582 17.27 68.8122 17.574 68.3182 18.182C67.8242 18.79 67.5772 19.474 67.5772 20.234C67.5772 20.994 67.8242 21.6717 68.3182 22.267C68.8122 22.8623 69.4582 23.16 70.2562 23.16C71.0795 23.16 71.7192 22.8623 72.1752 22.267ZM79.1447 19.322H83.8187C83.8187 18.6887 83.635 18.163 83.2677 17.745C82.9003 17.327 82.3683 17.118 81.6717 17.118C81.0003 17.118 80.424 17.327 79.9427 17.745C79.4613 18.163 79.1953 18.6887 79.1447 19.322ZM86.0987 20.348C86.0987 20.614 86.0924 20.8167 86.0798 20.956H79.1447C79.1953 21.5893 79.4741 22.1213 79.9808 22.552C80.4874 22.9827 81.0763 23.198 81.7477 23.198C82.799 23.198 83.6034 22.8053 84.1608 22.02L85.6807 23.236C84.7813 24.452 83.4767 25.06 81.7667 25.06C80.3353 25.06 79.1573 24.6293 78.2327 23.768C77.3207 22.9067 76.8647 21.7477 76.8647 20.291C76.8647 18.8343 77.3207 17.6563 78.2327 16.757C79.1447 15.8577 80.2974 15.408 81.6908 15.408C83.0081 15.408 84.0721 15.8323 84.8828 16.681C85.6934 17.5297 86.0987 18.752 86.0987 20.348ZM90.0548 19.322H94.7288C94.7288 18.6887 94.5447 18.163 94.1777 17.745C93.8107 17.327 93.2785 17.118 92.5818 17.118C91.9105 17.118 91.3342 17.327 90.8529 17.745C90.3716 18.163 90.1055 18.6887 90.0548 19.322ZM97.0088 20.348C97.0088 20.614 97.0027 20.8167 96.9897 20.956H90.0548C90.1055 21.5893 90.3841 22.1213 90.8908 22.552C91.3975 22.9827 91.9866 23.198 92.6579 23.198C93.7088 23.198 94.5137 22.8053 95.0707 22.02L96.5908 23.236C95.6918 24.452 94.3867 25.06 92.6768 25.06C91.2455 25.06 90.0675 24.6293 89.1428 23.768C88.2308 22.9067 87.7748 21.7477 87.7748 20.291C87.7748 18.8343 88.2308 17.6563 89.1428 16.757C90.0548 15.8577 91.2075 15.408 92.6008 15.408C93.9177 15.408 94.9817 15.8323 95.7927 16.681C96.6037 17.5297 97.0088 18.752 97.0088 20.348ZM107.007 16.833L105.449 18.201C105.272 17.9477 105.006 17.7387 104.651 17.574C104.297 17.3967 103.936 17.308 103.568 17.308C102.783 17.308 102.169 17.6057 101.725 18.201C101.282 18.7837 101.06 19.4613 101.06 20.234C101.06 21.0193 101.288 21.7033 101.744 22.286C102.2 22.8687 102.834 23.16 103.644 23.16C104.48 23.16 105.12 22.8877 105.563 22.343L106.988 23.787C106.203 24.6357 105.082 25.06 103.625 25.06C102.232 25.06 101.06 24.623 100.11 23.749C99.1597 22.875 98.6847 21.7033 98.6847 20.234C98.6847 18.79 99.1538 17.6247 100.091 16.738C101.029 15.8513 102.188 15.408 103.568 15.408C104.24 15.408 104.892 15.5347 105.525 15.788C106.159 16.0413 106.653 16.3897 107.007 16.833ZM110.767 24.794V17.498H107.841V15.674H115.954V17.498H113.047V24.794H110.767ZM117.698 15.674H119.883V16.947H119.94C120.206 16.529 120.605 16.168 121.137 15.864C121.681 15.56 122.334 15.408 123.094 15.408C124.386 15.408 125.443 15.864 126.267 16.776C127.103 17.688 127.521 18.828 127.521 20.196C127.521 21.564 127.109 22.7167 126.286 23.654C125.475 24.5913 124.392 25.06 123.037 25.06C122.403 25.06 121.814 24.927 121.27 24.661C120.725 24.395 120.307 24.034 120.016 23.578H119.978V29.354H117.698V15.674ZM124.5 22.267C124.968 21.6717 125.203 20.9813 125.203 20.196C125.203 19.4107 124.968 18.7267 124.5 18.144C124.044 17.5613 123.404 17.27 122.581 17.27C121.783 17.27 121.137 17.574 120.643 18.182C120.149 18.79 119.902 19.474 119.902 20.234C119.902 20.994 120.149 21.6717 120.643 22.267C121.137 22.8623 121.783 23.16 122.581 23.16C123.404 23.16 124.044 22.8623 124.5 22.267ZM131.469 19.322H136.143C136.143 18.6887 135.96 18.163 135.592 17.745C135.225 17.327 134.693 17.118 133.996 17.118C133.325 17.118 132.749 17.327 132.267 17.745C131.786 18.163 131.52 18.6887 131.469 19.322ZM138.423 20.348C138.423 20.614 138.417 20.8167 138.404 20.956H131.469C131.52 21.5893 131.799 22.1213 132.305 22.552C132.812 22.9827 133.401 23.198 134.072 23.198C135.124 23.198 135.928 22.8053 136.485 22.02L138.005 23.236C137.106 24.452 135.801 25.06 134.091 25.06C132.66 25.06 131.482 24.6293 130.557 23.768C129.645 22.9067 129.189 21.7477 129.189 20.291C129.189 18.8343 129.645 17.6563 130.557 16.757C131.469 15.8577 132.622 15.408 134.015 15.408C135.333 15.408 136.397 15.8323 137.207 16.681C138.018 17.5297 138.423 18.752 138.423 20.348ZM145.495 24.794V11.342H156.458V24.794H154.064V13.432H147.889V24.794H145.495ZM158.784 18.03C158.784 15.902 159.455 14.1983 160.798 12.919C162.153 11.6397 163.882 11 165.985 11C168.113 11 169.855 11.6397 171.21 12.919C172.565 14.1983 173.243 15.902 173.243 18.03C173.243 20.12 172.559 21.83 171.191 23.16C169.836 24.4773 168.1 25.136 165.985 25.136C163.895 25.136 162.172 24.4773 160.817 23.16C159.462 21.83 158.784 20.12 158.784 18.03ZM161.387 18.03C161.387 19.474 161.818 20.6647 162.679 21.602C163.54 22.5267 164.649 22.989 166.004 22.989C167.372 22.989 168.487 22.5267 169.348 21.602C170.209 20.6647 170.64 19.474 170.64 18.03C170.64 16.624 170.209 15.4523 169.348 14.515C168.499 13.5777 167.385 13.109 166.004 13.109C164.636 13.109 163.521 13.5777 162.66 14.515C161.811 15.4523 161.387 16.624 161.387 18.03Z" fill="#464343" stroke="#464343" stroke-width="2" mask="url(#path-1-inside-1_178_641)"/>
<mask id="mask0_178_641" style="mask-type:luminance" maskUnits="userSpaceOnUse" x="0" y="0" width="39" height="39">
<path d="M38.042 0H0V38.042H38.042V0Z" fill="white"/>
</mask>
<g mask="url(#mask0_178_641)">
<path d="M25.0651 12.3487C24.4928 11.847 23.6697 11.8584 23.1975 12.0042C23.5069 11.6243 24.2273 11.3128 24.4397 11.2751C24.6013 11.3357 25.0651 11.8122 25.0651 12.3487ZM26.8922 10.2711C26.5159 8.25791 21.8372 9.5918 19.481 8.73669C19.4358 9.3236 20.2064 10.2639 20.9434 10.612C19.6835 11.7053 18.5524 13.9083 18.3242 16.5996C18.0967 13.9083 16.9656 11.7053 15.7057 10.612C16.4427 10.2639 17.2138 9.3236 17.1682 8.73669C14.812 9.5918 10.1332 8.25791 9.75624 10.2711C9.67694 10.6971 9.88194 11.3465 10.1033 11.5331C10.1429 11.3981 10.3498 10.9564 11.002 10.8574C14.2983 10.3593 17.0504 15.4397 14.5663 17.4937C14.5283 17.5249 14.5495 17.5826 14.6009 17.5826H22.0487C22.0994 17.5826 22.1208 17.5249 22.0836 17.4937C19.5987 15.4397 22.3508 10.3593 25.647 10.8574C26.2998 10.9564 26.506 11.3981 26.5457 11.5331C26.7672 11.3465 26.9721 10.6973 26.8922 10.2711ZM27.6939 5.65046C27.6348 5.46027 29.5675 5.4555 29.5675 6.6652C29.5675 7.47597 28.4114 7.85998 28.4114 8.70132C28.4114 9.0932 28.833 9.3806 28.9623 9.3806C28.6646 8.02981 29.8959 8.73669 30.2283 8.98933C29.5676 7.17282 31.055 7.18429 30.9086 6.35137C30.8066 5.76927 29.514 5.94513 29.0459 5.65046C28.2157 5.12781 27.2335 3.0941 26.5861 5.12781C27.7928 6.24822 27.0907 7.89718 25.5587 7.89718C25.5587 7.89718 25.5501 8.13899 25.5642 8.1582C27.3915 8.06875 28.0282 6.72586 27.6939 5.65046ZM6.37632 8.98933C6.7089 8.73669 7.93997 8.02981 7.64295 9.3806C7.77162 9.3806 8.19318 9.0932 8.19318 8.70132C8.19318 7.85998 7.03705 7.47597 7.03705 6.6652C7.03705 5.45545 8.96984 5.46027 8.91061 5.65046C8.57689 6.72581 9.21393 8.0688 11.041 8.1582C11.0544 8.13899 11.0459 7.89718 11.0459 7.89718C9.51464 7.89718 8.81239 6.2481 10.0186 5.12781C9.37121 3.0941 8.38899 5.12781 7.55872 5.65046C7.09082 5.94519 5.79799 5.76927 5.6961 6.35137C5.55023 7.18429 7.03703 7.17288 6.37632 8.98933ZM11.5645 12.3486C12.1373 11.8469 12.9604 11.8584 13.432 12.0041C13.1238 11.6243 12.4022 11.3128 12.1904 11.275C12.0288 11.3356 11.5645 11.8122 11.5645 12.3486ZM19.1936 1.08676L18.3022 0L17.411 1.08676L18.3024 2.23051L19.1936 1.08676ZM24.2818 4.37288L23.6479 3.60052L23.0146 4.37288L23.6479 5.12776L24.2818 4.37288ZM29.4229 26.6972L28.6195 25.8468L27.816 26.6972L28.6195 27.4431L29.4229 26.6972ZM13.5906 4.37276L12.9566 3.60041L12.3234 4.37276L12.9566 5.12769L13.5906 4.37276ZM11.7749 8.15809H14.139C16.1266 8.15809 17.0211 6.93813 17.2913 5.88016H19.3138C19.5841 6.93818 20.4777 8.15814 22.4662 8.15814H24.8302C24.8302 8.15814 25.2437 7.59707 25.3475 7.31926C25.7209 6.3195 25.2437 5.85322 24.5477 5.85322L23.6478 6.66875L22.7479 5.85322C22.0518 5.85322 21.5747 6.3195 21.9482 7.31926C21.9957 7.44714 22.1098 7.63486 22.2178 7.79989C21.3788 7.68463 20.3082 7.11044 20.0732 5.88016C20.0732 5.88016 20.693 4.89547 20.8488 4.49702C21.4076 3.06411 20.6938 2.47832 19.6499 2.47832L18.3022 4.06262L16.9547 2.47832C15.9108 2.47832 15.197 3.06406 15.7563 4.49702C15.9114 4.89553 16.5319 5.88021 16.5319 5.88021C16.2964 7.11049 15.2256 7.68469 14.3868 7.79994C14.4954 7.63492 14.6089 7.44714 14.6564 7.31933C15.0291 6.31956 14.5533 5.85327 13.8565 5.85327L12.9567 6.66881L12.0569 5.85327C11.3602 5.85327 10.8843 6.31956 11.2571 7.31933C11.3608 7.59714 11.7749 8.15809 11.7749 8.15809ZM36.2168 15.4864C35.7604 15.7174 33.0834 16.9715 29.6541 16.5077C29.6896 16.3441 29.7198 16.1794 29.7444 16.0138C32.0268 15.7408 33.8821 15.3537 35.0644 14.696C36.4121 13.9459 37.0014 12.1553 36.3211 10.8231C36.3036 10.7895 36.2547 10.7835 36.2303 10.8116C35.8576 11.2408 33.5136 13.7906 29.8207 14.5831C29.8113 14.3919 29.7938 14.2012 29.7682 14.0114C31.5619 12.9941 33.3128 11.8221 34.1468 10.7505C35.4074 9.1302 35.2914 7.06353 34.092 6.00975C34.0795 5.99907 34.0631 5.99426 34.0468 5.99657C34.0305 5.99888 34.0161 6.00806 34.0071 6.02179C33.6277 6.64765 30.0758 12.3886 26.1762 14.8669C26.1285 14.8974 26.0805 14.9273 26.0322 14.9565C25.9205 15.0243 25.9083 15.1695 26.0036 15.2558C26.4531 15.6633 26.7326 16.2304 26.7326 16.8599C26.7326 17.9544 25.8888 18.8648 24.7735 19.0622C24.2067 19.172 23.3886 19.1402 22.6027 18.8804C22.5674 18.8689 22.5308 18.8923 22.5308 18.9278V22.3945C22.5308 22.4502 22.6157 22.464 22.6357 22.4105C23.1134 21.1451 24.5434 20.8762 25.1688 20.8762C25.3939 22.2288 25.796 23.3491 26.3182 23.9522C27.1685 24.9322 28.5572 24.9184 29.1594 24.2408C29.1693 24.2297 29.1736 24.2145 29.1709 24.1998C29.1683 24.1851 29.159 24.1722 29.1458 24.1651C28.792 23.9619 26.7678 22.719 26.3627 20.6824C26.5226 20.6271 26.6787 20.5647 26.8282 20.4909C27.4816 21.5723 28.4327 22.5354 29.1983 22.9033C30.4845 23.5202 31.6619 23.2202 32.1841 22.3171C32.203 22.2852 32.1799 22.2455 32.1414 22.242C31.3459 22.1783 28.9043 21.4786 27.8647 19.7738C27.9838 19.6645 28.1002 19.5505 28.2089 19.4293C29.2966 20.2575 30.8348 20.9895 31.936 21.139C33.2243 21.3142 34.6844 20.9032 34.7197 19.4047C34.7204 19.3746 34.6935 19.35 34.6618 19.3519C34.2035 19.3795 31.1708 19.5116 29.0099 18.2712C29.085 18.1284 29.155 17.9832 29.2198 17.8355C29.2198 17.8355 32.485 18.6073 34.0321 18.3516C35.5696 18.0977 36.4701 16.9516 36.2962 15.5258C36.2913 15.4903 36.2498 15.4696 36.2168 15.4864ZM7.38475 17.8357C7.44974 17.9833 7.51992 18.1286 7.59518 18.2713C5.43492 19.5111 2.40338 19.3802 1.9434 19.3522C1.91107 19.3503 1.88424 19.376 1.88481 19.4055C1.92093 20.9033 3.38022 21.3143 4.66864 21.1392C5.76932 20.9898 7.30798 20.2576 8.39571 19.4296C8.50494 19.5508 8.62088 19.6648 8.73975 19.774C7.69961 21.4786 5.25866 22.1785 4.46308 22.2421C4.42465 22.2457 4.40207 22.2852 4.42042 22.3171C4.94266 23.2202 6.12013 23.5202 7.40683 22.9033C8.1719 22.5354 9.123 21.5723 9.77643 20.491C9.92643 20.5647 10.0826 20.6272 10.2418 20.6824C9.83674 22.7192 7.81251 23.9619 7.4586 24.1653C7.44554 24.1725 7.43644 24.1852 7.43382 24.1999C7.43122 24.2146 7.4354 24.2297 7.44519 24.241C8.04736 24.9185 9.43663 24.9322 10.2869 23.9522C10.8093 23.3491 11.2106 22.2288 11.4357 20.8763C12.0617 20.8763 13.4911 21.1451 13.9687 22.4106C13.9895 22.4642 14.0742 22.4502 14.0742 22.3945V18.9278C14.0742 18.8924 14.0371 18.8689 14.0017 18.8804C13.216 19.1402 12.3979 19.172 11.8317 19.0622C10.7159 18.8648 9.87214 17.9544 9.87214 16.8599C9.87214 16.2304 10.1521 15.6626 10.6011 15.2552C10.6969 15.1694 10.6841 15.0242 10.573 14.9563C10.5243 14.9272 10.4759 14.8974 10.4278 14.8669C6.53063 12.3899 2.9805 6.65303 2.59799 6.02288C2.58023 5.99346 2.53756 5.9875 2.5113 6.01027C1.31371 7.06462 1.1972 9.1307 2.45763 10.7503C3.29164 11.822 5.04249 12.994 6.83561 14.0112C6.81032 14.2011 6.79302 14.3918 6.78377 14.583C3.09398 13.791 0.751845 11.2453 0.375412 10.8133C0.350412 10.7839 0.300297 10.7899 0.283268 10.8235C-0.395631 12.1563 0.193646 13.9458 1.54015 14.6959C2.72248 15.3536 4.57776 15.7406 6.8601 16.0136C6.88475 16.1792 6.91485 16.344 6.95035 16.5076C3.52472 16.9708 0.848865 15.7197 0.388886 15.4868C0.354712 15.4694 0.313198 15.4909 0.308955 15.527C0.135791 16.9528 1.03555 18.0977 2.573 18.3516C4.11956 18.6073 7.38475 17.8357 7.38475 17.8357ZM28.6195 28.5382L27.4298 27.6021C26.9551 27.8848 26.6062 28.3337 26.4707 28.8599C25.755 28.9601 23.804 28.5269 23.9936 28.2394C26.132 25.2318 24.4963 23.4412 22.5307 23.5407V25.5608C22.5307 26.2094 21.9645 26.735 21.2672 26.735H19.9099C18.9361 26.735 18.3022 27.7138 18.3022 27.7138C18.3022 27.7138 17.6684 26.735 16.6947 26.735H15.3372C14.6394 26.735 14.0745 26.2094 14.0745 25.5608V23.5409C12.1087 23.4413 10.4718 25.232 12.6109 28.2396C12.7988 28.524 10.7934 28.9795 9.85274 28.8642C9.60504 28.6073 9.24743 28.4454 8.84721 28.4454C8.67707 28.4454 8.50829 28.4757 8.34875 28.5348C8.34875 28.5348 4.6523 25.035 4.58458 25.0008L4.61508 24.93C4.82551 24.5364 4.50344 24.1073 4.29971 24.1374C4.53636 23.8536 4.54743 22.6107 3.23446 22.3233C3.27288 22.573 3.29237 23.0825 3.29237 23.0825C3.29237 23.0825 2.27907 22.5345 1.77025 23.0073C1.32312 23.5367 1.94358 24.4967 1.94358 24.4967C1.94358 24.4967 1.42501 24.5094 1.16939 24.4877C1.54525 25.7587 2.80568 25.6687 3.07839 25.418C3.06061 25.6201 3.51646 25.9082 3.90258 25.6771L4.07219 25.5949C4.10212 25.6351 7.70223 29.0364 7.70223 29.0364C7.53687 29.2819 7.4582 29.5831 7.51244 29.9041C7.59789 30.4059 8.0159 30.8217 8.54973 30.9296C8.92668 31.0053 9.28115 30.932 9.56544 30.7659L10.5184 31.6504C10.6032 31.7272 10.7179 31.7752 10.846 31.7663C11.079 31.7506 11.2535 31.5615 11.2359 31.3451C11.2285 31.2472 11.1785 31.1632 11.1095 31.0996C11.0943 31.0827 10.1389 30.1958 10.1389 30.1958C10.927 29.6431 12.3956 29.2538 13.6144 29.2538C13.8286 29.2538 13.9293 29.0726 13.8555 28.8948C13.3033 27.5667 14.4906 26.6049 15.7187 27.3881C16.2544 27.7294 16.7986 28.4021 17.2085 29.5242C15.1934 30.0123 12.6634 31.3563 12.1516 32.8236C11.9545 33.3901 12.6055 34.1623 13.3961 34.3179C13.4102 34.3209 13.4247 34.3183 13.4368 34.3106C13.4488 34.3027 13.4572 34.2905 13.4601 34.2764C13.8733 32.0861 16.2287 30.4537 17.4544 30.1765C17.516 30.3415 17.4959 30.2881 17.5575 30.4526C16.2227 31.0838 14.928 32.4154 14.5584 33.9985C14.3887 34.7234 15.1971 35.3769 15.8645 35.5558C15.8981 35.5647 15.9311 35.5413 15.9328 35.5089C16.0598 33.507 16.9437 31.807 17.7357 31.0335C17.7573 31.1846 17.7736 31.3366 17.7845 31.489C17.7845 31.489 16.9737 33.7483 16.9737 35.3968C16.9737 36.1636 18.1133 36.699 18.2817 36.7739C18.4922 36.699 19.6312 36.1636 19.6312 35.3968C19.6312 33.7482 18.8205 31.489 18.8205 31.489C18.8315 31.3366 18.848 31.1846 18.8698 31.0335C19.6611 31.807 20.5457 33.5065 20.672 35.5082C20.6739 35.5407 20.7074 35.5647 20.7403 35.5557C21.4084 35.377 22.2162 34.7234 22.0472 33.9986C21.6768 32.4156 20.3829 31.084 19.0479 30.4527C19.109 30.2882 19.0888 30.3416 19.1504 30.1765C20.3768 30.4539 22.7317 32.086 23.1447 34.2763C23.1476 34.2904 23.1561 34.3026 23.1682 34.3104C23.1802 34.3182 23.1948 34.3208 23.2088 34.3178C23.9988 34.1624 24.6511 33.3901 24.4527 32.8236C23.9421 31.3563 21.4114 30.0123 19.3963 29.5244C19.8069 28.4023 20.351 27.7295 20.8867 27.3881C22.1143 26.605 23.3014 27.567 22.7493 28.8949C22.6755 29.0726 22.7756 29.2538 22.9904 29.2538C24.369 29.2538 26.0675 29.7519 26.7398 30.4197C27.1693 31.0642 27.963 31.4764 28.8586 31.3882C29.8762 31.2886 30.7061 30.5241 30.8207 29.579C30.9207 28.7508 30.4925 28.0074 29.8098 27.6022L28.6195 28.5382ZM19.8505 22.5055C20.2746 22.3484 20.939 22.4756 20.9165 23.0877C20.911 23.2261 21.1057 23.2261 21.1196 23.0846C21.2465 22.1683 20.6272 21.9042 19.9794 22.0116C19.8988 21.6966 19.833 21.4212 19.758 21.1482C19.6982 20.9274 19.6762 20.5126 19.9318 20.5126C20.0698 20.5126 20.0142 20.8985 20.0014 21.0647C19.9898 21.2104 20.0423 21.2987 20.1607 21.3029C20.2345 21.3059 20.3267 21.2117 20.3816 21.1493C20.7525 20.7298 20.8386 20.0806 20.4042 19.7674C20.0406 19.5045 19.1303 19.7002 18.8801 20.0745C18.8423 19.9335 18.6617 19.7007 18.575 19.5992C18.4909 19.5003 18.469 19.4325 18.5855 19.3455C18.6404 19.3034 18.8063 19.1385 18.8063 18.968C18.8063 18.8672 18.7282 18.6811 18.48 18.6811C18.2841 18.6811 18.0664 18.8168 18.0664 19.1193C18.0664 19.1865 18.0827 19.2585 18.1261 19.336C18.0022 19.3154 17.666 19.3239 17.4935 19.3665L19.8807 25.9176C20.5641 25.5804 21.0648 25.0463 21.0648 24.4733C21.0648 23.9847 20.3455 24.1468 19.996 24.5278C19.8836 23.9086 19.7836 23.3367 19.6744 22.7666C19.6446 22.6094 19.7242 22.5529 19.8505 22.5055ZM16.4751 18.0554L16.9765 19.4487C16.5471 19.5508 15.8564 19.864 15.8564 20.2786C15.8564 20.8308 16.8332 21.1901 17.3981 21.1469C17.3701 21.2729 17.4024 21.3852 17.4903 21.4877C17.2852 21.4877 16.8985 21.5832 16.7715 21.7201C16.472 21.441 16.0035 21.3395 15.7808 21.5094C15.5569 21.6805 15.5503 21.9702 15.7839 22.2979C15.9467 22.5248 16.0078 22.7486 15.8247 23.0115C16.5056 23.0115 16.2548 22.1263 16.5214 22.1263C16.4866 22.2979 16.508 22.4965 16.5855 22.7168C16.6368 22.8632 16.6368 22.9671 16.5489 23.108C16.3294 23.4591 15.9878 24.2656 16.034 24.9947C15.8107 24.9934 15.6972 24.9388 15.776 24.6341C15.8053 24.5206 15.7352 24.4396 15.6425 24.5794C15.5399 24.7336 15.4904 24.9971 15.4904 25.1098C15.4904 25.7592 16.2639 25.89 16.5593 25.7526C17.4134 26.5792 19.0912 26.3586 19.6531 26.0814L16.699 17.976C16.6387 17.823 16.4219 17.8963 16.4751 18.0554ZM16.3725 24.7318C16.3115 24.3982 16.7757 23.8017 17.3664 23.2263C17.2407 23.6012 17.3187 24.2476 17.5652 24.4702C17.1369 24.4702 16.628 24.5506 16.3725 24.7318Z" fill="#464343"/>
</g>
</svg>
