<svg width="81" height="72" viewBox="0 0 81 72" fill="none" xmlns="http://www.w3.org/2000/svg">
<path fill-rule="evenodd" clip-rule="evenodd" d="M3.237 45.0806V15.3167H62.6219V25.7658C62.6219 26.6619 63.3465 27.3882 64.2404 27.3882C65.1343 27.3882 65.8589 26.6619 65.8589 25.7658V6.45109C65.8589 2.88825 62.9776 0 59.4233 0H6.43557C2.8813 0 0 2.88825 0 6.45109V45.0806C0 48.6434 2.8813 51.5316 6.43557 51.5316H32.9295C33.8233 51.5316 34.548 50.8053 34.548 49.9092C34.548 49.0132 33.8233 48.2868 32.9295 48.2868H6.43557C4.66905 48.2868 3.237 46.8513 3.237 45.0806ZM6.43557 3.2448C4.66905 3.2448 3.237 4.68031 3.237 6.45109V12.0719H62.6219V6.45109C62.6219 4.68031 61.1899 3.2448 59.4233 3.2448H6.43557Z" fill="#9683D7"/>
<path d="M40.5695 35.7818V22.5594C40.5695 21.6634 39.8448 20.937 38.951 20.937C38.0571 20.937 37.3325 21.6634 37.3325 22.5594V35.7818C37.3325 36.6779 38.0571 37.4042 38.951 37.4042C39.8448 37.4042 40.5695 36.6779 40.5695 35.7818Z" fill="#9683D7"/>
<path d="M28.5266 27.3881V41.0437C28.5266 41.9397 27.802 42.6661 26.9081 42.6661C26.0142 42.6661 25.2896 41.9397 25.2896 41.0437V27.3881C25.2896 26.492 26.0142 25.7657 26.9081 25.7657C27.802 25.7657 28.5266 26.492 28.5266 27.3881Z" fill="#9683D7"/>
<path d="M16.4843 32.2173V41.0442C16.4843 41.9402 15.7596 42.6666 14.8658 42.6666C13.9719 42.6666 13.2473 41.9402 13.2473 41.0442V32.2173C13.2473 31.3212 13.9719 30.5949 14.8658 30.5949C15.7596 30.5949 16.4843 31.3212 16.4843 32.2173Z" fill="#9683D7"/>
<path d="M52.6118 25.9578V28.7806C52.6118 29.6766 51.8872 30.403 50.9933 30.403C50.0994 30.403 49.3748 29.6766 49.3748 28.7806V25.9578C49.3748 25.0618 50.0994 24.3354 50.9933 24.3354C51.8872 24.3354 52.6118 25.0618 52.6118 25.9578Z" fill="#9683D7"/>
<path fill-rule="evenodd" clip-rule="evenodd" d="M54.0524 33.8006C46.8134 33.8006 40.9451 39.683 40.9451 46.9394C40.9451 54.1958 46.8134 60.0783 54.0524 60.0783C57.343 60.0783 60.3504 58.8628 62.6521 56.8552L66.1402 60.3518L65.4474 61.0462C64.8154 61.6798 64.8154 62.707 65.4474 63.3406L73.5712 71.484C74.2033 72.1176 75.2281 72.1176 75.8601 71.484L79.8525 67.482C80.4846 66.8484 80.4846 65.8212 79.8525 65.1876L71.7287 57.0442C71.0966 56.4106 70.0719 56.4106 69.4398 57.0442L68.4291 58.0574L64.8175 54.4369C66.294 52.3107 67.1596 49.7264 67.1596 46.9394C67.1596 39.683 61.2913 33.8006 54.0524 33.8006ZM44.1821 46.9394C44.1821 41.4751 48.6012 37.0454 54.0524 37.0454C59.5036 37.0454 63.9226 41.4751 63.9226 46.9394C63.9226 52.4038 59.5036 56.8335 54.0524 56.8335C48.6012 56.8335 44.1821 52.4038 44.1821 46.9394ZM74.7157 68.0424L68.8808 62.1934L70.5843 60.4859L76.4191 66.3348L74.7157 68.0424Z" fill="#9683D7"/>
</svg>
