<svg width="81" height="74" viewBox="0 0 81 74" fill="none" xmlns="http://www.w3.org/2000/svg">
<path fill-rule="evenodd" clip-rule="evenodd" d="M52.249 21.0446L59.7376 14.3672C59.3873 13.6134 59.1917 12.7728 59.1917 11.8863C59.1917 8.63939 61.8156 6.00726 65.0524 6.00726C68.2892 6.00726 70.9131 8.63939 70.9131 11.8863C70.9131 15.1332 68.2892 17.7653 65.0524 17.7653C63.9657 17.7653 62.9481 17.4686 62.0757 16.9516L54.165 24.0054C54.303 24.5056 54.3767 25.0327 54.3767 25.577C54.3767 28.8239 51.7528 31.456 48.516 31.456C45.2792 31.456 42.6553 28.8239 42.6553 25.577C42.6553 25.3221 42.6714 25.071 42.7028 24.8246L36.2676 21.7739C35.1977 22.9253 33.6725 23.6453 31.9796 23.6453C30.0997 23.6453 28.4266 22.7575 27.3541 21.3771L21.1498 24.9057C20.8749 23.7274 20.2467 22.6855 19.3835 21.8985L26.1262 18.0637C26.1213 17.9652 26.1189 17.866 26.1189 17.7663C26.1189 14.5194 28.7428 11.8873 31.9796 11.8873C35.2163 11.8873 37.8403 14.5194 37.8403 17.7663C37.8403 18.0596 37.8188 18.348 37.7775 18.6298L44.1526 21.652C45.2256 20.4525 46.7829 19.698 48.516 19.698C49.9344 19.698 51.2352 20.2034 52.249 21.0446ZM34.3613 17.7663C34.3613 19.0858 33.295 20.1555 31.9796 20.1555C30.6642 20.1555 29.5978 19.0858 29.5978 17.7663C29.5978 16.4468 30.6642 15.3771 31.9796 15.3771C33.295 15.3771 34.3613 16.4468 34.3613 17.7663ZM48.516 27.9662C49.8314 27.9662 50.8977 26.8965 50.8977 25.577C50.8977 24.2575 49.8314 23.1878 48.516 23.1878C47.2006 23.1878 46.1342 24.2575 46.1342 25.577C46.1342 26.8965 47.2006 27.9662 48.516 27.9662ZM67.4341 11.8863C67.4341 13.2058 66.3678 14.2755 65.0524 14.2755C63.737 14.2755 62.6707 13.2058 62.6707 11.8863C62.6707 10.5668 63.737 9.4971 65.0524 9.4971C66.3678 9.4971 67.4341 10.5668 67.4341 11.8863Z" fill="#9683D7"/>
<path fill-rule="evenodd" clip-rule="evenodd" d="M15.4431 32.1297C18.6799 32.1297 21.3039 29.4975 21.3039 26.2507C21.3039 23.0038 18.6799 20.3716 15.4431 20.3716C12.2064 20.3716 9.58245 23.0038 9.58245 26.2507C9.58245 29.4975 12.2064 32.1297 15.4431 32.1297ZM15.4431 28.6398C16.7585 28.6398 17.8249 27.5702 17.8249 26.2507C17.8249 24.9311 16.7585 23.8615 15.4431 23.8615C14.1278 23.8615 13.0614 24.9311 13.0614 26.2507C13.0614 27.5702 14.1278 28.6398 15.4431 28.6398Z" fill="#9683D7"/>
<path d="M15.4157 37.4392C16.3763 37.4392 17.1551 38.2204 17.1551 39.1841V46.3665C17.1551 47.3302 16.3763 48.1114 15.4157 48.1114C14.455 48.1114 13.6762 47.3302 13.6762 46.3665V39.1841C13.6762 38.2204 14.455 37.4392 15.4157 37.4392Z" fill="#9683D7"/>
<path d="M50.2664 39.1841C50.2664 38.2204 49.4876 37.4392 48.5269 37.4392C47.5662 37.4392 46.7875 38.2204 46.7875 39.1841V46.3665C46.7875 47.3302 47.5662 48.1114 48.5269 48.1114C49.4876 48.1114 50.2664 47.3302 50.2664 46.3665V39.1841Z" fill="#9683D7"/>
<path d="M65.0806 23.1012C66.0413 23.1012 66.8201 23.8825 66.8201 24.8462V46.3665C66.8201 47.3302 66.0413 48.1114 65.0806 48.1114C64.1199 48.1114 63.3411 47.3302 63.3411 46.3665V24.8462C63.3411 23.8825 64.1199 23.1012 65.0806 23.1012Z" fill="#9683D7"/>
<path d="M33.7112 32.1297C33.7112 31.166 32.9324 30.3847 31.9717 30.3847C31.011 30.3847 30.2322 31.166 30.2322 32.1297V46.3669C30.2322 47.3306 31.011 48.1119 31.9717 48.1119C32.9324 48.1119 33.7112 47.3306 33.7112 46.3669V32.1297Z" fill="#9683D7"/>
<path fill-rule="evenodd" clip-rule="evenodd" d="M0 4.65312C0 2.08327 2.07678 0 4.63862 0H75.8596C78.4214 0 80.4982 2.08328 80.4982 4.65312V53.3377C80.4982 55.9075 78.4214 57.9908 75.8596 57.9908H41.9882V70.3001H56.1375C57.0982 70.3001 57.877 71.0814 57.877 72.0451C57.877 73.0087 57.0982 73.79 56.1375 73.79H40.26L40.2488 73.79L40.2375 73.79H24.359C23.3983 73.79 22.6195 73.0087 22.6195 72.0451C22.6195 71.0814 23.3983 70.3001 24.359 70.3001H38.5093V57.9908L4.63863 57.9908C2.07679 57.9908 0 55.9075 0 53.3377V4.65312ZM4.63862 3.48984H75.8596C76.5 3.48984 77.0192 4.01067 77.0192 4.65312V53.3377C77.0192 53.9801 76.5 54.5009 75.8596 54.5009H4.63863C3.99816 54.5009 3.47897 53.9801 3.47897 53.3377V4.65312C3.47897 4.01066 3.99816 3.48984 4.63862 3.48984Z" fill="#9683D7"/>
</svg>
