<svg width="81" height="81" viewBox="0 0 81 81" fill="none" xmlns="http://www.w3.org/2000/svg">
<g clip-path="url(#clip0_13_897)">
<path fill-rule="evenodd" clip-rule="evenodd" d="M4.65865 0C2.08629 0 0.000976562 2.08793 0.000976562 4.66353V19.5456C0.000976562 22.1212 2.08629 24.2091 4.65865 24.2091H14.1332V66.0613C14.1332 68.3149 15.9579 70.1419 18.2087 70.1419H40.0307V75.8347C40.0307 78.4103 42.116 80.4982 44.6884 80.4982H67.4563C70.0286 80.4982 72.1139 78.4103 72.1139 75.8347V60.9526C72.1139 58.377 70.0286 56.2891 67.4563 56.2891H44.6884C42.116 56.2891 40.0307 58.377 40.0307 60.9526V66.6442H18.2087C17.8871 66.6442 17.6265 66.3832 17.6265 66.0613V41.9979H40.0307V47.6901C40.0307 50.2657 42.116 52.3537 44.6884 52.3537H67.4563C70.0286 52.3537 72.1139 50.2657 72.1139 47.6901V32.8081C72.1139 30.2325 70.0286 28.1445 67.4563 28.1445H44.6884C42.116 28.1445 40.0307 30.2325 40.0307 32.8081V38.5003H17.6265V24.2091H27.4265C29.9989 24.2091 32.0842 22.1212 32.0842 19.5456V4.66353C32.0842 2.08793 29.9989 0 27.4265 0H4.65865ZM27.4265 3.49764H4.65865C4.01556 3.49764 3.49423 4.01963 3.49423 4.66353V19.5456C3.49423 20.1895 4.01556 20.7115 4.65865 20.7115H27.4265C28.0696 20.7115 28.5909 20.1895 28.5909 19.5456V4.66353C28.5909 4.01963 28.0696 3.49764 27.4265 3.49764ZM67.4563 31.6422H44.6884C44.0453 31.6422 43.524 32.1642 43.524 32.8081V47.6901C43.524 48.334 44.0453 48.856 44.6884 48.856H67.4563C68.0993 48.856 68.6207 48.334 68.6207 47.6901V32.8081C68.6207 32.1642 68.0993 31.6422 67.4563 31.6422ZM44.6884 59.7867H67.4563C68.0993 59.7867 68.6207 60.3087 68.6207 60.9526V75.8347C68.6207 76.4786 68.0993 77.0005 67.4563 77.0005H44.6884C44.0453 77.0005 43.524 76.4786 43.524 75.8347V60.9526C43.524 60.3087 44.0453 59.7867 44.6884 59.7867Z" fill="#9683D7"/>
</g>
<defs>
<clipPath id="clip0_13_897">
<rect width="80.4982" height="80.4982" fill="white"/>
</clipPath>
</defs>
</svg>
