<svg width="81" height="82" viewBox="0 0 81 82" fill="none" xmlns="http://www.w3.org/2000/svg">
<path fill-rule="evenodd" clip-rule="evenodd" d="M37.6602 13.8824C34.5697 13.119 32.2798 10.3475 32.2798 7.04546C32.2798 3.15436 35.4596 0 39.3821 0C43.3046 0 46.4845 3.15436 46.4845 7.04546C46.4845 10.3479 44.194 13.1196 41.1029 13.8827V19.5987C41.1029 19.6235 41.1024 19.6482 41.1013 19.6727C47.7913 20.3237 53.2308 25.2027 54.668 31.5802L64.1499 22.1743C64.2025 22.1221 64.2577 22.074 64.315 22.03C63.2956 20.5963 62.6968 18.8472 62.6968 16.9594C62.6968 12.0955 66.6716 8.15258 71.5747 8.15258C76.4778 8.15258 80.4526 12.0955 80.4526 16.9594C80.4526 21.8233 76.4778 25.7662 71.5747 25.7662C69.8054 25.7662 68.157 25.2528 66.7726 24.368C66.7171 24.4456 66.6543 24.5196 66.5842 24.5892L57.7495 33.3531C63.9812 34.0316 68.8295 39.2707 68.8295 45.6332C68.8295 50.6956 65.7601 55.0468 61.3667 56.9554L66.5842 62.1312C66.6544 62.2008 66.7173 62.275 66.7729 62.3528C68.1572 61.4681 69.8055 60.9547 71.5747 60.9547C76.4778 60.9547 80.4526 64.8977 80.4526 69.7616C80.4526 74.6254 76.4778 78.5684 71.5747 78.5684C66.6716 78.5684 62.6968 74.6254 62.6968 69.7616C62.6968 67.8736 63.2957 66.1243 64.3153 64.6906C64.2579 64.6465 64.2026 64.5983 64.1499 64.546L57.4971 57.9465L57.4894 57.9388C57.261 57.9589 57.0309 57.9729 56.7991 57.9806V57.9878H41.1029V62.4553C44.194 63.2184 46.4845 65.9902 46.4845 69.2926C46.4845 73.1837 43.3046 76.3381 39.3821 76.3381C35.4596 76.3381 32.2798 73.1837 32.2798 69.2926C32.2798 65.9905 34.5697 63.219 37.6602 62.4556V57.9878H26.0146C25.9312 58.2133 25.7982 58.4249 25.6157 58.6059L16.36 67.7875C17.2436 69.1564 17.7558 70.7838 17.7558 72.5299C17.7558 77.3938 13.7811 81.3367 8.87792 81.3367C3.97478 81.3367 0 77.3938 0 72.5299C0 67.666 3.97478 63.7231 8.87792 63.7231C10.7761 63.7231 12.5351 64.314 13.9782 65.3205L21.4046 57.9536C13.594 57.4329 7.42096 50.983 7.42096 43.1029C7.42096 35.3847 13.3428 29.0386 20.9252 28.2918L13.9779 21.4001C12.5348 22.4065 10.7759 22.9973 8.87792 22.9973C3.97478 22.9973 0 19.0543 0 14.1905C0 9.32659 3.97478 5.38364 8.87792 5.38364C13.7811 5.38364 17.7558 9.32659 17.7558 14.1905C17.7558 15.9367 17.2435 17.5643 16.3598 18.9333L25.6157 28.1151C25.6387 28.1378 25.6608 28.1611 25.6822 28.1848C27.9343 23.6381 32.3881 20.3585 37.6641 19.7144C37.6616 19.6762 37.6602 19.6376 37.6602 19.5987V13.8824ZM39.3821 10.6758C37.361 10.6758 35.7225 9.05044 35.7225 7.04546C35.7225 5.04048 37.361 3.41512 39.3821 3.41512C41.4033 3.41512 43.0418 5.04048 43.0418 7.04546C43.0418 9.05044 41.4033 10.6758 39.3821 10.6758ZM21.7713 54.5544L22.1029 54.5727H56.5235L56.6841 54.5673C61.5169 54.4071 65.3868 50.4678 65.3868 45.6332C65.3868 40.6961 61.3523 36.6939 56.3754 36.6939C56.0262 36.6939 55.6829 36.7134 55.3463 36.7512L51.8895 37.1394L51.5344 33.7064C50.9132 27.7008 45.7926 23.0138 39.5729 23.0138C34.7297 23.0138 30.5481 25.8542 28.642 29.962L27.4949 32.4342L24.8096 31.8768C24.0432 31.7177 23.2462 31.6334 22.4257 31.6334C16.0402 31.6334 10.8637 36.7685 10.8637 43.1029C10.8637 49.2193 15.6918 54.2195 21.7713 54.5544ZM8.87792 19.5822C5.87613 19.5822 3.44269 17.1682 3.44269 14.1905C3.44269 11.2127 5.87613 8.79876 8.87792 8.79876C11.8797 8.79876 14.3132 11.2127 14.3132 14.1905C14.3132 17.1682 11.8797 19.5822 8.87792 19.5822ZM66.1395 16.9594C66.1395 19.9372 68.5729 22.3511 71.5747 22.3511C74.5765 22.3511 77.0099 19.9372 77.0099 16.9594C77.0099 13.9817 74.5765 11.5677 71.5747 11.5677C68.5729 11.5677 66.1395 13.9817 66.1395 16.9594ZM39.3821 65.6622C37.361 65.6622 35.7225 67.2876 35.7225 69.2926C35.7225 71.2976 37.361 72.9229 39.3821 72.9229C41.4033 72.9229 43.0418 71.2976 43.0418 69.2926C43.0418 67.2876 41.4033 65.6622 39.3821 65.6622ZM8.87792 67.1382C5.87613 67.1382 3.44269 69.5521 3.44269 72.5299C3.44269 75.5076 5.87613 77.9216 8.87792 77.9216C11.8797 77.9216 14.3132 75.5076 14.3132 72.5299C14.3132 69.5521 11.8797 67.1382 8.87792 67.1382ZM66.1395 69.7616C66.1395 66.7838 68.5729 64.3698 71.5747 64.3698C74.5765 64.3698 77.0099 66.7838 77.0099 69.7616C77.0099 72.7393 74.5765 75.1533 71.5747 75.1533C68.5729 75.1533 66.1395 72.7393 66.1395 69.7616Z" fill="#9683D7"/>
</svg>
