<svg width="80" height="82" viewBox="0 0 80 82" fill="none" xmlns="http://www.w3.org/2000/svg">
<path fill-rule="evenodd" clip-rule="evenodd" d="M7.21676 13.4098C7.99449 5.87549 14.3647 0 22.1084 0C28.5137 0 33.9763 4.01909 36.1154 9.66976C36.7149 9.57926 37.3282 9.53241 37.9516 9.53241C44.6931 9.53241 50.1582 14.9945 50.1582 21.7324C50.1582 28.4702 44.6931 33.9323 37.9516 33.9323L37.8882 33.9322H10.6079L10.5336 33.9325C4.71606 33.9325 0 29.219 0 23.4046C0 18.7473 3.02441 14.7991 7.21676 13.4098ZM22.1084 3.32785C15.7533 3.32785 10.5873 8.4175 10.4688 14.7403L10.4436 16.0814L9.12705 16.3415C5.82167 16.9944 3.32968 19.9105 3.32968 23.4046C3.32968 27.3811 6.55499 30.6046 10.5336 30.6046L10.5943 30.6044L10.6079 30.6042L37.8981 30.6043L37.9516 30.6045C42.8542 30.6045 46.8285 26.6323 46.8285 21.7324C46.8285 16.8324 42.8542 12.8603 37.9516 12.8603C37.0831 12.8603 36.2465 12.9844 35.4571 13.2149L33.8093 13.696L33.3787 12.0351C32.08 7.02545 27.5241 3.32785 22.1084 3.32785Z" fill="#9683D7"/>
<path d="M37.3201 60.4771L23.7156 60.4771C23.4091 60.4771 23.1606 60.2288 23.1606 59.9225L23.1606 46.7867L25.7002 49.3245C26.3504 49.9742 27.4045 49.9742 28.0546 49.3243C28.7047 48.6745 28.7046 47.6209 28.0544 46.9711L22.5875 41.508C21.9373 40.8583 20.8833 40.8583 20.2332 41.5081L14.767 46.9712C14.1168 47.621 14.1168 48.6746 14.767 49.3244C15.4172 49.9742 16.4713 49.9742 17.1214 49.3244L19.831 46.6163L19.831 59.9225C19.831 62.0667 21.5702 63.805 23.7156 63.805L37.3201 63.805C38.2396 63.805 38.985 63.06 38.985 62.1411C38.985 61.2221 38.2396 60.4771 37.3201 60.4771Z" fill="#9683D7"/>
<path d="M68.4414 28.3833L68.4414 17.7725C68.4414 17.4662 68.1929 17.2179 67.8864 17.2179L59.3689 17.2179L61.9101 19.758C62.5602 20.4079 62.5602 21.4614 61.9099 22.1112C61.2597 22.7609 60.2056 22.7609 59.5555 22.111L54.0894 16.6471C53.4393 15.9973 53.4393 14.9438 54.0894 14.294L59.5556 8.83084C60.2058 8.18103 61.2599 8.18103 61.91 8.83084C62.5602 9.48064 62.5602 10.5342 61.91 11.184L59.2025 13.89L67.8864 13.89C70.0318 13.89 71.771 15.6283 71.771 17.7725L71.771 28.3833C71.771 29.3023 71.0257 30.0472 70.1062 30.0472C69.1867 30.0472 68.4414 29.3023 68.4414 28.3833Z" fill="#9683D7"/>
<path fill-rule="evenodd" clip-rule="evenodd" d="M41.9839 39.0332C41.9839 39.0327 41.9839 39.0338 41.9839 39.0332C41.9866 35.5085 50.3797 32.6497 60.7327 32.6497C71.0873 32.6497 79.4815 35.5077 79.4815 39.0332C79.4815 39.0456 79.4813 39.0579 79.4811 39.0703V51.0268C79.486 51.0788 79.4885 51.1315 79.4885 51.1847C79.4885 51.2646 79.486 51.3435 79.4811 51.4215V61.9698C79.4869 62.026 79.4898 62.0829 79.4898 62.1405C79.4898 62.227 79.4869 62.3124 79.4811 62.3967V74.7797C79.4793 78.3047 71.0859 81.1633 60.7324 81.1633C50.3788 81.1633 41.9854 78.3059 41.9836 74.7809L41.9839 39.0332ZM75.7802 39.0332C75.6785 38.9585 75.5641 38.881 75.4366 38.8016C74.8683 38.4473 74.0399 38.052 72.9164 37.6695C69.9532 36.6606 65.6456 35.9776 60.7327 35.9776C55.8198 35.9776 51.5121 36.6606 48.549 37.6695C47.1734 38.1379 46.2402 38.6252 45.6851 39.0332C46.2402 39.4412 47.1733 39.9286 48.549 40.397C51.5121 41.4059 55.8198 42.0889 60.7327 42.0889C65.6456 42.0889 69.9532 41.4059 72.9164 40.397C74.292 39.9286 75.2251 39.4412 75.7802 39.0332ZM76.1515 42.666V51.2539C76.1228 51.4009 75.9908 51.7131 75.4301 52.1644C74.7697 52.696 73.7122 53.2483 72.2577 53.7435C69.3653 54.7283 65.2625 55.367 60.6532 55.367C56.8527 55.367 53.3853 54.9326 50.6549 54.2221C49.7651 53.9905 48.856 54.5237 48.6243 55.413C48.3926 56.3023 48.9261 57.211 49.8159 57.4425C52.8641 58.2358 56.6188 58.6948 60.6532 58.6948C65.5269 58.6948 70.0093 58.0247 73.3314 56.8936C74.3625 56.5426 75.3174 56.1352 76.1515 55.6678V62.2167C76.1203 62.3674 75.9842 62.6773 75.4337 63.1219C74.7762 63.653 73.723 64.2049 72.274 64.6999C69.3925 65.6843 65.3045 66.3228 60.7114 66.3228C56.1182 66.3228 52.0439 65.6842 49.1764 64.7006C47.7345 64.206 46.6884 63.6547 46.0359 63.1248C45.3704 62.5842 45.314 62.2417 45.314 62.1405L45.3138 62.1172L45.3132 62.0895V42.6657C48.6978 44.3281 54.3418 45.4168 60.7327 45.4168C67.1231 45.4168 72.7668 44.3282 76.1515 42.666ZM76.1515 66.629C75.3224 67.0939 74.3743 67.4993 73.3509 67.8489C70.0386 68.9804 65.5698 69.6506 60.7114 69.6506C55.8529 69.6506 51.3961 68.9804 48.0954 67.8482C47.0789 67.4995 46.1371 67.0952 45.3132 66.6316V74.4658C45.3641 74.5176 45.4388 74.5869 45.546 74.6731C46.0781 75.1013 47.0515 75.6338 48.5496 76.1438C51.5127 77.1525 55.82 77.8354 60.7324 77.8354C65.6447 77.8354 69.952 77.1525 72.9151 76.1438C74.4132 75.6338 75.3866 75.1013 75.9187 74.6731C76.0259 74.5869 76.1006 74.5176 76.1515 74.4658V66.629ZM76.2339 74.3721C76.2415 74.3581 76.2466 74.3512 76.2473 74.3512C76.248 74.3513 76.2442 74.3583 76.2339 74.3721ZM76.2342 39.4408C76.2445 39.4547 76.2483 39.4617 76.2476 39.4617C76.247 39.4618 76.2418 39.4548 76.2342 39.4408Z" fill="#9683D7"/>
</svg>
