<svg width="81" height="65" viewBox="0 0 81 65" fill="none" xmlns="http://www.w3.org/2000/svg">
<path d="M23.0769 0C18.6312 0 15.0272 3.58866 15.0272 8.01549V18.7748C15.0272 19.6602 15.748 20.3779 16.6371 20.3779C17.5263 20.3779 18.2471 19.6602 18.2471 18.7748V8.01549C18.2471 5.35939 20.4095 3.2062 23.0769 3.2062H72.4485C75.1159 3.2062 77.2783 5.35939 77.2783 8.01549V42.2149C77.2783 44.871 75.1159 47.0242 72.4485 47.0242H68.4484C67.5593 47.0242 66.8385 47.7419 66.8385 48.6273C66.8385 48.6647 66.8398 48.7017 66.8423 48.7384L66.8422 55.8174L66.8564 60.7701L50.4481 47.6083C50.1528 47.2516 49.7057 47.0242 49.2052 47.0242H41.9145C41.0253 47.0242 40.3045 47.7419 40.3045 48.6273C40.3045 49.5127 41.0253 50.2304 41.9145 50.2304H48.5843L65.7129 63.97C67.4711 65.3803 70.0859 64.1298 70.0795 61.8817L70.0621 55.8128L70.0621 50.2304H72.4485C76.8942 50.2304 80.4982 46.6417 80.4982 42.2149V8.01549C80.4982 3.58866 76.8942 0 72.4485 0H23.0769Z" fill="#9683D7"/>
<path fill-rule="evenodd" clip-rule="evenodd" d="M6.84369 39.5696C6.84369 31.813 13.4342 25.6496 21.4061 25.6496C29.378 25.6496 35.9685 31.813 35.9685 39.5696C35.9685 47.3263 29.378 53.4897 21.4061 53.4897C19.5358 53.4897 17.744 53.152 16.0961 52.535L9.12449 59.3786C7.08957 61.3761 3.76397 61.4371 1.65657 59.5155C-0.498219 57.5507 -0.558956 54.2666 1.52173 52.2241L8.27495 45.5948C7.35863 43.7727 6.84369 41.7282 6.84369 39.5696ZM21.4061 28.8558C15.0711 28.8558 10.0636 33.7213 10.0636 39.5696C10.0636 41.5625 10.6383 43.4272 11.6441 45.0281L12.3288 46.1177L3.78223 54.5073C3.01393 55.2615 3.03545 56.4254 3.83112 57.151C4.67417 57.9197 6.04994 57.8944 6.86399 57.0953L15.3959 48.72L16.4099 49.1909C17.9137 49.8893 19.6081 50.2835 21.4061 50.2835C27.7411 50.2835 32.7486 45.418 32.7486 39.5696C32.7486 33.7213 27.7411 28.8558 21.4061 28.8558Z" fill="#9683D7"/>
<path d="M27.3701 12.8248C26.4809 12.8248 25.7601 13.5425 25.7601 14.4279C25.7601 15.3132 26.4809 16.031 27.3701 16.031H68.1553C69.0444 16.031 69.7652 15.3132 69.7652 14.4279C69.7652 13.5425 69.0444 12.8248 68.1553 12.8248H27.3701Z" fill="#9683D7"/>
<path d="M38.103 23.5121C37.2139 23.5121 36.4931 24.2298 36.4931 25.1152C36.4931 26.0006 37.2139 26.7183 38.103 26.7183H68.1553C69.0444 26.7183 69.7652 26.0006 69.7652 25.1152C69.7652 24.2298 69.0444 23.5121 68.1553 23.5121H38.103Z" fill="#9683D7"/>
<path d="M42.3962 34.1994C41.5071 34.1994 40.7863 34.9172 40.7863 35.8025C40.7863 36.6879 41.5071 37.4056 42.3962 37.4056H68.1553C69.0444 37.4056 69.7652 36.6879 69.7652 35.8025C69.7652 34.9172 69.0444 34.1994 68.1553 34.1994H42.3962Z" fill="#9683D7"/>
</svg>
