<svg width="81" height="79" viewBox="0 0 81 79" fill="none" xmlns="http://www.w3.org/2000/svg">
<path d="M72.1196 60.2513C72.1196 61.5632 71.0617 62.6267 69.7567 62.6267C68.4518 62.6267 67.3939 61.5632 67.3939 60.2513C67.3939 58.9394 68.4518 57.8759 69.7567 57.8759C71.0617 57.8759 72.1196 58.9394 72.1196 60.2513Z" fill="#9683D7"/>
<path fill-rule="evenodd" clip-rule="evenodd" d="M48.5209 3.56313C42.8833 3.56313 37.6415 4.27192 33.2192 5.48517C32.275 5.7442 31.3008 5.1847 31.0431 4.23548C30.7854 3.28625 31.342 2.30677 32.2862 2.04774C37.0417 0.74306 42.5998 0 48.5209 0C57.0443 0 64.8461 1.54047 70.5834 4.10458C73.4498 5.38564 75.8791 6.95719 77.6159 8.79227C79.3613 10.6365 80.476 12.829 80.476 15.271L80.476 15.2873C80.4829 15.351 80.4864 15.4158 80.4864 15.4814V38.368H80.4894C80.4894 38.4344 80.4884 38.5026 80.4864 38.5688V64.0713L80.4894 64.0713C80.4894 72.2212 65.7065 78.8298 47.471 78.8298C29.2354 78.8298 14.4526 72.223 14.4526 64.0732L14.4552 64.0713L14.4552 38.5568C14.4535 38.4946 14.4526 38.4323 14.4526 38.3699L14.4552 38.368V36.9205C14.4552 35.9366 15.2486 35.1389 16.2273 35.1389C17.206 35.1389 17.9994 35.9366 17.9994 36.9205V38.4953C18.0348 39.3526 18.4385 40.4145 19.6151 41.6577C20.8671 42.9807 22.8464 44.3342 25.5632 45.5484C30.9879 47.9729 38.7305 49.5633 47.471 49.5633C56.2115 49.5633 63.9541 47.9729 69.3788 45.5484C72.0956 44.3342 74.0748 42.9807 75.3269 41.6577C76.4998 40.4184 76.9046 39.3593 76.9422 38.5034V22.4166C75.2733 23.968 73.0963 25.3144 70.5834 26.4374C64.8461 29.0015 57.0443 30.542 48.5209 30.542C42.7381 30.542 37.3021 29.8333 32.6219 28.5851C31.676 28.3328 31.1125 27.3573 31.3635 26.4063C31.6144 25.4553 32.5847 24.8888 33.5307 25.1411C37.8873 26.303 43.0156 26.9789 48.5209 26.9789C56.667 26.9789 63.9568 25.4996 69.1437 23.1815C71.7393 22.0215 73.7302 20.6863 75.0481 19.2937C76.3574 17.9102 76.9318 16.554 76.9318 15.271C76.9318 13.988 76.3574 12.6318 75.0481 11.2483C73.7302 9.85571 71.7393 8.52053 69.1437 7.36048C63.9568 5.04237 56.667 3.56313 48.5209 3.56313ZM76.9422 64.0713L76.9425 64.106L76.9441 64.1537C76.9211 65.0187 76.5242 66.096 75.3269 67.3611C74.0748 68.6841 72.0956 70.0376 69.3788 71.2518C63.9541 73.6762 56.2115 75.2667 47.471 75.2667C38.7305 75.2667 30.9879 73.6762 25.5632 71.2518C22.8464 70.0376 20.8671 68.6841 19.6151 67.3611C18.437 66.1163 18.0338 65.0533 17.9993 64.1954L17.9994 64.1733V45.0305C23.4453 49.834 34.5978 53.1265 47.471 53.1265C60.3439 53.1265 71.4962 49.8341 76.9422 45.0308V64.0713Z" fill="#9683D7"/>
<path d="M69.7567 39.7598C71.0617 39.7598 72.1196 38.6963 72.1196 37.3844C72.1196 36.0725 71.0617 35.009 69.7567 35.009C68.4518 35.009 67.3939 36.0725 67.3939 37.3844C67.3939 38.6963 68.4518 39.7598 69.7567 39.7598Z" fill="#9683D7"/>
<path d="M8.26984 13.1561C7.29113 13.1561 6.49773 13.9538 6.49773 14.9377C6.49773 15.9216 7.29113 16.7193 8.26984 16.7193H12.4048V20.8762C12.4048 21.8602 13.1982 22.6578 14.1769 22.6578C15.1556 22.6578 15.949 21.8602 15.949 20.8762V16.7193H20.0839C21.0626 16.7193 21.856 15.9216 21.856 14.9377C21.856 13.9538 21.0626 13.1561 20.0839 13.1561H15.949V8.99915C15.949 8.01522 15.1556 7.21759 14.1769 7.21759C13.1982 7.21759 12.4048 8.01522 12.4048 8.99915V13.1561H8.26984Z" fill="#9683D7"/>
<path fill-rule="evenodd" clip-rule="evenodd" d="M28.3537 14.9374C28.3537 22.8089 22.0065 29.1899 14.1769 29.1899C6.3472 29.1899 0 22.8089 0 14.9374C0 7.06597 6.3472 0.684904 14.1769 0.684904C22.0065 0.684904 28.3537 7.06597 28.3537 14.9374ZM24.8095 14.9374C24.8095 20.841 20.0491 25.6268 14.1769 25.6268C8.30462 25.6268 3.54422 20.841 3.54422 14.9374C3.54422 9.03383 8.30462 4.24803 14.1769 4.24803C20.0491 4.24803 24.8095 9.03383 24.8095 14.9374Z" fill="#9683D7"/>
</svg>
