<svg width="80" height="78" viewBox="0 0 80 78" fill="none" xmlns="http://www.w3.org/2000/svg">
<path d="M24.9668 2.85829C29.6802 0.970903 34.7305 0 39.8298 0C44.9291 0 49.9795 0.970903 54.6929 2.85829C59.4064 4.74571 63.692 7.51326 67.3039 11.005C70.916 14.4968 73.7836 18.6446 75.7409 23.2127C77.6983 27.7809 78.7063 32.6787 78.7063 37.626C78.7063 38.5583 77.9446 39.314 77.0049 39.314C76.0652 39.314 75.3035 38.5583 75.3035 37.626C75.3035 33.1344 74.3884 28.6857 72.6093 24.5336C70.8302 20.3813 68.2212 16.6055 64.9292 13.4231C61.6371 10.2405 57.7264 7.71375 53.4193 5.98907C49.1122 4.26436 44.4943 3.37614 39.8298 3.37614C35.1653 3.37614 30.5474 4.26436 26.2403 5.98907C21.9332 7.71375 18.0225 10.2405 14.7304 13.4231C12.0705 15.9945 9.85644 18.9533 8.1658 22.1851H13.5431C14.4827 22.1851 15.2445 22.9408 15.2445 23.8731C15.2445 24.8054 14.4827 25.5612 13.5431 25.5612H5.48451C4.85558 25.5612 4.27795 25.217 3.98251 24.6661L0.199739 17.6128C-0.241663 16.7898 0.0729819 15.7675 0.902517 15.3296C1.73205 14.8916 2.76235 15.2038 3.20375 16.0269L5.40807 20.137C7.2314 16.7754 9.57259 13.6955 12.3557 11.005C15.9676 7.51326 20.2533 4.74571 24.9668 2.85829Z" fill="#9683D7"/>
<path d="M54.7214 74.1301C50.0015 76.1196 44.9412 77.1441 39.8298 77.1441C34.7184 77.1441 29.6581 76.1196 24.9382 74.1301C20.2185 72.1407 15.9328 69.226 12.3248 65.5545C8.71695 61.8831 5.85722 57.5268 3.9069 52.7355C1.9566 47.9442 0.953312 42.8103 0.953312 37.6267C0.953312 36.6944 1.71505 35.9386 2.65472 35.9386C3.59438 35.9386 4.35613 36.6944 4.35613 37.6267C4.35613 42.3786 5.27596 47.0831 7.06212 51.4712C8.84824 55.8592 11.4651 59.8435 14.7613 63.1976C18.0573 66.5517 21.968 69.21 26.2688 71.0228C30.5695 72.8355 35.1774 73.768 39.8298 73.768C44.4822 73.768 49.0901 72.8355 53.3908 71.0228C57.6916 69.21 61.6023 66.5517 64.8984 63.1976C67.6035 60.4449 69.8511 57.2678 71.5574 53.7914L67.4727 53.7914C66.5331 53.7914 65.7713 53.0356 65.7713 52.1033C65.7713 51.171 66.5331 50.4153 67.4727 50.4153L74.1751 50.4153C74.7759 50.4153 75.3321 50.7296 75.6386 51.2423L79.4215 57.5718C79.9007 58.3737 79.634 59.4093 78.8258 59.8848C78.0175 60.3603 76.9738 60.0957 76.4945 59.2938L74.3767 55.7503C72.5437 59.3606 70.1703 62.6691 67.3348 65.5545C63.7268 69.226 59.4411 72.1407 54.7214 74.1301Z" fill="#9683D7"/>
<path fill-rule="evenodd" clip-rule="evenodd" d="M39.83 30.0128C35.0655 30.0128 31.2031 33.8449 31.2031 38.572C31.2031 43.2992 35.0655 47.1313 39.83 47.1313C44.5945 47.1313 48.4569 43.2992 48.4569 38.572C48.4569 33.8449 44.5945 30.0128 39.83 30.0128ZM34.606 38.572C34.606 35.7095 36.9448 33.389 39.83 33.389C42.7152 33.389 45.0541 35.7095 45.0541 38.572C45.0541 41.4346 42.7152 43.7551 39.83 43.7551C36.9448 43.7551 34.606 41.4346 34.606 38.572Z" fill="#9683D7"/>
<path fill-rule="evenodd" clip-rule="evenodd" d="M35.5324 13.0059C34.6398 13.0059 33.8989 13.6903 33.8353 14.5737L33.443 20.0231C32.3537 20.3923 31.3074 20.8531 30.3137 21.3961L26.3445 17.8957C25.6712 17.3019 24.6481 17.3317 24.0111 17.9637L19.0585 22.8775C18.4215 23.5095 18.3914 24.5246 18.9899 25.1926L22.5182 29.1308C21.9709 30.1166 21.5066 31.1545 21.1346 32.2351L15.6421 32.6243C14.7517 32.6874 14.0619 33.4225 14.0619 34.3081V42.836C14.0619 43.7216 14.7517 44.4567 15.6421 44.5198L21.1346 44.909C21.4675 45.8761 21.8744 46.8089 22.3484 47.7009L18.9903 51.4492C18.3918 52.1172 18.4218 53.1323 19.0588 53.7643L24.0114 58.6781C24.6484 59.3101 25.6716 59.3399 26.3449 58.7461L29.9654 55.5531C31.0621 56.1814 32.2256 56.7084 33.443 57.1209L33.8353 62.5704C33.8989 63.4538 34.6398 64.1382 35.5324 64.1382H44.1276C45.0203 64.1382 45.7611 63.4538 45.8247 62.5704L46.217 57.1209C47.3204 56.747 48.3797 56.2791 49.3849 55.7268L52.8089 58.7465C53.4822 59.3403 54.5053 59.3105 55.1423 58.6785L60.0949 53.7647C60.7319 53.1327 60.762 52.1176 60.1635 51.4495L57.1201 48.0525C57.6768 47.055 58.1485 46.0039 58.5254 44.909L64.0179 44.5198C64.9083 44.4567 65.5981 43.7216 65.5981 42.836V34.3081C65.5981 33.4225 64.9083 32.6874 64.0179 32.6243L58.5254 32.2351C58.1097 31.0273 57.5785 29.8729 56.9452 28.7848L60.1638 25.1923C60.7623 24.5242 60.7323 23.5091 60.0953 22.8771L55.1427 17.9634C54.5057 17.3313 53.4825 17.3015 52.8092 17.8953L49.0309 21.2275C48.1319 20.7571 47.1917 20.3534 46.217 20.0231L45.8247 14.5737C45.7611 13.6903 45.0203 13.0059 44.1276 13.0059H35.5324ZM36.7541 21.4165L37.1166 16.382H42.5434L42.9059 21.4165C42.9573 22.1311 43.4577 22.7356 44.1541 22.9245C45.6528 23.3312 47.066 23.9444 48.3609 24.732C49 25.1207 49.8202 25.0486 50.3804 24.5545L53.8709 21.4761L56.5547 24.1389L53.5574 27.4844C53.0422 28.0595 52.9841 28.9076 53.4163 29.5465C54.3861 30.9805 55.1308 32.5754 55.6011 34.2818C55.7916 34.9728 56.4009 35.4693 57.121 35.5203L62.1953 35.8799V41.2642L57.121 41.6238C56.4009 41.6748 55.7916 42.1713 55.6011 42.8623C55.1591 44.4657 54.475 45.9707 53.5894 47.3362C53.1763 47.9731 53.2414 48.805 53.7486 49.3711L56.5544 52.5029L53.8705 55.1657L50.7139 52.3818C50.1434 51.8786 49.3049 51.8141 48.663 52.2239C47.2868 53.1024 45.7701 53.7811 44.1541 54.2195C43.4577 54.4085 42.9573 55.013 42.9059 55.7276L42.5434 60.7621H37.1166L36.7541 55.7276C36.7027 55.013 36.2023 54.4085 35.5059 54.2195C33.7859 53.7529 32.1784 53.014 30.7332 52.0518C30.0892 51.6231 29.2344 51.6807 28.6548 52.1919L25.2832 55.1653L22.5994 52.5025L25.7017 49.0398C26.1997 48.4839 26.2724 47.6702 25.8806 47.0361C25.0868 45.7513 24.4687 44.3492 24.0589 42.8623C23.8684 42.1713 23.2591 41.6748 22.539 41.6238L17.4647 41.2642V35.8799L22.539 35.5203C23.2591 35.4693 23.8684 34.9728 24.0589 34.2818C24.4973 32.6914 25.1739 31.1979 26.049 29.8413C26.4596 29.2047 26.3937 28.3748 25.8876 27.8099L22.599 24.1393L25.2829 21.4765L28.9824 24.7392C29.5518 25.2414 30.3883 25.3068 31.0299 24.8993C32.3974 24.0309 33.9028 23.3595 35.5059 22.9245C36.2023 22.7356 36.7027 22.1311 36.7541 21.4165Z" fill="#9683D7"/>
</svg>
