<svg width="81" height="82" viewBox="0 0 81 82" fill="none" xmlns="http://www.w3.org/2000/svg">
<path fill-rule="evenodd" clip-rule="evenodd" d="M57.5133 15.1124C53.1649 15.1124 49.6399 18.6377 49.6399 22.9864C49.6399 27.335 53.1649 30.8603 57.5133 30.8603C61.8617 30.8603 65.3867 27.335 65.3867 22.9864C65.3867 18.6377 61.8617 15.1124 57.5133 15.1124ZM53.176 22.9864C53.176 20.5908 55.1179 18.6488 57.5133 18.6488C59.9087 18.6488 61.8506 20.5908 61.8506 22.9864C61.8506 25.3819 59.9087 27.3239 57.5133 27.3239C55.1179 27.3239 53.176 25.3819 53.176 22.9864Z" fill="#9683D7"/>
<path fill-rule="evenodd" clip-rule="evenodd" d="M53.7246 0C52.797 0 52.0271 0.716905 51.961 1.6422L51.6277 6.30836C50.7734 6.6099 49.9493 6.97511 49.1612 7.39821L45.803 4.41291C45.1033 3.79093 44.0401 3.82217 43.3781 4.48417L39.012 8.85058C38.35 9.51258 38.3188 10.5759 38.9407 11.2756L41.9259 14.6342C41.5029 15.4222 41.1378 16.2462 40.8363 17.1004L36.1705 17.4337C35.2452 17.4998 34.5284 18.2698 34.5284 19.1974V26.7753C34.5284 27.703 35.2452 28.4729 36.1705 28.539L40.8363 28.8723C41.1023 29.6258 41.4177 30.3558 41.7787 31.0583L38.941 34.2509C38.3191 34.9507 38.3503 36.0139 39.0123 36.6759L43.3784 41.0423C44.0404 41.7043 45.1036 41.7356 45.8033 41.1136L48.8513 38.4041C49.7324 38.9002 50.6607 39.3231 51.6277 39.6644L51.961 44.3305C52.0271 45.2558 52.797 45.9727 53.7246 45.9727H61.302C62.2296 45.9727 62.9995 45.2558 63.0656 44.3305L63.3989 39.6644C64.2656 39.3585 65.1012 38.987 65.8997 38.556L68.7772 41.114C69.4769 41.736 70.5401 41.7048 71.2021 41.0428L75.5682 36.6763C76.2302 36.0143 76.2614 34.9511 75.6395 34.2513L73.0818 31.3737C73.5128 30.5751 73.8843 29.7393 74.1902 28.8723L78.8561 28.539C79.7813 28.4729 80.4982 27.703 80.4982 26.7753V19.1974C80.4982 18.2698 79.7813 17.4998 78.8561 17.4337L74.1902 17.1004C73.849 16.1333 73.4261 15.205 72.9301 14.3238L75.6398 11.2752C76.2617 10.5754 76.2305 9.51217 75.5685 8.85017L71.2024 4.48376C70.5404 3.82176 69.4772 3.79052 68.7775 4.4125L65.5847 7.25076C64.8822 6.88975 64.1523 6.57429 63.3989 6.30836L63.0656 1.6422C62.9995 0.716905 62.2296 0 61.302 0H53.7246ZM55.0691 7.761L55.3709 3.53637H59.6557L59.9575 7.761C60.0109 8.50944 60.5309 9.14263 61.2546 9.34057C62.551 9.69513 63.7735 10.2298 64.8939 10.9167C65.558 11.3238 66.4104 11.2483 66.9926 10.7307L69.8808 8.16326L71.8893 10.1718L69.4148 12.9558C68.8794 13.5582 68.8191 14.4464 69.2681 15.1157C70.1072 16.3663 70.7514 17.757 71.1582 19.2448C71.3561 19.9686 71.9893 20.4886 72.7377 20.542L76.9621 20.8438V25.1289L72.7377 25.4307C71.9893 25.4842 71.3561 26.0042 71.1582 26.728C70.7759 28.126 70.1841 29.4383 69.4179 30.6291C68.9886 31.2963 69.0562 32.1677 69.5833 32.7606L71.889 35.3547L69.8805 37.3633L67.2865 35.0574C66.6936 34.5303 65.8223 34.4627 65.1552 34.8919C63.9646 35.6581 62.6525 36.2499 61.2546 36.6322C60.5309 36.8301 60.0109 37.4633 59.9575 38.2117L59.6557 42.4364H55.3709L55.0691 38.2117C55.0157 37.4633 54.4957 36.8301 53.7719 36.6322C52.2842 36.2253 50.8936 35.5811 49.6431 34.7419C48.9739 34.2928 48.0857 34.3532 47.4833 34.8886L44.7 37.3628L42.6915 35.3543L45.2585 32.4663C45.776 31.884 45.8515 31.0316 45.4444 30.3675C44.7576 29.247 44.2229 28.0244 43.8684 26.728C43.6704 26.0042 43.0373 25.4842 42.2889 25.4307L38.0645 25.1289V20.8438L42.2889 20.542C43.0373 20.4886 43.6704 19.9686 43.8684 19.2448C44.2476 17.8581 44.8329 16.5558 45.59 15.3728C46.0168 14.7059 45.9482 13.8366 45.4223 13.2449L42.6912 10.1723L44.6997 8.16367L47.7721 10.8948C48.3638 11.4208 49.233 11.4894 49.8998 11.0625C51.0829 10.3053 52.3852 9.71984 53.7719 9.34057C54.4957 9.14263 55.0157 8.50944 55.0691 7.761Z" fill="#9683D7"/>
<path d="M17.8802 7.06526C22.1238 3.3969 26.9898 1.5135 30.8276 0.801631L30.8246 0.804317C30.9325 0.783762 31.0438 0.773004 31.1576 0.773004C32.1341 0.773004 32.9257 1.56465 32.9257 2.54119C32.9257 3.45209 32.2369 4.20212 31.3518 4.29882L31.3524 4.30115C28.0843 4.92732 23.8666 6.56467 20.1926 9.74067C15.9568 13.4023 12.3713 19.1669 11.8328 28.0213C11.772 29.0208 11.5038 30.042 10.9814 30.9662L3.61309 44.0021C3.45498 44.2818 3.55003 44.6366 3.82678 44.7998L11.6789 49.4304L13.372 65.4057C13.6579 68.1038 15.9336 70.1512 18.6466 70.1512H28.4284V79.5685C28.4284 80.5451 27.6368 81.3367 26.6603 81.3367C25.6838 81.3367 24.8922 80.5451 24.8922 79.5685V73.6875H18.6466C14.1249 73.6875 10.3321 70.2752 9.85553 65.7784L8.34999 51.5727L2.03061 47.846C0.0933396 46.7036 -0.57199 44.2199 0.534728 42.2619L7.90307 29.226C8.13231 28.8204 8.2712 28.3317 8.30314 27.8065C8.90008 17.9928 12.9305 11.3439 17.8802 7.06526Z" fill="#9683D7"/>
<path d="M58.1839 75.3025C58.1839 68.093 58.8867 60.8922 60.5295 53.8773L60.5524 53.8814C60.6258 52.9723 61.3868 52.2575 62.3147 52.2575C63.2911 52.2575 64.0827 53.0491 64.0827 54.0257C64.0827 54.207 64.0555 54.3819 64.0048 54.5465C62.4104 61.2993 61.7201 68.2711 61.7201 75.3025V79.5685C61.7201 80.5451 60.9285 81.3367 59.952 81.3367C58.9755 81.3367 58.1839 80.5451 58.1839 79.5685V75.3025Z" fill="#9683D7"/>
</svg>
