<svg width="82" height="82" viewBox="0 0 82 82" fill="none" xmlns="http://www.w3.org/2000/svg">
<path d="M27.0615 25.8057H54.2715V0H55.5293V25.8057H81.3369V27.0635H55.5293V54.2734H81.3369V55.5312H55.5293V81.3369H54.2715V55.5312H27.0615V81.3369H25.8037V55.5312H0V54.2734H25.8037V27.0635H0V25.8057H25.8037V0H27.0615V25.8057ZM40.6689 63.5283C43.8234 63.5287 46.3806 66.0868 46.3809 69.2412C46.3806 72.3957 43.8234 74.9528 40.6689 74.9531C37.5142 74.9531 34.9563 72.3959 34.9561 69.2412C34.9563 66.0865 37.5142 63.5283 40.6689 63.5283ZM12.1182 64.1582C14.9257 64.1582 17.2021 66.4337 17.2021 69.2412C17.2021 72.0488 14.9257 74.3252 12.1182 74.3252C9.31063 74.3252 7.03516 72.0488 7.03516 69.2412C7.03521 66.4337 9.31066 64.1582 12.1182 64.1582ZM69.2197 64.1572C72.0272 64.1573 74.3027 66.4337 74.3027 69.2412C74.3027 72.0487 72.0272 74.3251 69.2197 74.3252C66.4122 74.3252 64.1357 72.0488 64.1357 69.2412C64.1357 66.4337 66.4122 64.1572 69.2197 64.1572ZM40.6689 64.7861C38.2089 64.7861 36.2141 66.7812 36.2139 69.2412C36.2141 71.7012 38.2089 73.6953 40.6689 73.6953C43.1287 73.6949 45.1228 71.701 45.123 69.2412C45.1228 66.7814 43.1287 64.7865 40.6689 64.7861ZM27.0615 54.2734H54.2715V27.0635H27.0615V54.2734ZM40.6689 34.9561C43.8235 34.9564 46.3809 37.5143 46.3809 40.6689C46.3804 43.8232 43.8232 46.3805 40.6689 46.3809C37.5143 46.3809 34.9565 43.8234 34.9561 40.6689C34.9561 37.5141 37.5141 34.9561 40.6689 34.9561ZM12.1182 35.585C14.9257 35.585 17.202 37.8605 17.2021 40.668C17.2021 43.4755 14.9257 45.752 12.1182 45.752C9.31063 45.7519 7.03516 43.4755 7.03516 40.668C7.03527 37.8605 9.31069 35.585 12.1182 35.585ZM69.2197 35.585C72.0272 35.5851 74.3027 37.8605 74.3027 40.668C74.3027 43.4755 72.0272 45.7519 69.2197 45.752C66.4122 45.752 64.1357 43.4755 64.1357 40.668C64.1358 37.8605 66.4122 35.585 69.2197 35.585ZM40.6689 36.2139C38.2087 36.2139 36.2139 38.2087 36.2139 40.6689C36.2143 43.1288 38.209 45.123 40.6689 45.123C43.1286 45.1227 45.1226 43.1286 45.123 40.6689C45.123 38.2089 43.1289 36.2142 40.6689 36.2139ZM40.6689 6.38281C43.8235 6.38319 46.3809 8.94104 46.3809 12.0957C46.3805 15.2501 43.8233 17.8072 40.6689 17.8076C37.5143 17.8076 34.9564 15.2503 34.9561 12.0957C34.9561 8.94081 37.5141 6.38281 40.6689 6.38281ZM12.1182 7.01172C14.9256 7.01172 17.2019 9.28735 17.2021 12.0947C17.2021 14.9023 14.9257 17.1787 12.1182 17.1787C9.31063 17.1787 7.03516 14.9023 7.03516 12.0947C7.03538 9.28737 9.31076 7.01175 12.1182 7.01172ZM69.2197 7.01172C72.0271 7.01182 74.3026 9.28738 74.3027 12.0947C74.3027 14.9022 72.0272 17.1786 69.2197 17.1787C66.4122 17.1787 64.1357 14.9023 64.1357 12.0947C64.1359 9.28731 66.4123 7.01172 69.2197 7.01172ZM40.6689 7.64062C38.2087 7.64062 36.2139 9.63547 36.2139 12.0957C36.2142 14.5556 38.2089 16.5498 40.6689 16.5498C43.1286 16.5494 45.1227 14.5554 45.123 12.0957C45.123 9.6357 43.1289 7.641 40.6689 7.64062Z" fill="#9683D7"/>
</svg>
