<svg width="83" height="83" viewBox="0 0 83 83" fill="none" xmlns="http://www.w3.org/2000/svg">
<path d="M38.5337 17.3002C42.1243 17.3004 45.0364 20.2115 45.0366 23.8021V36.849L64.3335 47.1283C65.9815 48.0062 67.0119 49.722 67.0122 51.5892V73.7611C67.0122 75.5618 65.5521 77.0214 63.7515 77.0219H35.2837C33.4829 77.0217 32.023 75.562 32.0229 73.7611V69.0443L27.2905 65.1654C23.5197 62.0751 23.0501 56.4793 26.2534 52.8041L32.0317 46.1742V23.8021C32.032 20.2115 34.9431 17.3004 38.5337 17.3002ZM38.5337 20.2357C36.5639 20.236 34.9675 21.8324 34.9673 23.8021V55.4447C34.9673 56.255 34.3098 56.9123 33.4995 56.9125C32.6891 56.9125 32.0317 56.2551 32.0317 55.4447V54.5062H32.0229V50.6517L28.4663 54.7328C26.3509 57.1599 26.6607 60.8551 29.1509 62.8959L34.4204 67.2142L34.9575 67.6547V73.7611C34.9575 73.9411 35.1037 74.0871 35.2837 74.0873H63.7515C63.9312 74.0869 64.0776 73.9409 64.0776 73.7611V51.5892C64.0774 50.8066 63.6452 50.0873 62.9546 49.7191L45.0366 40.1732V47.8334C45.0366 48.6436 44.3791 49.3009 43.5688 49.3011C42.7584 49.3011 42.1011 48.6438 42.1011 47.8334V44.599H42.0972V35.2836L42.1011 35.2855V23.8021C42.1008 21.8323 40.5035 20.2359 38.5337 20.2357ZM16.5317 10.8744C16.7917 10.1071 17.6247 9.69591 18.3921 9.95544C19.1596 10.2153 19.5717 11.0482 19.312 11.8158C17.8081 16.2579 17.6984 21.1096 19.0005 25.6263C20.309 30.1651 22.4211 33.6571 26.4897 36.7953C27.0102 37.1967 27.5084 37.5589 27.9907 37.8851C28.662 38.3392 28.8383 39.2519 28.3843 39.9232C27.9302 40.5942 27.0184 40.7697 26.3472 40.3158C25.8073 39.9506 25.2593 39.5526 24.6978 39.1195C20.0787 35.5569 17.6413 31.5072 16.1802 26.4388C14.7127 21.3482 14.8355 15.8846 16.5317 10.8744ZM57.4565 8.90857C58.2108 8.61293 59.0619 8.98462 59.3579 9.73865C61.2856 14.6541 61.662 20.1048 60.4331 25.266C59.4646 29.3333 57.5388 33.0559 54.8521 36.0873C54.3146 36.6935 53.3872 36.7495 52.7808 36.2123C52.1744 35.6747 52.1182 34.7465 52.6558 34.14C55.014 31.4792 56.7193 28.1951 57.5786 24.5863C58.6696 20.0041 58.3331 15.1652 56.6255 10.8109C56.3297 10.0565 56.7021 9.20444 57.4565 8.90857ZM38.5327 5.15369C46.2316 5.15369 52.4731 11.3952 52.4731 19.0941C52.4731 21.5235 51.85 23.8122 50.7544 25.8041C50.3637 26.5138 49.4712 26.7727 48.7612 26.3822C48.0519 25.9915 47.7932 25.0997 48.1831 24.39C49.0464 22.8205 49.5385 21.0165 49.5386 19.0941C49.5385 13.0161 44.6108 8.08923 38.5327 8.08923C32.4549 8.08955 27.5279 13.0163 27.5278 19.0941C27.5279 21.0165 28.019 22.8205 28.8823 24.39C29.2727 25.1 29.014 25.9916 28.3042 26.3822C27.5942 26.7724 26.7015 26.514 26.311 25.8041C25.2154 23.8122 24.5923 21.5235 24.5923 19.0941C24.5924 11.3954 30.8341 5.154 38.5327 5.15369Z" fill="#9683D7"/>
</svg>
