<svg width="85" height="85" viewBox="0 0 85 85" fill="none" xmlns="http://www.w3.org/2000/svg">
<path fill-rule="evenodd" clip-rule="evenodd" d="M22.9865 11.3428C19.6455 11.3428 16.9371 14.0512 16.9371 17.3922V33.4701C16.9371 34.5838 17.8399 35.4866 18.9536 35.4866C20.0672 35.4866 20.9701 34.5838 20.9701 33.4701V17.3922C20.9701 16.2786 21.8729 15.3757 22.9865 15.3757H61.1165C62.2301 15.3757 63.133 16.2786 63.133 17.3922V51.6725C63.133 52.7862 62.2301 53.689 61.1165 53.689H45.7417C44.628 53.689 43.7252 54.5918 43.7252 55.7055C43.7252 56.8192 44.628 57.722 45.7417 57.722H61.1165C64.4575 57.722 67.1659 55.0135 67.1659 51.6725V45.6046L77.4878 48.7431C78.7832 49.137 80.091 48.1678 80.091 46.8139V22.2504C80.091 20.8964 78.7832 19.9272 77.4878 20.3211L67.1659 23.4597V17.3922C67.1659 14.0512 64.4575 11.3428 61.1165 11.3428H22.9865ZM76.058 24.9712L67.3476 27.6197V41.4445L76.058 44.0931V24.9712Z" fill="#9683D7"/>
<path fill-rule="evenodd" clip-rule="evenodd" d="M50.6201 37.5112C52.8028 36.1251 52.8028 32.9397 50.6201 31.5535L41.2743 25.6181C38.9249 24.126 35.8536 25.8138 35.8536 28.597V40.4678C35.8536 43.2509 38.9249 44.9387 41.2743 43.4466L50.6201 37.5112ZM48.9985 34.1068C49.3103 34.3048 49.3103 34.7599 48.9985 34.9579L39.6527 40.8933C39.3171 41.1065 38.8783 40.8653 38.8783 40.4678V28.597C38.8783 28.1994 39.3171 27.9583 39.6527 28.1714L48.9985 34.1068Z" fill="#9683D7"/>
<path fill-rule="evenodd" clip-rule="evenodd" d="M24.7056 40.0777C17.2167 40.0777 11.0256 45.8924 11.0256 53.2102C11.0256 55.2465 11.5092 57.1752 12.37 58.8942L6.02619 65.1481C4.07159 67.075 4.12865 70.1733 6.15287 72.027C8.13257 73.8398 11.2566 73.7823 13.1683 71.8978L19.717 65.4418C21.2651 66.024 22.9485 66.3426 24.7056 66.3426C32.1945 66.3426 38.3856 60.5279 38.3856 53.2102C38.3856 45.8924 32.1945 40.0777 24.7056 40.0777ZM14.0503 53.2102C14.0503 47.6927 18.7544 43.1024 24.7056 43.1024C30.6567 43.1024 35.3609 47.6927 35.3609 53.2102C35.3609 58.7276 30.6567 63.3179 24.7056 63.3179C23.0165 63.3179 21.4246 62.946 20.0119 62.287L19.0593 61.8427L11.0448 69.7437C10.28 70.4977 8.9876 70.5215 8.19562 69.7962C7.44815 69.1117 7.42793 68.0136 8.14969 67.3021L16.1781 59.3875L15.535 58.3596C14.5901 56.8493 14.0503 55.0901 14.0503 53.2102Z" fill="#9683D7"/>
</svg>
