<svg width="17" height="19" viewBox="0 0 17 19" fill="none" xmlns="http://www.w3.org/2000/svg">
<path fill-rule="evenodd" clip-rule="evenodd" d="M7.6928 0C7.14392 0 6.61752 0.258429 6.22941 0.718434C5.84129 1.17844 5.62325 1.80234 5.62325 2.45289C5.62325 3.10343 5.84129 3.72733 6.22941 4.18734C6.30054 4.27166 6.37633 4.3492 6.45605 4.41962C5.99177 4.61725 5.56518 4.93494 5.20969 5.35627C4.57645 6.1068 4.2207 7.12475 4.2207 8.18617V8.70257C4.2207 8.9165 4.367 9.08988 4.54747 9.08988C4.72794 9.08988 4.87425 8.9165 4.87425 8.70257V8.18617C4.87425 7.33019 5.16114 6.50926 5.67182 5.90399C6.18249 5.29872 6.87512 4.95869 7.59733 4.95869C8.3195 4.95869 9.01221 5.29872 9.52285 5.90399C10.0335 6.50926 10.3204 7.33019 10.3204 8.18617V8.70257C10.3204 8.9165 10.4667 9.08988 10.6472 9.08988C10.8277 9.08988 10.9739 8.9165 10.9739 8.70257V8.18617C10.9739 7.12475 10.6182 6.1068 9.98493 5.35627C9.66151 4.97288 9.27912 4.67531 8.86315 4.47592C8.96733 4.3912 9.06553 4.29478 9.15619 4.18734C9.54431 3.72733 9.76233 3.10343 9.76233 2.45289C9.76233 1.80234 9.54431 1.17844 9.15619 0.718434C8.76807 0.258429 8.2417 0 7.6928 0ZM6.69153 1.26616C6.95708 0.95142 7.31725 0.774596 7.6928 0.774596C8.06831 0.774596 8.42851 0.95142 8.69403 1.26616C8.95963 1.5809 9.10877 2.00778 9.10877 2.45289C9.10877 2.898 8.95963 3.32488 8.69403 3.63962C8.42851 3.95436 8.06831 4.13118 7.6928 4.13118C7.31725 4.13118 6.95708 3.95436 6.69153 3.63962C6.42598 3.32488 6.27679 2.898 6.27679 2.45289C6.27679 2.00778 6.42598 1.5809 6.69153 1.26616Z" fill="#9683D7"/>
<path fill-rule="evenodd" clip-rule="evenodd" d="M10.7141 14.2143C10.851 14.0366 10.956 13.8213 11.0166 13.5796C11.1076 13.2171 10.9633 12.8299 10.676 12.6654L7.51953 10.8576C7.03971 10.5828 6.4823 10.5715 5.99484 10.8266L3.71535 12.0199C3.51092 11.5369 3.08924 11.2053 2.60222 11.2053H1.24454C0.557196 11.2053 0 11.8657 0 12.6804V16.9715C0 17.7861 0.557196 18.4465 1.24454 18.4465H2.60222C3.16315 18.4465 3.63741 18.0067 3.79288 17.4021C3.81704 17.394 3.84992 17.3844 3.89417 17.3734C4.02421 17.3412 4.20591 17.3078 4.46775 17.2595L4.62933 17.2297C5.43285 17.081 5.89773 17.1342 7.3748 17.4206C8.12211 17.5656 8.81781 17.6607 9.54363 17.5713C10.2748 17.4812 11.0184 17.2065 11.8739 16.6414C12.0069 16.5534 12.1492 16.4597 12.2986 16.3611C13.521 15.5546 15.2266 14.4293 16.3736 13.6082C16.8567 13.2623 17.0168 12.5379 16.7651 11.9534C16.4916 11.3189 15.8338 11.071 15.3014 11.4019L11.0211 14.0625C10.9218 14.1243 10.819 14.1748 10.7141 14.2143ZM7.22416 11.582C6.92361 11.4099 6.57445 11.4028 6.26909 11.5626L3.86679 12.8201V16.5602C4.00097 16.5312 4.16791 16.5004 4.36837 16.4636L4.52455 16.4348C5.4434 16.2646 6.00117 16.339 7.48442 16.6266C8.21731 16.7688 8.84027 16.8491 9.47345 16.771C10.1013 16.6936 10.7572 16.458 11.5434 15.9386C11.6748 15.8518 11.8147 15.7594 11.9616 15.6626L11.9687 15.6579C13.1932 14.85 14.887 13.7325 16.0226 12.9195C16.1917 12.7984 16.2551 12.5392 16.1605 12.3193C16.0589 12.0836 15.8145 11.9916 15.6167 12.1145L11.3364 14.7751C10.5483 15.2649 9.60327 15.2374 8.83696 14.7041L6.19366 13.375L6.45878 12.6343L9.0595 13.942H9.69659C9.99765 13.942 10.2637 13.7135 10.3587 13.3773L7.22416 11.582ZM1.24454 12.0099C0.932117 12.0099 0.678838 12.3101 0.678838 12.6804V16.9715C0.678838 17.3417 0.932117 17.6419 1.24454 17.6419H2.60222C2.91465 17.6419 3.16792 17.3417 3.16792 16.9715V12.6804C3.16792 12.3101 2.91465 12.0099 2.60222 12.0099H1.24454Z" fill="#9683D7"/>
</svg>
