<svg width="17" height="12" viewBox="0 0 17 12" fill="none" xmlns="http://www.w3.org/2000/svg">
<path d="M7.19788 0C7.60233 0.000200306 7.9302 0.32371 7.9302 0.722144V1.47517L9.6666 4.29978L9.84578 4.19977C10.071 4.07306 10.3477 4.07301 10.5729 4.19977L10.8864 4.37626L12.4876 1.79139V0.845686C12.4878 0.447212 12.8162 0.123544 13.2207 0.123544H16.1508C16.5552 0.123701 16.883 0.44731 16.8831 0.845686V11.155C16.883 11.5534 16.5553 11.8763 16.1508 11.8764H13.2207C12.8162 11.8764 12.4877 11.5535 12.4876 11.155V9.95484L10.8723 7.63257L10.5729 7.8017C10.3478 7.92836 10.0709 7.92821 9.84578 7.8017L9.71292 7.7267L7.9302 10.4027V11.2785C7.93004 11.6768 7.60218 11.9997 7.19788 12H5.10466C4.70017 12 4.37175 11.6769 4.37158 11.2785V10.6131H3.51906C3.3483 11.4053 2.63474 11.9998 1.77969 12C0.797188 12 0.00013454 11.2153 0 10.2475C3.05772e-05 9.27967 0.797127 8.49441 1.77969 8.49441C2.67449 8.49464 3.4128 9.14639 3.53773 9.99385H4.37158V9.21657C4.37161 8.81799 4.70008 8.49441 5.10466 8.49441H7.19788C7.60225 8.49464 7.9302 8.81814 7.9302 9.21657V9.27538L9.16643 7.41924L8.79912 7.2126C8.57102 7.0842 8.42975 6.84494 8.4296 6.58608V5.41535C8.4296 5.15638 8.57086 4.9173 8.79912 4.78881L9.12087 4.60717L7.9302 2.67018V2.78415C7.93004 3.18242 7.60218 3.50537 7.19788 3.50557H5.10466C4.70019 3.50557 4.37178 3.18255 4.37158 2.78415V2.11863H3.51906C3.34827 2.91079 2.63466 3.50532 1.77969 3.50557C0.797211 3.50557 0.000165117 2.72094 0 1.75315C0 0.785225 0.797104 0 1.77969 0C2.67449 0.000252265 3.41286 0.651938 3.53773 1.49944H4.37158V0.722144C4.37158 0.323586 4.70007 0 5.10466 0H7.19788ZM1.77969 9.11356C1.14392 9.11356 0.628594 9.62125 0.628563 10.2475C0.628701 10.8738 1.14399 11.3815 1.77969 11.3815C2.4152 11.3813 2.93067 10.8736 2.93081 10.2475C2.93078 9.6214 2.41526 9.11378 1.77969 9.11356ZM5.10466 9.11356C5.04687 9.11356 5.00017 9.15964 5.00014 9.21657V11.2785C5.00032 11.3354 5.04697 11.3815 5.10466 11.3815H7.19788C7.25537 11.3813 7.30222 11.3352 7.30239 11.2785V9.21657C7.30236 9.15979 7.25546 9.11386 7.19788 9.11356H5.10466ZM13.2207 0.742739C13.163 0.742739 13.1163 0.788832 13.1162 0.845686V11.155C13.1163 11.2119 13.163 11.258 13.2207 11.258H16.1508C16.2084 11.2578 16.2552 11.2118 16.2553 11.155V0.845686C16.2552 0.78893 16.2084 0.742889 16.1508 0.742739H13.2207ZM14.7922 8.44516C15.32 8.4978 15.732 8.93712 15.732 9.47102L15.7268 9.57614C15.6733 10.096 15.2273 10.502 14.6854 10.502L14.5787 10.4969C14.0859 10.4477 13.694 10.0615 13.644 9.57614L13.6388 9.47102C13.6388 8.90165 14.1075 8.43997 14.6854 8.43997L14.7922 8.44516ZM14.6854 9.05843C14.4542 9.05843 14.2666 9.24323 14.2666 9.47102C14.2667 9.69866 14.4543 9.88353 14.6854 9.88353C14.9165 9.88353 15.1041 9.69866 15.1042 9.47102C15.1042 9.24323 14.9165 9.05851 14.6854 9.05843ZM11.4314 4.68292L11.6187 4.78881C11.8468 4.91734 11.9882 5.15652 11.9882 5.41535V6.58608C11.9882 6.8449 11.8468 7.08418 11.6187 7.2126L11.4187 7.32443L12.4876 8.85986V2.9783L11.4314 4.68292ZM10.2608 4.7366C10.2287 4.71858 10.1892 4.71856 10.1571 4.7366L9.11047 5.32563C9.07791 5.344 9.05819 5.37838 9.05819 5.41535V6.58608C9.05834 6.62294 9.07799 6.65749 9.11047 6.6758L10.1571 7.26486C10.1891 7.28271 10.2288 7.28279 10.2608 7.26486L11.3074 6.6758C11.3399 6.65748 11.3603 6.62293 11.3604 6.58608V5.41535C11.3604 5.3785 11.3399 5.34405 11.3074 5.32563L10.2608 4.7366ZM14.6854 1.49871C15.2634 1.49874 15.732 1.96041 15.732 2.52971C15.732 3.09907 15.2634 3.5607 14.6854 3.56072C14.1074 3.56072 13.6388 3.09909 13.6388 2.52971C13.6389 1.96039 14.1075 1.49871 14.6854 1.49871ZM1.77969 0.619189C1.1439 0.619189 0.628563 1.12685 0.628563 1.75315C0.628731 2.37932 1.144 2.88711 1.77969 2.88711C2.41513 2.88683 2.93064 2.37915 2.93081 1.75315C2.93081 1.12702 2.41523 0.619468 1.77969 0.619189ZM5.10466 0.619189C5.04686 0.619189 5.00014 0.665207 5.00014 0.722144V2.78415C5.00035 2.84093 5.04699 2.88711 5.10466 2.88711H7.19788C7.25538 2.88691 7.30219 2.8408 7.30239 2.78415V0.722144C7.30239 0.665335 7.2555 0.619392 7.19788 0.619189H5.10466Z" fill="#9683D7"/>
</svg>
