<svg width="20" height="20" viewBox="0 0 20 20" fill="none" xmlns="http://www.w3.org/2000/svg">
<path fill-rule="evenodd" clip-rule="evenodd" d="M14 3C12.8954 3 12 3.89543 12 5C12 6.10457 12.8954 7 14 7C15.1045 7 16 6.10457 16 5C16 3.89543 15.1045 3 14 3ZM12.8982 5C12.8982 4.39152 13.3915 3.89825 14 3.89825C14.6084 3.89825 15.1017 4.39152 15.1017 5C15.1017 5.60848 14.6084 6.10175 14 6.10175C13.3915 6.10175 12.8982 5.60848 12.8982 5Z" fill="#9683D7"/>
<path fill-rule="evenodd" clip-rule="evenodd" d="M13.011 0C12.7689 0 12.5679 0.171536 12.5507 0.392936L12.4637 1.50942C12.2406 1.58157 12.0255 1.66896 11.8198 1.77019L10.9431 1.05589C10.7605 0.907067 10.483 0.914547 10.3101 1.07294L9.1704 2.1177C8.99758 2.2761 8.98948 2.53052 9.1518 2.69795L9.93109 3.50156C9.82069 3.69011 9.72531 3.88727 9.64668 4.09167L8.42868 4.17142C8.18718 4.18723 8 4.37146 8 4.59342V6.40662C8 6.62858 8.18718 6.81281 8.42868 6.82862L9.64668 6.90837C9.7161 7.08867 9.79841 7.26333 9.89269 7.43142L9.15189 8.19533C8.98957 8.36276 8.99767 8.61713 9.17049 8.77553L10.3102 9.82037C10.483 9.97868 10.7605 9.98622 10.9432 9.83738L11.7389 9.18905C11.9689 9.30776 12.2112 9.40896 12.4637 9.49062L12.5507 10.6071C12.5679 10.8285 12.7689 11 13.011 11H14.9891C15.2312 11 15.4321 10.8285 15.4494 10.6071L15.5364 9.49062C15.7626 9.41743 15.9808 9.32858 16.1892 9.22543L16.9404 9.83746C17.123 9.9863 17.4006 9.97885 17.5734 9.82045L18.7131 8.7757C18.8859 8.6173 18.8941 8.36285 18.7317 8.19543L18.064 7.50689C18.1765 7.31579 18.2735 7.11581 18.3534 6.90837L19.5713 6.82862C19.8129 6.81281 20 6.62858 20 6.40662V4.59342C20 4.37146 19.8129 4.18723 19.5713 4.17142L18.3534 4.09167C18.2643 3.86027 18.1539 3.63815 18.0244 3.4273L18.7317 2.69785C18.8941 2.53042 18.8859 2.27601 18.7131 2.11761L17.5734 1.07285C17.4007 0.914445 17.1231 0.906965 16.9404 1.0558L16.107 1.73491C15.9236 1.64853 15.7331 1.57305 15.5364 1.50942L15.4494 0.392936C15.4321 0.171536 15.2312 0 14.9891 0H13.011ZM13.362 1.857L13.4407 0.846157H14.5593L14.638 1.857C14.652 2.03608 14.7877 2.18759 14.9766 2.23495C15.3151 2.31978 15.6342 2.44772 15.9266 2.61206C16.1 2.70948 16.3225 2.69142 16.4745 2.56757L17.2284 1.95325L17.7527 2.43385L17.1068 3.09997C16.967 3.2441 16.9513 3.45665 17.0685 3.61679C17.2875 3.916 17.4557 4.24877 17.5619 4.60476C17.6135 4.77794 17.7788 4.90237 17.9742 4.91516L19.0769 4.98736V6.01268L17.9742 6.08488C17.7788 6.09768 17.6135 6.22211 17.5619 6.39528C17.4621 6.7298 17.3076 7.04379 17.1076 7.32872C16.9956 7.48835 17.0132 7.69686 17.1508 7.83874L17.7527 8.45942L17.2283 8.94002L16.5512 8.38828C16.3965 8.26218 16.169 8.24599 15.9948 8.3487C15.684 8.532 15.3415 8.67365 14.9766 8.76512C14.7877 8.81242 14.652 8.96397 14.638 9.14302L14.5593 10.1539H13.4407L13.362 9.14302C13.348 8.96397 13.2123 8.81242 13.0234 8.76512C12.635 8.66773 12.272 8.51356 11.9456 8.31281C11.7709 8.20535 11.539 8.21979 11.3817 8.34791L10.6552 8.93994L10.131 8.45932L10.801 7.76831C10.9361 7.62899 10.9558 7.42504 10.8496 7.26612C10.6702 6.99803 10.5306 6.70548 10.4381 6.39528C10.3865 6.22211 10.2212 6.09768 10.0258 6.08488L8.9231 6.01268V4.98736L10.0258 4.91516C10.2212 4.90237 10.3865 4.77794 10.4381 4.60476C10.5371 4.27297 10.6899 3.96137 10.8875 3.67828C10.9989 3.51873 10.9811 3.31074 10.8438 3.16915L10.1309 2.43395L10.6551 1.95334L11.4572 2.60684C11.6116 2.7327 11.8385 2.74909 12.0126 2.64697C12.3214 2.46577 12.6613 2.3257 13.0234 2.23495C13.2123 2.18759 13.348 2.03608 13.362 1.857Z" fill="#9683D7"/>
<path d="M4.34437 1.56206C5.37544 0.651383 6.55775 0.183829 7.49023 0.00710667L7.4895 0.00777388C7.51571 0.0026706 7.54275 0 7.57041 0C7.80767 0 8 0.196526 8 0.438953C8 0.665085 7.83265 0.851276 7.6176 0.875287C6.82356 1.03073 5.79891 1.43779 4.90623 2.22623C3.87704 3.13523 3.00588 4.5663 2.87502 6.7644C2.86025 7.01254 2.79511 7.26605 2.66817 7.49549L0.877879 10.7317C0.839461 10.8011 0.862556 10.8892 0.929803 10.9297L2.83764 12.0792L3.249 16.0451C3.31849 16.715 3.87141 17.2232 4.5306 17.2232H6.90727V19.561C6.90727 19.8034 6.71494 20 6.47769 20C6.24043 20 6.0481 19.8034 6.0481 19.561V18.1011H4.5306C3.43196 18.1011 2.5104 17.254 2.39461 16.1376L2.02881 12.6111L0.493381 11.6859C0.0226787 11.4023 -0.138977 10.7857 0.129924 10.2996L1.92022 7.06348C1.97592 6.96279 2.00967 6.84148 2.01742 6.7111C2.16246 4.27481 3.14174 2.62424 4.34437 1.56206Z" fill="#9683D7"/>
<path d="M14 18.5475C14 16.812 14.2382 15.0786 14.7952 13.39L14.803 13.3909C14.8279 13.1721 15.0859 13 15.4005 13C15.7315 13 16 13.1906 16 13.4256C16 13.4693 15.9907 13.5114 15.9736 13.551C15.4329 15.1766 15.1989 16.8549 15.1989 18.5475V19.5744C15.1989 19.8094 14.9306 20 14.5995 20C14.2683 20 14 19.8094 14 19.5744V18.5475Z" fill="#9683D7"/>
</svg>
