<svg width="154" height="152" viewBox="0 0 154 152" fill="none" xmlns="http://www.w3.org/2000/svg">
<path d="M10.2054 22.3134C13.6208 21.9887 53.8035 21.8841 59.9265 22.3134C66.3242 22.762 68.0454 25.0064 68.5124 31.2386C68.9795 37.4709 69.2818 107.488 69.2003 109.804C69.1187 112.121 69.9158 118.904 60.8667 118.475C51.8176 118.046 10.9825 118.167 9.98068 118.494C8.9789 118.821 4.88408 125.954 4.36395 125.967C3.84383 125.98 3.94693 32.6113 3.97617 31.0393C4.0054 29.4674 4.06003 22.8989 10.2054 22.3134Z" fill="white"/>
<path d="M3.72913 125.492C3.8407 110.211 3.63911 31.3508 3.63911 31.3508C3.61987 28.9657 3.83531 22.3133 10.7108 21.894C17.1485 21.5008 54.3259 21.4923 61.6138 22.1463C68.7055 22.7842 68.8463 28.7225 68.9302 32.2703C68.9302 32.2703 69.4688 103.274 69.5634 108.954C69.6288 112.878 68.9271 115.534 67.419 117.08C65.7471 118.793 63.4527 118.811 61.4291 118.826C61.1683 118.826 15.0572 118.494 10.1276 118.975C9.72518 119.014 8.46027 119.781 5.11716 125.872C4.55163 126.904 3.72374 126.217 3.72913 125.492ZM4.36851 31.3462C4.37544 32.1333 4.47546 125.533 4.47546 125.533C8.33331 118.42 9.63055 118.293 10.0576 118.252C15.0249 117.767 61.1598 118.102 61.4245 118.098C63.3057 118.083 65.4386 118.066 66.8989 116.57C68.2638 115.171 68.8994 112.683 68.8363 108.966C68.7417 103.282 68.2031 32.2872 68.2031 32.2872C68.1192 28.7679 67.9938 23.4505 61.5492 22.8711C54.279 22.2179 17.1831 22.1425 10.7677 22.6195C5.99814 22.9742 4.33158 27.3591 4.36851 31.3447V31.3462Z" fill="#5B5180"/>
<path d="M12.1749 43.2905C12.1312 43.2702 12.092 43.2412 12.0598 43.2053C12.0277 43.1693 12.0032 43.1272 11.9879 43.0814C11.9727 43.0357 11.9669 42.9873 11.971 42.9392C11.9751 42.8911 11.989 42.8444 12.0118 42.8019C12.0327 42.7587 12.062 42.7201 12.098 42.6883C12.1341 42.6566 12.1761 42.6324 12.2217 42.6172C12.2672 42.602 12.3153 42.5961 12.3632 42.5998C12.4111 42.6035 12.4577 42.6168 12.5004 42.6388C14.0515 43.4921 16.8668 41.8386 17.1061 41.6463C14.8279 38.8541 16.4136 33.8929 19.1735 34.9777C20.35 35.4394 20.8155 39.0256 18.1648 41.6794C21.0925 43.806 24.7464 42.1995 26.0544 41.2946C25.3745 40.3472 25.0127 39.2085 25.0211 38.0423C24.9726 34.1622 29.5891 34.6238 28.9005 38.317C28.662 39.5213 28.0228 40.6093 27.087 41.4039C29.6361 43.7214 33.747 42.3441 34.7227 41.6086C34.0944 40.6993 33.7635 39.6176 33.7755 38.5124C33.6586 34.2453 37.6857 34.5399 37.4918 38.227C37.4515 38.8891 37.2781 39.5364 36.9821 40.1301C36.6862 40.7237 36.2736 41.2517 35.7691 41.6824C36.5808 42.4111 39.9693 42.8589 42.0313 40.5714C41.255 39.1426 40.9711 36.6797 42.4445 35.9772C43.5609 35.4456 44.9066 36.4543 44.2526 38.5678C43.9907 39.3598 43.5482 40.08 42.96 40.6714C44.5358 42.7958 48.2059 41.8009 49.1854 41.0677C48.5653 40.2272 48.2516 39.1997 48.2967 38.1562C48.3936 34.5223 52.0614 35.0732 51.7591 38.2008C51.62 39.3364 51.0732 40.3829 50.2202 41.1454C51.1535 42.0371 55.1622 42.3957 57.3619 39.1311C57.4743 38.9649 57.6297 38.8348 57.8236 38.9002C58.0175 38.9656 58.1737 39.1949 58.0544 39.3619C57.1958 40.7412 55.8479 41.7453 54.2806 42.1733C52.7132 42.6013 51.0421 42.4216 49.6016 41.6701C48.4783 42.4988 44.4711 43.5298 42.4222 41.1877C41.4722 42.0903 40.2612 42.6695 38.9622 42.8425C37.6632 43.0155 36.3428 42.7735 35.1897 42.151C33.8778 42.9659 32.3535 43.3731 30.8099 43.3209C29.2664 43.2687 27.7731 42.7595 26.5191 41.8579C25.2236 42.7644 23.6936 43.2772 22.1134 43.3344C20.5332 43.3916 18.9701 42.9908 17.6124 42.1802C17.3477 42.3949 14.3339 44.143 12.1749 43.2905ZM18.4618 35.5194C17.4308 35.5194 16.6352 37.0582 16.7414 38.6055C16.7689 39.532 17.0859 40.4267 17.6478 41.1638C20.0699 38.7356 19.5836 35.5186 18.4618 35.5186V35.5194ZM35.666 36.1165C34.7504 36.1165 34.4734 37.3745 34.5041 38.494C34.4915 39.4319 34.7612 40.3519 35.2782 41.1346C36.116 40.367 36.6446 39.3199 36.7647 38.1901C36.8216 37.099 36.4762 36.1157 35.666 36.1157V36.1165ZM27.0424 36.0588C26.0375 36.0588 25.7343 37.1229 25.7497 38.0362C25.7376 39.0446 26.0416 40.0316 26.6192 40.8584C27.4304 40.1715 27.9824 39.2277 28.1834 38.1839C28.3434 37.3291 27.9741 36.058 27.0424 36.058V36.0588ZM50.0548 36.3665C49.3131 36.3665 49.0476 37.3106 49.0245 38.1785C48.9871 39.0423 49.2395 39.8938 49.7416 40.5976C51.7052 38.6917 51.1366 36.3642 50.0548 36.3642V36.3665ZM43.0408 36.5712C42.3683 36.5712 42.099 37.3906 42.1221 38.1154C42.1378 38.7791 42.2927 39.4321 42.5768 40.032C44.1565 38.2539 43.7256 36.5689 43.0408 36.5689V36.5712Z" fill="#9683D7"/>
<path d="M55.8861 53.8797C55.8861 53.8797 45.1913 53.6412 33.4354 53.5665C33.3416 53.5622 33.2532 53.522 33.1884 53.4541C33.1236 53.3863 33.0874 53.296 33.0874 53.2022C33.0874 53.1084 33.1236 53.0182 33.1884 52.9503C33.2532 52.8825 33.3416 52.8422 33.4354 52.8379C33.4354 52.8379 52.7608 53.0179 55.9023 53.1518C55.9988 53.1539 56.0906 53.1942 56.1574 53.2638C56.2242 53.3335 56.2606 53.4269 56.2585 53.5234C56.2565 53.62 56.2162 53.7117 56.1465 53.7785C56.0768 53.8453 55.9834 53.8817 55.8869 53.8797H55.8861Z" fill="#5B5180"/>
<path d="M24.5156 53.5028H13.6838C13.5849 53.4989 13.4915 53.4565 13.4236 53.3846C13.3557 53.3126 13.3187 53.217 13.3206 53.118C13.3206 53.0703 13.33 53.023 13.3483 52.9789C13.3666 52.9348 13.3935 52.8947 13.4273 52.861C13.4611 52.8272 13.5012 52.8005 13.5453 52.7823C13.5895 52.7641 13.6368 52.7548 13.6846 52.7549C13.6846 52.7549 18.2918 52.7618 24.5172 52.788C24.5649 52.7882 24.6122 52.7978 24.6563 52.8163C24.7004 52.8347 24.7404 52.8617 24.774 52.8956C24.8077 52.9296 24.8343 52.9698 24.8524 53.0141C24.8705 53.0583 24.8798 53.1056 24.8796 53.1534C24.8795 53.2005 24.8699 53.2471 24.8514 53.2904C24.8329 53.3338 24.8059 53.3729 24.7719 53.4055C24.7379 53.4381 24.6977 53.4635 24.6537 53.4803C24.6096 53.497 24.5627 53.5046 24.5156 53.5028Z" fill="#5B5180"/>
<path d="M55.6053 62.3534C55.6053 62.3534 14.0331 62.0749 13.683 62.0734C13.5893 62.0691 13.5008 62.0288 13.436 61.9609C13.3712 61.8931 13.335 61.8029 13.335 61.709C13.335 61.6152 13.3712 61.525 13.436 61.4572C13.5008 61.3893 13.5893 61.349 13.683 61.3447C13.683 61.3447 48.7837 61.514 55.61 61.6256C55.7065 61.6264 55.7987 61.6655 55.8664 61.7343C55.9341 61.8032 55.9716 61.8961 55.9708 61.9926C55.97 62.0891 55.9309 62.1813 55.862 62.249C55.7932 62.3167 55.7003 62.3543 55.6038 62.3534H55.6053Z" fill="#5B5180"/>
<path d="M28.3373 77.0826C27.2327 77.8352 25.9283 78.2403 24.5917 78.2456C23.2552 78.2509 21.9475 77.8564 20.837 77.1126C20.1999 77.5743 16.3113 78.9084 14.2524 76.7117C14.1962 76.6391 14.1694 76.548 14.1775 76.4566C14.1855 76.3651 14.2278 76.2801 14.2958 76.2184C14.3637 76.1568 14.4525 76.123 14.5443 76.1239C14.6361 76.1247 14.7242 76.1602 14.791 76.2232C16.6152 77.8797 19.8368 76.9341 20.3877 76.5363C19.7644 75.5376 19.4878 74.3612 19.6006 73.1894C19.876 68.8329 24.8226 68.8891 23.2276 73.7195C22.8736 74.8342 22.245 75.842 21.3995 76.6502C22.0989 77.3958 25.4843 78.3614 27.9395 76.4609C27.4305 75.5347 27.1657 74.494 27.1701 73.4371C27.1701 69.5069 32.3698 69.2869 30.9702 74.0273C30.5805 75.0862 29.8742 75.9996 28.9474 76.6433C31.2457 79.4739 35.5075 78.039 36.7447 77.1526C35.9924 76.055 35.5878 74.7563 35.5836 73.4256C35.3921 68.9145 41.0319 69.8486 39.7385 74.2519C39.3827 75.4099 38.709 76.4447 37.7942 77.2388C40.294 79.2631 43.4694 77.9351 44.7274 77.0503C43.941 76.1964 43.5032 75.0788 43.5002 73.918C43.5325 69.8301 47.8766 69.617 47.4819 73.9534C47.3347 75.1702 46.7457 76.2906 45.8269 77.1018C47.5542 78.6107 50.7965 77.5735 51.8329 76.8441C51.2876 75.9581 51.0425 74.9197 51.1343 73.8834C51.6729 68.6298 58.3445 72.3376 52.827 76.9849C53.5493 77.6324 54.4892 77.9836 55.4591 77.9683C56.429 77.953 57.3575 77.5725 58.059 76.9026C58.1227 76.8331 58.2108 76.7911 58.3048 76.7851C58.3988 76.7792 58.4915 76.8099 58.5634 76.8707C58.6353 76.9316 58.6809 77.0179 58.6905 77.1116C58.7002 77.2054 58.6733 77.2992 58.6153 77.3734C57.2873 78.9423 53.9673 79.1793 52.2438 77.4342C51.0966 78.2483 47.7381 79.3685 45.2583 77.5727C44.0976 78.4278 42.6991 78.8996 41.2576 78.9224C39.8161 78.9451 38.4034 78.5177 37.2163 77.6997C35.8668 78.7022 31.5934 80.3819 28.3373 77.0826ZM37.7318 71.192C36.8716 71.192 36.2753 72.3699 36.3192 73.3971C36.3173 74.5733 36.6655 75.7234 37.3194 76.701C39.9354 74.3743 39.5069 71.1889 37.7357 71.192H37.7318ZM45.693 71.5082C44.4219 71.5082 43.3686 74.5089 45.2967 76.6071C46.1136 75.9214 46.6386 74.9501 46.7648 73.8911C46.8671 72.8108 46.4085 71.5082 45.6968 71.5082H45.693ZM53.1509 72.0468C52.2399 72.0468 51.1651 74.2088 52.4269 76.3947C53.2708 75.7441 53.9008 74.8558 54.2358 73.8441C54.3797 73.2248 54.0688 72.046 53.1548 72.046L53.1509 72.0468ZM22.0196 70.7334C21.2186 70.7334 20.4246 71.7929 20.3338 73.2355C20.2407 74.2211 20.459 75.2111 20.9578 76.0662C21.6883 75.3501 22.2322 74.4659 22.542 73.491C22.9398 72.2884 22.6551 70.8273 22.0196 70.7334ZM29.5306 71.202C28.6073 71.192 27.9103 72.2514 27.9103 73.4333C27.9304 74.3318 28.1596 75.2132 28.5796 76.0077C29.3554 75.4657 29.9492 74.7019 30.2831 73.8164C30.6201 72.6816 30.457 71.3328 29.5306 71.202Z" fill="#9683D7"/>
<path d="M32.9339 90.0753C32.8872 90.0778 32.8406 90.0708 32.7968 90.0549C32.7529 90.0389 32.7127 90.0142 32.6787 89.9823C32.6446 89.9504 32.6173 89.9119 32.5985 89.8692C32.5797 89.8264 32.5697 89.7804 32.5692 89.7337C32.5692 89.6371 32.6075 89.5445 32.6757 89.4761C32.7439 89.4077 32.8365 89.3692 32.9331 89.369C43.9519 89.3628 55.6055 89.3467 55.6055 89.3467V90.0753H32.9339Z" fill="#5B5180"/>
<path d="M28.3735 90.0992C13.7853 90.0954 13.6776 90.0769 13.633 90.0708C13.5399 90.0572 13.4556 90.0081 13.3979 89.9338C13.3402 89.8595 13.3135 89.7657 13.3235 89.6721C13.3334 89.5785 13.3792 89.4925 13.4513 89.4319C13.5233 89.3714 13.616 89.3412 13.7099 89.3475C14.0454 89.3598 21.8057 89.3675 28.3719 89.3706C28.4212 89.3683 28.4704 89.3761 28.5165 89.3934C28.5627 89.4107 28.6049 89.4371 28.6406 89.4712C28.6762 89.5052 28.7046 89.5462 28.724 89.5915C28.7434 89.6368 28.7534 89.6856 28.7534 89.7349C28.7534 89.7842 28.7434 89.833 28.724 89.8783C28.7046 89.9237 28.6762 89.9646 28.6406 89.9986C28.6049 90.0327 28.5627 90.0592 28.5165 90.0765C28.4704 90.0937 28.4212 90.1015 28.3719 90.0992H28.3735Z" fill="#5B5180"/>
<path d="M62.2308 103.747L59.5617 103.306L58.8008 100.887C58.779 100.819 58.7377 100.758 58.6819 100.713C58.6261 100.669 58.5584 100.641 58.4871 100.634C58.4158 100.628 58.3441 100.642 58.281 100.676C58.2179 100.71 58.1661 100.762 58.1321 100.825L56.8941 103.141L54.4559 103.322C54.3839 103.328 54.3153 103.355 54.2586 103.399C54.2019 103.444 54.1597 103.504 54.1374 103.573C54.1151 103.641 54.1136 103.715 54.1332 103.785C54.1528 103.854 54.1925 103.916 54.2474 103.963L56.0809 105.517L55.2422 107.796C55.2167 107.864 55.2117 107.937 55.2279 108.008C55.2442 108.078 55.2809 108.142 55.3334 108.191C55.386 108.24 55.452 108.273 55.5231 108.285C55.5943 108.297 55.6673 108.288 55.7331 108.258L58.186 107.158C60.5166 108.62 60.3934 108.57 60.5427 108.57C60.5994 108.57 60.6552 108.557 60.7059 108.531C60.7565 108.506 60.8005 108.469 60.8344 108.424C60.8683 108.378 60.8912 108.326 60.9012 108.27C60.9112 108.214 60.908 108.157 60.892 108.102L60.2126 105.81L62.367 104.415C62.4297 104.376 62.4789 104.318 62.508 104.25C62.5371 104.182 62.5448 104.107 62.53 104.034C62.5152 103.961 62.4787 103.895 62.4252 103.844C62.3718 103.792 62.304 103.759 62.2308 103.747ZM59.5886 105.343C59.522 105.386 59.4709 105.448 59.4432 105.522C59.4154 105.596 59.4125 105.677 59.4348 105.753L59.9179 107.382C58.2829 106.358 58.3576 106.382 58.2129 106.382C58.1029 106.382 58.2183 106.344 56.2224 107.238L56.8495 105.532C56.8754 105.462 56.8791 105.385 56.8601 105.313C56.8411 105.241 56.8004 105.176 56.7433 105.128L55.3946 103.985L57.145 103.855C57.2062 103.85 57.2653 103.83 57.3167 103.796C57.3682 103.763 57.4105 103.717 57.4397 103.663L58.363 101.934L58.9308 103.741C58.9509 103.805 58.9884 103.862 59.0392 103.906C59.09 103.951 59.1521 103.98 59.2185 103.991L61.1798 104.315L59.5886 105.343Z" fill="#5B5180"/>
<path d="M51.3928 103.746L48.6999 103.301L47.6627 100.87C47.6345 100.805 47.5878 100.749 47.5282 100.71C47.4687 100.67 47.3989 100.649 47.3276 100.649C47.2563 100.649 47.1865 100.67 47.127 100.71C47.0674 100.749 47.0207 100.805 46.9925 100.87L46.0261 103.159L43.4594 103.555C43.3873 103.566 43.3203 103.599 43.2668 103.648C43.2133 103.698 43.1759 103.762 43.1593 103.833C43.1428 103.904 43.1478 103.978 43.1739 104.046C43.1999 104.114 43.2458 104.173 43.3055 104.215L45.2236 105.537L44.2657 107.912C44.2398 107.98 44.2346 108.053 44.2509 108.124C44.2672 108.195 44.3041 108.259 44.3571 108.308C44.41 108.358 44.4765 108.391 44.5481 108.402C44.6197 108.414 44.6931 108.404 44.7589 108.373L47.3495 107.153C49.6801 108.615 49.5539 108.563 49.7024 108.563C49.7591 108.563 49.8149 108.549 49.8656 108.524C49.9162 108.499 49.9602 108.462 49.9941 108.416C50.028 108.371 50.0509 108.318 50.0609 108.262C50.0709 108.207 50.0677 108.149 50.0517 108.095L49.3723 105.803L51.5267 104.408C51.5869 104.368 51.6339 104.311 51.6615 104.244C51.6891 104.177 51.6962 104.103 51.6819 104.032C51.6675 103.961 51.6323 103.896 51.5809 103.845C51.5294 103.794 51.4639 103.76 51.3928 103.746Z" fill="#FFEEA2"/>
<path d="M41.0174 103.706L38.3421 103.305L37.545 100.898C37.5221 100.83 37.4797 100.77 37.4232 100.726C37.3667 100.683 37.2986 100.656 37.2272 100.651C37.1558 100.645 37.0844 100.66 37.0217 100.695C36.9591 100.73 36.908 100.782 36.8748 100.846L35.6722 103.179L33.237 103.398C33.1652 103.405 33.097 103.432 33.041 103.478C32.9851 103.523 32.9439 103.584 32.9226 103.653C32.9014 103.722 32.901 103.796 32.9217 103.865C32.9423 103.934 32.983 103.996 33.0385 104.042L34.8951 105.568L34.0919 107.86C34.0684 107.927 34.0653 108 34.083 108.069C34.1007 108.139 34.1384 108.201 34.1914 108.249C34.2443 108.297 34.3103 108.329 34.3809 108.34C34.4516 108.351 34.5239 108.34 34.5889 108.31L37.0256 107.174C39.3916 108.607 39.2569 108.549 39.3977 108.549C39.4548 108.549 39.511 108.535 39.5619 108.51C39.6128 108.484 39.6569 108.446 39.6907 108.401C39.7244 108.355 39.7469 108.301 39.7563 108.245C39.7657 108.189 39.7618 108.131 39.7448 108.077L39.0323 105.795L41.1674 104.368C41.2281 104.327 41.275 104.268 41.302 104.2C41.3289 104.132 41.3347 104.057 41.3185 103.986C41.3022 103.914 41.2648 103.849 41.2111 103.799C41.1574 103.749 41.0899 103.717 41.0174 103.706Z" fill="#FFEEA2"/>
<path d="M29.2661 103.708L26.8132 103.302L25.8506 100.862C25.8242 100.795 25.7788 100.738 25.7201 100.697C25.6614 100.656 25.592 100.634 25.5205 100.632C25.449 100.63 25.3786 100.65 25.318 100.688C25.2574 100.726 25.2093 100.781 25.1797 100.846L24.1371 103.162L21.6919 103.571C21.6213 103.583 21.5557 103.616 21.5035 103.665C21.4512 103.714 21.4146 103.777 21.3982 103.847C21.3818 103.917 21.3863 103.99 21.4111 104.057C21.436 104.124 21.4802 104.183 21.538 104.225L23.3423 105.533L22.5114 107.793C22.4858 107.86 22.4809 107.934 22.4971 108.004C22.5133 108.074 22.55 108.138 22.6026 108.188C22.6551 108.237 22.7211 108.27 22.7923 108.282C22.8634 108.293 22.9365 108.284 23.0022 108.254L25.4551 107.155L27.618 108.511C27.6806 108.549 27.7531 108.567 27.8263 108.563C27.8994 108.559 27.9696 108.533 28.0278 108.489C28.0859 108.444 28.1294 108.383 28.1523 108.314C28.1753 108.244 28.1768 108.169 28.1566 108.099L27.4733 105.791L29.4184 104.36C29.4761 104.318 29.5201 104.26 29.545 104.193C29.5698 104.126 29.5744 104.053 29.5582 103.984C29.5419 103.914 29.5056 103.851 29.4536 103.802C29.4017 103.753 29.3364 103.72 29.2661 103.708Z" fill="#FFEEA2"/>
<path d="M18.772 103.852L16.0791 103.45L15.0957 101.025C15.0687 100.959 15.0228 100.902 14.9636 100.861C14.9044 100.821 14.8346 100.799 14.763 100.798C14.6913 100.797 14.6209 100.817 14.5607 100.856C14.5004 100.895 14.4529 100.95 14.424 101.016L13.4107 103.328L10.9917 103.545C10.9196 103.551 10.8511 103.579 10.7949 103.625C10.7386 103.67 10.6972 103.731 10.6758 103.8C10.6544 103.87 10.6541 103.944 10.6749 104.013C10.6956 104.082 10.7366 104.144 10.7924 104.19L12.649 105.715L11.8457 108.008C11.8224 108.075 11.8194 108.148 11.8372 108.217C11.855 108.287 11.8928 108.349 11.9458 108.397C11.9989 108.445 12.0649 108.476 12.1356 108.487C12.2063 108.498 12.2786 108.488 12.3435 108.458L14.7795 107.322C17.1462 108.755 17.0108 108.697 17.1516 108.697C17.2087 108.697 17.2651 108.684 17.316 108.658C17.367 108.632 17.4112 108.595 17.4451 108.549C17.479 108.503 17.5015 108.449 17.5109 108.393C17.5204 108.337 17.5164 108.279 17.4994 108.225L16.7854 105.942L18.9205 104.515C18.9815 104.474 19.0286 104.416 19.0558 104.348C19.083 104.279 19.089 104.204 19.073 104.133C19.0569 104.061 19.0196 103.996 18.9659 103.946C18.9122 103.896 18.8446 103.863 18.772 103.852Z" fill="#FFEEA2"/>
<path d="M102.184 63.5043C102.178 63.0448 102.326 62.5965 102.603 62.2296C102.879 61.8628 103.27 61.598 103.713 61.4769C107.249 60.579 113.899 60.8321 115.477 61.4769C115.754 61.5618 115.995 61.7364 116.162 61.9731C116.329 62.2099 116.413 62.4954 116.4 62.7849C116.4 63.8621 113.649 67.6007 108.848 67.6007C104.657 67.6037 102.184 64.6776 102.184 63.5043Z" fill="#FFEEA2"/>
<path d="M123.985 81.6426C122.041 82.2443 110.812 85.7205 107.862 87.0346C108.237 89.2621 110.863 104.47 113.748 110.534C118.504 110.453 123.231 109.781 127.822 108.534C129.612 99.3937 128.26 89.9171 123.985 81.6426ZM138.604 88.2942C134.616 68.6156 124.627 62.351 116.873 61.7124C117.047 62.0444 117.133 62.415 117.125 62.7896C117.125 64.7201 113.635 68.3294 108.844 68.334C104.039 68.334 101.454 65.381 101.454 63.5059C101.446 63.1263 101.519 62.7493 101.667 62.3998C101.816 62.0503 102.037 61.7363 102.316 61.4785C99.8413 61.6139 95.848 62.6326 91.7563 66.9837C90.9222 72.8266 89.0425 83.7154 85.8318 90.8863C85.791 90.9724 85.7182 91.0391 85.6288 91.0721C85.5395 91.105 85.4408 91.1017 85.3539 91.0627C85.267 91.0237 85.1989 90.9523 85.1641 90.8636C85.1293 90.775 85.1306 90.6763 85.1678 90.5886C88.2162 83.7731 90.0559 73.5368 90.9299 67.5969C90.9299 67.5969 91.1884 64.5192 91.2877 63.042C91.2988 62.879 91.2767 62.7154 91.2229 62.5611C91.1691 62.4068 91.0846 62.2651 90.9745 62.1443C90.8645 62.0235 90.7311 61.9263 90.5825 61.8584C90.4339 61.7905 90.2731 61.7534 90.1097 61.7493C88.4893 61.7055 85.6817 61.6516 84.196 61.7493C83.9589 61.7655 83.7318 61.8511 83.543 61.9955C83.3542 62.1398 83.212 62.3365 83.1342 62.5611C82.127 65.4618 78.2977 76.4544 76.4788 81.1809C74.3729 86.6538 71.9323 93.1615 76.1418 96.0522C80.1935 98.8367 86.1996 94.0209 90.6245 88.8874C91.4062 85.2601 91.9765 81.5905 92.3326 77.8971C92.3346 77.848 92.3466 77.7998 92.3677 77.7554C92.3889 77.7111 92.4187 77.6714 92.4556 77.6389C92.4924 77.6064 92.5354 77.5816 92.5821 77.5662C92.6287 77.5507 92.678 77.5448 92.727 77.5488C92.776 77.5529 92.8236 77.5668 92.8671 77.5897C92.9105 77.6126 92.9489 77.6441 92.9799 77.6822C93.0109 77.7204 93.0339 77.7644 93.0475 77.8116C93.061 77.8588 93.0649 77.9083 93.0589 77.9571C92.4334 84.4388 91.1333 90.8375 89.1795 97.0494C88.287 100.868 87.276 104.897 86.5743 106.759C86.5743 106.759 97.6662 122.752 126.704 113.177C130.072 101.751 128.678 90.4678 123.982 81.6426C123.468 80.6668 122.893 79.7244 122.261 78.8211C122.202 78.7439 122.177 78.6467 122.19 78.5509C122.204 78.4551 122.255 78.3685 122.332 78.3102C122.409 78.252 122.507 78.2268 122.602 78.2402C122.698 78.2536 122.785 78.3046 122.843 78.3818C125.022 81.5683 126.649 85.0986 127.656 88.8251C129.879 96.7004 129.84 105.042 127.543 112.896C127.48 113.176 126.542 117.674 125.934 120.52C125.877 120.789 125.914 121.069 126.037 121.315C126.16 121.561 126.363 121.758 126.612 121.875C128.957 122.948 131.532 123.418 134.104 123.243C134.3 123.23 134.49 123.169 134.657 123.066C134.824 122.963 134.964 122.821 135.064 122.652C136.594 120.08 142.65 108.257 138.604 88.2942H138.604ZM123.985 81.6426C122.041 82.2443 110.812 85.7205 107.862 87.0346C108.237 89.2621 110.863 104.47 113.748 110.534C118.504 110.453 123.231 109.781 127.822 108.534C129.612 99.3937 128.26 89.9171 123.985 81.6426Z" fill="#FFEEA2"/>
<path d="M123.769 81.251C128.464 89.6846 129.878 99.5551 127.74 108.968C127.74 108.968 116.382 111.43 113.52 110.871C113.52 110.871 109.288 101.27 107.319 86.7538C107.319 86.7515 118.811 82.3282 123.769 81.251Z" fill="white"/>
<path d="M135.494 77.8802C135.494 77.8802 140.939 91.3265 139.856 105.755C143.114 104.618 146.295 103.27 149.379 101.721C148.484 93.1359 146.543 84.6928 143.6 76.5791C140.874 76.8532 138.168 77.2877 135.494 77.8802Z" fill="white"/>
<path d="M107.375 116.01C97.704 115.382 86.5775 106.759 86.5775 106.759L80.5214 122.26C97.7502 133.932 120.779 131.271 123.074 131.098L126.707 113.176C120.968 115.065 113.402 116.401 107.375 116.01Z" fill="#5B5180"/>
<path d="M112.387 115.982L120.649 123.989C117.394 124.228 114.125 124.191 110.877 123.878C111.317 121.259 111.719 118.634 112.084 116.004C111.835 116.016 111.589 116.026 111.346 116.035C110.982 118.631 110.582 121.221 110.147 123.806C106.112 123.38 102.112 122.677 98.174 121.7C98.5431 120.048 98.8971 118.392 99.2358 116.733C100.276 116.287 102.327 115.063 102.327 115.063C91.5494 110.534 87.2668 107.257 87.2668 107.257L81.4792 122.129C81.4792 122.129 85.0247 121.196 89.6158 119.95C90.7646 120.355 93.5529 121.29 97.31 122.237C96.8393 124.523 96.2431 126.782 95.5242 129.003C95.5206 129.012 95.5178 129.022 95.5157 129.031C95.7511 129.094 95.9866 129.157 96.2213 129.217C96.7598 127.696 97.4369 124.976 98.0194 122.414C101.97 123.392 105.982 124.099 110.029 124.53C109.684 126.782 109.193 129.01 108.558 131.198C108.81 131.216 109.061 131.233 109.309 131.25C109.925 129.065 110.408 126.844 110.758 124.601C114.242 125.098 117.78 125.092 121.263 124.583L123.005 126.264L125.745 113.486C121.386 114.757 116.912 115.593 112.387 115.982ZM97.4677 121.522C95.2414 120.963 93.0368 120.322 90.8584 119.598C93.4228 118.887 95.9484 118.042 98.4249 117.068C98.2171 118.076 97.8693 119.728 97.4677 121.524V121.522Z" fill="white"/>
<path d="M85.3765 61.8062L89.7814 61.6377C89.7456 60.7343 89.9908 59.8422 90.4831 59.084C91.2825 57.976 95.1096 54.0774 94.8326 53.6265C94.2225 52.6347 92.1158 55.3092 91.3949 55.1699C90.3077 54.9599 88.5188 43.4694 87.5724 43.5325C86.626 43.5956 88.3564 50.8766 87.8802 50.982C87.4039 51.0874 85.4042 43.1748 84.6255 43.4064C83.8469 43.6379 86.3729 50.982 85.9335 51.1505C85.4942 51.319 82.8397 45.0683 82.1034 45.4476C81.3671 45.8269 84.3101 52.0123 83.8892 52.2431C83.4683 52.4739 81.3548 49.5455 80.9008 49.9918C80.4468 50.438 83.5314 55.3161 83.8053 55.9263C84.0793 56.5364 85.5381 59.751 85.3765 61.8062Z" fill="white"/>
<path d="M85.4463 62.1842C85.3499 62.179 85.259 62.1377 85.1915 62.0686C85.1241 61.9995 85.0852 61.9075 85.0824 61.811C85.0824 61.7848 85.441 59.2004 83.0888 55.3479C80.6313 51.3193 80.1528 50.0297 80.3443 49.5704C80.8168 48.4393 83.3851 51.5462 83.4989 51.6716C83.4443 51.5432 80.5829 45.3455 81.9278 44.9608C83.1689 44.6061 85.1817 49.8258 85.6102 50.5652C85.5002 50.189 83.1712 43.4097 84.4723 43.0111C85.661 42.6472 87.4468 49.4742 87.7807 50.2913C87.7492 50.1374 86.3873 42.9973 87.473 43.0927C89.0495 43.2319 90.0244 52.9473 91.397 54.8024C91.951 54.9209 94.3708 52.0479 95.1733 53.4736C95.6349 54.2915 93.5483 55.3387 90.7992 59.2742C90.3778 60.0037 90.1529 60.8301 90.1467 61.6725C90.1427 61.7576 90.109 61.8386 90.0513 61.9014C89.9936 61.9641 89.9157 62.0046 89.8312 62.0157C89.258 62.0918 85.6949 62.1842 85.4463 62.1842ZM81.2592 50.3606C82.2109 52.5457 85.7095 57.5561 85.808 61.4471C86.9529 61.4194 88.681 61.3701 89.4373 61.317C89.5315 60.406 89.8249 59.5268 90.2967 58.7418C93.4013 54.7916 94.7155 53.9053 94.4731 53.7075C94.1938 53.4767 93.5414 54.2461 93.1651 54.5393C92.3226 55.1925 91.5947 55.7565 91.0315 55.4287C90.0959 54.884 88.0162 43.9467 87.6946 43.929C87.4637 43.9167 88.9002 51.3962 88.2124 51.5247C87.4637 51.664 87.1575 50.5491 86.018 47.1783C85.6699 46.0312 85.2418 44.91 84.7369 43.8228C84.5592 44.6692 87.1183 51.9155 86.3666 52.1325C85.2517 52.4511 82.6818 45.8372 82.3156 45.9041C81.7101 46.0141 85.0909 52.942 84.4553 53.2343C84.1045 53.3928 81.6801 50.7599 81.2592 50.3606Z" fill="#5B5180"/>
<path d="M88.3787 57.8075C88.3182 57.8074 88.2587 57.7922 88.2056 57.7634C88.1524 57.7347 88.1072 57.6931 88.0741 57.6425C88.041 57.5919 88.021 57.5339 88.0158 57.4736C88.0107 57.4134 88.0207 57.3528 88.0448 57.2973C88.3078 56.7118 88.7069 56.1977 89.2089 55.7977C89.2481 55.7704 89.2924 55.7511 89.3391 55.7409C89.3859 55.7306 89.4341 55.7297 89.4812 55.7381C89.5283 55.7466 89.5733 55.7642 89.6135 55.79C89.6538 55.8158 89.6886 55.8493 89.7159 55.8885C89.7433 55.9278 89.7626 55.972 89.7728 56.0188C89.7831 56.0655 89.784 56.1138 89.7756 56.1609C89.7671 56.2079 89.7495 56.2529 89.7237 56.2932C89.6979 56.3334 89.6644 56.3682 89.6251 56.3956C89.2319 56.7169 88.9194 57.1259 88.7126 57.5897C88.684 57.6544 88.6372 57.7095 88.578 57.7481C88.5187 57.7868 88.4495 57.8074 88.3787 57.8075Z" fill="#5B5180"/>
<path d="M127.566 122.272C128.862 122.875 130.27 123.198 131.699 123.22C131.699 123.22 132.607 125.679 129.345 128.349C129.345 128.349 128.461 129.457 129.472 131.646C130.482 133.835 128.714 132.972 128.588 132.783C128.092 132.314 127.718 131.732 127.498 131.087C127.279 130.441 127.219 129.752 127.325 129.079C126.927 129.662 126.655 130.321 126.524 131.014C126.394 131.708 126.408 132.421 126.567 133.109C127.029 135.666 125.644 133.751 125.558 133.603C125.141 132.705 124.87 131.746 124.757 130.762C124.442 131.848 124.328 132.982 124.421 134.108C124.48 135.33 123.58 135.052 123.179 134.108C122.779 132.461 122.726 130.748 123.022 129.079C122.466 130.342 122.046 131.661 121.769 133.014C121.407 134.904 119.686 131.244 122.043 127.142C122.043 127.142 120.498 127.538 120.486 126.868C120.473 126.198 122.59 125.269 124.19 125.329C124.19 125.332 126.988 124.722 127.566 122.272Z" fill="white"/>
<path d="M132.221 123.093C132.2 123.011 132.15 122.938 132.08 122.889C132.011 122.839 131.926 122.816 131.841 122.822C130.436 122.856 129.041 122.571 127.763 121.988C127.718 121.967 127.67 121.955 127.621 121.953C127.572 121.95 127.523 121.958 127.477 121.975C127.431 121.992 127.389 122.018 127.354 122.052C127.318 122.085 127.289 122.126 127.27 122.171C127.079 122.754 126.759 123.287 126.334 123.73C125.909 124.172 125.389 124.513 124.814 124.727C124.705 124.741 119.812 125.426 120.1 127.078C120.21 127.711 121.49 127.547 121.49 127.547C120.526 128.646 119.778 133.834 121.524 134.004C122.052 134.055 122.61 130.473 122.668 130.241C122.61 130.51 121.919 135.165 124.251 135.165C125.064 135.165 124.662 132.675 124.704 132.102C124.841 132.996 125.245 133.827 125.862 134.488C126.308 134.883 127.407 134.898 126.976 133.257C126.676 132.215 126.693 131.109 127.024 130.077C127.056 130.858 127.309 131.614 127.752 132.258C129.456 134.606 130.466 132.824 129.975 131.883C128.77 129.575 129.532 128.729 129.596 128.664C133.031 126.304 132.257 123.222 132.221 123.093ZM123.022 125.799C122.671 126.113 122.337 126.444 122.021 126.792C118.964 127.24 122.755 125.613 123.022 125.799ZM129.331 132.224C130.177 133.847 126.815 131.416 127.869 128.592C127.891 128.515 127.886 128.433 127.857 128.359C127.827 128.285 127.774 128.222 127.706 128.181C127.637 128.14 127.557 128.122 127.477 128.131C127.398 128.14 127.323 128.175 127.266 128.23C127.189 128.303 125.441 130.043 126.265 133.433C126.31 133.603 126.336 133.777 126.342 133.953C126.111 133.723 125.924 133.453 125.793 133.154C125.459 132.402 125.291 131.587 125.302 130.764C125.313 129.942 125.502 129.131 125.856 128.388C125.893 128.304 125.898 128.209 125.868 128.122C125.838 128.035 125.776 127.963 125.695 127.919C125.614 127.876 125.52 127.864 125.431 127.888C125.342 127.911 125.265 127.967 125.215 128.044C124.155 129.857 123.751 131.98 124.07 134.055C124.126 134.375 123.923 134.567 123.679 134.209C123.434 133.851 122.467 131.86 124.256 127.801C124.415 127.44 123.889 127.167 123.602 127.417C122.021 128.818 121.534 132.769 121.409 133.121C121.196 132.489 121.118 131.819 121.178 131.154C121.187 130.207 121.411 129.274 121.832 128.425C122.254 127.576 122.862 126.834 123.611 126.253C123.73 126.165 124.747 125.561 125.117 125.385C125.717 125.16 126.263 124.814 126.721 124.368C127.18 123.921 127.542 123.385 127.783 122.792C128.98 123.295 130.263 123.558 131.561 123.567C131.644 124.316 131.615 126.399 129.163 128.076C129.155 128.081 129.147 128.086 129.141 128.093C129.088 128.14 127.778 129.242 129.331 132.221V132.224Z" fill="#5B5180"/>
<path d="M140.098 105.301C143.178 104.251 146.179 102.984 149.078 101.508C148.257 92.6795 144.133 79.0616 143.479 76.9411C140.849 77.2442 138.238 77.6917 135.657 78.2814C135.563 78.3034 135.464 78.287 135.382 78.236C135.3 78.185 135.241 78.1035 135.219 78.0094C135.197 77.9154 135.214 77.8164 135.265 77.7344C135.316 77.6524 135.397 77.594 135.491 77.572C138.201 76.9507 140.944 76.4882 143.708 76.1871C143.791 76.1795 143.873 76.2004 143.942 76.2465C144.011 76.2926 144.063 76.361 144.087 76.4402C144.136 76.5941 148.991 92.0778 149.826 101.687C149.833 101.759 149.817 101.831 149.783 101.895C149.748 101.958 149.695 102.01 149.63 102.043C146.621 103.579 143.507 104.9 140.31 105.995C140.221 106.015 140.127 106.001 140.048 105.955C139.968 105.909 139.909 105.834 139.882 105.746C139.856 105.659 139.863 105.564 139.903 105.481C139.943 105.399 140.012 105.334 140.098 105.301Z" fill="#5B5180"/>
<path d="M144.497 100.149C144.409 100.149 144.324 100.117 144.258 100.06C144.192 100.002 144.149 99.9228 144.137 99.836C143.279 93.884 142.017 87.9972 140.36 82.2164C140.336 82.125 140.348 82.0276 140.394 81.9449C140.44 81.8623 140.517 81.8008 140.607 81.7734C140.698 81.746 140.796 81.7549 140.88 81.7983C140.964 81.8416 141.028 81.9159 141.058 82.0056C142.725 87.8234 143.994 93.7477 144.858 99.7375C144.864 99.7889 144.86 99.8412 144.845 99.8908C144.83 99.9404 144.805 99.9862 144.771 100.025C144.736 100.064 144.694 100.095 144.647 100.117C144.6 100.138 144.549 100.149 144.497 100.149Z" fill="#5B5180"/>
<path d="M119.496 106.799C119.418 106.799 119.342 106.773 119.279 106.727C119.216 106.68 119.17 106.614 119.147 106.54C117.645 101.531 115.874 92.8732 115.857 92.7863C115.847 92.7394 115.847 92.6912 115.856 92.6443C115.865 92.5973 115.883 92.5527 115.91 92.5128C115.936 92.4729 115.97 92.4387 116.01 92.4119C116.049 92.3852 116.094 92.3665 116.141 92.3569C116.187 92.3474 116.236 92.3472 116.283 92.3563C116.33 92.3654 116.374 92.3836 116.414 92.41C116.454 92.4363 116.488 92.4703 116.515 92.5099C116.542 92.5495 116.56 92.594 116.57 92.6409C116.588 92.7278 118.352 101.353 119.845 106.33C119.862 106.385 119.865 106.442 119.855 106.498C119.845 106.554 119.823 106.607 119.789 106.652C119.755 106.698 119.71 106.735 119.66 106.76C119.609 106.786 119.553 106.799 119.496 106.799Z" fill="#5B5180"/>
<path d="M124.294 105.537C124.216 105.536 124.14 105.511 124.078 105.465C124.015 105.418 123.969 105.353 123.947 105.278C122.529 100.608 120.479 91.9587 120.458 91.8718C120.436 91.7778 120.452 91.6789 120.503 91.5967C120.553 91.5145 120.635 91.4559 120.728 91.4336C120.822 91.4114 120.921 91.4274 121.004 91.4781C121.086 91.5288 121.144 91.6101 121.167 91.7041C121.187 91.791 123.232 100.418 124.643 105.066C124.659 105.121 124.663 105.179 124.653 105.235C124.644 105.291 124.621 105.344 124.587 105.389C124.553 105.435 124.509 105.472 124.458 105.498C124.407 105.523 124.351 105.537 124.294 105.537Z" fill="#5B5180"/>
<path d="M115.246 90.0892C115.163 90.089 115.083 90.061 115.019 90.0096C114.955 89.9582 114.909 89.8865 114.891 89.8062C114.873 89.7259 114.882 89.6417 114.917 89.5673C114.953 89.493 115.012 89.4328 115.086 89.3967C115.445 89.2249 115.791 89.0285 116.123 88.8088C115.267 88.4813 114.394 88.2018 113.507 87.9717C113.414 87.9465 113.334 87.8853 113.286 87.8015C113.238 87.7178 113.225 87.6183 113.25 87.5251C113.275 87.4318 113.337 87.3524 113.42 87.3043C113.504 87.2561 113.604 87.2433 113.697 87.2685C117.122 88.1918 117.018 88.5034 117.035 88.8073C116.558 89.3806 115.942 89.822 115.246 90.0892Z" fill="#9683D7"/>
<path d="M119.561 88.9297C120.028 88.7294 120.476 88.4876 120.9 88.2073C120.037 87.971 119.158 87.7974 118.269 87.6879C118.173 87.6749 118.087 87.6245 118.028 87.5477C117.97 87.4708 117.944 87.3739 117.957 87.2782C117.97 87.1825 118.02 87.0958 118.097 87.0373C118.174 86.9788 118.271 86.9532 118.367 86.9662C121.797 87.4278 121.797 87.8487 121.797 88.1265C121.797 88.295 121.797 88.742 119.853 89.5968C119.765 89.6356 119.665 89.6376 119.575 89.6025C119.485 89.5674 119.412 89.4979 119.374 89.4095C119.335 89.321 119.333 89.2208 119.368 89.1308C119.403 89.0408 119.472 88.9685 119.561 88.9297Z" fill="#9683D7"/>
<path d="M113.748 110.534C112.828 108.437 112.078 106.269 111.507 104.052C112.327 103.866 113.476 103.55 113.868 103.444C114.72 103.213 114.479 102.29 114.253 101.3C114.082 100.541 112.201 93.6358 111.97 92.9833C111.738 92.3309 111.538 92.3016 110.906 92.3501C110.504 92.3809 109.598 92.5286 108.891 92.6648C108.524 90.7922 108.18 88.9152 107.859 87.0342C110.808 85.7216 122.038 82.2438 123.981 81.6421C123.856 81.4113 123.737 81.1951 123.623 80.9912C121.213 81.7337 109.824 85.2676 107.297 86.4933C107.227 86.5274 107.169 86.5832 107.133 86.6525C107.097 86.7217 107.084 86.8008 107.095 86.878C107.102 86.9111 107.508 89.3994 108.173 92.8125C108.102 92.8294 106.989 93.0695 107.179 94.0374C107.199 94.1398 107.289 94.5352 107.424 95.1077C106.637 95.4615 105.993 96.0702 105.595 96.8354C105.197 97.6006 105.068 98.4776 105.23 99.3248C105.87 102.083 109.001 101.98 109.091 101.975C109.283 102.737 109.431 103.3 109.494 103.487C109.743 104.234 110.151 104.283 110.779 104.19C111.377 106.545 112.182 108.843 113.185 111.056C113.215 111.116 113.261 111.166 113.318 111.202C113.374 111.238 113.439 111.257 113.506 111.258C118.281 111.123 123.027 110.475 127.663 109.325C127.718 109.058 127.769 108.792 127.817 108.528C123.229 109.776 118.503 110.45 113.748 110.534ZM105.949 99.1725C105.825 98.5139 105.92 97.8328 106.219 97.2332C106.518 96.6336 107.005 96.1484 107.606 95.8517C107.972 97.3905 108.503 99.5903 108.914 101.247C108.254 101.311 107.593 101.137 107.049 100.756C106.506 100.376 106.116 99.8146 105.949 99.1725Z" fill="#5B5180"/>
<path d="M98.6334 40.6075C98.7765 40.0089 101.609 37.6191 104.218 32.1055C104.218 32.1055 110.304 32.8995 113.309 32.4425C115.254 35.3398 116.639 38.5759 117.392 41.9832C118.571 47.5084 118.925 54.2008 112.794 56.2213C112.306 58.5932 112.6 61.0594 113.632 63.2499C113.632 63.2499 109.508 68.2164 104.289 63.5576C105.541 61.3552 105.959 58.7757 105.467 56.2905C102.726 54.6342 100.562 52.1754 99.2659 49.2473C99.2659 49.2473 95.8989 51.1616 95.2357 48.3494C94.2431 44.1407 99.5183 45.7118 99.6868 45.0663C99.8553 44.4207 98.508 41.1407 98.6334 40.6075Z" fill="white"/>
<path d="M98.2172 47.8698C97.9009 47.8261 97.5802 47.8261 97.2639 47.8698C97.2168 47.8778 97.1685 47.8765 97.1219 47.8659C97.0753 47.8553 97.0312 47.8356 96.9922 47.8079C96.9532 47.7803 96.92 47.7452 96.8945 47.7047C96.8691 47.6643 96.8518 47.6192 96.8438 47.572C96.8358 47.5249 96.8371 47.4766 96.8477 47.43C96.8583 47.3834 96.878 47.3393 96.9057 47.3003C96.9333 47.2613 96.9684 47.2281 97.0089 47.2027C97.0493 47.1772 97.0944 47.16 97.1416 47.1519C97.5332 47.0952 97.931 47.0952 98.3226 47.1519C98.4175 47.1666 98.5028 47.2181 98.5599 47.2954C98.617 47.3726 98.6412 47.4693 98.6273 47.5643C98.6134 47.6594 98.5625 47.745 98.4856 47.8027C98.4088 47.8604 98.3123 47.8853 98.2172 47.8721V47.8698Z" fill="#5B5180"/>
<path d="M123.273 48.7493C122.239 43.6342 116.621 28.8168 109.983 25.0066C104.681 21.9628 101.037 25.3059 100.694 25.9122C102.303 27.8237 103.643 29.9465 104.676 32.2214C108.26 33.2371 113.351 32.9455 113.351 32.9455C115.747 37.0294 117.234 41.5823 117.71 46.2933C117.92 49.7557 117.265 51.6023 117.132 51.91C116.564 53.2806 115.563 54.427 114.281 55.1731C112.999 55.9191 111.507 56.2235 110.035 56.0395C109.941 56.0296 109.847 56.0565 109.773 56.1146C109.698 56.1727 109.649 56.2575 109.636 56.351C109.623 56.4445 109.646 56.5395 109.702 56.616C109.757 56.6925 109.84 56.7446 109.933 56.7612C110.706 56.8397 111.487 56.7968 112.247 56.6342C111.96 58.9305 112.337 61.261 113.334 63.3497C108.968 66.7482 105.632 64.2838 104.769 63.512C106.485 60.936 105.938 56.2534 105.913 56.0487C105.904 55.9868 105.88 55.9281 105.842 55.878C105.805 55.8279 105.756 55.7879 105.699 55.7617C101.578 53.7666 100.219 49.5294 99.4051 48.9378C99.0974 48.7177 98.7688 49.0709 98.0025 49.3871C97.693 49.4912 97.3619 49.5135 97.0413 49.4516C96.7207 49.3897 96.4216 49.2458 96.1731 49.034C95.9246 48.8222 95.7352 48.5496 95.6234 48.2428C95.5116 47.9361 95.4811 47.6056 95.535 47.2835C95.8527 45.5954 97.7363 45.6 98.3672 45.8216C99.0289 46.0525 99.8291 46.2417 100.107 45.0638C100.244 44.4936 99.5344 42.08 99.2305 41.0867C99.1914 40.9565 99.1886 40.8181 99.2224 40.6865C99.2562 40.5548 99.3252 40.4349 99.4221 40.3396C101.473 38.1607 103.073 35.5982 104.131 32.7993C103.099 30.439 101.728 28.2424 100.061 26.2793C90.3491 26.3308 89.6697 34.8905 90.3983 40.1495C91.2993 46.6549 97.4 56.3149 99.1181 58.3277C99.2193 58.4462 99.3497 58.5363 99.4964 58.5889C99.6431 58.6415 99.801 58.6549 99.9545 58.6278C101.788 58.3213 103.572 57.7652 105.255 56.9751C105.337 58.4793 105.322 61.6323 104 63.3289C103.944 63.3961 103.915 63.4819 103.92 63.5692C103.924 63.6566 103.961 63.7392 104.023 63.8006C108.409 67.683 112.118 65.2871 114.031 63.7198C114.099 63.6642 114.144 63.5858 114.158 63.4993C114.172 63.4127 114.155 63.3239 114.108 63.2497C113.033 61.1545 112.645 58.7745 112.998 56.4465C114.131 56.1142 115.171 55.5211 116.033 54.7149C116.896 53.9087 117.558 52.9118 117.966 51.8038C119.743 51.5534 121.426 50.8473 122.85 49.7541C123.012 49.6476 123.139 49.4952 123.215 49.3162C123.29 49.1372 123.31 48.9398 123.273 48.7493Z" fill="#5B5180"/>
<path d="M109.434 49.8078C108.148 49.6462 107.659 47.9327 107.639 47.8596C107.617 47.768 107.633 47.6717 107.681 47.5909C107.729 47.5102 107.806 47.4511 107.897 47.4261C107.988 47.401 108.084 47.412 108.167 47.4567C108.25 47.5013 108.312 47.5762 108.341 47.6657C108.443 48.0342 108.855 49.006 109.52 49.0853C110.355 49.1791 110.806 47.6811 110.809 47.6649C110.835 47.5719 110.897 47.4929 110.981 47.4455C111.065 47.398 111.165 47.3859 111.258 47.4118C111.351 47.4377 111.43 47.4995 111.477 47.5836C111.525 47.6678 111.537 47.7673 111.511 47.8604C111.491 47.9435 110.91 49.994 109.434 49.8078Z" fill="#5B5180"/>
<path d="M110.565 45.313C110.503 45.328 110.438 45.3273 110.376 45.3109C110.314 45.2945 110.257 45.263 110.211 45.2191C110.149 45.1452 110.119 45.0497 110.127 44.9535C110.135 44.8573 110.181 44.7683 110.255 44.7059C110.673 44.3241 110.985 43.841 111.162 43.3033C111.179 43.2528 111.178 43.1982 111.161 43.148C111.143 43.0977 111.109 43.0547 111.065 43.0255C109.792 42.0517 108.928 40.6383 108.642 39.0615C108.628 38.966 108.652 38.8687 108.709 38.7911C108.767 38.7135 108.853 38.6618 108.948 38.6476C109.044 38.6333 109.141 38.6575 109.219 38.7149C109.296 38.7724 109.348 38.8583 109.362 38.9538C109.626 40.3325 110.382 41.5685 111.488 42.4323C111.661 42.5542 111.789 42.7287 111.854 42.9297C111.919 43.1308 111.917 43.3474 111.848 43.5472C111.599 44.2471 111.154 44.8602 110.565 45.313Z" fill="#5B5180"/>
<path d="M103.405 43.2075C103.36 43.1221 103.351 43.0224 103.38 42.9302C103.408 42.838 103.472 42.7609 103.558 42.7159C103.643 42.6709 103.743 42.6617 103.835 42.6902C103.927 42.7188 104.004 42.7828 104.049 42.8682C104.06 42.8882 105.178 44.9341 106.221 44.4255C106.585 44.2486 106.101 42.3958 105.737 41.738C105.696 41.6538 105.688 41.5567 105.716 41.467C105.744 41.3773 105.805 41.3019 105.888 41.2564C105.97 41.211 106.067 41.199 106.157 41.2231C106.248 41.2472 106.326 41.3054 106.375 41.3856C106.487 41.5887 107.666 44.5356 106.508 45.0949C105.06 45.7951 103.455 43.3014 103.405 43.2075Z" fill="#5B5180"/>
<path d="M111.203 38.9872C111.164 38.899 111.162 38.7988 111.196 38.7087C111.231 38.6186 111.3 38.5459 111.388 38.5067C111.477 38.4676 111.577 38.465 111.667 38.4997C111.757 38.5344 111.83 38.6035 111.869 38.6918C112.105 39.2219 112.965 40.7023 113.743 40.4291C114.222 40.2606 113.816 38.5448 113.524 37.9293C113.504 37.886 113.492 37.8392 113.489 37.7914C113.487 37.7436 113.494 37.6959 113.51 37.6508C113.526 37.6058 113.551 37.5643 113.583 37.5289C113.615 37.4934 113.654 37.4646 113.697 37.4442C113.741 37.4237 113.788 37.412 113.835 37.4096C113.883 37.4073 113.931 37.4143 113.976 37.4305C114.021 37.4466 114.062 37.4714 114.098 37.5035C114.133 37.5356 114.162 37.5744 114.183 37.6177C114.274 37.8116 115.327 40.5338 113.964 41.1231C112.684 41.6779 111.25 39.0865 111.203 38.9872Z" fill="#5B5180"/>
<path d="M109.582 36.2583C109.525 36.2582 109.469 36.2446 109.418 36.2187C109.367 36.1928 109.323 36.1552 109.289 36.1091C109.255 36.063 109.233 36.0095 109.223 35.9531C109.214 35.8967 109.218 35.8389 109.235 35.7844C109.468 35.0529 109.968 34.4361 110.635 34.0573C111.303 33.6784 112.089 33.5654 112.836 33.7408C112.883 33.7499 112.928 33.7681 112.968 33.7944C113.008 33.8207 113.042 33.8546 113.069 33.8942C113.095 33.9338 113.114 33.9782 113.124 34.0251C113.133 34.0719 113.134 34.1201 113.125 34.1671C113.116 34.214 113.097 34.2587 113.071 34.2986C113.045 34.3385 113.011 34.3728 112.971 34.3996C112.932 34.4264 112.887 34.4451 112.84 34.4547C112.794 34.4644 112.745 34.4646 112.698 34.4556C112.127 34.3161 111.523 34.3981 111.009 34.6851C110.496 34.9721 110.11 35.4429 109.929 36.0029C109.905 36.0766 109.859 36.1411 109.797 36.187C109.735 36.2329 109.66 36.2579 109.582 36.2583Z" fill="#5B5180"/>
<path d="M101.426 40.3904C101.365 40.3903 101.306 40.3753 101.253 40.3468C101.2 40.3183 101.155 40.2772 101.122 40.2271C101.089 40.177 101.069 40.1195 101.063 40.0596C101.058 39.9998 101.067 39.9395 101.09 39.8841C101.452 39.0885 102.069 38.4363 102.843 38.0311C103.618 37.626 104.505 37.4909 105.365 37.6474C105.46 37.6644 105.545 37.7186 105.6 37.7979C105.655 37.8771 105.676 37.9751 105.659 38.0702C105.642 38.1653 105.588 38.2497 105.509 38.3049C105.43 38.3601 105.332 38.3815 105.236 38.3645C104.538 38.2242 103.814 38.3264 103.182 38.6542C102.55 38.9821 102.048 39.5158 101.761 40.1672C101.733 40.2333 101.687 40.2898 101.627 40.3295C101.567 40.3692 101.497 40.3903 101.426 40.3904Z" fill="#5B5180"/>
<path d="M102.93 22.6933C102.445 21.3853 100.712 17.8368 96.4876 18.9178C91.5349 20.1858 92.9445 24.89 93.5377 26.3934C93.5604 26.4511 93.5951 26.5032 93.6394 26.5464C93.6837 26.5897 93.7367 26.6231 93.7948 26.6444C93.853 26.6656 93.915 26.6744 93.9768 26.67C94.0385 26.6656 94.0987 26.6482 94.1532 26.6189C95.8437 25.7245 97.748 25.3135 99.6568 25.4309C99.7373 25.4378 99.8182 25.4225 99.8905 25.3865C99.9628 25.3505 100.024 25.2954 100.067 25.227C100.66 24.2856 101.573 23.59 102.638 23.2681C102.696 23.2513 102.75 23.2227 102.796 23.1842C102.843 23.1457 102.881 23.098 102.908 23.0441C102.936 22.9902 102.952 22.9313 102.956 22.871C102.959 22.8106 102.951 22.7502 102.93 22.6933Z" fill="#5B5180"/>
<path d="M102.745 48.371C102.745 48.6289 102.892 48.8763 103.152 49.0587C103.412 49.2411 103.766 49.3435 104.134 49.3435C104.502 49.3435 104.856 49.2411 105.116 49.0587C105.376 48.8763 105.523 48.6289 105.523 48.371C105.523 48.113 105.376 47.8657 105.116 47.6833C104.856 47.5009 104.502 47.3984 104.134 47.3984C103.766 47.3984 103.412 47.5009 103.152 47.6833C102.892 47.8657 102.745 48.113 102.745 48.371Z" fill="#9683D7"/>
<path d="M114.466 45.5215C114.595 45.7449 114.846 45.8861 115.162 45.9138C115.479 45.9416 115.836 45.8537 116.156 45.6696C116.475 45.4854 116.729 45.22 116.864 44.9318C116.998 44.6436 117.001 44.3561 116.872 44.1327C116.808 44.0221 116.714 43.9305 116.595 43.8632C116.475 43.7959 116.333 43.7541 116.176 43.7404C116.019 43.7266 115.851 43.7411 115.681 43.783C115.51 43.8249 115.341 43.8935 115.183 43.9846C115.025 44.0758 114.881 44.1879 114.76 44.3145C114.638 44.4411 114.541 44.5797 114.475 44.7224C114.408 44.8651 114.373 45.0091 114.372 45.1463C114.37 45.2834 114.403 45.4109 114.466 45.5215Z" fill="#9683D7"/>
<path d="M106.891 36.8333C106.891 36.986 106.951 37.1324 107.059 37.2403C107.167 37.3482 107.314 37.4089 107.466 37.4089C107.619 37.4089 107.765 37.3482 107.873 37.2403C107.981 37.1324 108.042 36.986 108.042 36.8333C108.042 36.6807 107.981 36.5343 107.873 36.4264C107.765 36.3184 107.619 36.2578 107.466 36.2578C107.314 36.2578 107.167 36.3184 107.059 36.4264C106.951 36.5343 106.891 36.6807 106.891 36.8333Z" fill="#9683D7"/>
</svg>
