<svg width="180" height="52" viewBox="0 0 180 52" fill="none" xmlns="http://www.w3.org/2000/svg">
<path d="M40.1715 21.7191C40.1328 17.5292 43.6901 15.4908 43.8528 15.3959C41.8381 12.532 38.7155 12.1407 37.6181 12.1095C34.9955 11.8404 32.4515 13.6396 31.1155 13.6396C29.7528 13.6396 27.6955 12.1355 25.4781 12.1797C22.6248 12.2226 19.9555 13.8333 18.4915 16.3345C15.4701 21.4344 17.7235 28.9289 20.6181 33.0512C22.0661 35.0701 23.7581 37.3243 25.9728 37.245C28.1395 37.1579 28.9488 35.8982 31.5635 35.8982C34.1541 35.8982 34.9141 37.245 37.1728 37.1943C39.4981 37.1579 40.9621 35.1663 42.3595 33.1292C44.0328 30.8152 44.7048 28.5363 44.7315 28.4193C44.6768 28.4011 40.2155 26.741 40.1715 21.7191Z" fill="white"/>
<path d="M35.9041 9.39775C37.0694 7.97685 37.8668 6.04375 37.6454 4.08203C35.9588 4.15483 33.8494 5.21953 32.6348 6.60925C31.5601 7.83385 30.6001 9.84105 30.8481 11.7287C32.7428 11.8665 34.6881 10.7966 35.9041 9.39775Z" fill="white"/>
<path d="M71.5269 36.9547H68.4989L66.8402 31.873H61.0749L59.4949 36.9547H56.5469L62.2589 19.6543H65.7869L71.5269 36.9547ZM66.3402 29.741L64.8402 25.2235C64.6815 24.762 64.3842 23.6752 63.9455 21.9644H63.8922C63.7175 22.7002 63.4362 23.787 63.0495 25.2235L61.5762 29.741H66.3402Z" fill="white"/>
<path d="M86.2158 30.5647C86.2158 32.6863 85.6278 34.3633 84.4518 35.5944C83.3985 36.6903 82.0905 37.2376 80.5291 37.2376C78.8438 37.2376 77.6331 36.6474 76.8958 35.467H76.8425V42.0385H73.9998V28.5874C73.9998 27.2536 73.9638 25.8847 73.8945 24.4807H76.3945L76.5531 26.458H76.6065C77.5545 24.9682 78.9931 24.2246 80.9238 24.2246C82.4331 24.2246 83.6931 24.8057 84.7011 25.9692C85.7118 27.134 86.2158 28.6654 86.2158 30.5647ZM83.3198 30.6661C83.3198 29.4519 83.0398 28.4509 82.4771 27.6631C81.8625 26.8415 81.0371 26.4307 80.0025 26.4307C79.3011 26.4307 78.6638 26.6595 78.0945 27.1106C77.5238 27.5656 77.1504 28.1597 76.9758 28.8955C76.8878 29.2387 76.8438 29.5195 76.8438 29.7405V31.8205C76.8438 32.7279 77.1291 33.4936 77.6998 34.1189C78.2705 34.7442 79.0118 35.0562 79.9238 35.0562C80.9945 35.0562 81.8278 34.6532 82.4238 33.8498C83.0211 33.0451 83.3198 31.9843 83.3198 30.6661Z" fill="white"/>
<path d="M100.931 30.5647C100.931 32.6863 100.343 34.3633 99.166 35.5944C98.114 36.6903 96.806 37.2376 95.2446 37.2376C93.5593 37.2376 92.3486 36.6474 91.6126 35.467H91.5593V42.0385H88.7166V28.5874C88.7166 27.2536 88.6806 25.8847 88.6113 24.4807H91.1113L91.27 26.458H91.3233C92.27 24.9682 93.7086 24.2246 95.6406 24.2246C97.1486 24.2246 98.4086 24.8057 99.4193 25.9692C100.426 27.134 100.931 28.6654 100.931 30.5647ZM98.0353 30.6661C98.0353 29.4519 97.754 28.4509 97.1913 27.6631C96.5766 26.8415 95.754 26.4307 94.718 26.4307C94.0153 26.4307 93.3793 26.6595 92.8086 27.1106C92.238 27.5656 91.866 28.1597 91.6913 28.8955C91.6046 29.2387 91.5593 29.5195 91.5593 29.7405V31.8205C91.5593 32.7279 91.8446 33.4936 92.4126 34.1189C92.9833 34.7429 93.7246 35.0562 94.6393 35.0562C95.71 35.0562 96.5433 34.6532 97.1393 33.8498C97.7366 33.0451 98.0353 31.9843 98.0353 30.6661Z" fill="white"/>
<path d="M117.385 32.1037C117.385 33.5753 116.861 34.7726 115.809 35.6969C114.653 36.707 113.044 37.2114 110.976 37.2114C109.067 37.2114 107.536 36.8526 106.377 36.1337L107.036 33.8236C108.284 34.5594 109.653 34.9286 111.145 34.9286C112.216 34.9286 113.049 34.692 113.648 34.2214C114.244 33.7508 114.541 33.119 114.541 32.3312C114.541 31.6292 114.296 31.0377 113.804 30.558C113.315 30.0783 112.497 29.6324 111.356 29.2203C108.249 28.0906 106.697 26.4357 106.697 24.2595C106.697 22.8373 107.241 21.6712 108.331 20.7638C109.416 19.8551 110.864 19.4014 112.675 19.4014C114.289 19.4014 115.631 19.6757 116.701 20.223L115.991 22.4824C114.991 21.952 113.86 21.6868 112.595 21.6868C111.595 21.6868 110.813 21.9273 110.253 22.4057C109.78 22.8334 109.543 23.3547 109.543 23.9722C109.543 24.656 109.813 25.2215 110.357 25.6661C110.831 26.0769 111.691 26.5215 112.939 27.0012C114.465 27.6005 115.587 28.3012 116.308 29.1046C117.027 29.9054 117.385 30.9077 117.385 32.1037Z" fill="white"/>
<path d="M126.784 26.5604H123.651V32.6171C123.651 34.1576 124.203 34.9272 125.309 34.9272C125.817 34.9272 126.239 34.8843 126.572 34.7985L126.651 36.9032C126.091 37.1073 125.353 37.21 124.44 37.21C123.317 37.21 122.44 36.8759 121.807 36.209C121.176 35.5408 120.859 34.4202 120.859 32.8459V26.5578H118.992V24.4778H120.859V22.1937L123.651 21.3721V24.4778H126.784V26.5604Z" fill="white"/>
<path d="M140.921 30.6151C140.921 32.5326 140.359 34.1069 139.236 35.338C138.059 36.6055 136.496 37.2373 134.548 37.2373C132.671 37.2373 131.176 36.6302 130.061 35.416C128.947 34.2018 128.389 32.6691 128.389 30.8218C128.389 28.8887 128.963 27.3053 130.113 26.0742C131.261 24.8418 132.811 24.2256 134.759 24.2256C136.636 24.2256 138.147 24.8327 139.287 26.0482C140.377 27.2273 140.921 28.7496 140.921 30.6151ZM137.972 30.7048C137.972 29.5543 137.72 28.5676 137.209 27.7447C136.613 26.7489 135.761 26.2523 134.657 26.2523C133.515 26.2523 132.647 26.7502 132.051 27.7447C131.54 28.5689 131.288 29.5712 131.288 30.7568C131.288 31.9073 131.54 32.894 132.051 33.7156C132.665 34.7114 133.524 35.208 134.632 35.208C135.717 35.208 136.569 34.701 137.184 33.6896C137.708 32.8511 137.972 31.854 137.972 30.7048Z" fill="white"/>
<path d="M150.161 26.9182C149.88 26.8675 149.58 26.8415 149.265 26.8415C148.265 26.8415 147.492 27.2094 146.948 27.9465C146.475 28.5965 146.237 29.4181 146.237 30.41V36.9555H143.396L143.423 28.4093C143.423 26.9715 143.387 25.6624 143.316 24.482H145.792L145.896 26.8688H145.975C146.275 26.0485 146.748 25.3881 147.396 24.8928C148.029 24.4469 148.713 24.2246 149.451 24.2246C149.713 24.2246 149.951 24.2428 150.161 24.2753V26.9182Z" fill="white"/>
<path d="M162.875 30.1279C162.875 30.6245 162.841 31.0431 162.771 31.385H154.243C154.276 32.6174 154.688 33.5599 155.48 34.2099C156.199 34.791 157.128 35.0822 158.269 35.0822C159.532 35.0822 160.684 34.8859 161.72 34.492L162.165 36.416C160.955 36.9308 159.525 37.1869 157.876 37.1869C155.892 37.1869 154.335 36.6175 153.201 35.48C152.071 34.3425 151.504 32.815 151.504 30.8988C151.504 29.0177 152.031 27.4512 153.085 26.2019C154.189 24.8681 155.681 24.2012 157.559 24.2012C159.403 24.2012 160.799 24.8681 161.747 26.2019C162.497 27.2614 162.875 28.5718 162.875 30.1279ZM160.164 29.409C160.183 28.5874 159.997 27.8776 159.612 27.2783C159.12 26.5074 158.364 26.1226 157.347 26.1226C156.417 26.1226 155.661 26.4983 155.084 27.2523C154.611 27.8516 154.329 28.5705 154.243 29.4077H160.164V29.409Z" fill="white"/>
<path d="M65.3997 9.01228C65.3997 10.5424 64.929 11.6942 63.989 12.4677C63.1184 13.1814 61.881 13.5389 60.2784 13.5389C59.4837 13.5389 58.8037 13.5051 58.2344 13.4375V5.07719C58.977 4.96019 59.777 4.90039 60.641 4.90039C62.1677 4.90039 63.3184 5.22409 64.0944 5.87149C64.9637 6.60338 65.3997 7.64988 65.3997 9.01228ZM63.9264 9.04998C63.9264 8.05808 63.657 7.29758 63.1184 6.76718C62.5797 6.23808 61.793 5.97289 60.757 5.97289C60.317 5.97289 59.9424 6.00148 59.6317 6.06128V12.417C59.8037 12.443 60.1184 12.4547 60.5757 12.4547C61.645 12.4547 62.4704 12.1648 63.0517 11.585C63.633 11.0052 63.9264 10.1602 63.9264 9.04998Z" fill="white"/>
<path d="M73.2126 10.3482C73.2126 11.2907 72.9366 12.0629 72.3846 12.6687C71.8059 13.2914 71.0393 13.6021 70.0819 13.6021C69.1593 13.6021 68.4246 13.3044 67.8766 12.7064C67.3299 12.1097 67.0566 11.357 67.0566 10.4496C67.0566 9.50056 67.3379 8.72186 67.9033 8.11736C68.4686 7.51286 69.2286 7.20996 70.1859 7.20996C71.1086 7.20996 71.8499 7.50766 72.4113 8.10436C72.9446 8.68416 73.2126 9.43296 73.2126 10.3482ZM71.7633 10.3924C71.7633 9.82686 71.6379 9.34196 71.3886 8.93766C71.0953 8.44886 70.6779 8.20446 70.1353 8.20446C69.5739 8.20446 69.1473 8.44886 68.8539 8.93766C68.6033 9.34196 68.4793 9.83466 68.4793 10.4171C68.4793 10.9826 68.6046 11.4675 68.8539 11.8718C69.1566 12.3606 69.5779 12.605 70.1219 12.605C70.6553 12.605 71.0739 12.3567 71.3753 11.8588C71.6339 11.4467 71.7633 10.9579 71.7633 10.3924Z" fill="white"/>
<path d="M83.6868 7.33496L81.7201 13.4632H80.4401L79.6254 10.8021C79.4188 10.1378 79.2508 9.47736 79.1201 8.82216H79.0948C78.9734 9.49556 78.8054 10.1547 78.5894 10.8021L77.7241 13.4632H76.4294L74.5801 7.33496H76.0161L76.7268 10.2483C76.8988 10.9373 77.0401 11.5938 77.1534 12.2152H77.1788C77.2828 11.703 77.4548 11.0504 77.6974 10.2613L78.5894 7.33626H79.7281L80.5828 10.1989C80.7894 10.897 80.9574 11.5691 81.0868 12.2165H81.1254C81.2201 11.586 81.3628 10.9139 81.5521 10.1989L82.3148 7.33626H83.6868V7.33496Z" fill="white"/>
<path d="M90.9313 13.463H89.5339V9.95295C89.5339 8.87135 89.1126 8.33055 88.2673 8.33055C87.8526 8.33055 87.5179 8.47875 87.2579 8.77645C87.0006 9.07415 86.8699 9.42515 86.8699 9.82685V13.4617H85.4726V9.08585C85.4726 8.54765 85.4553 7.96395 85.4219 7.33215H86.6499L86.7153 8.29025H86.7539C86.9166 7.99255 87.1593 7.74685 87.4779 7.55055C87.8566 7.32175 88.2806 7.20605 88.7446 7.20605C89.3313 7.20605 89.8193 7.39065 90.2073 7.76115C90.6899 8.21485 90.9313 8.89215 90.9313 9.79175V13.463Z" fill="white"/>
<path d="M94.7847 13.4626H93.3887V4.52246H94.7847V13.4626Z" fill="white"/>
<path d="M103.012 10.3482C103.012 11.2907 102.736 12.0629 102.184 12.6687C101.605 13.2914 100.837 13.6021 99.8808 13.6021C98.9568 13.6021 98.2221 13.3044 97.6755 12.7064C97.1288 12.1097 96.8555 11.357 96.8555 10.4496C96.8555 9.50056 97.1368 8.72186 97.7021 8.11736C98.2675 7.51286 99.0275 7.20996 99.9835 7.20996C100.908 7.20996 101.648 7.50766 102.21 8.10436C102.744 8.68416 103.012 9.43296 103.012 10.3482ZM101.561 10.3924C101.561 9.82686 101.436 9.34196 101.186 8.93766C100.894 8.44886 100.476 8.20446 99.9341 8.20446C99.3715 8.20446 98.9448 8.44886 98.6528 8.93766C98.4021 9.34196 98.2781 9.83466 98.2781 10.4171C98.2781 10.9826 98.4035 11.4675 98.6528 11.8718C98.9555 12.3606 99.3768 12.605 99.9208 12.605C100.454 12.605 100.872 12.3567 101.173 11.8588C101.433 11.4467 101.561 10.9579 101.561 10.3924Z" fill="white"/>
<path d="M109.773 13.463H108.519L108.415 12.7571H108.376C107.947 13.32 107.335 13.6021 106.54 13.6021C105.947 13.6021 105.467 13.4162 105.105 13.047C104.777 12.7116 104.613 12.2943 104.613 11.799C104.613 11.0502 104.933 10.4795 105.577 10.0843C106.22 9.68906 107.124 9.49536 108.288 9.50446V9.39006C108.288 8.58276 107.853 8.17976 106.983 8.17976C106.363 8.17976 105.816 8.33186 105.344 8.63346L105.06 7.73906C105.644 7.38676 106.365 7.20996 107.216 7.20996C108.859 7.20996 109.683 8.05496 109.683 9.74496V12.0018C109.683 12.6141 109.713 13.1016 109.773 13.463ZM108.323 11.357V10.4119C106.781 10.3859 106.011 10.798 106.011 11.6469C106.011 11.9667 106.099 12.2059 106.279 12.3658C106.459 12.5257 106.688 12.605 106.961 12.605C107.268 12.605 107.555 12.5101 107.816 12.3216C108.079 12.1318 108.24 11.8913 108.3 11.5962C108.315 11.5299 108.323 11.4493 108.323 11.357Z" fill="white"/>
<path d="M117.713 13.4626H116.473L116.408 12.4785H116.369C115.973 13.2273 115.299 13.6017 114.351 13.6017C113.593 13.6017 112.963 13.3118 112.463 12.732C111.963 12.1522 111.713 11.3995 111.713 10.4752C111.713 9.48326 111.984 8.67986 112.528 8.06626C113.055 7.49426 113.7 7.20826 114.468 7.20826C115.312 7.20826 115.903 7.48516 116.239 8.04026H116.265V4.52246H117.664V11.8116C117.664 12.4083 117.68 12.9582 117.713 13.4626ZM116.265 10.8782V9.85636C116.265 9.67956 116.252 9.53656 116.227 9.42736C116.148 9.09976 115.979 8.82416 115.721 8.60186C115.461 8.37956 115.148 8.26776 114.787 8.26776C114.265 8.26776 113.857 8.46926 113.557 8.87356C113.26 9.27786 113.109 9.79396 113.109 10.4245C113.109 11.0303 113.252 11.5217 113.539 11.9C113.841 12.303 114.249 12.5045 114.76 12.5045C115.219 12.5045 115.585 12.3368 115.864 12.0001C116.133 11.6894 116.265 11.315 116.265 10.8782Z" fill="white"/>
<path d="M129.664 10.3482C129.664 11.2907 129.388 12.0629 128.836 12.6687C128.257 13.2914 127.492 13.6021 126.533 13.6021C125.612 13.6021 124.877 13.3044 124.328 12.7064C123.781 12.1097 123.508 11.357 123.508 10.4496C123.508 9.50056 123.789 8.72186 124.355 8.11736C124.92 7.51286 125.68 7.20996 126.639 7.20996C127.56 7.20996 128.303 7.50766 128.863 8.10436C129.396 8.68416 129.664 9.43296 129.664 10.3482ZM128.216 10.3924C128.216 9.82686 128.091 9.34196 127.841 8.93766C127.547 8.44886 127.131 8.20446 126.587 8.20446C126.027 8.20446 125.6 8.44886 125.305 8.93766C125.055 9.34196 124.931 9.83466 124.931 10.4171C124.931 10.9826 125.056 11.4675 125.305 11.8718C125.608 12.3606 126.029 12.605 126.573 12.605C127.107 12.605 127.527 12.3567 127.828 11.8588C128.085 11.4467 128.216 10.9579 128.216 10.3924Z" fill="white"/>
<path d="M137.178 13.463H135.782V9.95295C135.782 8.87135 135.361 8.33055 134.514 8.33055C134.1 8.33055 133.765 8.47875 133.506 8.77645C133.248 9.07415 133.118 9.42515 133.118 9.82685V13.4617H131.72V9.08585C131.72 8.54765 131.704 7.96395 131.67 7.33215H132.897L132.962 8.29025H133.001C133.165 7.99255 133.408 7.74685 133.725 7.55055C134.105 7.32175 134.528 7.20605 134.993 7.20605C135.578 7.20605 136.066 7.39065 136.454 7.76115C136.938 8.21485 137.178 8.89215 137.178 9.79175V13.463Z" fill="white"/>
<path d="M146.582 8.35528H145.044V11.3323C145.044 12.0889 145.317 12.4672 145.858 12.4672C146.109 12.4672 146.317 12.4464 146.481 12.4035L146.517 13.437C146.241 13.5384 145.878 13.5891 145.432 13.5891C144.88 13.5891 144.45 13.4253 144.14 13.0977C143.828 12.7701 143.673 12.2189 143.673 11.4454V8.35528H142.754V7.33478H143.673V6.21158L145.042 5.80859V7.33348H146.581L146.582 8.35528Z" fill="white"/>
<path d="M153.979 13.4626H152.58V9.97856C152.58 8.88006 152.159 8.33016 151.315 8.33016C150.667 8.33016 150.224 8.64866 149.981 9.28566C149.94 9.41956 149.916 9.58336 149.916 9.77576V13.4613H148.52V4.52246H149.916V8.21576H149.943C150.383 7.54366 151.013 7.20826 151.831 7.20826C152.409 7.20826 152.888 7.39286 153.268 7.76336C153.741 8.22486 153.979 8.91126 153.979 9.81866V13.4626Z" fill="white"/>
<path d="M161.609 10.1089C161.609 10.3533 161.591 10.5587 161.557 10.7264H157.367C157.385 11.3322 157.585 11.7937 157.973 12.1135C158.328 12.3995 158.785 12.5425 159.345 12.5425C159.965 12.5425 160.531 12.4463 161.04 12.2526L161.259 13.199C160.663 13.4512 159.961 13.5773 159.149 13.5773C158.176 13.5773 157.409 13.2978 156.855 12.7388C156.297 12.1798 156.021 11.4297 156.021 10.4885C156.021 9.56424 156.279 8.79464 156.797 8.18104C157.339 7.52584 158.071 7.19824 158.995 7.19824C159.899 7.19824 160.585 7.52584 161.049 8.18104C161.424 8.70104 161.609 9.34454 161.609 10.1089ZM160.276 9.75664C160.287 9.35234 160.195 9.00394 160.005 8.71014C159.763 8.33184 159.393 8.14204 158.893 8.14204C158.437 8.14204 158.065 8.32664 157.781 8.69714C157.549 8.99224 157.412 9.34454 157.367 9.75664H160.276Z" fill="white"/>
</svg>
