<svg width="180" height="52" viewBox="0 0 180 52" fill="none" xmlns="http://www.w3.org/2000/svg">
<path d="M63.136 9.3172C63.136 10.4027 62.8031 11.272 62.1474 11.9204C61.3934 12.689 60.4114 13.0758 59.2081 13.0758C58.058 13.0758 57.076 12.6825 56.2705 11.9074C55.4632 11.1209 55.0605 10.1557 55.0605 9.0003C55.0605 7.8449 55.4632 6.8797 56.2705 6.0997C57.076 5.31805 58.058 4.9248 59.2081 4.9248C59.7806 4.9248 60.3266 5.04017 60.8475 5.25467C61.3668 5.4708 61.7895 5.7633 62.0958 6.124L61.4001 6.8098C60.8658 6.1939 60.1385 5.89005 59.2081 5.89005C58.3693 5.89005 57.6419 6.176 57.0244 6.7529C56.4136 7.3314 56.1074 8.0805 56.1074 9.0003C56.1074 9.92 56.4136 10.6757 57.0244 11.2542C57.6419 11.8245 58.3693 12.117 59.2081 12.117C60.0985 12.117 60.8475 11.8245 61.4384 11.2477C61.8278 10.8658 62.0492 10.3393 62.1074 9.6665H59.2081V8.7273H63.0761C63.1227 8.9304 63.136 9.127 63.136 9.3172Z" fill="white" stroke="white" stroke-width="0.16" stroke-miterlimit="10"/>
<path d="M69.2733 6.06068H65.6399V8.53068H68.9154V9.46988H65.6399V11.9399H69.2733V12.897H64.6113V5.10352H69.2733V6.06068Z" fill="white" stroke="white" stroke-width="0.16" stroke-miterlimit="10"/>
<path d="M73.6029 12.897H72.5743V6.06068H70.3457V5.10352H75.8331V6.06068H73.6029V12.897Z" fill="white" stroke="white" stroke-width="0.16" stroke-miterlimit="10"/>
<path d="M79.8047 12.897V5.10352H80.8317V12.897H79.8047Z" fill="white" stroke="white" stroke-width="0.16" stroke-miterlimit="10"/>
<path d="M85.3842 12.897H84.3639V6.06068H82.127V5.10352H87.6211V6.06068H85.3842V12.897Z" fill="white" stroke="white" stroke-width="0.16" stroke-miterlimit="10"/>
<path d="M98.0099 11.8944C97.2226 12.6825 96.2473 13.0758 95.0839 13.0758C93.9139 13.0758 92.9385 12.6825 92.1513 11.8944C91.3657 11.1079 90.9746 10.1427 90.9746 9.0003C90.9746 7.8579 91.3657 6.8927 92.1513 6.1062C92.9385 5.31805 93.9139 4.9248 95.0839 4.9248C96.2407 4.9248 97.216 5.31805 98.0032 6.1127C98.7955 6.9057 99.1866 7.8644 99.1866 9.0003C99.1866 10.1427 98.7955 11.1079 98.0099 11.8944ZM92.9119 11.2412C93.5044 11.8245 94.2251 12.117 95.0839 12.117C95.9361 12.117 96.6634 11.8245 97.2493 11.2412C97.8401 10.6578 98.1397 9.9087 98.1397 9.0003C98.1397 8.0919 97.8401 7.3428 97.2493 6.7594C96.6634 6.176 95.9361 5.88355 95.0839 5.88355C94.2251 5.88355 93.5044 6.176 92.9119 6.7594C92.3211 7.3428 92.0215 8.0919 92.0215 9.0003C92.0215 9.9087 92.3211 10.6578 92.9119 11.2412Z" fill="white" stroke="white" stroke-width="0.16" stroke-miterlimit="10"/>
<path d="M100.631 12.897V5.10352H101.879L105.76 11.1648H105.805L105.76 9.66648V5.10352H106.787V12.897H105.715L101.651 6.53678H101.606L101.651 8.04148V12.897H100.631Z" fill="white" stroke="white" stroke-width="0.16" stroke-miterlimit="10"/>
<path d="M90.7215 24.2783C87.5941 24.2783 85.0393 26.602 85.0393 29.8082C85.0393 32.9883 87.5941 35.3364 90.7215 35.3364C93.8555 35.3364 96.4103 32.9883 96.4103 29.8082C96.4103 26.602 93.8555 24.2783 90.7215 24.2783ZM90.7215 33.1589C89.0055 33.1589 87.5292 31.776 87.5292 29.8082C87.5292 27.8143 89.0055 26.4558 90.7215 26.4558C92.4374 26.4558 93.9204 27.8143 93.9204 29.8082C93.9204 31.776 92.4374 33.1589 90.7215 33.1589ZM78.3235 24.2783C75.1895 24.2783 72.6414 26.602 72.6414 29.8082C72.6414 32.9883 75.1895 35.3364 78.3235 35.3364C81.4559 35.3364 84.0057 32.9883 84.0057 29.8082C84.0057 26.602 81.4559 24.2783 78.3235 24.2783ZM78.3235 33.1589C76.6059 33.1589 75.1246 31.776 75.1246 29.8082C75.1246 27.8143 76.6059 26.4558 78.3235 26.4558C80.0395 26.4558 81.5158 27.8143 81.5158 29.8082C81.5158 31.776 80.0395 33.1589 78.3235 33.1589ZM63.5705 25.9732V28.3229H69.3176C69.1495 29.6359 68.7001 30.6012 68.0111 31.2739C67.1722 32.0864 65.8657 32.9883 63.5705 32.9883C60.0337 32.9883 57.2642 30.2014 57.2642 26.7483C57.2642 23.2952 60.0337 20.5083 63.5705 20.5083C65.4829 20.5083 66.8743 21.2379 67.9012 22.1837L69.5972 20.5278C68.1609 19.1888 66.2502 18.1602 63.5705 18.1602C58.7205 18.1602 54.6445 22.013 54.6445 26.7483C54.6445 31.4835 58.7205 35.3364 63.5705 35.3364C66.1919 35.3364 68.1609 34.4979 69.7087 32.9249C71.2949 31.3763 71.7892 29.1988 71.7892 27.4405C71.7892 26.8945 71.7426 26.3924 71.6594 25.9732H63.5705ZM123.898 27.7948C123.43 26.5582 121.987 24.2783 119.048 24.2783C116.135 24.2783 113.71 26.5192 113.71 29.8082C113.71 32.9054 116.11 35.3364 119.327 35.3364C121.929 35.3364 123.43 33.7878 124.048 32.8859L122.117 31.6298C121.473 32.5495 120.596 33.1589 119.327 33.1589C118.067 33.1589 117.164 32.595 116.584 31.4835L124.159 28.4236L123.898 27.7948ZM116.175 29.6359C116.11 27.5039 117.871 26.4119 119.133 26.4119C120.121 26.4119 120.96 26.8945 121.24 27.5852L116.175 29.6359ZM110.019 35H112.508V18.75H110.019V35ZM105.941 25.51H105.858C105.298 24.8633 104.232 24.2783 102.88 24.2783C100.044 24.2783 97.4505 26.7093 97.4505 29.826C97.4505 32.9249 100.044 35.3364 102.88 35.3364C104.232 35.3364 105.298 34.7465 105.858 34.0803H105.941V34.8733C105.941 36.9874 104.784 38.1233 102.918 38.1233C101.397 38.1233 100.453 37.0508 100.064 36.1489L97.8982 37.0313C98.5224 38.497 100.175 40.3008 102.918 40.3008C105.838 40.3008 108.301 38.6238 108.301 34.5434V24.6147H105.941V25.51ZM103.093 33.1589C101.377 33.1589 99.9404 31.7565 99.9404 29.826C99.9404 27.8777 101.377 26.4558 103.093 26.4558C104.784 26.4558 106.117 27.8777 106.117 29.826C106.117 31.7565 104.784 33.1589 103.093 33.1589ZM135.555 18.75H129.6V35H132.083V28.8429H135.555C138.313 28.8429 141.018 26.8945 141.018 23.7957C141.018 20.6984 138.306 18.75 135.555 18.75ZM135.62 26.5825H132.083V21.0104H135.62C137.474 21.0104 138.533 22.5135 138.533 23.7957C138.533 25.0534 137.474 26.5825 135.62 26.5825ZM150.97 24.2474C149.176 24.2474 147.311 25.0209 146.543 26.7353L148.747 27.6372C149.221 26.7353 150.093 26.4428 151.015 26.4428C152.304 26.4428 153.61 27.1984 153.63 28.5325V28.7032C153.181 28.4497 152.219 28.0743 151.035 28.0743C148.662 28.0743 146.244 29.3499 146.244 31.7305C146.244 33.908 148.188 35.3104 150.373 35.3104C152.044 35.3104 152.966 34.5743 153.545 33.7179H153.63V34.974H156.029V28.7405C156.029 25.8594 153.825 24.2474 150.97 24.2474ZM150.671 33.1524C149.859 33.1524 148.727 32.7592 148.727 31.776C148.727 30.5183 150.138 30.0357 151.36 30.0357C152.453 30.0357 152.966 30.2713 153.63 30.5817C153.435 32.0864 152.109 33.1524 150.671 33.1524ZM164.766 24.6033L161.912 31.6477H161.827L158.876 24.6033H156.198L160.632 34.4475L158.102 39.9254H160.697L167.529 24.6033H164.766ZM142.382 35H144.872V18.75H142.382V35Z" fill="white"/>
<path d="M13.8948 5.8003C13.5037 6.20004 13.2773 6.82244 13.2773 7.62844V36.3779C13.2773 37.1839 13.5037 37.8063 13.8948 38.206L13.9913 38.2938L30.492 22.19V21.8098L13.9913 5.70605L13.8948 5.8003Z" fill="url(#paint0_linear_13_2522)"/>
<path d="M35.9864 27.561L30.4922 22.1904V21.8102L35.993 16.4395L36.1162 16.5094L42.6305 20.1283C44.4896 21.1553 44.4896 22.8453 42.6305 23.8788L36.1162 27.4911L35.9864 27.561Z" fill="url(#paint1_linear_13_2522)"/>
<path d="M36.1156 27.4909L30.4917 22L13.8945 38.2061C14.512 38.8399 15.5189 38.9162 16.664 38.2825L36.1156 27.4909Z" fill="url(#paint2_linear_13_2522)"/>
<path d="M36.1156 16.5091L16.664 5.7175C15.5189 5.09024 14.512 5.16662 13.8945 5.80037L30.4917 22L36.1156 16.5091Z" fill="url(#paint3_linear_13_2522)"/>
<defs>
<linearGradient id="paint0_linear_13_2522" x1="29.0269" y1="36.6773" x2="7.21608" y2="14.3379" gradientUnits="userSpaceOnUse">
<stop stop-color="#00A0FF"/>
<stop offset="0.0066" stop-color="#00A1FF"/>
<stop offset="0.2601" stop-color="#00BEFF"/>
<stop offset="0.5122" stop-color="#00D2FF"/>
<stop offset="0.7604" stop-color="#00DFFF"/>
<stop offset="1" stop-color="#00E3FF"/>
</linearGradient>
<linearGradient id="paint1_linear_13_2522" x1="45.0514" y1="21.9985" x2="12.8332" y2="21.9985" gradientUnits="userSpaceOnUse">
<stop stop-color="#FFE000"/>
<stop offset="0.4087" stop-color="#FFBD00"/>
<stop offset="0.7754" stop-color="#FFA500"/>
<stop offset="1" stop-color="#FF9C00"/>
</linearGradient>
<linearGradient id="paint2_linear_13_2522" x1="33.0575" y1="19.0151" x2="3.48019" y2="-11.2789" gradientUnits="userSpaceOnUse">
<stop stop-color="#FF3A44"/>
<stop offset="1" stop-color="#C31162"/>
</linearGradient>
<linearGradient id="paint3_linear_13_2522" x1="9.71669" y1="47.7709" x2="22.9243" y2="34.2434" gradientUnits="userSpaceOnUse">
<stop stop-color="#32A071"/>
<stop offset="0.0685" stop-color="#2DA771"/>
<stop offset="0.4762" stop-color="#15CF74"/>
<stop offset="0.8009" stop-color="#06E775"/>
<stop offset="1" stop-color="#00F076"/>
</linearGradient>
</defs>
</svg>
