<svg width="149" height="73" viewBox="0 0 149 73" fill="none" xmlns="http://www.w3.org/2000/svg">
<path d="M30.0092 58.9814C30.0336 59.0905 30.0949 59.1902 30.1848 59.267C30.2748 59.3439 30.389 59.3942 30.5121 59.4112C30.6352 59.4282 30.7611 59.4109 30.8728 59.3618C30.9845 59.3127 31.0767 59.2342 31.1367 59.1368C32.1076 57.594 33.9329 55.0104 35.123 53.3465C35.4767 52.8508 35.9469 52.4297 36.5009 52.1124C37.0549 51.795 37.6796 51.589 38.3316 51.5086C44.2476 50.7784 61.3692 48.6297 70.6956 47.1274C76.4376 46.203 76.7352 42.6421 76.3976 39.2335C75.719 32.4256 73.9929 23.2903 73.678 21.889C73.2082 19.7869 71.0123 17.9599 66.4448 18.0438C61.8773 18.1277 37.3868 21.1137 30.5138 22.5337C24.6813 23.7393 24.0184 27.252 25.1198 34.4406C26.1847 41.421 29.047 54.6096 30.0092 58.9814Z" fill="#5B5180"/>
<path d="M107.997 72.0107C107.999 72.129 107.961 72.2451 107.887 72.3432C107.813 72.4413 107.706 72.5167 107.583 72.5591C107.459 72.6016 107.324 72.609 107.195 72.5803C107.067 72.5517 106.951 72.4884 106.864 72.3991C105.434 70.9434 102.803 68.5322 101.317 67.1852C100.979 66.8788 100.571 66.6416 100.12 66.4897C99.6694 66.3379 99.1873 66.2752 98.7069 66.3058C93.3703 66.6601 75.4918 67.6575 65.6156 67.9092C59.7814 68.0645 58.6713 64.6279 58.2189 61.2286C57.3158 54.4409 56.7485 45.2482 56.7346 43.8282C56.7103 41.6842 58.4398 39.4936 62.929 38.737C67.4182 37.9804 92.0688 36.4066 99.121 36.5402C105.105 36.649 106.563 39.9659 107.142 47.2026C107.689 54.169 107.924 67.4633 107.997 72.0107Z" fill="#D6CBFF"/>
<path d="M8.13504 53.2785C8.1053 53.1864 8.09648 53.0899 8.1091 52.9947C8.12172 52.8995 8.15554 52.8075 8.20855 52.7241C8.26156 52.6407 8.3327 52.5677 8.41779 52.5092C8.50288 52.4507 8.60019 52.408 8.70403 52.3836C8.91219 52.3371 9.13241 52.364 9.31901 52.4585C9.50561 52.5531 9.64428 52.7082 9.70626 52.8916C13.315 62.1108 20.6683 64.0776 25.763 63.464C25.869 63.4512 25.9768 63.4572 26.0802 63.4817C26.1836 63.5061 26.2807 63.5485 26.3657 63.6064C26.4508 63.6644 26.5223 63.7367 26.576 63.8193C26.6298 63.9018 26.6648 63.9931 26.6791 64.0877C26.6934 64.1824 26.6866 64.2787 26.6593 64.371C26.6319 64.4633 26.5844 64.55 26.5195 64.6259C26.4547 64.7019 26.3737 64.7657 26.2812 64.8137C26.1887 64.8617 26.0865 64.893 25.9805 64.9057C25.1836 65.002 12.9392 66.9316 8.13504 53.2785Z" fill="#501200"/>
<path d="M6.79301 65.7761C6.72135 65.7042 6.6668 65.62 6.63268 65.5288C6.59857 65.4375 6.58559 65.341 6.59454 65.2451C6.60349 65.1492 6.63418 65.0559 6.68475 64.9709C6.73532 64.8859 6.80471 64.811 6.88871 64.7507C7.05353 64.6264 7.26684 64.5656 7.48183 64.5816C7.69681 64.5976 7.89589 64.6892 8.03536 64.8361C10.1144 66.8563 12.8683 68.2232 15.8874 68.7335C18.9065 69.2438 22.0294 68.8702 24.7916 67.6684C24.9881 67.5957 25.2086 67.5946 25.406 67.6653C25.6034 67.7359 25.7621 67.8727 25.848 68.0464C25.9339 68.2202 25.9403 68.417 25.8658 68.5949C25.7913 68.7727 25.6418 68.9175 25.4493 68.9983C22.3678 70.3357 18.8836 70.7447 15.5196 70.1637C12.1557 69.5827 9.0936 68.0431 6.79301 65.7761Z" fill="#501200"/>
<path d="M90.8847 8.0131C90.748 8.0131 90.6136 7.98241 90.4937 7.92384C90.3739 7.86528 90.2724 7.78073 90.1988 7.67797C90.1251 7.57522 90.0816 7.45757 90.0722 7.33586C90.0629 7.21414 90.0879 7.09228 90.1452 6.9815L93.5364 0.422159C93.5813 0.335449 93.6449 0.257485 93.7236 0.192718C93.8022 0.12795 93.8944 0.0776484 93.9948 0.0446836C94.0952 0.0117188 94.2019 -0.00326341 94.3088 0.000593C94.4157 0.00444941 94.5207 0.0270688 94.6178 0.0671593C94.7149 0.10725 94.8023 0.164027 94.8748 0.234248C94.9473 0.304469 95.0037 0.38676 95.0406 0.476421C95.0775 0.566082 95.0943 0.661358 95.09 0.75681C95.0856 0.852261 95.0603 0.946018 95.0154 1.03273L91.6259 7.59051C91.5604 7.7168 91.4559 7.8237 91.3245 7.89859C91.1931 7.97347 91.0405 8.01321 90.8847 8.0131Z" fill="#501200"/>
<path d="M95.9713 10.0315C95.8191 10.031 95.6702 9.9925 95.5412 9.92041C95.4122 9.84832 95.3084 9.74547 95.2415 9.62347C95.1745 9.50148 95.1471 9.3652 95.1623 9.23002C95.1775 9.09485 95.2347 8.96616 95.3275 8.85849L101.449 1.79578C101.514 1.71881 101.595 1.65411 101.688 1.60545C101.781 1.55679 101.884 1.52513 101.991 1.51232C102.098 1.49951 102.207 1.50579 102.311 1.53081C102.415 1.55583 102.513 1.59908 102.598 1.65806C102.683 1.71703 102.755 1.79056 102.808 1.87435C102.861 1.95815 102.895 2.05055 102.908 2.14619C102.921 2.24183 102.912 2.3388 102.883 2.43147C102.853 2.52414 102.804 2.61065 102.736 2.686L96.6151 9.75026C96.539 9.83796 96.4414 9.90891 96.3298 9.95766C96.2182 10.0064 96.0955 10.0317 95.9713 10.0315Z" fill="#501200"/>
<path d="M99.8323 12.6362C99.6538 12.6366 99.4801 12.5847 99.3379 12.4884C99.1957 12.3922 99.0928 12.2568 99.0452 12.1033C98.9975 11.9497 99.0077 11.7864 99.0742 11.6385C99.1406 11.4907 99.2597 11.3664 99.413 11.2848L106.199 7.6702C106.382 7.58916 106.593 7.57271 106.79 7.62412C106.986 7.67553 107.153 7.79104 107.259 7.94767C107.364 8.10429 107.399 8.29055 107.358 8.46939C107.316 8.64824 107.201 8.80655 107.034 8.91285C99.6688 12.8443 100.153 12.6362 99.8323 12.6362Z" fill="#501200"/>
<path d="M147.296 38.3866H144.794L144.62 32.4099C144.615 32.217 144.524 32.034 144.367 31.9012C144.21 31.7683 144.001 31.6965 143.785 31.7014C143.569 31.7064 143.364 31.7877 143.215 31.9276C143.066 32.0674 142.986 32.2543 142.992 32.4471L143.166 38.3866H140.707C140.491 38.3866 140.284 38.4632 140.131 38.5996C139.978 38.7359 139.893 38.9208 139.893 39.1137C139.893 39.3065 139.978 39.4915 140.131 39.6278C140.284 39.7642 140.491 39.8408 140.707 39.8408H143.209L143.383 45.8175C143.397 46.0055 143.491 46.1816 143.647 46.3087C143.803 46.4358 144.007 46.5041 144.218 46.4993C144.429 46.4945 144.63 46.4169 144.778 46.2828C144.926 46.1487 145.011 45.9686 145.013 45.7802L144.839 39.8408H147.301C147.517 39.8408 147.725 39.7642 147.877 39.6278C148.03 39.4915 148.116 39.3065 148.116 39.1137C148.116 38.9208 148.03 38.7359 147.877 38.5996C147.725 38.4632 147.517 38.3866 147.301 38.3866H147.296Z" fill="#5B5180"/>
<path d="M7.82242 18.8353H5.24723V13.1724C5.25232 13.074 5.23501 12.9757 5.19634 12.8834C5.15767 12.7912 5.09844 12.7069 5.02224 12.6356C4.94604 12.5644 4.85445 12.5076 4.75301 12.4689C4.65156 12.4301 4.54238 12.4102 4.43204 12.4102C4.3217 12.4102 4.21251 12.4301 4.11106 12.4689C4.00962 12.5076 3.91803 12.5644 3.84183 12.6356C3.76563 12.7069 3.70641 12.7912 3.66774 12.8834C3.62907 12.9757 3.61175 13.074 3.61684 13.1724V18.8353H0.853725C0.743504 18.8308 0.63339 18.8463 0.53005 18.8808C0.42671 18.9153 0.332295 18.9682 0.252493 19.0362C0.172692 19.1043 0.109164 19.186 0.0657651 19.2766C0.0223664 19.3672 0 19.4647 0 19.5632C0 19.6617 0.0223664 19.7592 0.0657651 19.8498C0.109164 19.9404 0.172692 20.0222 0.252493 20.0902C0.332295 20.1582 0.42671 20.2111 0.53005 20.2456C0.63339 20.2802 0.743504 20.2956 0.853725 20.2911H3.61684V24.9519C3.62653 25.1391 3.71665 25.3158 3.86847 25.4453C4.02029 25.5747 4.22213 25.6469 4.43204 25.6469C4.64195 25.6469 4.84378 25.5747 4.9956 25.4453C5.14741 25.3158 5.23754 25.1391 5.24723 24.9519V20.2911H7.82242C8.03211 20.2824 8.23 20.202 8.37496 20.0664C8.51992 19.9309 8.60081 19.7506 8.60081 19.5632C8.60081 19.3758 8.51992 19.1956 8.37496 19.06C8.23 18.9245 8.03211 18.844 7.82242 18.8353Z" fill="#5B5180"/>
<path d="M38.954 40.2579C38.4842 40.2579 38.2493 40.2579 35.086 36.2495C35.0244 36.1714 34.9806 36.0832 34.9572 35.99C34.9338 35.8967 34.9312 35.8003 34.9496 35.7062C34.9679 35.612 35.0068 35.522 35.0641 35.4413C35.1214 35.3606 35.1959 35.2908 35.2834 35.2358C35.371 35.1808 35.4697 35.1418 35.5742 35.1209C35.6786 35.1 35.7866 35.0977 35.892 35.114C35.9974 35.1304 36.0982 35.1652 36.1886 35.2163C36.279 35.2675 36.3572 35.334 36.4188 35.4121C37.1844 36.38 38.0666 37.4614 38.6808 38.1698C39.2324 36.6411 40.2172 33.5851 41.0855 30.7606C41.1049 30.6605 41.1476 30.565 41.2108 30.4804C41.274 30.3959 41.3563 30.3241 41.4525 30.2696C41.5486 30.2151 41.6565 30.1792 41.7691 30.1642C41.8817 30.1492 41.9966 30.1554 42.1064 30.1824C42.2161 30.2094 42.3184 30.2567 42.4065 30.3211C42.4946 30.3855 42.5666 30.4656 42.618 30.5564C42.6693 30.6471 42.6988 30.7464 42.7046 30.848C42.7104 30.9495 42.6923 31.051 42.6515 31.1459C39.8588 40.2579 39.7213 40.2579 38.954 40.2579Z" fill="white"/>
<path d="M46.1364 33.7597C46.0887 33.6742 46.0603 33.5812 46.0528 33.4859C46.0453 33.3906 46.0589 33.2949 46.0928 33.2043C46.1268 33.1137 46.1804 33.03 46.2505 32.9579C46.3207 32.8858 46.4061 32.8267 46.5018 32.7841C46.5976 32.7414 46.7018 32.716 46.8085 32.7093C46.9153 32.7027 47.0224 32.7148 47.1239 32.7451C47.2253 32.7754 47.3192 32.8233 47.3999 32.8859C47.4807 32.9486 47.5468 33.0248 47.5946 33.1103C48.1618 34.1248 48.7917 35.2139 49.2719 36.014C49.8566 34.4153 50.8223 31.6266 51.6888 29.0616C51.7198 28.9698 51.7707 28.8843 51.8386 28.8101C51.9066 28.7358 51.9902 28.6743 52.0848 28.6289C52.1794 28.5835 52.2831 28.5552 52.39 28.5457C52.4968 28.5361 52.6047 28.5454 52.7076 28.573C52.8104 28.6006 52.9061 28.6461 52.9893 28.7068C53.0724 28.7675 53.1413 28.8422 53.1922 28.9266C53.243 29.0111 53.2747 29.1037 53.2854 29.1991C53.2962 29.2945 53.2857 29.3908 53.2548 29.4826C50.2968 38.245 50.2481 38.2559 49.6582 38.3864C48.917 38.5526 48.8126 38.5386 46.1364 33.7597Z" fill="white"/>
<path d="M58.6688 36.5261C58.1555 36.5261 57.6474 36.1035 55.9927 32.2661C55.9248 32.0878 55.9368 31.8929 56.0263 31.7223C56.1158 31.5517 56.2758 31.4188 56.4727 31.3512C56.6697 31.2837 56.8882 31.2869 57.0826 31.3601C57.2769 31.4334 57.432 31.571 57.5152 31.7441C57.8997 32.6374 58.3695 33.6441 58.7332 34.3526C59.4866 32.8766 60.8316 29.9683 62.02 27.2805C62.0593 27.1917 62.1179 27.1106 62.1923 27.042C62.2667 26.9733 62.3555 26.9184 62.4536 26.8804C62.5518 26.8424 62.6574 26.822 62.7643 26.8204C62.8713 26.8188 62.9776 26.8361 63.0771 26.8712C63.1766 26.9063 63.2674 26.9585 63.3443 27.0249C63.4212 27.0914 63.4827 27.1707 63.5253 27.2583C63.5678 27.3459 63.5907 27.4402 63.5924 27.5357C63.5942 27.6312 63.5749 27.7261 63.5356 27.815C59.6797 36.5432 59.4605 36.5261 58.6688 36.5261Z" fill="white"/>
<path d="M65.8601 58.3306C65.6684 58.2994 65.4956 58.208 65.373 58.0729C65.2504 57.9377 65.1861 57.7678 65.1918 57.594C65.1974 57.4201 65.2727 57.2539 65.404 57.1253C65.5352 56.9968 65.7137 56.9145 65.907 56.8935C66.8237 56.7843 67.6998 56.4876 68.467 56.0266C69.2342 55.5655 69.8718 54.9525 70.3301 54.2352C68.9743 52.8177 68.2563 51.0012 68.3152 49.1378C68.8946 44.3217 75.0159 45.925 74.2643 49.9721C74.0202 51.4662 73.4049 52.8925 72.4633 54.1467C74.828 56.1835 78.8544 55.0043 79.9454 54.1467C78.8175 52.8531 78.2195 51.2539 78.2506 49.6148C78.6386 43.2823 86.0806 46.6878 83.9926 51.2927C83.5535 52.3331 82.9373 53.3068 82.1656 54.1793C84.5198 56.401 87.8502 54.9344 88.9742 54.1016C87.8892 52.3277 87.495 50.2822 87.8536 48.2865C89.0403 44.0809 95.3965 46.6459 93.366 51.0566C92.8111 52.2551 92.0282 53.3589 91.0518 54.3191C91.4936 54.9357 92.1065 55.4398 92.8308 55.7825C93.5552 56.1252 94.3665 56.2949 95.186 56.2751C95.402 56.2675 95.6125 56.3368 95.7712 56.4678C95.93 56.5987 96.024 56.7806 96.0325 56.9735C96.0411 57.1663 95.9635 57.3543 95.8168 57.496C95.6701 57.6378 95.4664 57.7217 95.2504 57.7293C94.1978 57.759 93.1534 57.5541 92.2117 57.1331C91.2699 56.7122 90.4605 56.0884 89.8564 55.3181C88.659 56.3204 87.0735 56.8698 85.4323 56.8509C83.7911 56.8321 82.2219 56.2466 81.0537 55.2171C79.6987 56.1982 78.0113 56.7401 76.2668 56.7545C74.5224 56.7689 72.824 56.2549 71.4489 55.2964C70.8599 56.1666 70.0442 56.897 69.0711 57.4253C68.0981 57.9536 66.9964 58.2641 65.8601 58.3306ZM69.9404 49.2419C69.9699 50.6028 70.4613 51.9236 71.3497 53.0296C72.0989 52.1115 72.545 51.0243 72.6373 49.8913C72.6391 46.8929 69.9404 47.5656 69.9404 49.2497V49.2419ZM79.8844 49.5946C79.8716 50.8365 80.2865 52.0519 81.0729 53.0762C81.6583 52.4165 82.1186 51.6754 82.4353 50.8826C83.5402 48.0161 79.9819 46.4051 79.8844 49.5946ZM89.3849 48.7976C89.1866 50.2425 89.468 51.7076 90.194 53.011C90.858 52.2621 91.4107 51.4396 91.8383 50.5641C93.051 48.2803 89.9434 46.8074 89.3779 48.7976H89.3849Z" fill="white"/>
</svg>
