<svg width="160" height="174" viewBox="0 0 160 174" fill="none" xmlns="http://www.w3.org/2000/svg">
<path d="M72.5762 60.8722C71.7121 54.404 70.4429 47.9963 68.776 41.687C67.8799 38.8491 66.1469 37.5615 61.816 37.7494C57.4852 37.9373 35.9527 41.6435 29.452 43.3035C23.9397 44.7129 23.3934 48.466 24.6114 56.0925C25.7928 63.4944 28.8326 77.4701 29.8522 82.1002C29.8777 82.2155 29.9378 82.3203 30.0246 82.4003C30.1113 82.4804 30.2205 82.532 30.3375 82.5481C30.4545 82.5642 30.5736 82.5441 30.6787 82.4905C30.7839 82.4368 30.8702 82.3523 30.9258 82.2481C31.8358 80.5412 33.2678 78.4723 34.3553 76.6801C34.6539 76.1872 35.0562 75.7652 35.5342 75.4434C36.0123 75.1216 36.5547 74.9077 37.1237 74.8166C42.5734 73.9362 58.4456 71.2096 67.3562 69.393C72.7902 68.2881 72.9799 64.4932 72.5762 60.8722Z" fill="#9683D7"/>
<path d="M154.126 17.4049C149.449 14.5844 124.32 3.48495 116.353 0.711392C109.596 -1.64805 106.416 1.90329 102.384 10.7442C98.4742 19.319 91.944 36.0769 89.7829 41.6397C89.7297 41.7782 89.7202 41.9298 89.7557 42.0739C89.7911 42.218 89.8698 42.3478 89.9812 42.4459C90.0925 42.5441 90.2312 42.6057 90.3787 42.6227C90.5261 42.6397 90.6752 42.6112 90.806 42.541C92.9462 41.3856 95.8868 40.2129 98.2689 39.0958C98.925 38.7873 99.6403 38.6253 100.365 38.6207C101.09 38.6162 101.808 38.7694 102.467 39.0697C108.789 41.9372 127.318 50.1222 137.916 54.4165C144.384 57.0387 147.229 53.1985 149.322 49.1217C152.917 41.7434 156.046 34.1467 158.689 26.3764C159.724 22.7816 158.803 20.2255 154.126 17.4049Z" fill="#D6CBFF"/>
<path d="M88.8516 100.443C93.6644 103.025 116.027 118.975 122.488 124.406C127.963 129.012 126.533 133.562 120.988 141.538C115.608 149.278 104.534 163.462 100.851 168.143C100.759 168.259 100.633 168.345 100.491 168.388C100.349 168.432 100.197 168.43 100.056 168.385C99.9143 168.339 99.7903 168.251 99.7004 168.133C99.6104 168.015 99.5589 167.872 99.5526 167.723C99.4534 165.287 98.961 162.167 98.707 159.545C98.637 158.824 98.4112 158.127 98.0453 157.501C97.6794 156.876 97.182 156.337 96.5876 155.923C90.8944 151.95 74.3992 140.193 65.2955 133.271C59.7414 129.047 61.5927 124.639 64.0287 120.759C68.5388 113.902 73.475 107.335 78.8083 101.097C81.3731 98.3721 84.0388 97.8606 88.8516 100.443Z" fill="#D6CBFF"/>
<path d="M26.0519 90.1162C21.8088 88.0018 17.9918 85.1233 14.7923 81.625C11.3446 77.9339 8.69294 73.5731 7.00201 68.8137C5.31108 64.0543 4.61706 58.998 4.96307 53.959C5.51813 54.7055 6.25762 55.699 7.22506 57.011C7.35335 57.1849 7.5455 57.3008 7.75924 57.3331C7.97297 57.3654 8.19079 57.3115 8.36477 57.1832C8.53875 57.0549 8.65463 56.8628 8.68693 56.649C8.71924 56.4353 8.66532 56.2175 8.53703 56.0435C6.87881 53.7815 5.87483 52.4278 5.35457 51.7509C5.24718 51.5566 5.08873 51.3954 4.89633 51.2846C4.70394 51.1738 4.48493 51.1177 4.26296 51.1223C4.041 51.127 3.82454 51.1922 3.63696 51.311C3.44939 51.4298 3.29785 51.5975 3.19871 51.7962C1.98941 53.5049 0.176319 56.7882 0.0980192 56.9257C-0.00284813 57.1151 -0.0269382 57.3361 0.0307274 57.5427C0.0883931 57.7494 0.223392 57.926 0.407742 58.0358C0.59948 58.1241 0.816325 58.1414 1.01963 58.0846C1.22294 58.0279 1.3995 57.9009 1.51786 57.7261C1.53178 57.7035 2.38786 56.1723 3.30658 54.6672C3.19532 62.3124 5.23269 69.8353 9.1868 76.3796C13.1409 82.9238 18.8529 88.2265 25.6725 91.6839C25.8667 91.7003 26.0603 91.6467 26.2183 91.5327C26.3764 91.4188 26.4884 91.252 26.5343 91.0627C26.5801 90.8733 26.5566 90.6738 26.4682 90.5002C26.3797 90.3266 26.232 90.1904 26.0519 90.1162Z" fill="#5B5180"/>
<path d="M122.206 93.6748C122.052 93.5238 121.844 93.4401 121.628 93.4421C121.412 93.444 121.206 93.5315 121.054 93.6852C121.037 93.7044 119.803 94.9589 118.531 96.1734C120.088 91.2702 120.655 86.1063 120.198 80.9821C119.741 75.8579 118.269 70.8757 115.869 66.3255C113.604 61.9336 110.535 58.0057 106.821 54.7458C106.738 54.6738 106.641 54.6194 106.537 54.5856C106.433 54.5518 106.323 54.5394 106.213 54.5491C106.104 54.5589 105.998 54.5905 105.901 54.6422C105.804 54.6939 105.719 54.7646 105.65 54.8501C105.581 54.9355 105.531 55.0339 105.501 55.1395C105.471 55.245 105.462 55.3555 105.476 55.4643C105.49 55.5732 105.526 55.6781 105.581 55.7729C105.636 55.8677 105.71 55.9504 105.798 56.016C105.991 56.1691 124.659 71.5664 116.749 96.4397C116.401 95.5697 115.952 94.4126 115.357 92.8918C115.279 92.6904 115.124 92.5282 114.926 92.4411C114.728 92.354 114.504 92.349 114.303 92.4272C114.101 92.5054 113.939 92.6605 113.852 92.8582C113.765 93.056 113.76 93.2802 113.838 93.4816C114.854 96.0916 115.516 97.6489 115.794 98.4563C115.857 98.6637 115.973 98.8513 116.13 99.0007C116.287 99.1501 116.48 99.2562 116.69 99.3088C116.9 99.3614 117.121 99.3586 117.33 99.3006C117.539 99.2427 117.729 99.1317 117.882 98.9783C119.493 97.6403 122.1 94.9432 122.211 94.8319C122.287 94.7557 122.347 94.6653 122.388 94.5658C122.429 94.4663 122.45 94.3598 122.449 94.2523C122.449 94.1447 122.427 94.0384 122.385 93.9393C122.343 93.8402 122.282 93.7503 122.206 93.6748Z" fill="#5B5180"/>
<path d="M39.3545 31.0538C39.157 31.0784 38.9573 31.0299 38.7932 30.9174C38.6291 30.8048 38.5118 30.6361 38.4636 30.443C37.82 27.9968 37.1663 25.5533 36.5026 23.1124C36.4641 23.0066 36.4479 22.8939 36.4552 22.7814C36.4624 22.669 36.4929 22.5593 36.5447 22.4593C36.5966 22.3593 36.6686 22.2711 36.7562 22.2003C36.8438 22.1295 36.9452 22.0777 37.0539 22.0481C37.1626 22.0185 37.2763 22.0118 37.3877 22.0284C37.4991 22.045 37.6059 22.0845 37.7013 22.1445C37.7966 22.2044 37.8785 22.2835 37.9417 22.3768C38.005 22.47 38.0482 22.5753 38.0686 22.6861C38.1382 22.9384 39.7512 28.9031 40.0366 30.0481C40.0645 30.1593 40.0687 30.2753 40.0487 30.3882C40.0288 30.5012 39.9852 30.6087 39.9208 30.7037C39.8564 30.7986 39.7726 30.8789 39.675 30.9392C39.5775 30.9996 39.4682 31.0386 39.3545 31.0538Z" fill="#5B5180"/>
<path d="M45.1784 29.0443C45.0646 29.0587 44.949 29.0482 44.8396 29.0136C44.7302 28.979 44.6296 28.9211 44.5447 28.8438C44.4599 28.7666 44.3928 28.6719 44.3481 28.5662C44.3034 28.4605 44.2821 28.3464 44.2858 28.2317V18.4007C44.2939 18.1825 44.3865 17.976 44.5439 17.8247C44.7013 17.6735 44.9114 17.5892 45.1297 17.5898C45.2355 17.591 45.34 17.6131 45.4371 17.6551C45.5341 17.6971 45.6219 17.7581 45.6951 17.8344C45.7684 17.9107 45.8256 18.0009 45.8636 18.0996C45.9015 18.1983 45.9194 18.3037 45.9162 18.4094V28.2386C45.9097 28.4389 45.8318 28.6303 45.6965 28.778C45.5611 28.9258 45.3774 29.0203 45.1784 29.0443Z" fill="#5B5180"/>
<path d="M50.4324 30.0936C50.2986 30.1086 50.1631 30.0901 50.0382 30.0398C49.9133 29.9895 49.8028 29.9091 49.7166 29.8056C49.6304 29.7022 49.5712 29.579 49.5443 29.4471C49.5174 29.3151 49.5236 29.1786 49.5624 29.0496L51.8557 21.5955C51.9194 21.3878 52.0629 21.2139 52.2548 21.1121C52.4467 21.0103 52.6712 20.9889 52.8788 21.0526C53.0865 21.1163 53.2603 21.2599 53.3622 21.4517C53.464 21.6436 53.4854 21.8681 53.4217 22.0757L51.1284 29.5281C51.0805 29.6802 50.989 29.8148 50.8652 29.9153C50.7415 30.0159 50.591 30.0778 50.4324 30.0936Z" fill="#5B5180"/>
<path d="M50.7181 68.5924C50.5451 68.5925 50.3773 68.5338 50.242 68.426C50.1067 68.3182 50.012 68.1677 49.9734 67.9991L48.8981 63.3672C48.8752 63.2692 48.8719 63.1676 48.8883 63.0683C48.9047 62.969 48.9405 62.8739 48.9937 62.7884C49.0468 62.703 49.1163 62.6288 49.1981 62.5702C49.2799 62.5116 49.3725 62.4696 49.4705 62.4468C49.5685 62.4239 49.6701 62.4206 49.7694 62.437C49.8687 62.4534 49.9639 62.4892 50.0493 62.5424C50.1348 62.5955 50.2089 62.665 50.2676 62.7468C50.3262 62.8286 50.3681 62.9212 50.391 63.0192L51.4663 67.6511C51.4925 67.7637 51.493 67.8808 51.4676 67.9936C51.4422 68.1064 51.3916 68.2121 51.3197 68.3026C51.2477 68.3931 51.1562 68.4662 51.0521 68.5164C50.9479 68.5666 50.8337 68.5926 50.7181 68.5924Z" fill="#5B5180"/>
<path d="M46.6515 51.0617C46.4783 51.0618 46.3101 51.0032 46.1746 50.8954C46.039 50.7876 45.944 50.6371 45.905 50.4683L44.8384 45.8643C44.7922 45.6663 44.8266 45.4581 44.934 45.2855C45.0413 45.1129 45.2129 44.99 45.4108 44.9438C45.6088 44.8977 45.817 44.9321 45.9896 45.0394C46.1622 45.1468 46.2851 45.3183 46.3313 45.5163L47.3979 50.1203C47.4244 50.2328 47.4252 50.3499 47.4 50.4627C47.3748 50.5755 47.3245 50.6812 47.2526 50.7718C47.1808 50.8624 47.0894 50.9355 46.9853 50.9857C46.8812 51.0359 46.767 51.0619 46.6515 51.0617Z" fill="white"/>
<path d="M54.6504 55.6627C54.4607 55.6629 54.2777 55.5926 54.1368 55.4656C53.9959 55.3385 53.9073 55.1636 53.888 54.9749C53.8687 54.7862 53.9202 54.597 54.0324 54.4441C54.1447 54.2911 54.3097 54.1853 54.4956 54.1471L59.5938 53.0875C59.7927 53.0459 59.9999 53.0851 60.1699 53.1964C60.3399 53.3077 60.4588 53.4819 60.5003 53.6808C60.5418 53.8797 60.5027 54.0869 60.3914 54.257C60.2801 54.427 60.1059 54.5458 59.907 54.5873C54.941 55.6209 54.8262 55.6627 54.6504 55.6627Z" fill="white"/>
<path d="M37.024 59.3256C36.8343 59.3258 36.6512 59.2556 36.5104 59.1285C36.3695 59.0014 36.2808 58.8266 36.2615 58.6379C36.2423 58.4491 36.2937 58.2599 36.406 58.107C36.5182 57.9541 36.6833 57.8483 36.8691 57.8101L41.3688 56.874C41.5651 56.8393 41.7672 56.8825 41.9323 56.9943C42.0974 57.1061 42.2124 57.2778 42.2531 57.473C42.2938 57.6681 42.257 57.8715 42.1504 58.04C42.0438 58.2085 41.8758 58.3288 41.682 58.3756C37.2432 59.2978 37.1997 59.3256 37.024 59.3256Z" fill="#5B5180"/>
<path d="M41.2755 67.1762C41.1394 67.1758 41.0058 67.1392 40.8885 67.0701C40.7711 67.0011 40.6743 66.902 40.6079 66.7832C40.5415 66.6644 40.5079 66.53 40.5105 66.3939C40.5132 66.2578 40.552 66.1248 40.623 66.0086L43.32 61.6291C43.4266 61.456 43.5976 61.3324 43.7953 61.2854C43.9931 61.2384 44.2014 61.2719 44.3745 61.3785C44.5475 61.4851 44.6711 61.6561 44.7181 61.8538C44.7651 62.0516 44.7316 62.2599 44.625 62.4329L41.928 66.8108C41.8596 66.9224 41.7636 67.0146 41.6494 67.0786C41.5352 67.1426 41.4064 67.1762 41.2755 67.1762Z" fill="#5B5180"/>
<path d="M51.83 51.0622C51.6938 51.0618 51.5602 51.0252 51.4429 50.9561C51.3256 50.887 51.2287 50.788 51.1623 50.6692C51.0959 50.5503 51.0623 50.416 51.065 50.2798C51.0676 50.1437 51.1065 50.0108 51.1775 49.8946L53.5195 46.091C53.6261 45.9179 53.7971 45.7943 53.9948 45.7473C54.1926 45.7003 54.4009 45.7338 54.5739 45.8404C54.747 45.947 54.8706 46.118 54.9176 46.3158C54.9646 46.5135 54.9311 46.7218 54.8245 46.8949L52.4825 50.6968C52.4141 50.8085 52.3182 50.9008 52.204 50.9648C52.0897 51.0288 51.9609 51.0623 51.83 51.0622Z" fill="white"/>
<path d="M58.7468 63.0508C58.451 63.0508 58.8095 63.2039 53.5268 60.1555C53.351 60.0537 53.2228 59.8863 53.1704 59.69C53.1181 59.4937 53.1458 59.2847 53.2476 59.1088C53.3493 58.933 53.5167 58.8048 53.713 58.7525C53.9093 58.7001 54.1183 58.7278 54.2942 58.8296L59.1244 61.6223C59.2686 61.7072 59.3812 61.8369 59.4448 61.9917C59.5085 62.1465 59.5198 62.3178 59.477 62.4797C59.4343 62.6415 59.3397 62.7849 59.2079 62.888C59.0761 62.9911 58.9142 63.0483 58.7468 63.0508Z" fill="white"/>
<path d="M42.6236 53.7189C42.3312 53.7189 42.5888 53.8163 37.8264 51.0637C37.7393 51.0133 37.663 50.9463 37.6019 50.8664C37.5407 50.7865 37.4959 50.6954 37.47 50.5982C37.4441 50.501 37.4375 50.3997 37.4507 50.3C37.464 50.2003 37.4967 50.1041 37.5471 50.0171C37.5975 49.93 37.6645 49.8537 37.7444 49.7926C37.8243 49.7314 37.9154 49.6866 38.0126 49.6607C38.1098 49.6347 38.2111 49.6282 38.3108 49.6414C38.4105 49.6547 38.5067 49.6874 38.5937 49.7378L43.0064 52.2904C43.1523 52.3747 43.2663 52.5047 43.3308 52.6604C43.3952 52.8161 43.4065 52.9887 43.3629 53.1515C43.3193 53.3142 43.2232 53.4581 43.0895 53.5607C42.9559 53.6633 42.7921 53.7189 42.6236 53.7189Z" fill="#5B5180"/>
<path d="M71.1452 92.2986H68.2759L68.1924 86.3461C68.1894 86.1301 68.1007 85.9242 67.9459 85.7736C67.7911 85.623 67.5827 85.54 67.3668 85.543C67.1508 85.546 66.9449 85.6347 66.7943 85.7896C66.6437 85.9444 66.5608 86.1527 66.5638 86.3687L66.6456 92.2986H63.8459C63.6362 92.3083 63.4383 92.3984 63.2933 92.5502C63.1484 92.702 63.0675 92.9039 63.0675 93.1138C63.0675 93.3237 63.1484 93.5255 63.2933 93.6774C63.4383 93.8292 63.6362 93.9193 63.8459 93.929H66.6682L66.7517 99.8833C66.7638 100.093 66.8565 100.29 67.0104 100.433C67.1643 100.577 67.3675 100.655 67.5777 100.652C67.7879 100.649 67.9888 100.565 68.1387 100.418C68.2885 100.27 68.3757 100.071 68.3821 99.8606L68.2986 93.929H71.1452C71.3549 93.9193 71.5528 93.8292 71.6977 93.6774C71.8427 93.5255 71.9236 93.3237 71.9236 93.1138C71.9236 92.9039 71.8427 92.702 71.6977 92.5502C71.5528 92.3984 71.3549 92.3083 71.1452 92.2986Z" fill="#9683D7"/>
<path d="M114.592 130.712C114.103 130.712 116.158 131.866 85.9637 110.472C85.7872 110.348 85.6675 110.158 85.6307 109.945C85.594 109.732 85.6434 109.514 85.768 109.337C85.8926 109.161 86.0822 109.041 86.2951 109.004C86.5081 108.967 86.7268 109.017 86.9034 109.141C87.0774 109.268 105.173 122.035 115.07 129.238C115.209 129.34 115.312 129.482 115.364 129.646C115.417 129.809 115.417 129.985 115.364 130.148C115.311 130.311 115.208 130.454 115.069 130.555C114.93 130.656 114.764 130.711 114.592 130.712Z" fill="white"/>
<path d="M108.659 139.125C107.689 139.125 107.392 137.428 89.3029 124.652C89.1263 124.527 89.0067 124.337 88.9701 124.124C88.9336 123.911 88.9832 123.692 89.108 123.515C89.2328 123.339 89.4226 123.219 89.6357 123.183C89.8488 123.146 90.0677 123.196 90.2442 123.321C95.6382 127.135 103.31 132.717 109.186 137.688C109.313 137.796 109.404 137.94 109.446 138.102C109.488 138.263 109.48 138.433 109.423 138.59C109.365 138.746 109.261 138.882 109.125 138.977C108.988 139.073 108.825 139.125 108.659 139.125Z" fill="white"/>
<path d="M86.2731 122.354C85.8085 122.354 86.0208 122.272 81.3332 119.149C81.1634 119.024 81.0481 118.839 81.0115 118.632C80.9749 118.425 81.0197 118.211 81.1368 118.036C81.2538 117.861 81.4338 117.738 81.6394 117.693C81.8449 117.648 82.06 117.684 82.2398 117.793C82.2572 117.805 84.032 118.994 86.7377 120.869C86.8806 120.968 86.9882 121.11 87.0447 121.274C87.1012 121.439 87.1037 121.617 87.0518 121.783C86.9999 121.948 86.8963 122.093 86.7562 122.196C86.6161 122.299 86.4468 122.354 86.2731 122.354Z" fill="white"/>
<path d="M101.627 146.282C101.002 146.282 101.368 146.061 94.7279 140.962C94.6398 140.899 94.5655 140.818 94.5093 140.724C94.4531 140.631 94.4161 140.528 94.4005 140.42C94.3849 140.313 94.391 140.203 94.4185 140.098C94.4461 139.992 94.4944 139.894 94.5606 139.808C94.6269 139.721 94.7098 139.649 94.8044 139.595C94.899 139.542 95.0034 139.508 95.1114 139.495C95.2195 139.482 95.3289 139.491 95.4334 139.522C95.5379 139.552 95.6352 139.603 95.7197 139.671C97.9078 141.343 100.054 143.069 102.158 144.846C102.284 144.955 102.374 145.099 102.416 145.261C102.458 145.422 102.45 145.592 102.392 145.749C102.334 145.905 102.23 146.04 102.093 146.135C101.956 146.23 101.794 146.282 101.627 146.282Z" fill="white"/>
<path d="M91.2082 138.118C91.0347 138.118 90.8658 138.062 90.7262 137.959C85.4497 134.091 80.0615 130.378 74.5685 126.823C74.4012 126.702 74.2864 126.521 74.2476 126.318C74.2088 126.114 74.2489 125.904 74.3596 125.729C74.4704 125.554 74.6436 125.428 74.844 125.376C75.0444 125.325 75.257 125.351 75.4385 125.451C75.5168 125.501 83.3399 130.518 91.6849 136.653C91.8196 136.755 91.919 136.897 91.9694 137.059C92.0199 137.22 92.0188 137.394 91.9665 137.554C91.9141 137.715 91.813 137.856 91.6771 137.957C91.5413 138.058 91.3774 138.114 91.2082 138.118Z" fill="white"/>
<path d="M113.055 23.0725C113.055 23.6175 113.272 24.1402 113.657 24.5256C114.043 24.911 114.565 25.1275 115.11 25.1275C115.655 25.1275 116.178 24.911 116.563 24.5256C116.949 24.1402 117.165 23.6175 117.165 23.0725C117.165 22.5275 116.949 22.0048 116.563 21.6195C116.178 21.2341 115.655 21.0176 115.11 21.0176C114.565 21.0176 114.043 21.2341 113.657 21.6195C113.272 22.0048 113.055 22.5275 113.055 23.0725Z" fill="white"/>
<path d="M125.41 28.1917C125.41 28.7367 125.626 29.2593 126.011 29.6447C126.397 30.0301 126.919 30.2466 127.464 30.2466C128.009 30.2466 128.532 30.0301 128.918 29.6447C129.303 29.2593 129.519 28.7367 129.519 28.1917C129.519 27.6467 129.303 27.124 128.918 26.7386C128.532 26.3532 128.009 26.1367 127.464 26.1367C126.919 26.1367 126.397 26.3532 126.011 26.7386C125.626 27.124 125.41 27.6467 125.41 28.1917Z" fill="white"/>
<path d="M136.63 33.1331C136.63 33.6781 136.847 34.2007 137.232 34.5861C137.617 34.9715 138.14 35.188 138.685 35.188C139.23 35.188 139.753 34.9715 140.138 34.5861C140.524 34.2007 140.74 33.6781 140.74 33.1331C140.74 32.5881 140.524 32.0654 140.138 31.68C139.753 31.2946 139.23 31.0781 138.685 31.0781C138.14 31.0781 137.617 31.2946 137.232 31.68C136.847 32.0654 136.63 32.5881 136.63 33.1331Z" fill="white"/>
</svg>
