<svg width="350" height="358" viewBox="0 0 350 358" fill="none" xmlns="http://www.w3.org/2000/svg">
<path d="M108.692 315.446C123.046 284.01 150.719 316.5 117.364 347.428C104.196 344.004 90.5751 335.614 84.7432 324.495C82.655 314.299 94.8644 303.03 108.692 315.446Z" fill="#8675C0"/>
<path d="M276.332 244.562C276.332 244.562 279.23 231.788 280.095 224.131C285.363 227.273 294.11 234.139 298.908 236.472C308.314 231.148 318.115 224.545 318.115 224.545C319.26 231.039 319.746 237.632 319.564 244.223C327.304 245.465 334.967 247.148 342.515 249.265L325.133 264.71L334.275 286.138C334.275 286.138 321.257 284.482 310.703 283.786C308.642 290.52 306.94 297.358 305.605 304.273C305.605 304.273 298.212 297.425 291.928 291.405C280.753 295.788 273.529 299.457 273.529 299.457L269.522 281.378L253.438 276.543L264.97 262.791L257.144 246.687L276.332 244.562Z" fill="#8675C0"/>
<path d="M43.6771 177.305C43.1772 177.296 42.6935 177.126 42.2972 176.821C41.9009 176.517 41.613 176.092 41.476 175.612C22.6069 105.346 16.0225 79.6859 29.8686 69.4706C40.7611 61.4376 65.876 54.9848 73.4011 55.2482C80.4558 55.3987 81.7915 66.2912 88.6205 66.5358C96.5595 66.6487 130.008 59.5751 147.147 53.9877C163.965 48.3439 160.748 42.4179 165.602 33.1245C170.286 25.8252 206.726 18.3565 218.277 24.1885C229.828 30.0204 232.763 59.0484 235.905 73.4589C236.733 77.3155 232.763 79.1027 231.54 74.3995C230.524 70.637 229.828 64.504 228.888 60.1959C226.103 47.3845 223.244 31.8264 216.227 28.2144C206.407 23.2478 172.6 30.6224 169.458 35.5325C165.226 44.7695 167.145 51.8995 148.652 58.3147C130.742 64.109 97.0298 71.2578 88.6393 71.0696C80.4935 71.333 78.631 62.0019 73.3635 59.782C66.5721 59.6315 42.3978 65.8397 32.5776 73.1579C17.3394 86.3267 37.7511 138.062 45.8782 174.408C45.9704 174.747 45.9834 175.103 45.9163 175.448C45.8492 175.793 45.7036 176.118 45.4909 176.398C45.2782 176.678 45.0041 176.905 44.6896 177.063C44.3751 177.22 44.0287 177.303 43.6771 177.305Z" fill="#8675C0"/>
<path d="M86.8323 299.117C76.0338 297.236 73.4188 286.607 68.0196 269.224C67.9126 268.655 68.0242 268.067 68.3323 267.577C68.6403 267.088 69.122 266.732 69.6808 266.582C70.2397 266.432 70.8345 266.499 71.3462 266.769C71.858 267.039 72.2488 267.493 72.4406 268.039C76.9556 283.277 78.3289 291.912 88.3185 294.376C90.9334 295.016 97.3109 295.336 115.465 291.084C115.757 291.016 116.059 291.006 116.354 291.055C116.649 291.104 116.932 291.21 117.186 291.368C117.441 291.527 117.661 291.733 117.835 291.976C118.01 292.22 118.134 292.495 118.202 292.787C118.27 293.078 118.28 293.38 118.231 293.676C118.183 293.971 118.076 294.254 117.918 294.508C117.76 294.762 117.553 294.983 117.31 295.157C117.067 295.331 116.791 295.456 116.5 295.524C97.8565 300.001 93.1157 300.321 86.8323 299.117Z" fill="#8675C0"/>
<path d="M228.662 266.911C228.13 266.872 227.628 266.649 227.242 266.28C226.856 265.911 226.611 265.42 226.548 264.89C226.486 264.359 226.61 263.824 226.9 263.376C227.19 262.927 227.627 262.594 228.136 262.433C242.17 258.577 247.663 254.908 247.757 254.908C248.296 254.631 248.923 254.58 249.5 254.765C250.076 254.95 250.556 255.357 250.833 255.896C251.11 256.435 251.161 257.061 250.976 257.638C250.791 258.215 250.384 258.695 249.845 258.972C243.205 262.628 236.07 265.302 228.662 266.911Z" fill="#8675C0"/>
<path d="M269.486 229.511C265.723 230.414 261.961 210.209 259.891 204.264C259.749 203.675 259.847 203.054 260.163 202.537C260.478 202.02 260.986 201.65 261.575 201.508C262.164 201.366 262.785 201.463 263.302 201.779C263.819 202.095 264.189 202.603 264.331 203.192C266.344 210.359 273.587 228.457 269.486 229.511Z" fill="#8675C0"/>
<path d="M295.258 224.206C291.609 223.397 291.251 215.89 289.257 207.105C289.189 206.795 289.185 206.473 289.247 206.162C289.31 205.85 289.436 205.554 289.618 205.294C289.8 205.034 290.035 204.814 290.306 204.649C290.578 204.484 290.881 204.377 291.196 204.335C291.511 204.293 291.832 204.317 292.137 204.406C292.442 204.494 292.726 204.645 292.97 204.849C293.214 205.053 293.413 205.305 293.554 205.59C293.695 205.874 293.776 206.185 293.791 206.503C294.261 215.439 300.676 223.209 295.258 224.206Z" fill="#8675C0"/>
<path d="M150.532 323.122C148.444 323.122 144.606 319.755 154.859 316.839C170.906 311.646 219.16 294.941 234.737 291.893C235.01 291.758 235.309 291.681 235.613 291.668C235.918 291.655 236.221 291.706 236.505 291.818C236.789 291.93 237.046 292.1 237.26 292.317C237.474 292.534 237.64 292.793 237.747 293.078C238.801 297.349 219.649 299.851 199.388 307.338C188.157 311.458 155.743 323.084 150.532 323.122Z" fill="#8675C0"/>
<path d="M181.78 331.645C177.905 332.285 177.077 329.331 179.523 328.071C183.643 325.945 192.353 324.722 193.67 324.402C200.122 323.01 230.411 308.016 232.142 314.751C232.189 315.052 232.174 315.36 232.097 315.654C232.019 315.949 231.882 316.224 231.693 316.463C231.503 316.702 231.267 316.899 230.997 317.041C230.728 317.184 230.432 317.269 230.129 317.291C224.221 316.99 202.06 326.472 194.742 328.823C188.703 330.046 187.913 330.629 181.78 331.645Z" fill="#8675C0"/>
<path d="M53.4581 127.922C35.7742 128.731 32.1057 101.34 50.8243 98.0664C74.359 93.6266 76.2967 128.392 53.4581 127.922ZM54.5869 102.262C47.6262 101.998 40.7219 108.413 43.0735 115.637C45.7637 125.044 55.1512 123.313 56.2424 123.162C66.8903 122.504 69.9192 102.826 54.5869 102.262Z" fill="#8675C0"/>
<path d="M71.5199 90.2971C56.9589 83.1295 119.172 77.1282 123.781 73.6291C143.027 67.816 165.771 65.4832 182.421 58.5789C187.97 57.3373 209.774 47.2913 212.765 53.2361C212.797 53.5329 212.769 53.8328 212.683 54.1187C212.598 54.4046 212.456 54.6706 212.267 54.9016C212.078 55.1325 211.846 55.3237 211.582 55.464C211.319 55.6044 211.031 55.6912 210.734 55.7194C188.478 58.6918 175.309 68.3051 151.173 71.7854C137.044 73.8925 117.065 81.0413 103.389 83.28C92.5401 84.4407 81.8526 86.7939 71.5199 90.2971Z" fill="#8675C0"/>
<path d="M78.0655 104.236C77.499 104.241 76.9506 104.037 76.5258 103.662C76.1009 103.287 75.8297 102.769 75.7644 102.206C75.699 101.643 75.844 101.076 76.1716 100.614C76.4992 100.152 76.9861 99.827 77.5388 99.7022C82.6278 98.4677 87.7766 97.4945 92.9651 96.7863C100.641 96.5417 113.659 88.3017 115.032 92.591C117.008 98.7804 81.9785 102.787 78.0655 104.236Z" fill="#8675C0"/>
<path d="M83.2585 119.044C76.8246 115.676 84.0675 112.967 94.4332 111.406C96.3145 111.406 100.905 109.054 101.695 112.403C102.485 115.751 96.8789 115.394 95.054 115.94C86.0992 117.219 85.516 118.686 83.2585 119.044Z" fill="#8675C0"/>
<path d="M90.0495 52.4074C89.1089 46.9141 94.8656 47.0082 105.25 44.318C116.669 41.3832 131.72 36.9998 131.456 44.017C131.324 48.7578 124.082 49.0023 114.073 51.3163C103.764 53.6867 91.009 57.976 90.0495 52.4074Z" fill="#8675C0"/>
<path d="M150.532 42.4193C155.63 38.431 149.648 28.5732 143.553 34.01C142.437 34.9356 141.736 36.2662 141.602 37.7092C141.468 39.1522 141.912 40.5893 142.838 41.7044C143.763 42.8196 145.094 43.5214 146.537 43.6554C147.98 43.7895 149.417 43.3448 150.532 42.4193Z" fill="#8675C0"/>
<path d="M72.7241 357.437C68.416 358.528 58.7463 298.835 50.1489 279.609C30.4333 224.337 15.0821 150.61 2.42122 99.3457C-11.6506 49.4733 38.297 40.368 82.9206 30.9993C119.887 23.4742 192.843 1.4634 217.224 0.315829C243.317 -3.20214 248.209 23.3425 253.476 46.4069C254.04 51.7685 264.538 89.9394 260.324 89.2057C255.15 89.2057 256.185 78.332 253.89 70.8069C250.127 52.7656 245.838 26.3526 237.749 12.6569C231.936 4.4358 225.201 5.00018 217.431 4.88731C203.209 4.77443 142.049 21.2167 111.027 29.2497C82.977 36.5114 49.8855 40.9324 24.4885 52.5022C-0.90862 64.072 5.26193 92.5732 6.80457 98.1417C9.51359 107.962 22.1557 162.293 24.9964 175.932C33.2552 215.044 68.5477 318.908 74.9252 354.652C75.0049 354.985 75.0082 355.331 74.9347 355.665C74.8612 355.998 74.7129 356.311 74.501 356.579C74.289 356.847 74.019 357.064 73.7112 357.212C73.4034 357.361 73.0659 357.438 72.7241 357.437Z" fill="#8675C0"/>
<path d="M173.109 135.73C176.608 136.181 176.608 132.118 184.904 132.475C188.197 132.626 189.137 128.28 185.149 127.697C180.609 126.965 175.96 127.973 172.131 130.519C169.61 132.494 170.174 135.448 173.109 135.73Z" fill="#001434"/>
<path d="M162.761 172.528C159.996 174.409 162.761 177.701 165.828 175.782C169.477 173.543 173.165 165.642 162.159 159.641C161.66 159.36 161.074 159.276 160.517 159.404C159.959 159.533 159.469 159.866 159.144 160.337C158.819 160.808 158.681 161.384 158.759 161.952C158.837 162.519 159.123 163.037 159.563 163.403C161.821 165.454 164.548 166.903 165 168.709C165.018 169.49 164.818 170.261 164.422 170.936C164.027 171.61 163.452 172.161 162.761 172.528Z" fill="#001434"/>
<path d="M209.511 122.993C213.612 123.106 220.178 118.328 222.774 117.557C230.657 115.243 226.254 119.438 234.062 121.507C241.211 123.388 245.199 115.431 239.48 110.803C233.761 106.175 228.832 109.016 225.427 110.05C217.902 112.383 220.46 105.987 212.559 107.115C205.034 108.207 205.034 115.638 193.633 114.264C184.415 113.154 180.577 119.588 185.017 122.993C191.282 127.791 198.675 126.85 200.801 123.257C203.209 119.156 204.262 122.862 209.511 122.993Z" fill="#001434"/>
<path d="M182.381 167.429C197.657 166.62 205.069 156.48 202.962 148.221C200.911 140.264 191.166 134.507 179.465 140C166.089 146.265 168.234 168.144 182.381 167.429ZM174.987 155.615C174.57 152.824 175.214 149.977 176.791 147.637C178.369 145.297 180.766 143.633 183.509 142.973C183.302 148.315 183.81 156.141 187.422 162.011C181.195 164.363 176.078 162.18 174.987 155.615Z" fill="#001434"/>
<path d="M174.82 186.411C171.452 181.332 153.11 184.661 157.004 199.354C159.675 209.494 167.295 210.228 171.904 208.949C176.061 207.801 176.287 204.509 174.481 197.661C173.634 194.538 177.623 190.644 174.82 186.411Z" fill="#001434"/>
<path d="M201.777 85.4989C196.736 87.5307 197.639 92.1398 193.481 95.7895C188.797 99.8718 182.193 90.1457 172.787 107.529C169.457 113.718 164.622 109.579 159.806 113.624C152.074 120.171 164.265 130.969 175.496 122.917C181.027 118.929 177.227 114.621 179.672 112.514C182.983 109.636 187.687 111.78 194.177 109.918C198.843 108.601 195.061 101.885 199.971 99.7213C203.734 98.0846 207.139 100.154 213.14 98.3292C217.674 96.9558 216.602 92.3467 220.383 93.0428C224.164 93.7389 228.021 99.4203 232.875 99.6837C236.223 99.8718 244.275 97.5579 240.757 88.3961C238.5 82.5453 230.542 82.2632 219.442 85.4989C214.288 87.0228 208.851 82.6394 201.777 85.4989Z" fill="#001434"/>
<path d="M117.479 138.664C121.43 137.799 129.35 134.037 128.071 127.471C126.359 118.798 128.071 117.312 135.464 109.655C140.036 104.952 131.702 98.744 136.838 97.3895C155.763 92.4041 157.532 85.989 155.443 80.1947C153.167 73.6667 140.393 76.9589 137.364 86.4217C134.712 94.7933 126.077 92.724 120.32 99.6846C110.914 110.972 129.162 112.364 117.216 121.884C107.264 129.804 109.634 140.376 117.479 138.664Z" fill="#001434"/>
<path d="M125.154 148.259C128.917 143.424 139.339 145.568 139.113 141.637C138.718 134.789 124.063 140.414 121.561 145.399C120.282 148.089 123.33 150.61 125.154 148.259Z" fill="#001434"/>
<path d="M141.125 112.873C126.602 121.846 130.778 134.056 140.41 131.159C148.914 128.6 156.382 123.859 153.824 116.541C150.851 108.094 158.489 111.443 164.679 105.254C169.307 100.55 168.686 92.2729 176.173 92.0848C193.838 91.6897 186.257 81.1546 193.763 77.7683C199.52 75.191 202.549 80.0258 209.02 78.4456C215.492 76.8653 213.065 68.4372 209.472 66.0857C204.035 62.5489 195.343 62.9439 185.674 75.492C179.823 83.0171 168.742 72.9335 165.281 86.7796C162.478 97.9355 157.756 91.9155 151.472 95.9414C140.26 103.015 147.446 109.11 141.125 112.873Z" fill="#001434"/>
<path d="M321.858 167.053C318.961 155.897 316.422 147.977 313.299 139.229C324.586 133.247 348.177 126.945 347.161 123.163C345.863 118.234 322.912 129.578 311.643 134.959C305.19 121.207 303.554 115.977 300.261 109.43C303.761 103.523 318.867 88.943 315.82 85.8577C312.772 82.7725 300.28 99.7415 296.668 104.463C293.188 99.2524 283.8 86.8172 276.614 88.5856C262.881 94.568 231.99 141.75 214.532 156.97C212.818 147.542 209.421 138.5 204.505 130.274C202.793 127.34 199.708 129.729 201.081 131.968C206.217 140.57 209.504 150.149 210.732 160.093C209.81 160.807 208.851 161.522 207.91 162.2C199.087 168.389 185.335 169.198 182.72 178.868C181.497 183.439 183.077 193.748 190.358 199.562C177.885 213.295 175.044 221.478 169.419 223.755C155.874 229.21 150.607 212.467 119.641 215.345C118.842 215.467 118.025 215.371 117.277 215.066C116.528 214.762 115.876 214.26 115.389 213.615C108.316 203.362 99.1918 175.067 109.144 148.617C110.084 146.171 106.604 144.384 105.381 147.601C95.0718 176.61 103.274 198.659 110.329 214.461C111.853 217.923 107.055 219.616 104.027 217.358C91.7232 208.159 77.482 178.36 80.6801 158.287C84.0476 137.141 103.575 127.17 111.627 123.841C113.508 123.088 111.721 120.36 109.877 121.113C76.0146 134.677 73.0986 157.214 74.9611 169.593C67.436 171.286 68.7717 175.914 65.7053 178.096C64.125 179.225 58.8387 175.35 54.0602 176.102C48.6422 176.949 50.1284 186.092 44.8044 186.844C38.8032 187.672 30.9959 186.468 34.3634 197.191C37.1853 206.146 46.4599 205.751 49.0184 195.31C50.3918 189.666 56.8257 194.275 59.6664 193.184C64.6894 191.303 64.2755 187.051 66.7023 189.177C73.0046 194.633 57.9168 196.57 53.985 204.584C51.2383 210.228 55.1326 214.254 53.0444 219.879C51.8215 223.19 41.8884 223.962 43.1865 229.982C45.5381 240.742 62.1121 244.618 61.2843 232.803C60.9833 228.608 59.1208 223.529 60.0427 221.046C61.5665 216.85 66.4013 215.044 69.0539 212.919C76.2592 207.143 72.2145 200.069 77.2751 200.822C80.398 201.292 80.4356 205.826 77.482 212.241C74.8106 218.073 70.1639 216.756 68.4519 222.964C66.5707 229.474 74.2274 230.358 70.653 235.701C68.6024 238.767 62.4883 242.059 64.0686 247.534C66.6459 256.357 78.0652 256.639 80.4732 250.92C82.8812 245.201 78.8929 242.172 80.2663 236.829C81.4891 232.013 86.6249 230.49 88.3181 227.273C92.2876 219.747 86.1358 209.024 91.1964 209.739C93.9431 210.134 90.1617 212.185 94.4698 218.92C98.5334 225.222 85.8724 227.743 90.9895 237.883C89.5409 242.003 87.6408 247.045 87.6596 250.657C87.7725 281.961 110.668 281.51 140.504 292.722C150.212 296.165 161.067 299.005 169.231 298.761C191.581 298.046 199.821 284.425 212.5 272.611C237.314 249.34 255.469 217.114 233.74 192.319C253.7 193.786 315.255 204.923 320.579 199.656C325.903 194.388 324.925 184.192 323.025 171.963C329.835 174.559 347.933 185.471 349.833 180.824C352.166 175.105 329.44 171.042 321.858 167.053ZM190.17 193.015C180.105 176.554 190.17 174.541 206.781 167.806C206.104 172.96 208.286 183.1 211.372 188.5C202.304 191.886 194.798 200.22 190.038 193.015H190.17ZM99.2482 270.504C87.9606 259.216 91.7232 240.404 101.6 229.793C111.138 219.484 128.671 215.026 147.051 223.284C135.876 233.462 124.796 258.784 134.635 286.006C120.318 281.19 104.403 275.715 99.2482 270.504ZM234.887 202.007C236.63 205.668 237.792 209.577 238.33 213.596C234.322 213.781 230.347 214.412 226.478 215.477C225.878 215.654 225.364 216.048 225.038 216.582C224.712 217.116 224.596 217.753 224.713 218.368C224.831 218.983 225.173 219.532 225.673 219.909C226.173 220.286 226.795 220.463 227.419 220.406C229.676 220.312 233.232 218.412 238.706 218.224C240.155 242.436 215.003 262.151 200.517 278.895C188.909 292.289 168.667 300.943 141.972 288.527C125.793 264.785 141.972 231.675 151.98 225.184C158.47 227.686 165.807 232.465 172.825 228.044C185.297 217.208 186.445 206.071 198.88 198.715C207.026 193.899 224.409 186.054 232.178 197.661C228.791 197.944 225.457 198.678 222.264 199.844C221.769 200.002 221.342 200.321 221.049 200.75C220.756 201.178 220.614 201.693 220.646 202.211C220.679 202.73 220.883 203.222 221.228 203.611C221.572 204 222.036 204.263 222.546 204.359C225.255 204.848 230.617 201.97 234.887 202.007ZM267.659 192.036C247.078 189.628 231.2 186.016 216.056 187.597C212.293 182.31 210.017 168.408 211.936 164.551C230.184 151.664 254.283 115.243 271.798 97.5592C269.296 130.613 287.619 176.572 312.697 196.796C303.102 196.909 283.142 194.162 267.659 192.036ZM279.831 130.594C293.677 132.983 306.169 149.652 293.226 165.379C287.084 154.501 282.571 142.782 279.831 130.594ZM318.83 195.009C315.5 195.009 304.852 184.21 295.634 169.424C312.452 155.483 297.741 125.665 278.702 125.872C275.203 108.64 274.488 94.2106 278.702 92.7432C281.863 91.6332 289.312 100.964 294.091 108.414C291.457 111.274 287.807 115.676 289.369 117.294C290.234 118.197 293.865 115.902 296.48 113.193C300.615 120.741 304.235 128.56 307.316 136.596C300.769 139.587 302.293 143.876 308.953 140.866C312.055 148.975 314.693 157.253 316.854 165.661C309.705 163.93 309.969 164.213 309.912 165.379C309.856 166.545 315.048 169.574 318.34 170.816C320.786 178.002 320.485 192.808 318.83 195.009Z" fill="#001434"/>
<path d="M88.9404 189.534C88.9404 191.415 94.8288 193.672 95.4872 196.344C95.9199 198.056 95.8447 203.041 98.4972 202.364C100.002 201.988 100.849 195.779 99.2121 193.654C97.9947 191.944 96.4144 190.524 94.5842 189.496C94.4625 189.415 94.3583 189.31 94.2779 189.188C94.1975 189.066 94.1425 188.928 94.1162 188.784C94.0899 188.641 94.0927 188.493 94.1247 188.35C94.1566 188.207 94.2169 188.072 94.302 187.953C98.7794 181.745 95.6189 181.896 89.5989 173.562C87.7176 170.834 96.4655 167.015 97.2932 163.591C98.4784 158.775 91.4049 157.42 91.292 154.58C91.292 152.209 98.0457 149.726 99.5319 146.189C99.8251 145.126 99.8741 144.01 99.6754 142.926C99.4767 141.841 99.0353 140.815 98.3844 139.925C96.9358 137.366 93.2109 139.078 94.6218 141.693C95.6942 143.668 95.5248 144.421 94.3208 145.286C89.8058 148.541 86.7958 150.93 86.2314 153.526C85.1967 158.718 92.7594 161.804 92.7029 163.196C92.7029 165.077 84.6323 167.73 84.6323 172.32C84.6323 177.512 90.9158 180.447 91.2168 183.25C91.4613 185.338 88.3384 187.032 88.9404 189.534Z" fill="#001434"/>
<path d="M149.365 178.265C156.646 168.764 147.484 150.178 133.619 154.486C122.011 158.098 117.158 166.846 116.556 174.333C114.787 196.024 141.257 188.819 149.365 178.265ZM129.837 160.976C129.932 167.598 130.853 177.494 135.086 182.441C117.741 190.625 117.158 167.805 129.837 160.976Z" fill="#001434"/>
</svg>
